<svg width="60" height="60" viewBox="0 0 60 60" fill="none" xmlns="http://www.w3.org/2000/svg">
<path d="M60 30C60 46.5685 46.5685 60 30 60C13.4315 60 0 46.5685 0 30C0 13.4315 13.4315 0 30 0C46.5685 0 60 13.4315 60 30Z" fill="url(#paint0_linear_12093:105612)"/>
<path d="M34.5765 34.1976L34.0289 33.0349L33.4814 34.1976C33.3395 34.5018 33.0488 34.718 32.7176 34.7722L31.3994 34.9749L32.3863 35.9889C32.6094 36.2187 32.7108 36.5432 32.6635 36.8609L32.4404 38.2264L33.5355 37.618C33.691 37.5369 33.86 37.4896 34.0289 37.4896C34.1979 37.4896 34.3669 37.5301 34.5224 37.618L35.6175 38.2264L35.3945 36.8609C35.3403 36.5432 35.4417 36.2187 35.6716 35.9889L36.6585 34.9749L35.3403 34.7722C35.0024 34.718 34.7185 34.5018 34.5765 34.1976Z" fill="white"/>
<path d="M30.0606 22.8751L29.8038 22.1653C29.6686 21.7935 29.7632 21.3812 30.0403 21.104C30.3175 20.8269 30.7299 20.7322 31.1016 20.8674L33.8325 21.8544L36.0633 20.2185C36.3675 19.9954 36.7731 19.9616 37.1178 20.1306C37.4626 20.2996 37.6721 20.6444 37.6789 21.0229L37.6992 22.8751H42.9515C44.6279 22.8751 45.9934 24.2406 45.9934 25.917C45.9934 26.478 46.4463 26.9309 47.0074 26.9309C47.0547 26.9309 47.102 26.9309 47.1493 26.9377L47.7239 26.3631C47.9132 26.1738 48.0213 25.917 48.0213 25.6466C48.0213 25.3762 47.9132 25.1193 47.7239 24.93C46.5409 23.7471 46.5409 21.8138 47.7239 20.6308C48.1227 20.232 48.1227 19.5898 47.7239 19.1978L40.0786 11.5458C39.8894 11.3564 39.6324 11.2483 39.3621 11.2483C39.0917 11.2483 38.8348 11.3564 38.6455 11.5458C37.4626 12.7287 35.5293 12.7287 34.3464 11.5458C34.1503 11.3564 33.8934 11.2483 33.623 11.2483C33.3526 11.2483 33.0957 11.3564 32.9065 11.5458L21.5771 22.8751H30.0606Z" fill="white"/>
<path d="M47.0071 28.9586C45.3307 28.9586 43.9653 27.5932 43.9653 25.9168C43.9653 25.3557 43.5123 24.9028 42.9513 24.9028H18.481C17.9199 24.9028 17.467 25.3557 17.467 25.9168C17.467 27.5932 16.1015 28.9586 14.4251 28.9586C13.8641 28.9586 13.4111 29.4116 13.4111 29.9726V40.7882C13.4111 41.3493 13.8641 41.8022 14.4251 41.8022C16.1015 41.8022 17.467 43.1676 17.467 44.8441C17.467 45.4052 17.9199 45.858 18.481 45.858H42.9513C43.5123 45.858 43.9653 45.4052 43.9653 44.8441C43.9653 43.1676 45.3307 41.8022 47.0071 41.8022C47.5682 41.8022 48.0211 41.3493 48.0211 40.7882V29.9726C48.0211 29.4116 47.5682 28.9586 47.0071 28.9586ZM24.2267 42.2078V42.8838C24.2267 43.4448 23.7739 43.8977 23.2128 43.8977C22.6517 43.8977 22.1989 43.4448 22.1989 42.8838V42.1402C22.1989 41.5791 22.6517 41.1262 23.2128 41.1262C23.7739 41.1262 24.2267 41.5791 24.2267 42.1402V42.2078ZM24.2267 37.476V38.1519C24.2267 38.713 23.7739 39.1659 23.2128 39.1659C22.6517 39.1659 22.1989 38.713 22.1989 38.1519V37.4084C22.1989 36.8473 22.6517 36.3944 23.2128 36.3944C23.7739 36.3944 24.2267 36.8473 24.2267 37.4084V37.476ZM24.2267 32.7441V33.4201C24.2267 33.9812 23.7739 34.434 23.2128 34.434C22.6517 34.434 22.1989 33.9812 22.1989 33.4201V32.6765C22.1989 32.1155 22.6517 31.6626 23.2128 31.6626C23.7739 31.6626 24.2267 32.1155 24.2267 32.6765V32.7441ZM24.2267 28.0123V28.6883C24.2267 29.2494 23.7739 29.7022 23.2128 29.7022C22.6517 29.7022 22.1989 29.2494 22.1989 28.6883V27.9447C22.1989 27.3836 22.6517 26.9308 23.2128 26.9308C23.7739 26.9308 24.2267 27.3836 24.2267 27.9447V28.0123ZM39.4835 34.9681L37.4759 37.0298L37.9491 39.95C38.0099 40.3353 37.8477 40.7206 37.5299 40.9437C37.3542 41.0654 37.1514 41.1262 36.9486 41.1262C36.7796 41.1262 36.6106 41.0856 36.4551 40.9978L34.0217 39.6526L31.5881 40.9978C31.2501 41.187 30.8311 41.16 30.5133 40.937C30.1956 40.7139 30.0334 40.3286 30.0942 39.9432L30.5674 37.023L28.5597 34.9613C28.2961 34.6909 28.2015 34.2921 28.3232 33.9338C28.4449 33.5756 28.7558 33.312 29.1343 33.2511L31.8721 32.832L33.1023 30.2092C33.2713 29.851 33.6296 29.6279 34.0217 29.6279C34.4137 29.6279 34.772 29.8577 34.941 30.2092L36.1713 32.832L38.9089 33.2511C39.2875 33.3052 39.5985 33.5688 39.7201 33.9338C39.8418 34.2989 39.7539 34.6977 39.4835 34.9681Z" fill="white"/>
<defs>
<linearGradient id="paint0_linear_12093:105612" x1="20" y1="52.8947" x2="73.1133" y2="24.7226" gradientUnits="userSpaceOnUse">
<stop stop-color="#0FD186"/>
<stop offset="1" stop-color="#3FDA9E"/>
</linearGradient>
</defs>
</svg>
