<svg width="60" height="60" viewBox="0 0 60 60" fill="none" xmlns="http://www.w3.org/2000/svg">
<path d="M60 30C60 46.5685 46.5685 60 30 60C13.4315 60 0 46.5685 0 30C0 13.4315 13.4315 0 30 0C46.5685 0 60 13.4315 60 30Z" fill="url(#paint0_linear_12093:105617)"/>
<path d="M33.8945 36.7545L35.1026 37.9626C35.7015 38.5615 35.7015 39.5259 35.1026 40.1147C34.8082 40.4091 34.4123 40.5613 34.0265 40.5613C33.6407 40.5613 33.2449 40.4091 32.9505 40.1147L29.1437 36.3079C29.1437 36.3079 29.1437 36.2977 29.1335 36.2977C29.103 36.2673 29.0726 36.2267 29.0421 36.1962C29.032 36.1861 29.0218 36.1759 29.0218 36.1657C29.0015 36.1353 28.9812 36.1049 28.9609 36.0744C28.9507 36.0643 28.9507 36.0541 28.9406 36.0439C28.9203 36.0135 28.9 35.983 28.8797 35.9424C28.8797 35.9323 28.8695 35.9323 28.8695 35.9221C28.8493 35.8815 28.8289 35.8511 28.8188 35.8105C28.8188 35.8105 28.8188 35.8003 28.8087 35.8003C28.7883 35.7597 28.7782 35.7191 28.768 35.6785V35.6683C28.7579 35.6277 28.7477 35.5871 28.7376 35.5363C28.7376 35.5262 28.7376 35.5059 28.7274 35.4957C28.7173 35.4551 28.7173 35.4247 28.7071 35.3841C28.697 35.3333 28.697 35.2826 28.697 35.2318C28.697 35.1811 28.697 35.1303 28.7071 35.0795C28.7071 35.0389 28.7173 35.0085 28.7274 34.9679C28.7274 34.9577 28.7274 34.9374 28.7376 34.9273C28.7477 34.8867 28.7579 34.8461 28.768 34.7953C28.768 34.7851 28.768 34.7851 28.768 34.775C28.7782 34.7344 28.7985 34.6938 28.8087 34.6532C28.8087 34.6431 28.8087 34.643 28.8188 34.643C28.8391 34.6024 28.8493 34.572 28.8695 34.5314C28.8695 34.5212 28.8797 34.5212 28.8797 34.5111C28.9 34.4806 28.9203 34.4501 28.9406 34.4095C28.9507 34.3994 28.9507 34.3893 28.9609 34.3791C28.9812 34.3487 29.0015 34.3182 29.0218 34.2979C29.032 34.2877 29.0421 34.2776 29.0523 34.2573C29.0827 34.2268 29.103 34.1963 29.1335 34.1659C29.1437 34.1557 29.1437 34.1557 29.1538 34.1456L32.9606 30.3388C33.5595 29.7399 34.5239 29.7399 35.1127 30.3388C35.7117 30.9377 35.7117 31.9021 35.1127 32.4909L33.8945 33.7091H39.8637H42.9091V32.0849V27.2121H39.8637H37.7115H30.2197C29.3771 27.2121 28.697 26.532 28.697 25.6894V18.1976V16.0455V13H17.0227C16.1801 13 15.5 13.6801 15.5 14.5227V44.9773C15.5 45.8199 16.1801 46.5 17.0227 46.5H41.3863C42.2289 46.5 42.9091 45.8199 42.9091 44.9773V40.9065V36.7545H39.8637H33.8945Z" fill="white"/>
<path d="M42.016 24.1669L31.7427 13.8936V18.1978V24.1669H37.7117H42.016Z" fill="white"/>
<path d="M47.4774 33.709H47.2438H42.9092V36.7545H46.2287H47.4774C48.3199 36.7545 49.0001 36.0743 49.0001 35.2317C49.0001 34.3891 48.3199 33.709 47.4774 33.709Z" fill="white"/>
<defs>
<linearGradient id="paint0_linear_12093:105617" x1="25" y1="43.4211" x2="71.1327" y2="22.8898" gradientUnits="userSpaceOnUse">
<stop stop-color="#FFAE06"/>
<stop offset="1" stop-color="#FFBE38"/>
</linearGradient>
</defs>
</svg>
