<svg width="305" height="308" viewBox="0 0 305 308" fill="none" xmlns="http://www.w3.org/2000/svg">
<path d="M67.2408 141.521C59.8384 168.427 71.7645 198.74 93.7954 215.894C115.768 233.048 146.2 237.631 173.283 230.875C196.724 225.059 218.402 210.725 230.975 190.046C243.488 169.367 246.014 142.344 235.263 120.725C224.453 98.8714 202.893 83.4211 179.628 77.1352C135.507 65.3859 79.3431 97.5203 67.2408 141.521Z" fill="#FDCC13"/>
<path d="M50.5561 148.454C58.4285 135.589 61.1897 117.612 68.3571 103.807C68.9446 102.69 69.5321 101.339 69.0034 100.164C68.5921 99.2832 67.7109 98.8132 66.8297 98.402C47.1487 89.59 -20.6479 106.098 7.66922 135.53C15.1891 143.343 41.3913 163.434 50.5561 148.454Z" fill="#E8770A"/>
<path d="M77.0521 221.886C72.9984 216.658 68.181 212.134 64.186 206.847C55.6674 195.627 56.6662 186.345 40.9801 195.803C35.3402 199.21 30.699 204.027 26.2928 208.903C20.8879 214.837 15.6593 221.123 12.4281 228.466C10.3131 233.224 9.37309 239.393 12.898 243.211C15.0718 245.561 18.4205 246.384 21.5342 247.03C33.6365 249.556 45.9151 251.377 58.1936 252.376C62.9523 252.787 67.8873 253.022 72.3522 251.26C79.4021 248.44 83.9258 240.333 82.5158 232.813C81.7521 228.76 79.5196 225.117 77.0521 221.886Z" fill="#E8770A"/>
<path d="M175.398 254.491C164.941 256.547 154.249 256.841 143.733 255.607C142.969 254.667 141.618 254.197 140.443 255.078C140.384 255.137 140.384 255.137 140.325 255.196C138.21 254.902 136.095 254.55 133.98 254.138C133.628 253.61 133.217 253.14 132.629 252.787C131.043 251.789 129.045 251.847 127.4 252.67C126.695 252.494 125.932 252.317 125.227 252.082C124.345 251.847 124.052 253.14 124.874 253.433C125.168 253.551 125.52 253.668 125.814 253.786C125.638 253.962 125.462 254.197 125.285 254.432C123.229 257.546 124.757 261.364 125.755 264.478C126.872 267.826 128.047 271.175 129.398 274.465C132.1 281.103 135.214 287.624 139.268 293.557C142.91 298.845 147.375 303.956 153.544 306.188C167.643 311.24 176.045 295.202 180.333 284.687C183.036 277.99 185.092 270.94 186.149 263.773C186.561 261.012 186.737 257.781 184.681 255.548C182.213 252.729 178.512 253.845 175.398 254.491ZM156.657 262.833C156.246 263.185 155.894 263.538 155.482 263.832C155.659 263.538 155.835 263.303 156.011 263.009C156.07 262.95 156.07 262.892 156.129 262.833C156.246 262.833 156.481 262.833 156.657 262.833ZM144.673 281.456C144.555 281.162 144.496 280.927 144.32 280.692C145.201 279.928 146.024 279.223 146.905 278.46C146.141 279.517 145.436 280.516 144.673 281.456ZM147.023 287.683C147.669 287.095 148.315 286.508 148.903 285.92C148.903 286.214 148.961 286.508 149.079 286.802C148.374 287.095 147.728 287.565 147.199 288.094C147.14 287.976 147.081 287.8 147.023 287.683ZM170.346 262.598C170.287 262.363 170.228 262.187 170.111 261.952C170.405 261.952 170.698 261.893 170.992 261.893C170.757 262.128 170.581 262.363 170.346 262.598ZM163.179 263.832C163.355 263.362 163.355 262.892 163.296 262.48C163.707 262.48 164.06 262.422 164.471 262.422C164.001 262.892 163.59 263.362 163.179 263.832ZM146.259 260.131C145.671 260.718 145.143 261.247 144.555 261.775C144.261 261.129 143.791 260.601 143.145 260.307C143.439 259.778 143.791 259.249 144.085 258.721C144.849 258.838 145.613 258.956 146.435 259.073C146.318 259.426 146.259 259.778 146.259 260.131ZM129.457 256.841C129.339 256.723 129.339 256.665 129.398 256.606C129.398 256.547 129.457 256.665 129.457 256.841ZM132.864 267.004C132.688 267.298 132.512 267.65 132.277 267.944C132.159 267.65 132.1 267.415 131.983 267.121C132.335 267.121 132.629 267.121 132.864 267.004ZM135.978 275.463C135.801 275.64 135.684 275.816 135.508 275.992C135.508 276.051 135.449 276.051 135.449 276.11C135.39 275.933 135.273 275.698 135.214 275.522C135.449 275.522 135.743 275.522 135.978 275.463ZM159.712 300.137C158.067 300.842 156.246 300.724 154.484 300.137C155.776 299.608 156.951 298.727 157.774 297.611C157.891 297.493 157.95 297.376 158.009 297.258C159.007 298.668 161.357 299.08 162.65 297.2C162.944 296.73 163.296 296.318 163.59 295.848C162.767 297.552 161.592 299.315 159.712 300.137ZM137.094 257.487C137.094 257.428 137.094 257.369 137.094 257.311C137.153 257.311 137.211 257.369 137.27 257.369C137.211 257.428 137.153 257.487 137.094 257.487ZM170.698 294.027C171.286 292.617 171.873 291.208 172.461 289.915C174.576 285.157 176.75 280.398 178.865 275.64C177.396 280.222 175.633 284.745 173.46 289.034C172.696 290.738 171.756 292.441 170.698 294.027ZM181.978 262.539C181.685 264.772 181.215 267.004 180.627 269.178C180.157 268.179 179.1 267.533 178.042 267.591C179.511 265.065 180.862 262.422 182.037 259.719C182.213 260.659 182.096 261.717 181.978 262.539Z" fill="#E8770A"/>
<path d="M279.032 184.524C275.154 179.942 270.572 175.712 265.402 172.539C262.523 170.777 258.763 170.131 256.355 173.009C255.356 174.184 254.71 175.712 254.063 177.063C253.182 178.767 252.36 180.47 251.479 182.115C247.777 189.165 244.017 196.214 240.022 203.088C238.025 206.495 236.145 210.02 234.089 213.427C233.384 214.602 232.62 215.777 231.915 216.952C231.504 217.422 231.151 217.892 230.74 218.362C230.329 218.832 230.094 219.36 229.976 219.889C229.095 221.24 228.155 222.533 227.215 223.884C226.98 224.178 227.509 224.589 227.744 224.295C228.508 223.355 229.271 222.356 230.035 221.417C230.329 222.239 231.034 223.003 232.033 223.414C238.847 226.292 245.78 228.819 252.83 231.051C259.527 233.166 266.459 235.281 273.392 236.456C278.562 237.396 284.789 237.748 289.254 234.458C294.894 230.346 294.542 223.355 293.719 217.187C292.133 205.144 286.904 193.806 279.032 184.524ZM269.808 223.59C270.513 222.474 270.572 220.947 269.632 219.595C270.043 219.184 270.396 218.714 270.572 218.127C270.983 216.952 271.453 215.718 271.864 214.543C271.512 216.776 271.159 219.008 270.807 221.24C270.631 222.239 270.807 223.238 271.336 224.06C270.866 223.825 270.337 223.708 269.808 223.59ZM244.605 217.304C246.074 219.067 247.719 220.653 249.54 222.004C248.776 221.828 248.071 221.593 247.307 221.417C246.25 221.123 243.724 220.888 243.136 219.889C242.901 219.419 243.841 218.009 244.605 217.304ZM275.918 224.765C276.329 224.53 276.682 224.178 276.858 223.708C277.798 221.417 278.856 219.184 279.913 216.952C279.972 218.949 279.913 221.005 279.737 223.003C279.561 223.59 279.384 224.119 279.149 224.589C278.092 224.824 277.034 224.883 275.918 224.765ZM249.834 204.733C249.129 206.142 248.482 207.552 247.777 208.962C246.896 209.08 246.015 209.315 245.134 209.608C247.66 206.142 250.069 202.618 252.418 199.093C252.536 198.917 252.653 198.74 252.771 198.505C251.831 200.562 250.832 202.618 249.834 204.733ZM287.139 213.486C287.08 213.486 287.022 213.486 287.022 213.486C286.963 213.133 286.963 212.781 286.904 212.428C286.963 212.722 287.08 213.016 287.139 213.31C287.08 213.368 287.08 213.427 287.139 213.486ZM260.408 176.417C260.585 176.299 260.878 176.24 261.231 176.299C260.702 176.652 260.173 177.063 259.703 177.533C259.88 177.122 260.115 176.652 260.408 176.417ZM282.909 230.933C282.968 230.875 282.968 230.816 283.027 230.757C283.967 230.64 284.907 230.052 285.494 228.877C285.847 228.642 286.199 228.407 286.493 228.114C287.022 227.644 287.55 227.174 287.962 226.645C287.785 227.35 287.433 227.937 287.022 228.525C286.082 229.876 284.554 230.581 282.909 230.933Z" fill="#E8770A"/>
<path d="M237.202 95.2295C241.256 101.045 244.428 107.801 249.011 113.323C249.187 114.146 249.363 115.027 249.481 115.908C249.657 117.142 251.478 117.318 251.596 116.143C251.713 116.261 251.831 116.378 251.948 116.496C253.476 117.906 255.18 119.374 257.118 120.197C259.527 121.313 261.877 120.549 263.757 118.787C267.047 115.673 269.867 111.914 272.569 108.271C277.974 101.104 282.498 93.2322 286.082 84.9489C289.136 77.8406 292.25 69.3223 289.078 61.744C285.729 53.6957 277.034 51.9921 269.162 52.8733C264.579 53.402 260.056 54.4007 255.532 55.2819C250.597 56.2218 245.662 57.2793 240.786 58.513C236.145 59.6879 231.269 60.7453 226.921 62.8015C225.218 63.6239 223.573 64.8576 222.809 66.6787C222.75 66.7962 222.75 66.855 222.691 66.9725C221.693 67.3249 220.694 67.7362 219.754 68.1474C217.815 68.9698 217.991 71.6134 219.108 72.9646C225.394 80.1317 231.739 87.3575 237.202 95.2295ZM234.441 81.6591C234.97 81.6591 235.499 81.5416 235.91 81.1891C236.497 80.7191 237.085 80.3079 237.672 79.8379C236.909 80.8366 236.204 81.8941 235.44 82.8928C235.087 82.4815 234.735 82.0703 234.441 81.6591ZM259.175 83.9502C257.471 87.24 255.767 90.4711 254.005 93.7021C253.652 93.1147 253.358 92.5859 253.006 91.9985C255.003 89.3549 257.06 86.6525 259.175 83.9502ZM259.527 106.626C258.998 104.805 258.352 102.984 257.647 101.222C257.706 101.104 257.706 100.928 257.765 100.81C258.411 102.22 260.056 103.043 261.583 102.632C260.937 103.983 260.232 105.334 259.527 106.626ZM231.621 77.1356C231.504 77.3706 231.386 77.6056 231.327 77.8993C231.21 77.7231 231.092 77.6056 230.916 77.4293C230.857 77.3119 230.799 77.1944 230.74 77.0769C231.034 77.1356 231.327 77.1356 231.621 77.1356ZM242.255 92.2922C241.256 90.7648 240.199 89.2961 239.141 87.8862C239.435 87.7687 239.67 87.5337 239.964 87.2988C240.316 86.9463 240.61 86.5938 240.962 86.2413C241.021 86.7113 241.139 87.1813 241.374 87.5925C244.017 92.8797 246.72 98.2256 249.363 103.513C249.775 104.335 250.186 105.216 250.656 106.039C250.186 105.334 249.775 104.629 249.363 103.924C246.955 99.988 244.781 96.052 242.255 92.2922ZM267.106 106.274C267.106 106.274 267.106 106.333 267.106 106.274C267.106 106.45 266.988 106.509 266.929 106.626C266.929 106.509 267.047 106.391 267.106 106.274ZM282.85 62.684C282.85 62.3315 282.792 61.979 282.792 61.6853C283.144 62.1552 283.438 62.6252 283.732 63.0952C283.379 62.9777 283.144 62.8015 282.85 62.684ZM229.8 71.026C229.565 71.3197 229.33 71.6134 229.036 71.8484C228.801 72.0834 228.625 72.3771 228.507 72.6121C228.39 72.3184 228.273 72.0247 228.096 71.7309C228.038 71.6722 228.038 71.5547 227.979 71.4959C228.566 71.3197 229.213 71.1435 229.8 71.026ZM260.996 59.6291C262.406 59.3942 263.757 59.1004 265.167 58.8654C264.814 58.9829 264.462 59.1004 264.109 59.2179C261.759 59.9229 259.468 60.6278 257.118 61.3328C255.826 61.4503 254.533 61.6853 253.241 61.9203C252.418 61.5678 251.478 61.5678 250.715 62.214C250.597 62.3315 250.421 62.449 250.303 62.5665C248.012 63.0952 245.721 63.8589 243.488 64.7401C242.725 64.0939 241.726 63.8001 240.727 64.1526C240.022 64.4464 239.317 64.7401 238.612 65.0338C238.495 64.8576 238.377 64.6813 238.26 64.5051C245.78 62.449 253.358 60.9803 260.996 59.6291Z" fill="#E8770A"/>
<path d="M148.843 57.4552C152.721 57.2202 156.598 57.1027 160.417 57.1027C163.002 57.1027 164.059 54.4591 163.119 52.3443C159.066 43.2385 154.777 34.1328 147.433 27.142C143.791 23.676 139.62 20.6799 135.507 17.8013C130.925 14.629 126.284 11.4567 121.701 8.28437C119.469 6.75696 117.178 5.1708 114.945 3.64339C112.948 2.23348 110.598 -0.0576386 108.013 0.00110789C105.134 0.0598544 103.665 2.52721 102.725 4.87707C101.727 7.28568 100.728 9.69428 99.7879 12.1616C95.9104 22.1485 92.503 32.3704 90.7993 43.0036C89.8593 48.8782 89.3893 54.8704 89.8005 60.8625C90.0943 65.6797 90.3293 72.0831 95.0879 74.7854C96.6742 75.6666 98.3191 74.7854 98.9066 73.1993C101.433 66.7959 109.599 64.7398 115.65 63.4473C125.461 61.3325 135.39 59.8051 145.26 58.1602C146.435 57.8664 147.61 57.6314 148.843 57.4552ZM118.411 47.4095C118.47 47.6445 118.588 47.8795 118.705 48.1145C118.47 48.232 118.176 48.3495 117.941 48.4082C118.118 48.1145 118.294 47.762 118.411 47.4095ZM113.241 39.9487C112.713 41.1237 112.125 42.2986 111.538 43.4735C110.833 44.0022 110.069 44.531 109.305 45.0009C110.01 42.4748 110.656 39.9487 111.361 37.4814C111.89 38.3626 112.536 39.185 113.241 39.89V39.9487ZM126.812 45.4122C126.401 45.5297 125.931 45.6472 125.52 45.7646C125.873 44.8834 126.225 44.061 126.636 43.2385C126.812 43.2385 127.047 43.2973 127.224 43.2973C127.106 44.0022 126.989 44.7072 126.812 45.4122ZM106.015 57.9839C106.015 58.0427 106.074 58.1602 106.074 58.2189C106.015 58.2189 105.957 58.2189 105.957 58.2776C105.957 58.1602 105.957 58.0427 106.015 57.9839ZM119.528 20.6211C119.528 20.4449 119.528 20.3274 119.528 20.1512C119.586 20.2099 119.645 20.3274 119.704 20.3861C119.586 20.4449 119.528 20.5036 119.528 20.6211ZM152.427 50.8756C152.368 49.8182 152.075 48.7607 151.663 47.762C151.311 47.0571 150.9 46.3521 150.488 45.7646C150.488 45.0009 150.488 44.2372 150.547 43.4735C150.665 42.7098 150.723 41.9461 150.665 41.1824C152.545 44.2372 154.131 47.527 155.658 50.8168C154.542 50.8168 153.485 50.8756 152.427 50.8756ZM147.903 37.3051C147.903 37.2464 147.903 37.1877 147.903 37.1289C147.962 37.1877 148.021 37.2464 148.021 37.3051C147.962 37.3051 147.903 37.3051 147.903 37.3051ZM136.917 26.3783C136.506 26.6133 136.154 27.0245 135.919 27.5532C135.742 27.9645 135.507 28.3757 135.331 28.8456C135.331 27.9644 135.39 27.0245 135.39 26.1433C135.39 25.7908 135.331 25.4971 135.272 25.2034C135.801 25.5558 136.389 25.9671 136.917 26.3783ZM132.041 22.9122C131.219 22.9122 130.396 23.206 129.75 23.8522C129.691 23.7347 129.632 23.676 129.574 23.5585C128.81 22.3248 127.987 20.9149 127.047 19.4462C128.516 20.5036 129.985 21.5023 131.512 22.5598C131.689 22.6773 131.865 22.7948 132.041 22.9122ZM96.0867 67.8533C95.9692 67.4421 95.8517 67.0309 95.7929 66.6197C95.7342 66.2672 95.6754 65.8559 95.6167 65.5035C96.7329 65.7972 98.0254 65.621 98.9654 64.8573C97.9079 65.7385 96.9679 66.7372 96.0867 67.8533Z" fill="#E8770A"/>
<path d="M198.486 49.407C194.198 48.3496 188.616 48.1146 184.621 50.347C183.858 50.7582 184.151 52.2269 185.091 52.1094C187.206 51.8744 189.145 51.4044 191.26 51.4632C193.434 51.5219 195.549 51.9331 197.546 52.6381C199.661 53.4018 200.66 49.9358 198.486 49.407Z" fill="#E8770A"/>
<path d="M202.599 34.7789C201.072 34.8964 199.544 35.2488 198.017 35.1314C196.43 35.0139 194.962 34.4264 193.376 34.1327C192.906 34.0739 192.318 34.5439 192.671 35.0726C194.844 38.0687 200.073 38.8911 203.304 37.3637C204.597 36.835 203.95 34.7201 202.599 34.7789Z" fill="#E8770A"/>
<path d="M196.665 24.0869C198.78 24.8506 200.895 25.4969 203.069 26.2018C205.243 26.9068 206.241 23.382 204.009 22.7945C201.835 22.2071 199.662 21.6196 197.488 21.1496C195.549 20.6209 194.785 23.4407 196.665 24.0869Z" fill="#E8770A"/>
<path d="M271.335 148.219C271.629 143.93 270.924 138.878 268.222 135.353C267.458 134.355 266.165 135.471 266.342 136.47C266.694 138.35 267.282 140.171 267.399 142.051C267.575 143.93 267.458 145.81 267.105 147.631C266.518 150.686 271.159 151.332 271.335 148.219Z" fill="#E8770A"/>
<path d="M284.025 145.399C284.025 142.344 283.908 139.172 282.439 136.411C281.675 135.001 279.737 136.058 279.972 137.468C280.383 139.994 280.912 142.403 280.266 144.929C279.561 147.631 284.025 148.219 284.025 145.399Z" fill="#E8770A"/>
<path d="M288.784 142.638C288.549 144.459 288.49 146.339 288.373 148.16C288.255 150.862 292.661 150.862 292.544 148.16C292.485 146.28 292.368 144.459 292.133 142.638C291.957 140.464 289.019 140.464 288.784 142.638Z" fill="#E8770A"/>
<path d="M304 146.339C303.941 145.575 303.354 144.812 302.531 144.87C301.65 144.929 301.121 145.517 301.063 146.339C301.004 146.927 300.945 147.573 300.945 148.16C300.886 149.041 301.768 149.805 302.59 149.805C303.413 149.746 304.294 149.1 304.235 148.16C304.059 147.573 304.059 146.985 304 146.339Z" fill="#E8770A"/>
<path d="M219.225 239.335C216.64 240.157 214.29 241.802 211.94 243.153C209.531 244.504 206.946 245.797 204.772 247.5C202.599 249.204 205.36 252.083 207.534 251.084C209.942 249.968 212.116 248.147 214.348 246.737C216.522 245.327 218.99 243.976 220.811 242.155C221.986 240.921 220.87 238.806 219.225 239.335Z" fill="#E8770A"/>
<path d="M228.214 248.44C228.507 248.029 228.037 247.383 227.509 247.559C224.16 248.734 221.399 251.025 218.461 253.081C216.229 254.608 218.696 257.839 220.752 256.018C223.396 253.668 226.334 251.436 228.214 248.44Z" fill="#E8770A"/>
<path d="M229.506 258.603C227.802 258.838 226.392 259.485 225.276 260.895C224.219 262.246 223.572 263.891 223.749 265.594C223.866 266.652 224.63 267.592 225.746 267.592C226.804 267.592 227.802 266.652 227.744 265.594C227.626 264.067 228.449 262.539 229.917 261.952C230.681 261.658 231.268 261.012 231.151 260.072C231.092 259.367 230.387 258.486 229.506 258.603Z" fill="#E8770A"/>
<path d="M111.714 249.615C109.482 248.792 107.132 248.322 104.84 247.676C102.667 247.03 100.552 246.207 98.2605 245.914C97.438 245.796 96.968 247.089 97.5555 247.617C99.3767 249.145 101.55 250.085 103.724 251.025C105.957 251.965 108.248 253.081 110.598 253.551C113.241 254.138 114.181 250.496 111.714 249.615Z" fill="#E8770A"/>
<path d="M95.1464 259.602C94.5589 259.955 94.8527 260.66 95.4402 260.777C96.6151 260.953 97.9076 261.071 99.0239 261.541C100.199 262.011 101.139 262.774 102.079 263.597C103.195 264.537 105.251 263.303 104.253 261.893C102.373 259.191 98.0839 257.781 95.1464 259.602Z" fill="#E8770A"/>
<path d="M96.3216 272.996C96.7916 273.055 96.3216 272.996 96.2041 272.937C96.1453 272.937 96.1453 272.937 96.1453 272.937C96.1453 272.937 96.1453 272.937 96.0866 272.937C95.9691 272.879 95.9103 272.82 95.7928 272.761C95.7341 272.702 95.6753 272.702 95.6753 272.644C95.6166 272.585 95.5579 272.526 95.5579 272.526C95.3229 272.232 95.2641 272.174 95.3816 272.291C95.4403 272.409 95.4403 272.35 95.3228 272.232C95.3228 272.174 95.2053 271.997 95.2053 271.997C95.2053 271.88 95.1466 271.821 95.1466 271.704C94.7353 269.824 91.7979 270.294 91.7979 272.174C91.8566 274.758 93.7953 276.521 96.2628 276.815C97.2616 276.932 98.2016 275.875 98.1428 274.935C98.2016 273.76 97.3791 273.055 96.3216 272.996Z" fill="#E8770A"/>
<path d="M42.86 169.015C42.0962 170.542 42.2137 172.54 42.0962 174.243C41.9787 176.123 41.5087 178.297 41.9787 180.118C42.4487 181.763 44.8574 181.763 45.3274 180.118C45.8562 178.297 45.3862 176.123 45.2099 174.243C45.0924 172.54 45.2099 170.542 44.4462 169.015C44.1524 168.369 43.1537 168.369 42.86 169.015Z" fill="#E8770A"/>
<path d="M32.8141 171.834C32.2266 173.068 32.2266 174.419 32.0504 175.77C31.8741 177.357 31.7566 178.884 31.9329 180.529C32.1679 182.409 34.6941 182.468 34.9291 180.529C35.1054 178.884 34.9879 177.415 34.8116 175.77C34.6941 174.419 34.6941 173.068 34.0479 171.834C33.8716 171.364 33.0491 171.364 32.8141 171.834Z" fill="#E8770A"/>
<path d="M22.7681 176.593C20.7706 179.354 19.3019 182.526 17.7156 185.581C17.0106 186.874 19.1256 188.049 19.6543 186.697C21.0056 183.466 22.6506 180.294 23.5318 176.945C23.708 176.417 23.0618 176.182 22.7681 176.593Z" fill="#E8770A"/>
<path d="M79.9898 71.7892C77.8748 73.5516 76.1123 75.784 74.5261 78.0164C72.9986 80.19 71.4711 82.5986 70.6486 85.1834C70.2374 86.3584 71.9999 87.5333 72.8811 86.4759C74.4673 84.4785 75.8773 82.3048 77.581 80.425C79.2847 78.4863 81.2822 76.7827 83.1622 75.0203C85.3359 72.9642 82.2222 69.9681 79.9898 71.7892Z" fill="#E8770A"/>
<path d="M63.5983 72.9643C64.9495 71.9069 66.0657 70.5557 67.2995 69.3221C68.4744 68.1471 69.9432 67.1484 70.7657 65.7385C71.7057 64.1524 69.6494 62.8012 68.3569 63.8586C67.0057 64.9161 66.1832 66.6785 65.1845 67.9709C64.1858 69.2633 63.0695 70.497 62.3058 71.9069C61.7183 72.7881 62.8933 73.5518 63.5983 72.9643Z" fill="#E8770A"/>
<path d="M57.9583 61.6845C58.6633 61.097 58.8983 60.2746 59.4858 59.5696C60.0145 58.8647 60.7783 58.3947 61.6007 58.1597C63.7157 57.5135 62.482 54.2824 60.367 55.2811C58.3695 56.2211 55.4908 59.4521 57.1945 61.6845C57.4295 61.8607 57.7821 61.802 57.9583 61.6845Z" fill="#E8770A"/>
<path d="M58.4283 53.5191C58.6633 53.5191 59.0157 53.2842 58.957 52.9904C58.8983 52.6379 58.8983 52.2267 58.722 51.8742C58.6045 51.6393 58.1933 51.6393 58.0758 51.8742C57.8995 52.2267 57.8996 52.6379 57.8408 52.9904C57.8996 53.2842 58.1933 53.5191 58.4283 53.5191Z" fill="#E8770A"/>
<path d="M173.812 138.29C176.632 132.122 182.154 128.303 188.969 128.01C194.727 127.775 200.719 130.007 204.009 134.942C206.3 138.466 211.999 135 209.59 131.652C204.714 124.896 196.548 121.724 188.323 122.722C181.097 123.604 171.109 129.067 171.579 137.585C171.638 138.76 173.283 139.406 173.812 138.29Z" fill="#2A2A86"/>
<path d="M126.989 143.989C127.165 140.934 124.58 137.879 122.289 136.117C119.586 134.002 116.003 132.944 112.536 133.121C104.781 133.532 98.8478 139.641 96.3216 146.573C95.2641 149.511 99.9053 150.744 100.963 147.866C102.843 142.872 107.073 138.29 112.536 137.409C115.063 136.998 117.589 137.585 119.821 138.76C122.406 140.17 123.405 142.167 124.991 144.517C125.579 145.457 126.93 145.105 126.989 143.989Z" fill="#2A2A86"/>
<path d="M121.76 171.6C121.76 171.6 182.977 160.673 183.036 160.673C184.739 160.379 180.039 173.891 179.687 174.537C175.457 181.351 167.291 188.577 159.477 190.457C145.612 193.806 124.698 187.344 121.76 171.6Z" fill="#E8770A"/>
<path d="M109.952 100.869C105.017 105.099 109.717 113.147 115.533 112.912C123.17 112.56 125.873 102.984 120.233 98.2256C113.77 92.8209 104.547 98.5781 105.428 106.626C105.898 110.797 109.188 114.381 113.594 114.205C118.235 114.028 121.995 109.27 120.82 104.688C119.704 100.399 114.828 98.0494 110.657 99.283C108.013 100.105 106.015 102.279 106.192 105.099C106.368 108.506 109.188 110.915 112.537 111.032C114.886 111.091 116.943 109.152 117.178 106.92C117.471 104.453 116.061 102.573 113.77 101.692C114.358 102.22 114.945 102.749 115.533 103.337C115.122 104.923 114.71 106.45 114.299 108.036C113.829 108.506 113.242 108.389 112.713 108.389C113.242 108.565 113.242 108.565 112.772 108.389C112.302 108.154 112.008 107.743 111.832 107.214C111.538 106.274 111.714 105.686 112.419 105.393C113.183 105.099 113.77 105.275 114.123 105.863C113.77 105.334 113.711 105.216 113.888 105.451C113.829 105.804 113.947 104.923 113.947 104.805C113.888 105.04 114.475 103.983 114.358 104.042C114.71 103.748 115.063 103.63 115.768 103.983C117.53 104.864 116.59 106.861 115.004 107.331C112.537 108.036 111.832 104.688 112.537 102.984C113.3 101.163 111.479 99.5768 109.952 100.869Z" fill="#FFDC6F"/>
<path d="M93.3253 115.555C92.7966 116.143 92.3853 116.848 92.4441 117.67C92.4441 118.375 92.6203 119.08 93.0316 119.726C93.2666 120.079 93.6778 120.607 94.0891 120.842C94.8528 121.254 95.6165 121.195 96.3215 120.901C96.7915 120.725 97.0853 120.549 97.4378 120.196C97.4378 120.196 97.6728 120.02 97.6728 119.961C97.7315 120.02 97.0265 120.314 97.4965 120.137C97.2615 120.255 97.0853 120.314 96.8503 120.431C98.3777 120.079 99.3765 118.257 99.2002 116.789C99.0827 115.731 98.7302 114.733 97.7315 114.204C97.0265 113.851 96.204 113.675 95.3815 113.91C94.6765 114.086 93.9716 114.615 93.5603 115.32C92.9728 116.319 93.0903 117.376 93.5603 118.375C93.5603 118.434 93.6191 118.434 93.6191 118.492C93.5016 118.257 93.4428 118.022 93.3253 117.787C93.3841 117.964 93.4428 118.14 93.4428 118.375C93.5603 118.962 93.8541 119.432 94.2065 119.844C93.9716 119.432 93.7366 119.08 93.5016 118.669C93.5016 118.669 93.5016 118.727 93.5603 118.727C93.5016 118.492 93.5016 118.257 93.4428 118.022C93.4428 118.081 93.4428 118.14 93.4428 118.199C93.5016 117.964 93.5016 117.729 93.5603 117.553C93.5603 117.611 93.5603 117.611 93.5016 117.67C93.5603 117.494 93.6778 117.259 93.7366 117.083C93.6778 117.2 93.4428 117.553 93.6778 117.2C93.8541 117.024 93.8541 116.965 93.7366 117.141C93.5603 117.318 93.6191 117.259 93.9716 116.965C94.7353 116.965 95.4991 116.965 96.3215 116.965C96.2628 116.965 96.204 116.906 96.1453 116.848C95.8516 116.73 96.3803 117.024 96.3215 117.024C96.3215 117.024 96.1453 116.906 96.1453 116.848C96.1453 116.906 96.439 117.318 96.2628 116.965C96.1453 116.73 96.3803 117.376 96.3803 117.141C96.3803 117.083 96.3215 117.024 96.3215 116.965C96.3215 116.906 96.2628 116.789 96.2628 116.789C96.204 116.671 96.3215 117.259 96.2628 116.906C96.2628 116.201 95.8515 115.555 95.1466 115.261C94.6178 114.909 93.8541 115.026 93.3253 115.555Z" fill="#FFDC6F"/>
</svg>
