<svg width="18" height="18" viewBox="0 0 18 18" fill="none" xmlns="http://www.w3.org/2000/svg">
    <mask id="path-1-outside-1" maskUnits="userSpaceOnUse" x="0.124023" y="4.19159" width="17" height="14" fill="black">
        <rect fill="white" x="0.124023" y="4.19159" width="17" height="14"/>
        <path d="M16.8688 12.2766V9.91496C16.868 9.19064 16.281 8.60368 15.5567 8.60291H14.5071V5.97882C14.5071 5.8339 14.3896 5.71641 14.2447 5.71641H12.6702C12.5253 5.71641 12.4078 5.8339 12.4078 5.97882V8.60291H10.0461V5.454C10.0461 5.30908 9.92864 5.19159 9.78372 5.19159H8.20927C8.06435 5.19159 7.94686 5.30908 7.94686 5.454V8.60291H5.58518V5.97882C5.58518 5.8339 5.46768 5.71641 5.32277 5.71641H3.74831C3.6034 5.71641 3.4859 5.8339 3.4859 5.97882V8.60291H2.43626C1.71208 8.60368 1.12511 9.19064 1.12422 9.91496V12.2766C1.11525 12.8398 1.41815 13.3619 1.91145 13.6338V16.4752H1.38663C1.24171 16.4752 1.12422 16.5927 1.12422 16.7376C1.12422 16.8825 1.24171 17 1.38663 17H16.6064C16.7513 17 16.8688 16.8825 16.8688 16.7376C16.8688 16.5927 16.7513 16.4752 16.6064 16.4752H16.0815V13.6378C16.5673 13.3561 16.867 12.838 16.8688 12.2766ZM12.9326 6.24123H13.9823V8.60291H12.9326V6.24123ZM8.47168 5.71641H9.52132V8.60291H8.47168V5.71641ZM4.01072 6.24123H5.06036V8.60291H4.01072V6.24123ZM1.64904 9.91496C1.64904 9.48008 2.00152 9.12773 2.43626 9.12773H15.5567C15.9916 9.12773 16.344 9.48008 16.344 9.91496V12.2766C16.3431 12.6934 16.0971 13.0707 15.716 13.2397C15.3193 13.4067 14.8611 13.3208 14.5521 13.0211C14.355 12.8234 14.2446 12.5556 14.2447 12.2766V11.227C14.2434 10.8307 14.0185 10.4692 13.6637 10.2928L13.6477 10.2841C13.6057 10.2642 13.5624 10.2473 13.5181 10.2335C13.4919 10.2248 13.468 10.2162 13.442 10.2099C13.4084 10.2022 13.3744 10.1962 13.3402 10.192C13.3172 10.1886 13.2951 10.1817 13.2717 10.1799C13.2591 10.1799 13.2471 10.1817 13.2348 10.1812C13.2223 10.1807 13.2088 10.1774 13.195 10.1774C13.166 10.1774 13.1379 10.1834 13.1091 10.1857C13.0801 10.1881 13.0495 10.1894 13.02 10.1944C12.9747 10.2029 12.9298 10.2144 12.886 10.2287C12.8623 10.236 12.8382 10.2413 12.8151 10.2503C12.7662 10.2701 12.7189 10.2938 12.6737 10.3211C12.6572 10.3306 12.6396 10.3374 12.6233 10.3474C12.5621 10.3871 12.5051 10.4331 12.4533 10.4846C12.2556 10.6809 12.1448 10.9483 12.1454 11.227V11.7518C12.1454 12.3315 11.6756 12.8015 11.0958 12.8015C10.5161 12.8015 10.0461 12.3315 10.0461 11.7518V11.227C10.0449 10.8307 9.81998 10.4692 9.46519 10.2928L9.44918 10.2841C9.40715 10.2642 9.36384 10.2473 9.31951 10.2335C9.29337 10.2248 9.26941 10.2162 9.2434 10.2099C9.20983 10.2022 9.17588 10.1962 9.14167 10.192C9.1186 10.1886 9.09657 10.1817 9.07312 10.1799C9.06056 10.1799 9.04852 10.1817 9.03622 10.1812C9.02379 10.1807 9.01021 10.1774 8.9965 10.1774C8.96741 10.1774 8.93935 10.1834 8.91052 10.1857C8.88156 10.1881 8.85094 10.1894 8.82147 10.1944C8.77624 10.2029 8.73152 10.2144 8.6877 10.2287C8.66374 10.236 8.63966 10.2413 8.61659 10.2503C8.5679 10.2701 8.52075 10.2937 8.47565 10.3209C8.45886 10.3304 8.44105 10.3374 8.42478 10.3471C8.36354 10.3867 8.30652 10.4326 8.25475 10.4841C8.05692 10.6805 7.94609 10.9482 7.94686 11.227V12.8015C7.94686 13.3811 7.47701 13.8511 6.89722 13.8511C6.31756 13.8511 5.84758 13.3811 5.84758 12.8015V11.227C5.8463 10.8307 5.62144 10.4692 5.26664 10.2928L5.25063 10.2841C5.2086 10.2642 5.16529 10.2473 5.12096 10.2335C5.09482 10.2248 5.07086 10.2162 5.04485 10.2099C5.01128 10.2022 4.97733 10.1962 4.94312 10.192C4.92005 10.1886 4.89802 10.1817 4.87457 10.1799C4.85125 10.1781 4.82421 10.1774 4.79795 10.1774C4.21829 10.1774 3.74831 10.6472 3.74831 11.227V12.2766C3.74869 12.5547 3.63902 12.8216 3.44311 13.0189C3.183 13.2693 2.8154 13.3736 2.46253 13.2971C2.39975 13.2837 2.33824 13.2648 2.27892 13.2402C2.15899 13.1873 2.0497 13.1131 1.95642 13.0211C1.75936 12.8234 1.64891 12.5556 1.64904 12.2766V9.91496ZM2.43626 16.4752V13.8293C2.46253 13.8337 2.4888 13.8348 2.51506 13.8379L2.53518 13.8401C2.76479 13.8638 2.99683 13.8369 3.21491 13.7613C3.28153 13.7378 3.34662 13.7099 3.40954 13.6779C3.42299 13.6713 3.4358 13.6642 3.44977 13.6568C3.50064 13.6292 3.55009 13.5988 3.59776 13.5658C3.61301 13.5554 3.62838 13.5456 3.64337 13.5346C4.04506 13.2424 4.27979 12.7733 4.27313 12.2766V11.227C4.27287 11.0877 4.32835 10.9542 4.42714 10.8562C4.45341 10.8302 4.48224 10.8069 4.51324 10.7869C4.51875 10.7835 4.52478 10.7811 4.53028 10.778C4.55604 10.7623 4.58295 10.7488 4.61088 10.7378C4.61908 10.7347 4.62741 10.7328 4.63561 10.7302C4.66123 10.7215 4.6875 10.715 4.71428 10.7105C4.72684 10.7085 4.74055 10.7079 4.75285 10.7065C4.77488 10.7045 4.79705 10.7037 4.81922 10.7042C4.83575 10.705 4.85227 10.7067 4.86855 10.7092C4.88828 10.7115 4.90788 10.7151 4.9271 10.72C4.93364 10.7215 4.93966 10.724 4.94594 10.7258C5.17465 10.8092 5.32571 11.0279 5.32277 11.2713V12.8015C5.32277 13.6709 6.02773 14.3759 6.89722 14.3759C7.76684 14.3759 8.47168 13.6709 8.47168 12.8015V11.227C8.47168 11.0488 8.56239 10.8828 8.7123 10.7866C8.71679 10.7838 8.72204 10.7819 8.72653 10.7791C8.75318 10.7628 8.78111 10.7488 8.8102 10.7375C8.81763 10.7347 8.82519 10.7331 8.83249 10.7308C8.85824 10.722 8.88451 10.7151 8.91129 10.7103C8.92385 10.7085 8.93756 10.7077 8.94909 10.7065C8.97113 10.7044 8.99342 10.7036 9.01572 10.7042C9.03224 10.705 9.04864 10.7067 9.06505 10.7092C9.08478 10.7115 9.10425 10.7151 9.1236 10.72C9.13014 10.7215 9.13616 10.724 9.14244 10.7258C9.37192 10.8085 9.52401 11.0274 9.52132 11.2713V11.7518C9.52132 12.6213 10.2263 13.3263 11.0958 13.3263C11.9654 13.3263 12.6702 12.6213 12.6702 11.7518V11.227C12.67 11.0877 12.7255 10.9542 12.8242 10.8562C12.8505 10.8302 12.8793 10.8069 12.9103 10.7869C12.9159 10.7835 12.9219 10.7811 12.9276 10.7777C12.9533 10.7621 12.9802 10.7488 13.008 10.7378C13.0162 10.7347 13.0248 10.7328 13.0342 10.7302C13.0595 10.7215 13.0854 10.715 13.1116 10.7105C13.1242 10.7085 13.1379 10.7079 13.1502 10.7065C13.1722 10.7045 13.1944 10.7037 13.2166 10.7042C13.2331 10.705 13.2496 10.7067 13.2659 10.7092C13.2856 10.7115 13.3052 10.7151 13.3245 10.72C13.331 10.7215 13.337 10.724 13.3433 10.7258C13.5719 10.8093 13.7229 11.028 13.7199 11.2713V12.2766C13.7195 12.6949 13.8853 13.0962 14.181 13.3921C14.233 13.4429 14.2885 13.49 14.3471 13.5333C14.3641 13.5456 14.3817 13.5567 14.3996 13.5684C14.4437 13.5986 14.4883 13.6265 14.5346 13.6519C14.5531 13.6618 14.5714 13.6716 14.59 13.6807C14.6429 13.7069 14.6971 13.7303 14.7525 13.7505C14.7635 13.7545 14.7742 13.7595 14.7855 13.7632C14.9295 13.8123 15.0797 13.8406 15.2317 13.8471H15.2335C15.3066 13.8501 15.3799 13.8479 15.4528 13.8406L15.4791 13.8376C15.5053 13.8348 15.5316 13.8337 15.5579 13.8293V16.4752H2.43626Z"/>
    </mask>
    <path d="M16.8688 12.2766V9.91496C16.868 9.19064 16.281 8.60368 15.5567 8.60291H14.5071V5.97882C14.5071 5.8339 14.3896 5.71641 14.2447 5.71641H12.6702C12.5253 5.71641 12.4078 5.8339 12.4078 5.97882V8.60291H10.0461V5.454C10.0461 5.30908 9.92864 5.19159 9.78372 5.19159H8.20927C8.06435 5.19159 7.94686 5.30908 7.94686 5.454V8.60291H5.58518V5.97882C5.58518 5.8339 5.46768 5.71641 5.32277 5.71641H3.74831C3.6034 5.71641 3.4859 5.8339 3.4859 5.97882V8.60291H2.43626C1.71208 8.60368 1.12511 9.19064 1.12422 9.91496V12.2766C1.11525 12.8398 1.41815 13.3619 1.91145 13.6338V16.4752H1.38663C1.24171 16.4752 1.12422 16.5927 1.12422 16.7376C1.12422 16.8825 1.24171 17 1.38663 17H16.6064C16.7513 17 16.8688 16.8825 16.8688 16.7376C16.8688 16.5927 16.7513 16.4752 16.6064 16.4752H16.0815V13.6378C16.5673 13.3561 16.867 12.838 16.8688 12.2766ZM12.9326 6.24123H13.9823V8.60291H12.9326V6.24123ZM8.47168 5.71641H9.52132V8.60291H8.47168V5.71641ZM4.01072 6.24123H5.06036V8.60291H4.01072V6.24123ZM1.64904 9.91496C1.64904 9.48008 2.00152 9.12773 2.43626 9.12773H15.5567C15.9916 9.12773 16.344 9.48008 16.344 9.91496V12.2766C16.3431 12.6934 16.0971 13.0707 15.716 13.2397C15.3193 13.4067 14.8611 13.3208 14.5521 13.0211C14.355 12.8234 14.2446 12.5556 14.2447 12.2766V11.227C14.2434 10.8307 14.0185 10.4692 13.6637 10.2928L13.6477 10.2841C13.6057 10.2642 13.5624 10.2473 13.5181 10.2335C13.4919 10.2248 13.468 10.2162 13.442 10.2099C13.4084 10.2022 13.3744 10.1962 13.3402 10.192C13.3172 10.1886 13.2951 10.1817 13.2717 10.1799C13.2591 10.1799 13.2471 10.1817 13.2348 10.1812C13.2223 10.1807 13.2088 10.1774 13.195 10.1774C13.166 10.1774 13.1379 10.1834 13.1091 10.1857C13.0801 10.1881 13.0495 10.1894 13.02 10.1944C12.9747 10.2029 12.9298 10.2144 12.886 10.2287C12.8623 10.236 12.8382 10.2413 12.8151 10.2503C12.7662 10.2701 12.7189 10.2938 12.6737 10.3211C12.6572 10.3306 12.6396 10.3374 12.6233 10.3474C12.5621 10.3871 12.5051 10.4331 12.4533 10.4846C12.2556 10.6809 12.1448 10.9483 12.1454 11.227V11.7518C12.1454 12.3315 11.6756 12.8015 11.0958 12.8015C10.5161 12.8015 10.0461 12.3315 10.0461 11.7518V11.227C10.0449 10.8307 9.81998 10.4692 9.46519 10.2928L9.44918 10.2841C9.40715 10.2642 9.36384 10.2473 9.31951 10.2335C9.29337 10.2248 9.26941 10.2162 9.2434 10.2099C9.20983 10.2022 9.17588 10.1962 9.14167 10.192C9.1186 10.1886 9.09657 10.1817 9.07312 10.1799C9.06056 10.1799 9.04852 10.1817 9.03622 10.1812C9.02379 10.1807 9.01021 10.1774 8.9965 10.1774C8.96741 10.1774 8.93935 10.1834 8.91052 10.1857C8.88156 10.1881 8.85094 10.1894 8.82147 10.1944C8.77624 10.2029 8.73152 10.2144 8.6877 10.2287C8.66374 10.236 8.63966 10.2413 8.61659 10.2503C8.5679 10.2701 8.52075 10.2937 8.47565 10.3209C8.45886 10.3304 8.44105 10.3374 8.42478 10.3471C8.36354 10.3867 8.30652 10.4326 8.25475 10.4841C8.05692 10.6805 7.94609 10.9482 7.94686 11.227V12.8015C7.94686 13.3811 7.47701 13.8511 6.89722 13.8511C6.31756 13.8511 5.84758 13.3811 5.84758 12.8015V11.227C5.8463 10.8307 5.62144 10.4692 5.26664 10.2928L5.25063 10.2841C5.2086 10.2642 5.16529 10.2473 5.12096 10.2335C5.09482 10.2248 5.07086 10.2162 5.04485 10.2099C5.01128 10.2022 4.97733 10.1962 4.94312 10.192C4.92005 10.1886 4.89802 10.1817 4.87457 10.1799C4.85125 10.1781 4.82421 10.1774 4.79795 10.1774C4.21829 10.1774 3.74831 10.6472 3.74831 11.227V12.2766C3.74869 12.5547 3.63902 12.8216 3.44311 13.0189C3.183 13.2693 2.8154 13.3736 2.46253 13.2971C2.39975 13.2837 2.33824 13.2648 2.27892 13.2402C2.15899 13.1873 2.0497 13.1131 1.95642 13.0211C1.75936 12.8234 1.64891 12.5556 1.64904 12.2766V9.91496ZM2.43626 16.4752V13.8293C2.46253 13.8337 2.4888 13.8348 2.51506 13.8379L2.53518 13.8401C2.76479 13.8638 2.99683 13.8369 3.21491 13.7613C3.28153 13.7378 3.34662 13.7099 3.40954 13.6779C3.42299 13.6713 3.4358 13.6642 3.44977 13.6568C3.50064 13.6292 3.55009 13.5988 3.59776 13.5658C3.61301 13.5554 3.62838 13.5456 3.64337 13.5346C4.04506 13.2424 4.27979 12.7733 4.27313 12.2766V11.227C4.27287 11.0877 4.32835 10.9542 4.42714 10.8562C4.45341 10.8302 4.48224 10.8069 4.51324 10.7869C4.51875 10.7835 4.52478 10.7811 4.53028 10.778C4.55604 10.7623 4.58295 10.7488 4.61088 10.7378C4.61908 10.7347 4.62741 10.7328 4.63561 10.7302C4.66123 10.7215 4.6875 10.715 4.71428 10.7105C4.72684 10.7085 4.74055 10.7079 4.75285 10.7065C4.77488 10.7045 4.79705 10.7037 4.81922 10.7042C4.83575 10.705 4.85227 10.7067 4.86855 10.7092C4.88828 10.7115 4.90788 10.7151 4.9271 10.72C4.93364 10.7215 4.93966 10.724 4.94594 10.7258C5.17465 10.8092 5.32571 11.0279 5.32277 11.2713V12.8015C5.32277 13.6709 6.02773 14.3759 6.89722 14.3759C7.76684 14.3759 8.47168 13.6709 8.47168 12.8015V11.227C8.47168 11.0488 8.56239 10.8828 8.7123 10.7866C8.71679 10.7838 8.72204 10.7819 8.72653 10.7791C8.75318 10.7628 8.78111 10.7488 8.8102 10.7375C8.81763 10.7347 8.82519 10.7331 8.83249 10.7308C8.85824 10.722 8.88451 10.7151 8.91129 10.7103C8.92385 10.7085 8.93756 10.7077 8.94909 10.7065C8.97113 10.7044 8.99342 10.7036 9.01572 10.7042C9.03224 10.705 9.04864 10.7067 9.06505 10.7092C9.08478 10.7115 9.10425 10.7151 9.1236 10.72C9.13014 10.7215 9.13616 10.724 9.14244 10.7258C9.37192 10.8085 9.52401 11.0274 9.52132 11.2713V11.7518C9.52132 12.6213 10.2263 13.3263 11.0958 13.3263C11.9654 13.3263 12.6702 12.6213 12.6702 11.7518V11.227C12.67 11.0877 12.7255 10.9542 12.8242 10.8562C12.8505 10.8302 12.8793 10.8069 12.9103 10.7869C12.9159 10.7835 12.9219 10.7811 12.9276 10.7777C12.9533 10.7621 12.9802 10.7488 13.008 10.7378C13.0162 10.7347 13.0248 10.7328 13.0342 10.7302C13.0595 10.7215 13.0854 10.715 13.1116 10.7105C13.1242 10.7085 13.1379 10.7079 13.1502 10.7065C13.1722 10.7045 13.1944 10.7037 13.2166 10.7042C13.2331 10.705 13.2496 10.7067 13.2659 10.7092C13.2856 10.7115 13.3052 10.7151 13.3245 10.72C13.331 10.7215 13.337 10.724 13.3433 10.7258C13.5719 10.8093 13.7229 11.028 13.7199 11.2713V12.2766C13.7195 12.6949 13.8853 13.0962 14.181 13.3921C14.233 13.4429 14.2885 13.49 14.3471 13.5333C14.3641 13.5456 14.3817 13.5567 14.3996 13.5684C14.4437 13.5986 14.4883 13.6265 14.5346 13.6519C14.5531 13.6618 14.5714 13.6716 14.59 13.6807C14.6429 13.7069 14.6971 13.7303 14.7525 13.7505C14.7635 13.7545 14.7742 13.7595 14.7855 13.7632C14.9295 13.8123 15.0797 13.8406 15.2317 13.8471H15.2335C15.3066 13.8501 15.3799 13.8479 15.4528 13.8406L15.4791 13.8376C15.5053 13.8348 15.5316 13.8337 15.5579 13.8293V16.4752H2.43626Z" fill="#95A1AC"/>
    <path d="M16.8688 12.2766V9.91496C16.868 9.19064 16.281 8.60368 15.5567 8.60291H14.5071V5.97882C14.5071 5.8339 14.3896 5.71641 14.2447 5.71641H12.6702C12.5253 5.71641 12.4078 5.8339 12.4078 5.97882V8.60291H10.0461V5.454C10.0461 5.30908 9.92864 5.19159 9.78372 5.19159H8.20927C8.06435 5.19159 7.94686 5.30908 7.94686 5.454V8.60291H5.58518V5.97882C5.58518 5.8339 5.46768 5.71641 5.32277 5.71641H3.74831C3.6034 5.71641 3.4859 5.8339 3.4859 5.97882V8.60291H2.43626C1.71208 8.60368 1.12511 9.19064 1.12422 9.91496V12.2766C1.11525 12.8398 1.41815 13.3619 1.91145 13.6338V16.4752H1.38663C1.24171 16.4752 1.12422 16.5927 1.12422 16.7376C1.12422 16.8825 1.24171 17 1.38663 17H16.6064C16.7513 17 16.8688 16.8825 16.8688 16.7376C16.8688 16.5927 16.7513 16.4752 16.6064 16.4752H16.0815V13.6378C16.5673 13.3561 16.867 12.838 16.8688 12.2766ZM12.9326 6.24123H13.9823V8.60291H12.9326V6.24123ZM8.47168 5.71641H9.52132V8.60291H8.47168V5.71641ZM4.01072 6.24123H5.06036V8.60291H4.01072V6.24123ZM1.64904 9.91496C1.64904 9.48008 2.00152 9.12773 2.43626 9.12773H15.5567C15.9916 9.12773 16.344 9.48008 16.344 9.91496V12.2766C16.3431 12.6934 16.0971 13.0707 15.716 13.2397C15.3193 13.4067 14.8611 13.3208 14.5521 13.0211C14.355 12.8234 14.2446 12.5556 14.2447 12.2766V11.227C14.2434 10.8307 14.0185 10.4692 13.6637 10.2928L13.6477 10.2841C13.6057 10.2642 13.5624 10.2473 13.5181 10.2335C13.4919 10.2248 13.468 10.2162 13.442 10.2099C13.4084 10.2022 13.3744 10.1962 13.3402 10.192C13.3172 10.1886 13.2951 10.1817 13.2717 10.1799C13.2591 10.1799 13.2471 10.1817 13.2348 10.1812C13.2223 10.1807 13.2088 10.1774 13.195 10.1774C13.166 10.1774 13.1379 10.1834 13.1091 10.1857C13.0801 10.1881 13.0495 10.1894 13.02 10.1944C12.9747 10.2029 12.9298 10.2144 12.886 10.2287C12.8623 10.236 12.8382 10.2413 12.8151 10.2503C12.7662 10.2701 12.7189 10.2938 12.6737 10.3211C12.6572 10.3306 12.6396 10.3374 12.6233 10.3474C12.5621 10.3871 12.5051 10.4331 12.4533 10.4846C12.2556 10.6809 12.1448 10.9483 12.1454 11.227V11.7518C12.1454 12.3315 11.6756 12.8015 11.0958 12.8015C10.5161 12.8015 10.0461 12.3315 10.0461 11.7518V11.227C10.0449 10.8307 9.81998 10.4692 9.46519 10.2928L9.44918 10.2841C9.40715 10.2642 9.36384 10.2473 9.31951 10.2335C9.29337 10.2248 9.26941 10.2162 9.2434 10.2099C9.20983 10.2022 9.17588 10.1962 9.14167 10.192C9.1186 10.1886 9.09657 10.1817 9.07312 10.1799C9.06056 10.1799 9.04852 10.1817 9.03622 10.1812C9.02379 10.1807 9.01021 10.1774 8.9965 10.1774C8.96741 10.1774 8.93935 10.1834 8.91052 10.1857C8.88156 10.1881 8.85094 10.1894 8.82147 10.1944C8.77624 10.2029 8.73152 10.2144 8.6877 10.2287C8.66374 10.236 8.63966 10.2413 8.61659 10.2503C8.5679 10.2701 8.52075 10.2937 8.47565 10.3209C8.45886 10.3304 8.44105 10.3374 8.42478 10.3471C8.36354 10.3867 8.30652 10.4326 8.25475 10.4841C8.05692 10.6805 7.94609 10.9482 7.94686 11.227V12.8015C7.94686 13.3811 7.47701 13.8511 6.89722 13.8511C6.31756 13.8511 5.84758 13.3811 5.84758 12.8015V11.227C5.8463 10.8307 5.62144 10.4692 5.26664 10.2928L5.25063 10.2841C5.2086 10.2642 5.16529 10.2473 5.12096 10.2335C5.09482 10.2248 5.07086 10.2162 5.04485 10.2099C5.01128 10.2022 4.97733 10.1962 4.94312 10.192C4.92005 10.1886 4.89802 10.1817 4.87457 10.1799C4.85125 10.1781 4.82421 10.1774 4.79795 10.1774C4.21829 10.1774 3.74831 10.6472 3.74831 11.227V12.2766C3.74869 12.5547 3.63902 12.8216 3.44311 13.0189C3.183 13.2693 2.8154 13.3736 2.46253 13.2971C2.39975 13.2837 2.33824 13.2648 2.27892 13.2402C2.15899 13.1873 2.0497 13.1131 1.95642 13.0211C1.75936 12.8234 1.64891 12.5556 1.64904 12.2766V9.91496ZM2.43626 16.4752V13.8293C2.46253 13.8337 2.4888 13.8348 2.51506 13.8379L2.53518 13.8401C2.76479 13.8638 2.99683 13.8369 3.21491 13.7613C3.28153 13.7378 3.34662 13.7099 3.40954 13.6779C3.42299 13.6713 3.4358 13.6642 3.44977 13.6568C3.50064 13.6292 3.55009 13.5988 3.59776 13.5658C3.61301 13.5554 3.62838 13.5456 3.64337 13.5346C4.04506 13.2424 4.27979 12.7733 4.27313 12.2766V11.227C4.27287 11.0877 4.32835 10.9542 4.42714 10.8562C4.45341 10.8302 4.48224 10.8069 4.51324 10.7869C4.51875 10.7835 4.52478 10.7811 4.53028 10.778C4.55604 10.7623 4.58295 10.7488 4.61088 10.7378C4.61908 10.7347 4.62741 10.7328 4.63561 10.7302C4.66123 10.7215 4.6875 10.715 4.71428 10.7105C4.72684 10.7085 4.74055 10.7079 4.75285 10.7065C4.77488 10.7045 4.79705 10.7037 4.81922 10.7042C4.83575 10.705 4.85227 10.7067 4.86855 10.7092C4.88828 10.7115 4.90788 10.7151 4.9271 10.72C4.93364 10.7215 4.93966 10.724 4.94594 10.7258C5.17465 10.8092 5.32571 11.0279 5.32277 11.2713V12.8015C5.32277 13.6709 6.02773 14.3759 6.89722 14.3759C7.76684 14.3759 8.47168 13.6709 8.47168 12.8015V11.227C8.47168 11.0488 8.56239 10.8828 8.7123 10.7866C8.71679 10.7838 8.72204 10.7819 8.72653 10.7791C8.75318 10.7628 8.78111 10.7488 8.8102 10.7375C8.81763 10.7347 8.82519 10.7331 8.83249 10.7308C8.85824 10.722 8.88451 10.7151 8.91129 10.7103C8.92385 10.7085 8.93756 10.7077 8.94909 10.7065C8.97113 10.7044 8.99342 10.7036 9.01572 10.7042C9.03224 10.705 9.04864 10.7067 9.06505 10.7092C9.08478 10.7115 9.10425 10.7151 9.1236 10.72C9.13014 10.7215 9.13616 10.724 9.14244 10.7258C9.37192 10.8085 9.52401 11.0274 9.52132 11.2713V11.7518C9.52132 12.6213 10.2263 13.3263 11.0958 13.3263C11.9654 13.3263 12.6702 12.6213 12.6702 11.7518V11.227C12.67 11.0877 12.7255 10.9542 12.8242 10.8562C12.8505 10.8302 12.8793 10.8069 12.9103 10.7869C12.9159 10.7835 12.9219 10.7811 12.9276 10.7777C12.9533 10.7621 12.9802 10.7488 13.008 10.7378C13.0162 10.7347 13.0248 10.7328 13.0342 10.7302C13.0595 10.7215 13.0854 10.715 13.1116 10.7105C13.1242 10.7085 13.1379 10.7079 13.1502 10.7065C13.1722 10.7045 13.1944 10.7037 13.2166 10.7042C13.2331 10.705 13.2496 10.7067 13.2659 10.7092C13.2856 10.7115 13.3052 10.7151 13.3245 10.72C13.331 10.7215 13.337 10.724 13.3433 10.7258C13.5719 10.8093 13.7229 11.028 13.7199 11.2713V12.2766C13.7195 12.6949 13.8853 13.0962 14.181 13.3921C14.233 13.4429 14.2885 13.49 14.3471 13.5333C14.3641 13.5456 14.3817 13.5567 14.3996 13.5684C14.4437 13.5986 14.4883 13.6265 14.5346 13.6519C14.5531 13.6618 14.5714 13.6716 14.59 13.6807C14.6429 13.7069 14.6971 13.7303 14.7525 13.7505C14.7635 13.7545 14.7742 13.7595 14.7855 13.7632C14.9295 13.8123 15.0797 13.8406 15.2317 13.8471H15.2335C15.3066 13.8501 15.3799 13.8479 15.4528 13.8406L15.4791 13.8376C15.5053 13.8348 15.5316 13.8337 15.5579 13.8293V16.4752H2.43626Z" stroke="#95A1AC" stroke-width="0.4" mask="url(#path-1-outside-1)"/>
    <path d="M10.4087 3.35487V3.35476C10.4087 3.17744 10.3455 2.96007 10.2559 2.7376C10.1653 2.51261 10.0433 2.27204 9.91666 2.04496C9.66327 1.59063 9.38721 1.183 9.2949 1.04948L9.29501 1.0494L9.29186 1.04531C9.22135 0.9538 9.11242 0.9 8.99662 0.9C8.88099 0.9 8.77187 0.953768 8.70144 1.04541L8.70134 1.04533L8.69848 1.04945C8.6061 1.183 8.33 1.59063 8.0766 2.04495C7.94994 2.27204 7.82793 2.51261 7.73732 2.7376C7.64772 2.96007 7.58457 3.17744 7.58457 3.35476L7.58457 3.35489C7.58554 4.13421 8.21718 4.76585 8.9965 4.76681L8.99674 4.76681C9.77618 4.76585 10.4078 4.13421 10.4087 3.35487ZM8.99662 1.91719C9.15706 2.17491 9.31693 2.45208 9.44255 2.70115C9.51641 2.84761 9.57764 2.98279 9.62017 3.09766C9.66374 3.21536 9.68385 3.30185 9.68385 3.35476C9.68385 3.73429 9.37625 4.04199 8.99662 4.04199C8.6171 4.04199 8.30939 3.73428 8.30939 3.35476C8.30939 3.30185 8.3295 3.21536 8.37307 3.09766C8.4156 2.98279 8.47683 2.84761 8.55069 2.70115C8.67631 2.45208 8.83618 2.17491 8.99662 1.91719Z" fill="#95A1AC" stroke="#95A1AC" stroke-width="0.2"/>
    <path d="M14.8696 3.87966V3.87955C14.8696 3.70222 14.8065 3.48485 14.7169 3.26239C14.6263 3.0374 14.5042 2.79683 14.3776 2.56974C14.1242 2.11542 13.8482 1.70778 13.7558 1.57426L13.756 1.57418L13.7528 1.57009C13.6823 1.47858 13.5734 1.42478 13.4576 1.42478C13.3419 1.42478 13.2328 1.47855 13.1624 1.57019L13.1623 1.57011L13.1594 1.57423C13.067 1.70778 12.7909 2.11541 12.5375 2.56974C12.4109 2.79682 12.2889 3.0374 12.1983 3.26239C12.1087 3.48485 12.0455 3.70222 12.0455 3.87955L12.0455 3.87967C12.0465 4.65899 12.6781 5.29063 13.4574 5.2916L13.4577 5.2916C14.2371 5.29063 14.8688 4.659 14.8696 3.87966ZM13.4576 2.44197C13.618 2.6997 13.7779 2.97686 13.9035 3.22594C13.9774 3.3724 14.0386 3.50757 14.0811 3.62244C14.1247 3.74015 14.1448 3.82664 14.1448 3.87955C14.1448 4.25908 13.8372 4.56678 13.4576 4.56678C13.078 4.56678 12.7703 4.25907 12.7703 3.87955C12.7703 3.82664 12.7904 3.74015 12.834 3.62244C12.8765 3.50757 12.9378 3.3724 13.0116 3.22594C13.1373 2.97686 13.2971 2.6997 13.4576 2.44197Z" fill="#95A1AC" stroke="#95A1AC" stroke-width="0.2"/>
    <path d="M5.94773 3.87966V3.87955C5.94773 3.70222 5.88458 3.48485 5.79499 3.26239C5.70438 3.0374 5.58237 2.79683 5.45572 2.56974C5.20234 2.11542 4.92627 1.70778 4.83397 1.57426L4.83408 1.57418L4.83092 1.57009C4.76041 1.47858 4.65148 1.42478 4.53568 1.42478C4.42006 1.42478 4.31094 1.47855 4.2405 1.57019L4.2404 1.57011L4.23755 1.57423C4.14516 1.70778 3.86906 2.11541 3.61566 2.56974C3.48901 2.79682 3.36699 3.0374 3.27638 3.26239C3.18679 3.48485 3.12363 3.70222 3.12363 3.87955L3.12363 3.87967C3.1246 4.65899 3.75624 5.29063 4.53556 5.2916L4.53581 5.2916C5.31525 5.29063 5.94691 4.659 5.94773 3.87966ZM4.53568 2.44197C4.69612 2.6997 4.85599 2.97686 4.98161 3.22594C5.05548 3.3724 5.1167 3.50757 5.15923 3.62244C5.2028 3.74015 5.22291 3.82664 5.22291 3.87955C5.22291 4.25908 4.91532 4.56678 4.53568 4.56678C4.15617 4.56678 3.84845 4.25907 3.84845 3.87955C3.84845 3.82664 3.86856 3.74015 3.91214 3.62244C3.95466 3.50757 4.01589 3.3724 4.08976 3.22594C4.21538 2.97686 4.37525 2.6997 4.53568 2.44197Z" fill="#95A1AC" stroke="#95A1AC" stroke-width="0.2"/>
</svg>
