<svg width="14" height="14" viewBox="0 0 14 14" fill="none" xmlns="http://www.w3.org/2000/svg">
    <mask id="mask0" mask-type="alpha" maskUnits="userSpaceOnUse" x="0" y="0" width="15" height="14">
        <path fill-rule="evenodd" clip-rule="evenodd" d="M0.333984 0.333458H14.0004V13.9998H0.333984V0.333458Z" fill="white"/>
    </mask>
    <g mask="url(#mask0)">
        <path fill-rule="evenodd" clip-rule="evenodd" d="M1.90672 2.37379C1.90805 2.37379 1.87472 2.40845 1.83272 2.44979C1.67138 2.60645 1.33739 2.93245 1.33405 3.61445C1.32872 4.56845 1.95605 6.33979 4.97672 9.35979C7.98338 12.3651 9.75205 12.9998 10.7081 12.9998H10.7221C11.404 12.9965 11.7294 12.6618 11.8867 12.5011C11.9347 12.4518 11.9734 12.4158 12.0007 12.3931C12.6647 11.7251 13.0047 11.2278 13.0014 10.9091C12.9967 10.5838 12.592 10.1991 12.0327 9.66712C11.8547 9.49779 11.6614 9.31379 11.4574 9.10979C10.9287 8.58245 10.6667 8.67245 10.0907 8.87512C9.29405 9.15445 8.20072 9.53445 6.50205 7.83512C4.80072 6.13512 5.18138 5.04312 5.46005 4.24645C5.66138 3.67045 5.75338 3.40779 5.22405 2.87845C5.01672 2.67179 4.83072 2.47579 4.65938 2.29579C4.13072 1.73979 3.74938 1.33779 3.42605 1.33312H3.42072C3.10138 1.33312 2.60538 1.67445 1.90338 2.37645C1.90539 2.37445 1.90605 2.37379 1.90672 2.37379ZM10.7087 13.9998C9.04737 13.9998 6.88137 12.6771 4.27004 10.0671C1.64871 7.44645 0.324041 5.27378 0.334041 3.60911C0.340041 2.50911 0.916707 1.94578 1.13337 1.73445C1.14471 1.72045 1.18337 1.68245 1.19671 1.66911C2.15271 0.712447 2.79737 0.325781 3.43871 0.333114C4.18337 0.343114 4.71337 0.900447 5.38404 1.60645C5.55004 1.78111 5.73004 1.97111 5.93071 2.17111C6.90404 3.14445 6.62671 3.93845 6.40404 4.57578C6.16137 5.27111 5.95137 5.87111 7.20871 7.12845C8.46737 8.38578 9.06737 8.17578 9.76004 7.93111C10.398 7.70845 11.19 7.42978 12.1647 8.40311C12.362 8.60045 12.5494 8.77845 12.722 8.94311C13.4314 9.61711 13.9914 10.1498 14.0007 10.8964C14.0087 11.5331 13.622 12.1818 12.6674 13.1371L12.2447 12.8504L12.602 13.1998C12.3907 13.4164 11.828 13.9938 10.7274 13.9998H10.7087Z" fill="#95A1AC"/>
    </g>
</svg>
