<svg width="21" height="20" viewBox="0 0 21 20" fill="none" xmlns="http://www.w3.org/2000/svg">
<path d="M16.7501 18.125H16.6438C4.36259 17.4187 2.61884 7.05625 2.37509 3.89375C2.35545 3.64786 2.38452 3.40052 2.46064 3.16588C2.53676 2.93125 2.65842 2.71394 2.81867 2.52641C2.97891 2.33888 3.17458 2.1848 3.39448 2.07302C3.61437 1.96124 3.85415 1.89395 4.10009 1.875H7.54384C7.79419 1.87476 8.03885 1.94969 8.24611 2.0901C8.45338 2.23051 8.61372 2.42992 8.70634 2.6625L9.65634 5C9.74781 5.22722 9.77051 5.4763 9.72162 5.71631C9.67273 5.95631 9.55441 6.17667 9.38134 6.35L8.05009 7.69375C8.25804 8.87547 8.82396 9.96479 9.67128 10.8143C10.5186 11.6639 11.6064 12.2327 12.7876 12.4438L14.1438 11.1C14.3198 10.9288 14.5422 10.8133 14.7834 10.7677C15.0246 10.7221 15.2738 10.7486 15.5001 10.8438L17.8563 11.7875C18.0854 11.8831 18.2809 12.0446 18.4178 12.2517C18.5547 12.4587 18.6269 12.7018 18.6251 12.95V16.25C18.6251 16.7473 18.4276 17.2242 18.0759 17.5758C17.7243 17.9275 17.2474 18.125 16.7501 18.125ZM4.25009 3.125C4.08433 3.125 3.92536 3.19085 3.80815 3.30806C3.69094 3.42527 3.62509 3.58424 3.62509 3.75V3.8C3.91259 7.5 5.75634 16.25 16.7126 16.875C16.7947 16.8801 16.877 16.8689 16.9548 16.8421C17.0326 16.8153 17.1043 16.7734 17.1658 16.7188C17.2274 16.6642 17.2775 16.598 17.3135 16.524C17.3494 16.45 17.3703 16.3696 17.3751 16.2875V12.95L15.0188 12.0062L13.2251 13.7875L12.9251 13.75C7.48759 13.0688 6.75009 7.63125 6.75009 7.575L6.71259 7.275L8.48759 5.48125L7.55009 3.125H4.25009Z" fill="#71767B"/>
</svg>
