<svg width="24" height="24" viewBox="0 0 24 24" fill="none" xmlns="http://www.w3.org/2000/svg">
    <path d="M21 16.6239V7.37622C21 7.24314 20.9646 7.11246 20.8974 6.99759C20.8302 6.88271 20.7337 6.78778 20.6177 6.72254L12.3677 2.08191C12.2554 2.01877 12.1288 1.9856 12 1.9856C11.8712 1.9856 11.7446 2.01877 11.6323 2.08191L3.3823 6.72254C3.26632 6.78778 3.16978 6.88271 3.10259 6.99759C3.03541 7.11246 3 7.24314 3 7.37622V16.6239C3 16.757 3.03541 16.8877 3.10259 17.0026C3.16978 17.1175 3.26632 17.2124 3.3823 17.2776L11.6323 21.9183C11.7446 21.9814 11.8712 22.0146 12 22.0146C12.1288 22.0146 12.2554 21.9814 12.3677 21.9183L20.6177 17.2776C20.7337 17.2124 20.8302 17.1175 20.8974 17.0026C20.9646 16.8877 21 16.757 21 16.6239Z" stroke="#95A1AC" stroke-width="1.3" stroke-linecap="round" stroke-linejoin="round"/>
    <path d="M20.8962 6.99621L12.0886 12L3.10352 6.99536" stroke="#95A1AC" stroke-width="1.3" stroke-linecap="round" stroke-linejoin="round"/>
    <path d="M12.089 12L12.001 22.0145" stroke="#95A1AC" stroke-width="1.3" stroke-linecap="round" stroke-linejoin="round"/>
</svg>
