<svg width="17" height="18" viewBox="0 0 17 18" fill="none" xmlns="http://www.w3.org/2000/svg">
    <path d="M14.1042 6.89017C14.1042 6.89017 13.6517 12.5027 13.3892 14.8668C13.2642 15.996 12.5667 16.6577 11.4242 16.6785C9.24999 16.7177 7.07332 16.7202 4.89999 16.6743C3.80082 16.6518 3.11499 15.9818 2.99249 14.8727C2.72832 12.4877 2.27832 6.89017 2.27832 6.89017" stroke="#E24343" stroke-width="1.7" stroke-linecap="round" stroke-linejoin="round"/>
    <path d="M15.2567 4.19975H1.125" stroke="#E24343" stroke-width="1.7" stroke-linecap="round" stroke-linejoin="round"/>
    <path d="M12.5335 4.19975C11.8793 4.19975 11.316 3.73725 11.1877 3.09642L10.9852 2.08308C10.8602 1.61558 10.4368 1.29225 9.95432 1.29225H6.42682C5.94432 1.29225 5.52099 1.61558 5.39599 2.08308L5.19349 3.09642C5.06516 3.73725 4.50182 4.19975 3.84766 4.19975" stroke="#E24343" stroke-width="1.7" stroke-linecap="round" stroke-linejoin="round"/>
</svg>
