<svg width="24" height="24" viewBox="0 0 24 24" fill="none" xmlns="http://www.w3.org/2000/svg">
<path d="M18.9998 20.0001H4.99981C4.73459 20.0001 4.48024 20.1055 4.2927 20.293C4.10517 20.4805 3.99981 20.7349 3.99981 21.0001C3.99981 21.2653 4.10517 21.5197 4.2927 21.7072C4.48024 21.8947 4.73459 22.0001 4.99981 22.0001H18.9998C19.265 22.0001 19.5194 21.8947 19.7069 21.7072C19.8945 21.5197 19.9998 21.2653 19.9998 21.0001C19.9998 20.7349 19.8945 20.4805 19.7069 20.293C19.5194 20.1055 19.265 20.0001 18.9998 20.0001ZM4.99981 18.0001H5.08981L9.25981 17.6201C9.71661 17.5746 10.1438 17.3733 10.4698 17.0501L19.4698 8.0501C19.8191 7.68107 20.0079 7.18861 19.9948 6.68064C19.9817 6.17267 19.7677 5.69061 19.3998 5.3401L16.6598 2.6001C16.3022 2.2642 15.8336 2.07146 15.3431 2.05855C14.8527 2.04565 14.3746 2.21347 13.9998 2.5301L4.99981 11.5301C4.67657 11.8561 4.47531 12.2833 4.42981 12.7401L3.99981 16.9101C3.98634 17.0566 4.00534 17.2042 4.05547 17.3425C4.1056 17.4808 4.18561 17.6063 4.28981 17.7101C4.38325 17.8028 4.49406 17.8761 4.6159 17.9259C4.73774 17.9756 4.8682 18.0009 4.99981 18.0001ZM15.2698 4.0001L17.9998 6.7301L15.9998 8.6801L13.3198 6.0001L15.2698 4.0001ZM6.36981 12.9101L11.9998 7.3201L14.6998 10.0201L9.09981 15.6201L6.09981 15.9001L6.36981 12.9101Z" fill="#71767B"/>
</svg>
