<svg width="17" height="17" viewBox="0 0 17 17" fill="none" xmlns="http://www.w3.org/2000/svg">
    <path fill-rule="evenodd" clip-rule="evenodd" d="M16.2922 16.2831H10.248C9.90305 16.2831 9.62305 16.0031 9.62305 15.6581C9.62305 15.3131 9.90305 15.0331 10.248 15.0331H16.2922C16.6372 15.0331 16.9172 15.3131 16.9172 15.6581C16.9172 16.0031 16.6372 16.2831 16.2922 16.2831Z" fill="#0080FF"/>
    <mask id="mask0" mask-type="alpha" maskUnits="userSpaceOnUse" x="0" y="0" width="15" height="17">
        <path fill-rule="evenodd" clip-rule="evenodd" d="M0.666992 0.500137H14.9841V16.2831H0.666992V0.500137Z" fill="white"/>
    </mask>
    <g mask="url(#mask0)">
        <path fill-rule="evenodd" clip-rule="evenodd" d="M9.92558 2.18066L2.07974 11.9932C1.93724 12.1715 1.88474 12.4015 1.93724 12.6223L2.50474 15.0265L5.03724 14.9948C5.27808 14.9923 5.50058 14.8848 5.64808 14.7015C8.32891 11.3473 13.4397 4.95233 13.5847 4.76483C13.7214 4.54316 13.7747 4.22983 13.7031 3.92816C13.6297 3.61899 13.4372 3.35649 13.1597 3.18899C13.1006 3.14816 11.6964 2.05816 11.6531 2.02399C11.1247 1.60066 10.3539 1.67399 9.92558 2.18066ZM2.01139 16.2832C1.72222 16.2832 1.47055 16.0848 1.40305 15.8023L0.720554 12.9098C0.579721 12.3107 0.719721 11.6923 1.10389 11.2123L8.95389 1.39401C8.95722 1.39067 8.95972 1.38651 8.96305 1.38317C9.82389 0.354006 11.3806 0.20234 12.4306 1.04484C12.4722 1.07734 13.8664 2.16067 13.8664 2.16067C14.3731 2.46234 14.7689 3.00151 14.9189 3.63984C15.0681 4.27151 14.9597 4.92317 14.6122 5.47401C14.5864 5.51484 14.5639 5.54984 6.62389 15.4832C6.24139 15.9598 5.66805 16.2373 5.05222 16.2448L2.01972 16.2832H2.01139Z" fill="#0080FF"/>
    </g>
    <path fill-rule="evenodd" clip-rule="evenodd" d="M12.5198 7.73735C12.3865 7.73735 12.2532 7.69485 12.139 7.60818L7.59568 4.11818C7.32234 3.90818 7.27068 3.51652 7.48068 3.24152C7.69151 2.96818 8.08317 2.91735 8.35734 3.12735L12.9015 6.61652C13.1748 6.82652 13.2265 7.21902 13.0157 7.49318C12.8932 7.65318 12.7073 7.73735 12.5198 7.73735Z" fill="#0080FF"/>
</svg>
