<svg width="74" height="74" viewBox="0 0 74 74" fill="none" xmlns="http://www.w3.org/2000/svg">
<path d="M71.7472 41.8407C63.9731 29.937 64.7994 17.7352 61.0521 11.9982C57.3048 6.26111 46.137 -3.63023 19.7498 13.6056C-6.63733 30.8414 0.0740618 49.5778 4.19751 55.8863C23.4951 85.4288 85.5173 62.9225 71.7472 41.8407Z" fill="#F9F9F9"/>
<path d="M60.125 38.5417V51.9029C60.125 54.164 58.275 56.014 56.0139 56.014H17.9861C15.725 56.014 13.875 54.164 13.875 51.9029V38.5417H21.6039C22.5083 38.5417 23.31 39.1379 23.5567 40.0012L25.7767 47.3601C26.0233 48.2234 26.825 48.8195 27.7294 48.8195H46.2706C47.175 48.8195 47.9767 48.2234 48.2233 47.3601L50.4433 40.0012C50.69 39.1379 51.4917 38.5417 52.3961 38.5417H60.125Z" fill="#F3F3F1"/>
<path d="M60.125 38.5416H52.3961C51.4917 38.5416 50.69 39.1378 50.4433 40.0011L48.2233 47.36C47.9767 48.2233 47.175 48.8194 46.2706 48.8194H27.7294C26.825 48.8194 26.0233 48.2233 25.7767 47.36L23.5567 40.0011C23.31 39.1378 22.5083 38.5416 21.6039 38.5416H13.875L23.125 17.9861H50.875L60.125 38.5416Z" fill="#8080BD"/>
<path d="M52.8483 47.3601L55.0683 40.0012C55.315 39.1379 56.1166 38.5417 57.0211 38.5417H52.3961C51.4916 38.5417 50.69 39.1379 50.4433 40.0012L48.2233 47.3601C47.9766 48.2234 47.175 48.8195 46.2705 48.8195H50.8955C51.8 48.8195 52.6016 48.2234 52.8483 47.3601Z" fill="#D5DBE1"/>
<path d="M18.5 51.9029V38.5417H13.875V51.9029C13.875 54.164 15.725 56.014 17.9861 56.014H22.6111C20.35 56.014 18.5 54.164 18.5 51.9029Z" fill="#D5DBE1"/>
<path d="M23.125 17.9861L13.875 38.5416H18.5L27.75 17.9861H23.125Z" fill="#5858B3"/>
<path d="M30.4023 47.3601L28.1823 40.0012C27.9356 39.1379 27.1339 38.5417 26.2295 38.5417H21.6045C22.5089 38.5417 23.3106 39.1379 23.5573 40.0012L25.7773 47.3601C26.0239 48.2234 26.8256 48.8195 27.73 48.8195H32.355C31.4506 48.8195 30.6489 48.2234 30.4023 47.3601Z" fill="#5858B3"/>
<path d="M57.0296 13.361C55.3297 13.361 53.9463 11.9776 53.9463 10.2777C53.9463 8.57773 55.3297 7.19434 57.0296 7.19434C58.7296 7.19434 60.113 8.57773 60.113 10.2777C60.113 11.9776 58.7296 13.361 57.0296 13.361ZM57.0296 9.24989C56.4623 9.24989 56.0018 9.71239 56.0018 10.2777C56.0018 10.8429 56.4623 11.3054 57.0296 11.3054C57.597 11.3054 58.0574 10.8429 58.0574 10.2777C58.0574 9.71239 57.597 9.24989 57.0296 9.24989Z" fill="#FCAF17"/>
<path d="M14.4775 9.90698L15.931 8.45349L18.838 11.3605L17.3845 12.814L14.4775 9.90698Z" fill="#FCAF17"/>
<path d="M14.1113 19.719L17.0183 16.812L18.4718 18.2655L15.5648 21.1725L14.1113 19.719Z" fill="#FCAF17"/>
<path d="M22.4707 11.3611L25.3777 8.45409L26.8312 9.90759L23.9242 12.8146L22.4707 11.3611Z" fill="#FCAF17"/>
<path d="M56.0136 57.5555H17.9858C14.8675 57.5555 12.333 55.021 12.333 51.9027V38.5416C12.333 38.3237 12.3782 38.1078 12.4687 37.9085L21.7187 17.3529C21.9674 16.7999 22.5183 16.4443 23.1247 16.4443H50.8747C51.4811 16.4443 52.032 16.7999 52.2807 17.3529L61.5307 37.9085C61.6211 38.1078 61.6663 38.3237 61.6663 38.5416V51.9027C61.6663 55.021 59.1318 57.5555 56.0136 57.5555ZM15.4163 38.8725V51.9027C15.4163 53.319 16.5695 54.4721 17.9858 54.4721H56.0136C57.4298 54.4721 58.583 53.319 58.583 51.9027V38.8725L49.8777 19.5277H24.1216L15.4163 38.8725Z" fill="#D1D1D1"/>
<path d="M46.2623 50.3611H27.7377C26.1384 50.3611 24.753 49.3313 24.2926 47.7978L22.0869 40.4513C22.0212 40.2354 21.8197 40.0833 21.5957 40.0833H13.875V37H21.5957C23.1949 37 24.5803 38.0298 25.0408 39.5633L27.2464 46.9098C27.3122 47.1277 27.5136 47.2778 27.7377 47.2778H46.2623C46.4864 47.2778 46.6899 47.1277 46.7536 46.9098L48.9592 39.5633C49.4197 38.0298 50.8031 37 52.4043 37H60.125V40.0833H52.4043C52.1803 40.0833 51.9768 40.2334 51.9131 40.4513L49.7074 47.7978C49.247 49.3313 47.8616 50.3611 46.2623 50.3611Z" fill="#D1D1D1"/>
<path d="M4.11133 54.4724H69.8891V57.5557H4.11133V54.4724Z" fill="#D1D1D1"/>
</svg>
