<svg width="18" height="18" viewBox="0 0 18 18" fill="none" xmlns="http://www.w3.org/2000/svg">
<path fill-rule="evenodd" clip-rule="evenodd" d="M12.2272 2.0625H5.73825C3.47925 2.0625 2.0625 3.663 2.0625 5.928V12.0375C2.0625 14.3025 3.47325 15.903 5.73825 15.903H12.2235C14.4922 15.903 15.9022 14.3025 15.9022 12.0375V5.928C15.9052 3.663 14.4945 2.0625 12.2272 2.0625Z" stroke="#BBB6D2" stroke-linecap="round" stroke-linejoin="round"/>
<path fill-rule="evenodd" clip-rule="evenodd" d="M8.02779 6.58909C8.02779 7.35409 7.40829 7.97359 6.64329 7.97359C5.87904 7.97359 5.25879 7.35409 5.25879 6.58909C5.25879 5.82409 5.87904 5.20459 6.64329 5.20459C7.40754 5.20534 8.02704 5.82484 8.02779 6.58909Z" stroke="#BBB6D2" stroke-linecap="round" stroke-linejoin="round"/>
<path d="M15.9053 11.2133C15.213 10.5008 13.8818 9.06152 12.4343 9.06152C10.986 9.06152 10.1512 12.2363 8.7585 12.2363C7.36575 12.2363 6.1005 10.8008 4.9845 11.721C3.8685 12.6405 2.8125 14.5208 2.8125 14.5208" stroke="#BBB6D2" stroke-linecap="round" stroke-linejoin="round"/>
</svg>
