<svg width="12" height="14" viewBox="0 0 12 14" fill="none" xmlns="http://www.w3.org/2000/svg">
    <path fill-rule="evenodd" clip-rule="evenodd" d="M6.16764 4.66666C5.52431 4.66666 5.00098 5.19 5.00098 5.834C5.00098 6.47733 5.52431 7 6.16764 7C6.81098 7 7.33431 6.47733 7.33431 5.834C7.33431 5.19 6.81098 4.66666 6.16764 4.66666ZM6.16764 8C4.97298 8 4.00098 7.02866 4.00098 5.834C4.00098 4.63866 4.97298 3.66666 6.16764 3.66666C7.36231 3.66666 8.33431 4.63866 8.33431 5.834C8.33431 7.02866 7.36231 8 6.16764 8Z" fill="#95A1AC"/>
    <mask id="mask0" mask-type="alpha" maskUnits="userSpaceOnUse" x="0" y="0" width="12" height="14">
        <path fill-rule="evenodd" clip-rule="evenodd" d="M0.666992 0.333332H11.6667V13.3333H0.666992V0.333332Z" fill="white"/>
    </mask>
    <g mask="url(#mask0)">
        <path fill-rule="evenodd" clip-rule="evenodd" d="M6.16699 1.33333C3.68566 1.33333 1.66699 3.37133 1.66699 5.87533C1.66699 9.06133 5.41633 12.1653 6.16699 12.3307C6.91766 12.1647 10.667 9.06067 10.667 5.87533C10.667 3.37133 8.64833 1.33333 6.16699 1.33333ZM6.16699 13.3333C4.97099 13.3333 0.666992 9.632 0.666992 5.87533C0.666992 2.81933 3.13433 0.333332 6.16699 0.333332C9.19966 0.333332 11.667 2.81933 11.667 5.87533C11.667 9.632 7.36299 13.3333 6.16699 13.3333Z" fill="#95A1AC"/>
    </g>
</svg>
