    <svg
      xmlns="http://www.w3.org/2000/svg"
      width="256"
      height="37"
      fill="#ec1b30"
    ><path d="M38.516 2.131C38.542.995 39.575.039 40.686.039c1.292-.026 2.583-.103 3.875.077 2.092.517 2.299 3.849.517 4.857-1.059.517-2.273.155-3.384.336-1.473.155-2.738 1.188-3.203 2.583l.026-5.761zm52.311 1.291c.026-1.085.982-2.067 2.067-2.118 1.188-.078 2.402-.078 3.617 0 1.085.052 2.041 1.007 2.041 2.092l.026 4.443h16.068l.026-4.417c.025-1.059.93-2.041 1.989-2.118 1.188-.078 2.402-.078 3.616-.026 1.111.026 2.119 1.007 2.119 2.144V7.84h9.79c-.026 1.059.103 2.144-.129 3.203a2.25 2.25 0 0 1-2.222 1.576c-2.48.026-4.96-.026-7.439 0l.025 12.761c0 1.705.543 3.591 2.093 4.521 2.351 1.395 5.218 1.137 7.853 1.162-.103 1.369.413 3.074-.723 4.159-.905.904-2.274.543-3.385.62-3.694.052-7.723-.103-10.746-2.506-1.937-1.395-2.841-3.823-2.867-6.148V12.619H98.551v12.245c-.052 1.808.362 3.901 2.015 4.96 2.377 1.472 5.296 1.214 7.956 1.24-.025 1.059.104 2.144-.077 3.177a2.22 2.22 0 0 1-2.144 1.602c-3.307 0-6.768.207-9.92-.982-1.989-.775-3.875-2.118-4.779-4.081-.878-1.834-.801-3.927-.775-5.89V12.645c-1.369-.129-3.048.413-4.133-.672-1.059-1.085-.543-2.738-.672-4.107h4.805c0-1.472-.052-2.971 0-4.443zm81.295.285c-.078-1.214.929-2.377 2.144-2.402h3.59c1.085.078 2.015 1.059 2.015 2.144l.026 21.932c-.026 1.757.594 3.668 2.196 4.572 2.351 1.317 5.166 1.085 7.75 1.111-.104 1.369.387 2.997-.646 4.107-.775.878-2.015.672-3.074.672-3.255.026-6.717.026-9.662-1.55-1.705-.904-3.229-2.325-3.849-4.211-.439-1.266-.516-2.609-.516-3.952l.026-22.423zM0 7.865h5.089c1.834.026 3.539 1.214 4.314 2.867l7.905 16.688c.439.852.723 1.86 1.576 2.403.362-.491.697-.982.956-1.524l8.266-17.592c.775-1.653 2.48-2.842 4.314-2.867h5.063L24.102 33.775c-.723 1.524-2.402 2.325-4.03 2.351-1.782.052-3.746.207-5.296-.852-1.033-.646-1.524-1.808-2.041-2.842L0 7.865zm40.041.105c1.24-.232 2.532-.077 3.772-.103.801-.052 1.602.336 2.041 1.007.362.517.413 1.188.413 1.782v22.758c.103 1.24-.93 2.454-2.196 2.428-1.292 0-2.583.078-3.875-.052-.956-.233-1.705-1.163-1.679-2.144V10.14c-.052-.956.62-1.86 1.524-2.17zm20.768.205c3.255-.517 6.561-.413 9.842-.387 3.591.155 7.44.568 10.385 2.816 2.015 1.524 3.048 4.03 3.203 6.51.129 1.757.207 3.746-.982 5.166-.982 1.214-2.583 1.653-4.107 1.653H58.536c.129 1.886.052 4.107 1.55 5.554 1.55 1.473 3.849 1.576 5.89 1.576h17.179c0 .93.052 1.886-.026 2.816a2.25 2.25 0 0 1-2.17 1.963H62.617c-2.919-.026-6.019-.517-8.37-2.377-1.627-1.214-2.687-3.048-3.152-5.012-.697-2.79-.568-5.683-.542-8.525.078-2.687.413-5.606 2.17-7.776 1.989-2.402 5.115-3.487 8.086-3.978zm-1.266 6.871c-1.369 1.86-.801 4.314-.982 6.484.93-1.86 3.229-2.377 5.115-2.377h10.875c.672.026 1.524-.232 1.679-.982.336-1.627-.594-3.306-1.912-4.211-2.351-1.55-5.321-1.421-8.034-1.421-2.428.026-5.166.491-6.742 2.506zm83.724-6.662c2.532-.542 5.141-.62 7.724-.594 3.229 0 6.536.026 9.661.93 2.196.646 4.314 1.834 5.58 3.772 1.369 2.041 1.628 4.598 1.524 7.001-.051 1.317-.594 2.661-1.679 3.462-1.033.827-2.428 1.008-3.694 1.008h-20.356c.155 1.937.078 4.236 1.653 5.657 1.705 1.473 4.134 1.498 6.252 1.473h16.739c-.051 1.111.155 2.273-.18 3.384-.336.827-1.189 1.421-2.093 1.395h-18.341c-2.842-.052-5.864-.517-8.189-2.273-1.576-1.162-2.686-2.893-3.203-4.779-.775-2.79-.672-5.709-.646-8.576.078-2.661.336-5.528 1.963-7.75 1.757-2.351 4.547-3.565 7.285-4.107zm-.465 7.026c-1.059 1.86-.594 4.107-.775 6.148.904-1.757 3.023-2.351 4.857-2.377h11.133c.698.026 1.55-.232 1.731-1.008.388-1.912-.93-3.771-2.583-4.572-2.454-1.214-5.296-1.033-7.956-1.008-2.377.052-5.064.697-6.407 2.816zm57.288 18.904c-.551 0-.971-.152-1.261-.455s-.435-.73-.435-1.279V20.55c0-.564.145-.99.435-1.279.304-.289.732-.433 1.283-.433h5.287c1.711 0 3.031.433 3.959 1.3.928.853 1.392 2.045 1.392 3.576s-.464 2.731-1.392 3.598-2.248 1.3-3.959 1.3h-3.633v3.967c0 .549-.146.975-.436 1.279-.275.303-.688.455-1.24.455zm1.676-8.302h3.067c.87 0 1.53-.195 1.98-.585.464-.39.696-.961.696-1.712s-.232-1.315-.696-1.691c-.45-.376-1.11-.564-1.98-.564h-3.067v4.552zm18.124 8.345c-1.508 0-2.835-.325-3.981-.975-1.131-.665-2.016-1.589-2.654-2.774-.624-1.185-.936-2.565-.936-4.14 0-1.199.174-2.276.523-3.23.362-.968.877-1.792 1.544-2.471.667-.694 1.465-1.228 2.393-1.604.943-.376 1.98-.564 3.111-.564 1.537 0 2.872.325 4.003.975a6.7 6.7 0 0 1 2.632 2.753c.638 1.171.957 2.543.957 4.118 0 1.199-.181 2.283-.543 3.251s-.878 1.799-1.545 2.493-1.465 1.228-2.393 1.604-1.965.563-3.111.563zm0-2.861c.856 0 1.581-.195 2.175-.585.61-.405 1.074-.983 1.393-1.734.333-.766.5-1.669.5-2.709 0-1.59-.355-2.818-1.066-3.685-.71-.881-1.711-1.322-3.002-1.322-.841 0-1.566.195-2.175.585s-1.074.961-1.393 1.712-.478 1.655-.478 2.709c0 1.575.355 2.81 1.066 3.706.71.881 1.704 1.322 2.98 1.322zm15.683 2.861c-.609 0-1.233-.05-1.871-.152-.624-.087-1.225-.217-1.806-.39-.565-.173-1.073-.39-1.522-.65-.32-.173-.544-.397-.675-.672-.13-.289-.181-.578-.152-.867.043-.289.152-.542.326-.759a1.2 1.2 0 0 1 .696-.433c.29-.072.609-.022.958.152a7.26 7.26 0 0 0 1.936.737c.71.159 1.414.238 2.11.238 1.059 0 1.813-.159 2.262-.477.45-.332.675-.744.675-1.235a1.19 1.19 0 0 0-.479-.997c-.319-.246-.877-.455-1.675-.628l-2.458-.52c-1.392-.289-2.429-.78-3.111-1.474-.667-.708-1.001-1.633-1.001-2.774a4.24 4.24 0 0 1 .457-1.972c.305-.592.732-1.105 1.284-1.539s1.203-.766 1.957-.997c.769-.231 1.61-.347 2.524-.347a9.53 9.53 0 0 1 2.393.303c.783.188 1.472.47 2.067.845.29.173.486.397.587.672a1.4 1.4 0 0 1 .109.802c-.029.26-.138.491-.326.694a1.19 1.19 0 0 1-.675.39c-.276.058-.609-.007-1.001-.195-.478-.246-.986-.426-1.522-.542a7.8 7.8 0 0 0-1.654-.173c-.609 0-1.131.079-1.566.238-.421.159-.747.383-.979.672a1.61 1.61 0 0 0-.326.997c0 .419.152.759.456 1.019s.834.47 1.589.629l2.458.52c1.421.303 2.48.795 3.176 1.474.696.665 1.044 1.546 1.044 2.644 0 .723-.145 1.38-.435 1.972a4.27 4.27 0 0 1-1.262 1.496c-.551.419-1.211.744-1.979.975-.769.217-1.632.325-2.589.325zm13.487-.043c-.551 0-.971-.152-1.261-.455s-.436-.73-.436-1.279V21.613h-3.85c-.45 0-.798-.123-1.044-.369s-.37-.585-.37-1.019c0-.448.123-.788.37-1.019.246-.246.594-.368 1.044-.368h11.073c.45 0 .798.123 1.044.368.247.231.37.571.37 1.019 0 .433-.123.773-.37 1.019s-.594.369-1.044.369h-3.851V32.58c0 .549-.145.975-.435 1.279-.275.303-.689.455-1.24.455z"/></svg>