<svg width="1350" height="294" viewBox="0 0 1350 294" fill="none" xmlns="http://www.w3.org/2000/svg">
<path d="M1333.96 146.757C1333.15 147.939 1332.95 149.418 1331.92 150.516C1329.63 152.963 1324.89 153.924 1321.18 152.574C1317.93 151.4 1316.05 148.534 1316.04 144.531C1316.04 135.528 1316.04 126.524 1316.04 117.512C1316.04 116.114 1315.94 114.718 1315.75 113.334C1314.56 105.284 1309.55 103.561 1303.82 103.782C1296.06 104.087 1291.11 109.568 1291.1 117.368C1291.1 125.952 1291.1 134.529 1291.1 143.113C1291.1 144.33 1291 145.545 1290.79 146.742C1290.59 148.14 1289.99 149.449 1289.05 150.503C1288.11 151.557 1286.88 152.31 1285.52 152.666C1283.28 153.338 1280.89 153.338 1278.66 152.666C1275.44 151.728 1273.72 149.487 1273.24 146.262C1273.09 145.178 1273.03 144.085 1273.04 142.991C1272.99 133.622 1273.17 124.244 1272.85 114.89C1272.58 107.38 1268.68 103.919 1261.23 103.713C1258.09 103.535 1255 104.571 1252.6 106.606C1250.21 108.641 1248.68 111.519 1248.35 114.646C1248.2 116.095 1248.14 117.551 1248.16 119.007C1248.11 127.652 1248.21 136.29 1247.99 144.928C1247.85 150.425 1244.55 153.23 1238.97 153.154C1233.4 153.078 1230.24 150.036 1230.11 144.447C1230.02 140.308 1230.11 136.168 1230.11 132.036C1230.11 120.346 1230.11 108.656 1230.11 96.966C1230.11 92.3079 1231.94 89.3422 1235.45 88.13C1240.64 86.3384 1245.18 88.13 1247.76 93.1617C1253.24 87.9394 1259.96 86.6815 1267.15 87.1999C1274.52 87.7259 1280.61 90.7145 1285.11 96.7983C1289.23 92.0639 1294.25 88.8924 1300.41 87.7564C1307.27 86.4985 1314.06 86.6281 1320.37 89.914C1328.76 94.2596 1332.39 101.746 1333.6 110.712C1333.68 111.276 1333.4 111.932 1333.95 112.404L1333.96 146.757Z" fill="#010101"/>
<path d="M83.2283 268.028C83.0987 267.098 82.3592 267.319 81.8026 267.342C77.2969 267.51 72.8065 267.136 68.316 266.869C63.8256 266.602 59.48 266.488 55.1344 265.558C54.616 265.451 53.8002 265.558 53.7697 264.902C53.7316 264.14 54.6541 264.14 55.1649 264.086C58.588 263.652 62.0263 263.118 65.4571 262.966C73.7137 262.6 81.978 262.341 90.2346 262.089C107.106 261.563 123.97 261.898 140.834 261.876C148.123 261.876 155.419 262.158 162.692 262.638C167.945 262.973 173.236 263.065 178.435 264.025C179.197 264.163 180.333 264.025 180.349 264.917C180.364 265.809 179.152 265.611 178.496 265.68C176.171 266.096 173.824 266.376 171.467 266.518C165.154 266.793 158.865 267.449 152.537 267.327C151.942 267.327 151.111 266.983 150.928 268.013H147.635C147.134 267.724 146.566 267.573 145.988 267.573C145.41 267.573 144.842 267.724 144.341 268.013H89.8153C89.3144 267.724 88.7465 267.573 88.1686 267.573C87.5906 267.573 87.0227 267.724 86.5218 268.013L83.2283 268.028Z" fill="#D0D1D2"/>
<path d="M17 184.021C20.6747 182.374 24.6239 182.199 28.5501 181.932C38.4585 181.168 48.4182 181.387 58.2832 182.587C59.735 182.732 61.1622 183.062 62.5297 183.571C62.9261 183.731 63.3988 183.86 63.4522 184.333C63.5208 184.958 62.9338 185.096 62.5068 185.279C60.8497 185.878 59.1182 186.248 57.3607 186.376C44.9719 187.672 32.5984 187.84 20.2554 185.873C19.121 185.678 18.0231 185.31 17 184.783V184.021Z" fill="#040404"/>
<path d="M86.5215 268.028C87.0224 267.74 87.5903 267.588 88.1682 267.588C88.7462 267.588 89.3141 267.74 89.815 268.028H86.5215Z" fill="#FDFDFD"/>
<path d="M144.341 268.028C144.842 267.74 145.41 267.588 145.988 267.588C146.566 267.588 147.133 267.74 147.634 268.028H144.341Z" fill="#FDFDFD"/>
<path d="M206.277 133.125C207.657 131.516 209.327 131.6 211.088 131.6C228.592 131.6 246.094 131.6 263.593 131.6C264.203 131.6 264.813 131.6 265.423 131.6C269.052 131.371 270.18 132.53 270.173 136.235C270.173 154.314 270.173 172.395 270.173 190.479C270.231 191.527 270.013 192.572 269.539 193.509C269.065 194.446 268.353 195.242 267.474 195.816C260.742 200.725 254.125 205.803 247.461 210.82C246.691 211.421 245.74 211.743 244.763 211.734C226.221 211.678 207.683 211.635 189.146 211.605C188.784 211.572 188.42 211.624 188.081 211.756C187.742 211.888 187.439 212.098 187.195 212.367C185.204 214.511 183.019 216.466 180.669 218.207C179.906 218.748 179.838 219.107 180.333 219.907C186.005 228.974 191.647 238.06 197.258 247.162C197.815 248.062 198.242 248.093 199.111 247.628C202.221 245.973 205.378 244.395 208.519 242.809C211.66 241.223 215.075 242.359 216.821 245.661C218.567 248.962 217.713 252.621 214.534 254.276C209.207 257.071 203.871 259.843 198.524 262.593C195.268 264.263 191.906 263.157 189.779 259.749C184.229 250.819 178.689 241.884 173.159 232.944C171.787 230.725 170.377 228.522 169.035 226.281C168.6 225.518 168.272 225.32 167.335 225.656C153.505 230.756 139.95 229.361 126.661 223.643C124.931 222.88 124.252 223.185 123.36 224.71C121.706 227.539 119.83 230.238 118.023 232.974C115.912 236.169 113.449 237.236 109.752 236.489C102.639 235.002 95.4873 233.577 88.3438 232.052C86.8571 231.724 86.0947 231.93 85.4086 233.394C83.3349 237.854 81.1011 242.23 78.9054 246.629C76.9537 250.525 72.9893 251.783 69.0402 249.777C65.091 247.772 63.8788 243.953 65.739 240.118C69.0325 233.356 72.6005 226.715 75.65 219.846C77.0376 216.743 79.462 215.554 82.7784 216.232C90.7148 217.841 98.636 219.473 106.55 221.18C107.907 221.478 108.684 221.257 109.325 220.006C109.908 218.87 110.608 217.796 111.414 216.804C112.245 215.783 111.955 215.279 110.971 214.593C103.111 208.837 96.4861 201.93 92.0337 193.186C84.7301 178.891 84.9207 164.291 90.7682 149.638C95.838 136.906 103.904 126.279 114.303 117.397C115.363 116.497 115.584 115.819 115.065 114.523C112.145 106.993 111.547 98.761 113.35 90.8886C113.51 90.1262 113.724 89.6078 112.908 89.0207C108.844 86.1237 107.236 81.8695 106.656 77.1351C105.292 66.0805 109.447 56.8633 116.567 48.7896C126.631 37.3538 139.607 30.9117 154.313 27.763C166.938 25.0565 179.472 25.2395 191.67 29.9053C200.994 33.4657 208.442 39.2369 212.498 48.66C212.942 49.5229 213.27 50.4406 213.474 51.3893C213.764 53.5469 214.907 54.4389 217.035 54.9573C222.417 56.2521 227.6 58.2678 232.442 60.9497C234.433 62.0142 236.265 63.3511 237.886 64.9217C242.338 69.3969 242.048 74.6116 237.123 78.5989C233.799 81.2978 229.805 82.6319 225.886 84.1033C222.76 85.2774 222.737 85.285 222.981 88.6319C223.782 99.4349 220.793 109.171 214.694 118.037C212.218 121.663 209.278 124.948 205.949 127.811C204.768 128.825 204.501 129.686 205.324 130.99C205.697 131.676 206.016 132.389 206.277 133.125V133.125ZM184.519 165.984C184.519 160.83 184.565 156.156 184.519 151.498C184.464 150.834 184.584 150.167 184.868 149.563C185.152 148.96 185.588 148.442 186.135 148.06C190.061 145.186 193.949 142.251 197.853 139.338C199.233 138.309 199.378 136.571 198.036 134.871C197.052 133.59 196.282 134.97 195.604 135.343C181.637 142.967 166.839 145.719 151.149 142.731C138.875 140.398 128.491 134.695 120.745 124.693C119.876 123.564 119.403 123.74 118.496 124.563C110.268 131.864 103.682 140.826 99.1697 150.858C95.0147 160.289 93.4975 170.078 95.9753 180.21C98.8571 192.011 106.184 200.733 115.698 207.869C116.59 208.54 116.964 208.281 117.49 207.457C120.753 202.375 124.044 197.328 127.363 192.316C129.757 188.687 134.064 187.62 137.38 189.778C140.948 192.065 141.818 196.449 139.416 200.169C136.316 204.982 133.2 209.78 130.069 214.563C129.596 215.325 129.147 215.813 130.374 216.316C139.713 220.128 149.258 221.821 159.276 219.511C169.294 217.201 177.139 211.445 183.84 203.912C184.117 203.59 184.327 203.216 184.458 202.811C184.589 202.407 184.638 201.98 184.603 201.557C184.603 195.648 184.603 189.747 184.603 183.839C184.647 183.365 184.556 182.888 184.342 182.464C184.128 182.039 183.798 181.683 183.39 181.437C177.718 177.534 172.077 173.592 166.465 169.613C163.119 167.249 162.509 163.513 164.895 160.212C167.182 157.064 170.994 156.507 174.211 158.802C177.429 161.097 180.875 163.437 184.519 165.984ZM114.608 74.0246C114.682 75.7576 114.977 77.4741 115.485 79.1326C115.521 79.3862 115.609 79.6296 115.743 79.8483C115.876 80.0669 116.053 80.2561 116.262 80.4044C116.471 80.5527 116.707 80.657 116.958 80.711C117.208 80.765 117.467 80.7674 117.719 80.7183C125.559 80.3611 133.374 79.5593 141.124 78.3168C152.247 76.6188 163.229 74.1038 173.983 70.7921C184.632 67.4952 194.945 63.1964 204.783 57.9535C206.094 57.2521 206.422 56.4668 206.033 55.0488C205.306 52.2768 204.047 49.6722 202.328 47.3792C197.716 41.3487 191.357 38.0476 184.221 36.1035C174.928 33.5648 165.566 33.6791 156.204 35.7071C143.243 38.5203 131.685 44.0933 122.75 54.1644C118.008 59.5316 114.768 65.6231 114.608 74.0246V74.0246ZM186.653 130.174C186.234 130.174 185.815 130.235 185.396 130.251L183.939 130.312C175.164 130.51 167.296 128.345 161.22 121.575C159.124 119.242 159.154 119.219 161.777 117.359C162.185 117.096 162.577 116.808 162.951 116.497C163.629 115.887 164.064 115.956 164.674 116.711C169.012 122.154 174.913 124.334 181.667 124.464C188.422 124.594 194.803 123.016 201.04 120.606C201.836 120.302 202.549 119.813 203.121 119.181C206.78 115.427 209.741 111.051 211.866 106.258C214.381 100.418 215.563 94.3574 214.595 87.9229C214.237 88.0144 214 88.0601 213.772 88.1287C197.06 93.1376 180.082 96.8123 162.631 97.9101C148.946 98.7716 135.352 98.4896 122.285 93.534C121.523 93.2367 121.172 93.4044 121.073 94.1821C120.921 95.4476 120.669 96.7132 120.631 97.994C120.189 112.723 127.134 123.153 139.759 130.075C149.906 135.618 160.885 136.67 172.183 134.924C177.248 134.203 182.147 132.595 186.653 130.174ZM191.121 186.903C191.121 192.797 191.121 198.339 191.121 203.859C191.121 204.942 191.662 205.003 192.486 205.003C208.45 205.003 224.42 205.003 240.394 205.003C241.393 205.003 241.766 204.743 241.766 203.684C241.736 187.679 241.736 171.668 241.766 155.653C241.766 154.609 241.446 154.319 240.417 154.327C224.453 154.327 208.483 154.327 192.509 154.327C191.327 154.327 191.091 154.731 191.113 155.798C191.182 158.596 191.113 161.394 191.113 164.184C191.113 166.311 190.504 168.797 191.395 170.459C192.287 172.121 194.765 173.104 196.496 174.438C196.832 174.73 197.247 174.918 197.688 174.977C198.13 175.037 198.579 174.966 198.981 174.774C203.312 173.163 207.657 171.595 212.018 170.07C215.502 168.85 218.88 170.55 220.198 174.149C221.594 177.869 220.198 181.437 216.684 182.71C210.745 184.883 204.791 186.98 198.836 189.122C197.821 189.535 196.709 189.652 195.629 189.459C194.55 189.266 193.547 188.771 192.737 188.032C192.31 187.719 191.861 187.437 191.121 186.903ZM132.928 87.8467L132.974 88.205C133.736 88.3651 134.499 88.5328 135.261 88.6777C146.331 90.6599 157.424 90.3397 168.547 89.1351C183.488 87.4693 198.235 84.3698 212.582 79.8797C218.559 78.0347 224.582 76.2203 230.117 73.2851C233.251 71.6383 233.228 70.9979 230.209 69.1529C225.238 66.1034 219.764 64.266 214.198 62.5812C213.876 62.5103 213.542 62.5147 213.222 62.5941C212.902 62.6734 212.605 62.8255 212.354 63.0386C209.899 64.388 207.482 65.8137 204.989 67.0869C184.336 77.6307 162.295 83.6611 139.424 86.9089L132.928 87.8467ZM248.414 201.778C253.286 198.133 257.738 194.748 262.259 191.455C262.708 191.168 263.07 190.765 263.306 190.288C263.543 189.811 263.645 189.279 263.601 188.748C263.563 173.6 263.601 158.451 263.563 143.31C263.563 142.799 263.776 142.235 263.372 141.785C262.74 141.831 262.389 142.296 261.97 142.616C257.914 145.666 253.896 148.716 249.81 151.658C249.336 151.966 248.954 152.395 248.703 152.9C248.452 153.406 248.342 153.97 248.384 154.533C248.43 169.552 248.384 184.578 248.384 199.605L248.414 201.778ZM256.435 138.37C256.137 138.233 256.038 138.149 255.947 138.149C241.207 138.149 226.447 138.149 211.667 138.149C210.816 138.149 209.992 138.452 209.342 139.003C205.949 141.58 202.519 144.118 199.118 146.688C198.783 146.947 198.165 147.038 198.257 147.747C211.5 147.747 224.735 147.587 237.954 147.831C242.224 147.915 245.731 147.069 248.895 144.141C251.197 142.022 253.858 140.314 256.435 138.37V138.37Z" fill="#020201"/>
<path d="M353.372 101.158C358.007 101.158 362.642 101.158 367.278 101.158C372.767 101.158 376.083 104.36 376.137 109.857C376.213 117.588 376.137 125.318 376.137 133.057C376.137 135.266 375.266 137.387 373.712 138.957C365.661 147.626 355.537 152.002 343.979 153.298C334.609 154.342 325.324 153.893 316.533 150.126C301.286 143.585 292.084 131.959 288.981 115.819C286.579 103.331 287.616 91.0186 294.058 79.7582C302.292 65.372 314.848 57.4508 331.415 56.1242C338.354 55.5032 345.348 56.2491 351.999 58.3199C358.132 60.2133 363.681 63.6373 368.124 68.269C371.173 71.4787 371.745 76.2131 369.367 79.6362C367.224 82.6857 362.36 83.776 358.449 81.9996C357.153 81.3283 355.923 80.5371 354.775 79.6362C347.6 74.6578 339.74 72.2487 330.98 73.5752C319.545 75.2982 312.127 82.0454 308.33 92.6349C306.625 97.2153 305.862 102.093 306.086 106.975C306.31 111.857 307.517 116.644 309.634 121.049C314.894 132.294 324.119 137.463 336.477 137.326C343.59 137.242 350.383 135.977 356.467 131.989C357.052 131.693 357.534 131.228 357.851 130.654C358.168 130.081 358.305 129.425 358.243 128.772C358.106 125.86 358.121 122.924 358.243 120.012C358.304 118.526 357.938 118.038 356.368 118.068C350.635 118.167 344.932 118.152 339.169 118.068C335.273 118.03 332.581 116.353 331.545 113.219C330.393 109.613 330.47 106.106 333.367 103.209C334.968 101.608 337.057 101.166 339.245 101.158C343.979 101.143 348.675 101.158 353.372 101.158Z" fill="#010101"/>
<path d="M831.671 93.3971C833.31 88.9524 836.931 86.9168 841.704 87.6792C846.232 88.4035 848.779 91.2548 848.786 95.9663C848.786 113.501 848.954 131.036 848.672 148.571C848.527 157.415 845.737 165.443 838.54 171.305C834.019 174.988 828.705 176.825 823.01 177.61C811.574 179.181 800.672 177.854 790.471 172.205C787.803 170.726 785.714 168.721 785.462 165.488C784.974 159.138 791.035 154.945 796.898 157.544C798.842 158.398 800.657 159.549 802.608 160.373C808.963 163.193 816.133 163.575 822.751 161.448C824.426 160.963 825.949 160.057 827.175 158.818C828.401 157.578 829.29 156.045 829.757 154.365C830.605 151.506 830.958 148.523 830.802 145.544L828.362 147.321C819.312 153.809 800.405 153.763 790.075 141.664C784.037 134.589 781.788 126.363 782.215 117.306C782.687 107.181 786.644 98.7643 794.893 92.528C804.339 85.392 822.43 84.9041 831.183 93.2904C831.282 93.3361 831.427 93.298 831.671 93.3971ZM830.908 119.356C830.954 107.738 821.439 100.297 810.606 103.682C803.988 105.755 800.992 110.84 800.245 117.511C798.896 129.519 808.959 138.393 820.212 135.046C826.616 133.156 830.847 126.973 830.878 119.356H830.908Z" fill="#010101"/>
<path d="M583.27 92.8638C586.604 89.9398 590.719 88.0532 595.11 87.4356C613.277 84.9349 623.852 95.8675 626.246 109.895C626.653 112.48 626.844 115.094 626.817 117.71C626.817 126.416 626.817 135.115 626.817 143.822C626.817 151.003 621.595 154.8 614.619 152.742C613.132 152.367 611.798 151.539 610.802 150.372C609.807 149.206 609.198 147.758 609.061 146.231C608.93 145.22 608.868 144.201 608.878 143.181C608.825 133.751 609.008 124.312 608.68 114.889C608.413 107.265 603.45 103.217 595.826 103.758C588.02 104.315 583.277 109.392 583.262 117.245C583.262 125.517 583.262 133.796 583.262 142.076C583.262 143.349 583.209 144.63 583.102 145.888C583.017 147.544 582.387 149.126 581.311 150.388C580.234 151.649 578.77 152.52 577.148 152.864C575.242 153.329 573.252 153.329 571.346 152.864C569.838 152.57 568.461 151.807 567.413 150.685C566.364 149.562 565.697 148.137 565.506 146.612C565.325 145.536 565.23 144.448 565.224 143.357C565.224 117.73 565.224 92.1039 565.224 66.4776C565.2 65.138 565.346 63.8008 565.659 62.4979C566.802 58.0837 571.072 55.7508 576.203 56.6809C580.533 57.4433 583.064 60.1117 583.133 64.5259C583.293 73.2247 583.255 81.9235 583.293 90.63L583.27 92.8638Z" fill="#010101"/>
<path d="M1078 108.036L1098.1 92.3686C1099.3 91.4309 1100.5 90.5008 1101.68 89.5401C1102.74 88.7009 1103.96 88.1038 1105.27 87.7915C1106.58 87.4792 1107.94 87.4593 1109.25 87.7333C1112.24 88.2365 1114.45 89.7917 1115.35 92.7955C1116.4 96.272 1115.64 99.352 1112.87 101.723C1110.28 103.934 1107.53 105.962 1104.85 108.066C1102.16 110.17 1099.62 112.244 1096.92 114.226C1095.91 114.989 1096.02 115.408 1096.72 116.3C1102.63 123.802 1108.45 131.372 1114.37 138.867C1115.32 139.977 1116.01 141.291 1116.38 142.707C1116.74 144.124 1116.78 145.606 1116.48 147.039C1116.26 148.468 1115.6 149.792 1114.59 150.83C1113.59 151.869 1112.28 152.571 1110.86 152.841C1107.36 153.603 1104.19 153.085 1101.83 150.066L1093.53 139.393C1090.16 135.077 1086.75 130.785 1083.45 126.432C1082.69 125.464 1082.38 125.67 1081.49 126.226C1078.74 127.926 1077.63 130.084 1077.91 133.431C1078.15 137.377 1078.13 141.335 1077.84 145.278C1077.64 149.936 1075.01 152.528 1070.28 153.047C1065.27 153.603 1061.61 151.575 1060.42 147.512C1060.08 146.271 1059.92 144.987 1059.94 143.7C1059.94 117.779 1059.94 91.8578 1059.94 65.9367C1059.94 58.5034 1065.73 54.5009 1072.76 57.1082C1075.81 58.2289 1077.41 60.4932 1077.8 63.6495C1077.93 64.7986 1077.99 65.9544 1077.98 67.1107C1077.98 79.9493 1077.98 92.7879 1077.98 105.626L1078 108.036Z" fill="#010101"/>
<path d="M1174.58 127.46C1175.3 133.125 1179.25 137.021 1184.94 138.004C1192.06 139.224 1198.2 137.402 1203.39 132.393C1204.2 131.523 1205.19 130.84 1206.3 130.391C1207.4 129.942 1208.59 129.738 1209.78 129.793C1212.63 129.961 1215.05 130.982 1216.3 133.719C1217.66 136.7 1217.53 139.636 1215.42 142.296C1212.16 146.509 1207.74 149.686 1202.71 151.445C1193.98 154.494 1185.06 154.815 1176.37 151.704C1164.58 147.496 1158.02 138.683 1156.16 126.462C1154.84 117.747 1156.03 109.376 1160.84 101.753C1171.66 84.6141 1194.63 83.562 1206.37 92.7869C1213.58 98.4591 1217.5 105.969 1218.67 114.98C1218.91 116.787 1219.04 118.608 1219.05 120.431C1219.05 124.578 1216.6 127.148 1212.44 127.376C1210.61 127.475 1208.78 127.445 1206.95 127.445H1174.58V127.46ZM1188.07 111.991C1191.97 111.991 1195.87 111.93 1199.77 111.991C1201.34 112.03 1201.35 111.519 1200.76 110.352C1198.28 105.458 1194.44 102.5 1188.84 102.393C1183.04 102.279 1177.87 103.872 1175.41 110.528C1175 111.625 1175.06 112.014 1176.37 111.991C1180.27 111.953 1184.17 111.991 1188.07 111.991V111.991Z" fill="#010101"/>
<path d="M957.868 127.461C959.05 134.201 963.32 137.715 970.738 138.31C973.598 138.575 976.481 138.208 979.183 137.235C981.886 136.261 984.341 134.705 986.374 132.676C988.356 130.8 990.544 129.558 993.396 129.84C999.716 130.473 1002.67 136.93 998.885 142.084C996.349 145.622 992.911 148.415 988.928 150.173C977.065 155.311 965.157 155.509 953.858 148.9C943.863 143.022 939.518 133.53 939.083 122.216C938.611 109.576 942.979 99.0852 953.866 92.1475C970.242 81.718 996.392 86.3838 1001.68 112.976C1002.14 115.364 1002.37 117.793 1002.35 120.226C1002.35 124.747 999.967 127.377 995.492 127.415C983.729 127.522 971.957 127.476 960.186 127.499L957.868 127.461ZM971.469 111.992C975.373 111.992 979.276 111.939 983.172 111.992C984.598 111.992 984.697 111.642 984.148 110.468C981.319 104.208 974.946 101.205 967.757 102.745C965.738 103.092 963.848 103.968 962.28 105.285C960.711 106.602 959.52 108.311 958.829 110.239C958.341 111.489 958.28 112.046 959.95 112C963.8 111.916 967.657 111.992 971.469 111.992Z" fill="#010101"/>
<path d="M678.476 116.17C678.774 107.998 675.137 103.85 667.254 103.172C661.957 102.797 656.645 103.661 651.739 105.695C649.774 106.554 647.596 106.801 645.488 106.404C642.682 105.817 640.738 104.231 639.984 101.441C639.153 98.3534 639.61 95.5173 642.103 93.2683C645.053 90.5999 648.705 89.4106 652.464 88.5949C661.452 86.6508 670.471 86.2086 679.368 88.9837C689.279 92.0942 695.378 99.7791 696.141 110.155C696.903 120.005 696.316 129.87 696.446 139.72C696.586 141.848 696.535 143.983 696.293 146.102C695.661 149.86 693.678 152.14 690.354 152.902C686.085 153.886 682.174 152.612 680.1 149.548C679.933 149.296 679.757 149.052 679.628 148.861C670.029 154.755 659.981 155.479 649.773 151.149C638.283 146.269 633.991 132.768 640.38 122.468C643.887 116.826 649.33 114.028 655.628 112.831C663.534 111.322 671.165 111.977 678.476 116.17ZM666.515 126.127C664.06 126.257 661.498 126.333 659.112 127.385C658.025 127.799 657.096 128.543 656.455 129.513C655.813 130.482 655.492 131.629 655.536 132.79C655.483 135.421 656.405 137.609 658.891 138.508C664.677 140.62 670.464 140.696 675.831 137.243C679.643 134.773 679.498 130.968 675.64 128.475C672.873 126.691 669.793 126.158 666.515 126.127Z" fill="#010101"/>
<path d="M459.382 115.994C459.862 108.294 456.248 104.009 448.762 103.217C443.112 102.622 437.745 103.727 432.523 105.755C430.208 106.763 427.599 106.866 425.212 106.045C419.989 104.154 418.884 96.9497 423.222 93.0844C426.142 90.5 429.74 89.3335 433.445 88.5101C442.495 86.5584 451.582 86.1391 460.533 88.9599C470.246 92.0095 475.438 98.9472 476.978 108.828C477.323 111.484 477.463 114.163 477.397 116.84C477.397 126.027 477.397 135.222 477.397 144.416C477.397 147.656 476.429 150.515 473.341 152.04C471.758 152.845 469.996 153.235 468.221 153.172C466.446 153.11 464.716 152.597 463.194 151.681C462.747 151.481 462.367 151.158 462.096 150.751C461.028 148.464 459.862 149.28 458.108 150.141C447.717 155.257 437.295 155.31 427.331 149.143C420.805 145.11 418.121 138.835 418.64 131.234C419.158 123.633 423.069 118.007 430.037 114.934C439.826 110.673 449.631 111.069 459.382 115.994ZM446.589 139.842C450.599 139.895 453.831 139.285 456.706 137.326C460.518 134.711 460.518 130.838 456.523 128.459C451.3 125.364 445.743 125.493 440.192 127.392C437.501 128.307 436.533 130.129 436.525 133.041C436.525 135.755 437.669 137.676 440.223 138.713C442.252 139.496 444.414 139.88 446.589 139.842V139.842Z" fill="#010101"/>
<path d="M520.945 87.1518C540.477 87.1518 554.093 100.943 554.284 120.499C554.459 138.514 540.492 154.303 519.801 153.784C501.245 153.319 487.339 138.712 487.438 120.186C487.53 101.401 502.03 86.5267 520.945 87.1518ZM536.307 119.309C536.26 117.461 535.965 115.628 535.43 113.858C533.486 107.187 528.363 103.322 521.12 103.002C514.701 102.72 509.242 106.333 506.81 112.555C505.285 116.561 504.975 120.929 505.918 125.111C507.146 131.065 510.348 135.609 516.485 137.126C522.622 138.643 528.386 137.599 532.617 132.285C535.384 128.801 536.292 124.692 536.307 119.309V119.309Z" fill="#010101"/>
<path d="M727.788 93.1897C728.053 93.0339 728.307 92.8607 728.55 92.6713C736.395 85.2533 752.031 85.6116 760.128 91.4058C766.418 95.9038 769.826 102.133 771.175 109.612C771.658 112.49 771.882 115.407 771.846 118.326C771.846 126.78 771.846 135.243 771.846 143.698C771.846 146.038 771.51 148.318 769.986 150.231C767.866 152.892 763.33 153.921 759.388 152.656C757.787 152.208 756.383 151.235 755.402 149.892C754.422 148.549 753.922 146.915 753.983 145.253C753.884 135.944 753.93 126.636 753.915 117.327C753.918 115.501 753.705 113.682 753.282 111.906C752.314 107.789 749.821 105.213 745.658 104.214C739.086 102.628 733.147 104.717 730.143 109.772C728.871 111.94 728.222 114.417 728.268 116.93C728.268 125.383 728.268 133.84 728.268 142.303C728.268 143.157 728.268 144.003 728.161 144.849C728.07 146.496 727.536 148.088 726.614 149.456C725.693 150.824 724.418 151.918 722.926 152.621C721.434 153.324 719.779 153.611 718.137 153.451C716.495 153.29 714.928 152.689 713.599 151.71C711.099 150.003 710.245 147.434 710.237 144.59C710.237 128.526 710.123 112.455 710.237 96.3918C710.306 88.9433 718.006 85.017 724.433 88.9204C726.019 89.9039 727.207 91.4159 727.788 93.1897Z" fill="#010101"/>
<path d="M870.704 125.272C870.704 118.822 870.659 112.373 870.704 105.923C870.704 104.611 870.354 104.291 869.096 104.352C866.908 104.459 864.712 104.406 862.516 104.352C858.102 104.299 855.297 101.341 855.243 96.7284C855.182 91.8339 857.896 88.7614 862.432 88.6547C864.72 88.6013 867.068 88.5937 869.378 88.6547C870.407 88.6547 870.712 88.4031 870.697 87.3586C870.636 82.8529 870.697 78.3549 870.697 73.8492C870.697 70.5023 871.543 67.4833 874.798 65.9051C876.419 65.0374 878.243 64.62 880.08 64.6964C881.917 64.7728 883.7 65.3403 885.243 66.3397C887.889 67.9864 888.582 70.7081 888.613 73.6128C888.659 77.9965 888.727 82.3803 888.613 86.7564C888.552 88.4641 889.124 88.7386 890.633 88.6623C893.065 88.5404 895.505 88.609 897.944 88.6623C902.565 88.7157 905.423 91.7119 905.439 96.492C905.454 101.272 902.549 104.337 897.815 104.36C895.314 104.36 892.814 104.444 890.321 104.36C888.971 104.291 888.613 104.634 888.62 106.022C888.681 118.434 888.62 130.853 888.62 143.264C888.62 143.928 888.62 144.599 888.62 145.269C888.209 150.438 884.808 153.313 879.365 153.16C874.028 153 870.811 149.966 870.75 144.774C870.643 138.278 870.704 131.775 870.704 125.272Z" fill="black"/>
<path d="M1020.67 125.516C1020.67 119.005 1020.67 112.487 1020.67 105.976C1020.67 104.718 1020.41 104.284 1019.09 104.352C1016.8 104.467 1014.57 104.421 1012.32 104.352C1007.89 104.269 1005.18 101.303 1005.15 96.637C1005.15 91.8111 1007.78 88.7997 1012.26 88.6625C1014.38 88.6015 1016.53 88.5558 1018.65 88.6625C1020.18 88.754 1020.75 88.449 1020.69 86.7337C1020.54 82.3576 1020.69 77.9738 1020.64 73.5901C1020.64 70.0984 1021.69 67.0946 1025.08 65.6994C1028.75 64.1746 1032.51 64.228 1035.79 66.8125C1037.83 68.4288 1038.44 70.8226 1038.44 73.3538C1038.44 77.9738 1038.44 82.6015 1038.44 87.2292C1038.44 88.3347 1038.7 88.7006 1039.86 88.6625C1042.47 88.571 1045.1 88.6091 1047.72 88.6625C1052.44 88.7082 1055.34 91.7578 1055.34 96.5837C1055.34 101.41 1052.46 104.33 1047.81 104.368C1045.44 104.368 1043.05 104.482 1040.68 104.33C1038.98 104.215 1038.44 104.612 1038.46 106.449C1038.56 118.922 1038.51 131.402 1038.51 143.882C1038.51 151.506 1031.55 155.691 1024.78 152.108C1021.84 150.583 1020.73 147.885 1020.73 144.675C1020.69 138.296 1020.67 131.91 1020.67 125.516Z" fill="black"/>
<path d="M910.135 119.645C910.135 111.739 910.082 103.833 910.135 95.9275C910.196 89.4929 914.9 87.4574 919.451 87.5793C924.895 87.7318 928.036 90.9415 928.059 96.545C928.097 107.257 928.059 117.968 928.059 128.672C928.059 133.727 928.059 138.774 928.059 143.828C928.059 151.452 921.197 155.63 914.336 152.169C913.079 151.588 912.019 150.653 911.285 149.479C910.551 148.305 910.175 146.943 910.204 145.559C910.112 136.921 910.204 128.283 910.204 119.638L910.135 119.645Z" fill="#010101"/>
<path d="M407.136 120.384C407.136 128.298 407.136 136.204 407.136 144.118C407.136 147.487 406.297 150.514 403.065 152.069C401.409 152.939 399.55 153.348 397.682 153.254C395.814 153.16 394.005 152.567 392.445 151.536C390.028 150.011 389.22 147.449 389.22 144.735C389.174 128.471 389.174 112.227 389.22 96.0034C389.22 90.6666 392.788 87.518 398.368 87.579C403.949 87.64 407.121 90.7581 407.151 96.1101C407.166 104.207 407.136 112.296 407.136 120.384Z" fill="#010101"/>
<path d="M1126.79 120.393C1126.79 112.484 1126.79 104.576 1126.79 96.6673C1126.79 93.3052 1127.61 90.3014 1130.85 88.708C1132.48 87.8428 1134.3 87.4224 1136.14 87.4893C1137.98 87.5563 1139.77 88.1082 1141.33 89.0892C1143.78 90.6139 1144.69 93.0917 1144.71 95.8058C1144.75 112.228 1144.78 128.657 1144.71 145.086C1144.71 150.149 1141.21 153.122 1135.84 153.152C1130.46 153.183 1126.91 150.171 1126.84 145.033C1126.71 136.822 1126.79 128.611 1126.79 120.393Z" fill="#010101"/>
<path d="M351.192 219.487C357.062 210.064 363.04 200.709 368.727 191.195C370.252 188.648 371.982 187.589 374.864 187.802C377.372 187.993 377.388 187.848 377.098 190.257C375.38 204.432 373.657 218.618 371.929 232.813C371.815 233.82 371.479 234.102 370.473 234.117C365.899 234.186 365.967 234.231 366.569 229.543C367.835 219.591 369.073 209.639 370.282 199.688C370.272 199.534 370.239 199.382 370.183 199.238C369.421 199.497 369.215 200.229 368.872 200.763C363.789 208.966 358.707 217.177 353.624 225.395C353.037 226.341 352.45 227.248 351.23 227.454C349.019 227.827 348.181 227.347 347.334 225.167C343.927 216.285 340.526 207.403 336.981 198.14C336.539 201.693 336.143 204.872 335.754 208.051C334.737 216.32 333.738 224.587 332.758 232.851C332.712 233.256 332.826 233.896 332.308 233.926C330.607 234.045 328.9 234.045 327.2 233.926C326.605 233.865 326.948 232.981 327.009 232.501C327.596 227.484 328.221 222.483 328.847 217.474C330.021 208.066 331.233 198.658 332.346 189.266C332.491 188.061 332.872 187.787 334 187.794C340.099 187.794 338.88 187.558 340.747 192.369C344.224 201.289 347.54 210.277 350.94 219.235C350.971 219.35 351.108 219.411 351.192 219.487ZM370.328 198.902L370.45 198.78C370.383 198.735 370.311 198.697 370.236 198.666C370.236 198.666 370.16 198.735 370.122 198.773L370.328 198.902Z" fill="#030303"/>
<path d="M463.918 221.789C461.768 222.821 459.375 223.238 457.003 222.994C451.46 222.3 448.235 217.413 449.288 211.436C450.957 201.998 460.251 199.238 466.655 201.662C468.399 202.323 470.256 202.636 472.121 202.585C473.215 202.52 474.313 202.52 475.407 202.585C476.07 202.661 477.206 201.975 477.328 203.156C477.45 204.338 477.381 205.695 475.925 206.206C474.683 206.656 472.792 206.252 472.22 207.273C471.747 208.12 472.601 209.69 472.517 210.986C472.351 213.052 471.701 215.05 470.619 216.818C469.91 218.023 469.171 219.205 468.515 220.44C467.92 221.439 467.631 222.591 467.681 223.752C467.731 224.914 468.119 226.036 468.797 226.981C469.102 227.431 469.361 227.919 469.681 228.361C473.943 234.155 471.054 240.216 466.685 242.846C463.97 244.572 460.861 245.58 457.65 245.775C454.439 245.969 451.231 245.345 448.327 243.959C442.678 241.428 442.167 234.651 447.183 230.961C450.347 228.674 454.045 227.987 457.857 227.812C459.427 227.743 461.013 227.896 462.599 227.965C463.026 227.965 463.62 228.094 463.361 227.416C462.721 225.571 463.476 223.802 463.918 221.789ZM466.777 211.878C466.777 208.066 465.847 206.381 463.727 205.573C462.515 205.147 461.201 205.1 459.962 205.439C458.722 205.778 457.616 206.487 456.789 207.472C455.326 209.291 454.615 211.601 454.8 213.929C454.868 216.003 455.562 217.802 457.552 218.694C458.495 219.144 459.545 219.32 460.583 219.202C461.622 219.083 462.605 218.675 463.422 218.023C464.408 217.309 465.221 216.383 465.8 215.313C466.38 214.243 466.711 213.056 466.769 211.84L466.777 211.878ZM460.373 231.517C457.01 231.517 454.144 231.731 451.674 233.408C448.784 235.367 449.059 239.271 452.276 240.529C454.098 241.324 456.096 241.634 458.074 241.426C460.051 241.219 461.941 240.503 463.559 239.347C464.535 238.698 465.288 237.765 465.717 236.674C466.145 235.583 466.227 234.387 465.953 233.248C465.824 232.485 465.572 231.906 464.611 231.86C463.033 231.776 461.478 231.38 460.373 231.479V231.517Z" fill="#040404"/>
<path d="M958.325 221.706C955.223 223.147 952.356 223.474 949.444 222.59C945.09 221.263 942.689 216.491 943.642 211.33C944.014 209.369 944.834 207.521 946.038 205.93C947.241 204.339 948.796 203.046 950.581 202.154C952.365 201.262 954.332 200.795 956.327 200.787C958.323 200.78 960.293 201.233 962.084 202.112C962.732 202.444 963.453 202.607 964.181 202.585C966.071 202.585 967.992 202.516 969.845 202.585C970.463 202.623 971.614 201.906 971.667 203.225C971.713 204.407 971.667 205.779 970.188 206.229C968.968 206.595 967.314 206.473 966.613 207.243C966.079 207.83 966.887 209.53 966.849 210.682C966.73 213.061 965.969 215.364 964.646 217.345C963.975 218.427 963.289 219.51 962.732 220.646C962.212 221.587 961.959 222.653 962 223.728C962.042 224.803 962.377 225.846 962.968 226.745C963.487 227.561 964.028 228.369 964.493 229.208C965.734 231.145 966.235 233.464 965.904 235.741C965.574 238.018 964.434 240.099 962.694 241.604C957.738 246.178 947.339 247.146 941.606 243.517C937.032 240.636 936.834 234.582 941.195 231.205C944.244 228.834 947.896 228.155 951.639 227.881C953.281 227.809 954.926 227.839 956.564 227.972C957.411 228.026 958.02 228.201 957.609 226.958C957.09 225.274 957.792 223.665 958.325 221.706ZM961.146 210.781C961.146 208.844 960.78 206.801 958.592 205.772C957.554 205.232 956.377 205.02 955.216 205.163C954.056 205.306 952.965 205.797 952.089 206.572C949.512 208.715 948.796 211.612 949.276 214.791C949.81 218.328 952.76 219.99 956.137 218.816C959.073 217.825 961.047 214.715 961.146 210.781V210.781ZM950.938 241.368C953.136 241.43 955.309 240.886 957.22 239.797C958.344 239.177 959.244 238.219 959.791 237.058C960.339 235.897 960.506 234.593 960.27 233.332C960.125 232.631 960.01 231.96 958.996 231.853C956.646 231.52 954.268 231.423 951.899 231.563C949.823 231.632 947.801 232.236 946.028 233.317C945.368 233.7 944.828 234.26 944.469 234.934C944.109 235.607 943.944 236.367 943.993 237.129C944.051 237.893 944.331 238.624 944.8 239.231C945.269 239.838 945.905 240.295 946.63 240.544C948.001 241.089 949.463 241.368 950.938 241.368Z" fill="#040404"/>
<path d="M707.683 231.343C707.15 235.597 706.608 239.622 706.158 243.648C706.044 244.669 705.838 245.172 704.672 245.051C703.147 244.898 701.188 245.485 700.265 244.723C699.457 244.059 700.349 242.009 700.524 240.583C702.049 228.087 703.612 215.607 704.992 203.096C705.274 200.588 706.814 201.267 708.164 201.267C709.688 201.267 710.573 201.983 710.451 203.645C710.313 205.452 710.199 207.259 710.047 209.47C711.237 207.743 712.576 206.123 714.049 204.629C716.336 202.509 718.921 200.977 722.138 200.885C723.886 200.748 725.63 201.199 727.092 202.166C728.555 203.132 729.653 204.56 730.212 206.222C733.399 214.349 729.495 227.173 722.313 232.143C717.548 235.498 712.654 235.277 707.683 231.343ZM725.111 213.709C725.104 212.516 724.982 211.326 724.745 210.156C723.67 205.963 720.27 204.636 716.679 207.061C715.02 208.297 713.603 209.83 712.501 211.582C709.673 215.607 708.911 220.212 708.4 224.969C708.252 225.67 708.341 226.399 708.653 227.044C708.965 227.688 709.482 228.211 710.123 228.53C713.706 230.741 718.036 229.833 720.956 226.136C723.876 222.438 724.951 218.329 725.127 213.709H725.111Z" fill="#040404"/>
<path d="M1216.61 207.717C1219.27 203.097 1225.06 200.093 1229.58 201.038C1232.93 201.724 1234.97 204.088 1235.54 207.755C1236.06 211.064 1235.42 214.304 1235.07 217.559C1234.53 222.507 1233.87 227.47 1233.33 232.403C1233.2 233.645 1232.88 234.263 1231.47 234.095C1230.05 233.927 1228.06 234.53 1227.26 233.79C1226.46 233.051 1227.26 231.084 1227.46 229.658C1228.1 223.986 1228.75 218.311 1229.42 212.634C1229.56 211.551 1229.56 210.454 1229.42 209.371C1228.99 206.733 1227.18 205.513 1224.55 206.123C1222.88 206.52 1221.37 207.401 1220.2 208.654C1217.15 211.788 1215.13 215.394 1214.72 219.854C1214.3 224.314 1213.69 228.545 1213.24 232.891C1213.13 233.844 1212.77 234.149 1211.87 234.08C1210.96 234.011 1210.04 234.08 1209.12 234.08C1206.83 234.08 1206.83 234.08 1207.09 231.884C1208.89 217.231 1210.67 202.576 1212.43 187.917C1212.56 186.782 1212.91 186.492 1213.95 186.568C1215.11 186.667 1216.27 186.667 1217.42 186.568C1218.69 186.446 1218.78 186.972 1218.64 188.032C1217.83 194.238 1217.12 200.451 1216.36 206.665C1216.31 207.061 1216.09 207.518 1216.66 207.747C1216.55 207.656 1216.66 207.259 1216.33 207.465L1216.61 207.717Z" fill="#030303"/>
<path d="M1031.7 207.724C1032.81 206.308 1034.06 205.001 1035.42 203.821C1037.58 202.012 1040.29 200.979 1043.11 200.886C1047.14 200.825 1049.89 203.104 1050.78 207.031C1051.67 210.957 1050.68 214.776 1050.31 218.627C1049.83 223.338 1049.14 228.034 1048.62 232.746C1048.52 233.706 1048.34 234.164 1047.26 234.08C1046 233.982 1044.72 233.982 1043.45 234.08C1042.32 234.172 1042.32 233.638 1042.42 232.799C1043.18 226.342 1043.94 219.884 1044.76 213.435C1045.02 211.994 1045.02 210.522 1044.76 209.081C1044.2 206.619 1042.48 205.574 1040.01 206.108C1038.34 206.497 1036.82 207.363 1035.63 208.601C1032.2 211.938 1030.16 216.452 1029.92 221.234C1029.64 225.168 1028.97 229.071 1028.56 233.005C1028.46 233.889 1028.18 234.179 1027.34 234.057C1027.04 234.038 1026.74 234.038 1026.44 234.057C1022.13 234.057 1022.18 234.057 1022.7 229.872C1024.42 215.935 1026.1 202.001 1027.76 188.07C1027.88 186.995 1028.11 186.347 1029.38 186.545C1030.11 186.599 1030.84 186.599 1031.57 186.545C1034.25 186.545 1034.21 186.545 1033.86 189.29C1033.16 194.779 1032.5 200.268 1031.83 205.75C1031.7 206.283 1031.7 206.81 1031.7 207.724Z" fill="#030303"/>
<path d="M1132.96 207.291C1134.41 206.132 1135.46 204.805 1136.82 203.769C1138.99 201.973 1141.7 200.958 1144.52 200.887C1148.47 200.887 1151.2 203.098 1152.09 206.925C1152.77 209.845 1152.35 212.742 1152.01 215.631C1151.35 221.303 1150.6 226.968 1149.97 232.64C1149.85 233.662 1149.69 234.089 1148.52 234.096C1143.42 234.15 1143.48 234.203 1144.16 229.103C1144.93 223.629 1145.51 218.132 1146.17 212.643C1146.23 212.098 1146.25 211.551 1146.24 211.004C1146.24 206.467 1143.27 204.561 1139.38 206.856C1137.29 208.067 1135.51 209.74 1134.17 211.748C1132.83 213.756 1131.97 216.044 1131.65 218.437C1130.89 223.232 1130.4 228.073 1129.87 232.922C1129.77 233.852 1129.5 234.157 1128.57 234.096C1126.94 233.989 1125.3 233.982 1123.67 233.936C1123.84 232.327 1123.98 230.711 1124.18 229.095C1125.55 217.639 1126.93 206.178 1128.31 194.711C1128.59 192.424 1128.87 190.137 1129.08 187.85C1129.16 187.004 1129.37 186.523 1130.38 186.592C1131.96 186.691 1134.02 186.051 1135 186.828C1135.98 187.606 1135 189.725 1134.86 191.235C1134.29 196.572 1133.61 201.931 1132.96 207.291Z" fill="#030303"/>
<path d="M744.781 207.777C745.925 206.565 746.817 205.49 747.831 204.567C749.67 202.772 751.999 201.56 754.525 201.083C759.861 200.1 763.757 203.012 764.23 208.456C764.527 211.886 763.917 215.248 763.513 218.626C762.957 223.33 762.37 228.034 761.866 232.745C761.752 233.813 761.394 234.186 760.296 234.087C759.026 234.008 757.753 234.008 756.484 234.087C755.63 234.087 755.531 233.82 755.63 233.02C756.438 226.692 757.201 220.359 757.917 214.021C758.09 212.574 758.126 211.114 758.024 209.66C757.818 206.839 755.821 205.482 753.061 206.153C751.002 206.752 749.179 207.972 747.838 209.645C744.598 213.243 743.325 217.558 743.005 222.308C742.769 225.754 742.242 229.17 741.861 232.631C741.747 233.729 741.381 234.217 740.176 234.102C738.652 233.95 736.608 234.56 735.785 233.79C734.962 233.02 735.854 230.969 736.029 229.482C737.65 215.851 739.274 202.217 740.901 188.58C741.068 187.116 741.48 186.202 743.188 186.583C743.249 186.59 743.31 186.59 743.371 186.583C747.518 186.583 747.465 186.583 746.908 190.783C746.131 196.349 745.49 201.937 744.781 207.777Z" fill="#030303"/>
<path d="M534.759 186.569C533.898 193.675 533.059 200.605 532.182 207.779C533.25 206.635 534.111 205.637 535.057 204.729C536.916 202.863 539.293 201.599 541.88 201.1C547.354 200.094 551.212 203.045 551.631 208.61C551.89 211.98 551.311 215.281 550.922 218.597C550.373 223.248 549.809 227.891 549.306 232.541C549.184 233.7 548.825 234.249 547.545 234.066C546.02 233.875 543.923 234.684 543.176 233.753C542.429 232.823 543.321 230.91 543.489 229.415C544.144 223.56 544.838 217.705 545.44 211.842C545.646 209.837 545.753 207.657 543.672 206.506C541.59 205.355 539.471 206.109 537.71 207.436C535.851 208.766 534.283 210.461 533.103 212.418C531.924 214.376 531.156 216.554 530.848 218.818C530.231 223.332 529.743 227.868 529.27 232.404C529.148 233.631 528.851 234.279 527.418 234.104C525.984 233.929 524.01 234.539 523.202 233.792C522.393 233.044 523.202 231.085 523.407 229.667C525.031 216.028 526.678 202.396 528.264 188.757C528.447 187.134 528.851 186.249 530.742 186.539C532.078 186.652 533.421 186.662 534.759 186.569V186.569Z" fill="#030303"/>
<path d="M849.738 207.946C852.224 204.812 854.641 202.495 858.048 201.435C864.292 199.483 868.92 202.655 869.24 209.173C869.461 213.694 868.425 218.116 868.02 222.591C867.693 226.098 867.136 229.582 866.755 233.082C866.671 233.844 866.45 234.118 865.665 234.08C863.972 233.981 862.28 233.974 860.58 233.935C860.747 232.319 860.892 230.711 861.075 229.102C861.7 223.765 862.348 218.482 862.966 213.168C863.048 212.381 863.082 211.589 863.065 210.797C863.004 206.406 860.015 204.606 856.203 206.871C854.066 208.117 852.248 209.844 850.894 211.915C849.54 213.986 848.687 216.344 848.404 218.802C847.741 223.376 847.261 227.951 846.773 232.525C846.651 233.73 846.231 234.187 844.996 234.05C843.778 233.966 842.555 233.966 841.337 234.05C840.498 234.088 840.384 233.798 840.483 232.99C842.297 218.093 844.076 203.191 845.82 188.284C845.972 187.034 846.308 186.325 847.787 186.515C849.266 186.706 850.699 186.629 852.155 186.675C852.003 188.101 851.865 189.527 851.698 190.952C851.103 196.464 850.447 201.953 849.738 207.946Z" fill="#030303"/>
<path d="M400.175 226.859C398.769 228.595 397.24 230.228 395.601 231.746C389.151 237.151 381.717 234.506 380.208 226.264C378.203 215.294 385.811 203.766 396.683 201.342C400.34 200.584 404.13 200.775 407.692 201.899C408.736 202.203 408.95 202.707 408.82 203.728C407.585 213.441 406.386 223.156 405.222 232.874C405.107 233.812 404.787 234.186 403.865 234.071C403.499 234.048 403.133 234.048 402.767 234.071C400.022 234.071 399.588 233.599 399.794 230.831C399.916 229.505 400.053 228.186 400.175 226.859ZM386.216 221.774C386.183 222.868 386.272 223.963 386.482 225.037C387.512 229.482 391.133 230.74 394.663 227.82C396.282 226.342 397.627 224.589 398.635 222.643C401.57 217.634 401.623 211.97 402.378 206.48C402.477 205.718 402.21 205.512 401.509 205.527C400.054 205.433 398.593 205.531 397.163 205.817C390.836 207.563 386.216 214.264 386.216 221.774V221.774Z" fill="#040404"/>
<path d="M1076.28 226.325C1075.13 228.121 1073.78 229.781 1072.26 231.273C1070.57 232.964 1068.38 234.063 1066.01 234.407C1060.8 235.001 1057.21 231.906 1056.28 226.066C1054.52 215.095 1061.91 203.957 1072.65 201.388C1076.35 200.567 1080.21 200.746 1083.83 201.906C1084.8 202.196 1085.07 202.623 1084.94 203.713C1083.71 213.235 1082.5 222.773 1081.47 232.302C1081.17 235.077 1079.32 233.827 1078.02 234.025C1076.59 234.208 1075.86 233.408 1075.93 231.959C1076.02 230.198 1076.15 228.437 1076.28 226.325ZM1062.28 222.513C1062.35 223.359 1062.45 224.201 1062.6 225.037C1063.56 229.443 1067.12 230.701 1070.65 227.903C1071.9 226.843 1072.98 225.589 1073.84 224.191C1076.83 219.677 1077.77 214.569 1078.1 209.332C1078.18 208.104 1079.47 206.458 1077.94 205.665C1076.8 205.07 1075.18 205.413 1073.8 205.665C1073.62 205.703 1073.45 205.779 1073.27 205.832C1066.77 207.593 1061.73 215.225 1062.28 222.521V222.513Z" fill="#040404"/>
<path d="M789.511 226.853C788.184 228.301 787.101 229.803 785.699 231.076C783.988 232.831 781.764 233.997 779.348 234.408C774.621 235.041 771.03 232.639 769.887 227.615C768.042 219.496 770.405 212.413 776.275 206.665C782.016 201.031 788.985 199.735 796.692 201.801C798.08 202.174 798.301 202.799 798.133 204.088C796.903 213.602 795.721 223.12 794.588 232.639C794.466 233.684 794.253 234.24 793.063 234.065C792.576 234.031 792.087 234.031 791.599 234.065C789.488 234.065 788.954 233.455 789.091 231.267C789.259 229.765 789.389 228.324 789.511 226.853ZM789.259 205.506C788.348 205.493 787.438 205.596 786.552 205.811C779.096 207.854 774.019 217.048 775.879 225.191C776.84 229.369 780.27 230.642 783.724 228.05C786.08 226.281 787.384 223.742 788.718 221.188C790.883 217.079 791.005 212.535 791.546 208.113C791.935 205.17 792.415 205.597 789.259 205.506Z" fill="#040404"/>
<path d="M894.514 226.243C893.394 228.069 892.049 229.746 890.511 231.237C888.782 232.974 886.529 234.094 884.1 234.424C878.847 234.95 875.386 231.839 874.448 225.771C872.786 215.051 880.196 203.974 890.771 201.42C894.529 200.576 898.444 200.747 902.115 201.915C902.305 201.939 902.488 202.004 902.651 202.106C902.813 202.209 902.951 202.345 903.054 202.507C903.158 202.669 903.224 202.851 903.249 203.042C903.274 203.232 903.256 203.425 903.197 203.608C901.952 213.311 900.75 223.016 899.591 232.724C899.462 233.821 899.088 234.248 898.013 234.073C897.465 234.027 896.915 234.027 896.367 234.073C894.727 234.142 894.011 233.311 894.079 231.732C894.148 230.154 894.354 228.393 894.514 226.243ZM880.501 221.669C880.475 223.01 880.626 224.348 880.951 225.649C881.919 229.178 885.121 230.398 888.201 228.393C889.639 227.366 890.866 226.072 891.815 224.581C895.627 219.1 895.993 212.68 896.725 206.36C896.824 205.491 896.283 205.552 895.734 205.506C892.749 205.167 889.747 205.986 887.348 207.793C882.743 211.316 880.745 216.042 880.501 221.692V221.669Z" fill="#040404"/>
<path d="M1260.91 226.913C1259.32 228.674 1257.98 230.458 1256.22 231.868C1254.6 233.272 1252.61 234.164 1250.49 234.43C1245.77 234.887 1242.44 232.562 1241.34 227.485C1239.5 219.274 1241.97 212.184 1247.96 206.45C1253.67 200.984 1260.54 199.78 1268.11 201.785C1269.52 202.158 1269.74 202.806 1269.58 204.072C1268.36 213.647 1267.17 223.231 1266.01 232.821C1265.89 233.858 1265.53 234.178 1264.56 234.064C1264.02 234.003 1263.46 234.064 1262.91 234.064C1261.06 234.018 1260.41 233.302 1260.55 231.457C1260.63 229.932 1260.78 228.422 1260.91 226.913ZM1246.89 222.224C1246.96 222.788 1247.05 223.635 1247.17 224.473C1247.47 226.547 1248.14 228.453 1250.35 229.154C1252.56 229.856 1254.38 228.826 1255.96 227.347C1257.65 225.599 1259.03 223.575 1260.04 221.363C1262.52 216.628 1262.33 211.368 1263.19 206.306C1263.35 205.322 1262.59 205.589 1262.14 205.543C1260.47 205.348 1258.78 205.516 1257.18 206.034C1255.58 206.553 1254.11 207.41 1252.87 208.547C1248.85 212.084 1247.06 216.651 1246.89 222.224Z" fill="#040404"/>
<path d="M577.986 227.249C576.713 228.461 575.699 229.704 574.487 230.824C572.674 232.56 570.419 233.765 567.969 234.309C562.815 235.414 558.881 232.631 558.18 227.447C557.608 223.155 558.675 218.969 559.056 214.746C559.407 210.812 560.025 206.901 560.398 202.967C560.52 201.717 560.917 201.213 562.175 201.381C562.784 201.419 563.395 201.419 564.004 201.381C566.909 201.381 566.863 201.381 566.497 204.354C565.735 210.568 565.026 216.789 564.309 223.01C564.247 223.615 564.227 224.224 564.248 224.832C564.363 228.888 567.046 230.649 570.652 228.705C575.661 226.006 578.276 221.516 578.978 215.958C579.565 211.551 580.068 207.145 580.502 202.731C580.617 201.602 581.074 201.282 582.126 201.374C583.651 201.511 585.603 200.748 586.54 201.671C587.478 202.593 586.54 204.438 586.335 205.872C585.283 214.929 584.147 223.978 583.102 233.035C582.995 233.95 582.66 234.148 581.859 234.095C581.189 234.049 580.518 234.095 579.847 234.095C578.322 234.095 577.56 233.333 577.643 231.808C577.727 230.283 577.872 228.758 577.986 227.249Z" fill="#030303"/>
<path d="M997.009 208.541C998.368 206.467 1000.09 204.659 1002.1 203.204C1004.72 201.458 1007.54 200.437 1010.72 201.039C1014.15 201.695 1016.18 204.089 1016.71 207.9C1017.3 212.193 1016.24 216.378 1015.87 220.602C1015.52 224.597 1014.91 228.569 1014.5 232.556C1014.38 233.677 1014.06 234.172 1012.84 234.081C1011.32 233.936 1009.38 234.531 1008.43 233.776C1007.48 233.021 1008.48 231.077 1008.64 229.659C1009.26 223.979 1009.92 218.307 1010.56 212.627C1010.66 211.844 1010.69 211.053 1010.65 210.264C1010.46 206.681 1008.16 205.194 1004.77 206.452C1002.84 207.249 1001.16 208.569 999.937 210.264C997.352 213.444 995.813 217.345 995.53 221.433C995.263 225.123 994.707 228.797 994.371 232.487C994.272 233.661 993.998 234.256 992.671 234.127C991.147 233.974 989.187 234.561 988.265 233.799C987.502 233.135 988.349 231.092 988.516 229.659C989.599 220.609 990.704 211.56 991.756 202.503C991.863 201.603 992.092 201.169 993.053 201.268C993.716 201.336 994.402 201.268 995.065 201.313C996.338 201.428 997.063 202.076 997.025 203.433C996.971 205.026 997.009 206.665 997.009 208.541Z" fill="#030303"/>
<path d="M1098.37 208.525C1099.67 206.586 1101.28 204.867 1103.12 203.433C1104.75 202.249 1106.62 201.435 1108.59 201.046C1113.6 200.109 1117.36 202.83 1118.08 207.908C1118.56 211.278 1117.91 214.579 1117.55 217.895C1117.03 222.729 1116.38 227.547 1115.88 232.38C1115.75 233.6 1115.5 234.256 1114.07 234.111C1112.54 234.034 1111.01 234.034 1109.49 234.111C1109.98 229.865 1110.48 225.725 1110.92 221.6C1111.31 218.04 1112.01 214.502 1112.02 210.927C1112.02 206.574 1109.2 204.828 1105.37 206.901C1100.75 209.44 1098.25 213.71 1097.33 218.711C1096.48 223.285 1096.2 227.997 1095.74 232.655C1095.62 233.768 1095.3 234.263 1094.08 234.18C1092.56 234.035 1090.52 234.652 1089.68 233.882C1088.85 233.112 1089.74 231.054 1089.91 229.575C1090.98 220.518 1092.1 211.468 1093.15 202.411C1093.25 201.527 1093.57 201.26 1094.39 201.328C1095 201.374 1095.61 201.328 1096.22 201.328C1097.66 201.397 1098.5 202.037 1098.4 203.616C1098.29 205.194 1098.37 206.688 1098.37 208.525Z" fill="#030303"/>
<path d="M916.34 208.32C918.063 206.521 919.565 204.645 921.585 203.265C923.186 202.151 925.005 201.39 926.922 201.032C931.809 200.17 935.362 202.739 936.246 207.642C936.902 211.271 936.048 214.785 935.697 218.315C935.232 223.087 934.546 227.845 934.043 232.617C933.936 233.654 933.746 234.18 932.571 234.058C931.047 233.898 928.958 234.699 927.997 233.761C927.037 232.823 928.073 230.902 928.226 229.415C928.813 223.857 929.514 218.307 930.178 212.757C930.384 211.433 930.329 210.081 930.017 208.777C929.828 207.873 929.29 207.081 928.518 206.572C927.747 206.064 926.806 205.881 925.901 206.063C924.501 206.234 923.179 206.8 922.089 207.695C918.369 210.625 915.956 214.904 915.372 219.603C914.793 224.063 914.335 228.539 913.847 233.006C913.771 233.769 913.55 234.15 912.757 234.043H912.574C910.943 233.944 908.762 234.722 907.824 233.738C906.887 232.755 907.908 230.749 908.084 229.164C909.113 220.229 910.234 211.309 911.278 202.373C911.385 201.428 911.713 201.085 912.635 201.169C913.237 201.23 913.855 201.169 914.457 201.169C915.936 201.245 916.699 201.992 916.607 203.509C916.516 205.027 916.439 206.742 916.34 208.32Z" fill="#030303"/>
<path d="M421.995 208.351C424.336 205.522 426.73 203.06 430.069 201.718C436.74 199.05 442.031 202.572 442.145 209.746C442.206 213.718 441.383 217.606 441.009 221.54C440.651 225.352 440.079 229.164 439.675 232.976C439.583 233.807 439.378 234.165 438.493 234.112C437.461 234.02 436.423 234.02 435.39 234.112C433.736 234.302 433.271 233.86 433.515 232.076C434.422 225.581 435.124 219.047 435.901 212.529C435.946 212.167 435.963 211.803 435.955 211.438C435.955 209.586 435.955 207.626 434.102 206.597C432.249 205.568 430.29 206.079 428.59 207.207C426.56 208.565 424.841 210.339 423.549 212.412C422.257 214.485 421.421 216.809 421.096 219.23C420.402 223.728 419.99 228.28 419.571 232.816C419.479 233.837 419.19 234.203 418.183 234.104C416.559 233.944 414.371 234.798 413.487 233.738C412.778 232.877 413.617 230.734 413.807 229.164C414.852 220.473 416.018 211.797 416.857 203.09C417.085 200.742 418.381 201.306 419.693 201.268C421.218 201.23 422.369 201.771 422.315 203.555C422.285 205.118 422.11 206.734 421.995 208.351Z" fill="#030303"/>
<path d="M1181.35 208.418C1183.18 206.405 1184.87 204.369 1187.16 202.913C1189.33 201.418 1191.95 200.703 1194.59 200.885C1198.66 201.244 1201.27 204.316 1201.45 208.944C1201.63 213.571 1200.69 218.092 1200.22 222.728C1199.9 226.052 1199.38 229.36 1199.06 232.692C1198.96 233.736 1198.7 234.217 1197.53 234.072C1196.01 233.897 1193.78 234.712 1193 233.752C1192.21 232.791 1193.1 230.794 1193.28 229.246C1193.9 223.81 1194.55 218.374 1195.18 212.939C1195.25 212.395 1195.28 211.847 1195.28 211.299C1195.28 209.454 1195.28 207.487 1193.38 206.496C1191.48 205.505 1189.5 206.039 1187.87 207.205C1183.18 210.537 1180.77 215.18 1180.25 220.875C1179.86 224.862 1179.32 228.842 1178.9 232.829C1178.81 233.668 1178.69 234.156 1177.66 234.072C1176.03 233.935 1173.78 234.583 1172.92 233.744C1172.06 232.905 1173.01 230.695 1173.21 229.101C1174.23 220.461 1175.24 211.82 1176.26 203.18C1176.51 201.068 1176.53 201.053 1179.31 201.198C1180.92 201.282 1181.85 201.96 1181.71 203.676C1181.61 205.284 1181.48 206.893 1181.35 208.418Z" fill="#030303"/>
<path d="M660.957 208.997C662.137 207.238 663.522 205.626 665.082 204.194C666.509 202.959 668.167 202.021 669.961 201.434C676.144 199.459 680.855 202.722 681.153 209.203C681.298 212.206 680.764 215.142 680.39 218.1C679.819 223.048 679.193 228.011 678.645 232.943C678.553 233.706 678.462 234.148 677.509 234.087C676.11 234.003 674.707 234.003 673.308 234.087C672.446 234.125 672.324 233.805 672.416 233.035C673.199 226.646 673.961 220.25 674.703 213.846C674.876 212.521 674.934 211.185 674.878 209.851C674.711 206.992 672.805 205.635 670.007 206.214C667.209 206.794 665.364 208.753 663.686 210.865C660.721 214.608 659.875 219.045 659.547 223.65C659.303 226.699 658.822 229.81 658.525 232.89C658.441 233.774 658.243 234.163 657.267 234.087C655.636 233.973 653.997 233.988 652.357 233.95C652.51 232.341 652.64 230.725 652.83 229.124C653.844 220.494 654.972 211.871 655.834 203.203C656.047 201.076 657.107 201.159 658.563 201.22C660.637 201.297 661.331 201.8 661.3 203.508C661.27 205.215 661.11 206.816 660.957 208.997Z" fill="#030303"/>
<path d="M633.907 234.492C626.756 234.584 621.953 230.2 621.457 223.003C620.961 215.806 622.982 209.357 628.601 204.546C632.923 200.856 637.978 199.758 643.414 201.939C644.723 202.39 645.869 203.22 646.706 204.324C647.544 205.427 648.035 206.754 648.118 208.137C648.283 209.571 648.03 211.022 647.388 212.315C646.747 213.609 645.745 214.689 644.504 215.425C640.372 218.017 635.668 218.726 630.979 219.443C630.613 219.496 630.217 219.512 629.889 219.557C627.091 219.961 627.091 219.961 627.426 222.744C628.105 228.462 632.557 231.062 638.214 229.079C639.901 228.382 641.47 227.428 642.865 226.251C644.557 224.985 646.54 225.695 647.18 227.715C647.371 228.309 646.913 228.477 646.662 228.721C645.06 230.524 643.096 231.97 640.898 232.965C638.701 233.959 636.319 234.479 633.907 234.492V234.492ZM628.006 215.692C630.754 215.438 633.475 214.951 636.141 214.236C637.869 213.859 639.503 213.135 640.944 212.109C641.567 211.665 642.042 211.043 642.307 210.325C642.572 209.607 642.615 208.826 642.43 208.083C642.064 206.437 640.784 205.796 639.259 205.514C638.054 205.305 636.818 205.379 635.647 205.73C634.476 206.08 633.403 206.698 632.512 207.534C630.095 209.654 628.806 212.421 628.006 215.692V215.692Z" fill="#040404"/>
<path d="M621.694 201.359C615.549 213.138 609.58 224.596 603.61 236.047C602.406 238.334 601.133 240.622 600.02 242.993C599.777 243.684 599.299 244.269 598.669 244.643C598.039 245.018 597.297 245.16 596.574 245.043C595.445 244.937 594.287 245.043 592.937 245.043C595.118 241.033 597.176 237.206 599.303 233.409C599.573 232.981 599.745 232.5 599.808 231.998C599.871 231.496 599.824 230.986 599.669 230.505C597.092 221.356 594.637 212.131 592.045 202.967C591.641 201.519 592.045 201.328 593.318 201.366C598.48 201.519 597.893 200.49 599.234 206.009C600.759 212.108 602.33 218.207 603.954 224.573L605.73 221.044C608.574 215.341 611.486 209.669 614.23 203.92C615.153 201.991 616.38 201.122 618.492 201.366C619.559 201.418 620.628 201.416 621.694 201.359Z" fill="#030303"/>
<path d="M817.955 206.488C813.662 206.488 813.693 206.488 813.19 210.803C812.633 215.629 811.993 220.455 811.429 225.289C811.268 226.669 811.055 228.186 812.542 229.101C814.028 230.016 815.401 229.52 816.651 228.643C817.901 227.766 818.442 228.132 818.991 229.406C820.059 231.83 820.051 231.967 817.68 233.218C815.405 234.44 812.784 234.865 810.239 234.422C807.19 233.949 805.238 231.51 805.223 228.171C805.223 224.092 806.069 220.082 806.496 216.033C806.778 213.312 807.091 210.59 807.487 207.883C807.64 206.824 807.365 206.404 806.298 206.526C805.993 206.557 805.687 206.557 805.383 206.526C804.399 206.45 803.096 206.77 803.187 205.124C803.241 203.767 803.134 202.448 805.215 202.31C808.425 202.089 808.417 201.952 809.218 198.803C809.744 196.745 810.216 194.671 810.742 192.62C811.116 191.233 814.219 190.173 815.317 191.027C815.759 191.363 815.462 191.789 815.423 192.194C815.103 194.908 814.798 197.629 814.387 200.336C814.204 201.518 814.295 202.097 815.751 201.99C817.688 201.853 819.647 201.99 821.599 201.944C822.514 201.944 822.712 202.166 822.59 203.088C822.201 206.481 822.239 206.488 817.955 206.488Z" fill="#030303"/>
<path d="M1285.69 201.915C1288.16 201.915 1290.6 201.96 1293.03 201.915C1293.97 201.915 1294.13 202.197 1294.05 203.066C1293.74 206.504 1293.77 206.512 1290.31 206.512C1288.9 206.512 1287.5 206.512 1286.1 206.512C1285.33 206.512 1285.03 206.779 1284.94 207.541C1284.24 213.518 1283.47 219.488 1282.78 225.465C1282.63 226.791 1282.51 228.225 1283.91 229.063C1285.3 229.902 1286.71 229.452 1288.03 228.667C1288.79 228.232 1289.67 227.546 1290.06 228.85C1290.39 229.97 1292.29 231.045 1290.34 232.418C1287.82 234.207 1284.7 234.928 1281.66 234.423C1278.5 233.958 1276.38 231.335 1276.63 227.653C1276.92 223.078 1277.61 218.504 1278.15 213.884C1278.4 211.772 1278.63 209.653 1278.92 207.556C1279.05 206.687 1278.75 206.451 1277.97 206.512C1277.67 206.512 1277.36 206.512 1277.06 206.512C1274.04 206.573 1274.51 205.948 1274.71 203.218C1274.78 202.319 1275.64 202.395 1276.11 202.456C1279.27 202.738 1280.43 201.023 1280.79 198.194C1281.09 196.521 1281.49 194.867 1281.98 193.239C1282.11 192.762 1282.34 192.319 1282.65 191.939C1282.97 191.558 1283.36 191.25 1283.8 191.033C1284.25 190.816 1284.73 190.697 1285.22 190.683C1285.72 190.669 1286.21 190.761 1286.66 190.952C1287.29 191.241 1286.91 191.668 1286.86 192.019C1286.51 195.251 1286.11 198.507 1285.69 201.915Z" fill="#030303"/>
<path d="M506.245 234.485C499.444 234.538 495.411 231.306 494.092 225.237C492.225 216.645 496.098 207.069 503.15 202.861C508.258 199.811 514.867 200.269 518.573 203.944C519.335 204.706 520.349 205.362 519.015 206.543C517.94 207.504 517.208 209.326 515.371 207.733C511.986 204.797 507.122 205.445 504.11 208.884C500.184 213.351 499.056 218.68 500.298 224.368C501.266 228.942 505.429 230.764 509.988 229.072C511.456 228.478 512.797 227.609 513.937 226.51C515.089 225.458 516.034 225.389 517.193 226.617C518.352 227.844 518.199 228.53 517.033 229.666C513.792 232.739 510.171 234.683 506.245 234.485Z" fill="#040404"/>
<path d="M398.155 63.7773C404.65 63.7773 408.226 67.3301 408.226 73.7951C408.226 80.1382 404.589 83.8205 398.315 83.8662C392.041 83.912 388.145 80.161 388.099 73.8485C388.053 67.5359 391.751 63.785 398.155 63.7773Z" fill="#020201"/>
<path d="M1135.76 63.7773C1142.18 63.7773 1145.86 67.452 1145.82 73.8485C1145.78 80.2449 1142.08 83.8357 1135.82 83.8662C1129.43 83.8662 1125.75 80.2296 1125.75 73.8103C1125.75 67.3911 1129.24 63.7773 1135.76 63.7773Z" fill="#020201"/>
<path d="M919.047 63.7773C925.542 63.7773 929.08 67.2996 929.072 73.7875C929.065 80.2754 925.375 83.912 919.016 83.8662C912.658 83.8205 909.105 80.1915 909.06 73.8561C909.037 67.3758 912.582 63.785 919.047 63.7773Z" fill="#020201"/>
<path d="M72.1892 79.5759C78.9515 79.5759 85.7063 79.6978 92.3695 81.032C93.414 81.2379 95.1446 81.1693 95.137 82.4882C95.137 83.6013 93.4293 83.6089 92.4153 83.8224C87.569 84.7374 82.6484 85.2019 77.7165 85.2099C69.3302 85.4005 60.944 85.3776 52.5959 83.9748C52.1166 83.8963 51.6429 83.7868 51.1778 83.647C50.3316 83.403 48.9974 83.3878 49.0431 82.3586C49.0889 81.3293 50.4383 81.3141 51.2846 81.1311C56.789 79.9494 62.3849 79.736 67.9808 79.6064C69.3836 79.5073 70.7864 79.5759 72.1892 79.5759Z" fill="#030303"/>
<path d="M57.3681 201.168C64.7327 201.168 72.0974 201.168 79.3629 202.693C80.3769 202.891 81.9855 202.876 81.9703 204.118C81.9703 205.163 80.3845 205.186 79.4163 205.399C74.3963 206.4 69.2872 206.886 64.1685 206.848C55.889 207 47.6019 207.031 39.3986 205.613C38.9793 205.536 38.5676 205.437 38.1635 205.323C37.2487 205.071 35.8078 205.041 35.8764 203.981C35.945 202.921 37.4012 202.906 38.2932 202.723C44.5981 201.412 50.9793 201.214 57.3681 201.168Z" fill="#030303"/>
<path d="M61.4621 108.034C54.6998 108.034 47.945 107.919 41.2818 106.585C40.2221 106.379 38.4686 106.402 38.4914 105.167C38.5143 103.932 40.3059 103.963 41.3656 103.749C46.2181 102.87 51.1405 102.433 56.0721 102.445C64.3439 102.308 72.6311 102.24 80.8343 103.642C81.3748 103.726 81.9096 103.843 82.4354 103.993C83.2664 104.252 84.6082 104.222 84.57 105.274C84.5319 106.326 83.1825 106.318 82.3515 106.501C76.9157 107.698 71.3808 107.897 65.8458 108.064C64.3821 108.072 62.9183 108.034 61.4621 108.034Z" fill="#030303"/>
<path d="M647.379 196.708C645.252 196.098 643.323 197.333 641.92 195.664C640.792 194.314 639.77 192.881 638.466 191.166C637.513 192.107 636.615 193.103 635.775 194.147C634.044 196.586 631.643 196.838 628.7 196.35C631.178 193.56 633.488 190.8 635.981 188.208C637.117 187.026 641.546 187.91 642.461 189.29L647.379 196.708Z" fill="#040404"/>
<path d="M1270.19 196.22C1265.32 198.126 1264.02 194.009 1261.8 191.401C1260.79 192.377 1259.8 193.315 1258.84 194.268C1256.44 196.654 1256.44 196.654 1252.07 196.464C1252.66 195.437 1253.4 194.5 1254.26 193.681C1255.66 192.088 1257.14 190.555 1258.48 188.916C1258.76 188.587 1259.11 188.319 1259.51 188.13C1259.9 187.942 1260.33 187.835 1260.76 187.818C1263.66 187.391 1265.54 188.382 1266.86 191.043C1267.86 192.84 1268.97 194.569 1270.19 196.22V196.22Z" fill="#040404"/>
<path d="M787.185 196.823C789.334 193.682 791.195 190.953 793.078 188.231C793.249 187.983 793.477 187.779 793.741 187.635C794.006 187.49 794.301 187.41 794.603 187.4C796.516 187.4 798.415 187.4 800.831 187.4C797.782 190.534 795.098 193.393 792.285 196.107C791.05 197.327 789.296 196.572 787.185 196.823Z" fill="#040404"/>
<path d="M898.539 196.502C895.283 197.493 893.385 196.121 891.853 193.612C890.572 191.523 888.994 189.61 887.362 187.368C889.497 187.368 891.296 187.368 893.095 187.368C893.494 187.355 893.886 187.465 894.218 187.686C894.55 187.906 894.805 188.224 894.948 188.596C896.137 191.234 897.342 193.864 898.539 196.502Z" fill="#040404"/>
<path d="M648.721 181.094C651.008 181.094 652.724 182.077 653.234 183.77C653.496 184.808 653.42 185.902 653.018 186.894C652.617 187.886 651.91 188.725 651.001 189.289C650.185 189.846 649.156 190.052 648.714 191.18C648.447 191.851 647.478 191.561 646.869 191.462C646.022 191.325 646.48 190.578 646.495 190.12C646.495 188.87 646.815 187.894 648.393 187.62C649.499 187.429 650.444 186.53 649.964 185.211C649.484 183.892 648.241 184.166 647.158 184.448C646.457 184.624 645.847 185.485 645.031 184.669C643.811 183.457 643.964 182.558 645.565 181.841C646.55 181.366 647.627 181.111 648.721 181.094Z" fill="#040404"/>
<path d="M391.91 238.152C392.94 238.181 393.919 238.608 394.643 239.342C395.366 240.076 395.778 241.062 395.792 242.092C395.806 243.123 395.42 244.119 394.717 244.872C394.013 245.626 393.046 246.078 392.017 246.134C391.005 246.109 390.041 245.702 389.317 244.995C388.593 244.288 388.163 243.333 388.113 242.323C388.116 241.28 388.506 240.276 389.208 239.506C389.909 238.735 390.873 238.253 391.91 238.152Z" fill="#040404"/>
<path d="M1280.94 182.954C1278.02 185.53 1275.36 187.886 1272.68 190.219C1272.5 190.428 1272.28 190.594 1272.03 190.704C1271.77 190.814 1271.5 190.866 1271.23 190.855C1270.95 190.844 1270.68 190.771 1270.44 190.641C1270.2 190.511 1269.99 190.328 1269.83 190.105C1268.87 189.106 1269.13 188.321 1270.03 187.513C1270.15 187.382 1270.27 187.245 1270.39 187.101C1274.34 182.534 1274.34 182.534 1280.94 182.954Z" fill="#040404"/>
<path d="M184.519 165.982C180.844 163.42 177.497 161.118 174.181 158.777C170.864 156.437 167.152 157.039 164.864 160.188C162.478 163.474 163.088 167.225 166.435 169.588C172.061 173.552 177.703 177.494 183.36 181.413C183.767 181.659 184.097 182.014 184.311 182.439C184.526 182.864 184.616 183.34 184.572 183.814C184.526 189.723 184.572 195.624 184.572 201.532C184.608 201.956 184.559 202.382 184.428 202.787C184.297 203.191 184.087 203.565 183.81 203.888C177.108 211.42 169.286 217.176 159.246 219.486C149.205 221.796 139.683 220.073 130.344 216.292C129.116 215.789 129.581 215.263 130.039 214.538C133.164 209.751 136.28 204.953 139.385 200.145C141.787 196.424 140.91 192.071 137.35 189.753C134.033 187.596 129.726 188.663 127.332 192.292C124.008 197.319 120.717 202.366 117.459 207.433C116.933 208.256 116.56 208.515 115.668 207.845C106.153 200.709 98.8265 191.987 95.9447 180.185C93.4669 170.053 94.9841 160.264 99.1391 150.833C103.655 140.806 110.244 131.85 118.473 124.554C119.38 123.731 119.853 123.555 120.722 124.684C128.468 134.686 138.852 140.389 151.126 142.722C166.816 145.71 181.622 142.988 195.581 135.334C196.259 134.96 197.029 133.581 198.013 134.861C199.332 136.561 199.21 138.3 197.83 139.329C193.927 142.241 190.038 145.176 186.112 148.051C185.566 148.432 185.129 148.951 184.845 149.554C184.561 150.157 184.441 150.825 184.496 151.489C184.564 156.155 184.519 160.828 184.519 165.982Z" fill="#058E49"/>
<path d="M114.608 74.0248C114.768 65.6386 118.009 59.5395 122.751 54.1647C131.686 44.0555 143.213 38.5205 156.204 35.7073C165.566 33.6794 174.928 33.565 184.222 36.1038C191.358 38.0479 197.716 41.349 202.329 47.3795C204.048 49.6725 205.306 52.2771 206.034 55.0491C206.423 56.4671 206.095 57.2524 204.783 57.9538C194.955 63.1949 184.652 67.4936 174.014 70.7923C163.26 74.104 152.278 76.6191 141.155 78.3171C133.405 79.5596 125.59 80.3613 117.749 80.7186C117.498 80.7677 117.239 80.7652 116.989 80.7112C116.738 80.6573 116.501 80.553 116.293 80.4047C116.084 80.2564 115.907 80.0672 115.773 79.8485C115.64 79.6299 115.552 79.3864 115.516 79.1328C114.997 77.4757 114.692 75.7592 114.608 74.0248V74.0248Z" fill="#058E49"/>
<path d="M186.653 130.175C182.142 132.598 177.238 134.206 172.168 134.925C160.87 136.671 149.891 135.619 139.744 130.076C127.119 123.215 120.173 112.724 120.616 97.9949C120.654 96.7218 120.905 95.4562 121.058 94.183C121.157 93.4206 121.485 93.2376 122.27 93.535C135.337 98.4905 148.953 98.7726 162.615 97.9111C180.066 96.8132 197.045 93.1385 213.756 88.1297C213.985 88.061 214.221 88.0153 214.58 87.9238C215.548 94.3584 214.366 100.419 211.85 106.259C209.735 111.064 206.779 115.453 203.121 119.22C202.549 119.852 201.836 120.341 201.04 120.645C194.803 123.055 188.415 124.678 181.667 124.503C174.92 124.328 169.012 122.216 164.674 116.75C164.064 115.987 163.629 115.926 162.951 116.536C162.577 116.847 162.185 117.135 161.777 117.398C159.154 119.258 159.124 119.281 161.22 121.614C167.319 128.384 175.164 130.549 183.939 130.351L185.396 130.29C185.815 130.236 186.211 130.206 186.653 130.175ZM205.637 102.874C205.685 101.799 205.308 100.747 204.588 99.9472C203.867 99.1471 202.861 98.6622 201.787 98.5972C201.272 98.5967 200.762 98.7006 200.288 98.9026C199.814 99.1045 199.387 99.4004 199.03 99.7723C198.674 100.144 198.397 100.585 198.215 101.067C198.034 101.549 197.952 102.062 197.975 102.577C197.958 103.655 198.365 104.697 199.107 105.48C199.85 106.262 200.869 106.723 201.947 106.762C202.448 106.761 202.944 106.658 203.404 106.459C203.864 106.261 204.279 105.971 204.624 105.608C204.969 105.244 205.236 104.815 205.41 104.345C205.585 103.875 205.662 103.375 205.637 102.874V102.874ZM169.385 104.018C168.885 104.026 168.392 104.136 167.935 104.34C167.478 104.543 167.067 104.838 166.727 105.204C166.386 105.571 166.123 106.003 165.954 106.474C165.785 106.944 165.712 107.445 165.741 107.944C165.719 108.489 165.805 109.033 165.995 109.544C166.185 110.055 166.474 110.523 166.847 110.921C167.219 111.319 167.667 111.639 168.165 111.862C168.662 112.085 169.199 112.207 169.744 112.221C170.753 112.177 171.704 111.739 172.393 111C173.082 110.261 173.453 109.282 173.426 108.272C173.44 107.727 173.347 107.185 173.152 106.676C172.956 106.168 172.662 105.703 172.287 105.308C171.912 104.913 171.463 104.595 170.965 104.374C170.467 104.153 169.93 104.032 169.385 104.018V104.018Z" fill="#FDFDFD"/>
<path d="M191.121 186.904C191.883 187.437 192.318 187.72 192.722 188.063C193.531 188.802 194.534 189.297 195.614 189.49C196.693 189.683 197.805 189.566 198.821 189.153C204.775 187.01 210.729 184.914 216.668 182.741C220.152 181.468 221.578 177.9 220.183 174.18C218.833 170.581 215.487 168.843 212.002 170.101C207.652 171.626 203.306 173.193 198.966 174.805C198.564 174.997 198.114 175.068 197.673 175.008C197.231 174.948 196.817 174.761 196.48 174.469C194.75 173.135 192.31 172.228 191.38 170.49C190.45 168.751 191.113 166.342 191.098 164.215C191.098 161.417 191.136 158.619 191.098 155.829C191.098 154.762 191.311 154.35 192.493 154.358C208.462 154.393 224.432 154.393 240.401 154.358C241.431 154.358 241.751 154.64 241.751 155.684C241.72 171.689 241.72 187.699 241.751 203.714C241.751 204.774 241.377 205.033 240.378 205.033C224.404 205.033 208.434 205.033 192.47 205.033C191.647 205.033 191.098 204.972 191.105 203.89C191.144 198.324 191.121 192.797 191.121 186.904Z" fill="#EF8129"/>
<path d="M132.929 87.8484L139.531 86.8954C162.403 83.6629 184.42 77.6324 205.096 67.0734C207.589 65.8002 210.006 64.3745 212.461 63.0251C212.712 62.812 213.01 62.6599 213.33 62.5805C213.65 62.5012 213.984 62.4968 214.306 62.5676C219.848 64.2525 225.322 66.0822 230.316 69.1394C233.365 70.9996 233.365 71.6248 230.224 73.2716C224.659 76.2067 218.636 78.0212 212.69 79.8662C198.342 84.3563 183.595 87.4557 168.654 89.1215C157.531 90.3261 146.438 90.6463 135.368 88.6641C134.606 88.5193 133.844 88.3515 133.081 88.1914L132.929 87.8484Z" fill="#766A66"/>
<path d="M248.414 201.777V199.589C248.414 184.562 248.414 169.536 248.414 154.517C248.372 153.954 248.482 153.39 248.733 152.884C248.984 152.379 249.366 151.95 249.84 151.642C253.926 148.677 257.944 145.612 262 142.601C262.419 142.28 262.762 141.838 263.402 141.77C263.806 142.235 263.593 142.799 263.593 143.294C263.593 158.435 263.593 173.584 263.631 188.732C263.675 189.263 263.573 189.795 263.336 190.272C263.1 190.749 262.738 191.152 262.289 191.439C257.738 194.748 253.301 198.133 248.414 201.777Z" fill="#EA7F28"/>
<path d="M256.435 138.369C253.858 140.313 251.197 142.021 248.895 144.125C245.731 147.022 242.224 147.937 237.955 147.815C224.735 147.571 211.5 147.731 198.257 147.731C198.166 147.022 198.783 146.969 199.119 146.672C202.519 144.102 205.98 141.564 209.342 138.987C209.992 138.436 210.816 138.133 211.668 138.133C226.407 138.133 241.167 138.133 255.947 138.133C256.038 138.148 256.138 138.232 256.435 138.369Z" fill="#EA7F28"/>
<path d="M370.327 198.934L370.121 198.805C370.121 198.805 370.213 198.69 370.236 198.698C370.311 198.728 370.382 198.767 370.449 198.812L370.327 198.934Z" fill="#FDFDFD"/>
<path d="M1216.61 207.718L1216.28 207.443C1216.64 207.237 1216.5 207.634 1216.61 207.726V207.718Z" fill="#FDFDFD"/>
<path d="M205.637 102.875C205.661 103.378 205.584 103.88 205.408 104.352C205.232 104.824 204.961 105.255 204.613 105.619C204.265 105.983 203.846 106.272 203.382 106.469C202.919 106.665 202.42 106.765 201.916 106.763C200.838 106.723 199.819 106.263 199.076 105.48C198.334 104.698 197.927 103.656 197.944 102.577C197.921 102.063 198.003 101.549 198.185 101.067C198.366 100.585 198.643 100.145 199 99.7728C199.356 99.4008 199.784 99.1049 200.257 98.903C200.731 98.701 201.241 98.5972 201.756 98.5977C202.836 98.6549 203.85 99.1364 204.577 99.9374C205.303 100.738 205.684 101.794 205.637 102.875V102.875Z" fill="#040404"/>
<path d="M169.385 104.018C169.929 104.031 170.466 104.152 170.964 104.374C171.462 104.595 171.911 104.912 172.287 105.307C172.662 105.702 172.956 106.168 173.151 106.676C173.346 107.185 173.44 107.727 173.425 108.272C173.452 109.281 173.081 110.261 172.393 111C171.704 111.739 170.752 112.177 169.743 112.221C169.198 112.207 168.661 112.085 168.164 111.862C167.666 111.639 167.218 111.319 166.846 110.921C166.473 110.523 166.184 110.054 165.994 109.543C165.804 109.032 165.718 108.489 165.741 107.944C165.712 107.444 165.784 106.944 165.953 106.473C166.123 106.003 166.386 105.571 166.726 105.204C167.066 104.837 167.477 104.543 167.934 104.339C168.391 104.135 168.884 104.026 169.385 104.018Z" fill="#040404"/>
</svg>
