<svg width="201" height="94" viewBox="0 0 201 94" fill="none" xmlns="http://www.w3.org/2000/svg">
<path d="M74.5965 58.4604C72.2936 58.4653 70.0384 57.8026 68.1029 56.552C66.1674 55.3015 64.6342 53.5166 63.6881 51.4125C62.7421 49.3084 62.4237 46.9751 62.7712 44.6937C63.1187 42.4123 64.1174 40.2804 65.6468 38.555C67.1762 36.8297 69.171 35.5844 71.3906 34.9696C73.6103 34.3547 75.9601 34.3964 78.1567 35.0897C80.3533 35.7829 82.3028 37.0981 83.7703 38.8767C85.2377 40.6553 86.1604 42.8213 86.4271 45.1135H98.4134C98.0537 38.8892 95.2871 33.0505 90.701 28.8372C86.115 24.6238 80.0707 22.3678 73.8517 22.5481C67.6326 22.7284 61.7286 25.3308 57.3932 29.8028C53.0579 34.2747 50.6328 40.264 50.6328 46.4988C50.6328 52.7336 53.0579 58.7228 57.3932 63.1948C61.7286 67.6667 67.6326 70.2691 73.8517 70.4494C80.0707 70.6297 86.115 68.3737 90.701 64.1604C95.2871 59.9471 98.0537 54.1084 98.4134 47.884H86.4707C86.1315 50.7999 84.734 53.489 82.5444 55.4393C80.3548 57.3896 77.526 58.4648 74.5965 58.4604V58.4604Z" fill="#2A2A86"/>
<path d="M35.3193 23.9287V47.4214C35.3193 53.5676 29.871 58.5469 23.7378 58.5469C17.6046 58.5469 12.1064 53.5489 12.1064 47.4214V23.9287H0.5V47.4214C0.5 50.4792 1.10111 53.507 2.26899 56.332C3.43688 59.1569 5.14866 61.7236 7.30657 63.8855C9.46448 66.0474 12.0263 67.7621 14.8456 68.9317C17.6649 70.1012 20.6865 70.7028 23.7378 70.702C28.1649 70.702 31.5709 69.5726 35.3193 66.1345V70.7706C35.3193 76.9168 30.4875 81.8961 23.7378 81.8961C16.9881 81.8961 11.627 76.9043 11.627 70.7706H0.5C0.599803 76.8798 3.09163 82.705 7.43812 86.9899C11.7846 91.2749 17.6375 93.6763 23.7347 93.6763C29.8319 93.6763 35.6848 91.2749 40.0313 86.9899C44.3778 82.705 46.8696 76.8798 46.9694 70.7706V23.9724L35.3193 23.9287Z" fill="#2A2A86"/>
<path d="M188.851 23.9287V47.4214C188.851 53.5676 183.402 58.5469 177.269 58.5469C171.136 58.5469 165.638 53.5551 165.638 47.4214V23.9287H154.031V47.4214C154.031 50.4792 154.632 53.507 155.8 56.332C156.968 59.1569 158.68 61.7236 160.838 63.8855C162.996 66.0474 165.557 67.7621 168.377 68.9317C171.196 70.1012 174.218 70.7028 177.269 70.702C181.696 70.702 185.102 69.5726 188.851 66.1345V70.7706C188.851 76.9168 184.019 81.8961 177.269 81.8961C170.519 81.8961 165.158 76.9043 165.158 70.7706H154.031C154.131 76.8798 156.623 82.705 160.969 86.9899C165.316 91.2749 171.169 93.6763 177.266 93.6763C183.363 93.6763 189.216 91.2749 193.562 86.9899C197.909 82.705 200.401 76.8798 200.501 70.7706V23.9724L188.851 23.9287Z" fill="#FCAF17"/>
<path d="M137.628 0V26.65C134.078 24.0298 129.79 22.6034 125.381 22.5755C112.927 22.5755 102.803 32.5591 102.105 45.1197H114.036C114.388 42.0743 115.889 39.2789 118.231 37.3064C120.573 35.3339 123.579 34.3336 126.633 34.5102C129.687 34.6869 132.559 36.0273 134.659 38.2567C136.759 40.4862 137.929 43.436 137.929 46.5018C137.929 49.5677 136.759 52.5175 134.659 54.7469C132.559 56.9764 129.687 58.3167 126.633 58.4934C123.579 58.6701 120.573 57.6697 118.231 55.6972C115.889 53.7247 114.388 50.9294 114.036 47.8839H102.105C102.809 60.4508 112.959 70.422 125.381 70.422C129.825 70.3421 134.135 68.8813 137.716 66.2413V66.2413L139.409 69.8729H149.316V0H137.628Z" fill="#FCAF17"/>
</svg>
