<svg width="1350" height="294" viewBox="0 0 1350 294" fill="none" xmlns="http://www.w3.org/2000/svg">
<path d="M477.905 109.481C493.781 105.929 509.656 102.423 525.506 98.8081C552.111 92.7525 578.689 86.6192 605.636 80.4392C605.593 83.7663 604.174 86.5803 603.285 89.4488C592.316 125.16 581.323 160.88 570.089 196.529C564.584 213.927 551.948 225.447 532.645 229.956C477.709 242.774 422.671 255.235 367.649 267.836C343.393 273.402 319.14 278.971 294.889 284.542C282.168 287.485 271.24 284.726 262.104 276.263C229.327 245.822 196.556 215.373 163.79 184.916C163.098 184.263 162.363 183.656 161.645 183.027L167.791 163.305C168.689 163.966 169.039 164.184 169.321 164.448C203.517 196.18 237.679 227.919 271.807 259.666C274.149 261.843 276.68 263.242 280.142 262.41C284.639 261.322 285.579 258.586 282.365 255.593C270.054 244.088 257.712 232.607 245.339 221.148C221.316 198.864 197.285 176.58 173.245 154.296C172.262 153.378 171.091 152.586 171.587 151C173.468 145.006 175.289 138.99 177.272 132.545C178.666 133.704 179.529 134.349 180.307 135.072C213.933 166.223 247.53 197.377 281.099 228.533C282.51 229.839 283.861 231.2 285.87 231.643C288.973 232.42 291.469 231.409 293.419 229.194C295.573 226.753 292.82 225.704 291.529 224.53C275.753 209.76 259.938 195.032 244.082 180.345C223.662 161.377 203.224 142.423 182.769 123.481C181.769 122.556 180.615 121.74 181.059 120.193C182.94 114.169 184.804 108.144 186.804 101.677C188.352 103.029 189.369 103.876 190.369 104.786C223.864 135.849 257.347 166.923 290.82 198.006C293.153 200.183 295.641 201.676 299.112 200.89C303.583 199.872 304.558 197.004 301.412 194.089C282.034 176.023 262.628 157.967 243.193 139.922C226.312 124.204 209.388 108.491 192.421 92.7836C191.327 91.7653 190.104 90.8869 190.668 89.1534C192.575 83.23 194.413 77.291 196.405 70.9322C197.807 72.1293 198.833 72.9533 199.824 73.8395C233.513 105.105 267.17 136.375 300.796 167.651C302.103 169.037 303.886 169.982 305.857 170.333C307.202 170.524 308.58 170.348 309.815 169.828C311.051 169.307 312.089 168.466 312.799 167.41C314.654 164.992 311.944 164.215 310.73 163.111C298.249 151.388 285.71 139.728 273.115 128.13C249.406 106.105 225.688 84.0954 201.962 62.1014C200.431 60.6866 199.722 59.5284 200.491 57.3829C202.509 51.7393 204.141 45.9713 205.92 40.281C206.013 40.2184 206.122 40.1777 206.237 40.1628C206.352 40.1479 206.469 40.1591 206.578 40.1956C215.264 48.3889 223.915 56.6211 232.652 64.7677C254.019 84.6991 275.42 104.597 296.855 124.461C302.13 129.319 306.763 134.877 313.38 138.453C321.981 143.063 330.974 144.097 341.823 140.7C336.693 136.378 332.419 132.6 327.973 129.001C325.52 127.026 326.264 125.456 328.247 123.87C331.402 121.274 336.129 121.833 339.651 125.153C343.592 128.884 347.534 132.623 351.5 136.331C352.458 137.225 353.27 138.414 355.048 137.995C361.597 136.44 368.154 134.885 375.172 133.292C374.027 132.188 373.275 131.442 372.497 130.719C360.861 119.874 349.286 108.953 337.54 98.2484C335.257 96.1574 335.779 94.7814 337.771 93.1568C341.139 90.3972 345.465 91.0035 349.363 94.6493C361.389 105.859 373.44 117.05 385.517 128.223C386.654 129.273 387.526 130.625 389.791 130.05C396.152 128.425 402.615 127.026 409.454 125.44C408.24 124.259 407.402 123.411 406.522 122.595C386.859 104.265 367.196 85.8885 347.345 67.6673C344.482 65.0243 345.584 63.4851 348.098 61.8604C351.8 59.4506 355.228 60.3057 359.613 64.4024C379.909 83.2144 400.227 102.052 420.567 120.916C421.619 121.896 422.423 122.549 424.184 122.098C430.459 120.504 436.793 119.136 443.18 117.667C442.607 116.112 441.342 115.203 440.273 114.208C412.586 88.4926 384.887 62.7855 357.177 37.0861C354.245 34.3654 354.698 31.8934 358.63 30.4475C360.132 29.8122 361.82 29.6348 363.442 29.9415C365.064 30.2482 366.533 31.0228 367.632 32.1499C371.71 35.9512 375.814 39.7214 379.9 43.5149C404.789 66.6127 429.669 89.7416 454.541 112.902C455.695 113.967 456.687 114.643 458.593 114.145C464.988 112.459 471.468 111.013 477.905 109.481Z" fill="#F06522"/>
<path d="M1153.3 129.693C1148.09 146.375 1142.9 163.021 1137.72 179.63C1131.96 198.157 1126.21 216.687 1120.45 235.219C1117.77 243.855 1112.42 247.657 1102.5 247.726C1089.68 247.796 1076.86 247.641 1064.03 247.812C1060.4 247.859 1059.48 247.377 1060.61 243.809C1077.97 188.497 1095.22 133.162 1112.36 77.8044C1115.42 67.9786 1118.58 58.1839 1121.46 48.3115C1122.31 45.5208 1123.69 44.7901 1126.75 44.8134C1142.7 44.9611 1158.66 45.0466 1174.62 44.7745C1179.04 44.7046 1180.9 45.8162 1182.32 49.7496C1195.14 85.7723 1208.25 121.709 1221.29 157.67C1221.72 158.851 1222.2 160.002 1223 162.023C1226.06 152.283 1228.91 143.367 1231.69 134.427C1239.77 108.432 1247.83 82.4374 1255.89 56.4427C1258.21 48.98 1264.22 44.9378 1272.99 44.8989C1286.09 44.8445 1299.2 44.9611 1312.31 44.829C1315.64 44.829 1316.66 45.1632 1315.59 48.5758C1300.31 97.1605 1285.13 145.774 1270.05 194.415C1264.86 211.074 1259.59 227.717 1254.55 244.415C1253.77 246.996 1252.76 247.851 1249.74 247.82C1233.35 247.654 1216.97 247.654 1200.59 247.82C1197.55 247.82 1196.54 246.879 1195.66 244.415C1182.27 207.195 1168.8 170.001 1155.25 132.833C1154.79 131.799 1154.84 130.462 1153.3 129.693Z" fill="#F16523"/>
<path d="M846.35 124.696C843.238 134.755 840.246 144.425 837.236 154.087C827.944 183.938 818.591 213.765 809.435 243.646C808.469 246.756 807.11 247.844 803.451 247.829C755.73 247.665 708.01 247.945 660.29 247.525C634.976 247.308 617.348 225.091 624.187 202.804C635.429 166.206 646.722 129.624 658.383 93.135C667.488 64.6527 696.537 45.0089 729.22 44.939C775.239 44.8146 821.25 44.9389 867.26 44.8379C870.885 44.8379 871.15 45.6697 870.218 48.5225C866.551 59.802 862.986 71.1125 859.703 82.4852C858.848 85.4469 857.232 85.9133 854.309 85.9056C816.556 85.833 778.804 85.8175 741.052 85.8589C726.074 85.8589 715.405 93.0106 711.387 105.969C701.841 136.545 692.328 167.139 682.85 197.751C680.876 204.134 683.338 207.08 690.707 207.08C713.789 207.08 736.871 207.08 759.954 207.142C762.629 207.142 763.98 206.598 764.733 204.032C768.255 192.18 771.928 180.365 775.752 168.585C776.718 165.616 775.838 165.126 772.769 165.165C761.655 165.305 750.541 165.165 739.428 165.25C736.863 165.25 735.563 165.25 736.598 162.18C739.59 153.419 742.095 144.526 744.942 135.75C747.335 128.357 752.841 124.719 761.347 124.711H846.375L846.35 124.696Z" fill="#F16523"/>
<path d="M996.683 165.225H970.695C955.452 165.225 940.209 165.326 924.975 165.139C921.752 165.139 920.615 166.126 919.845 168.762C912.151 193.777 904.303 218.753 896.669 243.776C895.763 246.754 894.592 247.881 890.967 247.834C874.869 247.609 858.771 247.679 842.682 247.78C839.476 247.78 838.228 247.616 839.339 244.072C859.743 178.95 880.033 113.8 900.208 48.6213C901.063 45.8306 902.286 44.7345 905.671 44.7889C915.349 45.0299 925.043 44.8667 934.738 44.8744C948.672 44.8744 955.879 53.5342 952.092 65.7775C946.39 84.1853 940.696 102.601 934.84 120.97C933.917 123.846 934.182 124.779 937.798 124.755C960.732 124.631 983.666 124.631 1006.6 124.755C1009.53 124.755 1010.45 123.698 1011.15 121.428C1018.6 97.1671 1026.19 72.9292 1033.62 48.6524C1034.47 45.8928 1035.65 44.7656 1039.08 44.7656C1055.32 44.96 1071.56 44.9133 1087.81 44.7656C1090.99 44.7656 1091.98 45.0688 1090.95 48.357C1070.48 113.733 1050.11 179.134 1029.85 244.561C1029.1 246.948 1028.01 247.803 1025.19 247.749C1015.08 247.57 1004.97 247.749 994.854 247.663C981.603 247.562 974.465 238.949 978.03 227.397C983.997 208.114 989.995 188.838 996.025 169.57C996.367 168.28 997.06 166.966 996.683 165.225Z" fill="#F16523"/>
<path d="M205.954 40.2207C204.176 45.9343 202.535 51.7022 200.526 57.3225C199.756 59.468 200.466 60.6263 201.996 62.0411C225.745 84.0247 249.463 106.034 273.149 128.07C285.688 139.725 298.226 151.385 310.765 163.051C311.936 164.154 314.689 164.932 312.834 167.349C312.124 168.406 311.085 169.247 309.85 169.767C308.614 170.287 307.237 170.463 305.892 170.272C303.921 169.921 302.138 168.977 300.831 167.59C267.182 136.346 233.502 105.096 199.79 73.8413C198.833 72.9551 197.807 72.1312 196.371 70.934C194.379 77.2928 192.541 83.2318 190.634 89.1552C190.07 90.8887 191.293 91.7671 192.387 92.7855C209.331 108.504 226.275 124.224 243.219 139.948C262.637 157.987 282.043 176.043 301.438 194.114C304.584 197.044 303.609 199.897 299.138 200.916C295.667 201.693 293.154 200.208 290.846 198.032C257.385 166.937 223.901 135.864 190.395 104.811C189.412 103.902 188.378 103.054 186.83 101.702C184.83 108.169 182.966 114.194 181.085 120.218C180.606 121.773 181.761 122.55 182.795 123.507C203.233 142.453 223.671 161.408 244.108 180.37C259.952 195.078 275.768 209.806 291.555 224.555C292.846 225.768 295.599 226.817 293.445 229.219C291.495 231.435 288.999 232.422 285.896 231.668C283.887 231.186 282.536 229.825 281.125 228.558C247.545 197.392 213.948 166.238 180.333 135.097C179.555 134.374 178.692 133.729 177.298 132.571C175.315 139.015 173.494 145.008 171.613 151.025C171.117 152.58 172.288 153.404 173.271 154.321C197.305 176.605 221.337 198.889 245.365 221.173C257.727 232.642 270.069 244.124 282.391 255.618C285.605 258.611 284.665 261.347 280.168 262.436C276.706 263.267 274.184 261.868 271.833 259.691C237.688 227.918 203.526 196.171 169.347 164.45C169.065 164.186 168.715 163.968 167.817 163.307L161.671 183.029L34 212.358C35.5645 207.251 36.9494 202.742 38.3429 198.234C48.8923 164.17 59.2708 130.06 70.0682 96.0581C75.6335 78.521 88.4912 67.1638 107.983 62.6318C140.597 54.9827 173.297 47.6678 205.954 40.2207Z" fill="#02467E"/>
<path d="M477.906 109.482C471.468 111.036 464.988 112.459 458.594 114.146C456.687 114.643 455.695 113.967 454.541 112.902C429.675 89.7419 404.795 66.6052 379.9 43.4918C375.814 39.6983 371.71 35.9282 367.632 32.1269C366.533 30.9997 365.064 30.2252 363.442 29.9185C361.82 29.6118 360.132 29.7892 358.63 30.4245C354.698 31.8704 354.245 34.3113 357.177 37.0631C384.876 62.7625 412.574 88.4696 440.273 114.185C441.342 115.18 442.607 116.066 443.18 117.644C436.794 119.113 430.459 120.481 424.184 122.075C422.423 122.526 421.619 121.873 420.568 120.893C400.255 102.019 379.929 83.1577 359.588 64.3094C355.202 60.2283 351.774 59.3577 348.072 61.7675C345.559 63.3921 344.456 64.9313 347.32 67.5743C367.137 85.7955 386.791 104.172 406.496 122.502C407.351 123.28 408.206 124.166 409.428 125.347C402.589 126.902 396.169 128.332 389.766 129.957C387.517 130.532 386.645 129.18 385.491 128.13C373.483 116.952 361.451 105.761 349.397 94.5563C345.499 90.9105 341.173 90.3042 337.805 93.0638C335.813 94.6885 335.292 96.0644 337.574 98.1555C349.32 108.891 360.896 119.781 372.531 130.626C373.309 131.349 374.061 132.095 375.207 133.199C368.188 134.831 361.631 136.347 355.082 137.902C353.304 138.321 352.518 137.124 351.535 136.238C347.568 132.53 343.627 128.791 339.686 125.06C336.164 121.74 331.436 121.173 328.281 123.777C326.341 125.332 325.554 126.933 328.008 128.908C332.479 132.507 336.762 136.285 341.857 140.607C331.009 144.004 322.015 142.939 313.415 138.36C306.798 134.816 302.164 129.257 296.89 124.368C275.392 104.55 253.991 84.6528 232.687 64.6748C223.95 56.5281 215.298 48.2959 206.612 40.1026C222.693 36.3402 238.748 32.5233 254.846 28.8231C285.263 21.8529 315.683 14.9163 346.106 8.01335C358.254 5.27705 368.957 8.10661 377.737 16.2067C400.101 36.8377 422.403 57.5283 444.642 78.2785C455.789 88.6406 466.835 99.0805 477.906 109.482Z" fill="#01467E"/>
</svg>
