<svg width="1350" height="294" viewBox="0 0 1350 294" fill="none" xmlns="http://www.w3.org/2000/svg">
<path d="M486.35 101.024H451.467C450.278 101.024 449.909 101.27 449.909 102.54C449.909 116.518 449.417 130.496 449.663 144.474C449.663 152.099 450.155 159.764 450.688 167.388C450.796 168.75 451.183 170.075 451.824 171.281C452.466 172.487 453.349 173.548 454.418 174.398C461.821 181.223 471.309 185.354 481.349 186.121C484.997 186.326 488.646 186.736 492.294 187.023C492.868 187.023 493.442 187.023 493.565 187.884C494.145 190.912 494.214 194.015 493.769 197.066C493.34 199.65 492 201.995 489.993 203.679C487.987 205.362 485.444 206.274 482.825 206.248C478.306 206.514 473.776 206.514 469.257 206.248C461.538 206.214 453.839 205.46 446.261 203.993C439.438 202.797 433.001 199.986 427.487 195.795C420.88 190.101 416.592 182.181 415.436 173.537C414.557 168.558 414.145 163.508 414.206 158.452C414.206 140.416 414.206 122.38 414.206 104.303C414.206 102.868 413.796 102.376 412.402 102.048C407.85 101.146 403.371 99.9131 398.998 98.3593C396.878 97.9423 395.008 96.7049 393.795 94.9163C392.582 93.1277 392.124 90.9326 392.522 88.8084C392.522 86.3079 393.014 83.8484 393.259 81.348C393.259 80.2822 393.833 80.0362 394.776 79.9952C400.31 79.5853 405.885 79.0935 411.459 78.8066C413.099 78.8066 413.55 78.1507 413.591 76.716C413.591 73.0678 413.837 69.4196 413.96 65.7714C413.999 62.812 414.455 59.8729 415.313 57.0403C415.88 55.0724 416.981 53.2995 418.492 51.9178C420.004 50.5361 421.869 49.5994 423.88 49.211C429.538 47.9603 435.433 48.3296 440.891 50.2767C443.175 51.0431 445.151 52.5263 446.525 54.5055C447.898 56.4848 448.596 58.8545 448.515 61.2624C448.515 65.0746 448.515 68.8867 448.802 72.7398C449.253 78.0277 449.294 78.1097 454.541 78.1097H519.758C521.315 78.1097 521.889 77.6587 522.217 76.1831C522.636 73.9103 522.869 71.6072 522.914 69.2966C522.914 66.5912 522.914 63.8448 523.201 61.0984C523.132 58.2687 524.104 55.5121 525.933 53.3513C527.761 51.1904 530.319 49.7757 533.121 49.375C537.841 48.2882 542.747 48.2882 547.468 49.375C549.982 49.813 552.283 51.0652 554.017 52.9391C555.75 54.813 556.819 57.2046 557.06 59.7457C557.839 64.3777 557.593 69.0916 558.043 73.7646C558.535 79.0935 558.453 79.1344 563.7 79.1344H598.42C599.649 79.1344 600.1 79.4624 600.305 80.6921C601.02 84.0895 601.391 87.5502 601.412 91.0218C601.545 92.9744 600.935 94.9052 599.703 96.426C598.471 97.9469 596.709 98.945 594.772 99.22C591.926 99.8011 589.026 100.076 586.122 100.04C577.514 100.327 568.906 100.04 560.339 100.04C558.986 100.04 558.576 100.368 558.535 101.762C558.535 115.699 558.207 129.594 558.166 143.531C558.166 150.582 558.699 157.632 559.15 164.724C559.482 168.566 561.325 172.119 564.274 174.603C572.057 182.29 582.561 186.592 593.501 186.572C595.591 186.572 597.6 186.818 599.772 187.023C600.346 187.023 601.166 187.023 601.289 187.802C602.195 191.472 602.513 195.263 602.232 199.033C602.079 200.577 601.435 202.031 600.395 203.182C599.354 204.333 597.972 205.12 596.452 205.428C593.518 206.171 590.501 206.529 587.475 206.494C574.965 206.859 562.466 205.48 550.337 202.395C545.471 201.315 540.916 199.141 537.016 196.037C533.117 192.933 529.976 188.981 527.833 184.482C525.447 178.88 523.993 172.926 523.529 166.855C522.709 158.657 523.078 150.459 523.037 142.261C523.037 129.225 523.037 116.149 523.037 103.114C523.037 101.434 522.545 101.106 520.988 101.147L486.35 101.024Z" fill="#E60432"/>
<path d="M314.761 151.606H268.318C266.883 151.606 266.432 152.015 266.391 153.45C266.185 158.191 266.432 162.94 267.129 167.633C267.677 171.707 269.559 175.486 272.481 178.378C275.403 181.27 279.2 183.113 283.28 183.62C289.985 184.754 296.77 185.357 303.57 185.423C316.851 186.038 330.173 185.874 343.496 185.915C354.194 185.915 364.893 185.915 375.551 185.915C376.288 185.915 377.026 185.71 377.19 186.858C377.804 190.059 377.928 193.334 377.559 196.573C377.3 199.243 376.032 201.714 374.013 203.481C371.994 205.248 369.378 206.179 366.697 206.083H363.909C343.414 206.083 322.631 206.083 301.972 206.083C291.601 206.083 281.189 205.878 270.859 204.771C260.195 204.103 250.127 199.622 242.494 192.146C236.712 185.895 232.892 178.084 231.508 169.683C230.314 162.767 229.793 155.752 229.95 148.736C229.95 140.538 229.95 132.34 230.442 124.142C230.652 113.137 235.05 102.626 242.739 94.7509C248.709 89.3636 255.942 85.5708 263.768 83.7243C278.456 79.7114 293.634 77.7797 308.858 77.9856C324.609 77.914 340.28 80.222 355.342 84.8311C362.724 86.9231 369.28 91.2426 374.114 97.1999C378.949 103.157 381.827 110.462 382.355 118.116C383.302 123.907 383.205 129.821 382.068 135.578C381.389 139.576 379.418 143.24 376.456 146.009C373.494 148.778 369.706 150.5 365.672 150.909C361.925 151.434 358.141 151.654 354.358 151.565H314.597L314.761 151.606ZM316.237 131.11C322.344 131.11 328.534 131.11 334.56 131.11C337.648 131.15 340.695 130.403 343.414 128.937C344.969 128.176 346.22 126.911 346.964 125.348C347.709 123.785 347.902 122.016 347.513 120.329C347.247 118.886 346.734 117.499 345.996 116.23C344.057 112.813 341.456 109.817 338.345 107.417C335.234 105.017 331.675 103.261 327.878 102.252C318.747 100.138 309.358 99.3643 300.004 99.9569C294.258 99.9833 288.54 100.755 282.993 102.252C279.531 103.068 276.324 104.726 273.657 107.078C270.99 109.431 268.945 112.405 267.703 115.738C265.755 121.821 265.099 128.243 265.777 134.594C265.777 135.619 266.432 135.332 266.965 135.291L284.181 132.709C294.796 131.205 305.521 130.615 316.237 130.946V131.11Z" fill="#E60432"/>
<path d="M696.062 151.604H649.865C649.209 151.604 648.431 151.399 648.472 152.547C648.442 158.415 649.2 164.261 650.726 169.927C651.861 173.668 654.043 177.007 657.013 179.549C659.984 182.091 663.62 183.731 667.491 184.274C673.564 185.367 679.726 185.888 685.896 185.832C709.302 186.405 732.749 185.832 756.155 185.832C757.754 185.832 758.328 186.201 758.533 187.84C759.105 190.853 759.393 193.914 759.393 196.981C759.466 198.102 759.308 199.225 758.929 200.282C758.55 201.339 757.958 202.307 757.189 203.126C756.42 203.944 755.492 204.596 754.461 205.041C753.429 205.486 752.318 205.715 751.195 205.712C747.543 206.047 743.875 206.156 740.21 206.04C722.091 206.04 703.932 206.04 685.814 206.04C674.993 206.04 664.212 205.712 653.432 204.728C645.038 204.263 636.93 201.513 629.985 196.776C622.088 190.739 616.736 181.966 614.982 172.182C612.984 162.395 612.185 152.402 612.604 142.422C612.611 134.37 613.049 126.324 613.916 118.319C614.591 110.586 617.615 103.245 622.583 97.2805C627.551 91.3161 634.225 87.0143 641.708 84.9526C653.665 81.1289 666.064 78.8558 678.6 78.189C697.526 76.8573 716.541 78.6577 734.881 83.5178C744.54 85.6037 753.041 91.2909 758.655 99.4224C762.412 105.304 764.664 112.018 765.214 118.975C765.891 124.22 765.808 129.535 764.968 134.757C764.507 138.903 762.62 142.761 759.629 145.669C756.638 148.578 752.729 150.357 748.572 150.702C743.131 151.336 737.65 151.569 732.175 151.399C719.796 151.645 707.95 151.604 696.062 151.604ZM698.973 131.108H715.861C719.12 131.262 722.372 130.673 725.371 129.387C726.437 128.98 727.399 128.342 728.189 127.518C728.978 126.695 729.575 125.706 729.936 124.623C730.297 123.541 730.413 122.392 730.275 121.259C730.138 120.126 729.751 119.038 729.142 118.073C727.996 115.918 726.436 114.009 724.551 112.458C719.762 107.989 714.121 104.531 707.965 102.292C701.81 100.052 695.266 99.0762 688.725 99.4224C681.638 99.5305 674.575 100.257 667.614 101.595C664.027 102.238 660.637 103.706 657.713 105.882C654.79 108.059 652.412 110.885 650.767 114.138C648.089 120.616 647.224 127.702 648.267 134.634C648.267 135.618 648.963 135.536 649.619 135.413L655.276 134.552C662.695 133.363 670.074 132.01 677.534 131.518C684.995 131.026 691.922 130.699 698.973 130.945V131.108Z" fill="#E60432"/>
<path d="M87.9587 207.635H79.1867C74.5375 207.455 70.0277 205.998 66.152 203.423C62.2763 200.849 59.1844 197.258 57.2154 193.042C39.9582 158.897 22.1271 125.038 4.54188 91.0153C2.82026 87.736 1.63153 84.2108 0.196838 80.8085C-0.0491089 80.2756 -0.213071 79.8247 0.647742 79.7838C8.45116 78.8835 16.3322 78.8835 24.1356 79.7838C26.637 80.172 29.034 81.0622 31.1825 82.4006C33.331 83.739 35.1867 85.498 36.6379 87.572C40.1512 92.6201 43.1581 98.0023 45.615 103.641C55.8217 125.038 66.1105 146.517 76.2353 167.915C78.3668 172.26 81.0312 176.359 83.5727 180.827C86.401 175.826 89.3114 171.194 91.7709 166.234C102.797 143.197 113.455 119.996 124.564 97.082C126.077 94.0138 127.803 91.0552 129.729 88.2279C131.483 85.542 133.86 83.3196 136.658 81.7495C139.455 80.1794 142.591 79.3082 145.797 79.2099C152.127 78.9704 158.465 79.121 164.776 79.6608C166.088 79.6608 166.17 80.1527 165.924 81.3414C164.234 87.3747 161.71 93.142 158.422 98.4757L119.276 174.227C115.997 180.581 112.84 186.934 109.561 193.288C107.609 197.42 104.565 200.941 100.758 203.469C96.9504 205.998 92.5248 207.438 87.9587 207.635V207.635Z" fill="#E60432"/>
<path d="M820.345 109.056C820.345 122.337 820.345 135.618 820.345 148.899C820.331 154.464 820.811 160.02 821.78 165.5C822.423 169.871 824.417 173.932 827.482 177.115C830.547 180.297 834.53 182.442 838.873 183.249C845.16 184.667 851.546 185.599 857.975 186.037L863.55 186.529C864.247 186.529 864.739 186.529 864.821 187.594C865.189 190.641 865.353 193.708 865.313 196.776C865.026 202.761 862.566 205.221 856.5 205.876C850.008 206.451 843.479 206.451 836.988 205.876C829.044 205.601 821.16 204.39 813.5 202.269C806.678 200.495 800.542 196.722 795.882 191.433C791.221 186.144 788.249 179.583 787.348 172.592C786.113 165.088 785.797 157.463 786.405 149.883C787.348 135.454 787.471 121.189 787.348 106.596C787.348 97.742 787.02 88.8878 786.856 79.9928C786.856 73.8851 786.323 67.6955 786.651 61.5878C786.522 59.9948 786.72 58.3922 787.233 56.8785C787.746 55.3648 788.564 53.9722 789.635 52.7859C790.706 51.5996 792.008 50.6448 793.462 49.9803C794.915 49.3158 796.489 48.9555 798.087 48.9216C802.286 48.2107 806.58 48.2801 810.753 49.1265C813.243 49.5388 815.523 50.7714 817.231 52.6282C818.939 54.485 819.978 56.8594 820.181 59.3743C820.591 63.0626 820.673 66.7801 820.427 70.4829C820.14 81.7145 820.181 92.987 820.181 104.219C820.181 105.776 820.181 107.375 820.181 108.933L820.345 109.056Z" fill="#E60332"/>
<path d="M174.039 142.504V109.711V91.6344C173.804 90.1277 173.896 88.5881 174.307 87.1197C174.718 85.6513 175.439 84.2884 176.423 83.1227C177.406 81.957 178.627 81.0158 180.005 80.3627C181.383 79.7096 182.885 79.3599 184.41 79.3371C189.222 78.4762 194.149 78.4762 198.962 79.3371C200.346 79.4496 201.694 79.8379 202.926 80.4793C204.158 81.1207 205.249 82.0021 206.135 83.0716C207.022 84.1412 207.685 85.3773 208.086 86.707C208.487 88.0368 208.618 89.4333 208.472 90.8145C208.472 95.2825 208.472 99.7505 208.472 104.219C208.472 122.665 208.472 141.111 208.472 159.556C208.472 170.706 208.472 181.815 208.472 192.964C208.573 194.069 208.573 195.18 208.472 196.285C208.308 198.748 207.274 201.074 205.555 202.846C203.836 204.618 201.542 205.721 199.085 205.958C193.65 206.941 188.073 206.816 182.688 205.59C180.401 205.17 178.331 203.967 176.834 202.186C175.338 200.406 174.509 198.159 174.49 195.834C174.49 194.563 174.49 193.292 174.49 192.021C174.189 175.488 174.039 158.983 174.039 142.504Z" fill="#E60332"/>
<path d="M188.223 44.0034C193.553 44.0766 198.853 44.8063 204.004 46.1759C204.491 46.2785 204.945 46.5009 205.324 46.823C205.704 47.1451 205.997 47.5567 206.177 48.0205C207.5 50.8026 208.052 53.8885 207.775 56.9566C207.596 58.4126 206.915 59.7606 205.849 60.7688C203.322 63.2651 200.161 65.0228 196.708 65.8517C189.698 67.8193 182.484 68.6391 175.352 69.9508C174.491 70.1557 174.204 69.9508 174.081 68.967C173.328 61.7192 174.755 54.4114 178.18 47.9795C178.615 46.8946 179.36 45.9621 180.323 45.2986C181.285 44.6351 182.422 44.2702 183.591 44.2494C185.128 44.064 186.675 43.9818 188.223 44.0034V44.0034Z" fill="#E60433"/>
<path d="M912.576 177.346C912.576 155.99 912.576 134.633 912.576 113.277C912.576 107.948 913.232 106.063 915.855 106.186C921.67 106.575 927.503 106.575 933.318 106.186C936.105 106.186 937.212 107.579 937.048 113.933C936.843 122.746 937.048 122.377 940.86 118.688C964.676 96.1427 988.451 95.3229 1011.36 123.074C1026.65 141.561 1026.29 174.19 1011.36 193.906C999.067 210.303 985.171 214.607 970.865 213.541C964.72 213.013 958.755 211.196 953.359 208.209C947.963 205.221 943.257 201.13 939.548 196.202C937.458 193.661 937.048 195.3 937.048 199.522C937.048 214.156 937.048 228.831 937.048 243.506C937.048 248.712 936.269 250.187 933.932 250.105C927.784 249.859 921.635 249.818 915.404 250.105C913.068 250.105 912.576 248.261 912.576 243.752C912.617 221.616 912.576 199.481 912.576 177.346ZM936.925 158.08C936.925 163.491 937.13 168.943 936.925 174.272C936.72 179.601 937.827 182.47 940.245 184.11C946.276 188.398 953.362 190.963 960.741 191.529C967.186 192.493 973.769 191.907 979.943 189.818C986.116 187.729 991.703 184.198 996.239 179.519C999.13 176.912 1001.41 173.695 1002.9 170.101C1004.4 166.506 1005.08 162.625 1004.89 158.736C1005.16 154.84 1004.53 150.934 1003.04 147.322C1001.55 143.71 999.255 140.49 996.321 137.913C978.572 121.516 960.372 122.213 941.926 131.969C938.073 134.019 936.474 138.118 937.089 146.521C937.171 150.292 936.925 154.227 936.925 158.08Z" fill="#E60432"/>
<path d="M1102.73 213.786C1094.56 213.858 1086.47 212.175 1079 208.851C1071.53 205.528 1064.87 200.641 1059.45 194.521C1055.94 190.712 1053.03 186.385 1050.84 181.69C1047.21 174.146 1045.38 165.859 1045.5 157.485C1045.62 149.111 1047.69 140.881 1051.54 133.444C1057.06 122.095 1066.49 113.116 1078.1 108.152C1087.7 103.556 1098.39 101.72 1108.97 102.849C1119.55 103.979 1129.61 108.029 1138.03 114.547C1145.35 119.786 1151.17 126.852 1154.92 135.043C1158.39 142.212 1160.19 150.074 1160.19 158.039C1160.19 166.003 1158.39 173.865 1154.92 181.035C1149.78 192.514 1140.75 201.807 1129.42 207.269C1121.26 211.773 1112.05 214.022 1102.73 213.786V213.786ZM1104.01 192.594C1108.34 192.843 1112.68 191.983 1116.59 190.094C1123.97 187.223 1130.1 181.836 1133.89 174.886C1136.64 169.859 1138.08 164.22 1138.08 158.49C1138.08 152.759 1136.64 147.12 1133.89 142.093C1132.44 139.568 1130.7 137.216 1128.72 135.084C1124.15 129.931 1118.04 126.382 1111.3 124.959C1105.04 123.256 1098.42 123.348 1092.21 125.225C1086 127.103 1080.44 130.689 1076.17 135.576C1073.11 138.579 1070.73 142.213 1069.21 146.226C1067.69 150.24 1067.05 154.536 1067.36 158.817C1067.22 163.044 1067.97 167.253 1069.56 171.172C1071.14 175.09 1073.54 178.632 1076.58 181.568C1080.04 185.337 1084.29 188.279 1089.04 190.174C1093.79 192.069 1098.91 192.868 1104.01 192.512V192.594Z" fill="#E60432"/>
<path d="M1228.29 209.689C1214.18 208.901 1200.47 204.679 1188.36 197.392C1187.26 196.736 1185.58 196.859 1185.45 193.784C1185.33 190.71 1186.85 189.89 1187.75 188.373C1188.65 186.857 1190.05 185.422 1191.11 183.783C1196.23 176.24 1201.24 173.166 1207.51 179.929C1212.45 185.021 1219.19 187.966 1226.28 188.128C1227.5 188.32 1228.75 188.179 1229.89 187.718C1232.51 186.57 1234.89 183.947 1235.3 177.798C1235.54 175.644 1235.33 173.462 1234.68 171.394C1234.04 169.325 1232.96 167.415 1231.53 165.787C1228.48 162.707 1224.58 160.597 1220.34 159.721C1213.22 157.865 1206.35 155.197 1199.84 151.768C1195.79 149.501 1192.38 146.225 1189.96 142.259C1187.53 137.745 1186.17 132.736 1185.97 127.614C1185.77 122.492 1186.74 117.392 1188.82 112.704C1190.5 108.195 1193.13 104.101 1196.53 100.699C1199.93 97.297 1204.02 94.6668 1208.53 92.9873C1226.4 86.2238 1243.46 93.3972 1259.94 108.236C1260.44 108.582 1260.86 109.047 1261.14 109.59C1261.43 110.133 1261.58 110.737 1261.58 111.351C1261.58 111.965 1261.43 112.57 1261.14 113.113C1260.86 113.656 1260.44 114.121 1259.94 114.467L1259.61 114.835C1253.7 124.304 1248.21 129.797 1240.83 118.238C1235.46 110.04 1228.25 109.589 1221.53 110.409C1220.36 110.656 1219.28 111.191 1218.37 111.966C1216.22 113.317 1214.48 115.24 1213.36 117.52C1212.24 119.801 1211.77 122.348 1212.02 124.878C1212.02 133.077 1215.62 135.29 1218.7 136.766C1228.13 141.357 1237.84 142.628 1247.39 147.71C1251.41 149.687 1254.87 152.648 1257.43 156.319C1260.45 161.033 1262.19 166.446 1262.5 172.033C1262.81 177.62 1261.67 183.192 1259.2 188.21C1256.38 195.977 1250.78 202.429 1243.5 206.328C1238.67 208.348 1233.52 209.486 1228.29 209.689Z" fill="#E60432"/>
<path d="M1335.64 120.94C1332.28 120.94 1328.88 120.94 1325.48 120.94C1323.47 120.94 1322.65 122.211 1322.69 126.638C1322.69 137.173 1322.69 147.748 1323.31 158.242C1324.08 171.359 1329.37 183.042 1335.89 185.952C1337.33 186.832 1338.94 187.4 1340.61 187.619C1342.29 187.838 1343.99 187.703 1345.6 187.223C1347.65 186.362 1348.6 188.206 1349.29 191.568C1351.1 200.34 1348.39 210.875 1343.92 211.735C1333.31 213.843 1322.35 213.308 1311.99 210.178C1303.79 207.636 1298.96 196.077 1298.1 178.492C1297.28 162.095 1296.42 145.699 1296.83 129.302C1296.83 122.129 1295.72 120.325 1292.73 121.104C1290.31 121.289 1287.89 121.289 1285.47 121.104C1283.54 121.104 1283.38 119.669 1284.28 116.595C1284.94 114.593 1285.47 112.553 1285.88 110.487C1287.15 102.863 1289.61 99.7068 1293.38 101.182C1296.29 102.289 1297.48 99.5428 1296.95 93.5172C1296.37 85.3189 1298.26 82.4085 1301.95 81.4247C1308.06 79.6701 1314.03 77.4782 1319.82 74.8661C1321.99 73.8824 1322.73 74.8663 1322.69 79.4573C1322.69 84.8271 1322.69 90.2788 1322.69 95.6487C1322.69 100.322 1323.39 101.961 1325.6 101.961C1332.41 101.961 1339.21 102.822 1346.1 102.371C1349.99 102.084 1349.34 107.085 1349.29 111.799C1349.25 116.513 1350.07 121.965 1346.14 121.227C1342.66 120.785 1339.14 120.689 1335.64 120.94Z" fill="#E60432"/>
</svg>
