<svg width="1350" height="294" viewBox="0 0 1350 294" fill="none" xmlns="http://www.w3.org/2000/svg">
<g clip-path="url(#clip0)">
<rect width="1350" height="293.48" fill="#FFCB05"/>
<path d="M237.43 51L194.302 109.619H429.373C441.281 109.619 441.114 114.12 435.303 122.005C429.492 129.889 419.538 143.87 413.513 151.993C410.465 156.113 404.964 163.616 423.229 163.616H519.368L547.945 124.887C565.615 100.901 549.469 51.0476 486.29 51.0476L237.43 51Z" fill="#D71635"/>
<path d="M176.845 241.958L263.481 124.221H370.979C382.887 124.221 382.72 128.723 376.909 136.607C371.099 144.491 360.977 158.33 354.976 166.452C351.928 170.573 346.403 178.076 364.669 178.076H508.698C496.791 194.487 457.878 241.958 388.102 241.958H176.845Z" fill="#D71635"/>
<path d="M673.018 178.074L626.032 241.957H502.197C502.197 241.957 549.159 178.074 549.207 178.074H673.018Z" fill="#D71635"/>
<path d="M862.889 163.616H559.756L642.654 51H766.536L719.026 115.573H774.347L821.881 51H945.763L862.889 163.616Z" fill="#D71635"/>
<path d="M852.245 178.074L805.235 241.957H681.4C681.4 241.957 728.362 178.074 728.41 178.074H852.245Z" fill="#D71635"/>
<path d="M0 203.275H182.585L172.607 216.852H0V203.275Z" fill="#D71635"/>
<path d="M0 178.074H201.112L191.134 191.627H0V178.074Z" fill="#D71635"/>
<path d="M0 228.475H164.033L154.103 241.956H0V228.475Z" fill="#D71635"/>
<path d="M1350.11 216.852H1168.24L1178.22 203.275H1350.11V216.852Z" fill="#D71635"/>
<path d="M1350.11 241.956L1149.73 241.98L1159.66 228.475H1350.11V241.956Z" fill="#D71635"/>
<path d="M1196.74 178.074H1350.11V191.651H1186.77L1196.74 178.074Z" fill="#D71635"/>
<path d="M1117.35 51L1034.45 163.616H903.184C903.184 163.616 986.081 51 986.129 51H1117.35Z" fill="#D71635"/>
<path d="M892.54 178.074C892.54 178.074 883.49 190.46 879.085 196.415C863.534 217.447 877.298 241.957 928.071 241.957H1127.06L1174.05 178.074H892.54Z" fill="#D71635"/>
</g>
<defs>
<clipPath id="clip0">
<rect width="1350" height="293.48" fill="white"/>
</clipPath>
</defs>
</svg>
