<svg xmlns="http://www.w3.org/2000/svg" width="315" height="305" fill="none" ><g fill="#e8770a"><path d="M198.095 47.749c2.585-1.527 4.465-4.23 6.11-6.697 1.88-2.82 3.349-5.816 4.465-8.988 1.351-3.76-5.053-5.581-5.993-1.645-.705 2.879-1.527 5.698-2.526 8.46-.999 2.702-2.467 5.17-3.172 7.931-.235.705.528 1.292 1.116.94zm-71.439-4.582c1.41-4.993-.411-10.927-1.586-15.861-.999-4.288-7.99-2.409-6.639 1.821 1.586 4.817 3.172 10.809 6.932 14.393.47.411 1.175.235 1.293-.352zM70.609 80.059c-.823-1.762-1.586-3.349-2.644-4.993l-3.114-4.758c-2.879-4.465-9.4.764-5.699 4.406l4.289 4.23c1.41 1.41 2.996 2.526 4.582 3.701 1.645 1.234 3.29-1.057 2.585-2.585zm-27.377 57.807c-.764-1.527-1.234-2.174-2.644-3.114s-2.879-1.762-4.406-2.408c-3.114-1.293-6.521-1.88-9.929-2.115-4.7-.294-4.7 7.696 0 7.285 2.879-.235 5.64-.059 8.46.411 1.234.235 2.468.47 3.701.822 1.586.47 2.35.529 3.995.529.764.059 1.175-.764.822-1.41zm11.339 69.027c-1.998-1.175-4.641.059-6.756-.352-2.232-.411-4.406.763-4.7 3.172-.294 1.997 1.41 4.582 3.701 4.288 2.409-.293 4.582-.94 6.462-2.526.705-.646 1.293-1.41 1.645-2.35.235-.587.294-1.821-.352-2.232zm54.93 46.88c-1.469 1.762-2.056 3.818-2.761 5.992l-2.233 6.638c-1.703 5.053 6.874 7.285 7.873 2.174l1.292-6.873c.411-2.233.999-4.406.529-6.697-.353-1.998-3.349-2.82-4.7-1.234zm78.254 5.64c-.353 3.759 1.41 8.342 2.467 11.925 1.293 4.582 8.695 2.291 6.933-1.939-1.528-3.701-2.997-8.577-5.816-11.514-1.352-1.351-3.408-.176-3.584 1.528zm66.093-42.298c3.054 2.056 5.698 4.7 7.343 8.048 1.88 3.877 7.873.47 5.816-3.407-2.408-4.582-6.11-8.048-11.045-9.693-3.113-1.058-4.582 3.348-2.114 5.052zm15.569-67.911c4.053.235 8.225-.176 12.278-.411 4.23-.235 3.466-6.521-.764-5.758-3.994.705-8.107 1.175-11.984 2.292-2.233.646-1.704 3.759.47 3.877zm-12.984-65.385c2.291-2.056 3.995-4.7 6.404-6.638 2.35-1.939 5.17-3.466 8.048-4.523 4.583-1.704 1.763-8.518-2.643-6.227-3.349 1.762-6.345 3.995-8.989 6.638-2.468 2.467-5.17 5.463-6.11 8.871-.587 1.939 1.88 3.172 3.29 1.88zM51.046 99.269l-1.41-.588c.94.411.999.411.059 0-1.41-.705-2.879-1.292-4.347-1.88-.529-.176-3.76-1.057-1.175-.411-.822-.235-1.645-.764-2.409-1.175l-2.35-1.292c-.352-.235-2.585-1.234-2.644-1.645 1.175 1.058 1.351 1.175.529.294-.352-.353-.646-.764-.999-1.116l-.999-1.175.646.823c-2.82-3.877-6.345-6.521-11.338-6.521-4.171 0-7.814 1.939-10.34 5.17-5.816 7.52-1.88 17.801 6.815 20.679 1.997.646 4.054.999 6.051 1.645 2.174.705 4.289 1.586 6.521 2.233 4.994 1.351 9.987 1.938 15.157 1.292 4.171-.529 7.637-2.761 8.225-7.226.587-4.347-2.056-7.637-5.992-9.106zm-11.28 69.85c-3.701-3.29-9.165-2.35-13.63-1.821l-12.396 1.468c-4.817.529-8.871 2.174-11.397 6.58-2.174 3.642-2.291 7.931-.646 11.749 1.586 3.76 4.582 6.58 8.577 7.637 4.994 1.352 8.989-.411 12.866-3.407l10.81-8.401c1.821-1.41 3.407-2.702 4.817-4.464 1.116-1.41 2.174-2.644 2.467-4.465.235-1.704-.059-3.642-1.469-4.876zm37.306 65.091c-5.346-.117-9.224 5.581-12.631 9.047a166.02 166.02 0 0 1-4.641 4.465c-.646.587-1.645 1.88-2.409 2.115 1.175-.881 1.293-.94.352-.235-.411.293-.822.587-1.292.881-3.29 2.291-5.875 5.64-5.699 9.928.117 3.055 1.175 5.934 3.349 8.107 5.346 5.346 13.982 3.819 18.036-2.291 2.468-3.76 5.053-7.461 7.285-11.397 1.293-2.291 2.409-4.641 3.407-7.108 1.41-3.466 2.291-6.404.47-9.987-1.234-2.232-3.819-3.466-6.227-3.525zm71.85 25.085c-5.405 1.938-7.168 9.047-8.519 14.099-1.116 4.23-2.232 8.401-3.114 12.689-.822 3.819-.881 6.991.705 10.575 1.763 3.877 5.523 6.344 9.577 7.167 7.461 1.468 16.391-4.054 16.332-12.396-.059-5.228-.411-10.398-.764-15.626-.235-3.525-.294-7.755-1.88-10.986-.822-1.762-2.174-3.583-3.819-4.7-2.643-1.997-5.581-1.88-8.518-.822zm68.149-19.21c.352 5.757 3.114 10.868 5.464 16.096 1.88 4.289 4.347 8.284 6.58 12.396 4.288 7.754 14.922 9.399 21.737 4.171 6.815-5.287 7.931-15.862 1.468-22.03-3.348-3.231-6.579-6.638-10.222-9.576-4.406-3.525-8.577-7.519-14.041-9.399-5.111-1.763-11.339 2.878-10.986 8.342zm47.351-46.645c1.998 1.586 4.113 2.938 6.169 4.406.294.235 1.645 1.234.176.118-1.997-1.528 1.822 1.41 2.057 1.586 1.292.822-1.939-1.586-.823-.646l1.293 1.116c1.351 1.234 2.585 2.585 3.818 3.936 1.293 1.469-.94-.999-.881-1.116-.059.059.823 1.233.94 1.41 1.116 1.645 2.409 3.172 3.701 4.758l-2.232-2.878 1.645 2.232c2.056 3.055 4.758 5.463 8.401 6.462 3.349.94 7.872.529 10.868-1.41 6.052-3.936 9.459-12.748 5.053-19.269-1.234-1.88-2.644-3.642-4.054-5.404s-3.231-2.996-5.052-4.348c-1.939-1.41-3.936-2.702-6.11-3.701-6.521-3.113-13.454-5.052-20.68-3.701-6.815 1.293-9.928 11.985-4.289 16.449z"/><path d="M263.717 114.955c2.115 1.762 3.878 2.643 6.522 2.996 1.586.235 2.996.117 4.582.059l7.872-.059c5.17.059 10.399.352 15.569.705 4.289.352 8.46-1.939 11.456-4.759 3.76-3.466 5.111-8.753 4.465-13.629-1.234-9.106-10.869-16.684-20.268-13.511-5.934 1.997-11.75 4.406-17.331 7.226-5.464 2.761-13.513 5.992-15.158 12.396-.646 2.878-.058 6.638 2.291 8.577zm-38.715-45.999c2.879-.352 4.818-1.175 7.05-2.937 1.293-.999 2.468-2.115 3.643-3.29l6.638-6.58 6.345-6.286 3.525-3.407c.588-.587 2.115-1.586-.176-.118.705-.47 1.351-.999 2.056-1.527 3.76-2.761 6.756-6.462 6.58-11.456-.176-3.525-1.351-6.815-3.877-9.341-2.409-2.409-5.993-3.877-9.342-3.877-4.229 0-9.634 2.409-11.456 6.579-2.526 5.698-6.051 10.868-9.282 16.155l-4.7 7.52c-1.997 3.231-4.817 7.108-4.406 11.044.352 3.701 3.055 8.048 7.402 7.52zm-59.865-22.382c2.526-3.584 3.76-7.696 5.17-11.808a191.38 191.38 0 0 1 4.406-11.456l-1.41 3.29c.352-.764.705-1.469 1.175-2.174l-2.292 2.937c3.467-3.349 4.759-7.402 4.994-12.102.353-7.52-5.992-13.923-13.101-14.863-7.167-.94-14.805 3.466-16.567 10.809-1.116 4.641-.764 9.047 1.704 13.159l-1.469-3.525c1.351 3.995 1.586 8.459 2.409 12.572.94 4.582 1.997 9.047 4.582 12.983 2.644 4.112 7.755 3.995 10.399.176zm-62.098 10.281c1.468-7.696-2.938-15.039-6.991-21.384-1.469-2.35-2.35-4.994-3.877-7.343-1.88-2.937-3.642-4.7-6.286-6.697-3.584-2.761-7.696-3.584-12.161-3.584-5.17 0-9.987 2.761-12.631 7.226-2.761 4.7-2.409 9.987 0 14.745 1.351 2.644 2.879 4.935 5.346 6.815s4.935 3.114 7.931 4.112l3.466 1.175c.529.176.999.411 1.527.587 2.233.822-2.82-1.527-.646-.176-.823-.529-1.998-1.586-.529-.353.47.411.94.764 1.41 1.175 1.057.94 2.115 1.939 3.114 2.996 2.174 2.232 4.054 4.876 7.05 6.168 2.761 1.234 5.17 1.645 7.99.47 2.468-1.116 4.759-3.231 5.288-5.933z"/></g><path d="M241.687 195.261c-13.63 25.026-37.247 42.356-62.744 49.406-29.492 8.166-62.568 2.644-86.479-18.153s-36.953-57.513-28.905-90.058c.646-2.526 1.351-5.052 2.232-7.578 16.802-49.289 74.376-83.949 120.024-70.32 25.321 7.578 48.762 26.26 60.571 52.754 1.175 2.703 2.232 5.464 3.172 8.284 7.814 24.614 4.347 53.283-7.872 75.665z" fill="#fdcc13"/><path d="M238.984 131.345c.294-18.74-18.505-24.145-33.31-19.798-14.511 4.289-22.56 19.093-13.043 31.958 5.934 7.99 16.509 12.161 26.261 10.399 10.693-1.998 19.857-11.632 20.092-22.559zm-97.289 0c.294-18.74-18.506-24.145-33.31-19.798-14.511 4.289-22.56 19.093-13.043 31.958 5.934 7.99 16.509 12.161 26.261 10.399 10.693-1.998 19.916-11.632 20.092-22.559z" fill="#fff"/><path d="M241.687 195.261c-13.63 25.026-37.247 42.356-62.744 49.406-29.492 8.166-62.568 2.643-86.479-18.153s-36.953-57.513-28.905-90.058c.646-2.526 1.351-5.052 2.232-7.579-3.29 18.564-1.175 38.127 6.756 55.222 9.87 21.443 29.022 38.655 51.699 45.235 9.517 2.761 19.446 3.642 29.316 3.642 19.505 0 39.538-3.818 55.87-14.451 18.036-11.808 30.256-31.253 35.955-52.05 4.171-15.215 5.17-31.077 4.171-46.879 7.814 24.614 4.347 53.283-7.872 75.665z" fill="#fcaf17"/><path d="M155.267 201.841c-9.341-7.637-9.4-15.098-13.219-25.144 6.463 3.643 14.864 4.113 21.914 2.233 6.697-1.763 12.983-5.053 18.153-9.694-3.231 2.879-1.116 24.204-3.877 30.137-4.7 10.222-14.629 9.224-22.971 2.468z" fill="#d06015"/><path d="M232.992 136.515c6.11-12.043-5.875-22.5-17.449-18.27-7.814 2.878-12.513 11.455-10.105 19.503.47 1.587 1.234 3.055 2.35 4.23 1.645 1.704 3.936 2.526 6.228 2.996 7.343 1.41 15.627-1.821 18.976-8.459z" fill="#2a2a86"/><path d="M216.425 131.11c1.939 9.576 16.567 2.467 13.63-4.993-2.762-7.226-15.04-2.174-13.63 4.993z" fill="#fff"/><path d="M138.406 136.515c6.11-12.043-5.875-22.5-17.449-18.27-7.813 2.878-12.513 11.455-10.105 19.503.47 1.587 1.234 3.055 2.35 4.23 1.645 1.704 3.936 2.526 6.228 2.996 7.285 1.41 15.627-1.821 18.976-8.459z" fill="#2a2a86"/><path d="M122.896 133.225c1.939 9.576 16.567 2.467 13.63-4.993-2.82-7.168-15.099-2.174-13.63 4.993z" fill="#fff"/></svg>