<svg width="313" height="284" viewBox="0 0 313 284" fill="none" xmlns="http://www.w3.org/2000/svg">
    <path d="M249.547 36.0208C295.253 78.2596 337.376 175.191 295.547 232.528C270.814 266.483 225.988 279.055 184.1 282.345C132.342 286.398 74.5329 277.058 41.1046 237.345C27.4748 221.131 19.015 201.157 13.5513 180.713C8.26386 161.21 5.50264 140.531 10.0851 120.851C21.5411 71.7974 60.9031 35.3746 105.2 15.4007C120.416 8.52741 136.337 2.59401 152.904 0.714117C188.095 -3.2219 223.579 11.9935 249.547 36.0208Z" fill="#2A2A86"/>
    <path d="M118.124 143.174C113.483 147.169 110.311 152.573 107.256 157.861C105.67 153.572 101.028 150.635 96.5047 150.987C91.9223 151.34 87.8686 155.041 87.0461 159.564C78.9975 147.698 66.0727 138.004 51.7379 138.298C37.4031 138.592 23.4208 152.045 26.2995 166.085C24.4195 162.854 20.1308 161.62 16.4884 162.443C12.8459 163.207 9.73224 165.615 7.08852 168.259C3.38733 171.96 0.0974039 176.953 1.09614 182.064C2.74112 190.289 13.316 192.462 21.6583 192.815C54.7929 194.342 88.1623 195.87 120.886 190.465C129.933 188.938 139.568 186.529 145.678 179.656C159.484 163.853 139.862 124.316 118.124 143.174Z" fill="white"/>
    <path d="M138.334 233.174C200.02 245.099 260.297 196.457 258.711 133.246C257.771 96.8232 230.276 37.7829 185.862 39.3103C163.42 40.1328 148.791 69.3885 137.453 85.0739C122.472 105.811 107.432 126.49 92.4507 147.228C88.6908 152.397 84.4608 157.332 80.7596 162.208C71.5947 174.251 65.6023 186.177 77.8222 201.392C92.0395 219.192 116.773 229.003 138.334 233.174Z" fill="#FDCC13"/>
    <path d="M190.914 104.871C186.097 83.9577 163.596 83.0764 148.321 92.0059C133.34 100.759 128.464 119.499 142.564 131.19C151.317 138.416 164.301 140.178 174.7 135.478C186.097 130.367 193.676 117.091 190.914 104.871Z" fill="white"/>
    <path d="M171.88 109.219C175.522 94.8258 159.425 87.0713 147.616 94.7671C139.685 99.9368 136.689 110.335 141.507 118.148C142.447 119.676 143.68 121.085 145.266 121.967C147.499 123.259 150.319 123.553 153.021 123.377C161.481 122.848 169.882 117.149 171.88 109.219Z" fill="#2A2A86"/>
    <path d="M144.62 107.104C149.437 117.208 163.772 105.341 158.426 97.7632C153.374 90.5374 141.036 99.5843 144.62 107.104Z" fill="white"/>
    <path d="M151.611 160.739C144.032 159.682 136.395 158.566 129.58 155.57C122.765 152.632 116.832 147.58 114.482 140.413C110.369 147.521 107.843 155.393 107.079 163.089C106.198 172.195 108.842 182.182 116.89 184.649C128.346 188.115 147.734 172.43 152.962 161.444L151.611 160.739Z" fill="#D06015"/>
    <path d="M259.122 183.651C254.481 187.645 251.309 193.05 248.254 198.337C246.668 194.049 242.026 191.111 237.503 191.464C232.92 191.816 228.867 195.517 228.044 200.041C219.996 188.174 207.071 178.481 192.736 178.775C178.401 179.068 164.419 192.521 167.298 206.562C165.418 203.331 161.129 202.097 157.486 202.919C153.844 203.683 150.73 206.092 148.087 208.735C144.385 212.436 141.095 217.43 142.094 222.541C143.739 230.765 154.314 232.939 162.656 233.291C195.791 234.819 229.16 236.346 261.884 230.941C270.931 229.414 280.566 227.005 286.676 220.132C300.482 204.329 280.86 164.793 259.122 183.651Z" fill="white"/>
    <path d="M37.1681 93.2988L47.508 98.6447L58.7291 95.7074L56.9079 107.163L63.1353 116.974L51.6792 118.736L44.2768 127.724L39.0481 117.326L28.2383 113.096L36.4632 104.931L37.1681 93.2988Z" fill="#FDCC13"/>
    <path d="M106.434 37.0195L112.074 39.8981L118.183 38.3119L117.126 44.5391L120.533 49.8851L114.306 50.825L110.311 55.701L107.491 50.0613L101.616 47.7702L106.081 43.3054L106.434 37.0195Z" fill="#FDCC13"/>
    </svg>
    