<svg width="20" height="20" viewBox="0 0 20 20" fill="none" xmlns="http://www.w3.org/2000/svg">
<path d="M8.26375 1.82495L10.6725 4.2337C10.8839 4.44495 11.0418 4.7037 11.133 4.98835C11.2241 5.27301 11.2459 5.57533 11.1965 5.87011C11.1471 6.16489 11.0279 6.44359 10.8489 6.68296C10.6699 6.92233 10.4363 7.11545 10.1675 7.2462L8.10875 8.2487C7.81116 8.39371 7.58324 8.65085 7.475 8.9637L7 10.3412C6.93079 10.5416 6.81173 10.7211 6.65403 10.8629C6.49633 11.0046 6.30517 11.1039 6.09853 11.1514C5.89189 11.1989 5.67656 11.193 5.4728 11.1344C5.26903 11.0758 5.08354 10.9663 4.93375 10.8162L3.75 9.63245L2.13375 11.2474H1.25V10.3637L2.86625 8.74995L1.68125 7.56495C1.53147 7.41514 1.42223 7.22973 1.36376 7.02612C1.3053 6.82251 1.29955 6.60739 1.34703 6.40094C1.39452 6.1945 1.49369 6.00351 1.63524 5.8459C1.77679 5.6883 1.95607 5.56926 2.15625 5.49995L3.53375 5.02495C3.68922 4.97106 3.83252 4.88701 3.95543 4.77761C4.07834 4.66821 4.17845 4.53562 4.25 4.38745L5.2525 2.3287C5.38325 2.05992 5.57637 1.8263 5.81574 1.64731C6.05511 1.46832 6.33381 1.34914 6.62859 1.29973C6.92337 1.25031 7.22569 1.27209 7.51035 1.36323C7.795 1.45438 8.05375 1.61225 8.265 1.8237L8.26375 1.82495ZM2.5 14.3749V12.4087L3.6925 11.2162L4.23125 11.7537C5.41875 12.9412 7.4375 12.4762 7.98625 10.8899L8.53875 9.28995L10.9025 8.1387C11.3095 7.94064 11.6633 7.64816 11.9344 7.28563C12.2055 6.9231 12.3859 6.50103 12.4608 6.0546C12.5357 5.60817 12.5027 5.15031 12.3647 4.71919C12.2267 4.28807 11.9877 3.89619 11.6675 3.5762L10.5912 2.49995H14.375C15.2038 2.49995 15.9987 2.82919 16.5847 3.41524C17.1708 4.00129 17.5 4.79615 17.5 5.62495V9.99995H13.125C12.2962 9.99995 11.5013 10.3292 10.9153 10.9152C10.3292 11.5013 10 12.2961 10 13.1249V17.4999H5.625C4.7962 17.4999 4.00134 17.1707 3.41529 16.5847C2.82924 15.9986 2.5 15.2038 2.5 14.3749ZM11.25 17.3237C11.6921 17.1686 12.0937 16.9162 12.425 16.5849L16.585 12.4237C16.9156 12.0926 17.1676 11.6915 17.3225 11.2499H13.125C12.6277 11.2499 12.1508 11.4475 11.7992 11.7991C11.4475 12.1508 11.25 12.6277 11.25 13.1249V17.3237Z" fill="#71767B"/>
</svg>
