<svg width="24" height="24" viewBox="0 0 24 24" fill="none" xmlns="http://www.w3.org/2000/svg">
<path d="M12 0C5.38338 0 0 5.38292 0 12C0 18.6171 5.38338 24 12 24C18.6166 24 24 18.6171 24 12C24 5.38292 18.6166 0 12 0ZM12 23.0769C5.89246 23.0769 0.923077 18.1075 0.923077 12C0.923077 5.89246 5.89246 0.923077 12 0.923077C18.1075 0.923077 23.0769 5.89246 23.0769 12C23.0769 18.1075 18.1075 23.0769 12 23.0769Z" fill="#71767B"/>
<path d="M17.7695 11.5385H12.4618V6.46154C12.4618 6.20631 12.2551 6 12.0003 6C11.7455 6 11.5388 6.20631 11.5388 6.46154V11.5385H6.23107C5.9763 11.5385 5.76953 11.7448 5.76953 12C5.76953 12.2552 5.9763 12.4615 6.23107 12.4615H11.5388V18C11.5388 18.2552 11.7455 18.4615 12.0003 18.4615C12.2551 18.4615 12.4618 18.2552 12.4618 18V12.4615H17.7695C18.0243 12.4615 18.2311 12.2552 18.2311 12C18.2311 11.7448 18.0243 11.5385 17.7695 11.5385Z" fill="#71767B"/>
</svg>
