<svg width="13" height="13" viewBox="0 0 13 13" fill="none" xmlns="http://www.w3.org/2000/svg">
    <path fill-rule="evenodd" clip-rule="evenodd" d="M6.23099 0.0769043C6.65583 0.0769043 7.00022 0.421301 7.00022 0.846135V5.46152H11.6156C12.0404 5.46152 12.3848 5.80592 12.3848 6.23075C12.3848 6.65559 12.0404 6.99998 11.6156 6.99998H7.00022V11.6154C7.00022 12.0402 6.65583 12.3846 6.23099 12.3846C5.80616 12.3846 5.46176 12.0402 5.46176 11.6154V6.99998H0.846379C0.421545 6.99998 0.0771484 6.65559 0.0771484 6.23075C0.0771484 5.80592 0.421545 5.46152 0.846379 5.46152H5.46176V0.846135C5.46176 0.421301 5.80616 0.0769043 6.23099 0.0769043Z" fill="#2A2A86"/>
</svg>
