<svg width="22" height="22" viewBox="0 0 22 22" fill="none" xmlns="http://www.w3.org/2000/svg">
    <path fill-rule="evenodd" clip-rule="evenodd" d="M10.9997 3.20833C6.70326 3.20833 3.20801 6.70358 3.20801 11C3.20801 15.2964 6.70326 18.7917 10.9997 18.7917C15.2961 18.7917 18.7913 15.2964 18.7913 11C18.7913 6.70358 15.2961 3.20833 10.9997 3.20833ZM10.9997 20.1667C5.94517 20.1667 1.83301 16.0545 1.83301 11C1.83301 5.9455 5.94517 1.83333 10.9997 1.83333C16.0542 1.83333 20.1663 5.9455 20.1663 11C20.1663 16.0545 16.0542 20.1667 10.9997 20.1667Z" fill="#95A1AC"/>
    <path fill-rule="evenodd" clip-rule="evenodd" d="M10.9998 4.20007C7.25028 4.20007 4.19991 7.25044 4.19991 11C4.19991 14.7496 7.25028 17.7999 10.9998 17.7999C14.7494 17.7999 17.7998 14.7496 17.7998 11C17.7998 7.25044 14.7494 4.20007 10.9998 4.20007ZM10.9999 18.9999C6.58876 18.9999 3 15.4111 3 10.9999C3 6.58878 6.58876 3.00002 10.9999 3.00002C15.4111 3.00002 18.9998 6.58878 18.9998 10.9999C18.9998 15.4111 15.4111 18.9999 10.9999 18.9999Z" fill="#95A1AC"/>
    <path d="M10.9998 3.85007C7.05698 3.85007 3.84991 7.05714 3.84991 11H4.54991C4.54991 7.44374 7.44358 4.55007 10.9998 4.55007V3.85007ZM3.84991 11C3.84991 14.9429 7.05698 18.1499 10.9998 18.1499V17.4499C7.44358 17.4499 4.54991 14.5563 4.54991 11H3.84991ZM10.9998 18.1499C14.9427 18.1499 18.1498 14.9429 18.1498 11H17.4498C17.4498 14.5563 14.5561 17.4499 10.9998 17.4499V18.1499ZM18.1498 11C18.1498 7.05714 14.9427 3.85007 10.9998 3.85007V4.55007C14.5561 4.55007 17.4498 7.44374 17.4498 11H18.1498ZM10.9999 18.6499C6.78206 18.6499 3.35 15.2178 3.35 10.9999H2.65C2.65 15.6044 6.39546 19.3499 10.9999 19.3499V18.6499ZM3.35 10.9999C3.35 6.78208 6.78206 3.35002 10.9999 3.35002V2.65002C6.39546 2.65002 2.65 6.39548 2.65 10.9999H3.35ZM10.9999 3.35002C15.2178 3.35002 18.6498 6.78208 18.6498 10.9999H19.3498C19.3498 6.39548 15.6044 2.65002 10.9999 2.65002V3.35002ZM18.6498 10.9999C18.6498 15.2178 15.2178 18.6499 10.9999 18.6499V19.3499C15.6044 19.3499 19.3498 15.6044 19.3498 10.9999H18.6498Z" fill="white"/>
    <path d="M8.472 10.888L9.848 8.464H10.912L8.928 11.768V14H7.984V11.768C7.82933 11.5067 7.66933 11.2373 7.504 10.96C7.33867 10.6773 7.168 10.3947 6.992 10.112C6.82133 9.82933 6.65067 9.54933 6.48 9.272C6.31467 8.98933 6.15733 8.72 6.008 8.464H7.064L8.472 10.888ZM11.2579 8.464H13.3939C13.7672 8.464 14.1032 8.53867 14.4019 8.688C14.7059 8.832 14.9645 9.02933 15.1779 9.28C15.3912 9.53067 15.5539 9.824 15.6659 10.16C15.7832 10.4907 15.8419 10.8453 15.8419 11.224C15.8419 11.6187 15.7805 11.984 15.6579 12.32C15.5405 12.656 15.3725 12.9493 15.1539 13.2C14.9405 13.4507 14.6819 13.648 14.3779 13.792C14.0792 13.9307 13.7512 14 13.3939 14H11.2579V8.464ZM12.1939 13.192H13.1699C13.4152 13.192 13.6419 13.1493 13.8499 13.064C14.0632 12.9733 14.2472 12.8453 14.4019 12.68C14.5565 12.5093 14.6765 12.304 14.7619 12.064C14.8472 11.8187 14.8899 11.5413 14.8899 11.232C14.8899 10.896 14.8472 10.6053 14.7619 10.36C14.6765 10.1093 14.5565 9.904 14.4019 9.744C14.2472 9.584 14.0632 9.46667 13.8499 9.392C13.6419 9.312 13.4152 9.272 13.1699 9.272H12.1939V13.192Z" fill="#4F687D"/>
</svg>
