<svg width="45" height="38" viewBox="0 0 45 38" fill="none" xmlns="http://www.w3.org/2000/svg">
<path d="M0.5 0.5H43C43.8284 0.5 44.5 1.17157 44.5 2V36C44.5 36.8284 43.8284 37.5 43 37.5H0.5V0.5Z" fill="#F5F5F5"/>
<path d="M24.4058 22H24.058C24.0261 22 24 22.0256 24 22.0568V26.9432C24 26.9744 24.0261 27 24.058 27H24.4058C24.4377 27 24.4638 26.9744 24.4638 26.9432V22.0568C24.4638 22.0256 24.4377 22 24.4058 22ZM30.442 22H30.0942C30.0623 22 30.0362 22.0256 30.0362 22.0568V26.9432C30.0362 26.9744 30.0623 27 30.0942 27H30.442C30.4739 27 30.5 26.9744 30.5 26.9432V22.0568C30.5 22.0256 30.4739 22 30.442 22ZM24.9855 26.0909H25.7971C25.829 26.0909 25.8551 26.0653 25.8551 26.0341V22.0568C25.8551 22.0256 25.829 22 25.7971 22H24.9855C24.9536 22 24.9275 22.0256 24.9275 22.0568V26.0341C24.9275 26.0653 24.9536 26.0909 24.9855 26.0909ZM27.3116 26.0909H27.6594C27.6913 26.0909 27.7174 26.0653 27.7174 26.0341V22.0568C27.7174 22.0256 27.6913 22 27.6594 22H27.3116C27.2797 22 27.2536 22.0256 27.2536 22.0568V26.0341C27.2536 26.0653 27.2797 26.0909 27.3116 26.0909ZM28.2246 26.0909H29.5145C29.5464 26.0909 29.5725 26.0653 29.5725 26.0341V22.0568C29.5725 22.0256 29.5464 22 29.5145 22H28.2246C28.1928 22 28.1667 22.0256 28.1667 22.0568V26.0341C28.1667 26.0653 28.1928 26.0909 28.2246 26.0909ZM26.3768 26.0909H26.7246C26.7565 26.0909 26.7826 26.0653 26.7826 26.0341V22.0568C26.7826 22.0256 26.7565 22 26.7246 22H26.3768C26.3449 22 26.3188 22.0256 26.3188 22.0568V26.0341C26.3188 26.0653 26.3449 26.0909 26.3768 26.0909ZM25.8043 26.5455H24.9928C24.9609 26.5455 24.9348 26.571 24.9348 26.6023V26.9432C24.9348 26.9744 24.9609 27 24.9928 27H25.8043C25.8362 27 25.8623 26.9744 25.8623 26.9432V26.6023C25.8623 26.571 25.8362 26.5455 25.8043 26.5455ZM27.6667 26.5455H27.3188C27.287 26.5455 27.2609 26.571 27.2609 26.6023V26.9432C27.2609 26.9744 27.287 27 27.3188 27H27.6667C27.6986 27 27.7246 26.9744 27.7246 26.9432V26.6023C27.7246 26.571 27.6986 26.5455 27.6667 26.5455ZM29.5217 26.5455H28.2319C28.2 26.5455 28.1739 26.571 28.1739 26.6023V26.9432C28.1739 26.9744 28.2 27 28.2319 27H29.5217C29.5536 27 29.5797 26.9744 29.5797 26.9432V26.6023C29.5797 26.571 29.5536 26.5455 29.5217 26.5455ZM26.7319 26.5455H26.3841C26.3522 26.5455 26.3261 26.571 26.3261 26.6023V26.9432C26.3261 26.9744 26.3522 27 26.3841 27H26.7319C26.7638 27 26.7899 26.9744 26.7899 26.9432V26.6023C26.7899 26.571 26.7638 26.5455 26.7319 26.5455Z" fill="#71767B"/>
<path fill-rule="evenodd" clip-rule="evenodd" d="M15.8737 13.1193C15.8793 13.7639 15.8868 15.234 15.8733 16.2682C15.8676 16.7019 15.9669 16.9836 16.0766 17.1381C16.1738 17.2748 16.287 17.3301 16.4308 17.3301H19.7507L21.6056 12.4258H16.4308C16.26 12.4258 16.1505 12.4974 16.0538 12.6374C15.9501 12.7876 15.892 12.9834 15.8737 13.1193ZM22.2294 17.3301H21.1033L22.9582 12.4258H24.0059L22.2294 17.3301ZM15.0125 11.9181C15.2879 11.5195 15.7521 11.1602 16.4308 11.1602H24.9082C25.1145 11.1602 25.3078 11.2607 25.4263 11.4296C25.5447 11.5985 25.5734 11.8145 25.5032 12.0085L23.2682 18.1784C23.1775 18.4289 22.9396 18.5957 22.6732 18.5957H21.4564C21.545 19.0476 21.6411 19.535 21.7388 20.0301L21.7388 20.0303C22.1138 21.9313 22.5112 23.946 22.5922 24.5032C22.6762 25.0811 22.6732 25.671 22.4033 26.1351C22.0941 26.6668 21.5512 26.8574 20.9828 26.8574H18.5513C18.2566 26.8574 18.0009 26.654 17.9346 26.3668L16.1378 18.5713C15.6897 18.4952 15.3103 18.2447 15.0449 17.8711C14.7359 17.4362 14.5997 16.8665 14.6078 16.2517C14.6214 15.2104 14.6134 13.7117 14.6077 13.0916C14.6075 13.0688 14.6085 13.046 14.6108 13.0232C14.6401 12.728 14.7518 12.2955 15.0125 11.9181ZM17.4422 18.5957L19.0548 25.5918H20.9828C21.2608 25.5918 21.2991 25.5182 21.308 25.501C21.3085 25.5002 21.3088 25.4995 21.3092 25.4989C21.3553 25.4196 21.4137 25.1942 21.3397 24.6852C21.2634 24.1604 20.8819 22.2263 20.5125 20.3535L20.5124 20.3534C20.3923 19.7442 20.2734 19.1414 20.1666 18.5957H17.4422Z" fill="#71767B"/>
<path fill-rule="evenodd" clip-rule="evenodd" d="M27.8506 11.8084C28.0692 11.5357 28.4675 11.4919 28.7402 11.7105C29.9669 12.6939 30.7851 14.4118 30.2645 16.3005C29.7382 18.2096 28.0224 19.1612 26.8557 19.4381C26.5156 19.5188 26.1746 19.3085 26.0939 18.9685C26.0132 18.6284 26.2234 18.2873 26.5635 18.2066C27.471 17.9913 28.6853 17.2667 29.0443 15.9642C29.409 14.6412 28.8487 13.4196 27.9485 12.6979C27.6759 12.4793 27.632 12.0811 27.8506 11.8084Z" fill="#71767B"/>
<path fill-rule="evenodd" clip-rule="evenodd" d="M26.1422 13.3225C26.3702 13.0577 26.7698 13.0279 27.0346 13.2559C27.7025 13.831 27.9315 14.7482 27.7151 15.533C27.4727 16.4126 26.8667 17.0247 26.104 17.2584C25.7698 17.3608 25.4159 17.173 25.3135 16.8388C25.2111 16.5047 25.399 16.1508 25.7331 16.0484C26.0603 15.9481 26.3615 15.6813 26.495 15.1967C26.5907 14.8496 26.4799 14.4484 26.2088 14.215C25.9439 13.9869 25.9141 13.5874 26.1422 13.3225Z" fill="#71767B"/>
<path d="M0.5 0.5H43C43.8284 0.5 44.5 1.17157 44.5 2V36C44.5 36.8284 43.8284 37.5 43 37.5H0.5V0.5Z" stroke="#DFDFDF"/>
</svg>
