<svg width="19" height="18" viewBox="0 0 19 18" fill="none" xmlns="http://www.w3.org/2000/svg">
<path d="M9.99944 11H9.57135C9.53211 11 9.5 11.0307 9.5 11.0682V16.9318C9.5 16.9693 9.53211 17 9.57135 17H9.99944C10.0387 17 10.0708 16.9693 10.0708 16.9318V11.0682C10.0708 11.0307 10.0387 11 9.99944 11ZM17.4287 11H17.0006C16.9613 11 16.9292 11.0307 16.9292 11.0682V16.9318C16.9292 16.9693 16.9613 17 17.0006 17H17.4287C17.4679 17 17.5 16.9693 17.5 16.9318V11.0682C17.5 11.0307 17.4679 11 17.4287 11ZM10.7129 15.9091H11.7118C11.7511 15.9091 11.7832 15.8784 11.7832 15.8409V11.0682C11.7832 11.0307 11.7511 11 11.7118 11H10.7129C10.6737 11 10.6416 11.0307 10.6416 11.0682V15.8409C10.6416 15.8784 10.6737 15.9091 10.7129 15.9091ZM13.5758 15.9091H14.0039C14.0431 15.9091 14.0753 15.8784 14.0753 15.8409V11.0682C14.0753 11.0307 14.0431 11 14.0039 11H13.5758C13.5366 11 13.5045 11.0307 13.5045 11.0682V15.8409C13.5045 15.8784 13.5366 15.9091 13.5758 15.9091ZM14.6996 15.9091H16.2871C16.3263 15.9091 16.3584 15.8784 16.3584 15.8409V11.0682C16.3584 11.0307 16.3263 11 16.2871 11H14.6996C14.6603 11 14.6282 11.0307 14.6282 11.0682V15.8409C14.6282 15.8784 14.6603 15.9091 14.6996 15.9091ZM12.4253 15.9091H12.8534C12.8926 15.9091 12.9247 15.8784 12.9247 15.8409V11.0682C12.9247 11.0307 12.8926 11 12.8534 11H12.4253C12.3861 11 12.354 11.0307 12.354 11.0682V15.8409C12.354 15.8784 12.3861 15.9091 12.4253 15.9091ZM11.7207 16.4545H10.7219C10.6826 16.4545 10.6505 16.4852 10.6505 16.5227V16.9318C10.6505 16.9693 10.6826 17 10.7219 17H11.7207C11.76 17 11.7921 16.9693 11.7921 16.9318V16.5227C11.7921 16.4852 11.76 16.4545 11.7207 16.4545ZM14.0128 16.4545H13.5847C13.5455 16.4545 13.5134 16.4852 13.5134 16.5227V16.9318C13.5134 16.9693 13.5455 17 13.5847 17H14.0128C14.0521 17 14.0842 16.9693 14.0842 16.9318V16.5227C14.0842 16.4852 14.0521 16.4545 14.0128 16.4545ZM16.296 16.4545H14.7085C14.6692 16.4545 14.6371 16.4852 14.6371 16.5227V16.9318C14.6371 16.9693 14.6692 17 14.7085 17H16.296C16.3352 17 16.3673 16.9693 16.3673 16.9318V16.5227C16.3673 16.4852 16.3352 16.4545 16.296 16.4545ZM12.8623 16.4545H12.4342C12.395 16.4545 12.3629 16.4852 12.3629 16.5227V16.9318C12.3629 16.9693 12.395 17 12.4342 17H12.8623C12.9016 17 12.9337 16.9693 12.9337 16.9318V16.5227C12.9337 16.4852 12.9016 16.4545 12.8623 16.4545Z" fill="#757575"/>
<path fill-rule="evenodd" clip-rule="evenodd" d="M2.87365 3.11929C2.87934 3.76386 2.88679 5.234 2.87327 6.26819C2.86761 6.70187 2.96691 6.98365 3.07664 7.13808C3.17381 7.27484 3.28702 7.33008 3.43078 7.33008H6.75065L8.60559 2.42578H3.43078C3.25996 2.42578 3.15053 2.49743 3.05385 2.63742C2.95011 2.78761 2.89204 2.98345 2.87365 3.11929ZM9.22942 7.33008H8.10328L9.95822 2.42578H11.0059L9.22942 7.33008ZM2.01247 1.91814C2.28785 1.51945 2.75215 1.16016 3.43078 1.16016H11.9082C12.1145 1.16016 12.3078 1.26071 12.4263 1.4296C12.5447 1.5985 12.5734 1.81453 12.5032 2.00849L10.2682 8.17841C10.1775 8.42888 9.93963 8.5957 9.67324 8.5957H8.45637C8.5 9.25 8.45637 8.25 8.45637 10C8.45637 11.75 8.25 13.5 8.25 14.473C8.25 15.4461 8.33098 15.6408 8.0611 16.105C7.75196 16.6366 7.20907 16.8273 6.64063 16.8273H4.20912C3.91439 16.8273 3.65868 16.6238 3.59248 16.3366L3.13775 8.57133C2.68971 8.49525 2.31035 8.24472 2.04491 7.87113C1.73591 7.43621 1.59972 6.8665 1.60776 6.25165C1.62136 5.21039 1.61343 3.71165 1.60773 3.09161C1.60752 3.06878 1.60855 3.04595 1.6108 3.02323C1.64013 2.72802 1.75181 2.29554 2.01247 1.91814ZM4.44218 8.5957L4.71266 15.5617H6.64063C6.91861 15.5617 6.9569 15.4881 6.96585 15.4709L6.96699 15.4688C7.01311 15.3895 6.99562 15.1646 6.99754 14.6551C7 14 7.10326 12.0978 7.16665 10.25C7.19527 9.41582 7.16665 9.13299 7.16665 8.5957H4.44218Z" fill="#757575"/>
<path fill-rule="evenodd" clip-rule="evenodd" d="M14.8506 1.81034C15.0692 1.53766 15.4675 1.49381 15.7402 1.71241C16.9669 2.69586 17.7851 4.41371 17.2645 6.30245C16.7382 8.21153 15.0224 9.16319 13.8557 9.44003C13.5156 9.52072 13.1746 9.31047 13.0939 8.97042C13.0132 8.63037 13.2234 8.28929 13.5635 8.2086C14.471 7.99326 15.6853 7.26869 16.0443 5.96612C16.409 4.6432 15.8487 3.42153 14.9485 2.6999C14.6759 2.4813 14.632 2.08303 14.8506 1.81034Z" fill="#757575"/>
<path fill-rule="evenodd" clip-rule="evenodd" d="M13.1422 3.32251C13.3702 3.05768 13.7698 3.02786 14.0346 3.25591C14.7025 3.83103 14.9315 4.74821 14.7151 5.53303C14.4727 6.41263 13.8667 7.02472 13.104 7.25844C12.7698 7.36085 12.4159 7.17297 12.3135 6.83882C12.2111 6.50466 12.399 6.15077 12.7331 6.04836C13.0603 5.94811 13.3615 5.68129 13.495 5.1967C13.5907 4.84962 13.4799 4.44844 13.2088 4.21496C12.9439 3.98691 12.9141 3.58735 13.1422 3.32251Z" fill="#757575"/>
</svg>
