<svg width="20" height="20" viewBox="0 0 20 20" fill="none" xmlns="http://www.w3.org/2000/svg">
<path d="M15.8333 1.66675H4.16667C3.72464 1.66675 3.30072 1.84234 2.98816 2.1549C2.67559 2.46746 2.5 2.89139 2.5 3.33341V14.1667C2.5 14.6088 2.67559 15.0327 2.98816 15.3453C3.30072 15.6578 3.72464 15.8334 4.16667 15.8334H7.5L10 18.3334L12.5 15.8334H15.8333C16.2754 15.8334 16.6993 15.6578 17.0118 15.3453C17.3244 15.0327 17.5 14.6088 17.5 14.1667V3.33341C17.5 2.89139 17.3244 2.46746 17.0118 2.1549C16.6993 1.84234 16.2754 1.66675 15.8333 1.66675ZM10 4.16675C11.4392 4.16675 12.5 5.22675 12.5 6.66675C12.5 8.10675 11.4392 9.16675 10 9.16675C8.56167 9.16675 7.5 8.10675 7.5 6.66675C7.5 5.22675 8.56167 4.16675 10 4.16675ZM5.98083 13.3334C6.44583 11.8976 8.06083 10.8334 10 10.8334C11.9392 10.8334 13.555 11.8976 14.0192 13.3334H5.98083Z" fill="#5F5F5F"/>
</svg>
