<svg width="18" height="17" viewBox="0 0 18 17" fill="none" xmlns="http://www.w3.org/2000/svg">
<path d="M12.6675 7.52031C13.967 7.32807 14.9678 6.15418 14.9703 4.73338C14.9703 3.33309 14.0003 2.17116 12.7284 1.95159M14.382 10.8101C15.641 11.0075 16.52 11.4722 16.52 12.4291C16.52 13.0878 16.1061 13.515 15.4372 13.7824M7.07362 11.2156C10.068 11.2156 12.6272 11.6932 12.6272 13.601C12.6272 15.5087 10.085 16 7.07362 16C4.07847 16 1.52002 15.5267 1.52002 13.618C1.52002 11.7094 4.06143 11.2156 7.07362 11.2156ZM7.07362 8.49274C5.1077 8.49274 3.51354 6.81563 3.51354 4.74637C3.51354 2.67711 5.1077 1 7.07362 1C9.03873 1 10.6329 2.67711 10.6329 4.74637C10.6402 6.80794 9.0574 8.48505 7.09878 8.49274H7.07362Z" stroke="#71767B" stroke-width="1.5" stroke-linecap="round" stroke-linejoin="round"/>
</svg>
