<svg width="60" height="60" viewBox="0 0 60 60" fill="none" xmlns="http://www.w3.org/2000/svg">
<path d="M60 30C60 46.5685 46.5685 60 30 60C13.4315 60 0 46.5685 0 30C0 13.4315 13.4315 0 30 0C46.5685 0 60 13.4315 60 30Z" fill="url(#paint0_linear_937:2999)"/>
<path d="M37.4375 35.7272C38.0243 35.7272 38.5 35.2591 38.5 34.6817C38.5 34.1043 38.0243 33.6362 37.4375 33.6362C36.8507 33.6362 36.375 34.1043 36.375 34.6817C36.375 35.2591 36.8507 35.7272 37.4375 35.7272Z" fill="white"/>
<path d="M31.0625 27.3638C31.6493 27.3638 32.125 26.8957 32.125 26.3184C32.125 25.741 31.6493 25.2729 31.0625 25.2729C30.4757 25.2729 30 25.741 30 26.3184C30 26.8957 30.4757 27.3638 31.0625 27.3638Z" fill="white"/>
<path d="M44.875 19H24.6875C24.4019 19 24.1363 19.1111 23.9371 19.3071L22.5625 20.6597L21.1879 19.3071C20.9887 19.1111 20.7164 19 20.4375 19H15.125C13.9563 19 13 19.9409 13 21.0909V39.9091C13 41.0656 13.9563 42 15.125 42H20.4375C20.7231 42 20.9887 41.8889 21.1879 41.6929L22.5625 40.3403L23.9371 41.6929C24.1363 41.8889 24.4086 42 24.6875 42H44.875C46.0504 42 47 41.0656 47 39.9091V21.0909C47 19.9409 46.0504 19 44.875 19ZM23.625 37.8182H21.5V35.7273H23.625V37.8182ZM23.625 33.6363H21.5V31.5455H23.625V33.6363ZM23.625 29.4545H21.5V27.3637H23.625V29.4545ZM23.625 25.2727H21.5V23.1818H23.625V25.2727ZM31.0625 23.1818C32.8223 23.1818 34.25 24.5867 34.25 26.3182C34.25 28.0497 32.8223 29.4545 31.0625 29.4545C29.3027 29.4545 27.875 28.0497 27.875 26.3182C27.875 24.5867 29.3027 23.1818 31.0625 23.1818ZM28.9375 37.8182C28.6985 37.8182 28.4594 37.7398 28.2601 37.5764C27.8086 37.204 27.7488 36.5506 28.1273 36.1063L38.7523 23.5608C39.1309 23.1165 39.8015 23.0642 40.2465 23.4301C40.6981 23.8025 40.7578 24.4559 40.3793 24.9068L29.7543 37.4523C29.5418 37.6875 29.243 37.8182 28.9375 37.8182ZM37.4375 37.8182C35.6777 37.8182 34.25 36.4133 34.25 34.6818C34.25 32.9503 35.6777 31.5455 37.4375 31.5455C39.1973 31.5455 40.625 32.9503 40.625 34.6818C40.625 36.4133 39.1973 37.8182 37.4375 37.8182Z" fill="white"/>
<defs>
<linearGradient id="paint0_linear_937:2999" x1="20" y1="49.7369" x2="70.104" y2="27.1275" gradientUnits="userSpaceOnUse">
<stop stop-color="#0088FF"/>
<stop offset="1" stop-color="#33A0FF"/>
</linearGradient>
</defs>
</svg>
