<svg width="57" height="24" viewBox="0 0 57 24" fill="none" xmlns="http://www.w3.org/2000/svg">
<path d="M11.6406 6.01074C10.785 6.01074 9.92936 6.01074 9.07375 6.01074C8.86248 6.01074 8.86248 6.06356 8.86248 6.222C8.86248 8.10225 8.86248 9.98249 8.86248 11.8627C8.87305 11.9789 8.87305 12.0951 8.86248 12.2113C8.76741 13.838 7.36251 15.0845 5.73579 14.9894C4.10907 14.8944 2.86261 13.4895 2.95768 11.8627C2.95768 9.99305 2.95768 8.12337 2.95768 6.25369C2.95768 6.10581 2.92599 6.05299 2.76754 6.05299C1.92249 6.05299 1.07744 6.05299 0.232389 6.05299C0 6.05299 0 6.09525 0 6.28538V11.9684C0 12.243 0.0211263 12.5176 0.0528157 12.7923C0.443652 15.6021 2.76754 17.7464 5.60903 17.8943C6.55972 17.9788 7.5104 17.7358 8.30264 17.1971L8.84136 16.7957C8.84136 17.1971 8.85192 17.6513 8.84136 18.0633C8.82023 18.7499 8.54559 19.4048 8.04912 19.8802C7.36251 20.5562 6.38014 20.8625 5.42946 20.7041C4.04569 20.5668 2.95768 19.4576 2.84149 18.0739C2.83092 17.9154 2.77811 17.9154 2.66191 17.9154C1.83799 17.9154 1.0035 17.9154 0.16901 17.9154C0 17.9154 0 17.9577 0 18.095C0.0105631 18.5069 0.0739421 18.9083 0.158447 19.3097C0.73942 22.0773 3.20063 24.042 6.021 23.9998C9.28501 23.9575 11.8835 21.2745 11.8413 18.0105C11.8413 14.0704 11.8413 10.1409 11.8413 6.20088C11.8413 6.01074 11.7885 6.01074 11.6406 6.01074Z" fill="#12016E"/>
<path d="M24.5315 0H21.9541C21.7429 0 21.7429 0.0422526 21.7429 0.211263V6.47521C21.764 6.54915 21.764 6.64422 21.7429 6.71816L21.6372 6.63366C19.8204 5.39777 17.4331 5.39777 15.6162 6.63366C13.9367 7.62659 12.8592 9.39064 12.7536 11.3448C12.7325 11.4927 12.8064 11.4927 12.9121 11.4927C13.8099 11.4927 14.7184 11.4927 15.6162 11.4927C15.7535 11.4927 15.8169 11.4505 15.8169 11.3237C15.9331 10.6054 16.3134 9.95049 16.8732 9.49627C17.2852 9.15825 17.7711 8.93642 18.2887 8.84136C19.9366 8.55615 21.5105 9.66528 21.7957 11.3131C22.0809 12.961 20.9717 14.5349 19.3239 14.8201C17.676 15.1053 16.1021 13.9962 15.8169 12.3483C15.7958 12.1793 15.7535 12.1793 15.6162 12.1793H13.0599C12.7642 12.1793 12.7642 12.1793 12.7642 12.4962C12.9543 14.5032 14.1479 16.2672 15.9331 17.1968C16.9894 17.7778 18.2042 17.9785 19.3978 17.7883C20.2112 17.6616 20.9823 17.3553 21.6583 16.8905C21.7745 16.806 21.7957 16.7532 21.8802 16.9539C21.9647 17.1546 22.0703 17.3553 22.1548 17.5665C22.1971 17.6616 22.2921 17.725 22.3978 17.7144H24.5421C24.7322 17.7144 24.7322 17.6616 24.7322 17.5137C24.7322 11.7462 24.7322 5.97874 24.7322 0.211263C24.7322 0 24.7005 0 24.5315 0Z" fill="#FEA601"/>
<path d="M36.3955 12.7284H38.0962L37.2406 10.415L36.3955 12.7284Z" fill="#12016E"/>
<path d="M32.4085 10.0667C32.2606 10.035 31.9543 10.0244 31.5106 10.0244H30.8979V11.7885H31.5846C32.081 11.7885 32.4085 11.7568 32.5775 11.6934C32.7465 11.63 32.8733 11.5244 32.9683 11.3871C33.0634 11.2497 33.1056 11.0913 33.1056 10.9012C33.1056 10.6793 33.0423 10.4892 32.9049 10.3413C32.7782 10.1934 32.6092 10.0984 32.4085 10.0667Z" fill="#12016E"/>
<path d="M53.9896 6.05273L27.6654 6.05283C26.4718 6.05283 25.5 7.02464 25.5 8.21827V15.6864C25.5 16.8801 26.4718 17.8519 27.6654 17.8519H28.7746C28.8063 20.0068 27.2429 20.9152 27.2429 20.9152C31.1618 21.7285 32.8519 18.8659 33.3167 17.8519L54.0002 17.8518C55.1938 17.8518 56.1656 16.88 56.1656 15.6863V8.21818C56.1551 7.02454 55.1938 6.05273 53.9896 6.05273ZM33.6653 12.4541C33.4541 12.602 33.2322 12.697 33.0104 12.7499C32.7146 12.8132 32.2815 12.8344 31.7111 12.8344H30.8978V15.1794H29.6408V8.96826H31.6583C32.4189 8.96826 32.9153 8.99995 33.1477 9.06333C33.5069 9.15839 33.8026 9.35909 34.0456 9.67599C34.2885 9.99288 34.4047 10.3943 34.4047 10.8908C34.4047 11.271 34.3308 11.5879 34.1935 11.852C34.0562 12.1055 33.8766 12.3062 33.6653 12.4541ZM39.0208 15.1794L38.4821 13.7639H35.9998L35.4822 15.1794H34.1512L36.5702 8.96826H37.9011L40.3835 15.1794H39.0208ZM46.6474 14.3238C46.3833 14.5773 46.0031 14.7991 45.5066 14.9998C45.0101 15.19 44.5031 15.285 43.9961 15.285C43.3517 15.285 42.7813 15.1477 42.2954 14.8731C41.8095 14.5984 41.4504 14.2076 41.2074 13.7005C40.9645 13.1935 40.8377 12.6442 40.8377 12.0421C40.8377 11.3978 40.975 10.8168 41.2497 10.3203C41.5243 9.81331 41.9151 9.43304 42.4433 9.15839C42.8447 8.9577 43.3412 8.85206 43.9327 8.85206C44.7038 8.85206 45.3059 9.01051 45.739 9.33797C46.1721 9.66543 46.4467 10.1091 46.5735 10.6795L45.327 10.9119C45.2425 10.6055 45.0735 10.3626 44.8306 10.1936C44.5876 10.014 44.2918 9.9295 43.9221 9.9295C43.3729 9.9295 42.9398 10.0985 42.6123 10.4471C42.2848 10.7957 42.1264 11.3133 42.1264 11.9893C42.1264 12.7287 42.2848 13.278 42.6229 13.6477C42.9503 14.0174 43.3834 14.197 43.9116 14.197C44.1756 14.197 44.4397 14.1442 44.7038 14.0386C44.9679 13.9329 45.1897 13.8062 45.3798 13.6583V12.8661H43.9433V11.8203H46.6474V14.3238ZM52.5205 15.1794H47.7988V8.96826H52.4043V10.014H49.0558V11.3872H52.172V12.433H49.0558V14.1231H52.5205V15.1794Z" fill="#12016E"/>
</svg>
