<svg width="94" height="24" viewBox="0 0 94 24" fill="none" xmlns="http://www.w3.org/2000/svg">
<path d="M47.984 6.24545V11.9441C47.9519 13.5982 46.5936 14.9108 44.9358 14.8788C43.2781 14.8467 41.9626 13.4914 41.9947 11.8374C41.9947 9.96983 41.9947 8.09163 41.9947 6.2241C41.9947 6 41.9412 6 41.7594 6C40.9251 6 40.0802 6 39.246 6C39.0107 6 39.0107 6.06403 39.0107 6.24545V11.9227C39.0107 12.6057 39.1176 13.2994 39.3209 13.9503C40.123 16.2447 42.2299 17.8348 44.6684 17.9735C45.6952 18.0589 46.7219 17.7708 47.5455 17.1625L47.9626 16.8317V17.8561C47.9733 18.2723 47.9091 18.6885 47.7701 19.0727C47.3209 20.0651 46.3904 20.7588 45.2995 20.8762C43.5989 21.0683 42.0695 19.8517 41.877 18.1656C41.8663 18.0375 41.7914 18.0375 41.7059 18.0375C40.861 18.0375 40.0053 18.0375 39.1604 18.0375C39 18.0375 39 18.0909 39 18.2083C39.0107 18.5711 39.0535 18.9233 39.1283 19.2754C39.6417 21.6766 41.5775 23.5121 44.0053 23.9176C47.2674 24.4618 50.3476 22.2528 50.893 18.998C50.9358 18.7739 50.9893 18.5498 50.9893 18.3257L51 6C50.0695 6 49.1497 6 48.2192 6C47.984 6 47.984 6.05336 47.984 6.24545Z" fill="#FEA601"/>
<path d="M11.7961 6C10.9291 6 10.062 6 9.19497 6C8.98088 6 8.98088 6.05285 8.98088 6.21138C8.98088 8.0927 8.98088 9.97402 8.98088 11.8553C8.99159 11.9716 8.99159 12.0879 8.98088 12.2041C8.88454 13.8318 7.46088 15.0789 5.81242 14.9838C4.16396 14.8887 2.90086 13.483 2.9972 11.8553C2.9972 9.98458 2.9972 8.11384 2.9972 6.24309C2.9972 6.09512 2.96508 6.04228 2.80452 6.04228C1.94818 6.04228 1.09184 6.04228 0.235494 6.04228C0 6.04228 0 6.08455 0 6.2748V11.961C0 12.2358 0.0214085 12.5106 0.0535213 12.7854C0.449579 15.5968 2.80452 17.7424 5.68397 17.8903C6.64735 17.9749 7.61073 17.7318 8.41356 17.1928L8.95947 16.7911C8.95947 17.1928 8.97018 17.6472 8.95947 18.0594C8.93806 18.7464 8.65975 19.4017 8.15665 19.8773C7.46088 20.5538 6.46538 20.8603 5.50199 20.7017C4.09973 20.5643 2.9972 19.4546 2.87945 18.07C2.86874 17.9115 2.81522 17.9115 2.69748 17.9115C1.86254 17.9115 1.01691 17.9115 0.171268 17.9115C0 17.9115 0 17.9538 0 18.0912C0.0107043 18.5034 0.0749299 18.905 0.160564 19.3066C0.749299 22.0757 3.24339 24.0416 6.10143 23.9993C9.40905 23.9571 12.0423 21.2725 11.9995 18.0066C11.9995 14.0643 11.9995 10.1326 11.9995 6.19025C11.9995 6 11.946 6 11.7961 6Z" fill="#12016E"/>
<path d="M37.799 0H35.2178C35.0062 0 35.0062 0.0425889 35.0062 0.212944V6.52675C35.0273 6.60128 35.0273 6.6971 35.0062 6.77163L34.9004 6.68645C33.0808 5.44073 30.69 5.44073 28.8705 6.68645C27.1884 7.68729 26.1094 9.46538 26.0036 11.4351C25.9825 11.5842 26.0565 11.5842 26.1623 11.5842C27.0615 11.5842 27.9713 11.5842 28.8705 11.5842C29.008 11.5842 29.0715 11.5416 29.0715 11.4138C29.1878 10.6898 29.5687 10.0297 30.1294 9.57185C30.5419 9.23114 31.0286 9.00755 31.5469 8.91172C33.1972 8.62425 34.7735 9.74221 35.0591 11.4032C35.3447 13.0641 34.2339 14.6506 32.5836 14.9381C30.9333 15.2255 29.3571 14.1076 29.0715 12.4466C29.0503 12.2762 29.008 12.2762 28.8705 12.2762H26.3104C26.0142 12.2762 26.0142 12.2762 26.0142 12.5957C26.2046 14.6186 27.4 16.3967 29.1878 17.3337C30.2457 17.9193 31.4623 18.1216 32.6577 17.9299C33.4723 17.8022 34.2445 17.4934 34.9216 17.0249C35.0379 16.9397 35.0591 16.8865 35.1437 17.0888C35.2283 17.2911 35.3341 17.4934 35.4188 17.7063C35.4611 17.8022 35.5563 17.866 35.6621 17.8554H37.8096C38 17.8554 38 17.8022 38 17.6531C38 11.8397 38 6.02633 38 0.212944C38 0 37.9683 0 37.799 0Z" fill="#FEA601"/>
<path d="M24.8333 12.3385C23.937 12.3385 23.0304 12.3385 22.1237 12.3385C22.0091 12.3385 21.957 12.3803 21.957 12.495C21.7486 13.7575 20.7585 14.7383 19.508 14.947C17.8823 15.2183 16.3504 14.1227 16.0794 12.495C15.8084 10.8673 16.9027 9.33356 18.5284 9.06228C20.1541 8.791 21.686 9.88656 21.957 11.5143C21.9778 11.6708 22.0195 11.6708 22.1446 11.6708H23.4681H24.802C24.9583 11.6708 24.9583 11.6186 24.9583 11.4934L24.8958 11.003C24.4268 8.2067 22.0612 6.11991 19.237 6.00514C15.9335 5.8695 13.1406 8.43624 13.0051 11.7542C12.8697 15.0618 15.4333 17.8581 18.7472 17.9937C21.9674 18.1398 24.7186 15.7191 25 12.5055C25 12.3385 24.9583 12.3385 24.8333 12.3385Z" fill="#12016E"/>
<path d="M63 13H64L63.4969 10L63 13Z" fill="#12016E"/>
<path fill-rule="evenodd" clip-rule="evenodd" d="M91.842 6H54.1475C52.9638 6 52 6.97143 52 8.16459V15.6298C52 16.8229 52.9638 17.7944 54.1475 17.7944H55.2475C55.2789 19.9484 53.7285 20.8565 53.7285 20.8565C57.615 21.6695 59.2912 18.808 59.7521 17.7944L91.8525 17.7944C93.0362 17.7944 94 16.8229 94 15.6298V8.16459C93.9895 6.97143 93.0362 6 91.842 6Z" fill="#12016E"/>
<path d="M58.4344 9.08417H59.6913V12.9399C59.6913 13.3888 59.5904 13.7669 59.3886 14.0741C59.1896 14.3814 58.9136 14.6126 58.5605 14.7675C58.2102 14.9225 57.8066 15 57.3498 15C56.893 15 56.4867 14.9225 56.1308 14.7675C55.7777 14.6126 55.5002 14.3814 55.2985 14.0741C55.0995 13.7669 55 13.3888 55 12.9399V9.08417H56.2611V12.9399C56.2611 13.2017 56.3045 13.4155 56.3914 13.5812C56.4783 13.7468 56.603 13.8684 56.7655 13.9459C56.9309 14.0234 57.1256 14.0621 57.3498 14.0621C57.5796 14.0621 57.7744 14.0234 57.9341 13.9459C58.0967 13.8684 58.22 13.7468 58.3041 13.5812C58.3909 13.4155 58.4344 13.2017 58.4344 12.9399V9.08417Z" fill="#F3F9FF"/>
<path d="M65.7109 9.08417V14.9198H64.4498L61.9907 11.008V14.9198H60.7296V9.08417H61.9907L64.454 13V9.08417H65.7109Z" fill="#F3F9FF"/>
<path d="M68.149 9.08417V14.9198H66.8921V9.08417H68.149Z" fill="#F3F9FF"/>
<path d="M72.8781 12.984H74.135C74.1098 13.3768 73.9963 13.7255 73.7945 14.0301C73.5955 14.3347 73.3167 14.5725 72.958 14.7435C72.6021 14.9145 72.1733 15 71.6716 15C71.2793 15 70.9276 14.9359 70.6165 14.8076C70.3055 14.6767 70.0392 14.4896 69.8178 14.2465C69.5993 14.0033 69.4325 13.7094 69.3176 13.3647C69.2027 13.02 69.1453 12.6339 69.1453 12.2064V11.8016C69.1453 11.3741 69.2041 10.988 69.3218 10.6433C69.4423 10.2959 69.6133 10.0007 69.8347 9.75752C70.0589 9.51436 70.3265 9.32732 70.6376 9.19639C70.9486 9.06546 71.2961 9 71.6801 9C72.1901 9 72.6203 9.08818 72.9706 9.26453C73.3237 9.44088 73.5969 9.68403 73.7903 9.99399C73.9865 10.3039 74.1042 10.6566 74.1434 11.0521H72.8823C72.8683 10.817 72.8192 10.6179 72.7352 10.4549C72.6511 10.2892 72.5236 10.165 72.3526 10.0822C72.1845 9.99666 71.9603 9.95391 71.6801 9.95391C71.4699 9.95391 71.2863 9.99132 71.1294 10.0661C70.9724 10.1409 70.8407 10.2545 70.7342 10.4068C70.6277 10.5591 70.5479 10.7515 70.4946 10.984C70.4442 11.2138 70.419 11.4836 70.419 11.7936V12.2064C70.419 12.5083 70.4428 12.7742 70.4904 13.004C70.5381 13.2311 70.6109 13.4235 70.709 13.5812C70.8099 13.7361 70.9388 13.8537 71.0958 13.9339C71.2555 14.0114 71.4475 14.0501 71.6716 14.0501C71.9351 14.0501 72.1523 14.01 72.3232 13.9299C72.4942 13.8497 72.6245 13.7308 72.7142 13.5731C72.8066 13.4155 72.8613 13.2191 72.8781 12.984Z" fill="#F3F9FF"/>
<path d="M79.0448 11.4609V12.3988H75.8501V11.4609H79.0448ZM76.2242 9.08417V14.9198H74.9631V9.08417H76.2242ZM79.9444 9.08417V14.9198H78.6875V9.08417H79.9444Z" fill="#F3F9FF"/>
<path d="M83.6058 10.0822L81.9412 14.9198H80.6002L82.8744 9.08417H83.7277L83.6058 10.0822ZM84.9888 14.9198L83.3199 10.0822L83.1854 9.08417H84.0472L86.334 14.9198H84.9888ZM84.9131 12.7475V13.6894H81.6805V12.7475H84.9131Z" fill="#F3F9FF"/>
<path d="M89.1168 9.08417V14.9198H87.8599V9.08417H89.1168ZM91 9.08417V10.0261H86.0061V9.08417H91Z" fill="#F3F9FF"/>
</svg>
