<svg width="1025" height="480" viewBox="0 0 1025 480" fill="none" xmlns="http://www.w3.org/2000/svg">
<path d="M379.878 299.503C368.087 299.529 356.54 296.135 346.63 289.733C336.721 283.33 328.871 274.191 324.027 263.418C319.183 252.645 317.553 240.698 319.332 229.018C321.112 217.337 326.225 206.422 334.055 197.588C341.886 188.754 352.099 182.378 363.464 179.23C374.829 176.082 386.86 176.296 398.106 179.845C409.352 183.395 419.334 190.129 426.847 199.235C434.361 208.341 439.085 219.431 440.451 231.168H501.82C499.979 199.299 485.814 169.404 462.333 147.832C438.853 126.26 407.906 114.709 376.064 115.632C344.222 116.556 313.994 129.88 291.797 152.776C269.6 175.673 257.184 206.338 257.184 238.26C257.184 270.182 269.6 300.847 291.797 323.743C313.994 346.64 344.222 359.964 376.064 360.887C407.906 361.81 438.853 350.26 462.333 328.687C485.814 307.115 499.979 277.221 501.82 245.352H440.674C438.937 260.282 431.782 274.05 420.571 284.035C409.36 294.021 394.877 299.526 379.878 299.503Z" fill="#2A2A86"/>
<path d="M178.775 122.705V242.988C178.775 274.456 150.88 299.95 119.478 299.95C88.0755 299.95 59.9251 274.36 59.9251 242.988V122.705H0.5V242.988C0.499999 258.644 3.57768 274.146 9.55726 288.61C15.5368 303.073 24.3012 316.215 35.3497 327.284C46.3982 338.353 59.5144 347.132 73.9493 353.12C88.3841 359.109 103.855 362.189 119.478 362.184C142.145 362.184 159.583 356.402 178.775 338.799V362.536C178.775 394.004 154.036 419.498 119.478 419.498C84.9193 419.498 57.4703 393.94 57.4703 362.536H0.5C1.01099 393.815 13.7691 423.64 36.0232 445.579C58.2773 467.518 88.2442 479.813 119.462 479.813C150.679 479.813 180.646 467.518 202.9 445.579C225.154 423.64 237.912 393.815 238.423 362.536V122.929L178.775 122.705Z" fill="#2A2A86"/>
<path d="M964.853 122.705V242.988C964.853 274.456 936.958 299.95 905.556 299.95C874.154 299.95 846.003 274.392 846.003 242.988V122.705H786.578V242.988C786.578 258.644 789.656 274.146 795.635 288.61C801.615 303.073 810.379 316.215 821.428 327.284C832.476 338.353 845.593 347.132 860.027 353.12C874.462 359.109 889.933 362.189 905.556 362.184C928.223 362.184 945.661 356.402 964.853 338.799V362.536C964.853 394.004 940.114 419.498 905.556 419.498C870.997 419.498 843.548 393.94 843.548 362.536H786.578C787.089 393.815 799.847 423.64 822.101 445.579C844.355 467.518 874.322 479.813 905.54 479.813C936.757 479.813 966.724 467.518 988.978 445.579C1011.23 423.64 1023.99 393.815 1024.5 362.536V122.929L964.853 122.705Z" fill="#FCAF17"/>
<path d="M702.6 0.1875V136.636C684.42 123.22 662.469 115.917 639.892 115.774C576.131 115.774 524.293 166.89 520.723 231.201H581.806C583.608 215.608 591.292 201.296 603.284 191.197C615.275 181.097 630.666 175.975 646.304 176.88C661.942 177.785 676.643 184.647 687.396 196.062C698.148 207.477 704.138 222.58 704.138 238.277C704.138 253.974 698.148 269.077 687.396 280.492C676.643 291.907 661.942 298.769 646.304 299.674C630.666 300.579 615.275 295.457 603.284 285.357C591.292 275.258 583.608 260.946 581.806 245.353H520.723C524.325 309.696 576.29 360.748 639.892 360.748C662.647 360.339 684.715 352.86 703.047 339.343L711.718 357.937H762.44V0.1875H702.6Z" fill="#FCAF17"/>
</svg>
