<svg xmlns="http://www.w3.org/2000/svg" width="120" height="83" fill="none"><g clip-path="url(#A)"><g fill="#fff"><path d="M44.586 41.112a7.17 7.17 0 0 1-3.907-1.148 7.18 7.18 0 0 1-2.656-3.093 7.21 7.21 0 0 1-.552-4.043c.209-1.373.81-2.656 1.73-3.694a7.18 7.18 0 0 1 3.456-2.157 7.17 7.17 0 0 1 4.071.072 7.18 7.18 0 0 1 3.378 2.279 7.21 7.21 0 0 1 1.599 3.753h7.212a14.43 14.43 0 0 0-4.641-9.794 14.37 14.37 0 0 0-20.042.581c-2.608 2.691-4.068 6.295-4.068 10.046s1.459 7.355 4.068 10.046a14.37 14.37 0 0 0 20.042.581 14.43 14.43 0 0 0 4.641-9.794H51.73c-.204 1.755-1.045 3.373-2.363 4.546s-3.02 1.821-4.782 1.818zM20.951 20.334V34.47c0 3.698-3.278 6.694-6.969 6.694s-6.999-3.007-6.999-6.694V20.334H0V34.47a14.05 14.05 0 0 0 1.064 5.362 14.01 14.01 0 0 0 3.031 4.545 13.96 13.96 0 0 0 4.536 3.036 13.95 13.95 0 0 0 5.351 1.065c2.664 0 4.713-.68 6.969-2.748v2.79c0 3.698-2.907 6.694-6.969 6.694S6.695 52.21 6.695 48.52H0a14.02 14.02 0 0 0 4.175 9.759 13.97 13.97 0 0 0 9.806 4.023c3.669 0 7.191-1.445 9.806-4.023s4.115-6.083 4.175-9.759V20.361l-7.01-.026z"/></g><g fill="#fcaf17"><path d="M113.333 20.334V34.47c0 3.698-3.278 6.694-6.969 6.694s-6.999-3.004-6.999-6.694V20.334h-6.984V34.47a14.05 14.05 0 0 0 1.064 5.362c.702 1.7 1.733 3.244 3.031 4.545s2.84 2.333 4.537 3.036a13.95 13.95 0 0 0 5.35 1.065c2.664 0 4.713-.68 6.969-2.748v2.79c0 3.698-2.907 6.694-6.969 6.694s-7.287-3.004-7.287-6.694h-6.695a14.02 14.02 0 0 0 4.175 9.759 13.97 13.97 0 0 0 9.806 4.023c3.669 0 7.191-1.445 9.806-4.023s4.115-6.083 4.175-9.759V20.361l-7.01-.026zM82.513 5.936v16.036a12.54 12.54 0 0 0-7.37-2.452c-7.493 0-13.585 6.007-14.005 13.565h7.179a7.23 7.23 0 0 1 2.524-4.701c1.409-1.187 3.218-1.789 5.056-1.683s3.566.913 4.829 2.254 1.968 3.116 1.968 4.961-.704 3.62-1.968 4.961-2.991 2.148-4.829 2.254-3.647-.496-5.056-1.682a7.23 7.23 0 0 1-2.524-4.701h-7.179c.423 7.562 6.53 13.562 14.005 13.562 2.674-.048 5.268-.927 7.422-2.516l1.019 2.185h5.961V5.936h-7.032z"/></g><g fill="#fff"><path d="M9.76 70.783H2.898v11.919h1.584v-5.057h5.057v-1.498H4.482v-3.865H9.76v-1.498zm10.921 11.919l-4.444-11.919h-1.788l-4.444 11.919h1.686l.97-2.673h5.364l.971 2.673h1.686zm-5.346-10.029l2.145 5.874h-4.274l2.128-5.874zM25.62 82.924c1.226 0 2.214-.306 2.98-.919.766-.63 1.141-1.464 1.141-2.503 0-.749-.17-1.362-.596-1.788-.29-.341-.443-.528-.92-.783-.46-.255-.596-.341-1.192-.562l-.63-.238-.698-.221c-.919-.29-1.566-.579-1.941-.851s-.562-.664-.562-1.192c0-1.09.868-1.771 2.163-1.771s2.197.613 2.707 1.839l1.328-.766a4.28 4.28 0 0 0-4.035-2.605c-1.039 0-1.924.306-2.656.919-.732.596-1.09 1.413-1.09 2.452 0 .868.358 1.566.749 1.992.187.204.477.409.868.613l.988.443 1.141.375c1.005.323 1.737.613 2.162.902s.647.715.647 1.277c0 1.107-.885 1.839-2.52 1.839-1.652 0-2.724-.715-3.184-2.162l-1.362.783c.63 1.822 2.282 2.929 4.512 2.929zm13.285-7.084h-5.789v-5.057h-1.583v11.919h1.583v-5.364h5.789v5.364h1.567V70.783h-1.567v5.057zm4.117 6.862h1.583V70.783h-1.583v11.919zm3.51-5.959c0 1.72.596 3.167 1.788 4.376s2.656 1.805 4.376 1.805 3.184-.596 4.376-1.805c1.209-1.209 1.805-2.656 1.805-4.376s-.596-3.184-1.805-4.376c-1.192-1.209-2.656-1.805-4.376-1.805s-3.184.596-4.376 1.805c-1.192 1.192-1.788 2.656-1.788 4.376zm10.761 0c0 1.311-.443 2.401-1.328 3.303-.868.885-1.958 1.328-3.269 1.328s-2.401-.443-3.286-1.328c-.868-.902-1.311-1.992-1.311-3.303s.443-2.418 1.311-3.303c.885-.902 1.975-1.345 3.286-1.345s2.401.443 3.269 1.345c.885.886 1.328 1.992 1.328 3.303zm10.894 2.928l-6.13-8.888H60.78v11.919h1.584v-8.905l6.13 8.905h1.277V70.783h-1.584v8.888zm7.419-8.888v1.498h3.508v10.421h1.567v-10.42h3.525v-1.498h-8.599zm11.75 6.641h5.023v-1.481h-5.023v-3.661h5.449v-1.498h-7.032v11.919h7.117v-1.498h-5.534v-3.78zm12.964 5.5a5.94 5.94 0 0 0 3.014-.783 5.56 5.56 0 0 0 2.128-2.128l-1.379-.783c-.681 1.294-2.129 2.145-3.763 2.145-1.379 0-2.503-.443-3.371-1.328s-1.294-1.992-1.294-3.303c0-1.328.426-2.435 1.294-3.32s1.992-1.328 3.371-1.328c1.634 0 3.082.851 3.763 2.162l1.379-.8c-1.022-1.771-2.963-2.895-5.142-2.895-1.805 0-3.303.596-4.478 1.788s-1.754 2.656-1.754 4.393.579 3.201 1.754 4.393 2.673 1.788 4.478 1.788zm14.308-7.084h-5.789v-5.057h-1.584v11.919h1.584v-5.364h5.789v5.364h1.567V70.783h-1.567v5.057z"/></g></g><defs><clipPath id="A"><path fill="#fff" d="M0 0h120v83H0z"/></clipPath></defs></svg>