<svg width="439" height="294" viewBox="0 0 439 294" fill="none" xmlns="http://www.w3.org/2000/svg">
<g opacity="0.5">
<path d="M367.78 163.71C384.25 129.32 359.05 87.0396 328.04 69.5996C303.2 55.6296 272.48 49.8896 244.46 55.8496C219.95 61.0696 197.94 74.6196 173.16 78.7596C137.98 84.6396 103.49 69.1196 72.7201 93.9096C57.7501 105.97 47.6601 123.46 42.6701 142.03C27.3301 199.13 59.6502 249.45 108.16 277.12C143.06 297.02 186.91 299.18 224.01 284.13C252.06 272.75 269.63 250.77 287.86 227.66C297.81 215.05 309.11 202.43 323.69 195.11C337.17 188.35 350.97 187.03 361.05 174.37C363.8 170.94 366.02 167.37 367.78 163.71Z" fill="#FCAF17"/>
</g>
<path d="M365.921 202.01C361.921 199.49 357.361 197.84 352.641 197.27C315.821 192.79 297.691 253.08 338.221 258.19C368.361 261.99 397.981 222.22 365.921 202.01Z" fill="#FCAF17"/>
<path d="M127.63 285.479V288.909C127.63 291.239 129.52 293.129 131.85 293.129H333.04C335.37 293.129 337.26 291.239 337.26 288.909V285.479H127.63Z" fill="#999999"/>
<path d="M219.3 288.76L220.37 287.98H246.45L247.32 288.76H333.35C336.17 288.76 338.19 286.03 337.37 283.34L324.3 240.39C323.76 238.62 322.13 237.41 320.28 237.41H145.4C143.56 237.41 141.93 238.61 141.39 240.37L128.12 283.32C127.29 286.02 129.31 288.76 132.13 288.76H219.3Z" fill="#E5E3E4"/>
<path d="M161.3 243.66H303.49L308.46 266.71H157.02L161.3 243.66Z" fill="#C3C3C3"/>
<path d="M233.42 119.61C233.42 120.19 232.95 120.66 232.37 120.66C231.79 120.66 231.32 120.19 231.32 119.61C231.32 119.03 231.79 118.56 232.37 118.56C232.95 118.56 233.42 119.03 233.42 119.61Z" stroke="black" stroke-miterlimit="10"/>
<path d="M316.21 133.329H147.87V128.659C147.87 125.599 150.35 123.109 153.42 123.109H310.66C313.72 123.109 316.21 125.589 316.21 128.659V133.329V133.329Z" stroke="black" stroke-miterlimit="10"/>
<path d="M161.3 125.68H153.2V130.77H161.3V125.68Z" stroke="black" stroke-miterlimit="10"/>
<path d="M235.64 126.38H165.47V130.32H235.64V126.38Z" stroke="black" stroke-miterlimit="10"/>
<path d="M203.09 137.49H150.42V230.12H203.09V137.49Z" stroke="black" stroke-miterlimit="10"/>
<path d="M313.74 168.99H273.91V230.12H313.74V168.99Z" stroke="black" stroke-miterlimit="10"/>
<path d="M313.74 137.49H273.91V164.51H313.74V137.49Z" stroke="black" stroke-miterlimit="10"/>
<path d="M270.86 137.49H206.12V157.87H270.86V137.49Z" stroke="black" stroke-miterlimit="10"/>
<path d="M270.86 160.979H206.12V181.359H270.86V160.979Z" stroke="black" stroke-miterlimit="10"/>
<path d="M270.86 184.46H206.12V204.84H270.86V184.46Z" stroke="black" stroke-miterlimit="10"/>
<path d="M270.86 207.939H206.12V228.319H270.86V207.939Z" stroke="black" stroke-miterlimit="10"/>
<path d="M312.42 238.31H151.66C146.05 238.31 141.49 233.76 141.49 228.14V125.51C141.49 119.9 146.04 115.34 151.66 115.34H312.42C318.03 115.34 322.59 119.89 322.59 125.51V228.14C322.58 233.76 318.03 238.31 312.42 238.31Z" fill="#4D494A"/>
<path d="M312.02 233.639H152.06C149.75 233.639 147.87 231.769 147.87 229.449V126.879C147.87 124.569 149.74 122.689 152.06 122.689H312.02C314.33 122.689 316.21 124.559 316.21 126.879V229.459C316.21 231.769 314.33 233.639 312.02 233.639Z" fill="white"/>
<path d="M224.714 178.702C223.977 178.704 223.255 178.503 222.636 178.125C222.017 177.746 221.526 177.205 221.223 176.568C220.921 175.931 220.819 175.225 220.93 174.534C221.041 173.843 221.361 173.197 221.85 172.675C222.34 172.152 222.978 171.775 223.688 171.589C224.398 171.403 225.15 171.416 225.853 171.625C226.556 171.835 227.18 172.234 227.65 172.772C228.119 173.311 228.414 173.967 228.5 174.661H232.335C232.22 172.776 231.335 171.008 229.867 169.732C228.4 168.456 226.466 167.773 224.476 167.828C222.486 167.882 220.596 168.67 219.209 170.024C217.822 171.379 217.046 173.192 217.046 175.08C217.046 176.968 217.822 178.782 219.209 180.136C220.596 181.49 222.486 182.278 224.476 182.333C226.466 182.387 228.4 181.704 229.867 180.428C231.335 179.153 232.22 177.385 232.335 175.5H228.514C228.405 176.383 227.958 177.197 227.257 177.788C226.557 178.378 225.651 178.704 224.714 178.702Z" fill="#2A2A86"/>
<path d="M212.142 168.246V175.36C212.142 177.221 210.399 178.729 208.436 178.729C206.473 178.729 204.714 177.215 204.714 175.36V168.246H201V175.36C201 176.286 201.192 177.203 201.566 178.058C201.94 178.914 202.488 179.691 203.178 180.346C203.869 181 204.688 181.519 205.59 181.874C206.493 182.228 207.46 182.41 208.436 182.41C209.853 182.41 210.942 182.068 212.142 181.027V182.43C212.142 184.292 210.596 185.799 208.436 185.799C206.276 185.799 204.561 184.288 204.561 182.43H201C201.032 184.28 201.829 186.044 203.22 187.342C204.611 188.639 206.484 189.367 208.435 189.367C210.386 189.367 212.259 188.639 213.65 187.342C215.041 186.044 215.838 184.28 215.87 182.43V168.259L212.142 168.246Z" fill="#2A2A86"/>
<path d="M261.272 168.246V175.36C261.272 177.221 259.529 178.729 257.566 178.729C255.603 178.729 253.844 177.217 253.844 175.36V168.246H250.13V175.36C250.13 176.286 250.322 177.203 250.696 178.058C251.07 178.914 251.618 179.691 252.308 180.346C252.999 181 253.818 181.519 254.721 181.874C255.623 182.228 256.59 182.41 257.566 182.41C258.983 182.41 260.073 182.068 261.272 181.027V182.43C261.272 184.292 259.726 185.799 257.566 185.799C255.406 185.799 253.691 184.288 253.691 182.43H250.13C250.162 184.28 250.959 186.044 252.35 187.342C253.741 188.639 255.614 189.367 257.565 189.367C259.516 189.367 261.389 188.639 262.78 187.342C264.171 186.044 264.968 184.28 265 182.43V168.259L261.272 168.246Z" fill="#FCAF17"/>
<path d="M244.882 161V169.07C243.746 168.277 242.374 167.845 240.963 167.836C236.978 167.836 233.738 170.859 233.515 174.663H237.332C237.445 173.741 237.925 172.894 238.675 172.297C239.424 171.7 240.386 171.397 241.363 171.45C242.341 171.504 243.26 171.91 243.932 172.585C244.604 173.26 244.978 174.153 244.978 175.081C244.978 176.01 244.604 176.903 243.932 177.578C243.26 178.253 242.341 178.659 241.363 178.713C240.386 178.766 239.424 178.463 238.675 177.866C237.925 177.269 237.445 176.422 237.332 175.5H233.515C233.74 179.305 236.988 182.325 240.963 182.325C242.385 182.301 243.764 181.858 244.91 181.059L245.452 182.159H248.622V161H244.882Z" fill="#FCAF17"/>
<path d="M213.059 207C211.964 207 211.004 206.697 210.18 206.09C209.355 205.484 208.774 204.625 208.435 203.513L210.637 202.637C210.806 203.3 211.1 203.822 211.518 204.204C211.947 204.597 212.466 204.793 213.076 204.793C213.584 204.793 214.03 204.664 214.414 204.406C214.787 204.159 214.973 203.799 214.973 203.328C214.973 202.856 214.798 202.48 214.448 202.199C214.087 201.907 213.455 201.593 212.551 201.256L211.789 200.986C210.998 200.717 210.321 200.296 209.756 199.723C209.18 199.128 208.892 198.409 208.892 197.567C208.892 196.916 209.062 196.332 209.4 195.815C209.739 195.287 210.214 194.872 210.823 194.568C211.456 194.254 212.15 194.097 212.907 194.097C214.025 194.097 214.911 194.361 215.566 194.889C216.21 195.416 216.65 196.028 216.888 196.725L214.838 197.584C214.702 197.191 214.477 196.871 214.16 196.624C213.833 196.365 213.426 196.236 212.941 196.236C212.421 196.236 212.003 196.354 211.687 196.59C211.36 196.826 211.196 197.135 211.196 197.516C211.196 197.887 211.348 198.201 211.653 198.46C211.981 198.729 212.495 198.982 213.195 199.218L213.974 199.47C215.069 199.852 215.894 200.335 216.447 200.919C217.023 201.525 217.311 202.317 217.311 203.294C217.311 204.114 217.102 204.799 216.684 205.349C216.244 205.922 215.707 206.337 215.075 206.596C214.42 206.865 213.748 207 213.059 207Z" fill="#FCAF17"/>
<path d="M223.443 207C222.528 207 221.715 206.798 221.004 206.394C220.292 205.989 219.733 205.433 219.327 204.726C218.932 204.041 218.734 203.244 218.734 202.334C218.734 201.436 218.932 200.644 219.327 199.959C219.745 199.24 220.304 198.679 221.004 198.274C221.738 197.859 222.551 197.651 223.443 197.651C224.335 197.651 225.148 197.859 225.882 198.274C226.582 198.679 227.141 199.24 227.559 199.959C227.954 200.644 228.152 201.436 228.152 202.334C228.152 203.244 227.954 204.041 227.559 204.726C227.153 205.433 226.594 205.989 225.882 206.394C225.171 206.798 224.358 207 223.443 207ZM224.663 204.608C225.024 204.417 225.318 204.12 225.543 203.715C225.769 203.322 225.882 202.862 225.882 202.334C225.882 201.817 225.769 201.363 225.543 200.97C225.318 200.565 225.024 200.268 224.663 200.077C224.267 199.863 223.861 199.757 223.443 199.757C223.036 199.757 222.636 199.863 222.24 200.077C221.868 200.279 221.568 200.576 221.343 200.97C221.117 201.363 221.004 201.817 221.004 202.334C221.004 202.828 221.117 203.283 221.343 203.698C221.557 204.103 221.856 204.406 222.24 204.608C222.613 204.81 223.014 204.911 223.443 204.911C223.883 204.911 224.29 204.81 224.663 204.608Z" fill="#FCAF17"/>
<path d="M231.641 206.41C230.941 206.017 230.388 205.461 229.981 204.743C229.586 204.058 229.389 203.255 229.389 202.334C229.389 201.413 229.586 200.61 229.981 199.925C230.388 199.206 230.941 198.651 231.641 198.257C232.353 197.853 233.149 197.651 234.03 197.651C235.001 197.651 235.848 197.864 236.571 198.291C237.282 198.718 237.79 199.313 238.095 200.077L236.012 200.936C235.639 200.15 234.978 199.757 234.03 199.757C233.33 199.757 232.759 199.993 232.319 200.464C231.879 200.936 231.658 201.559 231.658 202.334C231.658 203.109 231.879 203.732 232.319 204.204C232.759 204.675 233.33 204.911 234.03 204.911C235.001 204.911 235.696 204.501 236.113 203.682L238.18 204.574C237.785 205.36 237.243 205.956 236.554 206.36C235.831 206.787 234.99 207 234.03 207C233.126 207 232.33 206.803 231.641 206.41Z" fill="#FCAF17"/>
<path d="M240.043 196.539C239.75 196.247 239.603 195.899 239.603 195.495C239.603 195.102 239.75 194.759 240.043 194.467C240.326 194.187 240.67 194.046 241.077 194.046C241.483 194.046 241.827 194.187 242.11 194.467C242.392 194.748 242.533 195.091 242.533 195.495C242.533 195.91 242.392 196.259 242.11 196.539C241.827 196.82 241.483 196.96 241.077 196.96C240.67 196.96 240.326 196.82 240.043 196.539ZM239.942 197.937H242.211V206.73H239.942V197.937Z" fill="#FCAF17"/>
<path d="M247.175 207C246.237 207 245.469 206.73 244.871 206.191C244.272 205.652 243.973 204.934 243.973 204.035C243.973 203.451 244.126 202.935 244.43 202.486C244.724 202.048 245.153 201.705 245.718 201.458C246.282 201.211 246.887 201.087 247.53 201.087C248.445 201.087 249.224 201.222 249.868 201.492V201.104C249.868 200.621 249.687 200.234 249.326 199.942C248.953 199.639 248.462 199.487 247.852 199.487C247.457 199.487 247.056 199.583 246.649 199.774C246.265 199.953 245.944 200.2 245.684 200.515L244.227 199.386C244.645 198.847 245.181 198.42 245.836 198.106C246.48 197.803 247.186 197.651 247.954 197.651C249.298 197.651 250.331 197.966 251.054 198.594C251.754 199.212 252.104 200.116 252.104 201.306V206.73H249.868V205.838H249.732C249.45 206.197 249.1 206.478 248.682 206.68C248.253 206.893 247.75 207 247.175 207ZM247.717 205.248C248.383 205.248 248.908 205.04 249.292 204.625C249.676 204.209 249.868 203.715 249.868 203.143C249.247 202.862 248.626 202.721 248.005 202.721C246.83 202.721 246.243 203.159 246.243 204.035C246.243 204.395 246.373 204.687 246.633 204.911C246.892 205.136 247.254 205.248 247.717 205.248Z" fill="#FCAF17"/>
<path d="M254.204 194.383H256.474V206.73H254.204V194.383Z" fill="#FCAF17"/>
<path d="M303.49 237.97H161.3V240.05H303.49V237.97Z" fill="#232323"/>
<path d="M143.18 244.24H158.64L153.77 267.16H137.1L143.18 244.24Z" fill="#C3C3C3"/>
<path d="M305.859 245.28L310.369 267.16H327.049L321.489 245.28H305.859Z" fill="#C3C3C3"/>
<path d="M259.56 284.64H205.32C203.74 284.64 202.49 283.29 202.61 281.71L203.26 273.29C203.37 271.87 204.56 270.78 205.98 270.79L259.03 271.02C260.46 271.03 261.63 272.13 261.73 273.56L262.26 281.75C262.37 283.32 261.13 284.64 259.56 284.64Z" fill="#C3C3C3"/>
<path d="M233.42 119.19C233.42 119.77 232.95 120.24 232.37 120.24C231.79 120.24 231.32 119.77 231.32 119.19C231.32 118.61 231.79 118.14 232.37 118.14C232.95 118.14 233.42 118.61 233.42 119.19Z" fill="#989898"/>
<path d="M169.93 246.559H163.21C162.69 246.559 162.27 246.139 162.27 245.619V245.589C162.27 245.069 162.69 244.649 163.21 244.649H169.93C170.45 244.649 170.87 245.069 170.87 245.589V245.619C170.87 246.139 170.45 246.559 169.93 246.559Z" fill="#4D494A"/>
<path d="M172.84 255.429H162.13C161.37 255.429 160.75 254.809 160.75 254.049V253.669C160.75 252.909 161.37 252.289 162.13 252.289H172.84C173.6 252.289 174.22 252.909 174.22 253.669V254.049C174.21 254.819 173.6 255.429 172.84 255.429Z" fill="#4D494A"/>
<path d="M184.19 259.94H178.34C177.58 259.94 176.96 259.32 176.96 258.56V258.18C176.96 257.42 177.58 256.8 178.34 256.8H184.19C184.95 256.8 185.57 257.42 185.57 258.18V258.56C185.56 259.32 184.95 259.94 184.19 259.94Z" fill="#4D494A"/>
<path d="M251.84 264.82H205.48C204.72 264.82 204.1 264.2 204.1 263.44V262.72C204.1 261.96 204.72 261.34 205.48 261.34H251.84C252.6 261.34 253.22 261.96 253.22 262.72V263.44C253.21 264.21 252.6 264.82 251.84 264.82Z" fill="#4D494A"/>
<path d="M193.2 255.429H187.35C186.59 255.429 185.97 254.809 185.97 254.049V253.669C185.97 252.909 186.59 252.289 187.35 252.289H193.2C193.96 252.289 194.58 252.909 194.58 253.669V254.049C194.57 254.819 193.96 255.429 193.2 255.429Z" fill="#4D494A"/>
<path d="M203.27 255.429H197.42C196.66 255.429 196.04 254.809 196.04 254.049V253.669C196.04 252.909 196.66 252.289 197.42 252.289H203.27C204.03 252.289 204.65 252.909 204.65 253.669V254.049C204.65 254.819 204.03 255.429 203.27 255.429Z" fill="#4D494A"/>
<path d="M213.349 255.429H207.499C206.739 255.429 206.119 254.809 206.119 254.049V253.669C206.119 252.909 206.739 252.289 207.499 252.289H213.349C214.109 252.289 214.729 252.909 214.729 253.669V254.049C214.719 254.819 214.109 255.429 213.349 255.429Z" fill="#4D494A"/>
<path d="M283.86 255.429H278.01C277.25 255.429 276.63 254.809 276.63 254.049V253.669C276.63 252.909 277.25 252.289 278.01 252.289H283.86C284.62 252.289 285.24 252.909 285.24 253.669V254.049C285.23 254.819 284.62 255.429 283.86 255.429Z" fill="#4D494A"/>
<path d="M293.929 255.429H288.079C287.319 255.429 286.699 254.809 286.699 254.049V253.669C286.699 252.909 287.319 252.289 288.079 252.289H293.929C294.689 252.289 295.309 252.909 295.309 253.669V254.049C295.309 254.819 294.689 255.429 293.929 255.429Z" fill="#4D494A"/>
<path d="M303.03 259.829H298.42C297.66 259.829 297.04 259.209 297.04 258.449V253.839C297.04 253.079 297.66 252.459 298.42 252.459H303.03C303.79 252.459 304.41 253.079 304.41 253.839V258.449C304.4 259.209 303.79 259.829 303.03 259.829Z" fill="#4D494A"/>
<path d="M209.05 251.159H203.2C202.44 251.159 201.82 250.539 201.82 249.779V249.399C201.82 248.639 202.44 248.029 203.2 248.029H209.05C209.81 248.029 210.43 248.649 210.43 249.399V249.779C210.42 250.539 209.81 251.159 209.05 251.159Z" fill="#4D494A"/>
<path d="M219.12 251.159H213.27C212.51 251.159 211.89 250.539 211.89 249.779V249.399C211.89 248.639 212.51 248.029 213.27 248.029H219.12C219.88 248.029 220.5 248.649 220.5 249.399V249.779C220.5 250.539 219.88 251.159 219.12 251.159Z" fill="#4D494A"/>
<path d="M190.07 246.559H183.35C182.83 246.559 182.41 246.139 182.41 245.619V245.589C182.41 245.069 182.83 244.649 183.35 244.649H190.07C190.59 244.649 191.01 245.069 191.01 245.589V245.619C191.01 246.139 190.59 246.559 190.07 246.559Z" fill="#4D494A"/>
<path d="M210.22 246.559H203.5C202.98 246.559 202.56 246.139 202.56 245.619V245.589C202.56 245.069 202.98 244.649 203.5 244.649H210.22C210.74 244.649 211.16 245.069 211.16 245.589V245.619C211.16 246.139 210.74 246.559 210.22 246.559Z" fill="#4D494A"/>
<path d="M260.59 246.559H253.87C253.35 246.559 252.93 246.139 252.93 245.619V245.589C252.93 245.069 253.35 244.649 253.87 244.649H260.59C261.11 244.649 261.53 245.069 261.53 245.589V245.619C261.53 246.139 261.11 246.559 260.59 246.559Z" fill="#4D494A"/>
<path d="M270.66 246.559H263.94C263.42 246.559 263 246.139 263 245.619V245.589C263 245.069 263.42 244.649 263.94 244.649H270.66C271.18 244.649 271.6 245.069 271.6 245.589V245.619C271.6 246.139 271.18 246.559 270.66 246.559Z" fill="#4D494A"/>
<path d="M290.809 246.559H284.089C283.569 246.559 283.149 246.139 283.149 245.619V245.589C283.149 245.069 283.569 244.649 284.089 244.649H290.809C291.329 244.649 291.749 245.069 291.749 245.589V245.619C291.749 246.139 291.329 246.559 290.809 246.559Z" fill="#4D494A"/>
<path d="M300.88 246.559H294.16C293.64 246.559 293.22 246.139 293.22 245.619V245.589C293.22 245.069 293.64 244.649 294.16 244.649H300.88C301.4 244.649 301.82 245.069 301.82 245.589V245.619C301.82 246.139 301.4 246.559 300.88 246.559Z" fill="#4D494A"/>
<path d="M169.01 251.159H163.16C162.4 251.159 161.78 250.539 161.78 249.779V249.399C161.78 248.639 162.4 248.029 163.16 248.029H169.01C169.77 248.029 170.39 248.649 170.39 249.399V249.779C170.39 250.539 169.77 251.159 169.01 251.159Z" fill="#4D494A"/>
<path d="M169.01 264.65H160.47C159.71 264.65 159.09 264.03 159.09 263.27V262.89C159.09 262.13 159.71 261.51 160.47 261.51H169.01C169.77 261.51 170.39 262.13 170.39 262.89V263.27C170.39 264.04 169.77 264.65 169.01 264.65Z" fill="#4D494A"/>
<path d="M173.66 259.94H161.3C160.54 259.94 159.92 259.32 159.92 258.56V258.18C159.92 257.42 160.54 256.8 161.3 256.8H173.66C174.42 256.8 175.04 257.42 175.04 258.18V258.56C175.04 259.32 174.42 259.94 173.66 259.94Z" fill="#4D494A"/>
<path d="M178.83 251.159H172.98C172.22 251.159 171.6 250.539 171.6 249.779V249.399C171.6 248.639 172.22 248.029 172.98 248.029H178.83C179.59 248.029 180.21 248.649 180.21 249.399V249.779C180.2 250.539 179.59 251.159 178.83 251.159Z" fill="#4D494A"/>
<path d="M183.02 255.429H177.17C176.41 255.429 175.79 254.809 175.79 254.049V253.669C175.79 252.909 176.41 252.289 177.17 252.289H183.02C183.78 252.289 184.4 252.909 184.4 253.669V254.049C184.39 254.819 183.78 255.429 183.02 255.429Z" fill="#4D494A"/>
<path d="M178.83 264.65H172.98C172.22 264.65 171.6 264.03 171.6 263.27V262.89C171.6 262.13 172.22 261.51 172.98 261.51H178.83C179.59 261.51 180.21 262.13 180.21 262.89V263.27C180.2 264.04 179.59 264.65 178.83 264.65Z" fill="#4D494A"/>
<path d="M189.03 264.65H183.18C182.42 264.65 181.8 264.03 181.8 263.27V262.89C181.8 262.13 182.42 261.51 183.18 261.51H189.03C189.79 261.51 190.41 262.13 190.41 262.89V263.27C190.41 264.04 189.79 264.65 189.03 264.65Z" fill="#4D494A"/>
<path d="M199.669 264.65H193.819C193.059 264.65 192.439 264.03 192.439 263.27V262.89C192.439 262.13 193.059 261.51 193.819 261.51H199.669C200.429 261.51 201.049 262.13 201.049 262.89V263.27C201.039 264.04 200.429 264.65 199.669 264.65Z" fill="#4D494A"/>
<path d="M263.5 264.65H257.65C256.89 264.65 256.27 264.03 256.27 263.27V262.89C256.27 262.13 256.89 261.51 257.65 261.51H263.5C264.26 261.51 264.88 262.13 264.88 262.89V263.27C264.87 264.04 264.26 264.65 263.5 264.65Z" fill="#4D494A"/>
<path d="M274.13 264.65H268.28C267.52 264.65 266.9 264.03 266.9 263.27V262.89C266.9 262.13 267.52 261.51 268.28 261.51H274.13C274.89 261.51 275.51 262.13 275.51 262.89V263.27C275.51 264.04 274.89 264.65 274.13 264.65Z" fill="#4D494A"/>
<path d="M282.6 264.65H278.4C277.64 264.65 277.02 264.03 277.02 263.27V262.89C277.02 262.13 277.64 261.51 278.4 261.51H282.6C283.36 261.51 283.98 262.13 283.98 262.89V263.27C283.98 264.04 283.36 264.65 282.6 264.65Z" fill="#4D494A"/>
<path d="M194.259 259.94H188.409C187.649 259.94 187.029 259.32 187.029 258.56V258.18C187.029 257.42 187.649 256.8 188.409 256.8H194.259C195.019 256.8 195.639 257.42 195.639 258.18V258.56C195.639 259.32 195.019 259.94 194.259 259.94Z" fill="#4D494A"/>
<path d="M204.339 259.94H198.489C197.729 259.94 197.109 259.32 197.109 258.56V258.18C197.109 257.42 197.729 256.8 198.489 256.8H204.339C205.099 256.8 205.719 257.42 205.719 258.18V258.56C205.709 259.32 205.099 259.94 204.339 259.94Z" fill="#4D494A"/>
<path d="M214.41 259.94H208.56C207.8 259.94 207.18 259.32 207.18 258.56V258.18C207.18 257.42 207.8 256.8 208.56 256.8H214.41C215.17 256.8 215.79 257.42 215.79 258.18V258.56C215.79 259.32 215.17 259.94 214.41 259.94Z" fill="#4D494A"/>
<path d="M224.48 259.94H218.63C217.87 259.94 217.25 259.32 217.25 258.56V258.18C217.25 257.42 217.87 256.8 218.63 256.8H224.48C225.24 256.8 225.86 257.42 225.86 258.18V258.56C225.86 259.32 225.24 259.94 224.48 259.94Z" fill="#4D494A"/>
<path d="M234.56 259.94H228.71C227.95 259.94 227.33 259.32 227.33 258.56V258.18C227.33 257.42 227.95 256.8 228.71 256.8H234.56C235.32 256.8 235.94 257.42 235.94 258.18V258.56C235.93 259.32 235.32 259.94 234.56 259.94Z" fill="#4D494A"/>
<path d="M244.63 259.94H238.78C238.02 259.94 237.4 259.32 237.4 258.56V258.18C237.4 257.42 238.02 256.8 238.78 256.8H244.63C245.39 256.8 246.01 257.42 246.01 258.18V258.56C246.01 259.32 245.39 259.94 244.63 259.94Z" fill="#4D494A"/>
<path d="M254.7 259.94H248.85C248.09 259.94 247.47 259.32 247.47 258.56V258.18C247.47 257.42 248.09 256.8 248.85 256.8H254.7C255.46 256.8 256.08 257.42 256.08 258.18V258.56C256.08 259.32 255.46 259.94 254.7 259.94Z" fill="#4D494A"/>
<path d="M264.78 259.94H258.93C258.17 259.94 257.55 259.32 257.55 258.56V258.18C257.55 257.42 258.17 256.8 258.93 256.8H264.78C265.54 256.8 266.16 257.42 266.16 258.18V258.56C266.15 259.32 265.54 259.94 264.78 259.94Z" fill="#4D494A"/>
<path d="M274.849 259.94H268.999C268.239 259.94 267.619 259.32 267.619 258.56V258.18C267.619 257.42 268.239 256.8 268.999 256.8H274.849C275.609 256.8 276.229 257.42 276.229 258.18V258.56C276.229 259.32 275.609 259.94 274.849 259.94Z" fill="#4D494A"/>
<path d="M284.919 259.94H279.069C278.309 259.94 277.699 259.32 277.699 258.56V258.18C277.699 257.42 278.319 256.8 279.069 256.8H284.919C285.679 256.8 286.299 257.42 286.299 258.18V258.56C286.299 259.32 285.679 259.94 284.919 259.94Z" fill="#4D494A"/>
<path d="M294.219 259.94H289.069C288.309 259.94 287.699 259.32 287.699 258.56V258.18C287.699 257.42 288.319 256.8 289.069 256.8H294.219C294.979 256.8 295.599 257.42 295.599 258.18V258.56C295.589 259.32 294.969 259.94 294.219 259.94Z" fill="#4D494A"/>
<path d="M223.419 255.429H217.569C216.809 255.429 216.189 254.809 216.189 254.049V253.669C216.189 252.909 216.809 252.289 217.569 252.289H223.419C224.179 252.289 224.799 252.909 224.799 253.669V254.049C224.789 254.819 224.179 255.429 223.419 255.429Z" fill="#4D494A"/>
<path d="M233.49 255.429H227.64C226.88 255.429 226.26 254.809 226.26 254.049V253.669C226.26 252.909 226.88 252.289 227.64 252.289H233.49C234.25 252.289 234.87 252.909 234.87 253.669V254.049C234.87 254.819 234.25 255.429 233.49 255.429Z" fill="#4D494A"/>
<path d="M243.57 255.429H237.72C236.96 255.429 236.34 254.809 236.34 254.049V253.669C236.34 252.909 236.96 252.289 237.72 252.289H243.57C244.33 252.289 244.95 252.909 244.95 253.669V254.049C244.94 254.819 244.33 255.429 243.57 255.429Z" fill="#4D494A"/>
<path d="M253.64 255.429H247.79C247.03 255.429 246.41 254.809 246.41 254.049V253.669C246.41 252.909 247.03 252.289 247.79 252.289H253.64C254.4 252.289 255.02 252.909 255.02 253.669V254.049C255.01 254.819 254.4 255.429 253.64 255.429Z" fill="#4D494A"/>
<path d="M263.71 255.429H257.86C257.1 255.429 256.48 254.809 256.48 254.049V253.669C256.48 252.909 257.1 252.289 257.86 252.289H263.71C264.47 252.289 265.09 252.909 265.09 253.669V254.049C265.09 254.819 264.47 255.429 263.71 255.429Z" fill="#4D494A"/>
<path d="M273.791 255.429H267.941C267.181 255.429 266.561 254.809 266.561 254.049V253.669C266.561 252.909 267.181 252.289 267.941 252.289H273.791C274.551 252.289 275.171 252.909 275.171 253.669V254.049C275.161 254.819 274.551 255.429 273.791 255.429Z" fill="#4D494A"/>
<path d="M305.569 265.509H286.609C285.849 265.509 285.229 264.889 285.229 264.129V262.359C285.229 261.599 285.849 260.979 286.609 260.979H305.569C306.329 260.979 306.949 261.599 306.949 262.359V264.129C306.939 264.899 306.329 265.509 305.569 265.509Z" fill="#4D494A"/>
<path d="M188.9 251.159H183.05C182.29 251.159 181.67 250.539 181.67 249.779V249.399C181.67 248.639 182.29 248.029 183.05 248.029H188.9C189.66 248.029 190.28 248.649 190.28 249.399V249.779C190.28 250.539 189.66 251.159 188.9 251.159Z" fill="#4D494A"/>
<path d="M198.97 251.159H193.12C192.36 251.159 191.74 250.539 191.74 249.779V249.399C191.74 248.639 192.36 248.029 193.12 248.029H198.97C199.73 248.029 200.35 248.649 200.35 249.399V249.779C200.35 250.539 199.73 251.159 198.97 251.159Z" fill="#4D494A"/>
<path d="M229.19 251.159H223.34C222.58 251.159 221.96 250.539 221.96 249.779V249.399C221.96 248.639 222.58 248.029 223.34 248.029H229.19C229.95 248.029 230.57 248.649 230.57 249.399V249.779C230.57 250.539 229.95 251.159 229.19 251.159Z" fill="#4D494A"/>
<path d="M239.27 251.159H233.42C232.66 251.159 232.04 250.539 232.04 249.779V249.399C232.04 248.639 232.66 248.029 233.42 248.029H239.27C240.03 248.029 240.65 248.649 240.65 249.399V249.779C240.64 250.539 240.03 251.159 239.27 251.159Z" fill="#4D494A"/>
<path d="M249.339 251.159H243.489C242.729 251.159 242.109 250.539 242.109 249.779V249.399C242.109 248.639 242.729 248.029 243.489 248.029H249.339C250.099 248.029 250.719 248.649 250.719 249.399V249.779C250.719 250.539 250.099 251.159 249.339 251.159Z" fill="#4D494A"/>
<path d="M259.41 251.159H253.56C252.8 251.159 252.18 250.539 252.18 249.779V249.399C252.18 248.639 252.8 248.029 253.56 248.029H259.41C260.17 248.029 260.79 248.649 260.79 249.399V249.779C260.79 250.539 260.17 251.159 259.41 251.159Z" fill="#4D494A"/>
<path d="M269.49 251.159H263.64C262.88 251.159 262.26 250.539 262.26 249.779V249.399C262.26 248.639 262.88 248.029 263.64 248.029H269.49C270.25 248.029 270.87 248.649 270.87 249.399V249.779C270.86 250.539 270.25 251.159 269.49 251.159Z" fill="#4D494A"/>
<path d="M279.56 251.159H273.71C272.95 251.159 272.33 250.539 272.33 249.779V249.399C272.33 248.639 272.95 248.029 273.71 248.029H279.56C280.32 248.029 280.94 248.649 280.94 249.399V249.779C280.94 250.539 280.32 251.159 279.56 251.159Z" fill="#4D494A"/>
<path d="M301.36 251.159H283.79C283.03 251.159 282.41 250.539 282.41 249.779V249.399C282.41 248.639 283.03 248.029 283.79 248.029H301.36C302.12 248.029 302.74 248.649 302.74 249.399V249.779C302.73 250.539 302.12 251.159 301.36 251.159Z" fill="#4D494A"/>
<path d="M180 246.559H173.28C172.76 246.559 172.34 246.139 172.34 245.619V245.589C172.34 245.069 172.76 244.649 173.28 244.649H180C180.52 244.649 180.94 245.069 180.94 245.589V245.619C180.94 246.139 180.52 246.559 180 246.559Z" fill="#4D494A"/>
<path d="M200.15 246.559H193.43C192.91 246.559 192.49 246.139 192.49 245.619V245.589C192.49 245.069 192.91 244.649 193.43 244.649H200.15C200.67 244.649 201.09 245.069 201.09 245.589V245.619C201.09 246.139 200.67 246.559 200.15 246.559Z" fill="#4D494A"/>
<path d="M220.29 246.559H213.57C213.05 246.559 212.63 246.139 212.63 245.619V245.589C212.63 245.069 213.05 244.649 213.57 244.649H220.29C220.81 244.649 221.23 245.069 221.23 245.589V245.619C221.23 246.139 220.81 246.559 220.29 246.559Z" fill="#4D494A"/>
<path d="M230.37 246.559H223.65C223.13 246.559 222.71 246.139 222.71 245.619V245.589C222.71 245.069 223.13 244.649 223.65 244.649H230.37C230.89 244.649 231.31 245.069 231.31 245.589V245.619C231.31 246.139 230.89 246.559 230.37 246.559Z" fill="#4D494A"/>
<path d="M240.44 246.559H233.72C233.2 246.559 232.78 246.139 232.78 245.619V245.589C232.78 245.069 233.2 244.649 233.72 244.649H240.44C240.96 244.649 241.38 245.069 241.38 245.589V245.619C241.38 246.139 240.96 246.559 240.44 246.559Z" fill="#4D494A"/>
<path d="M250.51 246.559H243.79C243.27 246.559 242.85 246.139 242.85 245.619V245.589C242.85 245.069 243.27 244.649 243.79 244.649H250.51C251.03 244.649 251.45 245.069 251.45 245.589V245.619C251.45 246.139 251.03 246.559 250.51 246.559Z" fill="#4D494A"/>
<path d="M280.73 246.559H274.01C273.49 246.559 273.07 246.139 273.07 245.619V245.589C273.07 245.069 273.49 244.649 274.01 244.649H280.73C281.25 244.649 281.67 245.069 281.67 245.589V245.619C281.67 246.139 281.25 246.559 280.73 246.559Z" fill="#4D494A"/>
<path d="M316 132.909H148.07C147.96 132.909 147.87 132.819 147.87 132.709V126.019C147.87 124.179 149.36 122.689 151.2 122.689H312.88C314.72 122.689 316.21 124.179 316.21 126.019V132.709C316.21 132.819 316.12 132.909 316 132.909Z" fill="#2A2A86"/>
<path d="M161.299 125.27H153.199V130.36H161.299V125.27Z" fill="white"/>
<path d="M235.64 125.96H165.47V129.9H235.64V125.96Z" fill="white"/>
<path opacity="0.5" d="M233.11 270.8H231.78V284.65H233.11V270.8Z" fill="#C3C3C3"/>
<path d="M278.12 129.9C279.285 129.9 280.23 128.955 280.23 127.79C280.23 126.624 279.285 125.68 278.12 125.68C276.954 125.68 276.01 126.624 276.01 127.79C276.01 128.955 276.954 129.9 278.12 129.9Z" fill="#4267B2"/>
<path d="M287.03 129.9C288.195 129.9 289.14 128.955 289.14 127.79C289.14 126.624 288.195 125.68 287.03 125.68C285.865 125.68 284.92 126.624 284.92 127.79C284.92 128.955 285.865 129.9 287.03 129.9Z" fill="#4267B2"/>
<path d="M295.95 129.9C297.115 129.9 298.06 128.955 298.06 127.79C298.06 126.624 297.115 125.68 295.95 125.68C294.785 125.68 293.84 126.624 293.84 127.79C293.84 128.955 294.785 129.9 295.95 129.9Z" fill="#4267B2"/>
<path d="M304.87 129.9C306.035 129.9 306.98 128.955 306.98 127.79C306.98 126.624 306.035 125.68 304.87 125.68C303.704 125.68 302.76 126.624 302.76 127.79C302.76 128.955 303.704 129.9 304.87 129.9Z" fill="#4267B2"/>
<path d="M51.2603 125.66C63.7917 125.66 73.9503 115.502 73.9503 102.97C73.9503 90.4389 63.7917 80.2803 51.2603 80.2803C38.729 80.2803 28.5703 90.4389 28.5703 102.97C28.5703 115.502 38.729 125.66 51.2603 125.66Z" fill="white"/>
<path d="M49.4107 89.0106C42.4707 90.4406 38.0107 97.2206 39.4407 104.161C39.9207 106.501 41.0207 108.561 42.5207 110.211L42.2507 116.921L48.1707 113.811C50.1807 114.441 52.3707 114.581 54.5807 114.131C61.5207 112.701 65.9807 105.921 64.5507 98.9806C63.1307 92.0506 56.3507 87.5806 49.4107 89.0106Z" fill="url(#paint0_radial_2627_96354)"/>
<path d="M54.2702 112.171C52.0102 112.641 49.7702 112.381 47.7902 111.561L44.3102 113.371L44.4802 109.421C42.9202 107.961 41.7902 106.021 41.3302 103.781C40.1202 97.9207 43.9602 92.1907 49.9002 90.9607C55.8402 89.7407 61.6302 93.4907 62.8402 99.3407C64.0502 105.201 60.2202 110.941 54.2702 112.171Z" fill="url(#paint1_radial_2627_96354)"/>
<path d="M48.6207 101.23C48.7307 101.03 48.8407 100.83 48.9507 100.64C49.1407 100.31 49.4507 99.9605 49.3807 99.5405C49.3207 99.1405 49.1007 98.7805 48.8807 98.4505C48.7407 98.2405 48.6007 98.0305 48.4707 97.8205C48.2307 97.4305 47.9007 96.8905 47.6207 96.6905C47.2407 96.4205 46.6907 96.4605 46.3107 96.7505C46.3107 96.7505 44.0907 98.4405 45.3407 100.66C45.3407 100.66 48.1907 107.04 55.8707 106.89C55.8707 106.89 58.6007 106.72 58.9807 104.96C59.0607 104.58 59.0707 104.07 58.9607 103.7C58.8607 103.34 58.5507 103.15 58.2107 103.04C57.7707 102.9 57.3807 102.76 56.9007 102.63C56.4807 102.52 55.9807 102.33 55.5607 102.54C55.2507 102.7 55.0807 103.04 54.9107 103.32C54.6907 103.68 54.4507 104.04 54.2307 104.41C54.2207 104.43 50.2007 103.82 48.6207 101.23Z" fill="url(#paint2_radial_2627_96354)"/>
<path d="M370.71 253.44C381.82 257.88 393.98 260.35 405.82 258.59C417.66 256.83 429.12 250.46 435.33 240.22C442.27 228.78 437.81 215.29 429.86 205.53C422.59 196.61 410.82 194.1 400.23 198.22C388.47 202.8 380.15 212.67 371.58 221.48C367.6 225.57 363.41 230.35 358.24 233.3C352.47 236.59 345.99 236.71 339.52 236.49C339.52 236.5 359.6 249.01 370.71 253.44Z" fill="white"/>
<path fill-rule="evenodd" clip-rule="evenodd" d="M404.797 224.201V223.44H407.039V234.137H405.756C405.228 234.137 404.799 233.704 404.797 233.168C404.796 233.168 404.796 233.169 404.796 233.169C403.892 233.84 402.776 234.238 401.57 234.238C398.55 234.238 396.101 231.752 396.101 228.684C396.101 225.617 398.55 223.13 401.57 223.13C402.776 223.13 403.892 223.529 404.796 224.2C404.796 224.2 404.796 224.2 404.797 224.201ZM395.52 220V220.347C395.52 220.994 395.435 221.522 395.022 222.141L394.972 222.199C394.881 222.303 394.669 222.548 394.568 222.68L387.37 231.862H395.52V233.162C395.52 233.701 395.09 234.137 394.56 234.137H384V233.524C384 232.774 384.184 232.439 384.415 232.09L392.089 222.437H384.32V220H395.52ZM409.759 234.137C409.318 234.137 408.959 233.773 408.959 233.325V220H411.359V234.137H409.759ZM418.456 223.063C421.497 223.063 423.961 225.569 423.961 228.655C423.961 231.743 421.497 234.249 418.456 234.249C415.415 234.249 412.95 231.743 412.95 228.655C412.95 225.569 415.415 223.063 418.456 223.063ZM401.57 231.952C403.347 231.952 404.788 230.489 404.788 228.684C404.788 226.882 403.347 225.419 401.57 225.419C399.793 225.419 398.353 226.882 398.353 228.684C398.353 230.489 399.793 231.952 401.57 231.952ZM418.456 231.947C420.244 231.947 421.694 230.473 421.694 228.655C421.694 226.839 420.244 225.366 418.456 225.366C416.665 225.366 415.217 226.839 415.217 228.655C415.217 230.473 416.665 231.947 418.456 231.947Z" fill="#0068FF"/>
<path d="M124.753 122.674C116.753 118.434 104.973 119.924 96.7034 122.414C71.1734 130.094 44.7834 154.744 46.0434 183.454C46.7234 198.834 58.7334 212.154 72.7734 217.324C86.5034 222.384 101.233 217.414 110.233 206.164C116.393 198.474 119.313 188.714 118.323 178.914C116.823 164.234 105.293 151.544 108.683 136.204C109.463 132.704 111.193 129.254 113.903 126.844C116.943 124.154 121.033 123.924 124.753 122.674Z" fill="white"/>
<path d="M62 187.535V168.465C62 162.706 66.7059 158 72.4651 158H91.5349C97.2941 158 102 162.706 102 168.465V187.535C102 193.294 97.2941 198 91.5349 198H85.119L81.7674 197.179L78.881 198H72.4651C66.7059 198 62 193.294 62 187.535Z" fill="url(#paint3_linear_2627_96354)"/>
<path d="M89.7838 184.443L90.673 178.657H85.1189V174.908C85.1189 173.321 85.8987 171.789 88.3748 171.789H90.8919V166.864C90.8919 166.864 88.6073 166.468 86.4185 166.468C81.8494 166.468 78.8672 169.231 78.8672 174.252V178.657H73.792V184.443H78.8672V198H85.1189V184.443H89.7838Z" fill="white"/>
<path d="M345.223 42.2807C353.545 35.9535 355.162 24.078 348.835 15.756C342.508 7.43402 330.632 5.81694 322.31 12.1442C313.988 18.4714 312.371 30.3469 318.699 38.6689C325.026 46.9908 336.901 48.6079 345.223 42.2807Z" fill="white"/>
<path d="M333.78 39.8498C341.026 39.8498 346.9 34.1862 346.9 27.1998C346.9 20.2134 341.026 14.5498 333.78 14.5498C326.534 14.5498 320.66 20.2134 320.66 27.1998C320.66 34.1862 326.534 39.8498 333.78 39.8498Z" fill="url(#paint4_radial_2627_96354)"/>
<path d="M330.26 21.7193C330.29 21.6593 330.32 21.5893 330.34 21.5293C330.52 21.1493 330.75 20.7993 331.02 20.4893C331.26 20.2293 331.53 20.0093 331.83 19.8193C332.09 19.6593 332.36 19.5393 332.64 19.4493C332.87 19.3693 333.11 19.3193 333.35 19.2893C333.58 19.2593 333.82 19.2493 334.05 19.2493C334.28 19.2493 334.51 19.2593 334.75 19.2893C335 19.3293 335.25 19.3893 335.49 19.4693C335.78 19.5693 336.06 19.6993 336.32 19.8693C336.62 20.0593 336.89 20.2993 337.13 20.5693C337.41 20.8993 337.63 21.2693 337.81 21.6693C338.13 22.4193 338.06 23.7693 338 24.8693C337.99 25.0393 337.98 25.2093 337.98 25.3693V25.4393L338.02 25.4893C338.04 25.5093 338.21 25.6893 338.58 25.6993H338.59H338.6C338.76 25.6993 338.92 25.6593 339.07 25.5993C339.21 25.5493 339.34 25.4693 339.49 25.4393C339.64 25.3993 339.92 25.4793 340.02 25.5993C340.12 25.7193 340.01 25.8793 339.92 25.9593C339.79 26.0693 339.63 26.1493 339.48 26.2193C339.42 26.2393 339.35 26.2693 339.27 26.2993C338.91 26.4193 338.37 26.6093 338.18 27.0593C338.08 27.3193 338.11 27.6193 338.27 27.9493C338.34 28.1093 339.38 30.5293 341.71 30.9093C341.71 30.9193 341.71 30.9293 341.7 30.9493C341.66 31.0493 341.41 31.3793 339.86 31.6493C339.62 31.6893 339.56 31.9793 339.49 32.3093C339.47 32.4293 339.44 32.5493 339.41 32.6693C339.4 32.7093 339.4 32.7093 339.36 32.7093C339.35 32.7093 339.35 32.7093 339.34 32.7093C339.27 32.7093 339.17 32.6993 339.04 32.6693C338.82 32.6293 338.52 32.5693 338.13 32.5793C337.92 32.5793 337.69 32.5993 337.47 32.6393C337 32.7293 336.61 33.0193 336.2 33.3193C335.95 33.5093 335.7 33.6893 335.43 33.8393C335.13 33.9993 334.81 34.1093 334.47 34.1493C334.39 34.1593 334.32 34.1593 334.25 34.1593C333.89 34.1793 333.54 34.1393 333.2 34.0293C332.9 33.9293 332.62 33.7593 332.36 33.5793C332.25 33.5093 332.15 33.4293 332.04 33.3493C331.63 33.0493 331.24 32.7693 330.76 32.6893C330.54 32.6493 330.32 32.6393 330.1 32.6393C329.71 32.6393 329.41 32.7093 329.19 32.7493C329.07 32.7793 328.96 32.7993 328.9 32.7993C328.84 32.7993 328.84 32.7993 328.83 32.7493C328.79 32.6293 328.77 32.4993 328.74 32.3893C328.67 32.0593 328.61 31.7693 328.36 31.7393C326.8 31.4993 326.55 31.1693 326.51 31.0693C326.5 31.0493 326.5 31.0393 326.5 31.0293C328.82 30.6093 329.83 28.1793 329.89 28.0093C330.05 27.6693 330.07 27.3693 329.97 27.1093C329.78 26.6593 329.24 26.4793 328.87 26.3693C328.79 26.3393 328.72 26.3193 328.66 26.2993C328.45 26.2093 327.79 25.8993 328.21 25.6193C328.3 25.5593 328.4 25.5193 328.51 25.5293C328.62 25.5393 328.73 25.5893 328.83 25.6393C329.04 25.7193 329.26 25.7793 329.49 25.7793C329.89 25.7793 330.07 25.5793 330.09 25.5593L330.13 25.5093V25.4393C330.12 25.2793 330.11 25.1093 330.1 24.9393C330.04 23.8293 329.95 22.4693 330.26 21.7193ZM332.04 19.2793C331.61 19.4793 331.22 19.7593 330.88 20.0993C330.48 20.4993 330.16 20.9993 329.92 21.5693C329.57 22.4093 329.66 23.8193 329.74 24.9493C329.75 25.0693 329.76 25.1993 329.76 25.3193C329.71 25.3493 329.62 25.3693 329.5 25.3693C329.31 25.3693 329.13 25.3193 328.96 25.2493C328.81 25.1893 328.66 25.1293 328.5 25.1193C328.34 25.1193 328.18 25.1793 328.05 25.2593C327.87 25.3793 327.75 25.5393 327.72 25.7193C327.7 25.8393 327.7 26.0693 327.95 26.3093C328.09 26.4393 328.29 26.5593 328.55 26.6593C328.62 26.6893 328.7 26.7093 328.78 26.7393C329.08 26.8393 329.52 26.9793 329.64 27.2693C329.7 27.4093 329.68 27.6093 329.57 27.8393C329.57 27.8493 329.57 27.8493 329.56 27.8593C329.43 28.1893 329.24 28.4993 329.04 28.7893C328.73 29.2393 328.36 29.6693 327.92 29.9893C327.69 30.1593 327.45 30.2993 327.19 30.4093C326.96 30.5093 326.71 30.5493 326.47 30.6193C326.28 30.6793 326.12 30.8093 326.13 31.0393C326.13 31.0993 326.15 31.1493 326.17 31.2093C326.25 31.3993 326.42 31.5493 326.71 31.6893C327.06 31.8593 327.59 31.9993 328.27 32.0993C328.31 32.1693 328.34 32.3393 328.37 32.4593C328.4 32.5893 328.42 32.7093 328.46 32.8493C328.5 32.9993 328.61 33.1793 328.89 33.1693C328.99 33.1693 329.12 33.1393 329.26 33.1093C329.47 33.0693 329.75 33.0093 330.1 32.9993C330.29 32.9993 330.5 33.0193 330.7 33.0493C331.09 33.1193 331.43 33.3593 331.82 33.6493C331.85 33.6693 331.89 33.6993 331.92 33.7193C332.16 33.8893 332.41 34.0693 332.67 34.1993C332.97 34.3493 333.28 34.4593 333.61 34.4993C333.8 34.5293 333.99 34.5293 334.18 34.5293C334.39 34.5193 334.6 34.5093 334.8 34.4693C335.12 34.3993 335.42 34.2793 335.7 34.1093C335.83 34.0293 335.96 33.9493 336.08 33.8593C336.2 33.7793 336.32 33.6993 336.43 33.6093C336.82 33.3193 337.15 33.0693 337.54 32.9993C337.74 32.9593 337.94 32.9393 338.14 32.9393C338.48 32.9393 338.74 32.9793 338.98 33.0293C339.14 33.0593 339.25 33.0693 339.35 33.0693H339.36H339.37C339.57 33.0693 339.72 32.9493 339.78 32.7493C339.82 32.6193 339.84 32.4893 339.87 32.3593C339.89 32.2493 339.93 32.0693 339.96 31.9993C340.64 31.8793 341.17 31.7393 341.51 31.5593C341.8 31.4193 341.97 31.2593 342.05 31.0693C342.07 31.0093 342.09 30.9593 342.09 30.8993C342.1 30.6993 341.96 30.5293 341.78 30.4993C339.65 30.1493 338.67 27.8593 338.63 27.7693C338.63 27.7593 338.62 27.7593 338.62 27.7493C338.51 27.5193 338.48 27.3293 338.54 27.1793C338.65 26.8893 339.1 26.7393 339.4 26.6393C339.49 26.6093 339.57 26.5793 339.63 26.5593C339.92 26.4393 340.13 26.3093 340.26 26.1593C340.42 25.9793 340.45 25.8093 340.45 25.6993C340.44 25.2693 340.03 25.0293 339.67 25.0193C339.49 25.0193 339.28 25.0793 339.12 25.1493C338.96 25.2193 338.79 25.2693 338.61 25.2793C338.51 25.2793 338.44 25.2493 338.39 25.2293C338.4 25.1293 338.4 25.0193 338.41 24.9093V24.8593C338.47 23.7293 338.55 22.3193 338.18 21.4793C337.93 20.9093 337.6 20.4193 337.19 20.0193C336.85 19.6893 336.46 19.4193 336.02 19.2193C335.57 19.0193 335.1 18.8993 334.61 18.8493C334.43 18.8293 334.23 18.8193 334.05 18.8193C333.64 18.8193 333.22 18.8693 332.83 18.9793C332.55 19.0693 332.29 19.1593 332.04 19.2793Z" fill="#090909"/>
<path d="M339.861 31.6393C341.411 31.3793 341.661 31.0393 341.701 30.9393C341.711 30.9193 341.711 30.9093 341.711 30.8993C339.391 30.5193 338.341 28.0893 338.271 27.9393C338.111 27.5993 338.081 27.2993 338.181 27.0493C338.361 26.5993 338.911 26.4093 339.271 26.2893C339.351 26.2593 339.421 26.2393 339.481 26.2093C339.641 26.1393 339.791 26.0693 339.921 25.9493C340.011 25.8693 340.121 25.7093 340.021 25.5893C339.911 25.4593 339.641 25.3893 339.491 25.4293C339.351 25.4593 339.211 25.5393 339.071 25.5893C338.921 25.6493 338.761 25.6793 338.601 25.6893H338.591H338.581C338.211 25.6793 338.041 25.4993 338.021 25.4793L337.981 25.4293V25.3593C337.991 25.1993 338.001 25.0293 338.001 24.8593C338.061 23.7693 338.131 22.4093 337.811 21.6593C337.641 21.2593 337.411 20.8893 337.131 20.5593C336.891 20.2893 336.621 20.0493 336.321 19.8593C336.061 19.6893 335.781 19.5593 335.491 19.4593C335.251 19.3793 335.001 19.3193 334.751 19.2793C334.521 19.2493 334.291 19.2393 334.051 19.2393C333.811 19.2393 333.581 19.2493 333.351 19.2793C333.111 19.3093 332.871 19.3693 332.641 19.4393C332.361 19.5293 332.081 19.6593 331.831 19.8093C331.531 19.9893 331.261 20.2093 331.021 20.4793C330.741 20.7893 330.511 21.1393 330.341 21.5193C330.311 21.5793 330.281 21.6393 330.261 21.7093C329.951 22.4593 330.041 23.8193 330.111 24.9093C330.121 25.0793 330.131 25.2493 330.141 25.4093V25.4793L330.101 25.5293C330.081 25.5493 329.901 25.7493 329.501 25.7493C329.281 25.7493 329.051 25.6893 328.841 25.6093C328.731 25.5693 328.631 25.5093 328.521 25.4993C328.411 25.4893 328.311 25.5293 328.221 25.5893C327.801 25.8693 328.451 26.1793 328.671 26.2693C328.721 26.2893 328.801 26.3193 328.881 26.3393C329.241 26.4593 329.791 26.6293 329.981 27.0793C330.091 27.3293 330.061 27.6393 329.901 27.9793C329.841 28.1393 328.821 30.5793 326.511 30.9993C326.511 31.0093 326.511 31.0193 326.521 31.0393C326.561 31.1393 326.811 31.4693 328.371 31.7093C328.611 31.7493 328.671 32.0293 328.751 32.3593C328.781 32.4793 328.801 32.5993 328.841 32.7193C328.851 32.7593 328.851 32.7693 328.911 32.7693C328.981 32.7693 329.081 32.7493 329.201 32.7193C329.421 32.6693 329.721 32.6093 330.111 32.6093C330.321 32.6093 330.551 32.6293 330.771 32.6593C331.251 32.7393 331.631 33.0193 332.051 33.3193C332.161 33.3993 332.261 33.4793 332.371 33.5493C332.631 33.7293 332.911 33.8893 333.211 33.9993C333.551 34.1193 333.911 34.1493 334.261 34.1293C334.331 34.1293 334.411 34.1193 334.481 34.1193C334.821 34.0893 335.141 33.9793 335.441 33.8093C335.711 33.6593 335.971 33.4693 336.211 33.2893C336.621 32.9793 337.001 32.6893 337.481 32.6093C337.701 32.5693 337.921 32.5493 338.141 32.5493C338.531 32.5493 338.831 32.5993 339.051 32.6393C339.171 32.6593 339.281 32.6793 339.351 32.6793C339.361 32.6793 339.361 32.6793 339.371 32.6793C339.411 32.6793 339.411 32.6793 339.421 32.6393C339.451 32.5193 339.481 32.3993 339.501 32.2793C339.561 31.9693 339.611 31.6793 339.861 31.6393Z" fill="white"/>
<path d="M123.95 88.9C136.073 88.9 145.9 79.0727 145.9 66.95C145.9 54.8274 136.073 45 123.95 45C111.827 45 102 54.8274 102 66.95C102 79.0727 111.827 88.9 123.95 88.9Z" fill="white"/>
<path d="M129.131 81.5142C136.793 78.4369 140.51 69.7309 137.432 62.0687C134.355 54.4066 125.649 50.6897 117.987 53.767C110.325 56.8443 106.608 65.5503 109.685 73.2125C112.762 80.8746 121.468 84.5915 129.131 81.5142Z" fill="#457AB1"/>
<path d="M114.529 64.0993L118.509 63.9093L119.119 76.7093L115.139 76.8993L114.529 64.0993ZM116.219 57.6393C117.489 57.5793 118.569 58.5693 118.629 59.8393C118.689 61.1093 117.709 62.1893 116.429 62.2493C115.149 62.3093 114.079 61.3293 114.009 60.0493C113.969 58.7793 114.949 57.6993 116.219 57.6393Z" fill="white"/>
<path d="M121.009 63.7894L124.829 63.6094L124.909 65.3594H124.959C125.439 64.3294 126.689 63.2094 128.629 63.1094C132.659 62.9194 133.529 65.5294 133.689 68.9794L134.019 75.9994L130.039 76.1894L129.749 69.9594C129.679 68.4794 129.559 66.5694 127.519 66.6594C125.449 66.7594 125.209 68.3894 125.289 70.0594L125.589 76.3894L121.609 76.5794L121.009 63.7894Z" fill="white"/>
<path d="M347.193 138.771C357.906 134.013 359.985 121.745 364.982 112.424C371.242 100.744 382.962 91.7527 396.182 89.7877C410.294 87.6807 423.191 96.1501 424.944 110.784C426.686 125.329 416.846 138.477 403.327 143.106C394.079 146.268 384.009 146.079 374.334 144.677C364.757 143.292 355.227 140.905 345.753 139.278C346.245 139.144 346.73 138.98 347.193 138.771Z" fill="white"/>
<path d="M379 125.59L379 111.65C379 107.44 382.44 104 386.65 104L400.59 104C404.8 104 408.24 107.44 408.24 111.65L408.24 125.59C408.24 129.8 404.8 133.24 400.59 133.24L386.65 133.24C382.45 133.24 379 129.8 379 125.59Z" fill="url(#paint5_linear_2627_96354)"/>
<path d="M401.7 113.61C401.19 113.84 400.63 113.98 400.09 114.07C400.35 114.03 400.73 113.56 400.88 113.37C401.11 113.08 401.31 112.75 401.42 112.39C401.43 112.36 401.44 112.33 401.42 112.31C401.38 112.3 401.36 112.3 401.33 112.32C400.72 112.65 400.09 112.88 399.42 113.05C399.36 113.06 399.32 113.05 399.29 113.02C399.23 112.96 399.18 112.9 399.12 112.85C398.84 112.61 398.54 112.42 398.19 112.28C397.74 112.1 397.25 112.02 396.77 112.05C396.3 112.08 395.84 112.21 395.42 112.43C395 112.65 394.63 112.95 394.33 113.32C394.02 113.7 393.8 114.15 393.68 114.62C393.57 115.08 393.58 115.53 393.65 115.99C393.66 116.07 393.65 116.08 393.58 116.07C390.95 115.68 388.78 114.74 387.01 112.73C386.93 112.64 386.89 112.64 386.83 112.74C386.06 113.9 386.43 115.76 387.4 116.68C387.53 116.8 387.66 116.92 387.8 117.04C387.75 117.05 387.11 116.98 386.53 116.68C386.45 116.63 386.41 116.66 386.41 116.75C386.4 116.88 386.41 116.99 386.43 117.13C386.58 118.3 387.39 119.39 388.51 119.82C388.64 119.88 388.79 119.92 388.93 119.95C388.68 120.01 388.41 120.05 387.69 119.99C387.6 119.97 387.56 120.02 387.6 120.1C388.15 121.59 389.33 122.03 390.21 122.29C390.33 122.31 390.45 122.31 390.57 122.34C390.56 122.35 390.56 122.35 390.55 122.36C390.26 122.81 389.24 123.14 388.77 123.31C387.91 123.61 386.97 123.75 386.06 123.66C385.91 123.64 385.88 123.64 385.84 123.66C385.8 123.68 385.83 123.72 385.88 123.76C386.06 123.88 386.25 123.99 386.44 124.09C387.02 124.4 387.62 124.64 388.25 124.81C391.51 125.71 395.17 125.05 397.62 122.62C399.54 120.71 400.21 118.08 400.21 115.45C400.21 115.35 400.33 115.29 400.4 115.24C400.9 114.86 401.3 114.42 401.67 113.91C401.75 113.8 401.75 113.7 401.75 113.66C401.75 113.65 401.75 113.65 401.75 113.65C401.77 113.57 401.77 113.58 401.7 113.61Z" fill="white"/>
<g opacity="0.8">
<path d="M340.01 189.12C341.55 188.23 341.75 186.13 341.77 184.35C341.81 181.08 341.85 177.81 341.89 174.54C341.91 173.21 341.94 171.81 342.63 170.68C343.32 169.55 344.91 168.85 346.02 169.58C346.52 169.91 346.83 170.46 347.09 171C350.41 178.09 346.42 185.66 340.01 189.12Z" fill="white"/>
</g>
<g opacity="0.8">
<path d="M341.07 191.63C343.91 192.58 346.79 190.49 349.06 188.54C353.23 184.95 357.4 181.36 361.57 177.76C363.26 176.3 365.07 174.79 367.27 174.39C369.47 174 372.13 175.23 372.44 177.44C372.58 178.44 372.24 179.45 371.83 180.38C366.59 192.47 352.57 195.87 341.07 191.63Z" fill="white"/>
</g>
<g opacity="0.8">
<path d="M168.871 104.615C169.581 102.985 168.491 101.175 167.451 99.7355C165.541 97.0855 163.621 94.4355 161.711 91.7855C160.931 90.7055 160.131 89.5655 160.011 88.2355C159.891 86.9155 160.751 85.4055 162.081 85.3355C162.681 85.3055 163.261 85.5555 163.791 85.8455C170.671 89.5655 171.961 98.0355 168.871 104.615Z" fill="white"/>
</g>
<g opacity="0.8">
<path d="M179.381 106.005C181.051 106.625 182.801 105.445 184.181 104.325C186.731 102.275 189.271 100.225 191.821 98.1752C192.851 97.3452 193.961 96.4752 195.271 96.2852C196.581 96.0952 198.141 96.8752 198.281 98.1952C198.351 98.7952 198.121 99.3852 197.861 99.9252C194.511 106.995 186.121 108.745 179.381 106.005Z" fill="white"/>
</g>
<g opacity="0.8">
<path d="M171.221 106.006C174.071 105.086 175.141 101.686 175.801 98.7656C177.021 93.3956 178.231 88.0256 179.451 82.6556C179.941 80.4756 180.501 78.1856 182.031 76.5556C183.571 74.9356 186.431 74.3456 188.001 75.9356C188.711 76.6556 189.031 77.6656 189.261 78.6556C192.231 91.5056 182.991 102.576 171.221 106.006Z" fill="white"/>
</g>
<g opacity="0.8">
<path d="M116.84 236.24C114.36 239.82 112.09 243.44 111.46 248.13C111.13 250.59 111.27 253.5 113.83 254.72C121.7 258.5 126.44 243.09 127.97 238.11C131.89 225.38 127.38 210.24 126.62 214.33C125.74 219.05 124.15 223.94 121.91 228.34C120.45 231.19 118.59 233.7 116.84 236.24Z" fill="white"/>
</g>
<path d="M254.49 101.72C252.79 93.08 251.35 84.4 248.97 75.92C246.72 67.92 242.36 60.6 240.55 52.32C238.12 41.22 240.16 29.31 248.52 21.14C259.58 10.32 276.96 10.68 289.82 18.28C304.2 26.78 310.57 42.18 304.57 58.01C297.92 75.55 281.23 90.89 264.18 98.22C261.11 99.54 257.76 101.28 254.56 102.1C254.54 101.97 254.52 101.85 254.49 101.72Z" fill="white"/>
<path d="M289.75 61.1203C289.68 65.1603 286.35 68.3803 282.32 68.3103L261.35 67.9603C257.31 67.8903 254.09 64.5603 254.16 60.5303L254.51 39.5603C254.58 35.5203 257.91 32.3003 261.94 32.3703L282.91 32.7203C286.95 32.7903 290.17 36.1203 290.1 40.1603L289.75 61.1203Z" fill="url(#paint6_radial_2627_96354)"/>
<path d="M277.5 36.9906L267.2 36.8206C262.63 36.7406 258.87 40.3906 258.79 44.9506L258.62 55.2506C258.54 59.8206 262.18 63.5806 266.75 63.6606L277.05 63.8306C281.62 63.9106 285.38 60.2706 285.46 55.7006L285.63 45.4006C285.71 40.8406 282.07 37.0706 277.5 36.9906ZM282.9 54.6706C282.84 58.3606 279.8 61.3006 276.11 61.2406L267.78 61.1006C264.09 61.0406 261.15 58.0006 261.21 54.3106L261.35 45.9806C261.41 42.2906 264.45 39.3506 268.15 39.4106L276.48 39.5506C280.17 39.6106 283.11 42.6606 283.05 46.3506L282.9 54.6706Z" fill="white"/>
<path d="M272.61 43.3107C268.7 43.2407 265.49 46.3607 265.42 50.2607C265.35 54.1607 268.47 57.3807 272.37 57.4507C276.27 57.5207 279.49 54.4007 279.56 50.5007C279.62 46.6007 276.51 43.3807 272.61 43.3107ZM272.42 54.6407C270.07 54.6007 268.2 52.6607 268.24 50.3107C268.28 47.9607 270.21 46.0907 272.57 46.1307C274.92 46.1707 276.79 48.1007 276.75 50.4607C276.7 52.8007 274.77 54.6807 272.42 54.6407Z" fill="white"/>
<path d="M280.991 43.3411C280.971 44.3311 280.151 45.1211 279.161 45.1111C278.171 45.0911 277.381 44.2811 277.391 43.2811C277.411 42.2911 278.221 41.4911 279.221 41.5111C280.211 41.5311 281.001 42.3511 280.991 43.3411Z" fill="white"/>
<path opacity="0.8" d="M115.44 226.56C117.71 226.56 119.55 224.72 119.55 222.45C119.55 220.18 117.71 218.34 115.44 218.34C113.17 218.34 111.33 220.18 111.33 222.45C111.33 224.72 113.17 226.56 115.44 226.56Z" fill="white"/>
<path opacity="0.8" d="M245.22 95.11C245.22 97.38 243.38 99.22 241.11 99.22C238.84 99.22 237 97.38 237 95.11C237 92.84 238.84 91 241.11 91C243.38 91.01 245.22 92.85 245.22 95.11Z" fill="white"/>
<path opacity="0.8" d="M337.26 208.13C339.53 208.13 341.37 206.29 341.37 204.02C341.37 201.75 339.53 199.91 337.26 199.91C334.991 199.91 333.15 201.75 333.15 204.02C333.15 206.29 334.991 208.13 337.26 208.13Z" fill="white"/>
<path d="M370.72 53.8993L386.81 39.4893" stroke="#2A2A86" stroke-width="3" stroke-miterlimit="10" stroke-linecap="round"/>
<path d="M375.8 61.0696L395.86 53.0596" stroke="#2A2A86" stroke-width="3" stroke-miterlimit="10" stroke-linecap="round"/>
<path d="M378.37 72.8994L399.91 74.5294" stroke="#2A2A86" stroke-width="3" stroke-miterlimit="10" stroke-linecap="round"/>
<path d="M363.7 49.8895L374.5 31.1895" stroke="#2A2A86" stroke-width="3" stroke-miterlimit="10" stroke-linecap="round"/>
<path d="M23.6 171.13L2 171.41" stroke="#FCAF17" stroke-width="3" stroke-miterlimit="10" stroke-linecap="round"/>
<path d="M24.4801 158.719L4.1001 151.579" stroke="#FCAF17" stroke-width="3" stroke-miterlimit="10" stroke-linecap="round"/>
<path d="M28.5101 146.16L10.6201 134.06" stroke="#FCAF17" stroke-width="3" stroke-miterlimit="10" stroke-linecap="round"/>
<path d="M26.2598 183.81L5.81982 190.81" stroke="#FCAF17" stroke-width="3" stroke-miterlimit="10" stroke-linecap="round"/>
<defs>
<radialGradient id="paint0_radial_2627_96354" cx="0" cy="0" r="1" gradientUnits="userSpaceOnUse" gradientTransform="translate(49.8129 116.108) rotate(-11.6482) scale(27.7138 27.7138)">
<stop offset="0.2194" stop-color="#E5E5E5"/>
<stop offset="0.8827" stop-color="#FCFCFC"/>
</radialGradient>
<radialGradient id="paint1_radial_2627_96354" cx="0" cy="0" r="1" gradientUnits="userSpaceOnUse" gradientTransform="translate(50.136 113.639) rotate(-11.6509) scale(23.7304 23.3897)">
<stop offset="0.2602" stop-color="#6FB452"/>
<stop offset="0.7602" stop-color="#83C76B"/>
</radialGradient>
<radialGradient id="paint2_radial_2627_96354" cx="0" cy="0" r="1" gradientUnits="userSpaceOnUse" gradientTransform="translate(48.9275 110.362) rotate(-11.6482) scale(12.3983 12.3983)">
<stop offset="0.2194" stop-color="#E5E5E5"/>
<stop offset="0.8827" stop-color="white"/>
</radialGradient>
<linearGradient id="paint3_linear_2627_96354" x1="98.9298" y1="161.074" x2="65.0739" y2="194.93" gradientUnits="userSpaceOnUse">
<stop stop-color="#4676ED"/>
<stop offset="0.1854" stop-color="#436DE4"/>
<stop offset="0.487" stop-color="#3C55CD"/>
<stop offset="0.8651" stop-color="#302EA8"/>
<stop offset="1" stop-color="#2B1E99"/>
</linearGradient>
<radialGradient id="paint4_radial_2627_96354" cx="0" cy="0" r="1" gradientUnits="userSpaceOnUse" gradientTransform="translate(332.926 41.7118) scale(33.6129 35.182)">
<stop offset="0.0918" stop-color="#F8F63B"/>
<stop offset="0.7296" stop-color="#FDFB3B"/>
</radialGradient>
<linearGradient id="paint5_linear_2627_96354" x1="405.999" y1="106.247" x2="381.251" y2="130.996" gradientUnits="userSpaceOnUse">
<stop stop-color="#33CCFF"/>
<stop offset="1" stop-color="#337FFF"/>
</linearGradient>
<radialGradient id="paint6_radial_2627_96354" cx="0" cy="0" r="1" gradientUnits="userSpaceOnUse" gradientTransform="translate(264.415 70.7624) rotate(0.956846) scale(47.1756 47.1756)">
<stop offset="0.0969" stop-color="#F3D67E"/>
<stop offset="0.1546" stop-color="#EEC97A"/>
<stop offset="0.2605" stop-color="#E2A870"/>
<stop offset="0.4016" stop-color="#CE735F"/>
<stop offset="0.449" stop-color="#C75F59"/>
<stop offset="0.6786" stop-color="#B32E97"/>
<stop offset="1" stop-color="#6868DA"/>
</radialGradient>
</defs>
</svg>
