<svg width="176" height="90" viewBox="0 0 176 90" fill="none" xmlns="http://www.w3.org/2000/svg">
<path d="M65.1602 49.1976C63.1353 49.2017 61.1524 48.644 59.4506 47.5916C57.7488 46.5392 56.4007 45.0371 55.5689 43.2664C54.7371 41.4957 54.4571 39.532 54.7627 37.6121C55.0682 35.6922 55.9463 33.8981 57.291 32.446C58.6358 30.994 60.3897 29.9461 62.3414 29.4286C64.2931 28.9112 66.3592 28.9463 68.2905 29.5297C70.2219 30.1131 71.9361 31.2199 73.2263 32.7167C74.5166 34.2135 75.3279 36.0363 75.5624 37.9654H86.1015C85.7852 32.7272 83.3526 27.8136 79.3203 24.2678C75.288 20.7221 69.9735 18.8235 64.5053 18.9752C59.0371 19.127 53.8459 21.3171 50.034 25.0805C46.2222 28.8439 44.0898 33.8842 44.0898 39.1312C44.0898 44.3781 46.2222 49.4184 50.034 53.1818C53.8459 56.9452 59.0371 59.1353 64.5053 59.2871C69.9735 59.4388 75.288 57.5402 79.3203 53.9945C83.3526 50.4487 85.7852 45.5351 86.1015 40.2969H75.6007C75.3024 42.7508 74.0737 45.0138 72.1485 46.6551C70.2233 48.2964 67.736 49.2013 65.1602 49.1976V49.1976Z" fill="#2A2A86"/>
<path d="M30.6153 20.1377V39.9082C30.6153 45.0806 25.8248 49.271 20.4321 49.271C15.0394 49.271 10.2051 45.0648 10.2051 39.9082V20.1377H0V39.9082C-9.63669e-08 42.4815 0.528532 45.0296 1.55541 47.407C2.58229 49.7843 4.08739 51.9444 5.98476 53.7637C7.88213 55.5831 10.1346 57.0261 12.6135 58.0104C15.0924 58.9947 17.7492 59.5009 20.4321 59.5002C24.3247 59.5002 27.3195 58.5498 30.6153 55.6564V59.558C30.6153 64.7304 26.3668 68.9208 20.4321 68.9208C14.4974 68.9208 9.78354 64.7199 9.78354 59.558H0C0.0877528 64.6993 2.27872 69.6015 6.10042 73.2075C9.92213 76.8135 15.0684 78.8345 20.4294 78.8345C25.7904 78.8345 30.9366 76.8135 34.7583 73.2075C38.58 69.6015 40.771 64.6993 40.8588 59.558V20.1745L30.6153 20.1377Z" fill="#2A2A86"/>
<path d="M165.611 20.1377V39.9082C165.611 45.0806 160.821 49.271 155.428 49.271C150.035 49.271 145.201 45.0701 145.201 39.9082V20.1377H134.996V39.9082C134.996 42.4815 135.525 45.0296 136.551 47.407C137.578 49.7843 139.083 51.9444 140.981 53.7637C142.878 55.5831 145.131 57.0261 147.61 58.0104C150.088 58.9947 152.745 59.5009 155.428 59.5002C159.321 59.5002 162.316 58.5498 165.611 55.6564V59.558C165.611 64.7304 161.363 68.9208 155.428 68.9208C149.493 68.9208 144.78 64.7199 144.78 59.558H134.996C135.084 64.6993 137.275 69.6015 141.097 73.2075C144.918 76.8135 150.064 78.8345 155.425 78.8345C160.786 78.8345 165.933 76.8135 169.754 73.2075C173.576 69.6015 175.767 64.6993 175.855 59.558V20.1745L165.611 20.1377Z" fill="#FCAF17"/>
<path d="M120.578 0V22.4276C117.456 20.2225 113.686 19.0221 109.809 18.9986C98.859 18.9986 89.9569 27.4004 89.3438 37.971H99.8336C100.143 35.408 101.463 33.0556 103.522 31.3956C105.581 29.7356 108.224 28.8938 110.91 29.0425C113.596 29.1911 116.12 30.3191 117.967 32.1954C119.813 34.0716 120.842 36.554 120.842 39.1341C120.842 41.7142 119.813 44.1966 117.967 46.0728C116.12 47.949 113.596 49.077 110.91 49.2257C108.224 49.3744 105.581 48.5325 103.522 46.8726C101.463 45.2126 100.143 42.8602 99.8336 40.2972H89.3438C89.9624 50.873 98.8864 59.2643 109.809 59.2643C113.717 59.1971 117.506 57.9677 120.654 55.7461V55.7461L122.144 58.8022H130.854V0H120.578Z" fill="#FCAF17"/>
<path d="M72.7283 69H77.0206V82.687C77.0206 84.2805 76.6761 85.6226 75.987 86.7134C75.3075 87.8042 74.3648 88.6247 73.159 89.1748C71.9627 89.7249 70.5846 90 69.0246 90C67.4647 90 66.077 89.7249 64.8616 89.1748C63.6557 88.6247 62.7083 87.8042 62.0192 86.7134C61.3397 85.6226 61 84.2805 61 82.687V69H65.3066V82.687C65.3066 83.6165 65.4549 84.3753 65.7516 84.9634C66.0483 85.5515 66.4742 85.9831 67.0293 86.2581C67.5939 86.5332 68.259 86.6707 69.0246 86.6707C69.8094 86.6707 70.4745 86.5332 71.02 86.2581C71.5751 85.9831 71.9962 85.5515 72.2833 84.9634C72.58 84.3753 72.7283 83.6165 72.7283 82.687V69Z" fill="#003DD9"/>
<path d="M88.7489 72.5427L83.0642 89.7154H78.4848L86.2511 69H89.1652L88.7489 72.5427ZM93.4718 89.7154L87.7728 72.5427L87.3134 69H90.2562L98.0655 89.7154H93.4718ZM93.2134 82.0041V85.3476H82.1742V82.0041H93.2134Z" fill="#003DD9"/>
<path d="M107.569 69V89.7154H103.277V69H107.569ZM114 69V72.3435H96.9458V69H114Z" fill="#003DD9"/>
</svg>
