<svg width="12" height="12" viewBox="0 0 12 12" fill="none" xmlns="http://www.w3.org/2000/svg">
<path d="M5.3125 0H0.5C0.223437 0 0 0.223437 0 0.5V5.3125C0 5.38125 0.05625 5.4375 0.125 5.4375H5.3125C5.38125 5.4375 5.4375 5.38125 5.4375 5.3125V0.125C5.4375 0.05625 5.38125 0 5.3125 0ZM4.4375 4.4375H1V1H4.4375V4.4375ZM2.28125 3.28125H3.15625C3.225 3.28125 3.28125 3.225 3.28125 3.15625V2.28125C3.28125 2.2125 3.225 2.15625 3.15625 2.15625H2.28125C2.2125 2.15625 2.15625 2.2125 2.15625 2.28125V3.15625C2.15625 3.225 2.2125 3.28125 2.28125 3.28125ZM5.3125 6.5625H0.125C0.05625 6.5625 0 6.61875 0 6.6875V11.5C0 11.7766 0.223437 12 0.5 12H5.3125C5.38125 12 5.4375 11.9438 5.4375 11.875V6.6875C5.4375 6.61875 5.38125 6.5625 5.3125 6.5625ZM4.4375 11H1V7.5625H4.4375V11ZM2.28125 9.84375H3.15625C3.225 9.84375 3.28125 9.7875 3.28125 9.71875V8.84375C3.28125 8.775 3.225 8.71875 3.15625 8.71875H2.28125C2.2125 8.71875 2.15625 8.775 2.15625 8.84375V9.71875C2.15625 9.7875 2.2125 9.84375 2.28125 9.84375ZM11.5 0H6.6875C6.61875 0 6.5625 0.05625 6.5625 0.125V5.3125C6.5625 5.38125 6.61875 5.4375 6.6875 5.4375H11.875C11.9438 5.4375 12 5.38125 12 5.3125V0.5C12 0.223437 11.7766 0 11.5 0ZM11 4.4375H7.5625V1H11V4.4375ZM8.84375 3.28125H9.71875C9.7875 3.28125 9.84375 3.225 9.84375 3.15625V2.28125C9.84375 2.2125 9.7875 2.15625 9.71875 2.15625H8.84375C8.775 2.15625 8.71875 2.2125 8.71875 2.28125V3.15625C8.71875 3.225 8.775 3.28125 8.84375 3.28125ZM11.875 6.5625H11.125C11.0562 6.5625 11 6.61875 11 6.6875V8.78125H9.78125V6.6875C9.78125 6.61875 9.725 6.5625 9.65625 6.5625H6.6875C6.61875 6.5625 6.5625 6.61875 6.5625 6.6875V11.875C6.5625 11.9438 6.61875 12 6.6875 12H7.4375C7.50625 12 7.5625 11.9438 7.5625 11.875V8.0625H8.78125V9.65625C8.78125 9.725 8.8375 9.78125 8.90625 9.78125H11.875C11.9438 9.78125 12 9.725 12 9.65625V6.6875C12 6.61875 11.9438 6.5625 11.875 6.5625ZM9.65625 11H8.90625C8.8375 11 8.78125 11.0562 8.78125 11.125V11.875C8.78125 11.9438 8.8375 12 8.90625 12H9.65625C9.725 12 9.78125 11.9438 9.78125 11.875V11.125C9.78125 11.0562 9.725 11 9.65625 11ZM11.875 11H11.125C11.0562 11 11 11.0562 11 11.125V11.875C11 11.9438 11.0562 12 11.125 12H11.875C11.9438 12 12 11.9438 12 11.875V11.125C12 11.0562 11.9438 11 11.875 11Z" fill="#262626"/>
</svg>
