<svg width="40" height="40" viewBox="0 0 40 40" fill="none" xmlns="http://www.w3.org/2000/svg">
<circle cx="20" cy="20" r="20" fill="#27AE60"/>
<path fill-rule="evenodd" clip-rule="evenodd" d="M24.4989 13.3333H15.4985H15.4984H10.2487C9.46629 13.3333 8.83203 13.9675 8.83203 14.7499V19.2502V19.2502V20.7496C8.83203 20.7496 8.83203 20.7497 8.83203 20.7497V25.2499C8.83203 26.0323 9.46629 26.6666 10.2487 26.6666H15.4934C15.4968 26.6666 15.5001 26.6666 15.5035 26.6666H24.4939H24.504H29.7487C30.5311 26.6666 31.1654 26.0323 31.1654 25.2499V20.7543V20.745V19.2549V19.2455V14.7499C31.1654 13.9675 30.5311 13.3333 29.7487 13.3333H24.499H24.4989ZM15.7492 25.3333H24.2482L29.832 20.4474V19.5524L24.2482 14.6666H15.7492L10.1654 19.5524V20.4474L15.7492 25.3333ZM10.1654 22.2191V25.2499C10.1654 25.2959 10.2027 25.3333 10.2487 25.3333H13.7244L10.1654 22.2191ZM10.1654 17.7808L13.7244 14.6666H10.2487C10.2027 14.6666 10.1654 14.7039 10.1654 14.7499V17.7808ZM29.832 22.2191V25.2499C29.832 25.2959 29.7947 25.3333 29.7487 25.3333H26.273L29.832 22.2191ZM29.7487 14.6666H26.273L29.832 17.7807V14.7499C29.832 14.7039 29.7947 14.6666 29.7487 14.6666ZM17.6654 19.9999C17.6654 18.7113 18.71 17.6666 19.9987 17.6666C21.2874 17.6666 22.332 18.7113 22.332 19.9999C22.332 21.2886 21.2874 22.3333 19.9987 22.3333C18.71 22.3333 17.6654 21.2886 17.6654 19.9999ZM19.9987 16.3333C17.9737 16.3333 16.332 17.9749 16.332 19.9999C16.332 22.025 17.9737 23.6666 19.9987 23.6666C22.0237 23.6666 23.6654 22.025 23.6654 19.9999C23.6654 17.9749 22.0237 16.3333 19.9987 16.3333Z" fill="white"/>
</svg>
