<svg width="15" height="15" viewBox="0 0 15 15" fill="none" xmlns="http://www.w3.org/2000/svg">
<path d="M10.7292 0.333252C11.0751 0.333229 11.4078 0.465566 11.6593 0.703115C11.9107 0.940664 12.0617 1.26542 12.0812 1.61075L12.0833 1.68742V2.83325H12.8125C14.0208 2.83325 15 3.81242 15 5.02075V10.6458C15 11.0049 14.8573 11.3493 14.6034 11.6033C14.3494 11.8572 14.005 11.9999 13.6458 11.9999H12.0833V12.7291C12.0833 13.0882 11.9407 13.4327 11.6867 13.6866C11.4328 13.9406 11.0883 14.0833 10.7292 14.0833H4.27083C3.91169 14.0833 3.56725 13.9406 3.31329 13.6866C3.05934 13.4327 2.91667 13.0882 2.91667 12.7291V11.9999H1.35417C0.995019 11.9999 0.650582 11.8572 0.396626 11.6033C0.142671 11.3493 0 11.0049 0 10.6458V5.02075C0 3.81242 0.979167 2.83325 2.1875 2.83325H2.91667V1.68742C2.91664 1.34153 3.04898 1.00874 3.28653 0.757322C3.52408 0.505905 3.84883 0.354918 4.19417 0.335335L4.27083 0.333252H10.7292ZM3.95833 12.7291C3.95833 12.9016 4.09833 13.0416 4.27083 13.0416H10.7292C10.812 13.0416 10.8915 13.0087 10.9501 12.9501C11.0087 12.8915 11.0417 12.812 11.0417 12.7291V9.18742C11.0417 9.10454 11.0087 9.02505 10.9501 8.96645C10.8915 8.90784 10.812 8.87492 10.7292 8.87492H4.27083C4.18795 8.87492 4.10847 8.90784 4.04986 8.96645C3.99126 9.02505 3.95833 9.10454 3.95833 9.18742V12.7291ZM10.7292 1.37492H4.27083C4.19532 1.37492 4.12236 1.40227 4.06545 1.4519C4.00853 1.50154 3.97152 1.5701 3.96125 1.64492L3.95833 1.68742V2.83325H11.0417V1.68742C11.0417 1.6119 11.0143 1.53894 10.9647 1.48203C10.915 1.42512 10.8465 1.38811 10.7717 1.37784L10.7292 1.37492Z" fill="#71767B"/>
</svg>
