<svg width="19" height="19" viewBox="0 0 24 24" fill="none" xmlns="http://www.w3.org/2000/svg">
<path d="M15.1 19.3708L16.1 21.1108C15.14 21.5508 14.09 21.8408 13 21.9508V19.9308C13.74 19.8408 14.44 19.6508 15.1 19.3708ZM4.07005 13.0008H2.05005C2.16005 14.1008 2.45005 15.1408 2.89005 16.1008L4.63005 15.1008C4.35005 14.4408 4.16005 13.7408 4.07005 13.0008ZM15.1 4.63078L16.1 2.89078C15.14 2.45078 14.1 2.16078 13 2.05078V4.07078C13.74 4.16078 14.44 4.35078 15.1 4.63078ZM19.93 11.0008H21.9501C21.84 9.90078 21.5501 8.86078 21.1101 7.90078L19.3701 8.90078C19.6501 9.56078 19.84 10.2608 19.93 11.0008ZM8.90005 19.3708L7.90005 21.1108C8.86005 21.5508 9.91005 21.8408 11 21.9508V19.9308C10.26 19.8408 9.56005 19.6508 8.90005 19.3708ZM11 4.07078V2.05078C9.90005 2.16078 8.86005 2.45078 7.90005 2.89078L8.90005 4.63078C9.56005 4.35078 10.26 4.16078 11 4.07078ZM18.3601 7.17078L20.1 6.16078C19.4701 5.29078 18.7 4.52078 17.83 3.89078L16.82 5.63078C17.41 6.08078 17.9201 6.59078 18.3601 7.17078ZM4.63005 8.90078L2.89005 7.90078C2.45005 8.86078 2.16005 9.90078 2.05005 11.0008H4.07005C4.16005 10.2608 4.35005 9.56078 4.63005 8.90078ZM19.93 13.0008C19.84 13.7408 19.6501 14.4408 19.3701 15.1008L21.1101 16.1008C21.5501 15.1408 21.84 14.0908 21.9501 13.0008H19.93ZM16.83 18.3608L17.84 20.1008C18.71 19.4708 19.4801 18.7008 20.1101 17.8308L18.3701 16.8208C17.9201 17.4108 17.41 17.9208 16.83 18.3608ZM7.17005 5.64078L6.17005 3.89078C5.29005 4.53078 4.53005 5.29078 3.90005 6.17078L5.64005 7.18078C6.07477 6.59777 6.58988 6.07929 7.17005 5.64078ZM5.64005 16.8308L3.90005 17.8308C4.53005 18.7008 5.30005 19.4708 6.17005 20.1008L7.18005 18.3608C6.59704 17.9261 6.07855 17.4109 5.64005 16.8308ZM12 7.00078C11.45 7.00078 11 7.45078 11 8.00078V11.5908C11 12.1208 11.21 12.6308 11.59 13.0008L14.59 16.0008C14.777 16.1878 15.0306 16.2928 15.295 16.2928C15.5595 16.2928 15.8131 16.1878 16 16.0008C16.187 15.8138 16.2921 15.5602 16.2921 15.2958C16.2921 15.0314 16.187 14.7778 16 14.5908L13 11.5908V8.00078C13 7.45078 12.55 7.00078 12 7.00078Z" fill="#5D5D8A"/>
</svg>
