<svg width="14" height="14" viewBox="0 0 14 14" fill="none" xmlns="http://www.w3.org/2000/svg">
<path d="M13.3281 6.33203H3.04317L9.19903 0.988281C9.29746 0.902148 9.2377 0.742188 9.10762 0.742188H7.55196C7.4834 0.742188 7.41836 0.766797 7.36739 0.810742L0.724614 6.57461C0.663774 6.62735 0.614981 6.69255 0.58154 6.76579C0.548099 6.83903 0.530792 6.91861 0.530792 6.99912C0.530792 7.07964 0.548099 7.15921 0.58154 7.23245C0.614981 7.3057 0.663774 7.37089 0.724614 7.42363L7.40606 13.2227C7.43243 13.2455 7.46407 13.2578 7.49746 13.2578H9.10586C9.23594 13.2578 9.29571 13.0961 9.19727 13.0117L3.04317 7.66797H13.3281C13.4055 7.66797 13.4688 7.60469 13.4688 7.52734V6.47266C13.4688 6.39531 13.4055 6.33203 13.3281 6.33203Z" fill="#666666"/>
</svg>
