<svg width="16" height="16" viewBox="0 0 16 16" fill="none" xmlns="http://www.w3.org/2000/svg">
<path d="M9.21406 8L15.3664 0.666406C15.4695 0.544531 15.3828 0.359375 15.2234 0.359375H13.3531C13.243 0.359375 13.1375 0.408594 13.0648 0.492969L7.99062 6.54219L2.91641 0.492969C2.8461 0.408594 2.74063 0.359375 2.62813 0.359375H0.757817C0.598442 0.359375 0.511723 0.544531 0.614848 0.666406L6.76719 8L0.614848 15.3336C0.591747 15.3608 0.576927 15.394 0.572147 15.4293C0.567367 15.4647 0.572827 15.5006 0.58788 15.533C0.602933 15.5653 0.626946 15.5926 0.657069 15.6117C0.687191 15.6308 0.722158 15.6408 0.757817 15.6406H2.62813C2.73828 15.6406 2.84375 15.5914 2.91641 15.507L7.99062 9.45781L13.0648 15.507C13.1351 15.5914 13.2406 15.6406 13.3531 15.6406H15.2234C15.3828 15.6406 15.4695 15.4555 15.3664 15.3336L9.21406 8Z" fill="#71767B"/>
</svg>
