<svg width="18" height="18" viewBox="0 0 18 18" fill="none" xmlns="http://www.w3.org/2000/svg">
<path fill-rule="evenodd" clip-rule="evenodd" d="M4.49288 13.9775V14.0134C4.49288 14.5357 4.11967 14.9728 3.62589 15.0717H3.37771V15.0921C2.79898 15.0732 2.33418 14.5964 2.33418 14.0133V10.4995C2.33418 9.90443 2.81851 9.4201 3.41354 9.4201H4.49291L4.49288 13.9775ZM16.3329 1.5H5.15993C4.79149 1.5 4.49285 1.79861 4.49285 2.16709V8.08596H3.41351C2.08262 8.08596 1 9.1688 1 10.4995V14.0134C1 15.3443 2.08262 16.4269 3.41351 16.4269C3.52158 16.4269 3.62802 16.4197 3.73216 16.4059H14.1446C15.719 16.4059 17 15.125 17 13.5505V2.16709C17 1.79862 16.7014 1.5 16.3329 1.5ZM15.6659 13.5505C15.6659 14.3747 14.969 15.0717 14.1446 15.0717H5.58243C5.73912 14.752 5.82702 14.3927 5.82702 14.0134V2.83414H15.6659V13.5505ZM11.9564 5.45583H8.00057C7.63213 5.45583 7.33348 5.75444 7.33348 6.12292C7.33348 6.49136 7.63209 6.79 8.00057 6.79H11.9564C12.325 6.79 12.6234 6.49138 12.6234 6.12292C12.6234 5.75445 12.3248 5.45583 11.9564 5.45583ZM13.4713 8.50677H8.00057C7.63213 8.50677 7.33348 8.80539 7.33348 9.17386C7.33348 9.5423 7.63209 9.84095 8.00057 9.84095H13.4713C13.8398 9.84095 14.1384 9.54233 14.1384 9.17386C14.1384 8.80539 13.8398 8.50677 13.4713 8.50677ZM11.9476 11.3733H7.99184C7.6234 11.3733 7.32475 11.6719 7.32475 12.0404C7.32475 12.4088 7.62336 12.7075 7.99184 12.7075H11.9476C12.3163 12.7075 12.6147 12.4089 12.6147 12.0404C12.6147 11.6719 12.3161 11.3733 11.9476 11.3733Z" fill="#434362"/>
</svg>
