<svg width="12" height="14" viewBox="0 0 12 14" fill="none" xmlns="http://www.w3.org/2000/svg">
<path d="M8.59848 9.03359C8.9766 8.83047 9.40942 8.71484 9.87035 8.71484H9.87191C9.91879 8.71484 9.94067 8.65859 9.90629 8.62734C9.42694 8.19715 8.87936 7.8497 8.28598 7.59922C8.27973 7.59609 8.27348 7.59453 8.26723 7.59141C9.23754 6.88672 9.86879 5.74141 9.86879 4.44922C9.86879 2.30859 8.13754 0.574219 6.0016 0.574219C3.86566 0.574219 2.13598 2.30859 2.13598 4.44922C2.13598 5.74141 2.76723 6.88672 3.7391 7.59141C3.73285 7.59453 3.7266 7.59609 3.72035 7.59922C3.02191 7.89453 2.39535 8.31797 1.85629 8.85859C1.32034 9.39357 0.893654 10.0278 0.600039 10.7258C0.311153 11.4093 0.155245 12.1417 0.140664 12.8836C0.140247 12.9003 0.143172 12.9169 0.149267 12.9324C0.155362 12.9479 0.164503 12.9621 0.176152 12.974C0.187801 12.9859 0.201723 12.9954 0.217096 13.0019C0.232469 13.0084 0.248983 13.0117 0.265664 13.0117H1.2016C1.26879 13.0117 1.32504 12.957 1.3266 12.8898C1.35785 11.6836 1.84066 10.5539 2.69535 9.69766C3.57816 8.81172 4.75316 8.32422 6.00316 8.32422C6.8891 8.32422 7.7391 8.56953 8.47192 9.02891C8.49074 9.04074 8.51235 9.0474 8.53457 9.04822C8.55679 9.04904 8.57883 9.044 8.59848 9.03359ZM6.00316 7.13672C5.28754 7.13672 4.6141 6.85703 4.10629 6.34922C3.85644 6.10001 3.65836 5.80384 3.52348 5.47775C3.38859 5.15166 3.31956 4.8021 3.32035 4.44922C3.32035 3.73203 3.60004 3.05703 4.10629 2.54922C4.61254 2.04141 5.28598 1.76172 6.00316 1.76172C6.72035 1.76172 7.39223 2.04141 7.90004 2.54922C8.14989 2.79842 8.34797 3.0946 8.48285 3.42069C8.61774 3.74678 8.68677 4.09633 8.68598 4.44922C8.68598 5.16641 8.40629 5.84141 7.90004 6.34922C7.39223 6.85703 6.71879 7.13672 6.00316 7.13672ZM11.75 10.8555H10.4375V9.54297C10.4375 9.47422 10.3813 9.41797 10.3125 9.41797H9.43754C9.36879 9.41797 9.31254 9.47422 9.31254 9.54297V10.8555H8.00004C7.93129 10.8555 7.87504 10.9117 7.87504 10.9805V11.8555C7.87504 11.9242 7.93129 11.9805 8.00004 11.9805H9.31254V13.293C9.31254 13.3617 9.36879 13.418 9.43754 13.418H10.3125C10.3813 13.418 10.4375 13.3617 10.4375 13.293V11.9805H11.75C11.8188 11.9805 11.875 11.9242 11.875 11.8555V10.9805C11.875 10.9117 11.8188 10.8555 11.75 10.8555Z" fill="#757575"/>
</svg>
