<svg width="14" height="14" viewBox="0 0 14 14" fill="none" xmlns="http://www.w3.org/2000/svg">
<path d="M12.9682 6.21797C13.451 6.21797 13.6526 5.59766 13.2604 5.31172L7.2932 0.971094C7.20798 0.908659 7.10509 0.875 6.99945 0.875C6.89381 0.875 6.79091 0.908659 6.7057 0.971094L0.738508 5.31172C0.346321 5.59609 0.547883 6.21797 1.03226 6.21797H1.99945V12.0617H0.874446C0.805696 12.0617 0.749446 12.118 0.749446 12.1867V12.9992C0.749446 13.068 0.805696 13.1242 0.874446 13.1242H13.1244C13.1932 13.1242 13.2494 13.068 13.2494 12.9992V12.1867C13.2494 12.118 13.1932 12.0617 13.1244 12.0617H11.9994V6.21797H12.9682ZM6.99945 2.07266L11.2354 5.15391H2.76351L6.99945 2.07266ZM3.12445 6.21797H4.95257V12.0617H3.12445V6.21797ZM6.07757 6.21797H7.9057V12.0617H6.07757V6.21797ZM10.8744 12.0617H9.0307V6.21797H10.8744V12.0617Z" fill="#757575"/>
</svg>
