<svg width="16" height="15" viewBox="0 0 16 15" fill="none" xmlns="http://www.w3.org/2000/svg">
<path d="M11.7422 7.85547V9.21467C12.142 9.11473 12.4218 8.85488 12.4218 8.53507C12.4218 8.13531 12.2419 7.95541 11.7422 7.85547Z" fill="#757575"/>
<path d="M10.4629 6.49256C10.4629 6.65247 10.4629 6.99227 11.1625 7.15217V5.79297C10.7627 5.89291 10.4629 6.17275 10.4629 6.49256Z" fill="#757575"/>
<path d="M11.4216 2.95703C8.90296 2.95703 6.84409 5.01583 6.84409 7.53435C6.84409 9.77304 8.4632 11.632 10.582 12.0317C9.9224 12.7713 9.00291 13.191 8.00345 13.191C7.50373 13.191 7.02399 13.0911 6.60422 12.9112L7.12394 12.8313C7.28385 12.8113 7.38379 12.6514 7.3638 12.4915C7.34381 12.3315 7.18391 12.2316 7.02399 12.2516L5.70471 12.4715C5.68473 12.4715 5.66474 12.4715 5.64475 12.4915H5.62476C5.60477 12.4915 5.60477 12.5114 5.58478 12.5114C5.58478 12.5114 5.56479 12.5114 5.56479 12.5314C5.5448 12.5314 5.5448 12.5514 5.52481 12.5514L5.50482 12.5714C5.50482 12.5914 5.48483 12.5914 5.48483 12.6114C5.48483 12.6114 5.48483 12.6114 5.48483 12.6314C5.48483 12.6514 5.46484 12.6713 5.46484 12.6913C5.46484 12.6913 5.46484 12.6913 5.46484 12.7113C5.46484 12.7313 5.46484 12.7513 5.46484 12.7713V12.7913C5.46484 12.8113 5.46484 12.8113 5.46484 12.8313V12.8512C5.46484 12.8712 5.46484 12.8712 5.48483 12.8912C5.48483 12.8912 5.48483 12.8912 5.48483 12.9112L6.16446 14.2104C6.22443 14.3104 6.32438 14.3704 6.42432 14.3704C6.4643 14.3704 6.52426 14.3504 6.56424 14.3304C6.70416 14.2504 6.76413 14.0905 6.68418 13.9306L6.44431 13.4909C6.92405 13.6708 7.46375 13.7907 8.00345 13.7907C9.30274 13.7907 10.5021 13.1711 11.2617 12.1317C11.3216 12.1317 11.3616 12.1317 11.4216 12.1317C13.9402 12.1317 15.9991 10.0729 15.9991 7.55434C15.9991 5.01583 13.9402 2.95703 11.4216 2.95703ZM11.7414 9.81302V10.1328C11.7414 10.2927 11.6215 10.4127 11.4616 10.4127C11.3016 10.4127 11.1817 10.2927 11.1817 10.1328V9.79303C10.662 9.71308 10.2422 9.43324 10.0423 9.01349C9.96238 8.87357 10.0223 8.69367 10.1823 8.63371C10.3222 8.55376 10.5021 8.61372 10.562 8.77363C10.662 8.9935 10.9019 9.1534 11.2017 9.21337V7.75422C10.1623 7.55434 9.94239 6.97468 9.94239 6.49496C9.94239 5.85534 10.4821 5.33564 11.2017 5.21571V4.8959C11.2017 4.73599 11.3216 4.61606 11.4815 4.61606C11.6415 4.61606 11.7614 4.73599 11.7614 4.8959V5.21571C12.2611 5.29566 12.6809 5.55551 12.8808 5.95528C12.9607 6.09519 12.9008 6.27509 12.7608 6.35504C12.6209 6.435 12.441 6.37503 12.3611 6.23511C12.2411 6.03523 12.0213 5.87532 11.7414 5.81536V7.27451C12.2611 7.35446 13.0007 7.59432 13.0007 8.53377C13.0007 9.15341 12.461 9.69309 11.7414 9.81302Z" fill="#757575"/>
<path d="M7.68436 10.8142C6.92477 9.93472 6.46502 8.79539 6.46502 7.55611C6.46502 6.31684 6.92477 5.15752 7.68436 4.29802C7.72434 4.25804 7.70435 4.21807 7.68436 4.17809C7.0647 3.59843 6.28513 3.21865 5.44559 3.05874C6.10523 2.33916 7.02472 1.91941 8.00418 1.91941C8.50391 1.91941 8.96366 1.99936 9.38343 2.15927L8.94367 2.21923C8.78376 2.23922 8.68381 2.39913 8.7038 2.53905C8.72379 2.67897 8.84372 2.77891 8.98364 2.77891C9.00363 2.77891 9.00364 2.77891 9.02362 2.77891L10.3029 2.57902C10.3229 2.57902 10.3229 2.57902 10.3429 2.55904C10.4229 2.53905 10.4628 2.47908 10.5028 2.41912C10.5428 2.33916 10.5428 2.23922 10.5028 2.15927L9.90314 0.97996C9.82319 0.840041 9.66327 0.780077 9.52335 0.86003C9.38343 0.939983 9.32346 1.09989 9.40342 1.23981L9.58332 1.57961C9.10358 1.39971 8.54389 1.27978 7.98419 1.27978C6.70489 1.27978 5.50556 1.89942 4.74597 2.91883C4.56607 2.91883 4.38617 2.91883 4.22626 2.91883C1.9675 3.09872 0.148492 4.93764 0.00856876 7.19632C-0.151344 9.85477 1.9475 12.0735 4.58606 12.0735C5.74542 12.0735 6.84482 11.6537 7.66437 10.8742C7.70434 10.8942 7.70435 10.8342 7.68436 10.8142ZM5.70544 9.7948C5.44559 9.91473 5.16574 9.9747 4.88589 9.9747C3.94641 9.9747 3.14685 9.27511 2.84701 8.31567H2.62713C2.46722 8.31567 2.34729 8.19574 2.34729 8.03583C2.34729 7.87593 2.46722 7.756 2.62713 7.756H2.74707C2.74707 7.69603 2.74707 7.61608 2.74707 7.55611C2.74707 7.49615 2.74707 7.41619 2.74707 7.35623H2.62713C2.46722 7.35623 2.34729 7.2363 2.34729 7.07639C2.34729 6.91649 2.46722 6.79656 2.62713 6.79656H2.84701C3.12686 5.83712 3.92642 5.13753 4.88589 5.13753C5.16574 5.13753 5.44559 5.19749 5.70544 5.31742C5.84537 5.37739 5.90534 5.55728 5.84537 5.6972C5.7854 5.83712 5.6055 5.89708 5.46557 5.83712C5.28567 5.75717 5.08578 5.71719 4.88589 5.71719C4.26623 5.71719 3.70654 6.15693 3.46667 6.79656H5.26568C5.4256 6.79656 5.54553 6.91649 5.54553 7.07639C5.54553 7.2363 5.4256 7.35623 5.26568 7.35623H3.32675C3.32675 7.41619 3.32675 7.49615 3.32675 7.55611C3.32675 7.61608 3.32675 7.69603 3.32675 7.756H5.26568C5.4256 7.756 5.54553 7.87593 5.54553 8.03583C5.54553 8.19574 5.4256 8.31567 5.26568 8.31567H3.46667C3.70654 8.95529 4.26623 9.39504 4.88589 9.39504C5.08578 9.39504 5.28567 9.35506 5.46557 9.27511C5.6055 9.21514 5.7854 9.27511 5.84537 9.41503C5.90534 9.55494 5.84537 9.71485 5.70544 9.7948Z" fill="#757575"/>
</svg>
