<svg width="16" height="16" viewBox="0 0 16 16" fill="none" xmlns="http://www.w3.org/2000/svg">
<path d="M0.13965 6.96216L4.18953 9.57553L5.68579 10.5331C5.72569 10.573 5.78554 10.573 5.84539 10.573C5.90524 10.573 5.94514 10.5531 6.00499 10.5331L15.8604 4.1493C15.9402 4.08945 16 4.00965 16 3.90991C16 3.81016 15.9601 3.73036 15.8604 3.67052L14.384 2.71294L11.8105 1.05714L10.3142 0.0995736C10.2145 0.0397255 10.0948 0.0397255 9.99501 0.0995736L0.13965 6.48338C0.0598498 6.54322 0 6.62302 0 6.72277C0 6.80257 0.0398996 6.90232 0.13965 6.96216ZM2.25436 5.7652L8.65835 1.61573C9.09726 1.85512 9.61596 1.97482 10.1347 1.97482C10.6534 1.97482 11.1721 1.85512 11.611 1.61573L13.6858 2.97229C13.4264 3.25158 13.2668 3.57077 13.2668 3.90991C13.2668 4.24905 13.4065 4.56824 13.6858 4.84753L7.30175 8.997C6.44389 8.53816 5.20698 8.53816 4.34913 8.997L2.27431 7.64044C2.53366 7.36115 2.69327 7.04196 2.69327 6.70282C2.67332 6.36368 2.53367 6.04449 2.25436 5.7652Z" fill="#757575"/>
<path d="M6.2438 5.66196C6.70265 5.9612 7.26125 5.94125 7.95951 5.64201L8.77746 6.1607C8.57796 6.2006 8.37846 6.22054 8.19891 6.18064C8.03931 6.14075 7.87971 6.24049 7.85976 6.40009C7.81986 6.55968 7.91961 6.71928 8.07921 6.73923C8.19891 6.75918 8.31861 6.77913 8.45826 6.77913C8.77746 6.77913 9.11662 6.69933 9.39592 6.55968L9.65527 6.73923C9.69517 6.77913 9.75502 6.77913 9.81487 6.77913C9.91462 6.77913 9.99442 6.73923 10.0543 6.63948C10.1341 6.49984 10.0942 6.32029 9.97447 6.24049L9.87472 6.18064C10.0343 6.0011 10.1141 5.80161 10.1141 5.60211C10.1141 5.34277 9.97447 5.10338 9.73507 4.94378C9.15652 4.56474 8.55801 4.70439 8.01936 4.96373L7.20141 4.44505C7.40091 4.40515 7.58046 4.3852 7.76001 4.4251C7.91961 4.44505 8.05926 4.3453 8.09916 4.20566C8.13906 4.04606 8.01936 3.90642 7.87971 3.86652C7.46076 3.78672 7.00191 3.86652 6.6029 4.06601L6.34355 3.88646C6.2039 3.80667 6.02435 3.84657 5.94455 3.96626C5.86475 4.10591 5.90465 4.28545 6.02435 4.36525L6.1241 4.4251C5.9645 4.60464 5.8847 4.80414 5.8847 5.00363C5.86475 5.28292 6.0044 5.50237 6.2438 5.66196ZM9.39592 5.44252C9.51562 5.52231 9.51562 5.58216 9.51562 5.60211C9.51562 5.66196 9.47572 5.76171 9.37597 5.86146L8.59791 5.36272C8.89717 5.26297 9.15652 5.26297 9.39592 5.44252ZM6.58295 4.74429L7.34106 5.24302C7.02185 5.32282 6.7625 5.30287 6.54305 5.18317C6.42335 5.10338 6.42335 5.04353 6.42335 5.02358C6.4433 4.94378 6.4832 4.84404 6.58295 4.74429Z" fill="#757575"/>
<path d="M15.5224 4.81105L5.82663 11.0951L0.460051 7.60396C0.3204 7.52416 0.140849 7.56406 0.0610485 7.68376C-0.0187519 7.8234 0.0211471 8.00295 0.140848 8.08274L5.66703 11.6736C5.70693 11.7135 5.76678 11.7135 5.82663 11.7135C5.88648 11.7135 5.92638 11.6936 5.98623 11.6736L15.8416 5.28983C15.9812 5.21003 16.0211 5.03049 15.9214 4.89084C15.8216 4.77115 15.6421 4.73125 15.5224 4.81105Z" fill="#757575"/>
<path d="M15.5224 5.96557L5.82663 12.2496L0.460051 8.75848C0.3204 8.67868 0.140849 8.71858 0.0610485 8.83828C-0.0187519 8.97792 0.0211471 9.15747 0.140848 9.23727L5.66703 12.8282C5.70693 12.8681 5.76678 12.8681 5.82663 12.8681C5.88648 12.8681 5.92638 12.8481 5.98623 12.8282L15.8416 6.44435C15.9812 6.36455 16.0211 6.18501 15.9214 6.04536C15.8216 5.90572 15.6421 5.86582 15.5224 5.96557Z" fill="#757575"/>
<path d="M15.5224 7.10011L5.82663 13.3842L0.460051 9.89302C0.3204 9.81323 0.140849 9.85312 0.0610485 9.97282C-0.0187519 10.1125 0.0211471 10.292 0.140848 10.3718L5.66703 13.9627C5.70693 14.0026 5.76678 14.0026 5.82663 14.0026C5.88648 14.0026 5.92638 13.9826 5.98623 13.9627L15.8416 7.57889C15.9812 7.4991 16.0211 7.31955 15.9214 7.17991C15.8216 7.06021 15.6421 7.02031 15.5224 7.10011Z" fill="#757575"/>
<path d="M15.5224 8.24073L5.82663 14.5248L0.460051 11.0336C0.3204 10.9538 0.140849 10.9937 0.0610485 11.1134C-0.0187519 11.2531 0.0211471 11.4326 0.140848 11.5124L5.66703 15.1033C5.70693 15.1432 5.76678 15.1432 5.82663 15.1432C5.88648 15.1432 5.92638 15.1233 5.98623 15.1033L15.8416 8.71952C15.9812 8.63972 16.0211 8.46018 15.9214 8.32053C15.8216 8.20084 15.6421 8.16094 15.5224 8.24073Z" fill="#757575"/>
</svg>
