<svg width="16" height="17" viewBox="0 0 16 17" fill="none" xmlns="http://www.w3.org/2000/svg">
<g clip-path="url(#clip0_22829_167269)">
<path fill-rule="evenodd" clip-rule="evenodd" d="M7.96046 3.40234C5.11483 3.40234 2.79883 5.71835 2.79883 8.56397C2.79883 11.4096 5.11483 13.7256 7.96046 13.7256C10.8061 13.7256 13.1221 11.4096 13.1221 8.56397C13.1221 5.71835 10.8061 3.40234 7.96046 3.40234ZM1.67383 8.56397C1.67383 5.09703 4.49351 2.27734 7.96046 2.27734C11.4274 2.27734 14.2471 5.09703 14.2471 8.56397C14.2471 12.0309 11.4274 14.8506 7.96046 14.8506C4.49351 14.8506 1.67383 12.0309 1.67383 8.56397Z" fill="#FCAF17"/>
<path fill-rule="evenodd" clip-rule="evenodd" d="M7.96094 1.72656C4.1921 1.72656 1.125 4.79366 1.125 8.5625C1.125 12.3313 4.1921 15.3984 7.96094 15.3984C11.7298 15.3984 14.7969 12.3313 14.7969 8.5625C14.7969 4.79366 11.7298 1.72656 7.96094 1.72656ZM0 8.5625C0 4.17234 3.57078 0.601562 7.96094 0.601562C12.3511 0.601562 15.9219 4.17234 15.9219 8.5625C15.9219 12.9527 12.3511 16.5234 7.96094 16.5234C3.57078 16.5234 0 12.9527 0 8.5625Z" fill="#FCAF17"/>
<path d="M3.96484 6.16406L5.48461 9.26445V10.9598H6.35944V9.26445L7.87921 6.16406H6.89248L5.94237 8.22943H5.90168L4.95157 6.16406H3.96484Z" fill="#FCAF17"/>
<path d="M9.91926 10.9598C11.1888 10.9598 11.9578 10.0559 11.9578 8.55726C11.9578 7.06327 11.1888 6.16406 9.93147 6.16406H8.44222V10.9598H9.91926ZM9.32315 10.0911V7.03283H9.88467C10.6659 7.03283 11.0789 7.4918 11.0789 8.55726C11.0789 9.62741 10.6659 10.0911 9.88264 10.0911H9.32315Z" fill="#FCAF17"/>
</g>
<defs>
<clipPath id="clip0_22829_167269">
<rect width="16" height="16" fill="white" transform="translate(0 0.601562)"/>
</clipPath>
</defs>
</svg>
