<svg width="24" height="24" viewBox="0 0 24 24" fill="none" xmlns="http://www.w3.org/2000/svg">
<path d="M11.7542 13.4532C11.8271 13.5187 11.9194 13.5512 12.0112 13.5512C12.1035 13.5512 12.1953 13.5182 12.2683 13.4532C12.4284 13.3105 16.1865 9.91002 16.1865 5.75036C16.1865 3.44755 14.3136 1.57422 12.0112 1.57422C9.70889 1.57422 7.83594 3.44755 7.83594 5.75036C7.83641 9.90955 11.5941 13.3105 11.7542 13.4532ZM9.91275 5.75036C9.91275 4.59283 10.8544 3.65099 12.0117 3.65099C13.169 3.65099 14.1107 4.59283 14.1107 5.75036C14.1107 6.90789 13.169 7.84973 12.0117 7.84973C10.8539 7.84973 9.91275 6.90789 9.91275 5.75036Z" fill="#757575"/>
<path d="M23.0983 12.7787C23.047 12.6247 22.9401 12.4943 22.8088 12.3987L18.3764 9.17427C18.1146 8.98355 17.7624 8.97695 17.4931 9.15638L15.8692 10.239H15.5354C15.4935 10.239 15.4554 10.2621 15.4351 10.2988C15.1536 10.8098 14.8485 11.2793 14.5467 11.6989C14.5203 11.7356 14.5467 11.7851 14.5919 11.7851H15.6658L17.1631 14.2809H6.96118L8.45842 11.7851H9.43115C9.47635 11.7851 9.50271 11.7356 9.47634 11.6989C9.17454 11.2788 8.86992 10.8098 8.5879 10.2988C8.56765 10.2621 8.52951 10.239 8.4876 10.239H8.25502L6.63113 9.15638C6.36182 8.97695 6.00964 8.98402 5.74786 9.17427L1.31549 12.3987C1.18413 12.4943 1.07678 12.6242 1.02593 12.7787C0.899744 13.1592 1.0716 13.5458 1.39741 13.7177L4.88248 15.552L5.86368 21.9315C5.92159 22.3087 6.24599 22.5871 6.62736 22.5871H17.4983C17.8797 22.5871 18.2041 22.3087 18.262 21.9315L19.2432 15.552L22.7283 13.7177C23.0527 13.5458 23.2245 13.1592 23.0983 12.7787ZM16.834 21.041H7.28935L6.48706 15.8275H17.6358L16.834 21.041Z" fill="#757575"/>
</svg>
