<svg width="32" height="32" viewBox="0 0 32 32" fill="none" xmlns="http://www.w3.org/2000/svg">
<path fill-rule="evenodd" clip-rule="evenodd" d="M15.9999 5.33337C16.7363 5.33337 17.3333 5.93033 17.3333 6.66671V14.6667H25.3333C26.0696 14.6667 26.6666 15.2637 26.6666 16C26.6666 16.7364 26.0696 17.3334 25.3333 17.3334H17.3333V25.3334C17.3333 26.0698 16.7363 26.6667 15.9999 26.6667C15.2635 26.6667 14.6666 26.0698 14.6666 25.3334V17.3334H6.66659C5.93021 17.3334 5.33325 16.7364 5.33325 16C5.33325 15.2637 5.93021 14.6667 6.66659 14.6667H14.6666V6.66671C14.6666 5.93033 15.2635 5.33337 15.9999 5.33337Z" fill="white"/>
</svg>
