<svg width="18" height="18" viewBox="0 0 18 18" fill="none" xmlns="http://www.w3.org/2000/svg">
<path d="M15.3281 8.33203H5.04316L11.199 2.98828C11.2975 2.90215 11.2377 2.74219 11.1076 2.74219H9.55195C9.4834 2.74219 9.41836 2.7668 9.36738 2.81074L2.72461 8.57461C2.66377 8.62735 2.61497 8.69255 2.58153 8.76579C2.54809 8.83903 2.53078 8.91861 2.53078 8.99912C2.53078 9.07964 2.54809 9.15921 2.58153 9.23245C2.61497 9.3057 2.66377 9.37089 2.72461 9.42363L9.40605 15.2227C9.43242 15.2455 9.46406 15.2578 9.49746 15.2578H11.1059C11.2359 15.2578 11.2957 15.0961 11.1973 15.0117L5.04316 9.66797H15.3281C15.4055 9.66797 15.4687 9.60469 15.4687 9.52734V8.47266C15.4687 8.39531 15.4055 8.33203 15.3281 8.33203Z" fill="#666666"/>
</svg>
