<svg width="14" height="14" viewBox="0 0 14 14" fill="none" xmlns="http://www.w3.org/2000/svg">
<path d="M13.3286 6.33203H3.04363L9.19948 0.988281C9.29792 0.902148 9.23816 0.742188 9.10808 0.742188H7.55242C7.48386 0.742188 7.41882 0.766797 7.36785 0.810742L0.725072 6.57461C0.664232 6.62735 0.615438 6.69255 0.581998 6.76579C0.548557 6.83903 0.53125 6.91861 0.53125 6.99912C0.53125 7.07964 0.548557 7.15921 0.581998 7.23245C0.615438 7.3057 0.664232 7.37089 0.725072 7.42363L7.40652 13.2227C7.43288 13.2455 7.46452 13.2578 7.49792 13.2578H9.10632C9.2364 13.2578 9.29616 13.0961 9.19773 13.0117L3.04363 7.66797H13.3286C13.4059 7.66797 13.4692 7.60469 13.4692 7.52734V6.47266C13.4692 6.39531 13.4059 6.33203 13.3286 6.33203Z" fill="#666666"/>
</svg>
