<svg width="18" height="18" viewBox="0 0 18 18" fill="none" xmlns="http://www.w3.org/2000/svg">
<path d="M17.1493 1.70651L16.2975 0.854723C16.2654 0.82258 16.2252 0.808517 16.183 0.808517C16.1408 0.808517 16.1007 0.824589 16.0685 0.854723L14.5397 2.38352C13.8751 1.93322 13.0905 1.69314 12.2877 1.69445C11.2591 1.69445 10.2306 2.0862 9.44508 2.87169L7.39799 4.91879C7.36808 4.94899 7.3513 4.98978 7.3513 5.03229C7.3513 5.0748 7.36808 5.11559 7.39799 5.14579L12.8562 10.6041C12.8884 10.6362 12.9286 10.6503 12.9708 10.6503C13.0109 10.6503 13.0531 10.6342 13.0853 10.6041L15.1324 8.55696C16.5165 7.17079 16.6792 5.02727 15.6205 3.46432L17.1493 1.93553C17.2116 1.87124 17.2116 1.76879 17.1493 1.70651ZM14.1641 7.59066L12.9708 8.78396L9.21808 5.03129L10.4114 3.83798C10.9116 3.33776 11.5786 3.06053 12.2877 3.06053C12.9969 3.06053 13.6618 3.33575 14.1641 3.83798C14.6643 4.33821 14.9415 5.00517 14.9415 5.71432C14.9415 6.42347 14.6643 7.08843 14.1641 7.59066ZM10.3431 9.70004C10.3129 9.67013 10.2721 9.65335 10.2296 9.65335C10.1871 9.65335 10.1463 9.67013 10.1161 9.70004L8.77812 11.038L6.96406 9.22392L8.30401 7.88396C8.36629 7.82169 8.36629 7.71923 8.30401 7.65696L7.57276 6.92571C7.54256 6.8958 7.50177 6.87902 7.45926 6.87902C7.41675 6.87902 7.37596 6.8958 7.34575 6.92571L6.0058 8.26566L5.14196 7.40182C5.12696 7.38681 5.10909 7.37498 5.08941 7.36704C5.06974 7.35911 5.04866 7.35522 5.02745 7.35562C4.98727 7.35562 4.94508 7.37169 4.91294 7.40182L2.86785 9.44892C1.4837 10.8351 1.32098 12.9786 2.37968 14.5416L0.850887 16.0703C0.820977 16.1006 0.804199 16.1413 0.804199 16.1839C0.804199 16.2264 0.820977 16.2672 0.850887 16.2974L1.70267 17.1491C1.73482 17.1813 1.77499 17.1953 1.81718 17.1953C1.85937 17.1953 1.89955 17.1793 1.93169 17.1491L3.46049 15.6203C4.13749 16.0804 4.92499 16.3094 5.71249 16.3094C6.74107 16.3094 7.76964 15.9177 8.55513 15.1322L10.6022 13.0851C10.6645 13.0228 10.6645 12.9204 10.6022 12.8581L9.73839 11.9942L11.0783 10.6543C11.1406 10.592 11.1406 10.4895 11.0783 10.4273L10.3431 9.70004ZM7.58683 14.1679C7.34095 14.415 7.04853 14.611 6.72647 14.7444C6.40441 14.8779 6.0591 14.9462 5.71049 14.9453C5.00133 14.9453 4.33638 14.6701 3.83415 14.1679C3.58701 13.922 3.39106 13.6296 3.25761 13.3075C3.12417 12.9855 3.05588 12.6402 3.05669 12.2916C3.05669 11.5824 3.33191 10.9174 3.83415 10.4152L5.02745 9.22191L8.78013 12.9746L7.58683 14.1679Z" fill="white"/>
</svg>
