<svg width="19" height="19" viewBox="0 0 19 19" fill="none" xmlns="http://www.w3.org/2000/svg">
<path fill-rule="evenodd" clip-rule="evenodd" d="M3.95898 3.16634H15.0423C15.2523 3.16634 15.4536 3.24975 15.6021 3.39822C15.7506 3.54668 15.834 3.74804 15.834 3.95801V15.0413C15.834 15.2513 15.7506 15.4527 15.6021 15.6011C15.4536 15.7496 15.2523 15.833 15.0423 15.833H3.95898C3.74902 15.833 3.54766 15.7496 3.39919 15.6011C3.25073 15.4527 3.16732 15.2513 3.16732 15.0413V3.95801C3.16732 3.74804 3.25073 3.54668 3.39919 3.39822C3.54766 3.24975 3.74902 3.16634 3.95898 3.16634V3.16634ZM1.58398 3.95801C1.58398 3.32812 1.83421 2.72403 2.27961 2.27863C2.725 1.83323 3.3291 1.58301 3.95898 1.58301H15.0423C15.6722 1.58301 16.2763 1.83323 16.7217 2.27863C17.1671 2.72403 17.4173 3.32812 17.4173 3.95801V15.0413C17.4173 15.6712 17.1671 16.2753 16.7217 16.7207C16.2763 17.1661 15.6722 17.4163 15.0423 17.4163H3.95898C3.3291 17.4163 2.725 17.1661 2.27961 16.7207C1.83421 16.2753 1.58398 15.6712 1.58398 15.0413V3.95801ZM9.50065 9.49968C7.31486 9.49968 5.54232 7.37326 5.54232 4.74967H7.12565C7.12565 6.78109 8.44774 7.91634 9.50065 7.91634C10.5536 7.91634 11.8757 6.78109 11.8757 4.74967H13.459C13.459 7.37326 11.6864 9.49968 9.50065 9.49968Z" fill="white"/>
</svg>
