<svg width="19" height="19" viewBox="0 0 19 19" fill="none" xmlns="http://www.w3.org/2000/svg">
<path d="M16.0313 4.92582C16.1887 4.92582 16.3397 4.99069 16.4511 5.10616C16.5624 5.22164 16.625 5.37825 16.625 5.54156V13.7221H2.375V5.54156C2.375 5.37825 2.43756 5.22164 2.54891 5.10616C2.66026 4.99069 2.81128 4.92582 2.96875 4.92582H16.0313ZM2.96875 3.69434C2.49633 3.69434 2.04327 3.88895 1.70922 4.23537C1.37517 4.5818 1.1875 5.05164 1.1875 5.54156V14.9536H17.8125V5.54156C17.8125 5.05164 17.6248 4.5818 17.2908 4.23537C16.9567 3.88895 16.5037 3.69434 16.0313 3.69434H2.96875ZM0 15.5693H19C19 16.0592 18.8123 16.5291 18.4783 16.8755C18.1442 17.2219 17.6912 17.4166 17.2188 17.4166H1.78125C1.30883 17.4166 0.855765 17.2219 0.521716 16.8755C0.187667 16.5291 0 16.0592 0 15.5693Z" fill="white"/>
<path d="M13.1936 3.74242V6.23737C13.1936 6.4063 13.1326 6.55249 13.0108 6.67594C12.8889 6.79939 12.7446 6.86111 12.5778 6.86111C12.4111 6.86111 12.2668 6.79939 12.1449 6.67594C12.023 6.55249 11.9621 6.4063 11.9621 6.23737V3.74242C11.9621 3.05371 11.7216 2.46571 11.2405 1.97842C10.7595 1.49112 10.179 1.24747 9.49913 1.24747C8.81925 1.24747 8.23879 1.49112 7.75774 1.97842C7.27669 2.46571 7.03617 3.05371 7.03617 3.74242V6.23737C7.03617 6.4063 6.97524 6.55249 6.85337 6.67594C6.73151 6.79939 6.58719 6.86111 6.42043 6.86111C6.25367 6.86111 6.10935 6.79939 5.98749 6.67594C5.86562 6.55249 5.80469 6.4063 5.80469 6.23737V3.74242C5.80469 2.70936 6.16547 1.82736 6.88704 1.09641C7.60862 0.365471 8.47931 0 9.49913 0C10.519 0 11.3896 0.365471 12.1112 1.09641C12.8328 1.82736 13.1936 2.70936 13.1936 3.74242Z" fill="white"/>
</svg>
