<svg width="18" height="18" viewBox="0 0 18 18" fill="none" xmlns="http://www.w3.org/2000/svg">
<path d="M15.4292 4.98459H12.6971V4.66316C12.6971 2.62209 11.0417 0.966736 9.00063 0.966736C6.95956 0.966736 5.3042 2.62209 5.3042 4.66316V4.98459H2.57206C2.21648 4.98459 1.9292 5.27187 1.9292 5.62745V16.3953C1.9292 16.7509 2.21648 17.0382 2.57206 17.0382H15.4292C15.7848 17.0382 16.0721 16.7509 16.0721 16.3953V5.62745C16.0721 5.27187 15.7848 4.98459 15.4292 4.98459ZM6.75063 4.66316C6.75063 3.41964 7.7571 2.41316 9.00063 2.41316C10.2442 2.41316 11.2506 3.41964 11.2506 4.66316V4.98459H6.75063V4.66316ZM14.6256 15.5917H3.37563V6.43102H5.3042V8.19888C5.3042 8.28727 5.37652 8.35959 5.46491 8.35959H6.58991C6.67831 8.35959 6.75063 8.28727 6.75063 8.19888V6.43102H11.2506V8.19888C11.2506 8.28727 11.3229 8.35959 11.4113 8.35959H12.5363C12.6247 8.35959 12.6971 8.28727 12.6971 8.19888V6.43102H14.6256V15.5917Z" fill="#222222"/>
</svg>
