<svg width="18" height="18" viewBox="0 0 18 18" fill="none" xmlns="http://www.w3.org/2000/svg">
<path d="M2.03964 14.052C2.4186 13.1544 2.96855 12.339 3.65884 11.6513C4.34703 10.9617 5.16226 10.4118 6.05951 10.0321C6.06754 10.0281 6.07558 10.0261 6.08361 10.0221C4.83205 9.11809 4.01843 7.64554 4.01843 5.98416C4.01843 3.23193 6.24835 1.00201 9.00058 1.00201C11.7528 1.00201 13.9827 3.23193 13.9827 5.98416C13.9827 7.64554 13.1691 9.11809 11.9175 10.0241C11.9256 10.0281 11.9336 10.0301 11.9416 10.0342C12.8416 10.4138 13.6492 10.9583 14.3423 11.6534C15.032 12.3415 15.5818 13.1568 15.9615 14.054C16.3345 14.9324 16.5357 15.8742 16.5541 16.8284C16.5547 16.8498 16.5509 16.8711 16.5431 16.8911C16.5353 16.9111 16.5235 16.9293 16.5085 16.9446C16.4935 16.96 16.4756 16.9722 16.4559 16.9805C16.4361 16.9888 16.4149 16.9931 16.3934 16.9931H15.1881C15.0997 16.9931 15.0294 16.9228 15.0274 16.8364C14.9872 15.2855 14.3644 13.833 13.2635 12.7322C12.1245 11.5931 10.6117 10.9663 9.00058 10.9663C7.38942 10.9663 5.87669 11.5931 4.73763 12.7322C3.63674 13.833 3.01397 15.2855 2.97379 16.8364C2.97178 16.9248 2.90147 16.9931 2.81308 16.9931H1.60772C1.58627 16.9931 1.56504 16.9888 1.54527 16.9805C1.52551 16.9722 1.50761 16.96 1.49263 16.9446C1.47766 16.9293 1.4659 16.9111 1.45807 16.8911C1.45023 16.8711 1.44647 16.8498 1.44701 16.8284C1.4671 15.8681 1.66598 14.9339 2.03964 14.052ZM9.00058 9.43952C9.92268 9.43952 10.7905 9.07992 11.4434 8.42702C12.0963 7.77411 12.4559 6.90626 12.4559 5.98416C12.4559 5.06206 12.0963 4.1942 11.4434 3.5413C10.7905 2.8884 9.92268 2.5288 9.00058 2.5288C8.07848 2.5288 7.21062 2.8884 6.55772 3.5413C5.90482 4.1942 5.54522 5.06206 5.54522 5.98416C5.54522 6.90626 5.90482 7.77411 6.55772 8.42702C7.21062 9.07992 8.07848 9.43952 9.00058 9.43952Z" fill="#222222"/>
</svg>
