<svg width="12" height="18" viewBox="0 0 12 18" fill="none" xmlns="http://www.w3.org/2000/svg">
<path fill-rule="evenodd" clip-rule="evenodd" d="M1.5 2.0625C1.45027 2.0625 1.40258 2.08225 1.36742 2.11742C1.33225 2.15258 1.3125 2.20027 1.3125 2.25V15.407L3.04805 14.1673C3.24363 14.0276 3.50637 14.0276 3.70195 14.1673L6 15.8087L8.29805 14.1673C8.49363 14.0276 8.75637 14.0276 8.95195 14.1673L10.6875 15.407V2.25C10.6875 2.20027 10.6677 2.15258 10.6326 2.11742C10.5974 2.08225 10.5497 2.0625 10.5 2.0625H1.5ZM0.571923 1.32192C0.818064 1.07578 1.1519 0.9375 1.5 0.9375H10.5C10.8481 0.9375 11.1819 1.07578 11.4281 1.32192C11.6742 1.56806 11.8125 1.9019 11.8125 2.25V16.5C11.8125 16.7107 11.6947 16.9037 11.5074 17.0002C11.32 17.0966 11.0945 17.0802 10.9231 16.9577L8.625 15.3163L6.32695 16.9577C6.13137 17.0974 5.86863 17.0974 5.67305 16.9577L3.375 15.3163L1.07695 16.9577C0.905488 17.0802 0.679963 17.0966 0.49261 17.0002C0.305258 16.9037 0.1875 16.7107 0.1875 16.5V2.25C0.1875 1.9019 0.325781 1.56806 0.571923 1.32192Z" fill="#222222"/>
<path fill-rule="evenodd" clip-rule="evenodd" d="M3.1875 8.25C3.1875 7.93934 3.43934 7.6875 3.75 7.6875H8.25C8.56066 7.6875 8.8125 7.93934 8.8125 8.25C8.8125 8.56066 8.56066 8.8125 8.25 8.8125H3.75C3.43934 8.8125 3.1875 8.56066 3.1875 8.25Z" fill="#222222"/>
<path fill-rule="evenodd" clip-rule="evenodd" d="M3.1875 11.25C3.1875 10.9393 3.43934 10.6875 3.75 10.6875H8.25C8.56066 10.6875 8.8125 10.9393 8.8125 11.25C8.8125 11.5607 8.56066 11.8125 8.25 11.8125H3.75C3.43934 11.8125 3.1875 11.5607 3.1875 11.25Z" fill="#222222"/>
<path fill-rule="evenodd" clip-rule="evenodd" d="M3.1875 5.25C3.1875 4.93934 3.43934 4.6875 3.75 4.6875H8.25C8.56066 4.6875 8.8125 4.93934 8.8125 5.25C8.8125 5.56066 8.56066 5.8125 8.25 5.8125H3.75C3.43934 5.8125 3.1875 5.56066 3.1875 5.25Z" fill="#222222"/>
</svg>
