<svg width="18" height="18" viewBox="0 0 18 18" fill="none" xmlns="http://www.w3.org/2000/svg">
<path d="M0 3.375V4.5H10.6875V12.9375H7.22475C6.97388 11.9706 6.10425 11.25 5.0625 11.25C4.02075 11.25 3.15113 11.9706 2.90025 12.9375H2.25V10.125H1.125V14.0625H2.90025C3.15113 15.0294 4.02075 15.75 5.0625 15.75C6.10425 15.75 6.97388 15.0294 7.22475 14.0625H11.9003C12.1511 15.0294 13.0208 15.75 14.0625 15.75C15.1042 15.75 15.9739 15.0294 16.2248 14.0625H18V9.47475L17.9646 9.38644L16.8396 6.01144L16.7175 5.625H11.8125V3.375H0ZM0.5625 5.625V6.75H5.625V5.625H0.5625ZM11.8125 6.75H15.9081L16.875 9.63281V12.9375H16.2248C15.9739 11.9706 15.1042 11.25 14.0625 11.25C13.0208 11.25 12.1511 11.9706 11.9003 12.9375H11.8125V6.75ZM1.125 7.875V9H4.5V7.875H1.125ZM5.0625 12.375C5.69081 12.375 6.1875 12.8717 6.1875 13.5C6.1875 14.1283 5.69081 14.625 5.0625 14.625C4.43419 14.625 3.9375 14.1283 3.9375 13.5C3.9375 12.8717 4.43419 12.375 5.0625 12.375ZM14.0625 12.375C14.6908 12.375 15.1875 12.8717 15.1875 13.5C15.1875 14.1283 14.6908 14.625 14.0625 14.625C13.4342 14.625 12.9375 14.1283 12.9375 13.5C12.9375 12.8717 13.4342 12.375 14.0625 12.375Z" fill="#222222"/>
</svg>
