<svg width="36" height="36" viewBox="0 0 36 36" fill="none" xmlns="http://www.w3.org/2000/svg">
<path d="M13.5 21C14.3284 21 15 20.3284 15 19.5C15 18.6716 14.3284 18 13.5 18C12.6716 18 12 18.6716 12 19.5C12 20.3284 12.6716 21 13.5 21Z" fill="#8C8C8C"/>
<path d="M22.5 21C23.3284 21 24 20.3284 24 19.5C24 18.6716 23.3284 18 22.5 18C21.6716 18 21 18.6716 21 19.5C21 20.3284 21.6716 21 22.5 21Z" fill="#8C8C8C"/>
<path d="M27 16.545C26.6423 14.4362 25.5501 12.5219 23.9166 11.1411C22.2832 9.7602 20.2139 9.00176 18.075 9C13.53 9 8.63995 12.765 9.02995 18.675C10.8797 17.9181 12.5133 16.7152 13.7853 15.1737C15.0573 13.6321 15.928 11.7998 16.32 9.84C18.285 13.785 22.32 16.5 27 16.545Z" fill="#FAAD14"/>
<path d="M31.485 18C31.32 9.945 25.02 4.5 18 4.5C11.085 4.5 4.725 9.795 4.515 18H3V27H7V18.285C7 12.54 11.575 7.165 17.32 7C18.726 6.95724 20.6884 7.33508 22 7.84345C23.3116 8.35181 24.4901 9.02084 25.5 10C26.5099 10.9792 27.4513 12.2048 28 13.5C28.5487 14.7952 28.9992 16.4433 29 17.85V29H16.5V31.5H31.5V27H33V18H31.485Z" fill="#8C8C8C"/>
</svg>
