<svg width="18" height="18" viewBox="0 0 18 18" fill="none" xmlns="http://www.w3.org/2000/svg">
<path d="M12.2871 6.20453H11.4626C11.2833 6.20453 11.1128 6.29066 11.0074 6.43832L8.24409 10.2703L6.99253 8.53363C6.88706 8.38773 6.71831 8.29984 6.53725 8.29984H5.71284C5.59858 8.29984 5.53178 8.42992 5.59858 8.52308L7.78882 11.5606C7.84056 11.6328 7.90877 11.6916 7.98779 11.7322C8.06681 11.7728 8.15437 11.794 8.24321 11.794C8.33205 11.794 8.41961 11.7728 8.49863 11.7322C8.57765 11.6916 8.64586 11.6328 8.6976 11.5606L12.3996 6.42777C12.4681 6.33461 12.4013 6.20453 12.2871 6.20453Z" fill="#27AE60"/>
<path d="M9 1.125C4.65117 1.125 1.125 4.65117 1.125 9C1.125 13.3488 4.65117 16.875 9 16.875C13.3488 16.875 16.875 13.3488 16.875 9C16.875 4.65117 13.3488 1.125 9 1.125ZM9 15.5391C5.38945 15.5391 2.46094 12.6105 2.46094 9C2.46094 5.38945 5.38945 2.46094 9 2.46094C12.6105 2.46094 15.5391 5.38945 15.5391 9C15.5391 12.6105 12.6105 15.5391 9 15.5391Z" fill="#27AE60"/>
</svg>
