<svg width="16" height="16" viewBox="0 0 16 16" fill="none" xmlns="http://www.w3.org/2000/svg">
<path d="M12.9205 4.0578L6.70873 2.01877C6.63194 1.99374 6.5491 1.99374 6.47231 2.01877L0.260585 4.0578C0.105271 4.10871 0 4.25454 0 4.41763V11.4261C0 11.5892 0.104407 11.7342 0.259721 11.7859L6.47144 13.8526C6.51027 13.8655 6.55083 13.8716 6.59138 13.8716C6.63194 13.8716 6.67249 13.8655 6.71132 13.8526L9.42415 12.95C10.0549 13.9509 11.1688 14.6162 12.439 14.6162C14.4054 14.6162 16 13.0216 16 11.0551C16 9.34307 14.792 7.9141 13.1819 7.57153V4.41763C13.181 4.25454 13.0758 4.10958 12.9205 4.0578ZM9.86421 5.11917L4.96576 3.31139L6.59052 2.77812L11.7798 4.48149L9.86421 5.11917ZM9.06693 5.38408L6.59052 6.20815L1.40128 4.48149L4.1633 3.57458L9.06693 5.38408ZM0.757593 11.1534V4.82147L6.32821 6.67498V13.0069L0.757593 11.1534ZM6.85283 13.0069V6.67498L12.4234 4.82147V7.49473C10.463 7.5025 8.8771 9.09368 8.8771 11.0559C8.8771 11.4796 8.9513 11.886 9.08763 12.2631L6.85283 13.0069ZM12.4381 13.6412C11.1024 13.6412 10.0031 12.6273 9.86766 11.3277H9.23691L10.4682 9.61229L11.6995 11.3277H11.1231C11.5407 12.4133 12.5641 13.1976 13.779 13.2667C13.3881 13.504 12.9291 13.6412 12.4381 13.6412ZM15.0086 10.785H15.6393L14.408 12.5004L13.1767 10.785H13.7531C13.3355 9.69944 12.3121 8.91506 11.0972 8.84603C11.4881 8.60787 11.9471 8.47154 12.439 8.47154C13.7738 8.47067 14.8731 9.48458 15.0086 10.785Z" fill="#FCAF17"/>
</svg>
