<svg width="16" height="16" viewBox="0 0 16 16" fill="none" xmlns="http://www.w3.org/2000/svg">
<path fill-rule="evenodd" clip-rule="evenodd" d="M4.7251 3.58672C4.7251 3.30367 4.95455 3.07422 5.2376 3.07422H14.4626C14.7456 3.07422 14.9751 3.30367 14.9751 3.58672V12.8117C14.9751 13.0948 14.7456 13.3242 14.4626 13.3242H5.2376C4.95455 13.3242 4.7251 13.0948 4.7251 12.8117V3.58672ZM5.7501 4.09922V12.2992H13.9501V4.09922H5.7501Z" fill="#666666"/>
<path fill-rule="evenodd" clip-rule="evenodd" d="M8.3125 3.58672C8.3125 3.30367 8.54195 3.07422 8.825 3.07422H10.875C11.158 3.07422 11.3875 3.30367 11.3875 3.58672V6.14922C11.3875 6.32684 11.2955 6.4918 11.1444 6.58518C10.9933 6.67856 10.8047 6.68705 10.6458 6.60761L9.85 6.20971L9.0542 6.60761C8.89533 6.68705 8.70666 6.67856 8.55556 6.58518C8.40447 6.4918 8.3125 6.32684 8.3125 6.14922V3.58672ZM9.3375 4.09922V5.31998L9.6208 5.17832C9.76509 5.10618 9.93491 5.10618 10.0792 5.17832L10.3625 5.31998V4.09922H9.3375Z" fill="#666666"/>
<path fill-rule="evenodd" clip-rule="evenodd" d="M0.625 4.61211C0.625 4.32906 0.854454 4.09961 1.1375 4.09961H3.1875C3.47055 4.09961 3.7 4.32906 3.7 4.61211C3.7 4.89516 3.47055 5.12461 3.1875 5.12461H1.1375C0.854454 5.12461 0.625 4.89516 0.625 4.61211Z" fill="#666666"/>
<path fill-rule="evenodd" clip-rule="evenodd" d="M1.1377 8.2C1.1377 7.91695 1.36715 7.6875 1.6502 7.6875H3.1877C3.47074 7.6875 3.7002 7.91695 3.7002 8.2C3.7002 8.48305 3.47074 8.7125 3.1877 8.7125H1.6502C1.36715 8.7125 1.1377 8.48305 1.1377 8.2Z" fill="#666666"/>
<path fill-rule="evenodd" clip-rule="evenodd" d="M1.6499 11.7859C1.6499 11.5029 1.87936 11.2734 2.1624 11.2734H3.1874C3.47045 11.2734 3.6999 11.5029 3.6999 11.7859C3.6999 12.069 3.47045 12.2984 3.1874 12.2984H2.1624C1.87936 12.2984 1.6499 12.069 1.6499 11.7859Z" fill="#666666"/>
</svg>
