<svg width="60" height="60" viewBox="0 0 60 60" fill="none" xmlns="http://www.w3.org/2000/svg">
<circle cx="30" cy="30" r="30" fill="#34D798"/>
<path d="M30 16C22.2688 16 16 22.2688 16 30C16 37.7313 22.2688 44 30 44C37.7313 44 44 37.7313 44 30C44 22.2688 37.7313 16 30 16ZM36.0469 25.4281L29.4656 34.5531C29.3736 34.6815 29.2524 34.7861 29.1119 34.8583C28.9714 34.9305 28.8157 34.9681 28.6578 34.9681C28.4999 34.9681 28.3442 34.9305 28.2037 34.8583C28.0632 34.7861 27.942 34.6815 27.85 34.5531L23.9531 29.1531C23.8344 28.9875 23.9531 28.7563 24.1562 28.7563H25.6219C25.9406 28.7563 26.2437 28.9094 26.4312 29.1719L28.6562 32.2594L33.5688 25.4469C33.7563 25.1875 34.0562 25.0312 34.3781 25.0312H35.8438C36.0469 25.0312 36.1656 25.2625 36.0469 25.4281Z" fill="white" fill-opacity="0.85"/>
</svg>
