<svg width="70" height="70" viewBox="0 0 70 70" fill="none" xmlns="http://www.w3.org/2000/svg">
<circle cx="35" cy="35" r="35" fill="#E24343"/>
<path fill-rule="evenodd" clip-rule="evenodd" d="M46.1104 29.6772C46.9527 29.7451 47.5804 30.483 47.5125 31.3252L45.9875 31.2023L44.4624 31.0793C44.5303 30.2371 45.2682 29.6093 46.1104 29.6772ZM46.2211 45.7291C46.0779 47.0224 45.5861 48.1997 44.6601 49.0599C43.7304 49.9235 42.5143 50.3269 41.1914 50.351C37.2608 50.4219 33.3223 50.4264 29.3877 50.3435C29.3874 50.3435 29.388 50.3435 29.3877 50.3435C28.0851 50.3166 26.8942 49.8967 25.9884 49.0333C25.0896 48.1767 24.6065 47.0127 24.4658 45.7392C24.2256 43.571 23.9027 39.9603 23.641 36.9074C23.5099 35.3775 23.3936 33.9822 23.3101 32.9693C23.2684 32.4629 23.2349 32.052 23.2117 31.7676L23.1761 31.3268L24.701 31.2023L26.2261 31.0798L26.2617 31.5196C26.2847 31.803 26.3182 32.2128 26.3598 32.718C26.4431 33.7285 26.559 35.1203 26.6898 36.646C26.952 39.7039 27.2718 43.2776 27.5072 45.4024C27.587 46.1252 27.8315 46.5627 28.0996 46.8183C28.3605 47.067 28.7758 47.2703 29.4513 47.2841C33.3407 47.3661 37.2395 47.3617 41.1359 47.2915C41.136 47.2915 41.1358 47.2915 41.1359 47.2915C41.8692 47.2781 42.3091 47.0673 42.5775 46.818C42.8495 46.5653 43.098 46.131 43.1798 45.392C43.4136 43.286 43.7339 39.7146 43.9968 36.6545C44.1279 35.1278 44.2444 33.7338 44.328 32.7213C44.3698 32.2151 44.4035 31.8045 44.4266 31.5204L44.4624 31.0793L45.9875 31.2023L47.5125 31.3252L47.4765 31.769C47.4533 32.054 47.4196 32.4659 47.3776 32.9733C47.2938 33.988 47.1771 35.3856 47.0455 36.9164C46.7831 39.9713 46.4598 43.5795 46.2211 45.7291ZM24.5784 29.6772C25.4207 29.6095 26.1584 30.2375 26.2261 31.0798L24.701 31.2023L23.1759 31.3249C23.1082 30.4826 23.7361 29.7449 24.5784 29.6772Z" fill="white"/>
<path fill-rule="evenodd" clip-rule="evenodd" d="M21.0957 26.3596C21.0957 25.5146 21.7807 24.8296 22.6257 24.8296H48.0627C48.9077 24.8296 49.5927 25.5146 49.5927 26.3596C49.5927 27.2046 48.9077 27.8896 48.0627 27.8896H22.6257C21.7807 27.8896 21.0957 27.2046 21.0957 26.3596Z" fill="white"/>
<path fill-rule="evenodd" clip-rule="evenodd" d="M28.836 22.1544C29.2406 20.6411 30.6108 19.5961 32.1696 19.5961H38.5191C40.0778 19.5961 41.448 20.6411 41.8526 22.1544C41.8611 22.1859 41.8685 22.2177 41.8749 22.2497L42.2393 24.0731C42.3273 24.5125 42.7142 24.8296 43.1616 24.8296C44.0066 24.8296 44.6916 25.5146 44.6916 26.3596C44.6916 27.2046 44.0066 27.8896 43.1616 27.8896C41.254 27.8896 39.6129 26.5416 39.2389 24.674L38.8875 22.9156C38.8331 22.7615 38.6869 22.6561 38.5191 22.6561H32.1696C32.0017 22.6561 31.8555 22.7615 31.8012 22.9156L31.4499 24.6734C31.0759 26.541 29.4346 27.8896 27.5271 27.8896C26.6821 27.8896 25.9971 27.2046 25.9971 26.3596C25.9971 25.5146 26.6821 24.8296 27.5271 24.8296C27.9743 24.8296 28.361 24.5128 28.4492 24.0737L28.8137 22.2497C28.8201 22.2177 28.8276 22.1859 28.836 22.1544Z" fill="white"/>
</svg>
