<svg width="24" height="22" viewBox="0 0 24 22" fill="none" xmlns="http://www.w3.org/2000/svg">
<path d="M23.5979 8.32316H16.7407C16.6229 8.32316 16.5265 8.41959 16.5265 8.53744V9.82316C16.5265 9.94101 16.6229 10.0374 16.7407 10.0374H23.5979C23.7157 10.0374 23.8122 9.94101 23.8122 9.82316V8.53744C23.8122 8.41959 23.7157 8.32316 23.5979 8.32316ZM20.0086 11.966H16.7407C16.6229 11.966 16.5265 12.0624 16.5265 12.1803V13.466C16.5265 13.5839 16.6229 13.6803 16.7407 13.6803H20.0086C20.1265 13.6803 20.2229 13.5839 20.2229 13.466V12.1803C20.2229 12.0624 20.1265 11.966 20.0086 11.966ZM11.0702 5.92583H9.91038C9.74431 5.92583 9.61038 6.05976 9.61038 6.22584V12.8687C9.61038 12.9651 9.65591 13.0535 9.73359 13.1098L13.722 16.0187C13.8559 16.1151 14.0434 16.0883 14.1398 15.9544L14.8282 15.0142V15.0116C14.9247 14.8776 14.8952 14.6901 14.7613 14.5937L11.3675 12.1401V6.22584C11.3702 6.05976 11.2336 5.92583 11.0702 5.92583Z" fill="#2A2A86"/>
<path d="M19.8434 15.3316H18.2952C18.1452 15.3316 18.0033 15.4093 17.9229 15.5379C17.5822 16.0779 17.1824 16.5783 16.7309 17.0299C15.9536 17.8098 15.032 18.4311 14.0175 18.8593C12.9649 19.304 11.8479 19.529 10.6961 19.529C9.54165 19.529 8.42468 19.304 7.37468 18.8593C6.3595 18.4308 5.44611 17.8147 4.66129 17.0299C3.87647 16.245 3.2604 15.3316 2.83183 14.3165C2.38718 13.2665 2.16218 12.1495 2.16218 10.995C2.16218 9.84057 2.38718 8.72629 2.83183 7.67361C3.2604 6.65843 3.87647 5.74504 4.66129 4.96021C5.44611 4.17539 6.3595 3.55932 7.37468 3.13075C8.42468 2.68611 9.54433 2.46111 10.6961 2.46111C11.8506 2.46111 12.9675 2.68611 14.0175 3.13075C15.0327 3.55932 15.9461 4.17539 16.7309 4.96021C17.1824 5.41173 17.5822 5.91214 17.9229 6.45218C18.0033 6.58075 18.1452 6.65843 18.2952 6.65843H19.8434C20.0283 6.65843 20.1461 6.46557 20.0631 6.30218C18.3167 2.82807 14.7756 0.570034 10.822 0.524499C5.03361 0.452177 0.225576 5.19057 0.214862 10.9736C0.204148 16.7674 4.89968 21.4683 10.6934 21.4683C14.6979 21.4683 18.2979 19.2022 20.0631 15.6879C20.0819 15.6504 20.0908 15.6087 20.089 15.5668C20.0872 15.5249 20.0747 15.4842 20.0527 15.4485C20.0306 15.4128 19.9999 15.3833 19.9632 15.3629C19.9266 15.3424 19.8854 15.3317 19.8434 15.3316Z" fill="#2A2A86"/>
</svg>
