<svg width="18" height="18" viewBox="0 0 18 18" fill="none" xmlns="http://www.w3.org/2000/svg">
<path d="M10.0404 8.99833L15.3139 2.71239C15.4023 2.60792 15.3279 2.44922 15.1913 2.44922H13.5882C13.4938 2.44922 13.4034 2.49141 13.3411 2.56373L8.99178 7.74877L4.64245 2.56373C4.58218 2.49141 4.49178 2.44922 4.39535 2.44922H2.79222C2.65562 2.44922 2.58129 2.60792 2.66968 2.71239L7.94312 8.99833L2.66968 15.2843C2.64988 15.3075 2.63717 15.336 2.63308 15.3663C2.62898 15.3966 2.63366 15.4274 2.64656 15.4551C2.65946 15.4829 2.68005 15.5063 2.70587 15.5226C2.73169 15.539 2.76166 15.5476 2.79222 15.5474H4.39535C4.48977 15.5474 4.58017 15.5052 4.64245 15.4329L8.99178 10.2479L13.3411 15.4329C13.4014 15.5052 13.4918 15.5474 13.5882 15.5474H15.1913C15.3279 15.5474 15.4023 15.3887 15.3139 15.2843L10.0404 8.99833Z" fill="#666666"/>
</svg>
