<svg width="18" height="18" viewBox="0 0 18 18" fill="none" xmlns="http://www.w3.org/2000/svg">
<path d="M12.3864 5.91132C12.3864 5.82538 12.3161 5.75507 12.2302 5.75507L10.9411 5.76093L8.99973 8.07538L7.06027 5.76288L5.76926 5.75702C5.68332 5.75702 5.61301 5.82538 5.61301 5.91327C5.61301 5.95038 5.62668 5.98554 5.65012 6.01483L8.19113 9.04218L5.65012 12.0676C5.62651 12.0962 5.61342 12.132 5.61301 12.1691C5.61301 12.2551 5.68332 12.3254 5.76926 12.3254L7.06027 12.3195L8.99973 10.0051L10.9392 12.3176L12.2282 12.3234C12.3142 12.3234 12.3845 12.2551 12.3845 12.1672C12.3845 12.1301 12.3708 12.0949 12.3474 12.0656L9.81027 9.04022L12.3513 6.01288C12.3747 5.98554 12.3864 5.94843 12.3864 5.91132Z" fill="white"/>
<path d="M9 0.25C4.16797 0.25 0.25 4.16797 0.25 9C0.25 13.832 4.16797 17.75 9 17.75C13.832 17.75 17.75 13.832 17.75 9C17.75 4.16797 13.832 0.25 9 0.25ZM9 16.2656C4.98828 16.2656 1.73438 13.0117 1.73438 9C1.73438 4.98828 4.98828 1.73438 9 1.73438C13.0117 1.73438 16.2656 4.98828 16.2656 9C16.2656 13.0117 13.0117 16.2656 9 16.2656Z" fill="white"/>
</svg>
