<svg width="36" height="36" viewBox="0 0 36 36" fill="none" xmlns="http://www.w3.org/2000/svg">
<path d="M20.49 24.1604C20.4296 24.1006 20.348 24.067 20.263 24.067C20.178 24.067 20.0964 24.1006 20.036 24.1604L15.3672 28.8291C13.2056 30.9907 9.55742 31.2198 7.17081 28.8291C4.78019 26.4385 5.00921 22.7943 7.17081 20.6327L11.8396 15.964C11.9641 15.8394 11.9641 15.6345 11.8396 15.5099L10.2405 13.9108C10.18 13.851 10.0985 13.8175 10.0134 13.8175C9.92843 13.8175 9.84685 13.851 9.78644 13.9108L5.11769 18.5796C1.71858 21.9787 1.71858 27.4791 5.11769 30.8742C8.5168 34.2693 14.0172 34.2733 17.4123 30.8742L22.0811 26.2055C22.2056 26.0809 22.2056 25.876 22.0811 25.7515L20.49 24.1604ZM30.8802 5.11574C27.4811 1.71663 21.9806 1.71663 18.5855 5.11574L13.9128 9.78449C13.853 9.8449 13.8194 9.92648 13.8194 10.0115C13.8194 10.0965 13.853 10.1781 13.9128 10.2385L15.5079 11.8336C15.6324 11.9581 15.8373 11.9581 15.9619 11.8336L20.6306 7.16484C22.7922 5.00324 26.4405 4.77422 28.8271 7.16484C31.2177 9.55547 30.9887 13.1997 28.8271 15.3613L24.1583 20.03C24.0985 20.0904 24.0649 20.172 24.0649 20.257C24.0649 20.3421 24.0985 20.4236 24.1583 20.484L25.7574 22.0832C25.882 22.2077 26.0869 22.2077 26.2114 22.0832L30.8802 17.4144C34.2753 14.0153 34.2753 8.51484 30.8802 5.11574ZM21.9405 12.384C21.88 12.3242 21.7985 12.2907 21.7134 12.2907C21.6284 12.2907 21.5469 12.3242 21.4864 12.384L12.386 21.4805C12.3262 21.5409 12.2926 21.6225 12.2926 21.7075C12.2926 21.7925 12.3262 21.8741 12.386 21.9345L13.9771 23.5256C14.1016 23.6501 14.3065 23.6501 14.4311 23.5256L23.5275 14.4291C23.6521 14.3046 23.6521 14.0997 23.5275 13.9751L21.9405 12.384Z" fill="white"/>
</svg>
