<svg width="18" height="18" viewBox="0 0 18 18" fill="none" xmlns="http://www.w3.org/2000/svg">
<path d="M17.1493 1.70658L16.2975 0.854799C16.2654 0.822656 16.2252 0.808594 16.183 0.808594C16.1408 0.808594 16.1007 0.824665 16.0685 0.854799L14.5397 2.38359C13.8751 1.9333 13.0905 1.69322 12.2877 1.69453C11.2591 1.69453 10.2306 2.08627 9.44508 2.87176L7.39799 4.91886C7.36808 4.94907 7.3513 4.98986 7.3513 5.03237C7.3513 5.07487 7.36808 5.11566 7.39799 5.14587L12.8562 10.6041C12.8884 10.6363 12.9286 10.6503 12.9708 10.6503C13.0109 10.6503 13.0531 10.6343 13.0853 10.6041L15.1324 8.55703C16.5165 7.17087 16.6792 5.02734 15.6205 3.4644L17.1493 1.9356C17.2116 1.87132 17.2116 1.76886 17.1493 1.70658ZM14.1641 7.59074L12.9708 8.78404L9.21808 5.03136L10.4114 3.83806C10.9116 3.33783 11.5786 3.0606 12.2877 3.0606C12.9969 3.0606 13.6618 3.33583 14.1641 3.83806C14.6643 4.33828 14.9415 5.00525 14.9415 5.7144C14.9415 6.42355 14.6643 7.08851 14.1641 7.59074ZM10.3431 9.70011C10.3129 9.6702 10.2721 9.65342 10.2296 9.65342C10.1871 9.65342 10.1463 9.6702 10.1161 9.70011L8.77812 11.0381L6.96406 9.224L8.30401 7.88404C8.36629 7.82176 8.36629 7.71931 8.30401 7.65703L7.57276 6.92578C7.54256 6.89587 7.50177 6.87909 7.45926 6.87909C7.41675 6.87909 7.37596 6.89587 7.34575 6.92578L6.0058 8.26574L5.14196 7.4019C5.12696 7.38689 5.10909 7.37506 5.08941 7.36712C5.06974 7.35918 5.04866 7.35529 5.02745 7.35569C4.98727 7.35569 4.94508 7.37176 4.91294 7.4019L2.86785 9.449C1.4837 10.8352 1.32098 12.9787 2.37968 14.5416L0.850887 16.0704C0.820977 16.1006 0.804199 16.1414 0.804199 16.1839C0.804199 16.2264 0.820977 16.2672 0.850887 16.2974L1.70267 17.1492C1.73482 17.1814 1.77499 17.1954 1.81718 17.1954C1.85937 17.1954 1.89955 17.1794 1.93169 17.1492L3.46049 15.6204C4.13749 16.0805 4.92499 16.3095 5.71249 16.3095C6.74107 16.3095 7.76964 15.9177 8.55513 15.1323L10.6022 13.0852C10.6645 13.0229 10.6645 12.9204 10.6022 12.8581L9.73839 11.9943L11.0783 10.6544C11.1406 10.5921 11.1406 10.4896 11.0783 10.4273L10.3431 9.70011ZM7.58683 14.168C7.34095 14.4151 7.04853 14.6111 6.72647 14.7445C6.40441 14.8779 6.0591 14.9462 5.71049 14.9454C5.00133 14.9454 4.33638 14.6702 3.83415 14.168C3.58701 13.9221 3.39106 13.6297 3.25761 13.3076C3.12417 12.9856 3.05588 12.6402 3.05669 12.2916C3.05669 11.5825 3.33191 10.9175 3.83415 10.4153L5.02745 9.22199L8.78013 12.9747L7.58683 14.168Z" fill="#222222"/>
</svg>
