<svg width="23" height="23" viewBox="0 0 23 23" fill="none" xmlns="http://www.w3.org/2000/svg">
<path d="M5.75 5.87219V15.0938C5.74986 16.0062 6.09677 16.8845 6.72037 17.5505C7.34397 18.2165 8.19756 18.6205 9.108 18.6803L9.34375 18.6875H15.6889C15.5403 19.1078 15.265 19.4718 14.901 19.7292C14.537 19.9867 14.1021 20.1249 13.6562 20.125H8.625C7.48125 20.125 6.38435 19.6706 5.5756 18.8619C4.76685 18.0531 4.3125 16.9562 4.3125 15.8125V7.90625C4.31227 7.46016 4.4504 7.02497 4.70785 6.66067C4.96531 6.29637 5.32942 6.02089 5.75 5.87219ZM16.5312 2.875C17.1031 2.875 17.6516 3.10218 18.0559 3.50655C18.4603 3.91093 18.6875 4.45938 18.6875 5.03125V15.0938C18.6875 15.6656 18.4603 16.2141 18.0559 16.6184C17.6516 17.0228 17.1031 17.25 16.5312 17.25H9.34375C8.77188 17.25 8.22343 17.0228 7.81905 16.6184C7.41468 16.2141 7.1875 15.6656 7.1875 15.0938V5.03125C7.1875 4.45938 7.41468 3.91093 7.81905 3.50655C8.22343 3.10218 8.77188 2.875 9.34375 2.875H16.5312ZM16.5312 4.3125H9.34375C9.15313 4.3125 8.97031 4.38823 8.83552 4.52302C8.70073 4.65781 8.625 4.84063 8.625 5.03125V15.0938C8.625 15.2844 8.70073 15.4672 8.83552 15.602C8.97031 15.7368 9.15313 15.8125 9.34375 15.8125H16.5312C16.7219 15.8125 16.9047 15.7368 17.0395 15.602C17.1743 15.4672 17.25 15.2844 17.25 15.0938V5.03125C17.25 4.84063 17.1743 4.65781 17.0395 4.52302C16.9047 4.38823 16.7219 4.3125 16.5312 4.3125Z" fill="#71767B"/>
</svg>
