<svg width="12" height="14" viewBox="0 0 12 14" fill="none" xmlns="http://www.w3.org/2000/svg">
<path d="M11.4136 10.9294C11.1189 10.2313 10.6912 9.59708 10.1543 9.06223C9.61901 8.52584 8.98494 8.09818 8.28708 7.80286C8.28083 7.79973 8.27458 7.79817 8.26833 7.79504C9.24177 7.09192 9.87458 5.94661 9.87458 4.65442C9.87458 2.51379 8.1402 0.779419 5.99958 0.779419C3.85896 0.779419 2.12458 2.51379 2.12458 4.65442C2.12458 5.94661 2.75739 7.09192 3.73083 7.79661C3.72458 7.79973 3.71833 7.80129 3.71208 7.80442C3.01208 8.09973 2.38396 8.52317 1.84489 9.0638C1.3085 9.59906 0.880838 10.2331 0.585519 10.931C0.295397 11.6142 0.138928 12.3467 0.124581 13.0888C0.124164 13.1055 0.127089 13.1221 0.133184 13.1376C0.139279 13.1531 0.14842 13.1673 0.160069 13.1792C0.171719 13.1912 0.18564 13.2006 0.201013 13.2071C0.216386 13.2136 0.2329 13.2169 0.249581 13.2169H1.18708C1.25583 13.2169 1.31052 13.1622 1.31208 13.095C1.34333 11.8888 1.82771 10.7591 2.68396 9.90286C3.56989 9.01692 4.74646 8.52942 5.99958 8.52942C7.25271 8.52942 8.42927 9.01692 9.3152 9.90286C10.1715 10.7591 10.6558 11.8888 10.6871 13.095C10.6886 13.1638 10.7433 13.2169 10.8121 13.2169H11.7496C11.7663 13.2169 11.7828 13.2136 11.7981 13.2071C11.8135 13.2006 11.8274 13.1912 11.8391 13.1792C11.8507 13.1673 11.8599 13.1531 11.866 13.1376C11.8721 13.1221 11.875 13.1055 11.8746 13.0888C11.859 12.3419 11.7043 11.6154 11.4136 10.9294ZM5.99958 7.34192C5.28239 7.34192 4.60739 7.06223 4.09958 6.55442C3.59177 6.04661 3.31208 5.37161 3.31208 4.65442C3.31208 3.93723 3.59177 3.26223 4.09958 2.75442C4.60739 2.24661 5.28239 1.96692 5.99958 1.96692C6.71677 1.96692 7.39177 2.24661 7.89958 2.75442C8.40739 3.26223 8.68708 3.93723 8.68708 4.65442C8.68708 5.37161 8.40739 6.04661 7.89958 6.55442C7.39177 7.06223 6.71677 7.34192 5.99958 7.34192Z" fill="#757575"/>
</svg>
