<svg width="16" height="16" viewBox="0 0 16 16" fill="none" xmlns="http://www.w3.org/2000/svg">
<path d="M0.265121 12.0554L6.64791 14.179C6.68781 14.1923 6.72948 14.1985 6.77115 14.1985C6.81283 14.1985 6.8545 14.1923 6.8944 14.179L10.0215 13.1389C10.6031 14.0247 11.605 14.6108 12.7443 14.6108C14.5424 14.6108 16 13.1531 16 11.355C16 9.83256 14.9556 8.55488 13.5441 8.19844V4.48421C13.5441 4.31574 13.4359 4.16678 13.2763 4.11447L6.89351 2.01928C6.8146 1.99357 6.72948 1.99357 6.65057 2.01928L0.267772 4.11447C0.10818 4.16678 2.16557e-05 4.31663 2.16557e-05 4.48421V11.6857C-0.00175159 11.8542 0.105529 12.0031 0.265121 12.0554ZM9.67218 12.434L7.04068 13.3092V6.80283L12.7647 4.89828V8.10002C12.7576 8.10002 12.7514 8.09913 12.7443 8.09913C10.9463 8.09913 9.48864 9.55681 9.48864 11.355C9.48776 11.7336 9.55337 12.0962 9.67218 12.434ZM10.135 5.20418L5.10075 3.34662L6.77027 2.79866L12.1024 4.54894L10.135 5.20418ZM9.31575 5.47727L7.44676 6.09882L6.77115 6.32404L6.10796 6.10326L1.43812 4.54982L4.2762 3.61794L9.31575 5.47727ZM0.77758 11.4055V4.89917L6.50162 6.80372V13.3101L0.77758 11.4055ZM13.787 9.66055C13.9661 9.48144 14.2569 9.48144 14.4369 9.66055C14.616 9.83966 14.616 10.1305 14.4369 10.3105L13.3933 11.3541L14.4369 12.3977C14.616 12.5768 14.616 12.8676 14.4369 13.0476C14.3473 13.1372 14.2294 13.1824 14.1124 13.1824C13.9945 13.1824 13.8774 13.1372 13.7879 13.0476L12.7443 12.004L11.7008 13.0476C11.6112 13.1372 11.4933 13.1824 11.3763 13.1824C11.2592 13.1824 11.1413 13.1372 11.0518 13.0476C10.8727 12.8685 10.8727 12.5777 11.0518 12.3977L12.0953 11.3541L11.0518 10.3105C10.8727 10.1314 10.8727 9.84054 11.0518 9.66055C11.2309 9.48144 11.5217 9.48144 11.7017 9.66055L12.7452 10.7042L13.787 9.66055Z" fill="#E24343"/>
</svg>
