<svg width="16" height="16" viewBox="0 0 16 16" fill="none" xmlns="http://www.w3.org/2000/svg">
<path d="M0.265121 12.0554L6.64792 14.179C6.68781 14.1923 6.72948 14.1985 6.77115 14.1985C6.81282 14.1985 6.8545 14.1923 6.89439 14.179L10.0215 13.1389C10.6031 14.0247 11.605 14.6108 12.7443 14.6108C14.5424 14.6108 16 13.1531 16 11.355C16 9.83345 14.9556 8.55488 13.5441 8.19844V4.48421C13.5441 4.31574 13.4359 4.16678 13.2763 4.11447L6.89351 2.01928C6.8146 1.99357 6.72948 1.99357 6.65057 2.01928L0.267783 4.11447C0.108191 4.16678 2.16557e-05 4.31663 2.16557e-05 4.48421V11.6857C-0.00175159 11.8542 0.105529 12.0031 0.265121 12.0554ZM12.7434 8.09913C10.9454 8.09913 9.48776 9.55681 9.48776 11.355C9.48776 11.7336 9.55337 12.0962 9.67129 12.434L7.0398 13.3092V6.80283L12.7638 4.89828V8.10002C12.7576 8.10002 12.7505 8.09913 12.7434 8.09913ZM10.135 5.20418L5.10076 3.34662L6.77027 2.79866L12.1024 4.54894L10.135 5.20418ZM9.31576 5.47727L7.44676 6.09882L6.77115 6.32404L6.10796 6.10326L1.43813 4.54982L4.2762 3.61794L9.31576 5.47727ZM0.777591 11.4055V4.89917L6.50162 6.80283V13.3092L0.777591 11.4055ZM14.3464 9.84852C14.5255 9.66942 14.8164 9.66942 14.9963 9.84852C15.1754 10.0276 15.1754 10.3185 14.9963 10.4984L12.2593 13.2356C12.1698 13.3251 12.0519 13.3704 11.9348 13.3704C11.8169 13.3704 11.6999 13.3251 11.6103 13.2356L10.6049 12.2301C10.4258 12.051 10.4258 11.7602 10.6049 11.5802C10.784 11.4011 11.0748 11.4011 11.2548 11.5802L11.9357 12.2611L14.3464 9.84852Z" fill="#27AE60"/>
</svg>
