<svg width="16" height="19" viewBox="0 0 16 19" fill="none" xmlns="http://www.w3.org/2000/svg">
<path d="M14.9477 4.52328L10.319 0.223095C10.1899 0.103201 10.0162 0.0357633 9.83421 0.036671L0.739768 0.0820322C0.360833 0.0839222 0.0561204 0.372722 0.0578939 0.728298L0.14126 17.4424C0.143034 17.798 0.450612 18.0837 0.829547 18.0818L14.5312 18.0135C14.9101 18.0116 15.2148 17.7228 15.213 17.3672L15.1512 4.97829C15.1504 4.80754 15.0768 4.64317 14.9477 4.52328ZM13.5727 5.28148L9.54361 5.30158L9.52475 1.52082L13.5727 5.28148ZM13.6676 16.5713L1.67868 16.6311L1.60333 1.52417L8.06878 1.49192L8.09042 5.83115C8.09154 6.05493 8.18734 6.26906 8.35676 6.42646C8.52617 6.58385 8.75532 6.6716 8.9938 6.67041L13.6181 6.64734L13.6676 16.5713ZM7.47481 11.178L3.5356 11.1977C3.4414 11.1982 3.36469 11.2709 3.36513 11.3593L3.36994 12.3235C3.37038 12.4119 3.44781 12.4839 3.54201 12.4834L7.48122 12.4637C7.57542 12.4633 7.65213 12.3906 7.65169 12.3022L7.64688 11.3379C7.64644 11.2495 7.56901 11.1776 7.47481 11.178ZM3.3515 8.62715L3.35631 9.59142C3.35675 9.67981 3.43419 9.75175 3.52839 9.75128L11.7493 9.71027C11.8435 9.7098 11.9203 9.6371 11.9198 9.54871L11.915 8.58443C11.9146 8.49604 11.8371 8.42411 11.7429 8.42458L3.52197 8.46558C3.42777 8.46605 3.35106 8.53876 3.3515 8.62715Z" fill="white"/>
</svg>
