<svg width="16" height="16" viewBox="0 0 16 16" fill="none" xmlns="http://www.w3.org/2000/svg">
<path d="M15.9566 8.8533L13.7398 3.57952C13.6212 3.29727 13.2968 3.16498 13.0136 3.28332L12.0303 3.69685L11.7015 2.91435C11.6026 2.67902 11.3316 2.5685 11.0963 2.66746L10.1841 3.05106L9.88524 2.33963C9.76658 2.05772 9.44188 1.92475 9.159 2.04343L6.72528 3.06636C6.58962 3.12349 6.48218 3.23197 6.42676 3.368C6.37134 3.50437 6.37202 3.65706 6.42914 3.79275L7.42432 6.1603C7.43044 6.18274 7.43554 6.20519 7.44472 6.22695L9.66152 11.5007C9.7506 11.7129 9.9563 11.8405 10.1732 11.8405C10.245 11.8405 10.3177 11.8265 10.3878 11.7969L15.6605 9.57969C15.9427 9.461 16.0753 9.1359 15.9566 8.8533ZM11.0287 3.69889L11.1786 4.05494L10.7444 4.23755L10.5948 3.88116L11.0287 3.69889ZM7.66674 3.87402L9.07774 3.28094L9.66968 4.68951L8.25902 5.28258L7.66674 3.87402ZM8.96928 7.02135L8.683 6.31095L10.6115 5.49989C10.621 5.49581 10.6288 5.49003 10.638 5.48561L12.932 4.52083L13.2193 5.2343L8.96928 7.02135Z" fill="#FCAF17"/>
<path d="M15.0549 10.2408L10.3969 12.1993C10.1124 11.916 9.72986 11.7317 9.30588 11.6994L5.7607 3.2531C5.6825 3.06641 5.50876 2.93752 5.30748 2.9161L1.96222 2.56208C1.65792 2.52774 1.38456 2.75082 1.35226 3.05552C1.31996 3.36023 1.54096 3.6333 1.8456 3.66561L4.8648 3.98493L8.21992 11.9782C7.74766 12.2891 7.43486 12.8233 7.43486 13.43C7.43486 14.3883 8.21414 15.1677 9.17226 15.1677C10.1304 15.1677 10.9097 14.3883 10.9097 13.43C10.9097 13.3501 10.9022 13.2719 10.892 13.1947L15.4854 11.2634C15.7679 11.1447 15.9005 10.8196 15.7819 10.537C15.6625 10.2548 15.3378 10.1221 15.0549 10.2408ZM9.17192 14.0584C8.82546 14.0584 8.54394 13.7765 8.54394 13.4303C8.54394 13.0838 8.8258 12.8022 9.17192 12.8022C9.51838 12.8022 9.7999 13.0838 9.7999 13.4303C9.7999 13.7765 9.51804 14.0584 9.17192 14.0584Z" fill="#FCAF17"/>
<path d="M4.91096 6.24801C4.91096 5.94161 4.66276 5.69336 4.35642 5.69336H0.55454C0.2482 5.69336 0 5.94161 0 6.24801C0 6.55441 0.2482 6.80266 0.55454 6.80266H4.35608C4.66242 6.80266 4.91096 6.55441 4.91096 6.24801Z" fill="#FCAF17"/>
<path d="M5.20094 8.22852H2.9481C2.64176 8.22852 2.39355 8.47677 2.39355 8.78317C2.39355 9.08957 2.64176 9.33782 2.9481 9.33782H5.20094C5.50728 9.33782 5.75548 9.08957 5.75548 8.78317C5.75548 8.47677 5.50728 8.22852 5.20094 8.22852Z" fill="#FCAF17"/>
<path d="M4.77853 10.5938H1.39927C1.09293 10.5938 0.844727 10.842 0.844727 11.1484C0.844727 11.4548 1.09293 11.7031 1.39927 11.7031H4.77853C5.08487 11.7031 5.33307 11.4548 5.33307 11.1484C5.33307 10.842 5.08487 10.5938 4.77853 10.5938Z" fill="#FCAF17"/>
</svg>
