<svg width="20" height="20" viewBox="0 0 20 20" fill="none" xmlns="http://www.w3.org/2000/svg">
<path fill-rule="evenodd" clip-rule="evenodd" d="M8.125 2.1875C8.125 2.10462 8.15792 2.02513 8.21653 1.96653C8.27513 1.90792 8.35462 1.875 8.4375 1.875H11.5625C11.6454 1.875 11.7249 1.90792 11.7835 1.96653C11.8421 2.02513 11.875 2.10462 11.875 2.1875V3.75H8.125V2.1875ZM13.75 2.1875V3.75H16.5625C16.8111 3.75 17.0496 3.84877 17.2254 4.02459C17.4012 4.2004 17.5 4.43886 17.5 4.6875C17.5 4.93614 17.4012 5.1746 17.2254 5.35041C17.0496 5.52623 16.8111 5.625 16.5625 5.625H3.4375C3.18886 5.625 2.9504 5.52623 2.77459 5.35041C2.59877 5.1746 2.5 4.93614 2.5 4.6875C2.5 4.43886 2.59877 4.2004 2.77459 4.02459C2.9504 3.84877 3.18886 3.75 3.4375 3.75H6.25V2.1875C6.25 0.98 7.23 0 8.4375 0H11.5625C12.77 0 13.75 0.98 13.75 2.1875ZM5.62 8.34375C5.61063 8.21899 5.57639 8.09737 5.51929 7.98606C5.46219 7.87474 5.38339 7.77598 5.28753 7.69559C5.19167 7.6152 5.08068 7.55481 4.96112 7.51798C4.84156 7.48115 4.71583 7.46862 4.59135 7.48114C4.46687 7.49365 4.34615 7.53095 4.23632 7.59085C4.12648 7.65074 4.02974 7.73201 3.95179 7.82988C3.87385 7.92774 3.81629 8.04021 3.78249 8.16067C3.74869 8.28112 3.73934 8.40713 3.755 8.53125L4.58 16.7812C4.63422 17.3208 4.8869 17.8209 5.28901 18.1847C5.69112 18.5485 6.21401 18.7499 6.75625 18.75H13.2438C14.3688 18.75 15.3088 17.8988 15.42 16.78L16.245 8.53C16.2625 8.2865 16.1843 8.04577 16.0271 7.85901C15.8699 7.67224 15.646 7.55418 15.4031 7.52992C15.1601 7.50566 14.9173 7.57712 14.7263 7.7291C14.5352 7.88108 14.411 8.10159 14.38 8.34375L13.555 16.5938C13.5472 16.6709 13.5111 16.7424 13.4536 16.7944C13.3961 16.8463 13.3213 16.8751 13.2438 16.875H6.75625C6.67873 16.8751 6.60394 16.8463 6.54642 16.7944C6.4889 16.7424 6.45275 16.6709 6.445 16.5938L5.62 8.34375Z" fill="#E24343"/>
</svg>
