<svg width="17" height="18" viewBox="0 0 17 18" fill="none" xmlns="http://www.w3.org/2000/svg">
    <path d="M14.1042 6.89017C14.1042 6.89017 13.6517 12.5027 13.3892 14.8668C13.2642 15.996 12.5667 16.6577 11.4242 16.6785C9.24999 16.7177 7.07332 16.7202 4.89999 16.6743C3.80082 16.6518 3.11499 15.9818 2.99249 14.8727C2.72832 12.4877 2.27832 6.89017 2.27832 6.89017" stroke="#2A2A86" stroke-width="1.7" stroke-linecap="round" stroke-linejoin="round"/>
    <path d="M15.2569 4.19975H1.12524" stroke="#2A2A86" stroke-width="1.7" stroke-linecap="round" stroke-linejoin="round"/>
    <path d="M12.5339 4.19975C11.8797 4.19975 11.3164 3.73725 11.188 3.09642L10.9855 2.08308C10.8605 1.61558 10.4372 1.29225 9.95469 1.29225H6.42719C5.94469 1.29225 5.52136 1.61558 5.39636 2.08308L5.19386 3.09642C5.06552 3.73725 4.50219 4.19975 3.84802 4.19975" stroke="#2A2A86" stroke-width="1.7" stroke-linecap="round" stroke-linejoin="round"/>
</svg>
