<svg width="18" height="18" viewBox="0 0 18 18" fill="none" xmlns="http://www.w3.org/2000/svg">
<g clip-path="url(#clip0)">
<path d="M13.5941 10.7017C12.343 10.7017 11.3252 11.7195 11.3252 12.9706C11.3252 14.2217 12.343 15.2395 13.5941 15.2395C14.8454 15.2395 15.863 14.2217 15.863 12.9706C15.863 11.7195 14.8452 10.7017 13.5941 10.7017ZM13.5941 14.105C12.9685 14.105 12.4597 13.5962 12.4597 12.9706C12.4597 12.3449 12.9685 11.8361 13.5941 11.8361C14.2198 11.8361 14.7286 12.3449 14.7286 12.9706C14.7286 13.5963 14.2198 14.105 13.5941 14.105Z" fill="#222222"/>
<path d="M5.84216 10.7017C4.59105 10.7017 3.57324 11.7195 3.57324 12.9706C3.57324 14.2217 4.59105 15.2395 5.84216 15.2395C7.09326 15.2395 8.11107 14.2217 8.11107 12.9706C8.11107 11.7195 7.09326 10.7017 5.84216 10.7017ZM5.84216 14.105C5.21652 14.105 4.7077 13.5962 4.7077 12.9706C4.7077 12.3449 5.21652 11.8361 5.84216 11.8361C6.46762 11.8361 6.97661 12.3449 6.97661 12.9706C6.97661 13.5963 6.4678 14.105 5.84216 14.105Z" fill="#222222"/>
<path d="M15.1227 4.20738C15.0263 4.01585 14.8302 3.89502 14.6158 3.89502H11.6284V5.02948H14.266L15.8106 8.10158L16.8244 7.59181L15.1227 4.20738Z" fill="#222222"/>
<path d="M11.8926 12.4224H7.60059V13.5568H11.8926V12.4224Z" fill="#222222"/>
<path d="M4.14099 12.4224H2.17463C1.86132 12.4224 1.60742 12.6763 1.60742 12.9896C1.60742 13.3029 1.86136 13.5568 2.17463 13.5568H4.14103C4.45434 13.5568 4.70824 13.3029 4.70824 12.9896C4.70824 12.6763 4.4543 12.4224 4.14099 12.4224Z" fill="#222222"/>
<path d="M17.8811 8.95461L16.7654 7.51763C16.6582 7.37922 16.4928 7.29829 16.3175 7.29829H12.1956V3.32771C12.1956 3.0144 11.9417 2.7605 11.6284 2.7605H2.17463C1.86132 2.7605 1.60742 3.01443 1.60742 3.32771C1.60742 3.64099 1.86136 3.89492 2.17463 3.89492H11.0612V7.8655C11.0612 8.17881 11.3151 8.43271 11.6284 8.43271H16.0397L16.8658 9.49682V12.4222H15.2965C14.9831 12.4222 14.7292 12.6761 14.7292 12.9894C14.7292 13.3027 14.9832 13.5566 15.2965 13.5566H17.433C17.7463 13.5566 18.0002 13.3027 18.0003 12.9894V9.30251C18.0003 9.17658 17.9583 9.05406 17.8811 8.95461Z" fill="#222222"/>
<path d="M4.10323 9.54834H1.49397C1.18066 9.54834 0.926758 9.80227 0.926758 10.1156C0.926758 10.4289 1.18069 10.6828 1.49397 10.6828H4.1032C4.41651 10.6828 4.67041 10.4288 4.67041 10.1156C4.67044 9.80227 4.41651 9.54834 4.10323 9.54834Z" fill="#222222"/>
<path d="M5.40756 7.31714H0.567211C0.253934 7.31714 0 7.57107 0 7.88438C0 8.1977 0.253934 8.45159 0.567211 8.45159H5.40756C5.72087 8.45159 5.97477 8.19766 5.97477 7.88438C5.97477 7.57111 5.72087 7.31714 5.40756 7.31714Z" fill="#222222"/>
<path d="M6.33432 5.08618H1.49397C1.18066 5.08618 0.926758 5.34012 0.926758 5.65339C0.926758 5.9667 1.18069 6.2206 1.49397 6.2206H6.33432C6.64763 6.2206 6.90153 5.96667 6.90153 5.65339C6.90156 5.34012 6.64763 5.08618 6.33432 5.08618Z" fill="#222222"/>
</g>
<defs>
<clipPath id="clip0">
<rect width="18" height="18" fill="white"/>
</clipPath>
</defs>
</svg>
