<svg width="24" height="24" viewBox="0 0 24 24" fill="none" xmlns="http://www.w3.org/2000/svg">
<g clip-path="url(#clip0_1704_100287)">
<path d="M16.852 19.2685C19.4023 19.2685 21.4697 17.2011 21.4697 14.6509C21.4697 12.1006 19.4023 10.0332 16.852 10.0332C14.3018 10.0332 12.2344 12.1006 12.2344 14.6509C12.2344 17.2011 14.3018 19.2685 16.852 19.2685Z" fill="#FFC53D"/>
<path d="M18.0469 7.60206V3.73773C18.0469 2.89047 17.3576 2.20117 16.5103 2.20117H7.34058C6.49331 2.20117 5.80402 2.89047 5.80402 3.73773V5.47192H3.06047C2.85881 5.47192 2.6798 5.60087 2.61591 5.79212L1.53834 9.01703H1.33734C0.599953 9.01703 0 9.61694 0 10.3544V14.8847C0 15.1436 0.209906 15.3535 0.46875 15.3535H2.34811C2.56378 16.3543 3.4553 17.1067 4.51922 17.1067C5.58314 17.1067 6.47466 16.3543 6.69033 15.3535H9.73655C10.0906 18.9669 13.1463 21.7998 16.8511 21.7998C20.793 21.7998 24 18.5928 24 14.6509C24 11.1163 21.4215 8.17272 18.0469 7.60206ZM0.9375 10.3544C0.9375 10.1339 1.11689 9.95453 1.33734 9.95453H4.00233C4.26117 9.95453 4.47108 9.74467 4.47108 9.48578C4.47108 9.22689 4.26117 9.01703 4.00233 9.01703H2.52675L3.39806 6.40942H5.80397V13.0733C5.44106 12.8149 4.99753 12.6628 4.51917 12.6628C3.4553 12.6628 2.56373 13.4151 2.34806 14.416H0.9375V10.3544ZM4.51917 16.1692C3.8115 16.1692 3.23583 15.593 3.23583 14.8847C3.23583 14.1764 3.8115 13.6003 4.51917 13.6003C5.22684 13.6003 5.80252 14.1765 5.80252 14.8847C5.80252 15.5929 5.22684 16.1692 4.51917 16.1692ZM6.74147 3.73773C6.74147 3.40741 7.0102 3.13867 7.34053 3.13867H16.5103C16.8406 3.13867 17.1094 3.40741 17.1094 3.73773V7.50667C17.0236 7.50363 16.9375 7.50203 16.8511 7.50203C12.9878 7.50203 9.83044 10.5824 9.70603 14.416H6.74147V3.73773ZM16.8511 20.8623C13.4261 20.8623 10.6397 18.0759 10.6397 14.6509C10.6397 11.2259 13.4261 8.43948 16.8511 8.43948C20.2761 8.43948 23.0625 11.226 23.0625 14.6509C23.0625 18.0758 20.2761 20.8623 16.8511 20.8623Z" fill="#8C8C8C"/>
<path d="M18.0806 14.1817H17.3203V12.1113C17.3203 11.8524 17.1104 11.6426 16.8516 11.6426C16.5927 11.6426 16.3828 11.8524 16.3828 12.1113V14.6505C16.3828 14.9094 16.5927 15.1192 16.8516 15.1192H18.0806C18.3394 15.1192 18.5493 14.9094 18.5493 14.6505C18.5493 14.3916 18.3394 14.1817 18.0806 14.1817Z" fill="#8C8C8C"/>
</g>
<defs>
<clipPath id="clip0_1704_100287">
<rect width="24" height="24" fill="white"/>
</clipPath>
</defs>
</svg>
