<svg width="20" height="20" viewBox="0 0 20 20" fill="none" xmlns="http://www.w3.org/2000/svg">
<path fill-rule="evenodd" clip-rule="evenodd" d="M7.98325 1.39688C9.04706 0.328417 10.7494 0.281377 11.8428 1.23521L12.015 1.39574L12.6939 2.07446C12.927 2.3065 13.2329 2.44956 13.5582 2.4817L13.6987 2.48862H14.6696C16.1844 2.48862 17.423 3.67294 17.5095 5.16578L17.5143 5.33287V6.30268C17.5143 6.63299 17.6283 6.95054 17.8338 7.20303L17.9274 7.30711L18.6063 7.98588C19.6749 9.04955 19.7227 10.7505 18.7436 11.8715L18.6159 12.0085L17.928 12.6963C17.6966 12.9282 17.5535 13.2342 17.5213 13.5592L17.5143 13.6994V14.6711C17.5143 16.1855 16.3299 17.4231 14.8368 17.5096L14.6696 17.5144H13.6987C13.3695 17.5144 13.0515 17.6288 12.7988 17.8349L12.6947 17.9287L12.0167 18.6056C10.954 19.6754 9.25154 19.7228 8.12996 18.7436L7.98438 18.6073L7.30709 17.9301C7.07249 17.6972 6.76607 17.5536 6.44164 17.5214L6.30165 17.5144H5.3298C3.8157 17.5144 2.57736 16.3307 2.49084 14.8382L2.48601 14.6711V13.6994C2.48601 13.3708 2.37145 13.0526 2.16548 12.8004L2.07168 12.6965L1.39437 12.0184C0.324696 10.9549 0.277248 9.25271 1.25668 8.13243L1.38445 7.99551L2.07025 7.30889C2.30348 7.07403 2.44688 6.76825 2.47908 6.44308L2.48601 6.30268V5.33287L2.49084 5.1658C2.57416 3.7284 3.72562 2.57678 5.16275 2.49345L5.3298 2.48862H6.30165C6.63078 2.48862 6.94885 2.37447 7.20106 2.16939L7.30496 2.07599L7.98325 1.39688ZM11.1056 2.32876L11.0677 2.29357C10.5408 1.76916 9.70826 1.73846 9.14429 2.20067L9.03524 2.29968L8.34965 2.98612C7.85799 3.47425 7.2077 3.7661 6.52116 3.81135L6.33312 3.81754H5.355C4.60639 3.81754 3.9907 4.39174 3.9246 5.12383L3.91873 5.25458V6.23066C3.91873 6.92368 3.6672 7.59006 3.21352 8.11096L3.08481 8.24932L2.3936 8.94139C1.86907 9.46822 1.83853 10.3005 2.30207 10.8651L2.40136 10.9743L3.08506 11.6588C3.57402 12.1489 3.86706 12.8002 3.91251 13.4872L3.91873 13.6753V14.6533C3.91873 15.4023 4.49258 16.0175 5.22432 16.0835L5.355 16.0894H6.33312C7.02492 16.0894 7.69197 16.3412 8.21305 16.7948L8.35145 16.9235L9.03899 17.611C9.5696 18.1386 10.4022 18.1693 10.9664 17.7058L11.0754 17.6065L11.7607 16.9223C12.2518 16.4336 12.9024 16.141 13.5896 16.0956L13.7778 16.0894H14.755C15.5047 16.0894 16.1202 15.5159 16.1863 14.784L16.1922 14.6533V13.6753C16.1922 12.9826 16.4439 12.3145 16.897 11.7958L17.0255 11.6582L17.717 10.9668C18.2416 10.4393 18.2719 9.6075 17.8091 9.04312L17.7099 8.93398L17.0237 8.24788C16.5352 7.75597 16.2436 7.10642 16.1984 6.41899L16.1922 6.23066V5.25458C16.1922 4.50526 15.618 3.88952 14.8858 3.82342L14.755 3.81754H13.7778C13.0847 3.81754 12.4174 3.56626 11.8975 3.11294L11.7595 2.98434L11.1056 2.32876ZM11.9231 12.9315C12.0553 13.0637 12.2348 13.1392 12.4237 13.1392C12.6126 13.1392 12.792 13.0637 12.9242 12.9315C12.9903 12.8654 13.047 12.7804 13.0848 12.6954C13.1131 12.6104 13.132 12.5264 13.132 12.431C13.132 12.3366 13.1131 12.2422 13.0848 12.1572C13.047 12.0722 12.9903 11.9966 12.9242 11.9305C12.6598 11.6661 12.1875 11.6661 11.9231 11.9305C11.857 11.9966 11.8098 12.0722 11.772 12.1572C11.7342 12.2422 11.7153 12.3366 11.7153 12.431C11.7153 12.5264 11.7342 12.6104 11.772 12.6954C11.8098 12.7804 11.857 12.8654 11.9231 12.9315ZM7.56974 8.28569C7.47529 8.28569 7.39029 8.26586 7.30529 8.22808C7.22028 8.19031 7.13528 8.14404 7.06917 8.07794C7.00306 8.0024 6.95583 7.92685 6.91805 7.84186C6.88028 7.75593 6.86139 7.67189 6.86139 7.57746C6.86139 7.48208 6.88028 7.3886 6.91805 7.30361C6.95583 7.21862 7.00306 7.13363 7.06917 7.07697C7.34306 6.81162 7.80585 6.81162 8.0703 7.07697C8.20253 7.20823 8.27809 7.3886 8.27809 7.57746C8.27809 7.67189 8.26864 7.75593 8.23086 7.84186C8.19308 7.92685 8.13642 8.0024 8.0703 8.07794C8.00419 8.14404 7.92863 8.19031 7.84363 8.22808C7.75863 8.26586 7.66418 8.28569 7.56974 8.28569ZM12.7752 7.28962C12.5156 7.03011 12.0948 7.03011 11.8352 7.28962L7.28016 11.8438L7.21581 11.9183C7.02275 12.1785 7.0442 12.5477 7.28016 12.7836C7.53972 13.0431 7.96055 13.0431 8.22011 12.7836L12.7752 8.22939L12.8395 8.15486C13.0326 7.89471 13.0111 7.52554 12.7752 7.28962Z" fill="#262626"/>
</svg>
