<svg width="13" height="13" viewBox="0 0 13 13" fill="none" xmlns="http://www.w3.org/2000/svg">
<path fill-rule="evenodd" clip-rule="evenodd" d="M5.18909 0.908119C5.88057 0.213618 6.98709 0.183042 7.69783 0.803031L7.80976 0.90738L8.25099 1.34855C8.40256 1.49937 8.60136 1.59236 8.81284 1.61325L8.90414 1.61775H9.53523C10.5198 1.61775 11.3249 2.38756 11.3812 3.3579L11.3843 3.46651V4.09689C11.3843 4.31159 11.4584 4.518 11.5919 4.68212L11.6528 4.74977L12.0941 5.19097C12.7887 5.88235 12.8197 6.98799 12.1833 7.71661L12.1003 7.80567L11.6532 8.25274C11.5028 8.40347 11.4097 8.60239 11.3888 8.81361L11.3843 8.90478V9.53638C11.3843 10.5208 10.6144 11.3252 9.64387 11.3814L9.53523 11.3845H8.90414C8.69017 11.3845 8.48346 11.4589 8.31923 11.5928L8.25154 11.6538L7.81086 12.0938C7.1201 12.7891 6.01348 12.82 5.28446 12.1835L5.18983 12.0949L4.74959 11.6547C4.5971 11.5033 4.39793 11.41 4.18705 11.389L4.09606 11.3845H3.46435C2.48018 11.3845 1.67527 10.6151 1.61903 9.64497L1.61589 9.53638V8.90478C1.61589 8.69119 1.54142 8.48431 1.40754 8.32041L1.34657 8.2529L0.906325 7.81211C0.211034 7.12086 0.180193 6.01441 0.816822 5.28622L0.899877 5.19723L1.34564 4.75093C1.49725 4.59827 1.59045 4.39951 1.61138 4.18815L1.61589 4.09689V3.46651L1.61903 3.35791C1.67319 2.42361 2.42164 1.67506 3.35577 1.62089L3.46435 1.61775H4.09606C4.30999 1.61775 4.51673 1.54355 4.68067 1.41025L4.74821 1.34954L5.18909 0.908119ZM7.2186 1.51384L7.19397 1.49097C6.85151 1.1501 6.31035 1.13014 5.94377 1.43058L5.87289 1.49494L5.42726 1.94113C5.10767 2.25841 4.68498 2.44811 4.23874 2.47753L4.11651 2.48155H3.48073C2.99413 2.48155 2.59394 2.85478 2.55097 3.33064L2.54715 3.41562V4.05008C2.54715 4.50054 2.38366 4.93369 2.08877 5.27227L2.00511 5.36221L1.55582 5.81205C1.21488 6.15449 1.19503 6.69546 1.49633 7.06244L1.56087 7.13341L2.00527 7.57837C2.3231 7.89691 2.51357 8.32028 2.54311 8.76681L2.54715 8.8891V9.52479C2.54715 10.0116 2.92016 10.4115 3.39579 10.4544L3.48073 10.4582H4.11651C4.56618 10.4582 4.99976 10.6219 5.33846 10.9168L5.42842 11.0004L5.87532 11.4473C6.22022 11.7902 6.76141 11.8102 7.12811 11.5089L7.19902 11.4444L7.64442 10.9997C7.96368 10.682 8.38656 10.4918 8.83321 10.4623L8.95556 10.4582H9.59072C10.078 10.4582 10.4781 10.0855 10.5211 9.60975L10.5249 9.52479V8.8891C10.5249 8.43884 10.6885 8.00454 10.983 7.66744L11.0666 7.57798L11.5161 7.12855C11.857 6.78572 11.8767 6.24502 11.5759 5.87817L11.5114 5.80723L11.0654 5.36127C10.7479 5.04153 10.5583 4.61932 10.5289 4.17249L10.5249 4.05008V3.41562C10.5249 2.92856 10.1517 2.52833 9.67572 2.48537L9.59072 2.48155H8.95556C8.50504 2.48155 8.07127 2.31822 7.73337 2.02356L7.64365 1.93997L7.2186 1.51384ZM7.74999 8.40562C7.83594 8.49155 7.95258 8.54066 8.07536 8.54066C8.19814 8.54066 8.31479 8.49155 8.40073 8.40562C8.4437 8.36266 8.48054 8.30741 8.5051 8.25217C8.52351 8.19693 8.53579 8.1423 8.53579 8.08031C8.53579 8.01893 8.52351 7.95755 8.5051 7.90231C8.48054 7.84706 8.4437 7.79796 8.40073 7.75499C8.22884 7.58313 7.92189 7.58313 7.74999 7.75499C7.70702 7.79796 7.67633 7.84706 7.65177 7.90231C7.62721 7.95755 7.61494 8.01893 7.61494 8.08031C7.61494 8.1423 7.62721 8.19693 7.65177 8.25217C7.67633 8.30741 7.70702 8.36266 7.74999 8.40562ZM4.92031 5.38584C4.85892 5.38584 4.80367 5.37295 4.74842 5.3484C4.69317 5.32385 4.63791 5.29377 4.59494 5.25081C4.55197 5.2017 4.52127 5.1526 4.49672 5.09736C4.47216 5.0415 4.45988 4.98687 4.45988 4.92549C4.45988 4.8635 4.47216 4.80273 4.49672 4.74749C4.52127 4.69225 4.55197 4.63701 4.59494 4.60018C4.77297 4.4277 5.07379 4.4277 5.24568 4.60018C5.33162 4.6855 5.38074 4.80273 5.38074 4.92549C5.38074 4.98687 5.3746 5.0415 5.35004 5.09736C5.32549 5.1526 5.28865 5.2017 5.24568 5.25081C5.20271 5.29377 5.15359 5.32385 5.09834 5.3484C5.04309 5.37295 4.9817 5.38584 4.92031 5.38584ZM8.30383 4.7384C8.13512 4.56972 7.86158 4.56972 7.69286 4.7384L4.73209 7.69862L4.69026 7.74707C4.56477 7.91617 4.57871 8.15613 4.73209 8.30948C4.9008 8.47816 5.17434 8.47816 5.34305 8.30948L8.30383 5.34925L8.34566 5.30081C8.47115 5.13171 8.45721 4.89175 8.30383 4.7384Z" fill="#52C41A"/>
</svg>
