<svg width="18" height="13" viewBox="0 0 18 13" fill="none" xmlns="http://www.w3.org/2000/svg">
<path d="M12.9375 9.45502C13.2482 9.45502 13.5 9.19046 13.5 8.86411C13.5 8.53775 13.2482 8.27319 12.9375 8.27319C12.6268 8.27319 12.375 8.53775 12.375 8.86411C12.375 9.19046 12.6268 9.45502 12.9375 9.45502Z" fill="black"/>
<path d="M9.56252 4.72721C9.87318 4.72721 10.125 4.46265 10.125 4.13633C10.125 3.80997 9.87318 3.54541 9.56252 3.54541C9.25182 3.54541 9 3.80997 9 4.13633C9 4.46265 9.25182 4.72721 9.56252 4.72721Z" fill="black"/>
<path d="M16.875 0H6.18748C6.03632 0 5.89571 0.0627765 5.79025 0.173597L5.06252 0.938073L4.33475 0.173597C4.22929 0.0627765 4.08515 0 3.93748 0H1.125C0.506259 0 0 0.531832 0 1.18183V11.8182C0 12.4719 0.506259 13 1.125 13H3.93748C4.08868 13 4.22929 12.9372 4.33475 12.8264L5.06252 12.0619L5.79025 12.8264C5.89571 12.9372 6.03985 13 6.18748 13H16.875C17.4973 13 18 12.4719 18 11.8182V1.18183C18 0.531832 17.4973 0 16.875 0ZM5.625 10.6364H4.5V9.45454H5.625V10.6364ZM5.625 8.27271H4.5V7.09092H5.625V8.27271ZM5.625 5.90908H4.5V4.72729H5.625V5.90908ZM5.625 3.54546H4.5V2.36363H5.625V3.54546ZM9.56252 2.36363C10.4941 2.36363 11.25 3.15768 11.25 4.13637C11.25 5.11507 10.4941 5.90908 9.56252 5.90908C8.63086 5.90908 7.875 5.11507 7.875 4.13637C7.875 3.15768 8.63086 2.36363 9.56252 2.36363ZM8.43748 10.6364C8.31095 10.6364 8.18439 10.5921 8.07889 10.4997C7.83985 10.2892 7.80819 9.9199 8.00859 9.66876L13.6336 2.57784C13.834 2.3267 14.189 2.29716 14.4246 2.50399C14.6637 2.71447 14.6953 3.08379 14.4949 3.33863L8.86991 10.4295C8.75742 10.5625 8.59924 10.6364 8.43748 10.6364ZM12.9375 10.6364C12.0059 10.6364 11.25 9.84232 11.25 8.86363C11.25 7.88493 12.0059 7.09092 12.9375 7.09092C13.8691 7.09092 14.625 7.88493 14.625 8.86363C14.625 9.84232 13.8691 10.6364 12.9375 10.6364Z" fill="black"/>
</svg>
