<svg width="70" height="70" viewBox="0 0 70 70" fill="none" xmlns="http://www.w3.org/2000/svg">
<circle cx="35" cy="35" r="35" fill="#71767B"/>
<path d="M47.8826 22.1158C44.4835 18.7167 38.9831 18.7167 35.588 22.1158L31.6947 26.0091L33.7438 28.0582L37.6371 24.1649C39.7987 22.0033 43.4469 21.7743 45.8335 24.1649C48.2241 26.5556 47.9951 30.1998 45.8335 32.3614L41.9402 36.2547L43.9933 38.3078L47.8867 34.4145C51.2777 31.0154 51.2777 25.5149 47.8826 22.1158ZM32.3697 45.8292C30.2081 47.9908 26.5599 48.2198 24.1733 45.8292C21.7826 43.4386 22.0116 39.7944 24.1733 37.6328L28.0666 33.7395L26.0134 31.6864L22.1201 35.5797C18.721 38.9788 18.721 44.4792 22.1201 47.8743C25.5192 51.2694 31.0197 51.2734 34.4148 47.8743L38.3081 43.981L36.259 41.9319L32.3697 45.8292ZM24.8884 22.839C24.828 22.7792 24.7464 22.7457 24.6614 22.7457C24.5764 22.7457 24.4948 22.7792 24.4344 22.839L22.8433 24.4301C22.7835 24.4905 22.75 24.5721 22.75 24.6571C22.75 24.7421 22.7835 24.8237 22.8433 24.8841L45.1183 47.1591C45.2429 47.2837 45.4478 47.2837 45.5724 47.1591L47.1634 45.5681C47.288 45.4435 47.288 45.2386 47.1634 45.114L24.8884 22.839Z" fill="white"/>
</svg>
