<svg width="22" height="22" viewBox="0 0 22 22" fill="none" xmlns="http://www.w3.org/2000/svg">
<path fill-rule="evenodd" clip-rule="evenodd" d="M10.277 10.2774L9.31725 13.3455L12.3844 12.3848L13.3451 9.31672L10.277 10.2774ZM8.26857 15.0807C8.08891 15.0807 7.91291 15.0101 7.78182 14.88C7.60124 14.6985 7.53524 14.4317 7.61224 14.1888L9.07249 9.52389C9.13941 9.30756 9.30807 9.13981 9.52257 9.07289L14.1875 7.61264C14.4322 7.53472 14.6981 7.60164 14.8796 7.78222C15.0602 7.96372 15.1262 8.23047 15.0492 8.47339L13.5898 13.1383C13.5229 13.3537 13.3533 13.5224 13.1388 13.5893L8.47391 15.0496C8.40607 15.0706 8.33641 15.0807 8.26857 15.0807Z" fill="#95A1AC"/>
<mask id="mask0" mask-type="alpha" maskUnits="userSpaceOnUse" x="1" y="1" width="20" height="20">
<path fill-rule="evenodd" clip-rule="evenodd" d="M1.83325 1.83325H20.8282V20.8281H1.83325V1.83325Z" fill="white"/>
</mask>
<g mask="url(#mask0)">
<path fill-rule="evenodd" clip-rule="evenodd" d="M11.3306 3.20825C6.85176 3.20825 3.20801 6.85292 3.20801 11.3308C3.20801 15.8097 6.85176 19.4534 11.3306 19.4534C15.8094 19.4534 19.4532 15.8097 19.4532 11.3308C19.4532 6.85292 15.8094 3.20825 11.3306 3.20825ZM11.3306 20.8284C6.09367 20.8284 1.83301 16.5677 1.83301 11.3308C1.83301 6.09392 6.09367 1.83325 11.3306 1.83325C16.5675 1.83325 20.8282 6.09392 20.8282 11.3308C20.8282 16.5677 16.5675 20.8284 11.3306 20.8284Z" fill="#95A1AC"/>
</g>
</svg>
