<svg width="20" height="20" viewBox="0 0 20 20" fill="none" xmlns="http://www.w3.org/2000/svg">
<path d="M10.4134 9.61523L5.42707 3.24414C5.36848 3.16797 5.27668 3.125 5.18098 3.125L3.67121 3.125C3.54036 3.125 3.46809 3.27539 3.54817 3.37695L8.73176 10L3.54817 16.623C3.53013 16.6461 3.51894 16.6737 3.51588 16.7028C3.51281 16.7319 3.51799 16.7613 3.53083 16.7875C3.54366 16.8138 3.56364 16.836 3.58846 16.8514C3.61329 16.8669 3.64196 16.8751 3.67121 16.875H5.18098C5.27668 16.875 5.36848 16.8301 5.42707 16.7559L10.4134 10.3867C10.5911 10.1582 10.5911 9.8418 10.4134 9.61523ZM16.3509 9.61523L11.3646 3.24414C11.306 3.16797 11.2142 3.125 11.1185 3.125L9.60871 3.125C9.47786 3.125 9.40559 3.27539 9.48567 3.37695L14.6693 10L9.48567 16.623C9.46763 16.6461 9.45644 16.6737 9.45338 16.7028C9.45031 16.7319 9.45549 16.7613 9.46833 16.7875C9.48116 16.8138 9.50114 16.836 9.52596 16.8514C9.55079 16.8669 9.57946 16.8751 9.60871 16.875H11.1185C11.2142 16.875 11.306 16.8301 11.3646 16.7559L16.3509 10.3867C16.5286 10.1582 16.5286 9.8418 16.3509 9.61523Z" fill="#2A2A86"/>
</svg>
