<svg width="20" height="20" viewBox="0 0 20 20" fill="none" xmlns="http://www.w3.org/2000/svg">
<path d="M10.3848 10.4136L16.7559 5.42729C16.832 5.36869 16.875 5.2769 16.875 5.18119L16.875 3.67143C16.875 3.54057 16.7246 3.4683 16.623 3.54838L10 8.73197L3.37695 3.54838C3.35392 3.53035 3.32629 3.51916 3.2972 3.51609C3.26811 3.51302 3.23875 3.51821 3.21246 3.53104C3.18618 3.54388 3.16404 3.56385 3.14857 3.58868C3.13311 3.6135 3.12494 3.64218 3.125 3.67143L3.125 5.18119C3.125 5.2769 3.16992 5.36869 3.24414 5.42729L9.61328 10.4136C9.8418 10.5913 10.1582 10.5913 10.3848 10.4136ZM10.3848 16.3511L16.7559 11.3648C16.832 11.3062 16.875 11.2144 16.875 11.1187L16.875 9.60893C16.875 9.47807 16.7246 9.4058 16.623 9.48588L10 14.6695L3.37695 9.48588C3.35392 9.46785 3.32629 9.45666 3.2972 9.45359C3.26811 9.45052 3.23875 9.45571 3.21246 9.46854C3.18618 9.48138 3.16404 9.50135 3.14857 9.52618C3.13311 9.551 3.12494 9.57968 3.125 9.60893L3.125 11.1187C3.125 11.2144 3.16992 11.3062 3.24414 11.3648L9.61328 16.3511C9.8418 16.5289 10.1582 16.5289 10.3848 16.3511Z" fill="#2A2A86"/>
</svg>
