<svg width="14" height="14" viewBox="0 0 14 14" fill="none" xmlns="http://www.w3.org/2000/svg">
    <path d="M2.5 5.875C2.5 5.72582 2.55926 5.58274 2.66475 5.47725C2.77024 5.37176 2.91332 5.3125 3.0625 5.3125H5.3125V3.0625C5.3125 2.91332 5.37176 2.77024 5.47725 2.66475C5.58274 2.55926 5.72582 2.5 5.875 2.5C6.02418 2.5 6.16726 2.55926 6.27275 2.66475C6.37824 2.77024 6.4375 2.91332 6.4375 3.0625V5.3125H8.6875C8.83668 5.3125 8.97976 5.37176 9.08525 5.47725C9.19074 5.58274 9.25 5.72582 9.25 5.875C9.25 6.02418 9.19074 6.16726 9.08525 6.27275C8.97976 6.37824 8.83668 6.4375 8.6875 6.4375H6.4375V8.6875C6.4375 8.83668 6.37824 8.97976 6.27275 9.08525C6.16726 9.19074 6.02418 9.25 5.875 9.25C5.72582 9.25 5.58274 9.19074 5.47725 9.08525C5.37176 8.97976 5.3125 8.83668 5.3125 8.6875V6.4375H3.0625C2.91332 6.4375 2.77024 6.37824 2.66475 6.27275C2.55926 6.16726 2.5 6.02418 2.5 5.875ZM2.5 0.25C1.90326 0.25 1.33097 0.487053 0.90901 0.90901C0.487053 1.33097 0.25 1.90326 0.25 2.5V9.25C0.25 9.84674 0.487053 10.419 0.90901 10.841C1.33097 11.2629 1.90326 11.5 2.5 11.5H9.25C9.84674 11.5 10.419 11.2629 10.841 10.841C11.2629 10.419 11.5 9.84674 11.5 9.25V2.5C11.5 1.90326 11.2629 1.33097 10.841 0.90901C10.419 0.487053 9.84674 0.25 9.25 0.25H2.5ZM1.375 2.5C1.375 2.20163 1.49353 1.91548 1.7045 1.7045C1.91548 1.49353 2.20163 1.375 2.5 1.375H9.25C9.54837 1.375 9.83452 1.49353 10.0455 1.7045C10.2565 1.91548 10.375 2.20163 10.375 2.5V9.25C10.375 9.54837 10.2565 9.83452 10.0455 10.0455C9.83452 10.2565 9.54837 10.375 9.25 10.375H2.5C2.20163 10.375 1.91548 10.2565 1.7045 10.0455C1.49353 9.83452 1.375 9.54837 1.375 9.25V2.5ZM9.8125 12.625C10.5584 12.625 11.2738 12.3287 11.8012 11.8012C12.3287 11.2738 12.625 10.5584 12.625 9.8125V1.6765C12.967 1.87397 13.2511 2.158 13.4485 2.50003C13.646 2.84206 13.75 3.23005 13.75 3.625V9.8125C13.75 10.8568 13.3352 11.8583 12.5967 12.5967C11.8583 13.3352 10.8568 13.75 9.8125 13.75H3.625C3.23005 13.75 2.84206 13.646 2.50003 13.4485C2.158 13.2511 1.87397 12.967 1.6765 12.625H9.8125Z" fill="#222222"/>
</svg>
