<svg width="18" height="18" viewBox="0 0 18 18" fill="none" xmlns="http://www.w3.org/2000/svg">
<path d="M15.4413 2.5579C13.7418 0.858345 10.9915 0.858345 9.29399 2.5579L7.34734 4.50455L8.3719 5.5291L10.3185 3.58245C11.3994 2.50165 13.2235 2.38714 14.4168 3.58245C15.6121 4.77777 15.4976 6.59986 14.4168 7.68067L12.4701 9.62732L13.4967 10.6539L15.4433 8.70723C17.1389 7.00768 17.1389 4.25745 15.4413 2.5579ZM7.68484 14.4146C6.60404 15.4954 4.77993 15.6099 3.58663 14.4146C2.39132 13.2193 2.50582 11.3972 3.58663 10.3164L5.53328 8.36973L4.50672 7.34317L2.56007 9.28982C0.860512 10.9894 0.860512 13.7396 2.56007 15.4371C4.25962 17.1347 7.00984 17.1367 8.70739 15.4371L10.654 13.4905L9.62949 12.4659L7.68484 14.4146ZM3.94422 2.91951C3.91401 2.8896 3.87322 2.87282 3.83071 2.87282C3.7882 2.87282 3.74741 2.8896 3.71721 2.91951L2.92167 3.71504C2.89176 3.74525 2.87499 3.78604 2.87499 3.82855C2.87499 3.87105 2.89176 3.91184 2.92167 3.94205L14.0592 15.0796C14.1215 15.1418 14.2239 15.1418 14.2862 15.0796L15.0817 14.284C15.144 14.2217 15.144 14.1193 15.0817 14.057L3.94422 2.91951Z" fill="#E24343"/>
</svg>
