<svg width="24" height="24" viewBox="0 0 24 24" fill="none" xmlns="http://www.w3.org/2000/svg">
<path d="M20 0H4C1.79086 0 0 1.79086 0 4V20C0 22.2091 1.79086 24 4 24H20C22.2091 24 24 22.2091 24 20V4C24 1.79086 22.2091 0 20 0Z" fill="url(#paint0_linear)"/>
<path d="M12.0539 20.4036C11.9162 20.4044 11.7807 20.3692 11.661 20.3013C10.6362 19.7086 3.0466 14.9497 2.76023 14.8044C2.65295 14.7544 2.56042 14.6775 2.49159 14.5812C2.42276 14.4849 2.37997 14.3724 2.36737 14.2547V7.57999C2.36461 7.45742 2.39309 7.33616 2.45011 7.22762C2.50714 7.11909 2.59084 7.02684 2.69334 6.95957L2.74831 6.92805C3.48251 6.47254 5.93883 4.97299 6.32899 4.75696C6.41817 4.704 6.51973 4.67549 6.62344 4.67432C6.72075 4.67548 6.8164 4.69972 6.90252 4.74505C6.90252 4.74505 10.3417 6.98725 10.868 7.18829C11.2371 7.35785 11.6396 7.44232 12.0458 7.43546C12.5063 7.44449 12.9611 7.33277 13.365 7.11141C13.8794 6.84233 17.166 4.75581 17.2014 4.75581C17.2842 4.70583 17.3794 4.68 17.4762 4.68124C17.58 4.68166 17.6817 4.71008 17.7706 4.7635C18.2181 5.01105 21.2652 6.87769 21.3948 6.95842C21.5003 7.02213 21.5873 7.11234 21.6472 7.2201C21.7071 7.32787 21.7378 7.44942 21.7361 7.57269V14.247C21.7243 14.3649 21.6819 14.4777 21.613 14.5741C21.5442 14.6705 21.4513 14.7473 21.3436 14.7967C21.0569 14.9535 13.4907 19.7124 12.4463 20.2936C12.3275 20.3643 12.1921 20.4022 12.0539 20.4036" fill="url(#paint1_linear)"/>
<path d="M12.015 20.4036H12.0534C12.191 20.4046 12.3263 20.3693 12.4459 20.3014C13.4707 19.7086 21.0565 14.9498 21.3432 14.8045C21.451 14.7551 21.5439 14.6784 21.6127 14.5819C21.6816 14.4855 21.724 14.3727 21.7357 14.2548V7.58006C21.7372 7.46702 21.7116 7.35526 21.6611 7.25409L12.0127 12.5507V20.4036" fill="url(#paint2_linear)"/>
<path d="M11.9809 20.3093H11.9425C11.8064 20.3104 11.6725 20.2755 11.5542 20.2082C10.5382 19.6216 3.03476 14.9146 2.75146 14.7701C2.64491 14.7211 2.55301 14.6452 2.48484 14.5498C2.41668 14.4544 2.37462 14.3428 2.36283 14.2262V7.62218C2.36172 7.51049 2.38701 7.40011 2.43663 7.30005L11.9809 12.5402V20.3093Z" fill="url(#paint3_linear)"/>
<path d="M7.33398 9.76379H8.21349V13.9976H9.73072V14.8333H7.33744L7.33398 9.76379Z" fill="white"/>
<path d="M11.768 11.0346C11.9977 11.0319 12.225 11.0824 12.432 11.182C12.6391 11.2816 12.8203 11.4277 12.9616 11.6089V11.1092H13.7822V14.8379H12.9616V14.3381C12.8206 14.5198 12.6395 14.6664 12.4324 14.7664C12.2253 14.8664 11.9979 14.9172 11.768 14.9147C10.7447 14.9147 9.96826 14.0406 9.96826 12.9731C9.96826 11.9056 10.7447 11.0334 11.768 11.0334V11.0346ZM11.9172 11.7807C11.2525 11.7807 10.8128 12.3035 10.8128 12.9724C10.8128 13.6412 11.2598 14.1667 11.9172 14.1667C12.5745 14.1667 13.0211 13.6443 13.0211 12.9724C13.0211 12.3004 12.5814 11.7807 11.9172 11.7807Z" fill="white"/>
<path d="M14.4204 14.1928L16.377 11.8556H14.4504V11.1091H17.4372V11.7661L15.4883 14.094H17.4814V14.8393H14.4204V14.1928Z" fill="white"/>
<defs>
<linearGradient id="paint0_linear" x1="11.7592" y1="-20.5139" x2="12.069" y2="21.3465" gradientUnits="userSpaceOnUse">
<stop offset="0.34" stop-color="#5B8BEB"/>
<stop offset="0.640354" stop-color="#2742A2"/>
<stop offset="1" stop-color="#112283"/>
</linearGradient>
<linearGradient id="paint1_linear" x1="2.41954" y1="12.5824" x2="21.6103" y2="12.4347" gradientUnits="userSpaceOnUse">
<stop stop-color="#FFB900"/>
<stop offset="0.34" stop-color="#F38000"/>
<stop offset="0.57" stop-color="#F83C72"/>
<stop offset="0.78" stop-color="#FC1CBE"/>
<stop offset="0.93" stop-color="#FE08ED"/>
<stop offset="1" stop-color="#FF00FF"/>
</linearGradient>
<linearGradient id="paint2_linear" x1="7.81334" y1="18.8645" x2="27.3788" y2="8.03052" gradientUnits="userSpaceOnUse">
<stop stop-color="#EE0A3F"/>
<stop offset="1" stop-color="#EE0A3F" stop-opacity="0"/>
</linearGradient>
<linearGradient id="paint3_linear" x1="9.86498" y1="15.6911" x2="0.410039" y2="8.07465" gradientUnits="userSpaceOnUse">
<stop stop-color="#ED6600"/>
<stop offset="1" stop-color="#F98200"/>
</linearGradient>
</defs>
</svg>
