<svg width="18" height="18" viewBox="0 0 18 18" fill="none" xmlns="http://www.w3.org/2000/svg">
<path d="M16.6604 4.60892L13.3938 1.34241C13.2432 1.19174 13.0584 1.08124 12.8575 1.02098V0.966736H1.60746C1.25188 0.966736 0.9646 1.25401 0.9646 1.60959V16.3953C0.9646 16.7509 1.25188 17.0382 1.60746 17.0382H16.3932C16.7488 17.0382 17.036 16.7509 17.036 16.3953V5.51696C17.036 5.17544 16.9014 4.84999 16.6604 4.60892ZM6.42889 2.41316H11.5717V4.50245H6.42889V2.41316ZM15.5896 15.5917H2.41103V2.41316H5.14317V5.14531C5.14317 5.50089 5.43045 5.78816 5.78603 5.78816H12.2146C12.5702 5.78816 12.8575 5.50089 12.8575 5.14531V2.85111L15.5896 5.58325V15.5917ZM9.00031 7.5962C7.40322 7.5962 6.10746 8.89196 6.10746 10.4891C6.10746 12.0862 7.40322 13.3819 9.00031 13.3819C10.5974 13.3819 11.8932 12.0862 11.8932 10.4891C11.8932 8.89196 10.5974 7.5962 9.00031 7.5962ZM9.00031 12.0962C8.11237 12.0962 7.39317 11.377 7.39317 10.4891C7.39317 9.60111 8.11237 8.88192 9.00031 8.88192C9.88826 8.88192 10.6075 9.60111 10.6075 10.4891C10.6075 11.377 9.88826 12.0962 9.00031 12.0962Z" fill="white"/>
</svg>
