<svg width="24" height="24" viewBox="0 0 24 24" fill="none" xmlns="http://www.w3.org/2000/svg">
<path d="M20.2798 0H3.72023C1.6656 0 0 1.6864 0 3.76669V20.2333C0 22.3136 1.6656 24 3.72023 24H20.2798C22.3344 24 24 22.3136 24 20.2333V3.76669C24 1.6864 22.3344 0 20.2798 0Z" fill="#FE0000"/>
<path d="M1.43727 13.6096C1.87428 13.8436 2.37092 13.9672 2.8767 13.9676C3.38145 13.9676 3.84087 13.7512 3.84087 13.3184C3.84087 12.994 3.57811 12.7942 3.01709 12.5196C2.37413 12.2038 1.76067 11.7624 1.76067 11.0384C1.76067 9.89865 2.82917 9.21631 4.15989 9.21631C4.90227 9.21631 5.33711 9.36694 5.59932 9.49095L5.19234 10.4891C4.84134 10.326 4.45265 10.2433 4.05938 10.2481C3.44482 10.2481 3.13072 10.5228 3.13072 10.8305C3.13072 11.1549 3.50163 11.3633 4.01786 11.6294C4.76024 11.9808 5.23113 12.4367 5.23113 13.1105C5.23113 14.3587 4.10854 14.9994 2.75051 14.9994C1.89942 14.9914 1.29251 14.7915 1.00244 14.6002L1.43727 13.6096Z" fill="white"/>
<path d="M7.80805 11.6209C7.20169 11.6209 6.84825 12.0874 6.75812 12.4614C7.78074 12.47 8.28768 12.3449 8.28768 11.9623C8.28768 11.7615 8.10686 11.6209 7.80805 11.6209V11.6209ZM8.95795 14.6741C8.44172 14.9156 7.79931 14.9985 7.30111 14.9985C6.04469 14.9985 5.38916 14.3413 5.38916 13.2763C5.38916 12.0362 6.36699 10.7463 7.9692 10.7463C8.86563 10.7463 9.50859 11.2122 9.50859 11.9694C9.50859 13.0017 8.41605 13.3752 6.62974 13.3346C6.64005 13.482 6.68977 13.6248 6.7745 13.7503C6.94658 13.9587 7.24539 14.0666 7.6256 14.0666C8.05507 14.0697 8.47951 13.9814 8.86563 13.8085L8.95795 14.6741Z" fill="white"/>
<path d="M9.23926 14.9082L9.80028 12.1637C9.91827 11.6476 10.0073 11.1148 10.0707 10.7488H11.2206L11.1113 11.5145H11.1294C11.5478 10.9888 12.0897 10.7473 12.6797 10.7473C13.4035 10.7473 13.8203 11.155 13.8203 11.8625C13.8134 12.0912 13.7891 12.3192 13.7476 12.5448L13.2587 14.9082H11.9477L12.4175 12.6533C12.4465 12.5049 12.4617 12.3546 12.4628 12.2039C12.4628 11.9122 12.3535 11.7128 12.0192 11.7128C11.5937 11.7128 11.0955 12.2039 10.9147 13.1026L10.5432 14.9102L9.23926 14.9082Z" fill="white"/>
<path d="M17.1335 11.7956C17.0243 11.7128 16.8254 11.6545 16.6173 11.6545C15.8296 11.6545 15.2773 12.4865 15.2773 13.2688C15.2773 13.7598 15.5127 14.0345 15.8837 14.0345C16.266 14.0345 16.726 13.6684 16.8981 12.8862L17.1335 11.7956ZM18.9985 9.00049L18.1021 13.3275C17.9903 13.8491 17.9207 14.3776 17.8939 14.9086H16.6987L16.7621 14.2514H16.744C16.3545 14.7921 15.8115 15 15.2866 15C14.5349 15 13.9209 14.4507 13.9209 13.4606C13.9209 12.0462 15.0342 10.7397 16.7096 10.7397C16.9164 10.7416 17.1215 10.7755 17.316 10.8402L17.7038 9.00049H18.9985Z" fill="white"/>
<path d="M19.8312 13.2939C19.8312 13.7679 20.0852 14.0842 20.5468 14.0842C21.2439 14.0842 21.6514 13.1192 21.6514 12.4273C21.6514 12.0528 21.47 11.6536 20.9544 11.6536C20.2027 11.6536 19.8312 12.6578 19.8312 13.2929V13.2939ZM22.9996 12.4188C22.9996 13.9085 21.8863 14.9985 20.3562 14.9985C19.2336 14.9985 18.4819 14.3247 18.4819 13.3095C18.4819 11.9036 19.5504 10.7383 21.1253 10.7383C22.3124 10.7393 23.0001 11.4879 23.0001 12.4198L22.9996 12.4188Z" fill="white"/>
</svg>
