<svg width="24" height="24" viewBox="0 0 24 24" fill="none" xmlns="http://www.w3.org/2000/svg">
<path d="M20.2798 0H3.72023C1.6656 0 0 1.6864 0 3.76669V20.2333C0 22.3136 1.6656 24 3.72023 24H20.2798C22.3344 24 24 22.3136 24 20.2333V3.76669C24 1.6864 22.3344 0 20.2798 0Z" fill="url(#paint0_linear)"/>
<path fill-rule="evenodd" clip-rule="evenodd" d="M20.2467 7.37765C20.2469 7.33107 20.2379 7.28491 20.2203 7.2418C20.2026 7.19869 20.1767 7.15948 20.1439 7.12641C20.1111 7.09333 20.0721 7.06705 20.0291 7.04905C19.9862 7.03105 19.9401 7.0217 19.8935 7.02152H16.0651C15.9715 4.52247 14.1875 2.5296 12.0001 2.5296C9.81282 2.5296 8.02876 4.52178 7.93517 7.02084H4.10246C4.00922 7.02275 3.92046 7.06123 3.85534 7.12797C3.79021 7.19472 3.75392 7.28439 3.7543 7.37765C3.7543 7.38698 3.7543 7.39609 3.75566 7.40543H3.75293L4.29942 19.451C4.29942 19.4847 4.30079 19.5193 4.30375 19.5525C4.30375 19.5605 4.30375 19.5676 4.30511 19.5753L4.30648 19.601H4.30807C4.39096 20.4397 4.99938 21.1148 5.82595 21.1462L5.82822 21.1476H18.0486C18.8911 21.1248 19.5724 20.4403 19.6439 19.5917V19.5803C19.6439 19.5717 19.6455 19.563 19.6455 19.5539C19.6469 19.5311 19.6483 19.5109 19.6483 19.4901L20.2467 7.39541C20.247 7.38949 20.247 7.38356 20.2467 7.37765ZM12.0001 3.61575C13.5941 3.61575 14.892 5.12816 14.9532 7.02084H9.04705C9.10785 5.12816 10.4062 3.61575 12.0001 3.61575ZM15.0227 16.4644C14.9145 17.3581 14.3726 18.0747 13.5333 18.4329C13.0656 18.6331 12.4385 18.741 11.9414 18.7062C11.1842 18.6814 10.4418 18.4893 9.76773 18.1435C9.5275 18.0205 9.17069 17.7746 8.89608 17.5444C8.82777 17.4863 8.81821 17.4492 8.86397 17.3834C8.88902 17.3463 8.93479 17.2791 9.03635 17.1302C9.18299 16.915 9.20075 16.8886 9.21851 16.8629C9.26405 16.7914 9.34147 16.785 9.41661 16.8442C9.42458 16.8499 9.42458 16.8499 9.43096 16.8549L9.4724 16.8873C9.50177 16.91 9.51794 16.9237 9.52614 16.9287C10.2498 17.4957 11.0927 17.8224 11.9437 17.8554C13.1277 17.8388 13.9793 17.3069 14.1317 16.4892C14.2997 15.5896 13.5932 14.8124 12.2117 14.3791C11.779 14.2441 10.6861 13.8064 10.4857 13.6885C9.5395 13.1342 9.0976 12.408 9.15999 11.5098C9.25654 10.2656 10.4112 9.3375 11.8715 9.33112C12.535 9.33296 13.1913 9.46841 13.8013 9.72938C14.0231 9.82296 14.4184 10.0384 14.555 10.1392C14.6335 10.1971 14.6493 10.2643 14.6044 10.3371C14.5787 10.3795 14.5361 10.446 14.4498 10.5853L14.4484 10.5867C14.3332 10.7688 14.3298 10.7754 14.3034 10.8185C14.2578 10.8886 14.2032 10.895 14.1212 10.8428C13.4511 10.3929 12.7094 10.1663 11.8924 10.1499C10.8764 10.17 10.1148 10.7748 10.0647 11.5993C10.0512 12.3436 10.6096 12.8863 11.8152 13.3011C14.2626 14.0883 15.1992 15.0101 15.0227 16.4644Z" fill="white"/>
<defs>
<linearGradient id="paint0_linear" x1="0" y1="12" x2="24" y2="12" gradientUnits="userSpaceOnUse">
<stop stop-color="#FF6633"/>
<stop offset="0.33" stop-color="#FD5D32"/>
<stop offset="0.88" stop-color="#F7432E"/>
<stop offset="0.99" stop-color="#F53D2D"/>
</linearGradient>
</defs>
</svg>
