<svg width="24" height="24" viewBox="0 0 24 24" fill="none" xmlns="http://www.w3.org/2000/svg">
<path d="M20.2798 0H3.72023C1.6656 0 0 1.6864 0 3.76669V20.2333C0 22.3136 1.6656 24 3.72023 24H20.2798C22.3344 24 24 22.3136 24 20.2333V3.76669C24 1.6864 22.3344 0 20.2798 0Z" fill="#1A94FF"/>
<path d="M13.1958 14.9337V15.0692C13.1958 15.9304 13.1958 16.7911 13.1958 17.6513C13.1958 17.9791 13.0813 18.2422 12.7885 18.4097C12.3095 18.6835 11.6696 18.4236 11.5625 17.9104C11.5519 17.8567 11.5469 17.802 11.5474 17.7473C11.5474 15.5914 11.5474 13.4355 11.5474 11.2796C11.5474 10.868 11.8054 10.5663 12.236 10.4943C12.6023 10.4341 12.9943 10.5878 13.1408 10.9842C13.1885 11.1129 13.195 11.2477 13.1953 11.3827C13.1966 12.0919 13.1966 12.8006 13.1953 13.5088V13.6537C13.2512 13.6517 13.269 13.6102 13.2956 13.5826C14.1515 12.6648 15.0067 11.7466 15.8612 10.8279C16.0519 10.6223 16.2667 10.4733 16.5572 10.4865C16.8727 10.5012 17.1206 10.643 17.2654 10.931C17.4014 11.2021 17.3743 11.4695 17.2024 11.7198C16.9861 12.0344 16.6983 12.2819 16.432 12.5491C15.8957 13.0874 15.3564 13.6224 14.814 14.154C14.7543 14.213 14.745 14.2477 14.8085 14.3141C15.6498 15.1934 16.4893 16.0746 17.3271 16.9578C17.4694 17.1075 17.6071 17.2617 17.6802 17.4593C17.8686 17.9712 17.5625 18.4489 17.0175 18.5072C16.7457 18.5363 16.5156 18.4598 16.3171 18.2724C15.9392 17.9135 15.6022 17.5155 15.2491 17.1325C14.5879 16.4172 13.932 15.6971 13.2743 14.9795C13.2584 14.9603 13.2435 14.9403 13.2296 14.9195L13.1958 14.9337Z" fill="white"/>
<path d="M6.59997 14.9587C6.59997 15.866 6.60323 16.7733 6.59821 17.6807C6.5962 18.0168 6.46823 18.2969 6.14654 18.4337C5.81581 18.574 5.4906 18.55 5.20605 18.3071C5.03265 18.1596 4.96892 17.9552 4.9511 17.7344C4.94608 17.6715 4.94734 17.6077 4.94734 17.5446V12.2408C4.94734 12.081 4.94734 12.081 4.78373 12.081C4.43669 12.081 4.0894 12.081 3.74236 12.081C3.30298 12.0795 3.01692 11.7958 3.00061 11.3464C2.9848 10.9209 3.27664 10.5883 3.69544 10.5554C3.74563 10.5513 3.79581 10.5475 3.846 10.5475C5.13411 10.5475 6.42223 10.5475 7.71034 10.5475C8.00769 10.5475 8.26766 10.6235 8.42876 10.8971C8.58985 11.1707 8.5891 11.4544 8.44482 11.7297C8.31032 11.986 8.07946 12.0843 7.79766 12.082C7.44235 12.0787 7.08678 12.0853 6.73146 12.0787C6.62707 12.077 6.59821 12.1061 6.59846 12.212C6.60173 13.1274 6.59997 14.0431 6.59997 14.9587Z" fill="white"/>
<path d="M19.9071 14.5048C19.9071 15.5463 19.9071 16.5879 19.9071 17.6294C19.9071 17.9334 19.8318 18.2019 19.5656 18.3741C19.2835 18.5575 18.9776 18.5644 18.6805 18.4215C18.3834 18.2786 18.2605 18.0162 18.2597 17.6988C18.2559 15.5651 18.2559 13.4313 18.2597 11.2975C18.2597 10.9034 18.4823 10.6113 18.807 10.5224C19.2062 10.4132 19.5811 10.5343 19.7746 10.836C19.8807 11.0017 19.9071 11.1868 19.9068 11.3798C19.9055 12.1735 19.9055 12.9663 19.9068 13.7583L19.9071 14.5048Z" fill="white"/>
<path d="M8.91126 14.4946C8.91126 13.4319 8.91126 12.3693 8.91126 11.3066C8.91126 10.9715 9.04124 10.7022 9.35515 10.5644C9.67584 10.4236 9.99503 10.4456 10.2766 10.6693C10.5157 10.859 10.5586 11.1349 10.5589 11.4213C10.5589 12.5473 10.5589 13.6732 10.5589 14.7991C10.5589 15.7185 10.5589 16.6378 10.5589 17.557C10.5589 17.7558 10.5453 17.9531 10.4419 18.1317C10.2663 18.4357 9.8806 18.5828 9.50094 18.4863C9.14412 18.3966 8.91351 18.1041 8.91251 17.7198C8.90925 16.6453 8.91126 15.5701 8.91126 14.4946Z" fill="white"/>
<path d="M7.81352 7.93096C7.8198 6.84913 8.69303 5.98057 9.79061 6.00033C10.8059 6.01882 11.6543 6.90004 11.6475 7.95072C11.6402 9.0166 10.7705 9.8773 9.70855 9.86945C8.66618 9.8616 7.80625 8.98189 7.81352 7.93096ZM9.74092 7.65234C9.31083 7.65234 8.88048 7.65715 8.45064 7.64904C8.33998 7.64702 8.30685 7.69109 8.28879 7.78658C8.13321 8.61487 8.74046 9.43732 9.57154 9.52116C10.5564 9.62046 11.3547 8.74379 11.169 7.76759C11.1537 7.68754 11.1258 7.64828 11.0315 7.64955C10.6014 7.65588 10.1713 7.65234 9.74218 7.65234H9.74092Z" fill="white"/>
<path d="M17.168 7.93092C17.168 6.87213 18.0231 6.00332 19.068 6.00256C20.144 6.00256 21.0017 6.86074 21.0002 7.93725C20.9989 8.4491 20.797 8.93963 20.4385 9.30164C20.08 9.66364 19.5942 9.86768 19.0871 9.86915C18.8349 9.86938 18.5852 9.8194 18.3522 9.72206C18.1192 9.62473 17.9075 9.48195 17.7292 9.30191C17.5509 9.12187 17.4096 8.9081 17.3133 8.67284C17.217 8.43759 17.1676 8.18547 17.168 7.93092V7.93092ZM19.0906 7.65229C18.6562 7.65229 18.2221 7.65533 17.7878 7.64976C17.6962 7.64976 17.6623 7.68269 17.6475 7.76501C17.6058 7.98909 17.6144 8.21974 17.6726 8.44004C17.8784 9.21741 18.6575 9.67107 19.4605 9.4773C20.1882 9.30151 20.6722 8.51629 20.5191 7.76501C20.5016 7.67813 20.4705 7.649 20.3806 7.65001C19.9508 7.65507 19.5207 7.65229 19.0906 7.65229V7.65229Z" fill="white"/>
</svg>
