<svg width="100" height="63" viewBox="0 0 100 63" fill="none" xmlns="http://www.w3.org/2000/svg">
<path d="M50 62.587C77.6142 62.587 100 57.7264 100 51.7307C100 45.7349 77.6142 40.8743 50 40.8743C22.3858 40.8743 0 45.7349 0 51.7307C0 57.7264 22.3858 62.587 50 62.587Z" fill="#F0F0F0"/>
<path d="M85.9375 20.3404L70.0844 2.50194C69.3234 1.28603 68.2125 0.550903 67.0422 0.550903H32.9578C31.7875 0.550903 30.6766 1.28603 29.9156 2.50039L14.0625 20.342V34.6707H85.9375V20.3404Z" stroke="#D9D9D9" stroke-linecap="round"/>
<path d="M65.0203 25.2583C65.0203 22.7691 66.5734 20.7142 68.5 20.7126H85.9375V48.8413C85.9375 52.1339 83.875 54.8324 81.3281 54.8324H18.6719C16.125 54.8324 14.0625 52.1323 14.0625 48.8413V20.7126H31.5C33.4266 20.7126 34.9797 22.7645 34.9797 25.2537V25.2878C34.9797 27.777 36.55 29.7869 38.475 29.7869H61.525C63.45 29.7869 65.0203 27.7584 65.0203 25.2692V25.2583Z" fill="#FAFAFA" stroke="#D9D9D9" stroke-linecap="round"/>
</svg>
