<svg width="18" height="20" viewBox="0 0 18 20" fill="none" xmlns="http://www.w3.org/2000/svg">
<path d="M17 2.99976C16.4 2.99976 16 3.49976 16 4.09976V13.9998C16 14.5998 16.4 14.9998 17 15.0998C17.6 15.0998 18 14.5998 18 13.9998V4.09976C18 3.49976 17.6 2.99976 17 2.99976ZM13.4 -0.000244141H1.6C0.7 -0.000244141 0 0.699756 0 1.59976V15.3998C0 16.2998 0.7 16.9998 1.6 16.9998H3V18.9998C3 19.5998 3.4 19.9998 4 19.9998H10C10.6 19.9998 11 19.5998 11 18.9998V16.9998H13.4C14.3 16.9998 15 16.2998 15 15.3998V1.59976C15 0.699756 14.3 -0.000244141 13.4 -0.000244141ZM2 5.99976H5V7.99976H2V5.99976ZM9 8.99976V10.9998H6V8.99976H9ZM6 7.99976V5.99976H9V7.99976H6ZM9 11.9998V13.9998H6V11.9998H9ZM2 8.99976H5V10.9998H2V8.99976ZM2 13.9998V11.9998H5V13.9998H2ZM5 18.9998H4V16.9998H5V18.9998ZM10 18.9998H7V16.9998H10V18.9998ZM13 13.9998H10V11.9998H13V13.9998ZM13 10.9998H10V8.99976H13V10.9998ZM13 7.99976H10V5.99976H13V7.99976ZM13 3.99976H2V1.99976H13V3.99976Z" fill="white"/>
</svg>
