<svg width="143" height="174" viewBox="0 0 143 174" fill="none" xmlns="http://www.w3.org/2000/svg">
<g clip-path="url(#clip0)">
<path opacity="0.5" d="M95.2891 94.7481C86.9711 94.901 78.7453 92.9846 71.3499 89.1709C63.4581 85.104 56.8298 78.9518 52.184 71.3817C47.7279 64.097 45.3663 55.7231 45.3591 47.1817C45.3591 20.4568 68.0415 -0.693072 95.2891 0.0168749C121.86 0.709945 143 22.0376 143 47.5743C143 73.111 121.86 94.2688 95.2891 94.7481Z" fill="#FBFBFB"/>
<path d="M138.873 47.5575C138.873 70.9216 119.579 90.1746 95.2891 90.5661C87.7095 90.7021 80.216 88.9421 73.4881 85.4457C66.3119 81.7268 60.287 76.1169 56.0635 69.2216C52.0083 62.5934 49.8637 54.9718 49.867 47.1997C49.867 22.8477 70.4393 3.60042 95.2947 4.2001C119.579 4.78629 138.873 24.19 138.873 47.5575Z" fill="#F7F7F7"/>
<path d="M123.148 40.638L123.136 53.0469C123.134 53.6368 123.014 54.2203 122.784 54.7633C122.554 55.3064 122.218 55.7981 121.796 56.2096L111.004 66.8059C110.125 67.6625 108.947 68.1414 107.72 68.1403H91.3748C91.3748 68.1403 80.1533 78.983 73.4881 85.4457C66.312 81.7268 60.287 76.1169 56.0635 69.2215C62.7826 62.7611 74.2964 51.6608 74.2964 51.6608L74.2312 35.5716C74.2303 34.9643 74.3542 34.3632 74.5951 33.8058C74.8361 33.2484 75.189 32.7465 75.6319 32.3313L86.7859 21.7429C87.6861 20.9005 88.8791 20.4427 90.1112 20.467L103.053 20.692C103.574 20.6991 104.081 20.8568 104.515 21.146C104.949 21.4353 105.289 21.8437 105.497 22.3223C105.695 22.7927 105.747 23.3126 105.644 23.8129C105.541 24.3132 105.288 24.7704 104.92 25.1238L92.5889 36.9443C92.3286 37.1926 92.1214 37.4912 91.9798 37.822C91.8382 38.1528 91.7652 38.5089 91.7652 38.8688C91.7652 39.2287 91.8382 39.5848 91.9798 39.9156C92.1214 40.2464 92.3286 40.545 92.5889 40.7933L96.9979 45.1171L98.2153 46.3052L102.606 50.6065C103.133 51.118 103.838 51.4049 104.572 51.4068C105.306 51.4087 106.012 51.1254 106.541 50.6167L118.712 38.7895C119.083 38.4333 119.549 38.1934 120.054 38.0992C120.559 38.005 121.081 38.0608 121.554 38.2595C122.025 38.4535 122.428 38.7831 122.712 39.2065C122.996 39.63 123.148 40.1282 123.148 40.638Z" fill="#A4A7AB"/>
<path d="M76.5897 99.324C79.9712 97.4485 78.9808 86.8026 74.393 79.3206C67.8796 68.6996 53.6027 63.6298 50.6731 66.7925C47.6772 70.0294 56.2939 82.1818 57.7003 84.1564C62.7837 91.3188 72.5899 101.543 76.5897 99.324Z" fill="#1877F3"/>
<path d="M107.174 167.17C106.543 167.868 106.399 169.153 106.949 169.786C107.499 170.42 108.298 169.943 110.603 170.011C113.068 170.085 113.712 170.667 115.387 170.205C116.062 170.018 117.26 169.564 117.236 169.08C117.221 168.742 116.612 168.563 114.579 167.883C111.694 166.915 111.707 166.862 111.094 166.758C109.554 166.506 108.008 166.249 107.174 167.17Z" fill="#64676B"/>
<path d="M108.754 163.142L109.991 167.258C109.897 167.483 108.642 168.216 107.561 167.749L105.725 163.754L108.754 163.142Z" fill="#1877F3"/>
<path d="M91.5378 170.792C90.906 171.49 90.7621 172.775 91.3129 173.408C91.8638 174.042 92.6619 173.563 94.9665 173.633C97.4318 173.707 98.0759 174.29 99.751 173.828C100.425 173.64 101.624 173.187 101.601 172.703C101.584 172.365 100.976 172.187 98.9438 171.506C96.0581 170.538 96.0704 170.485 95.4589 170.381C93.9165 170.123 92.3719 169.867 91.5378 170.792Z" fill="#64676B"/>
<path d="M93.1172 166.763L94.3538 170.881C94.2605 171.106 93.0048 171.839 91.9245 171.372L90.0876 167.375L93.1172 166.763Z" fill="#1877F3"/>
<path d="M23.5547 67.4833C29.1248 65.5753 34.9707 64.598 40.858 64.5906C49.1768 64.5906 55.8499 64.5906 60.4612 68.5285C71.6512 78.0706 59.1313 100.934 65.5391 117.866C66.2417 119.72 68.2866 125.6 66.5081 131.94C66.1799 133.109 65.5054 134.122 64.3509 135.836C57.5732 145.9 38.5343 146.725 29.813 138C25.2039 133.387 21.0591 134.233 20.9478 128.971C20.5139 108.2 23.7346 87.4811 23.5547 67.4833Z" fill="#90C3FF"/>
<path style="mix-blend-mode:multiply" opacity="0.4" d="M28.3808 92.4844C26.7957 88.1415 28.4381 83.1696 24.9049 80.9992C23.6098 80.2049 22 79.8674 20.2463 79.9056C20.4565 95.1723 20.7567 110.424 21.1277 126.356C21.2502 131.618 21.9078 131.879 27.0048 136.491C32.9101 141.834 43.0804 143.579 51.8152 141.831C40.3836 134.789 32.2266 127.505 33.3957 121.257C34.756 113.982 48.0684 111.836 47.5321 106.661C46.9644 101.178 31.8455 101.978 28.3808 92.4844Z" fill="url(#paint0_linear)"/>
<path d="M27.1903 67.9569C23.3468 65.3602 14.087 71.9094 8.95514 77.6734C6.56853 80.3478 -1.73684 89.6716 0.326015 102.206C0.663266 104.249 2.21125 113.795 10.3761 118.471C17.6832 122.659 27.5601 121.581 35.4698 115.652C36.5505 114.691 37.6316 113.731 38.713 112.771L41.9034 109.319C39.3939 107.23 36.5085 105.64 33.4025 104.636C27.3229 102.672 23.3277 105.585 21.873 103.668C20.0833 101.305 25.5321 96.9095 26.9621 86.9038C27.3477 84.2002 31.4824 70.853 27.1903 67.9569Z" fill="#1877F3"/>
<path d="M33.5003 133.288C30.9608 141.56 35.6632 138.197 45.2389 133.475C55.3249 128.5 77.3732 121.359 86.8725 130.714C93.948 137.681 88.9432 148.697 99.8892 160.824C101.379 162.471 103.018 163.976 104.787 165.318L110.706 162.866C111.479 158.342 113.918 140.903 102.949 125.287C100.297 121.511 95.2532 114.261 86.6218 111.194C63.284 102.9 35.8363 125.658 33.5003 133.288Z" fill="#90C3FF"/>
<path d="M24.1832 125.569C22.5385 130.321 24.019 135.781 26.7058 139.173C32.6695 146.705 46.0572 145.913 54.4199 143.131C64.5948 139.747 66.8679 133.585 70.8688 135.099C77.0866 137.453 72.6675 152.777 83.8856 165.209C85.3746 166.857 87.0144 168.362 88.7836 169.703L94.7023 167.252C96.1918 156.717 95.1036 148.277 93.9682 142.886C92.6676 136.698 91.5018 131.165 87.149 125.824C81.7418 119.186 74.6707 116.857 70.6237 115.576C53.4666 110.163 28.455 113.225 24.1832 125.569Z" fill="#90C3FF"/>
<path d="M79.8026 112.724L33.4946 112.032L45.8088 117.981L79.9217 115.746L79.8026 112.724Z" fill="#A4A7AB"/>
<path d="M31.8601 113.264C31.8602 113.688 31.9905 114.101 32.2332 114.447C32.476 114.794 32.8194 115.058 33.217 115.203L48.0144 121.008L48.0819 116.984L33.5003 112.032C33.3092 111.976 33.1079 111.966 32.9121 112.002C32.7163 112.037 32.5315 112.118 32.3724 112.238C32.2132 112.357 32.0841 112.512 31.9952 112.69C31.9063 112.869 31.86 113.065 31.8601 113.264Z" fill="#8F9499"/>
<path d="M38.4713 111.404C38.1869 111.34 39.8563 108.012 41.1693 108.397C42.4824 108.782 48.8868 112.497 49.4691 114.022L50.0514 115.554C50.0514 115.554 47.2567 115.772 45.5233 115.189C43.7898 114.606 40.7826 111.92 38.4713 111.404Z" fill="#1877F3"/>
<path d="M49.3095 88.7422L46.0494 118.488C45.9369 119.514 47.3725 121.043 48.4023 120.995L96.2919 118.053C96.6731 118.033 97.0364 117.884 97.3223 117.631C97.6082 117.378 97.7998 117.035 97.8657 116.659L103.873 87.9299C104.053 86.8836 102.175 85.8046 101.116 85.8338L50.9316 87.2458C50.5263 87.2573 50.1388 87.4151 49.8406 87.6901C49.5425 87.9651 49.3538 88.3389 49.3095 88.7422Z" fill="#8F9499"/>
<path d="M50.4044 89.6097L47.1443 119.355C47.1179 119.597 47.144 119.841 47.221 120.071C47.2979 120.302 47.4237 120.512 47.5898 120.689C47.756 120.866 47.9584 121.005 48.1833 121.096C48.4081 121.188 48.6501 121.229 48.8924 121.217L97.379 118.924C97.7602 118.905 98.1235 118.756 98.4094 118.503C98.6953 118.25 98.8869 117.907 98.9528 117.53L103.906 88.6702C103.948 88.4251 103.935 88.1737 103.869 87.9341C103.802 87.6945 103.683 87.4728 103.52 87.2848C103.358 87.0969 103.155 86.9474 102.928 86.8473C102.7 86.7471 102.453 86.6988 102.205 86.7057L52.0255 88.1133C51.6203 88.1247 51.2329 88.2825 50.9349 88.5576C50.6369 88.8327 50.4485 89.2064 50.4044 89.6097Z" fill="#A4A7AB"/>
<path style="mix-blend-mode:multiply" opacity="0.3" d="M78.8785 111.949C74.6437 110.149 76.1389 106.727 71.1386 102.46C64.5431 96.834 57.8194 99.271 55.4654 94.9067C54.7336 93.5476 54.3828 91.4335 55.6599 88.0098L52.0255 88.1122C51.6203 88.1236 51.2329 88.2814 50.9349 88.5565C50.6369 88.8316 50.4485 89.2053 50.4044 89.6086L47.1443 119.354C47.1179 119.596 47.144 119.84 47.221 120.07C47.2979 120.3 47.4237 120.511 47.5898 120.688C47.756 120.865 47.9584 121.004 48.1833 121.095C48.4081 121.186 48.6501 121.228 48.8924 121.216L97.379 118.925C97.7602 118.905 98.1235 118.756 98.4094 118.503C98.6953 118.25 98.8869 117.907 98.9528 117.53L99.6363 113.548C97.9876 112.619 96.2054 111.95 94.3527 111.566C87.2434 110.118 83.7506 114.017 78.8785 111.949Z" fill="url(#paint1_linear)"/>
<path d="M41.6348 53.2179C41.6622 55.6359 41.4468 58.0505 40.9917 60.4254C40.6185 62.3448 40.3498 62.841 40.007 63.2382C39.4921 63.8435 38.7097 64.352 34.2928 65.4479C31.8893 66.0442 31.5802 66.0284 31.5274 66.267C31.2677 67.4315 37.8227 71.4009 44.5936 70.4445C48.7373 69.8696 52.5089 67.5068 52.2739 66.2591C52.039 65.0113 47.9009 65.6797 46.6677 63.4171C45.8088 61.8419 46.7711 59.6085 47.9043 57.7577C46.8104 55.6931 42.7364 55.287 41.6348 53.2179Z" fill="#1877F3"/>
<path d="M50.3313 57.1445C51.605 56.1319 52.2357 53.9515 51.5061 52.2784C50.8788 50.8394 49.4455 50.2836 48.5889 49.9506C46.1033 48.9875 42.5925 49.2147 40.8534 51.2816C39.8237 52.5068 40.5083 55.7888 40.5983 56.3693C40.6994 57.0275 41.1109 57.3504 41.4234 57.9085C41.8562 58.6837 42.5296 59.91 43.6189 61.9533C43.9167 61.3946 44.2632 60.8634 44.6543 60.3657C45.1604 59.717 45.748 59.1361 46.4024 58.6375C48.1617 57.356 49.1262 58.1031 50.3313 57.1445Z" fill="#232528"/>
<path d="M41.8191 60.0035C41.8191 60.0035 42.7848 63.209 46.1944 63.8638C49.2386 64.4511 51.4353 57.8309 49.8907 55.8968C49.3747 55.2533 48.1448 54.7211 47.0263 54.7413C46.3664 54.7537 46.091 54.9551 45.0118 54.954C44.0169 54.954 43.7752 54.7818 43.4379 54.945C43.0085 55.1498 42.5622 55.8102 42.6364 57.9333C42.2148 57.2031 41.5853 56.8014 41.0378 56.9038C40.848 56.9512 40.6749 57.0501 40.5376 57.1896C39.9159 57.85 40.3577 59.0168 41.8191 60.0035Z" fill="#1877F3"/>
<path d="M43.4064 54.5061C43.5189 54.6524 42.9388 55.0777 42.7072 55.8338C42.2575 57.3032 43.2951 59.478 44.788 60.0282C45.6705 60.3534 46.0617 59.8718 47.5985 60.1047C48.3487 60.2194 49.0756 60.4542 49.7512 60.8C49.7973 62.5518 48.9317 64.0628 47.6479 64.5309C46.2652 65.0361 44.8971 64.154 44.3249 63.7849C43.9427 63.5385 42.7162 62.751 42.3351 61.3367C41.9383 59.8639 42.8567 59.2777 42.244 58.192C41.936 57.6441 41.4302 57.3099 41.1098 56.3221C41.0414 56.1096 40.9891 55.8922 40.9535 55.6718C41.945 55.0518 43.2367 54.2957 43.4064 54.5061Z" fill="#232528"/>
<path d="M48.5068 61.1197C48.5068 61.1197 47.7693 61.2896 46.6654 60.9352C46.6115 60.9172 46.5474 60.9171 46.5328 60.9442C46.4799 61.0443 47.0746 61.7081 47.7851 61.6946C48.2898 61.6845 48.7721 61.3346 48.7384 61.2052C48.7238 61.1501 48.6158 61.1287 48.5068 61.1197Z" fill="url(#paint2_linear)"/>
</g>
<defs>
<linearGradient id="paint0_linear" x1="26.4461" y1="123.014" x2="51.173" y2="91.7305" gradientUnits="userSpaceOnUse">
<stop stop-color="#AA80F9"/>
<stop offset="1" stop-color="#6165D7"/>
</linearGradient>
<linearGradient id="paint1_linear" x1="47.1297" y1="104.615" x2="99.6385" y2="104.615" gradientUnits="userSpaceOnUse">
<stop stop-color="#311944"/>
<stop offset="1" stop-color="#893976"/>
</linearGradient>
<linearGradient id="paint2_linear" x1="46.826" y1="59.0345" x2="45.5185" y2="62.4645" gradientUnits="userSpaceOnUse">
<stop stop-color="#FFC444"/>
<stop offset="1" stop-color="#F36F56"/>
</linearGradient>
<clipPath id="clip0">
<rect width="143" height="174" fill="white"/>
</clipPath>
</defs>
</svg>
