<svg width="16" height="16" viewBox="0 0 16 16" fill="none" xmlns="http://www.w3.org/2000/svg">
<path d="M11.0478 5.22018C11.0478 5.14284 10.9845 5.07956 10.9072 5.07956L9.74702 5.08483L7.99975 7.16784L6.25424 5.08659L5.09233 5.08132C5.01499 5.08132 4.95171 5.14284 4.95171 5.22194C4.95171 5.25534 4.96401 5.28698 4.9851 5.31335L7.27202 8.03796L4.9851 10.7608C4.96386 10.7866 4.95208 10.8188 4.95171 10.8522C4.95171 10.9296 5.01499 10.9928 5.09233 10.9928L6.25424 10.9876L7.99975 8.90456L9.74526 10.9858L10.9054 10.9911C10.9828 10.9911 11.046 10.9296 11.046 10.8505C11.046 10.8171 11.0337 10.7854 11.0126 10.7591L8.72925 8.0362L11.0162 5.31159C11.0373 5.28698 11.0478 5.25358 11.0478 5.22018Z" fill="#E24343"/>
<path d="M8 0.125C3.65117 0.125 0.125 3.65117 0.125 8C0.125 12.3488 3.65117 15.875 8 15.875C12.3488 15.875 15.875 12.3488 15.875 8C15.875 3.65117 12.3488 0.125 8 0.125ZM8 14.5391C4.38945 14.5391 1.46094 11.6105 1.46094 8C1.46094 4.38945 4.38945 1.46094 8 1.46094C11.6105 1.46094 14.5391 4.38945 14.5391 8C14.5391 11.6105 11.6105 14.5391 8 14.5391Z" fill="#E24343"/>
</svg>
