<svg width="14" height="14" viewBox="0 0 14 14" fill="none" xmlns="http://www.w3.org/2000/svg">
<path d="M6.88638 9.65737C6.89975 9.67444 6.91682 9.68825 6.93631 9.69775C6.9558 9.70724 6.9772 9.71218 6.99888 9.71218C7.02057 9.71218 7.04196 9.70724 7.06146 9.69775C7.08095 9.68825 7.09802 9.67444 7.11138 9.65737L9.11138 7.12701C9.1846 7.03415 9.11853 6.89665 8.99888 6.89665H7.67567V0.853795C7.67567 0.775223 7.61138 0.710938 7.53281 0.710938H6.46138C6.38281 0.710938 6.31853 0.775223 6.31853 0.853795V6.89487H4.99888C4.87924 6.89487 4.81317 7.03237 4.88638 7.12522L6.88638 9.65737ZM13.5346 9.03237H12.4632C12.3846 9.03237 12.3203 9.09665 12.3203 9.17522V11.9252H1.67746V9.17522C1.67746 9.09665 1.61317 9.03237 1.5346 9.03237H0.46317C0.384598 9.03237 0.320312 9.09665 0.320312 9.17522V12.7109C0.320312 13.027 0.57567 13.2824 0.891741 13.2824H13.106C13.4221 13.2824 13.6775 13.027 13.6775 12.7109V9.17522C13.6775 9.09665 13.6132 9.03237 13.5346 9.03237Z" fill="#757575"/>
</svg>
