<svg width="24" height="18" viewBox="0 0 24 18" fill="none" xmlns="http://www.w3.org/2000/svg">
<path d="M23.5234 8.3106C20.9841 2.9615 17.1457 0.269531 12.0002 0.269531C6.85194 0.269531 3.01623 2.9615 0.47694 8.31328C0.375089 8.52895 0.322266 8.7645 0.322266 9.00301C0.322266 9.24152 0.375089 9.47708 0.47694 9.69275C3.01623 15.0419 6.85462 17.7338 12.0002 17.7338C17.1484 17.7338 20.9841 15.0419 23.5234 9.69007C23.7296 9.25614 23.7296 8.75257 23.5234 8.3106ZM12.0002 15.8052C7.67962 15.8052 4.51623 13.6142 2.28498 9.00167C4.51623 4.38917 7.67962 2.1981 12.0002 2.1981C16.3207 2.1981 19.4841 4.38917 21.7153 9.00167C19.4868 13.6142 16.3234 15.8052 12.0002 15.8052ZM11.893 4.28739C9.28944 4.28739 7.17873 6.3981 7.17873 9.00167C7.17873 11.6052 9.28944 13.716 11.893 13.716C14.4966 13.716 16.6073 11.6052 16.6073 9.00167C16.6073 6.3981 14.4966 4.28739 11.893 4.28739ZM11.893 12.0017C10.235 12.0017 8.89301 10.6597 8.89301 9.00167C8.89301 7.34364 10.235 6.00167 11.893 6.00167C13.551 6.00167 14.893 7.34364 14.893 9.00167C14.893 10.6597 13.551 12.0017 11.893 12.0017Z" fill="#757575"/>
</svg>
