<svg width="24" height="24" viewBox="0 0 24 24" fill="none" xmlns="http://www.w3.org/2000/svg">
<path d="M12 9.005C13.0608 9.005 14.0782 9.42643 14.8284 10.1766C15.5785 10.9267 16 11.9441 16 13.005C16 14.0659 15.5785 15.0833 14.8284 15.8334C14.0782 16.5836 13.0608 17.005 12 17.005C10.9391 17.005 9.92168 16.5836 9.17154 15.8334C8.42139 15.0833 7.99996 14.0659 7.99996 13.005C7.99996 11.9441 8.42139 10.9267 9.17154 10.1766C9.92168 9.42643 10.9391 9.005 12 9.005ZM12 5.5C16.613 5.5 20.596 8.65 21.701 13.064C21.7494 13.2569 21.7191 13.4612 21.6169 13.6319C21.5147 13.8025 21.3489 13.9256 21.156 13.974C20.963 14.0224 20.7587 13.9922 20.5881 13.89C20.4174 13.7878 20.2944 13.6219 20.246 13.429C19.7837 11.5918 18.7212 9.9616 17.2269 8.79704C15.7327 7.63248 13.8924 7.00028 11.9979 7.00074C10.1035 7.0012 8.26341 7.6343 6.76974 8.79958C5.27607 9.96486 4.21432 11.5956 3.75296 13.433C3.70115 13.6219 3.57748 13.7831 3.40838 13.882C3.23929 13.9809 3.0382 14.0098 2.84812 13.9623C2.65804 13.9149 2.49406 13.795 2.39125 13.6283C2.28844 13.4615 2.25495 13.2611 2.29796 13.07C2.84024 10.9075 4.08942 8.98806 5.84717 7.61657C7.60492 6.24509 9.77047 5.50013 12 5.5Z" fill="#71767B"/>
</svg>
