<svg width="40" height="40" viewBox="0 0 40 40" fill="none" xmlns="http://www.w3.org/2000/svg">
<path fill-rule="evenodd" clip-rule="evenodd" d="M20 40H10C7.34787 39.9999 4.8044 38.9463 2.92906 37.0709C1.05372 35.1956 0.000116023 32.6521 0 30L0 10C0.000116023 7.34787 1.05372 4.8044 2.92906 2.92906C4.8044 1.05372 7.34787 0.000116023 10 0L30 0C32.6522 0 35.1957 1.05357 37.0711 2.92893C38.9464 4.8043 40 7.34784 40 10V30C40 32.6522 38.9464 35.1957 37.0711 37.0711C35.1957 38.9464 32.6522 40 30 40H26.25C26.25 39.1712 25.9208 38.3763 25.3347 37.7903C24.7487 37.2042 23.9538 36.875 23.125 36.875C22.2962 36.875 21.5013 37.2042 20.9153 37.7903C20.3292 38.3763 20 39.1712 20 40Z" fill="#3764B9"/>
<path fill-rule="evenodd" clip-rule="evenodd" d="M18.75 11.25H30C31.442 11.2499 32.829 10.696 33.8744 9.70276C34.9198 8.70948 35.5439 7.35266 35.6177 5.9125C35.6915 4.47235 35.2094 3.05885 34.271 1.96391C33.3325 0.868981 32.0095 0.176239 30.575 0.02875C30.3837 0.018125 30.1944 0 30 0H10C7.34787 0.000116023 4.8044 1.05372 2.92906 2.92906C1.05372 4.8044 0.000116023 7.34787 0 10L0 30C0.000116027 25.0272 1.97559 20.2582 5.49188 16.7419C9.00816 13.2256 13.7772 11.2501 18.75 11.25" fill="#507DD2"/>
<path fill-rule="evenodd" clip-rule="evenodd" d="M30 20C28.0222 20 26.0888 20.5865 24.4443 21.6853C22.7998 22.7841 21.5181 24.3459 20.7612 26.1732C20.0043 28.0004 19.8063 30.0111 20.1922 31.9509C20.578 33.8907 21.5304 35.6725 22.9289 37.0711C24.3275 38.4696 26.1093 39.422 28.0491 39.8079C29.9889 40.1937 31.9996 39.9957 33.8268 39.2388C35.6541 38.4819 37.2159 37.2002 38.3147 35.5557C39.4135 33.9112 40 31.9778 40 30V10C40 12.6522 38.9464 15.1957 37.0711 17.0711C35.1957 18.9464 32.6522 20 30 20Z" fill="#1E4BA0"/>
<path fill-rule="evenodd" clip-rule="evenodd" d="M32.5 11.25C32.5 11.5815 32.3683 11.8995 32.1339 12.1339C31.8995 12.3683 31.5815 12.5 31.25 12.5H27.5C27.1685 12.5 26.8505 12.6317 26.6161 12.8661C26.3817 13.1005 26.25 13.4185 26.25 13.75V18.75H30.975C31.1599 18.75 31.3426 18.791 31.5097 18.8701C31.6769 18.9492 31.8244 19.0645 31.9416 19.2075C32.0589 19.3505 32.1429 19.5177 32.1877 19.6971C32.2326 19.8765 32.237 20.0637 32.2007 20.245C31.9687 21.4056 31.6534 22.9819 31.4508 23.995C31.3941 24.2784 31.241 24.5334 31.0175 24.7166C30.7941 24.8999 30.514 25 30.225 25H26.25V40H20V25H16.25C15.9185 25 15.6005 24.8683 15.3661 24.6339C15.1317 24.3995 15 24.0815 15 23.75V20C15 19.6685 15.1317 19.3505 15.3661 19.1161C15.6005 18.8817 15.9185 18.75 16.25 18.75H20V13.75C20 11.7609 20.7902 9.85322 22.1967 8.4467C23.6032 7.04018 25.5109 6.25 27.5 6.25H31.25C31.5815 6.25 31.8995 6.3817 32.1339 6.61612C32.3683 6.85054 32.5 7.16848 32.5 7.5V11.25Z" fill="white"/>
</svg>
