<svg width="60" height="60" viewBox="0 0 60 60" fill="none" xmlns="http://www.w3.org/2000/svg">
<circle cx="30" cy="30" r="30" fill="#E24343"/>
<path d="M35.4183 25.0581C35.4183 24.9206 35.3058 24.8081 35.1683 24.8081L33.1058 24.8175L29.9996 28.5206L26.8964 24.8206L24.8308 24.8112C24.6933 24.8112 24.5808 24.9206 24.5808 25.0612C24.5808 25.1206 24.6027 25.1769 24.6402 25.2237L28.7058 30.0675L24.6402 34.9081C24.6024 34.9539 24.5815 35.0112 24.5808 35.0706C24.5808 35.2081 24.6933 35.3206 24.8308 35.3206L26.8964 35.3112L29.9996 31.6081L33.1027 35.3081L35.1652 35.3175C35.3027 35.3175 35.4152 35.2081 35.4152 35.0675C35.4152 35.0081 35.3933 34.9519 35.3558 34.905L31.2964 30.0644L35.3621 25.2206C35.3996 25.1769 35.4183 25.1175 35.4183 25.0581Z" fill="white"/>
<path d="M30 16C22.2687 16 16 22.2687 16 30C16 37.7313 22.2687 44 30 44C37.7313 44 44 37.7313 44 30C44 22.2687 37.7313 16 30 16ZM30 41.625C23.5813 41.625 18.375 36.4188 18.375 30C18.375 23.5813 23.5813 18.375 30 18.375C36.4188 18.375 41.625 23.5813 41.625 30C41.625 36.4188 36.4188 41.625 30 41.625Z" fill="white"/>
</svg>
