<svg width="36" height="36" viewBox="0 0 36 36" fill="none" xmlns="http://www.w3.org/2000/svg">
<rect x="3" y="3" width="30" height="30" rx="4" fill="#70BF45"/>
<path d="M18.001 6.62598C24.2855 6.62598 29.3668 11.7202 29.3654 18.0187C29.3638 24.3025 24.2615 29.3748 17.9444 29.3714C11.7009 29.3684 6.63065 24.2499 6.63465 17.9544C6.63865 11.7102 11.7402 6.62598 18.001 6.62598ZM21.5326 20.439C21.5306 20.8096 21.5449 21.159 21.4979 21.5059C21.335 22.7062 20.7436 23.5879 19.58 24.0152C18.9047 24.2629 18.201 24.2635 17.499 24.1402C16.4091 23.9486 15.6401 23.3289 15.1564 22.3443C15.1041 22.2376 15.0484 22.1943 14.9231 22.1959C14.3558 22.2046 13.7881 22.2016 13.2208 22.1979C13.1108 22.1973 13.0758 22.2109 13.1162 22.3349C13.5171 23.5686 14.2568 24.5342 15.3804 25.1895C16.6961 25.9568 18.1217 26.1402 19.588 25.8288C21.5043 25.4222 22.7439 24.2509 23.2326 22.3343C23.4126 21.6276 23.4002 20.8993 23.4009 20.176C23.4032 17.1564 23.4019 14.1368 23.4019 11.1169C23.4019 11.0909 23.3989 11.0645 23.4026 11.0389C23.4136 10.9559 23.3776 10.9325 23.2969 10.9329C22.7399 10.9355 22.1826 10.9369 21.6256 10.9322C21.5233 10.9312 21.5216 10.9812 21.5219 11.0565C21.5243 11.4002 21.5236 11.7439 21.5216 12.0875C21.5213 12.1248 21.5449 12.1705 21.5003 12.2012C19.2527 10.2929 15.8954 10.5812 13.9721 12.7402C12.1838 14.7474 12.1545 17.7927 13.9048 19.8463C15.7978 22.0666 19.2527 22.4099 21.5326 20.439Z" fill="#FFFFFE"/>
<path d="M21.5326 20.439C19.2527 22.4099 15.7978 22.0666 13.9048 19.8457C12.1545 17.7917 12.1839 14.7465 13.9721 12.7395C15.8954 10.5806 19.2527 10.2922 21.5003 12.2005C21.545 12.1699 21.5213 12.1242 21.5216 12.0869C21.5236 11.7432 21.524 11.3995 21.522 11.0559C21.5216 10.9806 21.5233 10.9309 21.6256 10.9316C22.1826 10.9362 22.7396 10.9352 23.2969 10.9322C23.3776 10.9319 23.4139 10.9552 23.4026 11.0382C23.3993 11.0639 23.4019 11.0902 23.4019 11.1162C23.4019 14.1358 23.4033 17.1554 23.4009 20.1753C23.4003 20.8987 23.4126 21.627 23.2326 22.3336C22.7439 24.2502 21.5043 25.4215 19.588 25.8282C18.1217 26.1395 16.6964 25.9562 15.3804 25.1889C14.2568 24.5336 13.5168 23.5679 13.1162 22.3343C13.0758 22.2103 13.1108 22.1966 13.2208 22.1973C13.7882 22.201 14.3558 22.204 14.9231 22.1953C15.0485 22.1933 15.1041 22.2369 15.1565 22.3436C15.6401 23.3279 16.4091 23.9479 17.4991 24.1396C18.201 24.2629 18.9047 24.2626 19.58 24.0146C20.7436 23.5876 21.335 22.7056 21.498 21.5053C21.5453 21.1586 21.5306 20.8097 21.5326 20.439ZM14.4968 16.3341C14.4988 18.2764 16.0724 19.8457 18.0154 19.8433C19.9527 19.841 21.5276 18.2594 21.5233 16.3204C21.519 14.3855 19.9343 12.8125 17.994 12.8175C16.0638 12.8225 14.4945 14.4005 14.4968 16.3341Z" fill="#70BF45"/>
<path d="M14.4962 16.3342C14.4942 14.4005 16.0632 12.8226 17.9931 12.8176C19.9334 12.8126 21.518 14.3852 21.5224 16.3205C21.5267 18.2598 19.9518 19.8414 18.0145 19.8434C16.0715 19.8457 14.4982 18.2764 14.4962 16.3342Z" fill="#FFFFFE"/>
</svg>
