<svg width="16" height="16" viewBox="0 0 16 16" fill="none" xmlns="http://www.w3.org/2000/svg">
<path d="M13.75 4.84375H11.4438C11.6562 4.50938 11.7812 4.1125 11.7812 3.6875C11.7812 2.49844 10.8141 1.53125 9.625 1.53125C8.97813 1.53125 8.39531 1.81875 8 2.27187C7.60469 1.81875 7.02187 1.53125 6.375 1.53125C5.18594 1.53125 4.21875 2.49844 4.21875 3.6875C4.21875 4.1125 4.34219 4.50938 4.55625 4.84375H2.25C1.97344 4.84375 1.75 5.06719 1.75 5.34375V8.46875C1.75 8.5375 1.80625 8.59375 1.875 8.59375H2.5V13.9688C2.5 14.2453 2.72344 14.4688 3 14.4688H13C13.2766 14.4688 13.5 14.2453 13.5 13.9688V8.59375H14.125C14.1938 8.59375 14.25 8.5375 14.25 8.46875V5.34375C14.25 5.06719 14.0266 4.84375 13.75 4.84375ZM8.53125 3.6875C8.53125 3.08438 9.02187 2.59375 9.625 2.59375C10.2281 2.59375 10.7188 3.08438 10.7188 3.6875C10.7188 4.29063 10.2281 4.78125 9.625 4.78125H8.53125V3.6875ZM6.375 2.59375C6.97813 2.59375 7.46875 3.08438 7.46875 3.6875V4.78125H6.375C5.77187 4.78125 5.28125 4.29063 5.28125 3.6875C5.28125 3.08438 5.77187 2.59375 6.375 2.59375ZM2.8125 7.53125V5.90625H7.46875V7.53125H2.8125ZM3.5625 8.59375H7.46875V13.4062H3.5625V8.59375ZM12.4375 13.4062H8.53125V8.59375H12.4375V13.4062ZM13.1875 7.53125H8.53125V5.90625H13.1875V7.53125Z" fill="#71767B"/>
</svg>
