<svg width="22" height="20" viewBox="0 0 22 20" fill="none" xmlns="http://www.w3.org/2000/svg">
<path d="M20.6328 4.64619C20.3187 3.91878 19.8657 3.2596 19.2992 2.70556C18.7323 2.14988 18.064 1.70828 17.3305 1.40478C16.5699 1.08883 15.7541 0.927106 14.9305 0.929002C13.775 0.929002 12.6477 1.24541 11.668 1.84306C11.4336 1.98603 11.2109 2.14306 11 2.31416C10.7891 2.14306 10.5664 1.98603 10.332 1.84306C9.35234 1.24541 8.225 0.929002 7.06953 0.929002C6.2375 0.929002 5.43125 1.08838 4.66953 1.40478C3.93359 1.70947 3.27031 2.14775 2.70078 2.70556C2.13359 3.25898 1.6805 3.91831 1.36719 4.64619C1.04141 5.40322 0.875 6.20713 0.875 7.03447C0.875 7.81494 1.03438 8.62822 1.35078 9.45556C1.61563 10.147 1.99531 10.8642 2.48047 11.5884C3.24922 12.7345 4.30625 13.9298 5.61875 15.1415C7.79375 17.1501 9.94766 18.5376 10.0391 18.5938L10.5945 18.9501C10.8406 19.1071 11.157 19.1071 11.4031 18.9501L11.9586 18.5938C12.05 18.5353 14.2016 17.1501 16.3789 15.1415C17.6914 13.9298 18.7484 12.7345 19.5172 11.5884C20.0023 10.8642 20.3844 10.147 20.6469 9.45556C20.9633 8.62822 21.1227 7.81494 21.1227 7.03447C21.125 6.20713 20.9586 5.40322 20.6328 4.64619ZM11 17.0962C11 17.0962 2.65625 11.7501 2.65625 7.03447C2.65625 4.64619 4.63203 2.71025 7.06953 2.71025C8.78281 2.71025 10.2688 3.6665 11 5.06338C11.7312 3.6665 13.2172 2.71025 14.9305 2.71025C17.368 2.71025 19.3438 4.64619 19.3438 7.03447C19.3438 11.7501 11 17.0962 11 17.0962Z" fill="#F5222D"/>
</svg>
