<svg width="14" height="11" viewBox="0 0 14 11" fill="none" xmlns="http://www.w3.org/2000/svg">
<path fill-rule="evenodd" clip-rule="evenodd" d="M13.8694 5.71826L13.0737 4.69343L11.7793 2.11912C11.6835 1.92877 11.4886 1.8086 11.2754 1.8086H9.56177V1.5083C9.56177 1.19685 9.30934 0.944458 8.99793 0.944458H1.78941C1.47797 0.944458 1.22557 1.19689 1.22557 1.5083C1.22557 1.81971 1.478 2.07214 1.78941 2.07214H8.43406V4.96837C8.43406 5.27981 8.6865 5.53221 8.9979 5.53221H12.2972L12.8601 6.25725V8.31151H12.2753C12.0404 7.5527 11.3323 6.99978 10.4968 6.99978C9.66159 6.99978 8.95368 7.5523 8.71847 8.3107H6.36422C6.129 7.5523 5.42109 6.99978 4.58591 6.99978C3.75072 6.99978 3.04281 7.5523 2.80759 8.3107H1.78941C1.47796 8.3107 1.22557 8.56313 1.22557 8.87454C1.22557 9.18598 1.478 9.43838 1.78941 9.43838H2.81611C3.0595 10.183 3.76054 10.7226 4.58591 10.7226C5.41126 10.7226 6.11229 10.183 6.3557 9.43841H8.72699C8.97039 10.183 9.67142 10.7226 10.4968 10.7226C11.322 10.7226 12.0227 10.1834 12.2663 9.4392H13.4239C13.7354 9.4392 13.9878 9.18676 13.9878 8.87537V6.06409C13.9878 5.93891 13.946 5.81711 13.8694 5.71826ZM11.6659 4.40452H9.56177V2.93631H10.9277L11.6659 4.40452ZM4.58591 9.59485C4.18887 9.59485 3.86435 9.27769 3.85256 8.88347C3.85258 8.88238 3.85259 8.8813 3.8526 8.88021C3.85262 8.87832 3.85263 8.87643 3.85263 8.87454C3.85263 8.86767 3.85251 8.86083 3.85226 8.85401C3.85611 8.45279 4.18379 8.12749 4.58591 8.12749C4.9903 8.12749 5.31958 8.45667 5.31958 8.86117C5.31958 9.26571 4.99042 9.59485 4.58591 9.59485ZM10.4968 9.59485C10.0923 9.59485 9.7631 9.26568 9.7631 8.86117C9.7631 8.45666 10.0923 8.12749 10.4968 8.12749C10.9013 8.12749 11.2305 8.45666 11.2305 8.86117C11.2305 9.26571 10.9013 9.59485 10.4968 9.59485ZM3.25996 6.11814H1.2704C0.958952 6.11814 0.706555 6.37057 0.706555 6.68198C0.706555 6.99342 0.95899 7.24582 1.2704 7.24582H3.25993C3.57137 7.24582 3.82377 6.99338 3.82378 6.68198C3.8238 6.37056 3.57137 6.11814 3.25996 6.11814ZM4.25452 4.41797H0.563751C0.252332 4.41797 -9.15527e-05 4.67041 -9.15527e-05 4.98184C-9.15527e-05 5.29329 0.252343 5.54568 0.563751 5.54568H4.25452C4.56596 5.54568 4.81836 5.29325 4.81836 4.98184C4.81836 4.67044 4.56597 4.41797 4.25452 4.41797ZM4.96118 2.71686H1.27041C0.958967 2.71686 0.70657 2.9693 0.70657 3.28071C0.70657 3.59215 0.959005 3.84455 1.27041 3.84455H4.96118C5.27262 3.84455 5.52501 3.59211 5.52502 3.28071C5.52505 2.96928 5.27261 2.71686 4.96118 2.71686Z" fill="#757575"/>
</svg>
