<svg width="20" height="20" viewBox="0 0 20 20" fill="none" xmlns="http://www.w3.org/2000/svg">
<path d="M5 6C5 4.93913 5.42143 3.92172 6.17157 3.17157C6.92172 2.42143 7.93913 2 9 2C10.0609 2 11.0783 2.42143 11.8284 3.17157C12.5786 3.92172 13 4.93913 13 6C13 7.06087 12.5786 8.07828 11.8284 8.82843C11.0783 9.57857 10.0609 10 9 10C7.93913 10 6.92172 9.57857 6.17157 8.82843C5.42143 8.07828 5 7.06087 5 6ZM9 3C8.20435 3 7.44129 3.31607 6.87868 3.87868C6.31607 4.44129 6 5.20435 6 6C6 6.79565 6.31607 7.55871 6.87868 8.12132C7.44129 8.68393 8.20435 9 9 9C9.79565 9 10.5587 8.68393 11.1213 8.12132C11.6839 7.55871 12 6.79565 12 6C12 5.20435 11.6839 4.44129 11.1213 3.87868C10.5587 3.31607 9.79565 3 9 3ZM2 13C2 11.887 2.903 11 4.009 11H14C14.2801 10.9998 14.557 11.0584 14.813 11.172C14.7014 11.6138 14.7365 12.0799 14.913 12.5H14.866C14.7782 12.348 14.652 12.2217 14.5 12.134C14.348 12.0462 14.1755 12 14 12H4.009C3.448 12 3 12.447 3 13C3 14.309 3.622 15.284 4.673 15.953C5.743 16.636 7.265 17 9 17C9.962 17 10.858 16.888 11.648 16.672C11.514 17.0093 11.4699 17.3756 11.52 17.735C10.731 17.913 9.88 18 9 18C7.145 18 5.417 17.614 4.135 16.797C2.833 15.967 2 14.69 2 13Z" fill="#222222"/>
<path d="M16.7347 10.6095L16.3358 11.5505H16.3348L16.2978 11.6545C16.2389 11.8436 16.2336 12.0454 16.2823 12.2374C16.331 12.4294 16.4319 12.6042 16.5738 12.7425L17.4528 13.5775L17.4228 13.7915C17.3498 14.2175 17.1908 14.6375 16.9497 15.0525C16.6688 15.5375 16.3168 15.9375 15.8958 16.2575L14.8388 15.9045L14.7388 15.8775C14.5529 15.8396 14.36 15.8584 14.185 15.9313C14.0099 16.0042 13.8608 16.1279 13.7568 16.2865L13.1848 17.1265L13.1288 17.2185C13.0202 17.4202 12.9787 17.6513 13.0103 17.8783C13.042 18.1052 13.1451 18.3161 13.3048 18.4805L13.6848 18.8615L13.7818 18.9515C14.1518 19.2625 14.6438 19.3655 15.1018 19.2225C16.2808 18.8545 17.3637 17.7635 18.3527 15.9475C19.3438 14.1295 19.6927 12.5865 19.4017 11.3195C19.2787 10.7865 18.8998 10.3625 18.4038 10.2035L17.9038 10.0435L17.8098 10.0195C17.3698 9.92748 16.9217 10.1675 16.7347 10.6095Z" fill="#FCAF17"/>
</svg>
