<svg id="Component_120_20" data-name="Component 120 – 20" xmlns="http://www.w3.org/2000/svg" width="24" height="24" viewBox="0 0 24 24">
    <rect id="Rectangle_204" data-name="Rectangle 204" width="24" height="24" fill="rgba(255,255,255,0)"/>
    <g id="vuesax_linear_medal-star" data-name="vuesax/linear/medal-star" transform="translate(-682.011 -250.011)">
      <g id="medal-star" transform="translate(684 252)">
        <path id="Vector" d="M11.68,5.84A5.8,5.8,0,0,1,6.716,11.6a5.148,5.148,0,0,1-1.752,0A5.836,5.836,0,1,1,11.68,5.84Z" transform="translate(4.171 1.669)" fill="none" stroke="#fff" stroke-linecap="round" stroke-linejoin="round" stroke-width="1"/>
        <path id="Vector-2" data-name="Vector" d="M16.077,4.647,14.7,4.972a.819.819,0,0,0-.617.617l-.292,1.226a.835.835,0,0,1-1.452.342L8.36,2.586l-3.98,4.58a.835.835,0,0,1-1.452-.342L2.637,5.6a.831.831,0,0,0-.617-.617L.643,4.655a.837.837,0,0,1-.4-1.4L3.5,0A5.828,5.828,0,0,0,7.484,2.52a5.032,5.032,0,0,0,.876.075,5.032,5.032,0,0,0,.876-.075A5.828,5.828,0,0,0,13.224,0l3.254,3.254A.831.831,0,0,1,16.077,4.647Z" transform="translate(1.651 10.762)" fill="none" stroke="#fff" stroke-linecap="round" stroke-linejoin="round" stroke-width="1"/>
        <path id="Vector-3" data-name="Vector" d="M3.249.4l.492.984a.6.6,0,0,0,.4.292l.893.15c.567.092.7.509.292.918l-.692.692a.591.591,0,0,0-.142.509l.2.859c.159.676-.2.943-.8.584L3.057,4.9a.585.585,0,0,0-.551,0l-.834.492c-.6.35-.959.092-.8-.584l.2-.859A.626.626,0,0,0,.93,3.437L.237,2.745c-.409-.409-.275-.818.292-.918l.893-.15a.608.608,0,0,0,.392-.292L2.306.4C2.548-.133,2.982-.133,3.249.4Z" transform="translate(7.246 4.589)" fill="none" stroke="#fff" stroke-linecap="round" stroke-linejoin="round" stroke-width="1"/>
        <path id="Vector-4" data-name="Vector" d="M0,0H20.023V20.023H0Z" fill="none" opacity="0"/>
      </g>
    </g>
  </svg>
  