<svg xmlns="http://www.w3.org/2000/svg" width="18" height="18" viewBox="0 0 18 18">
  <g id="vuesax_linear_medal-star" data-name="vuesax/linear/medal-star" transform="translate(-684 -252)">
    <g id="medal-star" transform="translate(684 252)">
      <path id="Vector" d="M10.5,5.25a5.215,5.215,0,0,1-4.463,5.183,4.628,4.628,0,0,1-1.575,0A5.246,5.246,0,1,1,10.5,5.25Z" transform="translate(3.75 1.5)" fill="none" stroke="#fff" stroke-linecap="round" stroke-linejoin="round" stroke-width="1"/>
      <path id="Vector-2" data-name="Vector" d="M14.453,4.178l-1.238.292a.736.736,0,0,0-.555.555l-.263,1.1a.75.75,0,0,1-1.3.308L7.515,2.325,3.938,6.442a.75.75,0,0,1-1.305-.308l-.262-1.1a.747.747,0,0,0-.555-.555L.578,4.185a.752.752,0,0,1-.36-1.26L3.143,0A5.239,5.239,0,0,0,6.728,2.265a4.524,4.524,0,0,0,.787.067A4.524,4.524,0,0,0,8.3,2.265,5.239,5.239,0,0,0,11.888,0l2.925,2.925A.747.747,0,0,1,14.453,4.178Z" transform="translate(1.485 9.675)" fill="none" stroke="#fff" stroke-linecap="round" stroke-linejoin="round" stroke-width="1"/>
      <path id="Vector-3" data-name="Vector" d="M2.921.36l.443.885a.543.543,0,0,0,.36.263l.8.135c.51.082.63.458.262.825l-.622.622a.531.531,0,0,0-.128.458l.18.772c.142.607-.18.847-.72.525L2.748,4.4a.526.526,0,0,0-.5,0l-.75.442c-.54.315-.862.083-.72-.525l.18-.772A.563.563,0,0,0,.836,3.09L.213,2.467c-.367-.367-.248-.735.262-.825l.8-.135a.547.547,0,0,0,.352-.263L2.073.36C2.291-.12,2.681-.12,2.921.36Z" transform="translate(6.514 4.125)" fill="none" stroke="#fff" stroke-linecap="round" stroke-linejoin="round" stroke-width="1"/>
      <path id="Vector-4" data-name="Vector" d="M0,0H18V18H0Z" fill="none" opacity="0"/>
    </g>
  </g>
</svg>
