<svg width="18" height="18" viewBox="0 0 18 18" fill="none" xmlns="http://www.w3.org/2000/svg">
<path fill-rule="evenodd" clip-rule="evenodd" d="M16.1893 2.4777H10.4912V1.13501L1.125 2.58063V15.2521L10.4912 16.8653V14.8752H16.1893C16.3619 14.8839 16.5309 14.824 16.6594 14.7085C16.7879 14.5929 16.8654 14.4312 16.875 14.2587V3.09363C16.8653 2.92121 16.7877 2.75964 16.6592 2.64423C16.5307 2.52882 16.3618 2.46895 16.1893 2.4777ZM16.2793 14.3611H10.4721L10.4625 13.2985H11.8614V12.061H10.4518L10.4451 11.3298H11.8614V10.0923H10.4344L10.4276 9.36101H11.8614V8.12351H10.4231V7.39226H11.8614V6.15476H10.4231V5.42351H11.8614V4.18601H10.4231V3.06101H16.2793V14.3611Z" fill="#27AE60"/>
<path d="M12.6489 4.18433H15.0806V5.42183H12.6489V4.18433Z" fill="#27AE60"/>
<path d="M12.6489 6.15381H15.0806V7.39131H12.6489V6.15381Z" fill="#27AE60"/>
<path d="M12.6489 8.12305H15.0806V9.36055H12.6489V8.12305Z" fill="#27AE60"/>
<path d="M12.6489 10.0923H15.0806V11.3298H12.6489V10.0923Z" fill="#27AE60"/>
<path d="M12.6489 12.0618H15.0806V13.2993H12.6489V12.0618Z" fill="#27AE60"/>
<path fill-rule="evenodd" clip-rule="evenodd" d="M3.5703 6.00349L4.77742 5.9343L5.53623 8.02062L6.43286 5.84824L7.63998 5.77905L6.17411 8.74118L7.63998 11.7106L6.36367 11.6246L5.50192 9.36105L4.63961 11.5385L3.4668 11.435L4.82917 8.81205L3.5703 6.00349Z" fill="white"/>
</svg>
