<svg width="40" height="40" viewBox="0 0 40 40" fill="none" xmlns="http://www.w3.org/2000/svg">
<rect width="40" height="40" rx="3" fill="#F4F4F7"/>
<path fill-rule="evenodd" clip-rule="evenodd" d="M23.2271 13.0624H16.7381C14.4791 13.0624 13.0624 14.6629 13.0624 16.9279V23.0374C13.0624 25.3024 14.4731 26.9029 16.7381 26.9029H23.2234C25.4921 26.9029 26.9021 25.3024 26.9021 23.0374V16.9279C26.9051 14.6629 25.4944 13.0624 23.2271 13.0624Z" stroke="#BBB6D2" stroke-linecap="round" stroke-linejoin="round"/>
<path fill-rule="evenodd" clip-rule="evenodd" d="M19.0274 17.5887C19.0274 18.3537 18.4079 18.9732 17.6429 18.9732C16.8787 18.9732 16.2584 18.3537 16.2584 17.5887C16.2584 16.8237 16.8787 16.2042 17.6429 16.2042C18.4072 16.205 19.0267 16.8245 19.0274 17.5887Z" stroke="#BBB6D2" stroke-linecap="round" stroke-linejoin="round"/>
<path d="M26.9053 22.2133C26.213 21.5008 24.8818 20.0615 23.4343 20.0615C21.986 20.0615 21.1512 23.2363 19.7585 23.2363C18.3657 23.2363 17.1005 21.8008 15.9845 22.721C14.8685 23.6405 13.8125 25.5208 13.8125 25.5208" stroke="#BBB6D2" stroke-linecap="round" stroke-linejoin="round"/>
</svg>
