<svg width="14" height="14" viewBox="0 0 14 14" fill="none" xmlns="http://www.w3.org/2000/svg">
<path d="M4.99888 3.53606H6.31853V9.57713C6.31853 9.65571 6.38281 9.71999 6.46138 9.71999H7.53281C7.61138 9.71999 7.67567 9.65571 7.67567 9.57713V3.53606H8.99888C9.11853 3.53606 9.1846 3.39856 9.11138 3.30571L7.11138 0.773562C7.09802 0.756488 7.08095 0.742679 7.06146 0.733182C7.04196 0.723685 7.02057 0.71875 6.99888 0.71875C6.9772 0.71875 6.9558 0.723685 6.93631 0.733182C6.91682 0.742679 6.89975 0.756488 6.88638 0.773562L4.88638 3.30392C4.81317 3.39856 4.87924 3.53606 4.99888 3.53606ZM13.5346 9.04142H12.4632C12.3846 9.04142 12.3203 9.10571 12.3203 9.18428V11.9343H1.67746V9.18428C1.67746 9.10571 1.61317 9.04142 1.5346 9.04142H0.46317C0.384598 9.04142 0.320312 9.10571 0.320312 9.18428V12.72C0.320312 13.0361 0.57567 13.2914 0.891741 13.2914H13.106C13.4221 13.2914 13.6775 13.0361 13.6775 12.72V9.18428C13.6775 9.10571 13.6132 9.04142 13.5346 9.04142Z" fill="#757575"/>
</svg>
