<svg width="16" height="16" viewBox="0 0 16 16" fill="none" xmlns="http://www.w3.org/2000/svg">
<path d="M14.7194 12.3799H13.7587C13.6837 12.3799 13.6212 12.4424 13.6212 12.5174V13.621H2.37651V2.37455H13.6229V3.47813C13.6229 3.55313 13.6854 3.61563 13.7604 3.61563H14.7212C14.7962 3.61563 14.8587 3.55491 14.8587 3.47813V1.68884C14.8587 1.38527 14.614 1.14062 14.3104 1.14062H1.69079C1.38722 1.14062 1.14258 1.38527 1.14258 1.68884V14.3067C1.14258 14.6103 1.38722 14.8549 1.69079 14.8549H14.3087C14.6122 14.8549 14.8569 14.6103 14.8569 14.3067V12.5174C14.8569 12.4406 14.7944 12.3799 14.7194 12.3799ZM14.964 7.35491H9.35687V5.99777C9.35687 5.87813 9.21758 5.81027 9.12472 5.88527L6.59079 7.88527C6.57372 7.89863 6.55991 7.91571 6.55041 7.9352C6.54092 7.95469 6.53598 7.97609 6.53598 7.99777C6.53598 8.01945 6.54092 8.04085 6.55041 8.06034C6.55991 8.07983 6.57372 8.09691 6.59079 8.11027L9.12472 10.1103C9.21937 10.1853 9.35687 10.1174 9.35687 9.99777V8.64063H14.964C15.0426 8.64063 15.1069 8.57634 15.1069 8.49777V7.49777C15.1069 7.4192 15.0426 7.35491 14.964 7.35491Z" fill="#757575"/>
</svg>
