<svg width="14" height="14" viewBox="0 0 14 14" fill="none" xmlns="http://www.w3.org/2000/svg">
<path d="M13.714 12.0006H1.42829V0.857701C1.42829 0.779129 1.36401 0.714844 1.28544 0.714844H0.285435C0.206864 0.714844 0.142578 0.779129 0.142578 0.857701V13.1434C0.142578 13.222 0.206864 13.2863 0.285435 13.2863H13.714C13.7926 13.2863 13.8569 13.222 13.8569 13.1434V12.1434C13.8569 12.0648 13.7926 12.0006 13.714 12.0006ZM3.31758 9.2452C3.37294 9.30056 3.46222 9.30056 3.51936 9.2452L5.98901 6.78806L8.26758 9.08092C8.32294 9.13627 8.41401 9.13627 8.46937 9.08092L13.3872 4.16484C13.4426 4.10949 13.4426 4.01842 13.3872 3.96306L12.6801 3.25592C12.6532 3.22933 12.617 3.21442 12.5792 3.21442C12.5414 3.21442 12.5051 3.22933 12.4783 3.25592L8.37115 7.36127L6.09615 5.07199C6.0693 5.0454 6.03304 5.03049 5.99526 5.03049C5.95747 5.03049 5.92122 5.0454 5.89437 5.07199L2.61222 8.33449C2.58564 8.36134 2.57072 8.39759 2.57072 8.43538C2.57072 8.47316 2.58564 8.50942 2.61222 8.53627L3.31758 9.2452Z" fill="#FCAF17"/>
</svg>
