<svg width="16" height="16" viewBox="0 0 16 16" fill="none" xmlns="http://www.w3.org/2000/svg">
<path d="M15.0712 10.2857H13.214V7.57143C13.214 7.49286 13.1497 7.42857 13.0712 7.42857H8.64258V5.71429H10.5712C10.7283 5.71429 10.8569 5.58571 10.8569 5.42857V0.285714C10.8569 0.128571 10.7283 0 10.5712 0H5.42829C5.27115 0 5.14258 0.128571 5.14258 0.285714V5.42857C5.14258 5.58571 5.27115 5.71429 5.42829 5.71429H7.35686V7.42857H2.92829C2.84972 7.42857 2.78544 7.49286 2.78544 7.57143V10.2857H0.928292C0.77115 10.2857 0.642578 10.4143 0.642578 10.5714V15.7143C0.642578 15.8714 0.77115 16 0.928292 16H6.07115C6.22829 16 6.35686 15.8714 6.35686 15.7143V10.5714C6.35686 10.4143 6.22829 10.2857 6.07115 10.2857H4.07115V8.71429H11.9283V10.2857H9.92829C9.77115 10.2857 9.64258 10.4143 9.64258 10.5714V15.7143C9.64258 15.8714 9.77115 16 9.92829 16H15.0712C15.2283 16 15.3569 15.8714 15.3569 15.7143V10.5714C15.3569 10.4143 15.2283 10.2857 15.0712 10.2857ZM4.99972 11.6429V14.6429H1.99972V11.6429H4.99972ZM6.49972 4.35714V1.35714H9.49972V4.35714H6.49972ZM13.9997 14.6429H10.9997V11.6429H13.9997V14.6429Z" fill="#2A2A86"/>
</svg>
