<svg width="19" height="20" viewBox="0 0 21 20" fill="none" xmlns="http://www.w3.org/2000/svg">
<path d="M17.6548 8.93127H16.1369V3.93127C16.1369 2.35315 14.8579 1.07413 13.2798 1.07413H7.74409C6.16596 1.07413 4.88694 2.35315 4.88694 3.93127V8.93127H3.36909C2.974 8.93127 2.6548 9.25047 2.6548 9.64556V18.217C2.6548 18.6121 2.974 18.9313 3.36909 18.9313H17.6548C18.0499 18.9313 18.3691 18.6121 18.3691 18.217V9.64556C18.3691 9.25047 18.0499 8.93127 17.6548 8.93127ZM6.49409 3.93127C6.49409 3.24154 7.05435 2.68127 7.74409 2.68127H13.2798C13.9695 2.68127 14.5298 3.24154 14.5298 3.93127V8.93127H6.49409V3.93127ZM16.7619 17.3241H4.26194V10.5384H16.7619V17.3241ZM9.88694 14.2214V15.4045C9.88694 15.5027 9.9673 15.5831 10.0655 15.5831H10.9584C11.0566 15.5831 11.1369 15.5027 11.1369 15.4045V14.2214C11.3212 14.0892 11.4587 13.9018 11.5297 13.6864C11.6007 13.471 11.6016 13.2386 11.5321 13.0226C11.4626 12.8067 11.3264 12.6184 11.1431 12.4848C10.9597 12.3512 10.7388 12.2793 10.5119 12.2793C10.2851 12.2793 10.0641 12.3512 9.88082 12.4848C9.6975 12.6184 9.5613 12.8067 9.49181 13.0226C9.42233 13.2386 9.42315 13.471 9.49415 13.6864C9.56516 13.9018 9.70269 14.0892 9.88694 14.2214Z" fill="#666666" fill-opacity="0.85"/>
</svg>
