<svg width="20" height="20" viewBox="0 0 36 36" fill="none" xmlns="http://www.w3.org/2000/svg">
<path d="M30.8574 16.0763H28.1253V7.0763C28.1253 4.23567 25.823 1.93344 22.9824 1.93344H13.0181C10.1775 1.93344 7.87528 4.23567 7.87528 7.0763V16.0763H5.14314C4.43198 16.0763 3.85742 16.6509 3.85742 17.362V32.7906C3.85742 33.5017 4.43198 34.0763 5.14314 34.0763H30.8574C31.5686 34.0763 32.1431 33.5017 32.1431 32.7906V17.362C32.1431 16.6509 31.5686 16.0763 30.8574 16.0763ZM10.7681 7.0763C10.7681 5.83478 11.7766 4.8263 13.0181 4.8263H22.9824C24.2239 4.8263 25.2324 5.83478 25.2324 7.0763V16.0763H10.7681V7.0763ZM29.2503 31.1834H6.75028V18.9692H29.2503V31.1834ZM16.8753 25.5986V27.7281C16.8753 27.9049 17.0199 28.0495 17.1967 28.0495H18.8039C18.9806 28.0495 19.1253 27.9049 19.1253 27.7281V25.5986C19.4569 25.3605 19.7045 25.0233 19.8323 24.6355C19.9601 24.2478 19.9616 23.8294 19.8365 23.4408C19.7114 23.0521 19.4663 22.7132 19.1363 22.4727C18.8063 22.2323 18.4086 22.1027 18.0003 22.1027C17.592 22.1027 17.1942 22.2323 16.8643 22.4727C16.5343 22.7132 16.2891 23.0521 16.164 23.4408C16.039 23.8294 16.0404 24.2478 16.1683 24.6355C16.2961 25.0233 16.5436 25.3605 16.8753 25.5986Z" fill="#222222" fill-opacity="0.85"/>
</svg>
