<svg width="74" height="35" viewBox="0 0 74 35" fill="none" xmlns="http://www.w3.org/2000/svg">
    <path d="M27.4162 21.7593C26.5641 21.7611 25.7296 21.5144 25.0135 21.049C24.2974 20.5835 23.7301 19.9192 23.38 19.136C23.03 18.3528 22.9122 17.4843 23.0408 16.6352C23.1694 15.786 23.5389 14.9925 24.1047 14.3503C24.6706 13.7081 25.4087 13.2446 26.23 13.0158C27.0513 12.7869 27.9207 12.8024 28.7334 13.0605C29.5462 13.3185 30.2675 13.808 30.8104 14.4701C31.3534 15.1321 31.6948 15.9383 31.7935 16.7915H36.2284C36.0953 14.4747 35.0717 12.3015 33.3748 10.7332C31.678 9.16501 29.4416 8.3253 27.1406 8.39241C24.8395 8.45951 22.655 9.42816 21.0509 11.0927C19.4469 12.7572 18.5496 14.9864 18.5496 17.3071C18.5496 19.6277 19.4469 21.857 21.0509 23.5215C22.655 25.1859 24.8395 26.1546 27.1406 26.2217C29.4416 26.2888 31.678 25.4491 33.3748 23.8809C35.0717 22.3126 36.0953 20.1394 36.2284 17.8226H31.8096C31.6841 18.908 31.167 19.9089 30.3569 20.6348C29.5467 21.3607 28.5001 21.7609 27.4162 21.7593Z" fill="#2A2A86"/>
    <path d="M12.8832 8.90723V17.6514C12.8832 19.9391 10.8673 21.7924 8.59801 21.7924C6.3287 21.7924 4.2944 19.9321 4.2944 17.6514V8.90723H0V17.6514C-4.0552e-08 18.7896 0.222411 19.9165 0.654529 20.968C1.08665 22.0195 1.72001 22.9748 2.51844 23.7795C3.31687 24.5842 4.26472 25.2224 5.30787 25.6577C6.35101 26.093 7.46901 26.317 8.59801 26.3167C10.2361 26.3167 11.4963 25.8963 12.8832 24.6166V26.3422C12.8832 28.6299 11.0954 30.4832 8.59801 30.4832C6.10062 30.4832 4.117 28.6252 4.117 26.3422H0C0.0369271 28.6161 0.958904 30.7843 2.56711 32.3792C4.17531 33.9741 6.3409 34.8679 8.59685 34.8679C10.8528 34.8679 13.0184 33.9741 14.6266 32.3792C16.2348 30.7843 17.1568 28.6161 17.1937 26.3422V8.92348L12.8832 8.90723Z" fill="#2A2A86"/>
    <path d="M69.6895 8.90723V17.6514C69.6895 19.9391 67.6737 21.7924 65.4044 21.7924C63.1351 21.7924 61.1008 19.9344 61.1008 17.6514V8.90723H56.8064V17.6514C56.8064 18.7896 57.0288 19.9165 57.4609 20.968C57.893 22.0195 58.5264 22.9748 59.3248 23.7795C60.1232 24.5842 61.0711 25.2224 62.1142 25.6577C63.1574 26.093 64.2754 26.317 65.4044 26.3167C67.0424 26.3167 68.3026 25.8963 69.6895 24.6166V26.3422C69.6895 28.6299 67.9018 30.4832 65.4044 30.4832C62.907 30.4832 60.9234 28.6252 60.9234 26.3422H56.8064C56.8433 28.6161 57.7653 30.7843 59.3735 32.3792C60.9817 33.9741 63.1473 34.8679 65.4032 34.8679C67.6592 34.8679 69.8247 33.9741 71.4329 32.3792C73.0412 30.7843 73.9631 28.6161 74.0001 26.3422V8.92348L69.6895 8.90723Z" fill="#FCAF17"/>
    <path d="M50.7383 0V9.91938C49.4245 8.94409 47.8381 8.41319 46.2066 8.40279C41.5988 8.40279 37.8528 12.1188 37.5947 16.794H42.0089C42.1392 15.6604 42.6945 14.62 43.561 13.8858C44.4276 13.1516 45.5399 12.7793 46.67 12.845C47.8001 12.9108 48.8624 13.4097 49.6395 14.2395C50.4165 15.0693 50.8493 16.1673 50.8493 17.3084C50.8493 18.4495 50.4165 19.5475 49.6395 20.3773C48.8624 21.2071 47.8001 21.706 46.67 21.7718C45.5399 21.8375 44.4276 21.4652 43.561 20.731C42.6945 19.9968 42.1392 18.9564 42.0089 17.8228H37.5947C37.8551 22.5003 41.6104 26.2117 46.2066 26.2117C47.851 26.1819 49.4457 25.6382 50.7705 24.6556L51.3972 26.0073H55.0626V0H50.7383Z" fill="#FCAF17"/>
</svg>
