<svg width="14" height="14" viewBox="0 0 14 14" fill="none" xmlns="http://www.w3.org/2000/svg">
<path fill-rule="evenodd" clip-rule="evenodd" d="M6.99967 0.333008C6.53942 0.333008 6.16634 0.706108 6.16634 1.16634V6.16634H1.16634C0.706108 6.16634 0.333008 6.53942 0.333008 6.99967C0.333008 7.45992 0.706108 7.83301 1.16634 7.83301H6.16634V12.833C6.16634 13.2933 6.53942 13.6663 6.99967 13.6663C7.45992 13.6663 7.83301 13.2933 7.83301 12.833V7.83301H12.833C13.2933 7.83301 13.6663 7.45992 13.6663 6.99967C13.6663 6.53942 13.2933 6.16634 12.833 6.16634H7.83301V1.16634C7.83301 0.706108 7.45992 0.333008 6.99967 0.333008Z" fill="white"/>
</svg>
