<svg width="18" height="18" viewBox="0 0 18 18" fill="none" xmlns="http://www.w3.org/2000/svg">
<path fill-rule="evenodd" clip-rule="evenodd" d="M8.99106 1.89844C7.01255 1.89844 5.42335 3.61765 5.42335 5.75802C5.42335 7.89901 7.01242 9.61836 8.99106 9.61836C10.9697 9.61836 12.5588 7.89901 12.5588 5.75802C12.5588 3.61765 10.9696 1.89844 8.99106 1.89844ZM8.99092 3.15459C10.328 3.15459 11.3973 4.31133 11.3973 5.75786C11.3973 7.20506 10.3281 8.3619 8.99092 8.3619C7.65369 8.3619 6.58451 7.20506 6.58451 5.75786C6.58451 4.31133 7.65378 3.15459 8.99092 3.15459ZM4.61857 2.68725C4.93925 2.68725 5.19921 2.96848 5.19921 3.3154C5.19921 3.66232 4.93925 3.94356 4.61857 3.94356C3.69853 3.94356 2.95236 4.75042 2.95236 5.74531C2.95236 6.74019 3.69853 7.54706 4.61857 7.54706C4.93925 7.54706 5.19921 7.82829 5.19921 8.17521C5.19921 8.52213 4.93925 8.80336 4.61857 8.80336C3.05728 8.80336 1.79106 7.43415 1.79106 5.74531C1.79106 4.05646 3.05728 2.68725 4.61857 2.68725ZM16.1987 5.74531C16.1987 4.05646 14.9325 2.68725 13.3712 2.68725C13.0505 2.68725 12.7905 2.96848 12.7905 3.3154C12.7905 3.66232 13.0505 3.94356 13.3712 3.94356C14.2912 3.94356 15.0374 4.75042 15.0374 5.74531C15.0374 6.74019 14.2912 7.54706 13.3712 7.54706C13.0505 7.54706 12.7905 7.82829 12.7905 8.17521C12.7905 8.52213 13.0505 8.80336 13.3712 8.80336C14.9325 8.80336 16.1987 7.43415 16.1987 5.74531ZM15.6168 10.3723C15.2451 10.2815 14.8478 10.2194 14.4438 10.1893C14.1239 10.1654 13.8466 10.4267 13.8246 10.7727C13.8025 11.1188 14.044 11.4188 14.3639 11.4426C14.7096 11.4684 15.0484 11.5213 15.3778 11.6015C15.8901 11.7103 16.224 11.8905 16.3069 12.0784C16.3693 12.2203 16.3693 12.3871 16.3063 12.5306C16.2245 12.7166 15.8933 12.896 15.3883 13.0083C15.0742 13.0782 14.8719 13.4103 14.9365 13.7501C15.0011 14.0899 15.3081 14.3087 15.6222 14.2389C16.457 14.0532 17.0684 13.7221 17.3553 13.0696C17.568 12.5845 17.568 12.022 17.3554 11.5381C17.0664 10.8832 16.4444 10.5475 15.6168 10.3723ZM4.16479 10.7727C4.14272 10.4267 3.86549 10.1654 3.54556 10.1893C3.14159 10.2194 2.7443 10.2815 2.3566 10.3759L2.19677 10.4125C1.46312 10.5938 0.903413 10.9271 0.634756 11.5381C0.42119 12.0215 0.42119 12.585 0.634981 13.0701C0.920602 13.7219 1.53205 14.0531 2.36713 14.2389C2.68124 14.3087 2.98824 14.0899 3.05283 13.7501C3.11743 13.4103 2.91515 13.0782 2.60104 13.0083C2.09619 12.896 1.76532 12.7168 1.68378 12.5307C1.62025 12.3866 1.62025 12.2208 1.683 12.0788C1.76583 11.8904 2.09948 11.7102 2.59564 11.6052L2.85363 11.548C3.11081 11.4966 3.36619 11.462 3.62546 11.4426C3.94539 11.4188 4.18685 11.1188 4.16479 10.7727ZM3.74911 13.4121C3.74911 11.4138 5.65978 10.711 8.99095 10.711L9.22696 10.7122C12.4189 10.7447 14.2328 11.449 14.2328 13.3975C14.2328 15.3001 12.4989 16.0287 9.457 16.0937L8.99095 16.0986C5.65214 16.0986 3.74911 15.4082 3.74911 13.4121ZM13.0714 13.3976C13.0714 12.4675 11.6929 11.9674 8.99083 11.9674C6.29142 11.9674 4.91028 12.4754 4.91028 13.4122C4.91028 14.3424 6.28835 14.8423 8.99083 14.8423C11.6894 14.8423 13.0714 14.3339 13.0714 13.3976Z" fill="white"/>
</svg>
