<svg width="18" height="18" viewBox="0 0 18 18" fill="none" xmlns="http://www.w3.org/2000/svg">
<path fill-rule="evenodd" clip-rule="evenodd" d="M1.19531 3.11133C1.19531 2.06285 2.04527 1.21289 3.09375 1.21289H6.43359C7.48207 1.21289 8.33203 2.06285 8.33203 3.11133V4.46484C8.33203 5.51332 7.48207 6.36328 6.43359 6.36328H3.09375C2.04527 6.36328 1.19531 5.51332 1.19531 4.46484V3.11133ZM3.09375 2.47852C2.74426 2.47852 2.46094 2.76184 2.46094 3.11133V4.46484C2.46094 4.81434 2.74426 5.09766 3.09375 5.09766H6.43359C6.78309 5.09766 7.06641 4.81434 7.06641 4.46484V3.11133C7.06641 2.76184 6.78309 2.47852 6.43359 2.47852H3.09375Z" fill="white"/>
<path fill-rule="evenodd" clip-rule="evenodd" d="M9.68555 14.9063C9.68555 15.9547 10.5355 16.8047 11.584 16.8047H14.9238C15.9723 16.8047 16.8223 15.9547 16.8223 14.9062V13.5527C16.8223 12.5043 15.9723 11.6543 14.9238 11.6543H11.584C10.5355 11.6543 9.68555 12.5043 9.68555 13.5527V14.9063ZM11.584 15.5391C11.2345 15.5391 10.9512 15.2557 10.9512 14.9063V13.5527C10.9512 13.2032 11.2345 12.9199 11.584 12.9199H14.9238C15.2733 12.9199 15.5566 13.2032 15.5566 13.5527V14.9062C15.5566 15.2557 15.2733 15.5391 14.9238 15.5391H11.584Z" fill="white"/>
<path fill-rule="evenodd" clip-rule="evenodd" d="M9.68555 3.11133C9.68555 2.06285 10.5355 1.21289 11.584 1.21289H14.9238C15.9723 1.21289 16.8223 2.06285 16.8223 3.11133V8.40234C16.8223 9.45082 15.9723 10.3008 14.9238 10.3008H11.584C10.5355 10.3008 9.68555 9.45082 9.68555 8.40234V3.11133ZM11.584 2.47852C11.2345 2.47852 10.9512 2.76184 10.9512 3.11133V8.40234C10.9512 8.75184 11.2345 9.03516 11.584 9.03516H14.9238C15.2733 9.03516 15.5566 8.75184 15.5566 8.40234V3.11133C15.5566 2.76184 15.2733 2.47852 14.9238 2.47852H11.584Z" fill="white"/>
<path fill-rule="evenodd" clip-rule="evenodd" d="M1.19531 14.9062C1.19531 15.9547 2.04527 16.8047 3.09375 16.8047H6.43359C7.48207 16.8047 8.33203 15.9547 8.33203 14.9062V9.61523C8.33203 8.56676 7.48207 7.7168 6.43359 7.7168H3.09375C2.04527 7.7168 1.19531 8.56676 1.19531 9.61523V14.9062ZM3.09375 15.5391C2.74426 15.5391 2.46094 15.2557 2.46094 14.9062V9.61523C2.46094 9.26574 2.74426 8.98242 3.09375 8.98242H6.43359C6.78309 8.98242 7.06641 9.26574 7.06641 9.61523V14.9062C7.06641 15.2557 6.78309 15.5391 6.43359 15.5391H3.09375Z" fill="white"/>
</svg>
