<svg width="18" height="18" viewBox="0 0 18 16" fill="none" xmlns="http://www.w3.org/2000/svg">
<path d="M17.9794 7.26646C17.9674 7.22566 16.5068 3.46332 16.4446 3.30117C16.4442 3.3005 16.4439 3.29971 16.4436 3.29891C16.1561 2.55651 15.6521 1.9193 14.986 1.4559C14.0967 0.837759 10.8281 -0.0705024 8.70773 0.00434698C6.891 0.0688632 3.93856 0.813516 3.01392 1.45603C2.34856 1.91877 1.8447 2.55598 1.55644 3.29878C-0.0625338 7.47737 0.0300262 7.22831 0.0168426 7.27825C-0.0150178 7.39761 -0.00238355 7.52903 0.0607879 7.64548C0.131375 7.77531 0.255796 7.87003 0.402601 7.90593L3.73902 8.72199C3.73902 9.43895 3.73902 15.2829 3.73902 15.4849C3.73902 15.7694 3.97811 16 4.27295 16H13.7271C14.022 16 14.2611 15.7694 14.2611 15.4849C14.2611 15.2821 14.2611 9.43763 14.2611 8.72199L17.5975 7.90593C17.7445 7.86989 17.8688 7.77517 17.9393 7.64548C17.9994 7.53473 18.0189 7.40106 17.9794 7.26646ZM14.2611 7.65926V7.12617L16.5848 6.60408C16.6478 6.7665 16.7061 6.91686 16.7573 7.04867C15.9054 7.25706 14.8709 7.51009 14.2611 7.65926ZM10.8465 1.21519C10.7947 2.15445 9.9864 2.90307 9.0001 2.90307C8.01367 2.90307 7.20507 2.15405 7.15357 1.21466C8.50009 0.976727 9.38806 0.958843 10.8465 1.21519ZM2.55661 3.65965C2.77057 3.10801 3.14465 2.63494 3.63822 2.29169C3.94776 2.07668 4.92664 1.71595 6.10177 1.43364C6.26437 2.83776 7.50184 3.93321 9.0001 3.93321C10.4982 3.93321 11.7356 2.83803 11.8983 1.43404C13.0737 1.71621 14.0526 2.07668 14.3616 2.29156C14.8558 2.63534 15.2299 3.10841 15.4435 3.65952H15.4436C15.4893 3.77795 15.8493 4.70648 16.2077 5.63117L14.2609 6.06861V4.20585C14.2609 3.92142 14.022 3.69078 13.727 3.69078C13.4321 3.69078 13.1932 3.92142 13.1932 4.20585C13.1932 4.21102 13.1933 12.9552 13.1933 13.1154H4.80689C4.80689 12.9541 4.80703 4.20943 4.80703 4.20585C4.80703 3.92142 4.56794 3.69078 4.27309 3.69078C3.97824 3.69078 3.73915 3.92142 3.73915 4.20585V6.06861L1.79224 5.63117L2.55661 3.65965ZM1.41513 6.60408L3.73915 7.1263V7.65926L1.24264 7.04867L1.41513 6.60408ZM13.1932 14.9699H4.80689V14.1456H13.1932V14.9699Z" fill="white"/>
</svg>
