<svg width="18" height="18" viewBox="0 0 18 18" fill="none" xmlns="http://www.w3.org/2000/svg">
<path fill-rule="evenodd" clip-rule="evenodd" d="M2.30271 5.2467C2.60223 3.55464 4.08467 2.26487 5.86138 2.26487H12.0679C13.8446 2.26487 15.3271 3.55464 15.6266 5.2467L2.30271 5.2467ZM16.2935 6.51145H16.3145C16.6636 6.51145 16.9469 6.22819 16.9469 5.87908C16.9469 3.18847 14.7585 1.00012 12.0679 1.00012H5.86138C3.17077 1.00012 0.982422 3.18847 0.982422 5.87908C0.982422 6.22819 1.26568 6.51145 1.61479 6.51145H1.63573V15.6789C1.63573 16.388 2.21233 16.9646 2.92142 16.9646H4.55307L4.55474 16.9646H8.96465H13.3746L13.3762 16.9646H15.0079C15.7169 16.9646 16.2935 16.388 16.2935 15.6789V6.51145ZM8.33228 15.6998L5.18711 15.6998V13.3713H6.209V13.7189C6.209 14.068 6.49226 14.3513 6.84137 14.3513C7.19048 14.3513 7.47374 14.068 7.47374 13.7189V13.3713H8.33228V15.6998ZM4.55474 12.1066H6.209V8.81901C6.209 8.4699 6.49226 8.18664 6.84137 8.18664H8.96465H11.088C11.4371 8.18664 11.7203 8.4699 11.7203 8.81901V12.1066H13.3746C13.7237 12.1066 14.0069 12.3898 14.0069 12.7389V15.6998H15.0079C15.0118 15.6998 15.0172 15.6982 15.0222 15.6932C15.0271 15.6882 15.0288 15.6829 15.0288 15.6789V6.51145L2.90048 6.51145V15.6789C2.90048 15.6829 2.90215 15.6882 2.90712 15.6932C2.91209 15.6982 2.91743 15.6998 2.92142 15.6998H3.92236V12.7389C3.92236 12.3898 4.20563 12.1066 4.55474 12.1066ZM8.33228 9.45139V9.79899C8.33228 10.1481 8.61554 10.4314 8.96465 10.4314C9.31376 10.4314 9.59702 10.1481 9.59702 9.79899V9.45139H10.4556V12.1066H8.96465H7.47374V9.45139H8.33228ZM9.59702 15.6998V13.3713H10.4556V13.7189C10.4556 14.068 10.7388 14.3513 11.0879 14.3513C11.437 14.3513 11.7203 14.068 11.7203 13.7189V13.3713H12.7422V15.6998H9.59702Z" fill="white"/>
</svg>
