<svg width="19" height="18" viewBox="0 0 19 18" fill="none" xmlns="http://www.w3.org/2000/svg">
<path fill-rule="evenodd" clip-rule="evenodd" d="M4.54187 4.59813C4.30254 4.71061 4.03549 4.77376 3.75408 4.77376C2.72858 4.77376 1.89453 3.93975 1.89453 2.91424C1.89453 1.88873 2.72857 1.05469 3.75408 1.05469C4.7796 1.05469 5.6136 1.88874 5.61363 2.91421C5.61363 3.19568 5.55046 3.46274 5.43797 3.70209L6.75568 5.01984C6.41506 5.27271 6.10621 5.56596 5.83619 5.89249L4.54187 4.59813ZM5.67375 12.3578L5.39574 12.6358C5.05537 12.4436 4.66254 12.3333 4.24441 12.3333C2.94854 12.3333 1.89453 13.3873 1.89453 14.6833C1.89453 15.9792 2.94854 17.0332 4.24444 17.0332C5.54034 17.0332 6.59435 15.9792 6.59435 14.6833C6.59435 14.2651 6.48408 13.8722 6.29182 13.5319L6.54849 13.2752C6.22133 13.0059 5.9274 12.6978 5.67375 12.3578ZM13.2111 13.2673L14.3296 14.3858C14.2171 14.6251 14.1539 14.8922 14.1539 15.1737C14.1539 16.1992 14.988 17.0332 16.0135 17.0332C17.039 17.0332 17.873 16.1991 17.873 15.1736C17.873 14.1481 17.039 13.3141 16.0135 13.3141C15.732 13.3141 15.465 13.3772 15.2257 13.4897L14.0837 12.3477C13.8309 12.6884 13.5376 12.9972 13.2111 13.2673ZM13.9217 5.90208L14.3718 5.452C14.7122 5.64423 15.105 5.7545 15.5231 5.7545C16.819 5.7545 17.873 4.70049 17.873 3.40459C17.873 2.10869 16.819 1.05469 15.5231 1.05469C14.2272 1.05469 13.1732 2.1087 13.1732 3.40459C13.1732 3.82272 13.2835 4.21559 13.4757 4.55597L13.0044 5.02734C13.3444 5.28098 13.6525 5.57492 13.9217 5.90208ZM16.6058 3.40459C16.6058 2.80774 16.12 2.32189 15.5231 2.32189C14.9262 2.32189 14.4404 2.80774 14.4404 3.40459C14.4404 4.00145 14.9263 4.4873 15.5231 4.4873C16.12 4.4873 16.6058 4.00145 16.6058 3.40459ZM3.75408 2.32189C3.42762 2.32189 3.16173 2.58778 3.16173 2.91424C3.16173 3.24069 3.42761 3.50656 3.75408 3.50656C4.08055 3.50656 4.3464 3.2407 4.3464 2.91424C4.3464 2.58777 4.08054 2.32189 3.75408 2.32189ZM3.16173 14.6833C3.16173 15.2801 3.64759 15.766 4.24444 15.766C4.84132 15.766 5.32714 15.2801 5.32714 14.6833C5.32714 14.0864 4.84129 13.6006 4.24444 13.6006C3.64759 13.6006 3.16173 14.0864 3.16173 14.6833ZM15.4211 15.1736C15.4211 15.5001 15.687 15.766 16.0135 15.766C16.3399 15.766 16.6058 15.5001 16.6058 15.1736C16.6058 14.8472 16.3399 14.5813 16.0135 14.5813C15.687 14.5813 15.4211 14.8472 15.4211 15.1736Z" fill="white"/>
<path fill-rule="evenodd" clip-rule="evenodd" d="M9.875 13.166C12.1758 13.166 14.041 11.3008 14.041 9C14.041 6.69917 12.1758 4.83398 9.875 4.83398C7.57417 4.83398 5.70898 6.69917 5.70898 9C5.70898 11.3008 7.57417 13.166 9.875 13.166ZM9.875 14.4316C12.8748 14.4316 15.3066 11.9998 15.3066 9C15.3066 6.00019 12.8748 3.56836 9.875 3.56836C6.87519 3.56836 4.44336 6.00019 4.44336 9C4.44336 11.9998 6.87519 14.4316 9.875 14.4316Z" fill="white"/>
<path d="M6.375 7L7.70597 9.58594V11H8.47212V9.58594L9.80308 7H8.93893L8.10686 8.72266H8.07122L7.23915 7H6.375Z" fill="white"/>
<path d="M11.5897 11C12.7015 11 13.375 10.2461 13.375 8.99609C13.375 7.75 12.7015 7 11.6004 7H10.2961V11H11.5897ZM11.0676 10.2754V7.72461H11.5594C12.2436 7.72461 12.6053 8.10742 12.6053 8.99609C12.6053 9.88867 12.2436 10.2754 11.5576 10.2754H11.0676Z" fill="white"/>
</svg>
