<svg width="18" height="18" viewBox="0 0 18 18" fill="none" xmlns="http://www.w3.org/2000/svg">
<path d="M12.3408 5.07666H7.87055C7.47656 5.07666 7.1572 5.39598 7.1572 5.79002C7.1572 6.18401 7.47652 6.50337 7.87055 6.50337H12.3408C12.7351 6.50337 13.0542 6.18405 13.0542 5.79002C13.0542 5.39598 12.7348 5.07666 12.3408 5.07666Z" fill="white"/>
<path d="M14.0528 8.52441H7.87055C7.47656 8.52441 7.1572 8.84374 7.1572 9.23777C7.1572 9.63177 7.47652 9.95113 7.87055 9.95113H14.0528C14.4468 9.95113 14.7662 9.6318 14.7662 9.23777C14.7662 8.84374 14.4468 8.52441 14.0528 8.52441Z" fill="white"/>
<path d="M17.2866 0.606201H4.66049C4.26649 0.606201 3.94713 0.925525 3.94713 1.31956V8.04874H2.68692C1.2053 8.04874 0 9.25429 0 10.7357V14.7066C0 16.1882 1.2053 17.3935 2.68692 17.3935C2.80818 17.3935 2.92757 17.3854 3.04432 17.3698H14.8138C16.5705 17.3698 18 15.9404 18 14.1835V1.31956C18 0.925525 17.6807 0.606201 17.2866 0.606201ZM3.94717 14.7066C3.94717 15.3179 3.5094 15.8292 2.93091 15.943H2.68696V15.9668C1.99192 15.9668 1.42671 15.4014 1.42671 14.7066V10.7357C1.42671 10.0409 1.99216 9.47542 2.68696 9.47542H3.9472V14.7066H3.94717ZM16.5733 14.1835C16.5733 15.1372 15.7677 15.943 14.8138 15.943H5.0721C5.26493 15.5728 5.37384 15.1522 5.37384 14.7066V2.03288H16.5733V14.1835Z" fill="white"/>
<path d="M12.3408 11.7585H7.87055C7.47656 11.7585 7.1572 12.0779 7.1572 12.4719C7.1572 12.8659 7.47652 13.1853 7.87055 13.1853H12.3408C12.7351 13.1853 13.0542 12.8659 13.0542 12.4719C13.0542 12.0779 12.7348 11.7585 12.3408 11.7585Z" fill="white"/>
</svg>
