<svg width="19" height="18" viewBox="0 0 19 18" fill="none" xmlns="http://www.w3.org/2000/svg">
<g clip-path="url(#clip0_14083:7720)">
<path d="M14.4116 15.2744C14.6199 15.1411 14.6659 14.8392 14.6649 14.6016C14.6594 13.2053 14.6624 11.7574 14.6619 10.3611C14.6619 9.90995 14.5508 9.79806 14.1047 9.79755C12.8891 9.79704 11.6239 9.79755 10.4083 9.79755C10.3232 9.79755 10.234 9.79755 10.234 9.79755C10.234 9.79755 10.234 9.60545 10.234 9.52524C10.234 8.2771 10.2345 7.18275 10.234 5.93461C10.234 5.49676 10.0713 5.38283 9.63974 5.38283C8.2569 5.38232 6.72385 5.38232 5.34101 5.38283C4.94248 5.38283 4.82382 5.50596 4.82382 5.91724C4.82332 8.85902 4.82532 11.6981 4.82032 14.6399C4.81982 14.8775 4.87489 15.1636 5.09068 15.2744C8.14775 15.2744 11.3545 15.2744 14.4116 15.2744ZM13.7562 14.3027H10.2641V10.8342C10.2641 10.8342 10.6376 10.8342 10.8789 10.8342C10.8789 11.1566 10.8784 11.4595 10.8789 11.763C10.8794 12.2249 10.9915 12.3367 11.4512 12.3367C11.8292 12.3373 12.2072 12.3378 12.5857 12.3367C12.9962 12.3357 13.1174 12.2121 13.1194 11.7921C13.1209 11.4754 13.1199 11.1586 13.1199 10.8337C13.3802 10.8337 13.7567 10.8337 13.7567 10.8337V14.3027H13.7562ZM6.41194 10.8316C6.41194 11.179 6.41094 11.5045 6.41244 11.8294C6.41394 12.2044 6.54211 12.3342 6.91511 12.3362C7.32265 12.3383 7.7302 12.3383 8.13774 12.3362C8.52125 12.3342 8.64291 12.207 8.64391 11.8115C8.64491 11.4876 8.64391 11.1637 8.64391 10.8378C8.90426 10.8378 9.26975 10.8378 9.26975 10.8378V14.2945H5.7866V10.8316C5.7866 10.8316 6.15459 10.8316 6.41194 10.8316ZM9.27425 6.35917V9.76741H5.7841V6.35866C5.7841 6.35866 6.1586 6.35866 6.41194 6.35866C6.41194 6.70147 6.41094 6.93138 6.41194 7.26296C6.41344 7.64256 6.5336 7.76467 6.9116 7.7662C7.31164 7.76824 7.71167 7.76722 8.1117 7.7662C8.53427 7.76518 8.64291 7.65533 8.64391 7.23026C8.64441 6.90686 8.64391 6.68564 8.64391 6.35917C8.90576 6.35917 9.27425 6.35917 9.27425 6.35917ZM7.16444 6.26312C7.42228 6.26312 7.6566 6.26312 7.88741 6.26312C7.88741 6.51601 7.88741 6.75001 7.88741 6.99013C7.64108 6.99013 7.40676 6.99013 7.16444 6.99013C7.16444 6.74184 7.16444 6.50835 7.16444 6.26312ZM7.17195 11.5643C7.17195 11.3139 7.17195 11.0753 7.17195 10.8444C7.42279 10.8444 7.6576 10.8444 7.8829 10.8444C7.8829 11.0958 7.8829 11.3282 7.8829 11.5643C7.63707 11.5643 7.40827 11.5643 7.17195 11.5643ZM12.3709 10.828C12.3709 11.0472 12.3789 11.2398 12.3654 11.4304C12.3619 11.481 12.2963 11.5658 12.2547 11.5689C12.0555 11.5837 11.8542 11.5755 11.6409 11.5755C11.6409 11.3119 11.6409 11.0738 11.6409 10.828C11.8867 10.828 12.115 10.828 12.3709 10.828Z" fill="white"/>
<path d="M2.08699 6.44349C1.98135 6.51195 1.91326 6.5564 1.84467 6.60034C1.51673 6.80879 1.16226 6.74595 0.972507 6.44656C0.783755 6.14819 0.874876 5.78443 1.1953 5.57342C1.80862 5.1693 2.42344 4.76722 3.03726 4.36462C5.17862 2.95964 7.32147 1.55669 9.45982 0.14711C9.7457 -0.0414132 10.003 -0.0511204 10.2919 0.138936C13.0346 1.94345 15.7803 3.74285 18.5264 5.54175C18.7482 5.68684 18.8904 5.87281 18.8729 6.15126C18.8458 6.58655 18.3907 6.8466 18.0052 6.64837C17.9016 6.59472 17.8045 6.52728 17.6773 6.44962C17.6773 6.54976 17.6773 6.62282 17.6773 6.69588C17.6773 9.9202 17.6773 13.145 17.6773 16.3693C17.6773 16.9043 17.464 17.1214 16.9383 17.1214C12.236 17.1214 7.53376 17.1214 2.83098 17.1214C2.29877 17.1214 2.08699 16.9032 2.08699 16.355C2.08699 13.1368 2.08699 9.91866 2.08699 6.70048C2.08699 6.62589 2.08699 6.55181 2.08699 6.44349ZM16.4782 15.8824C16.4782 15.7981 16.4782 15.7287 16.4782 15.6587C16.4782 12.3955 16.4767 9.13289 16.4822 5.86975C16.4827 5.70984 16.4366 5.62043 16.3055 5.5346C14.2137 4.16844 12.1239 2.79819 10.0376 1.42386C9.91843 1.34518 9.84183 1.35029 9.72618 1.42641C7.62888 2.80739 5.52958 4.18479 3.42728 5.5581C3.31663 5.63013 3.28409 5.70626 3.28409 5.83347C3.28709 9.12216 3.28659 12.4103 3.28709 15.699C3.28709 15.7603 3.2926 15.8222 3.2956 15.8901C3.594 15.8901 3.87888 15.8901 4.18579 15.8901L16.4782 15.8824Z" fill="white"/>
</g>
<defs>
<clipPath id="clip0_14083:7720">
<rect width="18" height="17.5" fill="white" transform="translate(0.875)"/>
</clipPath>
</defs>
</svg>
