<svg width="18" height="18" viewBox="0 0 20 20" fill="none" xmlns="http://www.w3.org/2000/svg">
<path fill-rule="evenodd" clip-rule="evenodd" d="M2.49999 1.66699C2.96023 1.66699 3.33332 2.04009 3.33332 2.50033V16.667H17.5C17.9602 16.667 18.3333 17.0401 18.3333 17.5003C18.3333 17.9606 17.9602 18.3337 17.5 18.3337H2.49999C2.03975 18.3337 1.66666 17.9606 1.66666 17.5003V2.50033C1.66666 2.04009 2.03975 1.66699 2.49999 1.66699Z" fill="white"/>
<path fill-rule="evenodd" clip-rule="evenodd" d="M17.8581 1.74765C18.2736 1.94552 18.45 2.44278 18.2522 2.85831L14.0855 11.6083C13.9724 11.8457 13.7539 12.0159 13.496 12.0673C13.2381 12.1187 12.9711 12.0454 12.7756 11.8694L9.4224 8.85152L6.57848 14.5394C6.37265 14.951 5.87209 15.1179 5.46044 14.9121C5.04879 14.7062 4.88194 14.2057 5.08776 13.794L8.4211 7.12735C8.53744 6.89466 8.75578 6.72966 9.01139 6.68125C9.267 6.63284 9.53055 6.70659 9.72392 6.88062L13.0607 9.88375L16.7474 2.14175C16.9453 1.72622 17.4425 1.54978 17.8581 1.74765Z" fill="white"/>
</svg>
