<svg width="19" height="18" viewBox="0 0 19 18" fill="none" xmlns="http://www.w3.org/2000/svg">
<path fill-rule="evenodd" clip-rule="evenodd" d="M8.51179 1.31438C8.45171 1.21326 8.36385 1.13039 8.25805 1.07506C8.15224 1.01973 8.03267 0.994134 7.91274 1.00113C7.7928 1.00813 7.67725 1.04744 7.57901 1.11467C7.48077 1.1819 7.40374 1.27439 7.35654 1.38177L4.89947 6.97143L2.84545 8.12395C2.39966 8.37409 2.07437 8.78609 1.94114 9.26931C1.80791 9.75254 1.87766 10.2674 2.13504 10.7007L4.7229 15.0569C4.98028 15.4901 5.4042 15.8062 5.90142 15.9357C6.39864 16.0652 6.92842 15.9974 7.37421 15.7473L9.42823 14.5948L15.6377 15.3216C15.757 15.3355 15.8779 15.317 15.9869 15.2679C16.096 15.2188 16.1888 15.1412 16.255 15.0438C16.3212 14.9463 16.3582 14.8329 16.3618 14.7162C16.3654 14.5995 16.3354 14.4841 16.2754 14.3829L8.51179 1.31438ZM6.00505 7.65794L8.03818 3.03219L14.5078 13.9227L9.36927 13.321C9.23029 13.3047 9.08963 13.3327 8.9684 13.4007L6.72724 14.6582C6.57865 14.7416 6.40205 14.7642 6.23632 14.721C6.07058 14.6779 5.92927 14.5725 5.84347 14.4281L3.25561 10.0719C3.16982 9.92749 3.14657 9.75586 3.19098 9.59479C3.23539 9.43371 3.34382 9.29638 3.49242 9.213L5.73357 7.95547C5.8548 7.88745 5.95006 7.78305 6.00505 7.65794ZM13.2779 2.21215C13.1553 2.15565 13.0148 2.1482 12.8865 2.19143C12.7583 2.23465 12.6527 2.32508 12.5924 2.44324C12.5322 2.5614 12.5221 2.69785 12.5643 2.82318C12.6065 2.94852 12.6977 3.05273 12.8182 3.11336C14.0941 3.73084 15.1546 4.6999 15.8673 5.89955C16.58 7.09921 16.9132 8.4763 16.8255 9.85892C16.8167 9.99212 16.8627 10.1233 16.9533 10.2235C17.044 10.3238 17.1719 10.385 17.309 10.3935C17.446 10.4021 17.581 10.3575 17.6842 10.2693C17.7873 10.1812 17.8502 10.0569 17.8591 9.9237C17.96 8.34276 17.5792 6.76798 16.7643 5.39622C15.9494 4.02446 14.7365 2.91657 13.2773 2.21107L13.2779 2.21215Z" fill="white"/>
</svg>
