<svg width="18" height="18" viewBox="0 0 18 18" fill="none" xmlns="http://www.w3.org/2000/svg">
<g clip-path="url(#clip0)">
<path d="M17.2928 11.287L15.9769 10.162C16.0392 9.78035 16.0713 9.39061 16.0713 9.00088C16.0713 8.61115 16.0392 8.22142 15.9769 7.83972L17.2928 6.71472C17.392 6.62976 17.463 6.51659 17.4964 6.39028C17.5298 6.26396 17.5239 6.13048 17.4796 6.00758L17.4615 5.95535C17.0993 4.9429 16.5568 4.00435 15.8604 3.18503L15.8242 3.14285C15.7398 3.04351 15.6272 2.9721 15.5013 2.93803C15.3754 2.90396 15.2422 2.90883 15.1191 2.952L13.4858 3.53258C12.8832 3.03838 12.2102 2.64865 11.4829 2.37544L11.1675 0.667847C11.1437 0.53936 11.0814 0.421155 10.9888 0.328936C10.8963 0.236717 10.7778 0.174849 10.6492 0.151552L10.595 0.141507C9.54834 -0.0473319 8.44745 -0.0473319 7.4008 0.141507L7.34656 0.151552C7.21798 0.174849 7.09953 0.236717 7.00696 0.328936C6.91438 0.421155 6.85205 0.53936 6.82825 0.667847L6.51084 2.38347C5.78941 2.65674 5.11759 3.04627 4.52201 3.5366L2.87669 2.952C2.75368 2.90849 2.62033 2.90344 2.49438 2.93753C2.36843 2.97162 2.25584 3.04323 2.17156 3.14285L2.1354 3.18503C1.4398 4.00493 0.897447 4.94332 0.534281 5.95535L0.516201 6.00758C0.425799 6.25869 0.50013 6.53994 0.703031 6.71472L2.03495 7.85178C1.97267 8.22945 1.94254 8.61517 1.94254 8.99887C1.94254 9.38459 1.97267 9.7703 2.03495 10.146L0.703031 11.283C0.603782 11.368 0.532747 11.4812 0.499374 11.6075C0.466001 11.7338 0.47187 11.8673 0.516201 11.9902L0.534281 12.0424C0.897897 13.0549 1.43629 13.9891 2.1354 14.8127L2.17156 14.8549C2.25604 14.9542 2.36864 15.0256 2.49452 15.0597C2.62039 15.0938 2.75364 15.0889 2.87669 15.0457L4.52201 14.4612C5.12067 14.9533 5.78964 15.3431 6.51084 15.6143L6.82825 17.3299C6.85205 17.4584 6.91438 17.5766 7.00696 17.6688C7.09953 17.761 7.21798 17.8229 7.34656 17.8462L7.4008 17.8562C8.45707 18.0461 9.53873 18.0461 10.595 17.8562L10.6492 17.8462C10.7778 17.8229 10.8963 17.761 10.9888 17.6688C11.0814 17.5766 11.1437 17.4584 11.1675 17.3299L11.4829 15.6223C12.2099 15.3498 12.8867 14.9588 13.4858 14.4652L15.1191 15.0457C15.2421 15.0893 15.3755 15.0943 15.5014 15.0602C15.6274 15.0261 15.74 14.9545 15.8242 14.8549L15.8604 14.8127C16.5595 13.987 17.0979 13.0549 17.4615 12.0424L17.4796 11.9902C17.57 11.7431 17.4957 11.4618 17.2928 11.287ZM14.5506 8.07677C14.6008 8.38012 14.6269 8.69151 14.6269 9.00289C14.6269 9.31427 14.6008 9.62566 14.5506 9.92901L14.418 10.7346L15.9187 12.0183C15.6912 12.5424 15.404 13.0385 15.0629 13.4969L13.1986 12.8359L12.5678 13.3542C12.0876 13.748 11.5533 14.0574 10.9747 14.2743L10.2093 14.5616L9.84968 16.5103C9.2823 16.5745 8.70947 16.5745 8.14209 16.5103L7.7825 14.5576L7.02312 14.2663C6.45058 14.0493 5.91821 13.7399 5.44209 13.3482L4.81129 12.8279L2.93495 13.4949C2.59343 13.0348 2.30817 12.5386 2.07915 12.0163L3.59589 10.7205L3.46531 9.91695C3.41709 9.61762 3.39098 9.30825 3.39098 9.00289C3.39098 8.69553 3.41509 8.38816 3.46531 8.08883L3.59589 7.28526L2.07915 5.9895C2.30616 5.46517 2.59343 4.97097 2.93495 4.51093L4.81129 5.17789L5.44209 4.65758C5.91821 4.26584 6.45058 3.95646 7.02312 3.7395L7.7845 3.45222L8.1441 1.49954C8.70861 1.43526 9.28517 1.43526 9.85169 1.49954L10.2113 3.4482L10.9767 3.73548C11.5533 3.95244 12.0896 4.26182 12.5698 4.65557L13.2006 5.17387L15.0649 4.51294C15.4064 4.97298 15.6916 5.46919 15.9207 5.99151L14.42 7.27521L14.5506 8.07677ZM8.99991 5.26628C7.04723 5.26628 5.46419 6.84932 5.46419 8.802C5.46419 10.7547 7.04723 12.3377 8.99991 12.3377C10.9526 12.3377 12.5356 10.7547 12.5356 8.802C12.5356 6.84932 10.9526 5.26628 8.99991 5.26628ZM10.591 10.3931C10.3823 10.6024 10.1343 10.7683 9.86123 10.8814C9.58818 10.9945 9.29545 11.0525 8.99991 11.052C8.39924 11.052 7.83473 10.817 7.40883 10.3931C7.19955 10.1844 7.03359 9.93638 6.92051 9.66333C6.80743 9.39027 6.74945 9.09755 6.74991 8.802C6.74991 8.20133 6.98495 7.63682 7.40883 7.21093C7.83473 6.78503 8.39924 6.552 8.99991 6.552C9.60058 6.552 10.1651 6.78503 10.591 7.21093C10.8003 7.41961 10.9662 7.66761 11.0793 7.94067C11.1924 8.21373 11.2504 8.50645 11.2499 8.802C11.2499 9.40267 11.0149 9.96718 10.591 10.3931Z" fill="white"/>
</g>
<defs>
<clipPath id="clip0">
<rect width="18" height="18" fill="white"/>
</clipPath>
</defs>
</svg>
