<svg width="18" height="16" viewBox="0 0 18 16" fill="none" xmlns="http://www.w3.org/2000/svg">
<path fill-rule="evenodd" clip-rule="evenodd" d="M3.24657 2.8729C2.89535 3.31365 2.51665 4.08169 2.15844 4.96066C1.89604 5.60452 1.66044 6.26691 1.4668 6.83086L3.53156 7.50164L3.53156 4.14113C3.53156 3.78469 3.8205 3.49575 4.17693 3.49575C4.53336 3.49575 4.82231 3.78469 4.82231 4.14113L4.82231 8.37846L4.82241 8.38992V11.4734H13.1317V8.38992L13.1317 8.38307L13.1317 4.14113C13.1317 3.78469 13.4206 3.49575 13.7771 3.49575C14.1335 3.49575 14.4225 3.78469 14.4225 4.14113V7.51104L16.6292 6.81872C16.3707 6.04455 16.0247 5.22997 15.6944 4.53787C15.487 4.10337 15.2897 3.72548 15.13 3.44483C15.0499 3.304 14.9822 3.19294 14.9298 3.11371C14.8981 3.06592 14.8791 3.04061 14.8715 3.03053L14.8684 3.02648C14.3599 2.57129 13.3442 2.12922 12.1519 1.79965C12.122 1.79138 12.092 1.78321 12.0621 1.77513C11.8156 3.17908 10.429 4.14113 8.92771 4.14113C7.436 4.14113 6.05744 3.19127 5.79819 1.80183C4.7905 2.08491 3.8586 2.45911 3.24657 2.8729ZM7.05893 1.5033C7.16468 2.19511 7.8809 2.85037 8.92771 2.85037C9.98126 2.85037 10.7 2.18666 10.7985 1.48995C10.0885 1.36016 9.42638 1.29076 8.91877 1.29076C8.43437 1.29076 7.77663 1.36438 7.05893 1.5033ZM4.82241 14.7092V12.7641H13.1317V14.7092H4.82241ZM14.4225 8.86382L17.6274 7.85836C17.9594 7.75419 18.1491 7.4055 18.0561 7.07014C17.7688 6.03409 17.2932 4.89102 16.8592 3.98184C16.6412 3.52518 16.4297 3.11911 16.2519 2.80651C16.1632 2.65072 16.0799 2.51282 16.0061 2.40121C15.9441 2.30755 15.8547 2.17905 15.7541 2.08713C15.0116 1.40871 13.7319 0.897202 12.4957 0.555537C11.2365 0.207474 9.88848 0 8.91877 0C8.05229 0 6.83517 0.187569 5.65589 0.502527C4.48362 0.815616 3.26464 1.27661 2.4323 1.86682C2.38868 1.89775 2.34907 1.93398 2.31439 1.97468C1.80112 2.57699 1.33847 3.55255 0.963133 4.47352C0.591786 5.38471 0.274171 6.32491 0.0559645 6.97085L0.0339678 7.03596C-0.0212511 7.19937 -0.00876468 7.37807 0.0686411 7.53221C0.146047 7.68635 0.28193 7.80308 0.445972 7.85638L3.53156 8.8588V10.0392L3.53165 10.0503V15.3546C3.53165 15.7111 3.8206 16 4.17703 16H13.777C14.1335 16 14.4224 15.7111 14.4224 15.3546V9.58066L14.4225 9.57306V8.86382Z" fill="white"/>
</svg>
