<svg width="18" height="18" viewBox="0 0 18 18" fill="none" xmlns="http://www.w3.org/2000/svg">
<path d="M9.49944 11H9.07135C9.03211 11 9 11.0307 9 11.0682V16.9318C9 16.9693 9.03211 17 9.07135 17H9.49944C9.53868 17 9.57079 16.9693 9.57079 16.9318V11.0682C9.57079 11.0307 9.53868 11 9.49944 11ZM16.9287 11H16.5006C16.4613 11 16.4292 11.0307 16.4292 11.0682V16.9318C16.4292 16.9693 16.4613 17 16.5006 17H16.9287C16.9679 17 17 16.9693 17 16.9318V11.0682C17 11.0307 16.9679 11 16.9287 11ZM10.2129 15.9091H11.2118C11.2511 15.9091 11.2832 15.8784 11.2832 15.8409V11.0682C11.2832 11.0307 11.2511 11 11.2118 11H10.2129C10.1737 11 10.1416 11.0307 10.1416 11.0682V15.8409C10.1416 15.8784 10.1737 15.9091 10.2129 15.9091ZM13.0758 15.9091H13.5039C13.5431 15.9091 13.5753 15.8784 13.5753 15.8409V11.0682C13.5753 11.0307 13.5431 11 13.5039 11H13.0758C13.0366 11 13.0045 11.0307 13.0045 11.0682V15.8409C13.0045 15.8784 13.0366 15.9091 13.0758 15.9091ZM14.1996 15.9091H15.7871C15.8263 15.9091 15.8584 15.8784 15.8584 15.8409V11.0682C15.8584 11.0307 15.8263 11 15.7871 11H14.1996C14.1603 11 14.1282 11.0307 14.1282 11.0682V15.8409C14.1282 15.8784 14.1603 15.9091 14.1996 15.9091ZM11.9253 15.9091H12.3534C12.3926 15.9091 12.4247 15.8784 12.4247 15.8409V11.0682C12.4247 11.0307 12.3926 11 12.3534 11H11.9253C11.8861 11 11.854 11.0307 11.854 11.0682V15.8409C11.854 15.8784 11.8861 15.9091 11.9253 15.9091ZM11.2207 16.4545H10.2219C10.1826 16.4545 10.1505 16.4852 10.1505 16.5227V16.9318C10.1505 16.9693 10.1826 17 10.2219 17H11.2207C11.26 17 11.2921 16.9693 11.2921 16.9318V16.5227C11.2921 16.4852 11.26 16.4545 11.2207 16.4545ZM13.5128 16.4545H13.0847C13.0455 16.4545 13.0134 16.4852 13.0134 16.5227V16.9318C13.0134 16.9693 13.0455 17 13.0847 17H13.5128C13.5521 17 13.5842 16.9693 13.5842 16.9318V16.5227C13.5842 16.4852 13.5521 16.4545 13.5128 16.4545ZM15.796 16.4545H14.2085C14.1692 16.4545 14.1371 16.4852 14.1371 16.5227V16.9318C14.1371 16.9693 14.1692 17 14.2085 17H15.796C15.8352 17 15.8673 16.9693 15.8673 16.9318V16.5227C15.8673 16.4852 15.8352 16.4545 15.796 16.4545ZM12.3623 16.4545H11.9342C11.895 16.4545 11.8629 16.4852 11.8629 16.5227V16.9318C11.8629 16.9693 11.895 17 11.9342 17H12.3623C12.4016 17 12.4337 16.9693 12.4337 16.9318V16.5227C12.4337 16.4852 12.4016 16.4545 12.3623 16.4545Z" fill="white"/>
<path fill-rule="evenodd" clip-rule="evenodd" d="M2.37365 3.11929C2.37934 3.76386 2.38679 5.234 2.37327 6.26819C2.36761 6.70187 2.46691 6.98365 2.57664 7.13808C2.67381 7.27484 2.78702 7.33008 2.93078 7.33008H6.25065L8.10559 2.42578H2.93078C2.75996 2.42578 2.65053 2.49743 2.55385 2.63742C2.45011 2.78761 2.39204 2.98345 2.37365 3.11929ZM8.72942 7.33008H7.60328L9.45822 2.42578H10.5059L8.72942 7.33008ZM1.51247 1.91814C1.78785 1.51945 2.25215 1.16016 2.93078 1.16016H11.4082C11.6145 1.16016 11.8078 1.26071 11.9263 1.4296C12.0447 1.5985 12.0734 1.81453 12.0032 2.00849L9.76822 8.17841C9.6775 8.42888 9.43963 8.5957 9.17324 8.5957H7.95637C8 9.25 7.95637 8.25 7.95637 10C7.95637 11.75 7.75 13.5 7.75 14.473C7.75 15.4461 7.83098 15.6408 7.5611 16.105C7.25196 16.6366 6.70907 16.8273 6.14063 16.8273H3.70912C3.41439 16.8273 3.15868 16.6238 3.09248 16.3366L2.63775 8.57133C2.18971 8.49525 1.81035 8.24472 1.54491 7.87113C1.23591 7.43621 1.09972 6.8665 1.10776 6.25165C1.12136 5.21039 1.11343 3.71165 1.10773 3.09161C1.10752 3.06878 1.10855 3.04595 1.1108 3.02323C1.14013 2.72802 1.25181 2.29554 1.51247 1.91814ZM3.94218 8.5957L4.21266 15.5617H6.14063C6.41861 15.5617 6.4569 15.4881 6.46585 15.4709L6.46699 15.4688C6.51311 15.3895 6.49562 15.1646 6.49754 14.6551C6.5 14 6.60326 12.0978 6.66665 10.25C6.69527 9.41582 6.66665 9.13299 6.66665 8.5957H3.94218Z" fill="white"/>
<path fill-rule="evenodd" clip-rule="evenodd" d="M14.3511 1.81022C14.5697 1.53753 14.968 1.49369 15.2407 1.71229C16.4674 2.69574 17.2856 4.41359 16.7649 6.30232C16.2387 8.21141 14.5229 9.16306 13.3562 9.43991C13.0161 9.5206 12.675 9.31035 12.5944 8.9703C12.5137 8.63025 12.7239 8.28917 13.064 8.20848C13.9715 7.99314 15.1858 7.26857 15.5448 5.966C15.9095 4.64308 15.3492 3.42141 14.449 2.69978C14.1763 2.48118 14.1325 2.08291 14.3511 1.81022Z" fill="white"/>
<path fill-rule="evenodd" clip-rule="evenodd" d="M12.6426 3.32239C12.8707 3.05756 13.2703 3.02774 13.5351 3.25579C14.203 3.83091 14.432 4.74808 14.2156 5.53291C13.9732 6.41251 13.3672 7.02459 12.6045 7.25832C12.2703 7.36072 11.9164 7.17285 11.814 6.8387C11.7116 6.50454 11.8995 6.15064 12.2336 6.04824C12.5608 5.94799 12.8619 5.68116 12.9955 5.19658C13.0912 4.8495 12.9804 4.44832 12.7093 4.21484C12.4444 3.98679 12.4146 3.58723 12.6426 3.32239Z" fill="white"/>
</svg>
