<svg width="18" height="18" viewBox="0 0 18 18" fill="none" xmlns="http://www.w3.org/2000/svg">
<g clip-path="url(#clip0)">
<path fill-rule="evenodd" clip-rule="evenodd" d="M17.8322 8.63774L16.8091 7.32011L15.1449 4.01028C15.0217 3.76555 14.7711 3.61104 14.4971 3.61104H12.2938V3.22494C12.2938 2.82451 11.9693 2.5 11.5689 2.5H2.30079C1.90036 2.5 1.57585 2.82456 1.57585 3.22494C1.57585 3.62533 1.9004 3.94988 2.30079 3.94988H10.8439V7.6736C10.8439 8.07403 11.1685 8.39854 11.5689 8.39854H15.8108L16.5345 9.33073V11.9719H15.7827C15.4806 10.9963 14.5702 10.2854 13.496 10.2854C12.4222 10.2854 11.512 10.9958 11.2096 11.9709H8.18268C7.88026 10.9958 6.97009 10.2854 5.89628 10.2854C4.82247 10.2854 3.9123 10.9958 3.60988 11.9709H2.30079C1.90036 11.9709 1.57585 12.2954 1.57585 12.6958C1.57585 13.0962 1.90041 13.4208 2.30079 13.4208H3.62083C3.93377 14.3781 4.8351 15.0719 5.89628 15.0719C6.95745 15.0719 7.85878 14.3781 8.17173 13.4208H11.2205C11.5335 14.3781 12.4348 15.0719 13.496 15.0719C14.5569 15.0719 15.4579 14.3786 15.7711 13.4218H17.2594C17.6599 13.4218 17.9844 13.0972 17.9844 12.6969V9.08238C17.9844 8.92143 17.9307 8.76484 17.8322 8.63774ZM14.9991 6.94866H12.2938V5.06096H14.0501L14.9991 6.94866ZM5.89628 13.6219C5.3858 13.6219 4.96857 13.2142 4.95341 12.7073C4.95343 12.7059 4.95345 12.7045 4.95346 12.7031C4.95349 12.7007 4.9535 12.6983 4.9535 12.6958C4.9535 12.687 4.95334 12.6782 4.95302 12.6694C4.95797 12.1536 5.37927 11.7353 5.89628 11.7353C6.41621 11.7353 6.83958 12.1586 6.83958 12.6786C6.83958 13.1988 6.41637 13.6219 5.89628 13.6219ZM13.496 13.6219C12.9759 13.6219 12.5527 13.1987 12.5527 12.6786C12.5527 12.1585 12.9759 11.7353 13.496 11.7353C14.0161 11.7353 14.4393 12.1585 14.4393 12.6786C14.4393 13.1988 14.0161 13.6219 13.496 13.6219ZM4.19149 9.15187H1.63349C1.23306 9.15187 0.908546 9.47643 0.908546 9.87681C0.908546 10.2772 1.2331 10.6018 1.63349 10.6018H4.19146C4.59188 10.6018 4.91639 10.2772 4.9164 9.87681C4.91644 9.47642 4.59187 9.15187 4.19149 9.15187ZM5.47021 6.96595H0.72494C0.324545 6.96595 0 7.2905 0 7.69092C0 8.09135 0.324559 8.41586 0.72494 8.41586H5.47021C5.87064 8.41586 6.19515 8.0913 6.19515 7.69092C6.19515 7.29055 5.87065 6.96595 5.47021 6.96595ZM6.37877 4.77881H1.63351C1.23308 4.77881 0.908565 5.10337 0.908565 5.50375C0.908565 5.90418 1.23312 6.22869 1.63351 6.22869H6.37877C6.7792 6.22869 7.1037 5.90412 7.10371 5.50375C7.10375 5.10334 6.77918 4.77881 6.37877 4.77881Z" fill="white"/>
</g>
<defs>
<clipPath id="clip0">
<rect width="18" height="18" fill="white"/>
</clipPath>
</defs>
</svg>
