<svg width="18" height="18" viewBox="0 0 18 18" fill="none" xmlns="http://www.w3.org/2000/svg">
<path d="M16.5535 14.6256H2.73207V2.08991C2.73207 2.00152 2.65975 1.9292 2.57136 1.9292H1.44636C1.35797 1.9292 1.28564 2.00152 1.28564 2.08991V15.9113C1.28564 15.9997 1.35797 16.0721 1.44636 16.0721H16.5535C16.6419 16.0721 16.7142 15.9997 16.7142 15.9113V14.7863C16.7142 14.698 16.6419 14.6256 16.5535 14.6256ZM4.85752 11.5259C4.9198 11.5881 5.02024 11.5881 5.08453 11.5259L7.86288 8.76157L10.4263 11.341C10.4885 11.4033 10.591 11.4033 10.6533 11.341L16.1859 5.81045C16.2481 5.74817 16.2481 5.64572 16.1859 5.58344L15.3903 4.7879C15.3601 4.758 15.3193 4.74122 15.2768 4.74122C15.2343 4.74122 15.1935 4.758 15.1633 4.7879L10.5428 9.40643L7.98341 6.83099C7.95321 6.80108 7.91242 6.7843 7.86991 6.7843C7.8274 6.7843 7.78661 6.80108 7.7564 6.83099L4.06399 10.5013C4.03408 10.5315 4.01731 10.5723 4.01731 10.6148C4.01731 10.6573 4.03408 10.6981 4.06399 10.7283L4.85752 11.5259Z" fill="white"/>
</svg>
