<svg width="19" height="18" viewBox="0 0 19 18" fill="none" xmlns="http://www.w3.org/2000/svg">
<path fill-rule="evenodd" clip-rule="evenodd" d="M5.40703 13.9775V14.0134C5.40703 14.5357 5.03538 14.9728 4.54366 15.0717H4.29651V15.0921C3.7202 15.0732 3.25733 14.5964 3.25733 14.0133V10.4995C3.25733 9.90443 3.73964 9.4201 4.3322 9.4201H5.40707L5.40703 13.9775ZM17.1977 1.5H6.07131C5.70441 1.5 5.407 1.79861 5.407 2.16709V8.08596H4.33217C3.00682 8.08596 1.92871 9.1688 1.92871 10.4995V14.0134C1.92871 15.3443 3.00682 16.4269 4.33217 16.4269C4.43978 16.4269 4.54578 16.4197 4.64948 16.4059H15.0186C16.5863 16.4059 17.862 15.125 17.862 13.5505V2.16709C17.862 1.79862 17.5647 1.5 17.1977 1.5ZM16.5335 13.5505C16.5335 14.3747 15.8395 15.0717 15.0186 15.0717H6.49205C6.64809 14.752 6.73562 14.3927 6.73562 14.0134V2.83414H16.5335V13.5505ZM12.8394 5.45583H8.90011C8.5332 5.45583 8.2358 5.75444 8.2358 6.12292C8.2358 6.49136 8.53317 6.79 8.90011 6.79H12.8394C13.2065 6.79 13.5037 6.49138 13.5037 6.12292C13.5037 5.75445 13.2063 5.45583 12.8394 5.45583ZM14.3481 8.50677H8.90011C8.5332 8.50677 8.2358 8.80539 8.2358 9.17386C8.2358 9.5423 8.53317 9.84095 8.90011 9.84095H14.3481C14.715 9.84095 15.0124 9.54233 15.0124 9.17386C15.0124 8.80539 14.715 8.50677 14.3481 8.50677ZM12.8307 11.3733H8.89141C8.52451 11.3733 8.2271 11.6719 8.2271 12.0404C8.2271 12.4088 8.52448 12.7075 8.89141 12.7075H12.8307C13.1979 12.7075 13.495 12.4089 13.495 12.0404C13.495 11.6719 13.1976 11.3733 12.8307 11.3733Z" fill="white"/>
</svg>
