<svg width="24" height="24" viewBox="0 0 18 18" fill="none" xmlns="http://www.w3.org/2000/svg">
<g clip-path="url(#clip0)">
<path d="M13.5941 10.7031C12.343 10.7031 11.3252 11.7209 11.3252 12.972C11.3252 14.2231 12.343 15.241 13.5941 15.241C14.8454 15.241 15.863 14.2231 15.863 12.972C15.863 11.7209 14.8452 10.7031 13.5941 10.7031ZM13.5941 14.1065C12.9685 14.1065 12.4597 13.5977 12.4597 12.972C12.4597 12.3464 12.9685 11.8376 13.5941 11.8376C14.2198 11.8376 14.7286 12.3464 14.7286 12.972C14.7286 13.5977 14.2198 14.1065 13.5941 14.1065Z" fill="white"/>
<path d="M5.84216 10.7031C4.59105 10.7031 3.57324 11.7209 3.57324 12.972C3.57324 14.2231 4.59105 15.241 5.84216 15.241C7.09326 15.241 8.11107 14.2231 8.11107 12.972C8.11107 11.7209 7.09326 10.7031 5.84216 10.7031ZM5.84216 14.1065C5.21652 14.1065 4.7077 13.5977 4.7077 12.972C4.7077 12.3464 5.21652 11.8376 5.84216 11.8376C6.46762 11.8376 6.97661 12.3464 6.97661 12.972C6.97661 13.5977 6.4678 14.1065 5.84216 14.1065Z" fill="white"/>
<path d="M15.1226 4.20732C15.0262 4.01579 14.8301 3.89496 14.6157 3.89496H11.6283V5.02942H14.2659L15.8104 8.10152L16.8243 7.59175L15.1226 4.20732Z" fill="white"/>
<path d="M11.8927 12.4223H7.60071V13.5568H11.8927V12.4223Z" fill="white"/>
<path d="M4.14087 12.4223H2.17451C1.8612 12.4223 1.6073 12.6762 1.6073 12.9895C1.6073 13.3028 1.86123 13.5567 2.17451 13.5567H4.14091C4.45422 13.5567 4.70812 13.3028 4.70812 12.9895C4.70812 12.6762 4.45418 12.4223 4.14087 12.4223Z" fill="white"/>
<path d="M17.8811 8.95583L16.7654 7.51885C16.6582 7.38044 16.4928 7.29951 16.3175 7.29951H12.1956V3.32893C12.1956 3.01562 11.9417 2.76172 11.6284 2.76172H2.17463C1.86132 2.76172 1.60742 3.01565 1.60742 3.32893C1.60742 3.64221 1.86136 3.89614 2.17463 3.89614H11.0612V7.86672C11.0612 8.18003 11.3151 8.43393 11.6284 8.43393H16.0397L16.8658 9.49804V12.4234H15.2965C14.9831 12.4234 14.7292 12.6774 14.7292 12.9906C14.7292 13.304 14.9832 13.5578 15.2965 13.5578H17.433C17.7463 13.5578 18.0002 13.3039 18.0003 12.9906V9.30373C18.0003 9.1778 17.9583 9.05528 17.8811 8.95583Z" fill="white"/>
<path d="M4.10323 9.54688H1.49397C1.18066 9.54688 0.926758 9.80081 0.926758 10.1141C0.926758 10.4274 1.18069 10.6813 1.49397 10.6813H4.1032C4.41651 10.6813 4.67041 10.4274 4.67041 10.1141C4.67044 9.80081 4.41651 9.54688 4.10323 9.54688Z" fill="white"/>
<path d="M5.40756 7.3172H0.567211C0.253934 7.3172 0 7.57113 0 7.88445C0 8.19776 0.253934 8.45166 0.567211 8.45166H5.40756C5.72087 8.45166 5.97477 8.19772 5.97477 7.88445C5.97477 7.57117 5.72087 7.3172 5.40756 7.3172Z" fill="white"/>
<path d="M6.33438 5.08624H1.49403C1.18072 5.08624 0.926819 5.34018 0.926819 5.65345C0.926819 5.96677 1.18075 6.22066 1.49403 6.22066H6.33438C6.64769 6.22066 6.90159 5.96673 6.90159 5.65345C6.90162 5.34018 6.64769 5.08624 6.33438 5.08624Z" fill="white"/>
</g>
<defs>
<clipPath id="clip0">
<rect width="18" height="18" fill="white"/>
</clipPath>
</defs>
</svg>
