<svg width="18" height="18" viewBox="0 0 18 18" fill="none" xmlns="http://www.w3.org/2000/svg">
<path d="M15.4292 4.98453H12.6971V4.6631C12.6971 2.62203 11.0417 0.966675 9.00063 0.966675C6.95956 0.966675 5.3042 2.62203 5.3042 4.6631V4.98453H2.57206C2.21648 4.98453 1.9292 5.27181 1.9292 5.62739V16.3952C1.9292 16.7508 2.21648 17.0381 2.57206 17.0381H15.4292C15.7848 17.0381 16.0721 16.7508 16.0721 16.3952V5.62739C16.0721 5.27181 15.7848 4.98453 15.4292 4.98453ZM6.75063 4.6631C6.75063 3.41958 7.7571 2.4131 9.00063 2.4131C10.2442 2.4131 11.2506 3.41958 11.2506 4.6631V4.98453H6.75063V4.6631ZM14.6256 15.5917H3.37563V6.43096H5.3042V8.19882C5.3042 8.28721 5.37652 8.35953 5.46491 8.35953H6.58991C6.67831 8.35953 6.75063 8.28721 6.75063 8.19882V6.43096H11.2506V8.19882C11.2506 8.28721 11.323 8.35953 11.4113 8.35953H12.5363C12.6247 8.35953 12.6971 8.28721 12.6971 8.19882V6.43096H14.6256V15.5917Z" fill="white"/>
</svg>
