<svg width="19" height="18" viewBox="0 0 19 18" fill="none" xmlns="http://www.w3.org/2000/svg">
<g clip-path="url(#clip0)">
<path fill-rule="evenodd" clip-rule="evenodd" d="M8.05993 1.25709C9.01736 0.295478 10.5495 0.253142 11.5336 1.11159L11.6885 1.25607L12.2995 1.86692C12.5094 2.07575 12.7846 2.20451 13.0774 2.23343L13.2038 2.23966H14.0777C15.4409 2.23966 16.5557 3.30555 16.6336 4.6491L16.6379 4.79949V5.67231C16.6379 5.96959 16.7405 6.25539 16.9254 6.48263L17.0097 6.5763L17.6207 7.18719C18.5825 8.1445 18.6255 9.67537 17.7443 10.6842L17.6293 10.8075L17.0102 11.4266C16.802 11.6353 16.6731 11.9107 16.6442 12.2032L16.6379 12.3294V13.2039C16.6379 14.5669 15.5719 15.6807 14.2281 15.7586L14.0777 15.7629H13.2038C12.9076 15.7629 12.6214 15.8658 12.394 16.0513L12.3002 16.1357L11.6901 16.745C10.7336 17.7077 9.2014 17.7505 8.19198 16.8691L8.06095 16.7465L7.45139 16.137C7.24025 15.9274 6.96448 15.7982 6.67249 15.7691L6.5465 15.7629H5.67183C4.30914 15.7629 3.19464 14.6976 3.11677 13.3543L3.11242 13.2039V12.3294C3.11242 12.0337 3.00932 11.7472 2.82394 11.5203L2.73952 11.4268L2.12995 10.8165C1.16724 9.85935 1.12454 8.32734 2.00602 7.31909L2.12102 7.19586L2.73824 6.5779C2.94815 6.36653 3.0772 6.09133 3.10619 5.79867L3.11242 5.67231V4.79949L3.11677 4.64912C3.19176 3.35546 4.22807 2.31901 5.52149 2.24401L5.67183 2.23966H6.5465C6.84272 2.23966 7.12898 2.13692 7.35597 1.95235L7.44948 1.8683L8.05993 1.25709ZM10.87 2.09579L10.8359 2.06412C10.3617 1.59215 9.61245 1.56451 9.10487 1.9805L9.00673 2.06962L8.3897 2.68741C7.9472 3.12672 7.36194 3.38939 6.74406 3.43012L6.57482 3.43569H5.69452C5.02076 3.43569 4.46664 3.95247 4.40715 4.61135L4.40187 4.72902V5.6075C4.40187 6.23121 4.17549 6.83096 3.76718 7.29976L3.65134 7.42429L3.02925 8.04715C2.55718 8.5213 2.52969 9.27033 2.94688 9.77847L3.03624 9.87673L3.65156 10.4928C4.09163 10.9339 4.35537 11.5201 4.39627 12.1384L4.40187 12.3077V13.1879C4.40187 13.8619 4.91833 14.4156 5.5769 14.4751L5.69452 14.4803H6.57482C7.19744 14.4803 7.79778 14.7069 8.26675 15.1153L8.39131 15.2311L9.0101 15.8498C9.48765 16.3246 10.237 16.3523 10.7447 15.9351L10.8429 15.8458L11.4596 15.23C11.9017 14.7901 12.4872 14.5268 13.1056 14.4859L13.275 14.4803H14.1545C14.8292 14.4803 15.3832 13.9642 15.4427 13.3055L15.448 13.1879V12.3077C15.448 11.6842 15.6745 11.0829 16.0823 10.6162L16.198 10.4923L16.8204 9.87C17.2924 9.39531 17.3198 8.64665 16.9032 8.13871L16.8139 8.04048L16.1964 7.42299C15.7567 6.98027 15.4943 6.39568 15.4536 5.777L15.448 5.6075V4.72902C15.448 4.05464 14.9312 3.50047 14.2722 3.44098L14.1545 3.43569H13.275C12.6512 3.43569 12.0506 3.20954 11.5828 2.80155L11.4585 2.68581L10.87 2.09579ZM11.6058 11.6383C11.7248 11.7572 11.8863 11.8252 12.0563 11.8252C12.2263 11.8252 12.3878 11.7572 12.5068 11.6383C12.5663 11.5788 12.6173 11.5023 12.6513 11.4258C12.6768 11.3493 12.6938 11.2737 12.6938 11.1878C12.6938 11.1028 12.6768 11.0178 12.6513 10.9414C12.6173 10.8649 12.5663 10.7969 12.5068 10.7374C12.2688 10.4994 11.8438 10.4994 11.6058 10.7374C11.5463 10.7969 11.5038 10.8649 11.4698 10.9414C11.4358 11.0178 11.4188 11.1028 11.4188 11.1878C11.4188 11.2737 11.4358 11.3493 11.4698 11.4258C11.5038 11.5023 11.5463 11.5788 11.6058 11.6383ZM7.68777 7.45702C7.60277 7.45702 7.52627 7.43917 7.44977 7.40518C7.37327 7.37118 7.29677 7.32954 7.23726 7.27005C7.17776 7.20206 7.13526 7.13407 7.10126 7.05758C7.06726 6.98024 7.05026 6.9046 7.05026 6.81961C7.05026 6.73378 7.06726 6.64964 7.10126 6.57315C7.13526 6.49666 7.17776 6.42017 7.23726 6.36918C7.48377 6.13036 7.90028 6.13036 8.13828 6.36918C8.25729 6.48731 8.32529 6.64964 8.32529 6.81961C8.32529 6.9046 8.31679 6.98024 8.28279 7.05758C8.24879 7.13407 8.19779 7.20206 8.13828 7.27005C8.07878 7.32954 8.01078 7.37118 7.93428 7.40518C7.85778 7.43917 7.77278 7.45702 7.68777 7.45702ZM12.3727 6.56056C12.139 6.327 11.7603 6.327 11.5267 6.56056L7.42716 10.6593L7.36924 10.7264C7.19548 10.9605 7.21479 11.2928 7.42716 11.5051C7.66076 11.7387 8.03951 11.7387 8.27311 11.5051L12.3727 7.40636L12.4306 7.33928C12.6043 7.10515 12.585 6.77289 12.3727 6.56056Z" fill="white"/>
</g>
<defs>
<clipPath id="clip0">
<rect width="18" height="18" fill="white" transform="translate(0.875)"/>
</clipPath>
</defs>
</svg>
