<svg width="18" height="18" viewBox="0 0 18 18" fill="none" xmlns="http://www.w3.org/2000/svg">
<path fill-rule="evenodd" clip-rule="evenodd" d="M13.707 1.24532C13.707 1.10983 13.8168 1 13.9523 1H14.9949C15.1304 1 15.2402 1.10983 15.2402 1.24532V3.33049C15.2402 3.46598 15.1304 3.57581 14.9949 3.57581H13.9523C13.8168 3.57581 13.707 3.46598 13.707 3.33049V1.24532ZM0.797274 12.5911C0.814984 12.7151 0.873603 12.747 0.92588 12.7755C0.964122 12.7963 0.99897 12.8153 1.01193 12.8671V14.5843C1.01193 14.707 1.10392 14.8296 1.19591 14.8296C1.31857 14.8296 1.41056 14.707 1.41056 14.5843V12.8671C1.54982 12.7279 1.78744 12.4287 2.01357 12.1441C2.10281 12.0317 2.19026 11.9216 2.26917 11.8245C2.6678 11.3339 3.90355 10.0323 5.70358 9.18739C7.20613 8.48211 10.1313 8.5254 10.9779 9.31005C12.2351 10.4753 12.3884 11.8245 12.4497 12.6831C12.5372 13.907 12.3548 14.7727 12.1788 15.6077C12.1343 15.8187 12.0903 16.0278 12.0511 16.2402H0.245315C0 16.3015 0 16.4549 0 16.5775C0 16.7308 0.153322 16.8228 0.245315 16.8228H17.6934C17.7547 16.8126 17.908 16.7308 17.908 16.5469C17.908 16.3751 17.7853 16.2709 17.6934 16.2402H16.5281V8.17547H17.448V10.506C17.4787 10.6593 17.5707 10.782 17.7547 10.782C17.908 10.782 18 10.5673 18 10.506V5.23167C18 5.17037 17.9387 5.01705 17.724 5.01705C17.54 5.01705 17.4685 5.13968 17.448 5.23167V7.59284H16.5281C16.521 7.30701 16.5238 6.86673 16.5262 6.50164C16.5272 6.34449 16.5281 6.20127 16.5281 6.0903C16.5281 5.10904 15.7308 4.25045 14.7189 4.12777C13.7325 4.00818 13.3289 4.35481 12.9115 4.7132L12.879 4.74105C12.3578 5.18788 9.4753 7.47019 5.30494 6.55025C4.15367 6.2963 2.82286 5.55494 2.05277 5.12594C1.80054 4.98544 1.60847 4.87844 1.50256 4.83305C1.15911 4.68586 0.827939 5.01703 0.797274 5.23167V12.5911ZM14.9336 7.93015C14.9336 8.53983 14.4393 9.03407 13.8297 9.03407C13.22 9.03407 12.7257 8.53983 12.7257 7.93015C12.7257 7.32048 13.22 6.82624 13.8297 6.82624C14.4393 6.82624 14.9336 7.32048 14.9336 7.93015ZM15.4855 7.93015C15.4855 8.84467 14.7442 9.58603 13.8297 9.58603C12.9151 9.58603 12.1738 8.84467 12.1738 7.93015C12.1738 7.01564 12.9151 6.27428 13.8297 6.27428C14.7442 6.27428 15.4855 7.01564 15.4855 7.93015Z" fill="white"/>
</svg>
