<svg width="19" height="19" viewBox="0 0 19 19" fill="none" xmlns="http://www.w3.org/2000/svg">
<path fill-rule="evenodd" clip-rule="evenodd" d="M9.16667 1.375C4.87025 1.375 1.375 4.87025 1.375 9.16667C1.375 13.4631 4.87025 16.9583 9.16667 16.9583C13.4631 16.9583 16.9583 13.4631 16.9583 9.16667C16.9583 4.87025 13.4631 1.375 9.16667 1.375ZM9.16667 18.3333C4.11217 18.3333 0 14.2212 0 9.16667C0 4.11217 4.11217 0 9.16667 0C14.2212 0 18.3333 4.11217 18.3333 9.16667C18.3333 14.2212 14.2212 18.3333 9.16667 18.3333Z" fill="#71767B"/>
<path fill-rule="evenodd" clip-rule="evenodd" d="M9.16659 2.36674C5.41703 2.36674 2.36666 5.41711 2.36666 9.16667C2.36666 12.9162 5.41703 15.9666 9.16659 15.9666C12.9162 15.9666 15.9665 12.9162 15.9665 9.16667C15.9665 5.41711 12.9162 2.36674 9.16659 2.36674ZM9.16667 17.1665C4.75551 17.1665 1.16675 13.5778 1.16675 9.16661C1.16675 4.75545 4.75551 1.16669 9.16667 1.16669C13.5778 1.16669 17.1666 4.75545 17.1666 9.16661C17.1666 13.5778 13.5778 17.1665 9.16667 17.1665Z" fill="#71767B"/>
<path d="M9.16659 2.01674C5.22373 2.01674 2.01666 5.22381 2.01666 9.16667H2.71666C2.71666 5.61041 5.61033 2.71674 9.16659 2.71674V2.01674ZM2.01666 9.16667C2.01666 13.1095 5.22373 16.3166 9.16659 16.3166V15.6166C5.61033 15.6166 2.71666 12.7229 2.71666 9.16667H2.01666ZM9.16659 16.3166C13.1095 16.3166 16.3165 13.1095 16.3165 9.16667H15.6165C15.6165 12.7229 12.7229 15.6166 9.16659 15.6166V16.3166ZM16.3165 9.16667C16.3165 5.22381 13.1095 2.01674 9.16659 2.01674V2.71674C12.7229 2.71674 15.6165 5.61041 15.6165 9.16667H16.3165ZM9.16667 16.8165C4.94881 16.8165 1.51675 13.3845 1.51675 9.16661H0.816748C0.816748 13.7711 4.56221 17.5165 9.16667 17.5165V16.8165ZM1.51675 9.16661C1.51675 4.94875 4.94881 1.51669 9.16667 1.51669V0.816687C4.56221 0.816687 0.816748 4.56215 0.816748 9.16661H1.51675ZM9.16667 1.51669C13.3845 1.51669 16.8166 4.94875 16.8166 9.16661H17.5166C17.5166 4.56215 13.7711 0.816687 9.16667 0.816687V1.51669ZM16.8166 9.16661C16.8166 13.3845 13.3845 16.8165 9.16667 16.8165V17.5165C13.7711 17.5165 17.5166 13.7711 17.5166 9.16661H16.8166Z" fill="white"/>
<path d="M5.04886 6.1665C4.6419 6.1665 4.37588 6.59315 4.55501 6.95857L5.89237 9.68687C6.00801 9.92277 6.06813 10.182 6.06813 10.4447V11.6193C6.06813 11.9215 6.31314 12.1665 6.61538 12.1665C6.91762 12.1665 7.16263 11.9215 7.16263 11.6193V10.4447C7.16263 10.182 7.22275 9.92277 7.33838 9.68687L8.67575 6.95857C8.85487 6.59315 8.58886 6.1665 8.1819 6.1665C7.96712 6.1665 7.772 6.29152 7.68224 6.48664L6.65147 8.72736C6.64499 8.74146 6.63089 8.75049 6.61538 8.75049C6.59986 8.75049 6.58577 8.74146 6.57929 8.72736L5.54851 6.48664C5.45876 6.29152 5.26363 6.1665 5.04886 6.1665Z" fill="#71767B"/>
<path d="M11.6163 12.1665C13.2046 12.1665 14.1667 11.0356 14.1667 9.16065C14.1667 7.2915 13.2046 6.1665 11.6316 6.1665C10.6026 6.1665 9.76838 7.00069 9.76838 8.0297V10.3186C9.76838 11.3392 10.5957 12.1665 11.6163 12.1665ZM11.5705 11.0796C11.1839 11.0796 10.8705 10.7662 10.8705 10.3796V7.95594C10.8705 7.56795 11.185 7.25342 11.573 7.25342C12.5505 7.25342 13.0672 7.82764 13.0672 9.16065C13.0672 10.4995 12.5505 11.0796 11.5705 11.0796Z" fill="#71767B"/>
</svg>
