<svg width="14" height="13" viewBox="0 0 14 13" fill="none" xmlns="http://www.w3.org/2000/svg">
<path d="M6.7894 3.6251C6.77603 3.60803 6.75896 3.59422 6.73947 3.58472C6.71998 3.57523 6.69858 3.57029 6.6769 3.57029C6.65522 3.57029 6.63382 3.57523 6.61433 3.58472C6.59483 3.59422 6.57776 3.60803 6.5644 3.6251L4.5644 6.15546C4.49118 6.24832 4.55725 6.38582 4.6769 6.38582V6.38582C5.40769 6.38582 6.00011 6.97824 6.00011 7.70903L6.00011 12.4287C6.00011 12.5072 6.0644 12.5715 6.14297 12.5715H7.2144C7.29297 12.5715 7.35725 12.5072 7.35725 12.4287L7.35725 7.70725C7.35725 6.97843 7.94808 6.3876 8.6769 6.3876V6.3876C8.79654 6.3876 8.86261 6.2501 8.7894 6.15725L6.7894 3.6251ZM0.141183 4.2501H1.21261C1.29118 4.2501 1.35547 4.18582 1.35547 4.10725V4.10725C1.35547 2.58846 2.58668 1.35725 4.10547 1.35725L9.24833 1.35725C10.7671 1.35725 11.9983 2.58846 11.9983 4.10725V4.10725C11.9983 4.18582 12.0626 4.2501 12.1412 4.2501H13.2126C13.2912 4.2501 13.3555 4.18582 13.3555 4.10725V0.571531C13.3555 0.25546 13.1001 0.000102997 12.784 0.000102997L0.569754 0.000102997C0.253682 0.000102997 -0.00167465 0.25546 -0.00167465 0.571531V4.10725C-0.00167465 4.18582 0.0626115 4.2501 0.141183 4.2501Z" fill="white"/>
</svg>
