<svg width="8" height="14" viewBox="0 0 8 14" fill="none" xmlns="http://www.w3.org/2000/svg">
<path d="M5.28494 10.0618V0H6.63521V11.6553H5.40109L5.28494 10.0618ZM0 7.64119V7.48184C0 6.85456 0.0725953 6.28546 0.217786 5.77453C0.367816 5.25854 0.578342 4.8159 0.849365 4.44661C1.12523 4.07733 1.45191 3.79404 1.8294 3.59675C2.21174 3.3944 2.63763 3.29322 3.10708 3.29322C3.60073 3.29322 4.03146 3.38428 4.39927 3.5664C4.77193 3.74345 5.08651 4.00397 5.34301 4.34797C5.60436 4.6869 5.81004 5.09666 5.96007 5.57724C6.1101 6.05781 6.21416 6.60163 6.27223 7.20867V7.90677C6.219 8.50876 6.11494 9.05004 5.96007 9.53062C5.81004 10.0112 5.60436 10.421 5.34301 10.7599C5.08651 11.0988 4.77193 11.3593 4.39927 11.5415C4.02662 11.7185 3.59105 11.807 3.09256 11.807C2.63279 11.807 2.21174 11.7033 1.8294 11.4959C1.45191 11.2885 1.12523 10.9977 0.849365 10.6233C0.578342 10.249 0.367816 9.80885 0.217786 9.30298C0.0725953 8.79205 0 8.23812 0 7.64119ZM1.35027 7.48184V7.64119C1.35027 8.05095 1.38899 8.43541 1.46642 8.79458C1.5487 9.15375 1.67453 9.46992 1.84392 9.74309C2.01331 10.0163 2.22868 10.2313 2.49002 10.3881C2.75136 10.5398 3.06352 10.6157 3.4265 10.6157C3.87175 10.6157 4.23714 10.5171 4.52269 10.3198C4.81307 10.1225 5.04537 9.86197 5.2196 9.53821C5.39383 9.21445 5.52934 8.86287 5.62613 8.48347V6.65474C5.56806 6.37651 5.48336 6.1084 5.37205 5.85041C5.26558 5.58735 5.12523 5.35465 4.951 5.1523C4.78161 4.9449 4.57108 4.78049 4.31942 4.65908C4.0726 4.53767 3.77979 4.47696 3.44102 4.47696C3.0732 4.47696 2.7562 4.5579 2.49002 4.71978C2.22868 4.8766 2.01331 5.09413 1.84392 5.37236C1.67453 5.64553 1.5487 5.96423 1.46642 6.32846C1.38899 6.68762 1.35027 7.07209 1.35027 7.48184ZM8 1.1458V2.29919H3.37568V1.1458H8ZM7.15064 12.8466V14H0.493648V12.8466H7.15064Z" fill="#262626"/>
</svg>
