<svg width="12" height="12" viewBox="0 0 12 12" fill="none" xmlns="http://www.w3.org/2000/svg">
<path d="M11.3703 1.29375L10.7078 0.63125C10.6843 0.607987 10.6526 0.594938 10.6195 0.594938C10.5865 0.594938 10.5547 0.607987 10.5312 0.63125L0.629688 10.5297C0.606425 10.5532 0.593375 10.5849 0.593375 10.618C0.593375 10.651 0.606425 10.6828 0.629688 10.7063L1.29219 11.3687C1.34062 11.4172 1.42031 11.4172 1.46875 11.3687L11.3687 1.46875C11.4187 1.42188 11.4187 1.34219 11.3703 1.29375ZM2.75 5C3.99062 5 5 3.99062 5 2.75C5 1.50937 3.99062 0.5 2.75 0.5C1.50937 0.5 0.5 1.50937 0.5 2.75C0.5 3.99062 1.50937 5 2.75 5ZM2.75 1.625C3.37031 1.625 3.875 2.12969 3.875 2.75C3.875 3.37031 3.37031 3.875 2.75 3.875C2.12969 3.875 1.625 3.37031 1.625 2.75C1.625 2.12969 2.12969 1.625 2.75 1.625ZM9.25 7C8.00938 7 7 8.00938 7 9.25C7 10.4906 8.00938 11.5 9.25 11.5C10.4906 11.5 11.5 10.4906 11.5 9.25C11.5 8.00938 10.4906 7 9.25 7ZM9.25 10.375C8.62969 10.375 8.125 9.87031 8.125 9.25C8.125 8.62969 8.62969 8.125 9.25 8.125C9.87031 8.125 10.375 8.62969 10.375 9.25C10.375 9.87031 9.87031 10.375 9.25 10.375Z" fill="#262626"/>
</svg>
