<svg width="18" height="18" viewBox="0 0 18 18" fill="none" xmlns="http://www.w3.org/2000/svg">
<path d="M12.6611 10.1858C11.5271 10.1858 10.6075 11.1055 10.6075 12.2394C10.6075 13.3733 11.5271 14.293 12.6611 14.293C13.795 14.293 14.7146 13.3733 14.7146 12.2394C14.7146 11.1055 13.795 10.1858 12.6611 10.1858ZM12.6611 12.9983C12.2414 12.9983 11.9021 12.659 11.9021 12.2394C11.9021 11.8198 12.2414 11.4805 12.6611 11.4805C13.0807 11.4805 13.42 11.8198 13.42 12.2394C13.42 12.659 13.0807 12.9983 12.6611 12.9983ZM17.2146 1.32422H12.4825C12.4825 0.634487 11.9222 0.0742188 11.2325 0.0742188H9.44678C8.75705 0.0742188 8.19678 0.634487 8.19678 1.32422H3.46463C3.06955 1.32422 2.75035 1.64342 2.75035 2.0385V6.50279H0.786063C0.390974 6.50279 0.0717773 6.82199 0.0717773 7.21708V17.2171C0.0717773 17.6122 0.390974 17.9314 0.786063 17.9314H8.28606C8.68115 17.9314 9.00035 17.6122 9.00035 17.2171V16.8599H17.2146C17.6097 16.8599 17.9289 16.5407 17.9289 16.1456V2.0385C17.9289 1.64342 17.6097 1.32422 17.2146 1.32422ZM8.01821 2.75279H9.62535V1.50279H11.0539V2.75279H12.6611V3.82422H8.01821V2.75279ZM7.57178 16.5028H1.50035V11.3242H7.57178V16.5028ZM7.57178 9.89565H1.50035V7.93136H7.57178V9.89565ZM16.3218 15.2528H9.00035V7.21708C9.00035 6.82199 8.68115 6.50279 8.28606 6.50279H4.35749V2.93136H6.58964V5.25279H14.0896V2.93136H16.3218V15.2528ZM13.2861 6.68136V8.82422C13.2861 8.92243 13.3664 9.00279 13.4646 9.00279H14.5361C14.6343 9.00279 14.7146 8.92243 14.7146 8.82422V6.68136C14.7146 6.58315 14.6343 6.50279 14.5361 6.50279H13.4646C13.3664 6.50279 13.2861 6.58315 13.2861 6.68136ZM10.7861 9.00279H11.8575C11.9557 9.00279 12.0361 8.92243 12.0361 8.82422V7.57422C12.0361 7.47601 11.9557 7.39565 11.8575 7.39565H10.7861C10.6878 7.39565 10.6075 7.47601 10.6075 7.57422V8.82422C10.6075 8.92243 10.6878 9.00279 10.7861 9.00279Z" fill="#71767B"/>
</svg>
