<svg width="22" height="22" viewBox="0 0 22 22" fill="none" xmlns="http://www.w3.org/2000/svg">
<mask id="mask0" mask-type="alpha" maskUnits="userSpaceOnUse" x="3" y="13" width="16" height="8">
<path fill-rule="evenodd" clip-rule="evenodd" d="M3.66663 13.2881H18.1865V20.0476H3.66663V13.2881Z" fill="white"/>
</mask>
<g mask="url(#mask0)">
<path fill-rule="evenodd" clip-rule="evenodd" d="M10.9274 14.6631C7.0215 14.6631 5.0415 15.3341 5.0415 16.6587C5.0415 17.9952 7.0215 18.6726 10.9274 18.6726C14.8324 18.6726 16.8115 18.0016 16.8115 16.677C16.8115 15.3405 14.8324 14.6631 10.9274 14.6631ZM10.9274 20.0476C9.13167 20.0476 3.6665 20.0476 3.6665 16.6587C3.6665 13.6373 7.81075 13.2881 10.9274 13.2881C12.7232 13.2881 18.1865 13.2881 18.1865 16.677C18.1865 19.6983 14.0432 20.0476 10.9274 20.0476Z" fill="#95A1AC"/>
</g>
<mask id="mask1" mask-type="alpha" maskUnits="userSpaceOnUse" x="6" y="1" width="10" height="11">
<path fill-rule="evenodd" clip-rule="evenodd" d="M6.05896 1.8335H15.794V11.5672H6.05896V1.8335Z" fill="white"/>
</mask>
<g mask="url(#mask1)">
<path fill-rule="evenodd" clip-rule="evenodd" d="M10.9274 3.14201C8.96482 3.14201 7.36799 4.73793 7.36799 6.70051C7.36157 8.65668 8.94649 10.2517 10.9008 10.259L10.9274 10.9135V10.259C12.8891 10.259 14.485 8.66218 14.485 6.70051C14.485 4.73793 12.8891 3.14201 10.9274 3.14201ZM10.9274 11.5671H10.8981C8.21957 11.5588 6.04982 9.37442 6.05899 6.69776C6.05899 4.01651 8.24249 1.83301 10.9274 1.83301C13.6114 1.83301 15.794 4.01651 15.794 6.70051C15.794 9.38451 13.6114 11.5671 10.9274 11.5671Z" fill="#95A1AC"/>
</g>
</svg>
