<svg width="14" height="14" viewBox="0 0 14 14" fill="none" xmlns="http://www.w3.org/2000/svg">
<path d="M12.7049 2.73164L11.0409 1.06914C10.8377 0.866016 10.5659 0.751953 10.2784 0.751953C9.99087 0.751953 9.719 0.864453 9.51587 1.06914L7.72368 2.8582C7.52056 3.06133 7.4065 3.33477 7.4065 3.62227C7.4065 3.91133 7.51899 4.18164 7.72368 4.38633L9.12368 5.78789C8.80475 6.53099 8.3465 7.20617 7.77368 7.77695C7.20024 8.35352 6.52993 8.8082 5.78618 9.13008L4.38618 7.72852C4.18306 7.52539 3.91118 7.41133 3.62368 7.41133C3.48187 7.4108 3.34139 7.43859 3.21046 7.49305C3.07952 7.54752 2.96078 7.62757 2.86118 7.72852L1.06743 9.51758C0.864307 9.7207 0.750244 9.99414 0.750244 10.2816C0.750244 10.5707 0.862744 10.841 1.06743 11.0457L2.72993 12.7082C3.07681 13.0551 3.55493 13.2535 4.04556 13.2535C4.14712 13.2535 4.24556 13.2457 4.34556 13.2285C6.41431 12.8879 8.46743 11.7863 10.1252 10.1301C11.7815 8.4707 12.8815 6.41758 13.2252 4.34727C13.3237 3.75977 13.1268 3.15508 12.7049 2.73164ZM12.1174 4.16133C11.8127 6.00352 10.8221 7.84102 9.32993 9.3332C7.83774 10.8254 6.00181 11.816 4.15962 12.1207C3.92837 12.1598 3.69087 12.0816 3.52212 11.9145L1.88931 10.2816L3.62056 8.54883L5.49243 10.4238L5.50649 10.4379L5.84399 10.3129C6.86732 9.93665 7.7966 9.34239 8.56742 8.5713C9.33824 7.80021 9.93217 6.87072 10.3081 5.84727L10.4331 5.50977L8.54556 3.62383L10.2768 1.89102L11.9096 3.52383C12.0784 3.69258 12.1565 3.93008 12.1174 4.16133Z" fill="#757575"/>
</svg>
