<svg width="15" height="15" viewBox="0 0 15 15" fill="none" xmlns="http://www.w3.org/2000/svg">
<circle cx="7.5" cy="7.5" r="7" fill="white" stroke="#FCAF17"/>
<path d="M7.5 -3.27835e-07C6.51509 -2.84783e-07 5.53982 0.193993 4.62987 0.570904C3.71993 0.947814 2.89314 1.50026 2.1967 2.1967C1.50026 2.89314 0.947813 3.71993 0.570903 4.62987C0.193993 5.53982 -4.13939e-07 6.51509 -3.27835e-07 7.5C-2.41731e-07 8.48491 0.193993 9.46018 0.570903 10.3701C0.947814 11.2801 1.50026 12.1069 2.1967 12.8033C2.89314 13.4997 3.71993 14.0522 4.62987 14.4291C5.53982 14.806 6.51509 15 7.5 15L7.5 7.5L7.5 -3.27835e-07Z" fill="#FCAF17"/>
</svg>
