<svg width="14" height="18" viewBox="0 0 14 18" fill="none" xmlns="http://www.w3.org/2000/svg">
<path d="M1.49979 13.7159H7.25059L7.32803 13.7933C7.38144 14.1752 7.56657 14.5134 7.83449 14.7627L7.83716 16.0151C7.83894 16.6658 8.36854 17.1945 9.01918 17.1945C9.02007 17.1945 9.02096 17.1945 9.02185 17.1945L11.3815 17.1892C12.033 17.1874 12.5626 16.656 12.5608 16.0044L12.5581 14.7947C12.5884 14.7689 12.6178 14.7413 12.6463 14.7128C12.9542 14.404 13.1233 13.9936 13.1216 13.5566L13.1189 12.5213L13.1153 10.9102C13.1144 10.3824 12.6863 9.95424 12.1567 9.95602C11.9751 9.95602 11.8051 10.0076 11.6601 10.0967C11.6236 10.0415 11.5817 9.98984 11.5337 9.94178C11.4153 9.82428 11.272 9.74239 11.1162 9.69877V3.50085C11.1162 3.37534 11.0628 3.25607 10.9702 3.1724L7.59149 0.114826C7.50961 0.0409457 7.40369 0 7.29421 0H1.49979C0.672901 0 0 0.672932 0 1.49986V12.2169C0 13.043 0.672901 13.7159 1.49979 13.7159ZM7.60129 1.31916L9.67339 3.19465H7.60129V1.31916ZM11.2026 10.9156C11.2026 11.0847 11.3405 11.2218 11.5096 11.2218H11.5105C11.6796 11.2218 11.8167 11.0838 11.8167 10.9138C11.8167 10.7251 11.9698 10.5711 12.1585 10.5702C12.3472 10.5666 12.5012 10.7233 12.5021 10.912L12.5056 12.5231L12.5083 13.5583C12.5092 13.8307 12.4033 14.0871 12.211 14.2793C12.2021 14.2882 12.1923 14.2963 12.1825 14.3052L8.25371 14.3141C8.06769 14.1423 7.94575 13.9019 7.92794 13.6322C7.92349 13.5575 7.89145 13.4871 7.83805 13.4346L6.30177 11.9045C6.16826 11.771 6.16737 11.5538 6.30088 11.4194C6.36763 11.3526 6.45575 11.3188 6.54387 11.3188C6.6311 11.3188 6.71922 11.3517 6.78597 11.4185L7.39746 12.0273C7.48558 12.1146 7.61731 12.1404 7.73213 12.0932C7.84695 12.0451 7.92082 11.933 7.92082 11.8093L7.91192 7.36398C7.91192 7.2723 7.94753 7.18596 8.01161 7.12098C8.07659 7.056 8.16204 7.02039 8.25371 7.02039H8.2546C8.34628 7.02039 8.43173 7.056 8.49671 7.12009C8.56168 7.18507 8.59729 7.27052 8.59729 7.3622L8.60263 10.2978C8.60263 10.2987 8.60263 10.2987 8.60263 10.2996C8.60263 10.4687 8.74059 10.6058 8.9097 10.6058C8.9097 10.6058 8.9097 10.6058 8.91059 10.6058C9.07971 10.6058 9.21678 10.4678 9.21678 10.2987C9.21589 10.11 9.36988 9.95602 9.55857 9.95513H9.55946C9.74816 9.95513 9.90214 10.1082 9.90214 10.2969L9.90303 10.6218C9.90303 10.791 10.041 10.928 10.2101 10.928H10.211C10.3801 10.928 10.5172 10.7901 10.5172 10.62C10.5172 10.5284 10.5528 10.442 10.6169 10.3779C10.6819 10.313 10.7673 10.2774 10.859 10.2774H10.8599C10.9515 10.2774 11.037 10.313 11.102 10.377C11.1669 10.442 11.2026 10.5275 11.2026 10.6192V10.9156ZM11.9467 16.0053C11.9475 16.3186 11.693 16.5741 11.3797 16.575L9.02007 16.5803C9.01918 16.5803 9.01918 16.5803 9.01918 16.5803C8.70677 16.5803 8.4522 16.3266 8.45131 16.0133L8.44864 14.9282L11.9449 14.9202L11.9467 16.0053ZM0.88652 1.49897C0.88652 1.16072 1.16155 0.885672 1.49979 0.885672H6.98802V3.80705H10.2306V9.61688C10.0579 9.44687 9.82115 9.34094 9.55946 9.34094C9.55857 9.34094 9.55768 9.34094 9.55768 9.34094C9.43841 9.34094 9.32359 9.3632 9.21589 9.40414L9.21233 7.36131C9.21144 7.10585 9.11175 6.86551 8.93107 6.68571C8.75038 6.5059 8.51095 6.4071 8.25638 6.4071C8.2555 6.4071 8.2546 6.4071 8.2546 6.4071C7.99915 6.40799 7.75883 6.50768 7.57903 6.68838C7.39835 6.86907 7.29955 7.1103 7.30044 7.36487L7.30756 11.0696L7.22122 10.9832C6.84739 10.6111 6.24035 10.6129 5.8683 10.9859C5.49625 11.3597 5.49803 11.9668 5.87097 12.3389L6.36229 12.8276H1.50246C1.16422 12.8276 0.88919 12.5525 0.88919 12.2143V1.49897H0.88652Z" fill="#757575"/>
<path d="M3.01468 6.41795L5.07789 4.35464C5.19805 4.23448 5.19805 4.04043 5.07789 3.92026C4.95773 3.8001 4.76369 3.8001 4.64353 3.92026L3.01468 5.54919L2.49488 5.02936C2.37472 4.90919 2.18068 4.90919 2.06052 5.02936C1.94036 5.14952 1.94036 5.34357 2.06052 5.46374L3.01468 6.41795Z" fill="#757575"/>
<path d="M3.01468 8.99528L5.07789 6.93198C5.19805 6.81181 5.19805 6.61776 5.07789 6.4976C4.95773 6.37743 4.76369 6.37743 4.64353 6.4976L3.01468 8.12652L2.49488 7.60669C2.37472 7.48652 2.18068 7.48652 2.06052 7.60669C1.94036 7.72686 1.94036 7.9209 2.06052 8.04107L3.01468 8.99528Z" fill="#757575"/>
<path d="M3.01468 11.5732L5.07789 9.50986C5.19805 9.38969 5.19805 9.19564 5.07789 9.07548C4.95773 8.95531 4.76369 8.95531 4.64353 9.07548L3.01468 10.7044L2.49488 10.1846C2.37472 10.0644 2.18068 10.0644 2.06052 10.1846C1.94036 10.3047 1.94036 10.4988 2.06052 10.6189L3.01468 11.5732Z" fill="#757575"/>
<path d="M6.37831 5.85088H9.35384C9.52296 5.85088 9.66092 5.7138 9.66092 5.54379C9.66092 5.37466 9.52385 5.23669 9.35384 5.23669H6.37831C6.20919 5.23669 6.07123 5.37377 6.07123 5.54379C6.07212 5.71291 6.20919 5.85088 6.37831 5.85088Z" fill="#757575"/>
</svg>
