<svg width="20" height="18" viewBox="0 0 20 18" fill="none" xmlns="http://www.w3.org/2000/svg">
<path d="M16.875 7.30636H15.9821C15.8839 7.30636 15.8036 7.38672 15.8036 7.48493V8.37779C15.8036 8.47601 15.8839 8.55636 15.9821 8.55636H16.875C16.9732 8.55636 17.0536 8.47601 17.0536 8.37779V7.48493C17.0536 7.38672 16.9732 7.30636 16.875 7.30636ZM17.5893 4.98493H14.9107V0.25279C14.9107 0.154576 14.8304 0.0742188 14.7321 0.0742188H5.26786C5.16964 0.0742188 5.08929 0.154576 5.08929 0.25279V4.98493H2.41071C1.42411 4.98493 0.625 5.78404 0.625 6.77065V14.0921C0.625 14.4872 0.944196 14.8064 1.33929 14.8064H5.08929V17.7528C5.08929 17.851 5.16964 17.9314 5.26786 17.9314H14.7321C14.8304 17.9314 14.9107 17.851 14.9107 17.7528V14.8064H18.6607C19.0558 14.8064 19.375 14.4872 19.375 14.0921V6.77065C19.375 5.78404 18.5759 4.98493 17.5893 4.98493ZM6.60714 1.59208H13.3929V4.98493H6.60714V1.59208ZM13.3929 16.4135H6.60714V10.2528H13.3929V16.4135ZM17.8571 13.2885H14.9107V8.73493H5.08929V13.2885H2.14286V6.77065C2.14286 6.62333 2.26339 6.50279 2.41071 6.50279H17.5893C17.7366 6.50279 17.8571 6.62333 17.8571 6.77065V13.2885Z" fill="#71767B"/>
</svg>
