<svg width="18" height="18" viewBox="0 0 18 18" fill="none" xmlns="http://www.w3.org/2000/svg">
<path d="M15.1875 7.47377H14.3839C14.2955 7.47377 14.2232 7.54609 14.2232 7.63449V8.43806C14.2232 8.52645 14.2955 8.59877 14.3839 8.59877H15.1875C15.2759 8.59877 15.3482 8.52645 15.3482 8.43806V7.63449C15.3482 7.54609 15.2759 7.47377 15.1875 7.47377ZM15.8304 5.38449H13.4196V1.12556C13.4196 1.03717 13.3473 0.964844 13.2589 0.964844H4.74107C4.65268 0.964844 4.58036 1.03717 4.58036 1.12556V5.38449H2.16964C1.2817 5.38449 0.5625 6.10368 0.5625 6.99163V13.5809C0.5625 13.9365 0.849777 14.2238 1.20536 14.2238H4.58036V16.8756C4.58036 16.964 4.65268 17.0363 4.74107 17.0363H13.2589C13.3473 17.0363 13.4196 16.964 13.4196 16.8756V14.2238H16.7946C17.1502 14.2238 17.4375 13.9365 17.4375 13.5809V6.99163C17.4375 6.10368 16.7183 5.38449 15.8304 5.38449ZM5.94643 2.33092H12.0536V5.38449H5.94643V2.33092ZM12.0536 15.6702H5.94643V10.1256H12.0536V15.6702ZM16.0714 12.8577H13.4196V8.75949H4.58036V12.8577H1.92857V6.99163C1.92857 6.85904 2.03705 6.75056 2.16964 6.75056H15.8304C15.9629 6.75056 16.0714 6.85904 16.0714 6.99163V12.8577Z" fill="#2A2A86"/>
</svg>
