<svg width="18" height="18" viewBox="0 0 18 18" fill="none" xmlns="http://www.w3.org/2000/svg">
<path d="M17.6378 10.8803L17.6378 10.8803C17.3346 10.4546 16.8838 10.1724 16.3684 10.0858C15.8597 10.0003 15.3483 10.1157 14.9258 10.4102V0.771118H3.63191V10.6687H0V17.2291H12.0835L17.1791 13.6091C18.0579 12.9833 18.2637 11.7591 17.6378 10.8803ZM16.5677 12.7497L11.747 16.1743H4.69986V11.4044C5.2401 10.8561 5.81936 10.6193 6.60257 10.6193C7.13577 10.6193 7.73919 10.8048 8.10409 11.081L8.24529 11.1879H12.218C12.6425 11.1879 12.9879 11.5445 12.9879 11.9829C12.9879 12.4213 12.6425 12.7779 12.218 12.7779H9.94847V13.8327H12.218C13.0964 13.8327 13.8316 13.2002 14.0042 12.3609L15.5208 11.2807C15.717 11.141 15.9559 11.086 16.1935 11.1259C16.4311 11.1659 16.6389 11.2959 16.7787 11.4922V11.4921C17.0672 11.8972 16.9723 12.4615 16.5677 12.7497ZM3.64513 16.1743H1.05473V11.7234H3.64513V16.1743ZM10.0701 1.82585V5.8812H8.48756V1.82585H10.0701ZM11.1248 6.9359V1.82585H13.871V11.1608L13.8569 11.1708C13.5597 10.5568 12.9369 10.1331 12.218 10.1331H8.58828C8.04545 9.77957 7.30281 9.56458 6.60257 9.56458C5.87417 9.56458 5.24681 9.72866 4.68664 10.0715V1.82585H7.43282V6.93594H11.1248V6.9359Z" fill="#222222"/>
</svg>
