<svg width="22" height="24" viewBox="0 0 22 24" fill="none" xmlns="http://www.w3.org/2000/svg">
<path d="M21.6363 3.89196L20.1256 5.07321C18.0658 2.44018 14.8622 0.75 11.2649 0.75C5.0533 0.75 0.0256234 5.77232 0.0175877 11.9866C0.00955201 18.2063 5.04795 23.25 11.2649 23.25C16.1212 23.25 20.2596 20.1696 21.8346 15.8545C21.8747 15.742 21.8158 15.6161 21.7033 15.5786L20.1846 15.0563C20.1316 15.0381 20.0736 15.0414 20.0231 15.0654C19.9725 15.0894 19.9334 15.1323 19.914 15.1848C19.8658 15.3188 19.8122 15.4527 19.756 15.5839C19.2926 16.6821 18.6283 17.6679 17.7819 18.5143C16.9423 19.3555 15.9482 20.0267 14.8542 20.4911C13.7212 20.9705 12.5131 21.2143 11.2703 21.2143C10.0247 21.2143 8.81937 20.9705 7.68634 20.4911C6.59127 20.0286 5.59684 19.3572 4.75866 18.5143C3.91679 17.6748 3.24629 16.6795 2.78455 15.5839C2.30509 14.4482 2.06134 13.2429 2.06134 11.9973C2.06134 10.7518 2.30509 9.54643 2.78455 8.41072C3.24795 7.3125 3.91223 6.32679 4.75866 5.48036C5.60509 4.63393 6.5908 3.96964 7.68634 3.50357C8.81937 3.02411 10.0274 2.78036 11.2703 2.78036C12.5158 2.78036 13.7212 3.02411 14.8542 3.50357C15.9493 3.96601 16.9437 4.63746 17.7819 5.48036C18.0471 5.74554 18.2962 6.02679 18.5265 6.32143L16.914 7.58036C16.8821 7.60504 16.8578 7.63822 16.8439 7.6761C16.8301 7.71397 16.8271 7.75499 16.8355 7.79444C16.8439 7.8339 16.8633 7.87018 16.8914 7.89912C16.9195 7.92806 16.9552 7.94848 16.9944 7.95804L21.6979 9.10982C21.8319 9.14196 21.9631 9.04018 21.9631 8.90357L21.9846 4.05804C21.9819 3.88125 21.7756 3.78214 21.6363 3.89196Z" fill="#757575"/>
</svg>
