<svg width="19" height="19" viewBox="0 0 19 19" fill="none" xmlns="http://www.w3.org/2000/svg">
    <path fill-rule="evenodd" clip-rule="evenodd" d="M5.93408 14.6356C5.58908 14.6356 5.30908 14.3556 5.30908 14.0106V8.29395C5.30908 7.94895 5.58908 7.66895 5.93408 7.66895C6.27908 7.66895 6.55908 7.94895 6.55908 8.29395V14.0106C6.55908 14.3556 6.27908 14.6356 5.93408 14.6356Z" fill="#95A1AC"/>
    <path fill-rule="evenodd" clip-rule="evenodd" d="M9.82324 14.6346C9.47824 14.6346 9.19824 14.3546 9.19824 14.0096V5.55713C9.19824 5.21213 9.47824 4.93213 9.82324 4.93213C10.1682 4.93213 10.4482 5.21213 10.4482 5.55713V14.0096C10.4482 14.3546 10.1682 14.6346 9.82324 14.6346Z" fill="#95A1AC"/>
    <path fill-rule="evenodd" clip-rule="evenodd" d="M13.6487 14.6349C13.3037 14.6349 13.0237 14.3549 13.0237 14.0099V11.3149C13.0237 10.9699 13.3037 10.6899 13.6487 10.6899C13.9937 10.6899 14.2737 10.9699 14.2737 11.3149V14.0099C14.2737 14.3549 13.9937 14.6349 13.6487 14.6349Z" fill="#95A1AC"/>
    <path fill-rule="evenodd" clip-rule="evenodd" d="M5.88659 2.0835C3.57659 2.0835 2.08325 3.66433 2.08325 6.11266V13.471C2.08325 15.9193 3.57659 17.5002 5.88659 17.5002H13.6966C16.0074 17.5002 17.4999 15.9193 17.4999 13.471V6.11266C17.4999 3.66433 16.0074 2.0835 13.6966 2.0835H5.88659ZM13.6966 18.7502H5.88659C2.86409 18.7502 0.833252 16.6285 0.833252 13.471V6.11266C0.833252 2.95516 2.86409 0.833496 5.88659 0.833496H13.6966C16.7191 0.833496 18.7499 2.95516 18.7499 6.11266V13.471C18.7499 16.6285 16.7191 18.7502 13.6966 18.7502Z" fill="#95A1AC"/>
</svg>
