<svg width="18" height="18" viewBox="0 0 18 18" fill="none" xmlns="http://www.w3.org/2000/svg">
<path fill-rule="evenodd" clip-rule="evenodd" d="M13.0464 11.9821C14.889 9.61567 14.7225 6.19209 12.5472 4.0167C10.1915 1.6611 6.37232 1.6611 4.01671 4.0167C1.6611 6.37231 1.6611 10.1915 4.01671 12.5471C6.1921 14.7225 9.61572 14.8889 11.9821 13.0464C11.9923 13.0579 12.0029 13.0692 12.0139 13.0802L15.2129 16.2791C15.5073 16.5736 15.9847 16.5736 16.2792 16.2791C16.5736 15.9847 16.5736 15.5073 16.2792 15.2128L13.0803 12.014C13.0692 12.003 13.0579 11.9923 13.0464 11.9821ZM11.432 5.06802C13.1894 6.82538 13.1894 9.6746 11.432 11.432C9.67463 13.1893 6.82538 13.1893 5.06802 11.432C3.31066 9.6746 3.31066 6.82538 5.06802 5.06802C6.82538 3.31066 9.67463 3.31066 11.432 5.06802Z" fill="#71767B"/>
</svg>
