<svg width="18" height="18" viewBox="0 0 18 18" fill="none" xmlns="http://www.w3.org/2000/svg">
<g clip-path="url(#clip0)">
<path d="M17.6378 10.8802L17.6378 10.8801C17.3346 10.4544 16.8838 10.1723 16.3684 10.0856C15.8597 10.0002 15.3483 10.1156 14.9258 10.4101V0.770996H3.63191V10.6686H0V17.2289H12.0835L17.1791 13.609C18.0579 12.9831 18.2637 11.759 17.6378 10.8802ZM16.5677 12.7495L11.747 16.1742H4.69986V11.4043C5.2401 10.856 5.81936 10.6192 6.60257 10.6192C7.13577 10.6192 7.73919 10.8047 8.10409 11.0809L8.24529 11.1877H12.218C12.6425 11.1877 12.9879 11.5444 12.9879 11.9828C12.9879 12.4211 12.6425 12.7778 12.218 12.7778H9.94847V13.8326H12.218C13.0964 13.8326 13.8316 13.2001 14.0042 12.3608L15.5208 11.2806C15.717 11.1409 15.9559 11.0858 16.1935 11.1258C16.4311 11.1658 16.6389 11.2958 16.7787 11.4921V11.492C17.0672 11.8971 16.9723 12.4614 16.5677 12.7495ZM3.64513 16.1742H1.05473V11.7233H3.64513V16.1742ZM10.0701 1.82573V5.88108H8.48756V1.82573H10.0701ZM11.1248 6.93578V1.82573H13.871V11.1607L13.8569 11.1707C13.5597 10.5567 12.9369 10.133 12.218 10.133H8.58828C8.04545 9.77945 7.30281 9.56446 6.60257 9.56446C5.87417 9.56446 5.24681 9.72854 4.68664 10.0714V1.82573H7.43282V6.93582H11.1248V6.93578Z" fill="#222222"/>
</g>
<defs>
<clipPath id="clip0">
<rect width="18" height="18" fill="white"/>
</clipPath>
</defs>
</svg>
