<svg width="20" height="20" viewBox="0 0 20 20" fill="none" xmlns="http://www.w3.org/2000/svg">
<path d="M16.5836 10.5501C16.45 10.398 16.3763 10.2025 16.3763 10.0001C16.3763 9.79769 16.45 9.60219 16.5836 9.45012L17.6502 8.25012C17.7678 8.11901 17.8408 7.95404 17.8587 7.77887C17.8767 7.60371 17.8387 7.42736 17.7502 7.27512L16.0836 4.39178C15.996 4.23972 15.8626 4.11918 15.7025 4.04735C15.5424 3.97553 15.3637 3.95608 15.1919 3.99178L13.6252 4.30845C13.4259 4.34964 13.2184 4.31644 13.0418 4.21512C12.8653 4.11379 12.7319 3.95135 12.6669 3.75845L12.1586 2.23345C12.1027 2.06793 11.9962 1.92417 11.8541 1.82248C11.712 1.7208 11.5416 1.66633 11.3669 1.66678H8.03357C7.85185 1.6573 7.67202 1.70755 7.52154 1.80988C7.37107 1.9122 7.25822 2.06097 7.20024 2.23345L6.73357 3.75845C6.66857 3.95135 6.53522 4.11379 6.35867 4.21512C6.18212 4.31644 5.97459 4.34964 5.77524 4.30845L4.16691 3.99178C4.00403 3.96877 3.83799 3.99447 3.6897 4.06565C3.5414 4.13683 3.41749 4.25031 3.33357 4.39178L1.66691 7.27512C1.57621 7.42566 1.53542 7.60102 1.55039 7.77614C1.56536 7.95125 1.63531 8.11715 1.75024 8.25012L2.80857 9.45012C2.94217 9.60219 3.01585 9.79769 3.01585 10.0001C3.01585 10.2025 2.94217 10.398 2.80857 10.5501L1.75024 11.7501C1.63531 11.8831 1.56536 12.049 1.55039 12.2241C1.53542 12.3992 1.57621 12.5746 1.66691 12.7251L3.33357 15.6084C3.42115 15.7605 3.5545 15.8811 3.71462 15.9529C3.87473 16.0247 4.05343 16.0442 4.22524 16.0084L5.79191 15.6918C5.99125 15.6506 6.19878 15.6838 6.37533 15.7851C6.55188 15.8864 6.68524 16.0489 6.75024 16.2418L7.25857 17.7668C7.31656 17.9393 7.4294 18.088 7.57988 18.1904C7.73035 18.2927 7.91018 18.3429 8.09191 18.3335H11.4252C11.5999 18.3339 11.7704 18.2794 11.9124 18.1777C12.0545 18.0761 12.161 17.9323 12.2169 17.7668L12.7252 16.2418C12.7902 16.0489 12.9236 15.8864 13.1001 15.7851C13.2767 15.6838 13.4842 15.6506 13.6836 15.6918L15.2502 16.0084C15.4221 16.0442 15.6008 16.0247 15.7609 15.9529C15.921 15.8811 16.0543 15.7605 16.1419 15.6084L17.8086 12.7251C17.8971 12.5729 17.935 12.3965 17.9171 12.2214C17.8991 12.0462 17.8261 11.8812 17.7086 11.7501L16.5836 10.5501ZM15.3419 11.6668L16.0086 12.4168L14.9419 14.2668L13.9586 14.0668C13.3584 13.9441 12.734 14.046 12.2041 14.3533C11.6741 14.6605 11.2754 15.1517 11.0836 15.7334L10.7669 16.6668H8.63357L8.33357 15.7168C8.14178 15.135 7.74306 14.6439 7.21308 14.3366C6.6831 14.0294 6.05876 13.9274 5.45857 14.0501L4.47524 14.2501L3.39191 12.4085L4.05857 11.6584C4.46853 11.2001 4.69518 10.6067 4.69518 9.99178C4.69518 9.37684 4.46853 8.78347 4.05857 8.32512L3.39191 7.57512L4.45857 5.74178L5.44191 5.94178C6.04209 6.06447 6.66643 5.96252 7.19641 5.65528C7.72639 5.34805 8.12512 4.85692 8.31691 4.27512L8.63357 3.33345H10.7669L11.0836 4.28345C11.2754 4.86525 11.6741 5.35638 12.2041 5.66361C12.734 5.97085 13.3584 6.0728 13.9586 5.95012L14.9419 5.75012L16.0086 7.60012L15.3419 8.35012C14.9365 8.80742 14.7127 9.39735 14.7127 10.0084C14.7127 10.6195 14.9365 11.2095 15.3419 11.6668ZM9.70024 6.66678C9.04097 6.66678 8.3965 6.86228 7.84834 7.22855C7.30017 7.59482 6.87293 8.11542 6.62064 8.7245C6.36835 9.33359 6.30234 10.0038 6.43095 10.6504C6.55957 11.297 6.87704 11.891 7.34322 12.3571C7.80939 12.8233 8.40333 13.1408 9.04994 13.2694C9.69654 13.398 10.3668 13.332 10.9759 13.0797C11.5849 12.8274 12.1055 12.4002 12.4718 11.852C12.8381 11.3039 13.0336 10.6594 13.0336 10.0001C13.0336 9.11606 12.6824 8.26821 12.0573 7.64309C11.4321 7.01797 10.5843 6.66678 9.70024 6.66678ZM9.70024 11.6668C9.3706 11.6668 9.04837 11.569 8.77429 11.3859C8.50021 11.2028 8.28659 10.9425 8.16044 10.6379C8.03429 10.3334 8.00129 9.99827 8.0656 9.67497C8.12991 9.35166 8.28864 9.05469 8.52173 8.82161C8.75481 8.58852 9.05179 8.42978 9.37509 8.36547C9.69839 8.30117 10.0335 8.33417 10.338 8.46032C10.6426 8.58646 10.9029 8.80008 11.086 9.07417C11.2692 9.34825 11.3669 9.67048 11.3669 10.0001C11.3669 10.4421 11.1913 10.8661 10.8787 11.1786C10.5662 11.4912 10.1423 11.6668 9.70024 11.6668Z" fill="black"/>
</svg>
