<svg width="18" height="18" viewBox="0 0 18 18" fill="none" xmlns="http://www.w3.org/2000/svg">
<path d="M16.4406 17.2481L15.3453 5.05022C15.3154 4.7171 15.0363 4.46195 14.7019 4.46195H12.4431V3.44322C12.4431 1.54463 10.8986 0 9.00005 0C7.10163 0 5.55726 1.54463 5.55726 3.44322V4.46195H3.29696C2.96255 4.46195 2.68336 4.7171 2.65347 5.05022L1.55385 17.2961C1.53766 17.4769 1.59813 17.6559 1.72054 17.7898C1.84295 17.9237 2.01601 17.9999 2.19734 17.9999H15.8016C15.8021 17.9999 15.8028 17.9999 15.8033 17.9999C16.1602 17.9999 16.4493 17.7106 16.4493 17.3538C16.4493 17.3179 16.4463 17.2825 16.4406 17.2481ZM6.8494 3.44322C6.8494 2.25712 7.81421 1.29214 9.00014 1.29214C10.1862 1.29214 11.151 2.25712 11.151 3.44322V4.46195H6.8494V3.44322ZM2.90406 16.7079L3.88764 5.75409H5.55726V6.90944C5.55726 7.26624 5.84644 7.55551 6.20333 7.55551C6.56022 7.55551 6.8494 7.26624 6.8494 6.90944V5.75409H11.151V6.90944C11.151 7.26624 11.4402 7.55551 11.7971 7.55551C12.154 7.55551 12.4432 7.26624 12.4432 6.90944V5.75409H14.1113L15.0948 16.7079H2.90406Z" fill="#222222"/>
</svg>
