<svg width="28" height="28" viewBox="0 0 28 28" fill="none" xmlns="http://www.w3.org/2000/svg">
<path d="M21.5837 22.7498H6.41699L2.91699 26.2498V6.4165C2.91699 4.4915 4.49199 2.9165 6.41699 2.9165H21.5837C23.5087 2.9165 25.0837 4.4915 25.0837 6.4165V19.2498C25.0837 21.1748 23.5087 22.7498 21.5837 22.7498Z" fill="#009688"/>
<path d="M14 14.5835C14.9665 14.5835 15.75 13.8 15.75 12.8335C15.75 11.867 14.9665 11.0835 14 11.0835C13.0335 11.0835 12.25 11.867 12.25 12.8335C12.25 13.8 13.0335 14.5835 14 14.5835Z" fill="white"/>
<path d="M19.834 14.5835C20.8005 14.5835 21.584 13.8 21.584 12.8335C21.584 11.867 20.8005 11.0835 19.834 11.0835C18.8675 11.0835 18.084 11.867 18.084 12.8335C18.084 13.8 18.8675 14.5835 19.834 14.5835Z" fill="white"/>
<path d="M8.16699 14.5835C9.13349 14.5835 9.91699 13.8 9.91699 12.8335C9.91699 11.867 9.13349 11.0835 8.16699 11.0835C7.20049 11.0835 6.41699 11.867 6.41699 12.8335C6.41699 13.8 7.20049 14.5835 8.16699 14.5835Z" fill="white"/>
</svg>
