<svg width="14" height="14" viewBox="0 0 14 14" fill="none" xmlns="http://www.w3.org/2000/svg">
<path d="M7.00662 2.60291L5.71599 5.21834L2.82849 5.63806L4.91755 7.67517L4.424 10.5504L7.00662 9.19275L9.58923 10.549L9.09568 7.6738L11.1847 5.63806L8.29724 5.21834L7.00662 2.60291Z" fill="#FFF1B8"/>
<path d="M12.4223 4.8232L8.95105 4.31871L7.39929 1.17281C7.35691 1.08667 7.28718 1.01695 7.20105 0.974566C6.98503 0.867925 6.72253 0.956792 6.61452 1.17281L5.06277 4.31871L1.59148 4.8232C1.49577 4.83687 1.40827 4.88199 1.34128 4.95035C1.26029 5.03359 1.21566 5.14558 1.2172 5.26171C1.21874 5.37784 1.26632 5.48861 1.34949 5.56968L3.86101 8.01832L3.26765 11.4759C3.25373 11.5564 3.26264 11.6391 3.29334 11.7147C3.32405 11.7903 3.37533 11.8559 3.44138 11.9038C3.50742 11.9518 3.58558 11.9803 3.667 11.9861C3.74842 11.9919 3.82984 11.9748 3.90202 11.9367L7.00691 10.3043L10.1118 11.9367C10.1966 11.9818 10.295 11.9968 10.3893 11.9804C10.6272 11.9394 10.7872 11.7138 10.7462 11.4759L10.1528 8.01832L12.6643 5.56968C12.7327 5.50269 12.7778 5.41519 12.7915 5.31949C12.8284 5.08023 12.6616 4.85875 12.4223 4.8232ZM9.09597 7.67378L9.58952 10.549L7.00691 9.19273L4.42429 10.5503L4.91784 7.67515L2.82878 5.63804L5.71628 5.21832L7.00691 2.60289L8.29753 5.21832L11.185 5.63804L9.09597 7.67378Z" fill="#B0B0F2"/>
</svg>
