<svg width="25" height="25" viewBox="0 0 25 25" fill="none" xmlns="http://www.w3.org/2000/svg">
<path d="M21.5125 3.42773L11.1702 0.031988C11.0422 -0.0106627 10.9042 -0.0106627 10.7763 0.031988L0.434011 3.42773C0.174357 3.51303 0 3.75514 0 4.02735V15.6961C0 15.9005 0.097842 16.0874 0.255893 16.2041L1.33089 17.2792L1.83138 17.7797L1.94929 17.8976L3.82959 19.778L7.72943 23.678C7.96275 23.9113 8.27007 24.0292 8.57739 24.0292C8.88471 24.0292 9.19203 23.9126 9.42534 23.678C9.56709 23.5363 9.66869 23.3656 9.72514 23.18C10.0713 23.2327 10.4326 23.1348 10.7073 22.8852C10.8654 22.7409 10.9795 22.5628 11.0422 22.3659C11.3972 22.4286 11.771 22.3333 12.0545 22.0761C12.1875 21.9544 12.2891 21.8102 12.3556 21.6496C12.4822 21.691 12.6165 21.7111 12.7507 21.7073C13.0818 21.6998 13.3866 21.5605 13.6099 21.3147C14.0414 20.8405 14.0176 20.1079 13.5547 19.645L13.0279 19.1181L18.0341 17.4523C18.093 17.9967 18.4944 18.4658 19.0577 18.5838L21.0308 18.994C21.1198 19.0128 21.2077 19.0216 21.2955 19.0216C21.8963 19.0216 22.4369 18.6001 22.5636 17.9892C22.5975 17.8286 22.5975 17.668 22.5724 17.515C22.8095 17.5087 23.0403 17.4372 23.2435 17.3042C23.5333 17.1148 23.7314 16.8238 23.8017 16.4838C23.8506 16.248 23.833 16.0097 23.754 15.7889C23.8167 15.7613 23.877 15.7287 23.9359 15.6898C24.2257 15.5004 24.4239 15.2093 24.4941 14.8694C24.6384 14.1732 24.1931 13.4895 23.4994 13.339C23.5207 13.3327 23.5408 13.3277 23.5621 13.3214C24.3097 13.0956 24.8052 12.6152 24.9231 12.0055C25.0109 11.5514 24.8579 11.1023 24.5255 10.8351C24.1855 10.5629 23.7252 10.5228 23.2611 10.7248C22.7869 10.9305 22.3115 10.9368 21.9477 10.8878V4.02359C21.9477 3.75388 21.7721 3.51178 21.5125 3.42773ZM23.9773 11.5201C24.0551 11.5828 24.0889 11.7095 24.0639 11.8424C24.0099 12.1197 23.7277 12.3605 23.3075 12.4872C22.7443 12.6578 22.2927 12.703 21.9465 12.6942V11.7709C22.4169 11.8186 23.0064 11.7898 23.6085 11.5288C23.7013 11.4887 23.8707 11.4348 23.9773 11.5201ZM23.6386 14.6938C23.616 14.8042 23.5508 14.8982 23.4567 14.961C23.3627 15.0224 23.2498 15.0438 23.1394 15.0212L21.1663 14.611C20.938 14.5633 20.7925 14.34 20.8389 14.1117C20.8803 13.9135 21.0559 13.7755 21.2516 13.7755C21.2804 13.7755 21.3093 13.778 21.3381 13.7843L23.3112 14.1945C23.5395 14.2434 23.6863 14.4667 23.6386 14.6938ZM21.7081 17.8135C21.6605 18.0406 21.4372 18.1874 21.2089 18.1409L19.2358 17.7307C19.0075 17.6831 18.862 17.4598 18.9084 17.2315C18.9561 17.0044 19.1793 16.8564 19.4076 16.9041L21.3808 17.3143C21.6091 17.3619 21.7558 17.5852 21.7081 17.8135ZM12.9627 20.7263C12.9025 20.7928 12.8184 20.8304 12.7294 20.833C12.6378 20.8342 12.555 20.8016 12.4923 20.7376L12.0946 20.34L11.4762 20.9584C11.5402 21.0224 11.5741 21.1064 11.5716 21.1955C11.5691 21.2858 11.5314 21.3686 11.465 21.4288C11.3383 21.543 11.1313 21.5317 11.0021 21.4025L10.7475 21.1478L10.129 21.7663C10.193 21.8302 10.2269 21.9143 10.2244 22.0046C10.2219 22.0937 10.1842 22.1777 10.1178 22.2379C9.99107 22.3521 9.78409 22.3408 9.65489 22.2116L9.42534 21.982L8.80694 22.6004L8.80819 22.6017C8.93363 22.7284 8.93363 22.9341 8.80694 23.0608C8.68025 23.1875 8.47453 23.1875 8.34784 23.0608L4.448 19.1608L8.06184 15.5468L8.35411 15.6722L8.38296 15.6885C8.80067 15.9281 9.27482 16.0498 9.7565 16.0435C10.4426 16.0335 11.1137 15.898 11.7509 15.6409C11.8902 15.5844 12.052 15.6246 12.1348 15.7375C12.2213 15.8554 12.2075 15.9695 12.1925 16.026C12.1649 16.1226 12.0972 16.2003 12.0093 16.2367L10.8177 16.7147C10.6948 16.7636 10.5656 16.81 10.4326 16.8501L9.73517 17.0621L12.9388 20.266C13.0655 20.3927 13.0768 20.6009 12.9627 20.7263ZM12.0294 18.1209L11.4098 17.5012V17.4159L12.3367 17.0433C12.6792 16.9003 12.9313 16.6143 13.0317 16.2568C13.1308 15.8993 13.0605 15.5204 12.836 15.2156C12.5149 14.7778 11.9316 14.6185 11.4198 14.8267C11.416 14.828 11.4135 14.8292 11.4098 14.8305V7.78311L20.6846 4.69722V13.0342C20.3371 13.2035 20.0674 13.5259 19.9834 13.9336C19.9332 14.1744 19.9558 14.4128 20.0323 14.6285C19.9696 14.6561 19.9081 14.6888 19.8492 14.7264C19.5594 14.9158 19.3612 15.2068 19.291 15.5468C19.2797 15.602 19.2734 15.6572 19.2684 15.7111L12.0294 18.1209ZM16.4247 5.19397L8.26756 2.18459L10.9732 1.29646L19.6133 4.13272L16.4247 5.19397ZM15.0976 5.63553L10.9732 7.00788L2.33188 4.13272L6.93166 2.62239L15.0976 5.63553ZM1.2619 4.69722L1.28447 4.70474L10.5367 7.78311V15.0864C10.2758 15.1353 10.0111 15.1629 9.7427 15.1667C9.43663 15.1692 9.13433 15.0977 8.86339 14.9534L8.83453 14.9246L8.36791 14.7251L6.12509 12.4822L1.2619 7.61878V4.69722ZM1.05618 15.7688L1.06245 8.6562L5.50794 13.1019L1.94929 16.6607L1.05618 15.7688ZM6.12509 13.7191L7.38825 14.9823L3.82959 18.5411L2.56644 17.2779L6.12509 13.7191ZM20.4738 16.2242C20.2456 16.1765 20.1 15.9532 20.1465 15.7249C20.1878 15.5267 20.3635 15.3887 20.5591 15.3887C20.588 15.3887 20.6168 15.3912 20.6457 15.3975L22.6201 15.8077C22.7305 15.8303 22.8245 15.8955 22.8873 15.9896C22.9487 16.0837 22.97 16.1966 22.9475 16.307C22.9249 16.4174 22.8597 16.5114 22.7656 16.5742C22.6715 16.6356 22.5586 16.657 22.4482 16.6344L20.4738 16.2242Z" fill="#2A2A86"/>
</svg>
