<svg width="20" height="18" viewBox="0 0 20 18" fill="none" xmlns="http://www.w3.org/2000/svg">
<path d="M16.9959 7.7698C16.8956 7.6983 16.7664 7.67948 16.6497 7.72088L11.2911 9.58998C11.138 9.64392 11.0352 9.78818 11.0352 9.95V14.55C11.0352 14.6742 11.0954 14.7896 11.1957 14.8611C11.2609 14.9075 11.3387 14.9313 11.4165 14.9313C11.4591 14.9313 11.5018 14.9238 11.5419 14.91L16.9006 13.0409C17.0536 12.987 17.1565 12.8427 17.1565 12.6809V8.0809C17.1565 7.95797 17.0975 7.8413 16.9959 7.7698ZM16.3938 12.4099L11.7991 14.0131V10.221L16.3938 8.6178V12.4099Z" fill="#666666"/>
<path d="M0.375086 14.2262L9.4053 17.2305C9.46175 17.2494 9.52071 17.2581 9.57966 17.2581C9.63862 17.2581 9.69758 17.2494 9.75402 17.2305L18.7842 14.2262C19.01 14.1509 19.1618 13.9402 19.1618 13.7031V3.5146C19.1618 3.27626 19.0088 3.06552 18.783 2.9915L9.75277 0.0272839C9.64113 -0.00909462 9.52071 -0.00909462 9.40907 0.0272839L0.378853 2.9915C0.153066 3.06552 3.06379e-05 3.27751 3.06379e-05 3.5146V13.7031C-0.0024781 13.9402 0.1493 14.1509 0.375086 14.2262ZM6.8351 2.03061L14.8957 4.89573V7.01823L13.2926 7.55136V5.4113C13.2926 5.4113 13.2926 5.4113 13.2926 5.41005C13.2926 5.22941 13.1659 5.07762 12.9966 5.03873L5.63842 2.42325L6.8351 2.03061ZM11.7322 5.40001L9.57841 6.11629L2.03462 3.60617L4.45305 2.81212L11.7322 5.40001ZM9.96098 15.9999V6.79494L12.5299 5.94067V8.08324C12.5299 8.20617 12.5889 8.32158 12.688 8.39308C12.7532 8.44075 12.8322 8.46458 12.9113 8.46458C12.9514 8.46458 12.9928 8.45831 13.0317 8.44451L15.3974 7.65673C15.553 7.6053 15.6583 7.45853 15.6583 7.2942V4.89824L18.058 4.10042V13.3054L9.96098 15.9999ZM15.2758 4.22084L8.01922 1.64174L9.57841 1.12993L17.1222 3.60617L15.2758 4.22084ZM1.10012 13.3054V4.09917L9.19833 6.79368V15.9987L1.10012 13.3054Z" fill="#666666"/>
</svg>
