<svg width="23" height="18" viewBox="0 0 23 18" fill="none" xmlns="http://www.w3.org/2000/svg">
<path d="M0.370011 14.0337L9.27803 16.9974C9.33371 17.0159 9.39187 17.0246 9.45003 17.0246C9.50818 17.0246 9.56634 17.0159 9.62203 16.9974L13.9863 15.5458C14.798 16.782 16.1963 17.6 17.7864 17.6C20.2958 17.6 22.3301 15.5656 22.3301 13.0561C22.3301 10.9314 20.8724 9.14819 18.9025 8.65073V3.46704C18.9025 3.23192 18.7515 3.02403 18.5288 2.95102L9.62079 0.0269146C9.51066 -0.00897154 9.39187 -0.00897154 9.28174 0.0269146L0.373711 2.95102C0.15098 3.02403 3.02233e-05 3.23316 3.02233e-05 3.46704V13.5176C-0.00244457 13.7528 0.147279 13.9606 0.370011 14.0337ZM13.4988 14.5621L9.82618 15.7834V6.70298L17.8148 4.04493V8.51337C17.8049 8.51337 17.7963 8.51214 17.7864 8.51214C15.2769 8.51214 13.2426 10.5465 13.2426 13.0561C13.2414 13.5845 13.333 14.0906 13.4988 14.5621ZM14.1447 4.47185L7.11876 1.87938L9.44879 1.11463L16.8905 3.55737L14.1447 4.47185ZM13.0013 4.85299L10.3929 5.72044L9.45003 6.03475L8.52446 5.72663L2.00708 3.55861L5.96799 2.25804L13.0013 4.85299ZM1.08521 13.1266V4.04616L9.07385 6.70422V15.7847L1.08521 13.1266ZM19.2415 10.6913C19.4915 10.4413 19.8974 10.4413 20.1485 10.6913C20.3985 10.9413 20.3985 11.3471 20.1485 11.5983L18.6921 13.0548L20.1485 14.5113C20.3985 14.7613 20.3985 15.1672 20.1485 15.4184C20.0236 15.5434 19.859 15.6065 19.6957 15.6065C19.5311 15.6065 19.3678 15.5434 19.2428 15.4184L17.7864 13.9619L16.3299 15.4184C16.205 15.5434 16.0404 15.6065 15.8771 15.6065C15.7137 15.6065 15.5491 15.5434 15.4242 15.4184C15.1742 15.1684 15.1742 14.7625 15.4242 14.5113L16.8806 13.0548L15.4242 11.5983C15.1742 11.3484 15.1742 10.9425 15.4242 10.6913C15.6741 10.4413 16.08 10.4413 16.3312 10.6913L17.7876 12.1478L19.2415 10.6913Z" fill="#E24343"/>
</svg>
