<svg width="17" height="13" viewBox="0 0 17 13" fill="none" xmlns="http://www.w3.org/2000/svg">
<path d="M0.266155 10.0947L6.67384 12.2265C6.7139 12.2398 6.75573 12.2461 6.79757 12.2461C6.8394 12.2461 6.88124 12.2398 6.92129 12.2265L10.0606 11.1824C10.6445 12.0716 11.6503 12.66 12.794 12.66C14.5991 12.66 16.0624 11.1966 16.0624 9.39146C16.0624 7.86312 15.0139 6.58045 13.5969 6.22262V2.4939C13.5969 2.32478 13.4883 2.17524 13.3281 2.12272L6.9204 0.0193602C6.84118 -0.00645339 6.75573 -0.00645339 6.67652 0.0193602L0.268817 2.12272C0.108602 2.17524 2.17402e-05 2.32567 2.17402e-05 2.4939V9.72347C-0.00175842 9.8926 0.10594 10.0421 0.266155 10.0947ZM9.70991 10.4747L7.06814 11.3533V4.82157L12.8145 2.90959V6.12382C12.8074 6.12382 12.8012 6.12293 12.794 6.12293C10.989 6.12293 9.52565 7.58629 9.52565 9.39146C9.52476 9.77154 9.59064 10.1356 9.70991 10.4747ZM10.1745 3.21668L5.12065 1.35187L6.79668 0.801776L12.1496 2.55888L10.1745 3.21668ZM9.35209 3.49084L7.47581 4.11481L6.79757 4.3409L6.13179 4.11926L1.44373 2.55977L4.29288 1.62425L9.35209 3.49084ZM0.780613 9.44219V2.91048L6.52698 4.82246V11.3542L0.780613 9.44219ZM13.8408 7.69043C14.0206 7.51063 14.3125 7.51063 14.4932 7.69043C14.673 7.87024 14.673 8.1622 14.4932 8.34289L13.4456 9.39057L14.4932 10.4382C14.673 10.618 14.673 10.91 14.4932 11.0907C14.4033 11.1806 14.2849 11.226 14.1674 11.226C14.049 11.226 13.9316 11.1806 13.8417 11.0907L12.794 10.043L11.7464 11.0907C11.6565 11.1806 11.5381 11.226 11.4206 11.226C11.3031 11.226 11.1848 11.1806 11.0949 11.0907C10.9151 10.9109 10.9151 10.6189 11.0949 10.4382L12.1425 9.39057L11.0949 8.34289C10.9151 8.16309 10.9151 7.87113 11.0949 7.69043C11.2747 7.51063 11.5666 7.51063 11.7473 7.69043L12.7949 8.73811L13.8408 7.69043Z" fill="#E24343"/>
</svg>
