<svg width="25" height="18" viewBox="0 0 25 18" fill="none" xmlns="http://www.w3.org/2000/svg">
<path d="M15.3673 14.2024L9.96222 16V6.78616L18.0604 4.09164V6.58044C18.4643 6.39604 18.8168 6.17275 19.0714 5.93691C19.1003 5.90932 19.1317 5.88422 19.1618 5.86039V3.51461C19.1618 3.27627 19.0087 3.06552 18.783 2.9915L9.75273 0.0272839C9.64109 -0.00909462 9.52067 -0.00909462 9.40903 0.0272839L0.378822 2.9915C0.153036 3.06552 0 3.27752 0 3.51461V13.7031C0 13.9402 0.15178 14.1509 0.377567 14.2262L9.40778 17.2306C9.46423 17.2494 9.52318 17.2582 9.58214 17.2582C9.64109 17.2582 9.70005 17.2494 9.7565 17.2306L15.9518 15.1695C15.7185 14.8496 15.5253 14.5273 15.3673 14.2024ZM13.1809 4.91204L10.5367 5.7914L9.58088 6.11003L8.64262 5.79767L2.04839 3.60367L6.06363 2.28526L13.1809 4.91204ZM7.23019 1.90266L9.58088 1.13119L17.1134 3.60367L14.3412 4.52568L7.23019 1.90266ZM1.10134 13.3067V4.0929L9.19956 6.78741V16.0012L1.10134 13.3067Z" fill="#2A2A86"/>
<path d="M24.3747 8.56889V7.91157C24.2945 7.91658 24.2117 7.91909 24.1264 7.91909C23.6083 7.91909 23.0175 7.82752 22.4091 7.63685C21.585 7.37718 20.8888 6.98454 20.4297 6.55803C20.3206 6.45642 20.1801 6.40625 20.0409 6.40625C19.9004 6.40625 19.7612 6.45642 19.652 6.55803C19.1929 6.98454 18.4968 7.37843 17.6726 7.63685C17.0655 7.82752 16.4735 7.91909 15.9554 7.91909C15.8701 7.91909 15.7873 7.91658 15.707 7.91157V12.0838C15.707 14.7821 18.8229 16.9121 20.0409 17.5456C21.2589 16.9108 24.3747 14.7821 24.3747 12.0838V10.4305L20.4059 14.3995C20.2767 14.5287 20.1086 14.5927 19.9405 14.5927C19.7724 14.5927 19.6031 14.5287 19.4752 14.3995L17.9574 12.8816C17.7002 12.6245 17.7002 12.208 17.9574 11.9508C18.2145 11.6937 18.631 11.6937 18.8881 11.9508L19.9405 13.0033L24.3747 8.56889Z" fill="#2A2A86"/>
</svg>
