<svg width="15" height="15" viewBox="0 0 15 15" fill="none" xmlns="http://www.w3.org/2000/svg">
<path fill-rule="evenodd" clip-rule="evenodd" d="M3.60938 0.537891C3.60938 0.254845 3.83883 0.0253906 4.12187 0.0253906H6.17188C6.45492 0.0253906 6.68437 0.254845 6.68437 0.537891V3.10039C6.68437 3.27801 6.59241 3.44297 6.44131 3.53635C6.29022 3.62973 6.10155 3.63822 5.94268 3.55878L5.14687 3.16088L4.35107 3.55878C4.1922 3.63822 4.00353 3.62973 3.85244 3.53635C3.70134 3.44297 3.60938 3.27801 3.60938 3.10039V0.537891ZM4.63437 1.05039V2.27115L4.91768 2.1295C5.06196 2.05736 5.23179 2.05736 5.37607 2.1295L5.65937 2.27115V1.05039H4.63437Z" fill="#666666"/>
<path fill-rule="evenodd" clip-rule="evenodd" d="M9.76094 6.17539C7.77962 6.17539 6.17344 7.78157 6.17344 9.76289C6.17344 11.7442 7.77962 13.3504 9.76094 13.3504C11.7423 13.3504 13.3484 11.7442 13.3484 9.76289C13.3484 7.78157 11.7423 6.17539 9.76094 6.17539ZM5.14844 9.76289C5.14844 7.21548 7.21352 5.15039 9.76094 5.15039C12.3084 5.15039 14.3734 7.21548 14.3734 9.76289C14.3734 12.3103 12.3084 14.3754 9.76094 14.3754C7.21352 14.3754 5.14844 12.3103 5.14844 9.76289Z" fill="#666666"/>
<path fill-rule="evenodd" clip-rule="evenodd" d="M9.76172 8.22617C8.91726 8.22617 8.22422 8.91922 8.22422 9.76367C8.22422 10.0467 7.99476 10.2762 7.71172 10.2762C7.42867 10.2762 7.19922 10.0467 7.19922 9.76367C7.19922 8.35313 8.35117 7.20117 9.76172 7.20117C10.0448 7.20117 10.2742 7.43063 10.2742 7.71367C10.2742 7.99672 10.0448 8.22617 9.76172 8.22617Z" fill="#666666"/>
<path fill-rule="evenodd" clip-rule="evenodd" d="M0.0234375 0.537891C0.0234375 0.254845 0.252892 0.0253906 0.535937 0.0253906H9.76094C10.044 0.0253906 10.2734 0.254845 10.2734 0.537891V5.66289C10.2734 5.94594 10.044 6.17539 9.76094 6.17539C7.78898 6.17539 6.17344 7.79094 6.17344 9.76289C6.17344 10.0459 5.94398 10.2754 5.66094 10.2754H0.535937C0.252892 10.2754 0.0234375 10.0459 0.0234375 9.76289V0.537891ZM1.04844 1.05039V9.25039H5.17689C5.41486 7.11977 7.11782 5.41681 9.24844 5.17885V1.05039H1.04844Z" fill="#666666"/>
<path fill-rule="evenodd" clip-rule="evenodd" d="M11.5638 7.786C11.8065 7.93163 11.8852 8.24644 11.7395 8.48915L10.202 11.0516C10.0564 11.2944 9.74161 11.3731 9.4989 11.2274C9.25619 11.0818 9.17749 10.767 9.32311 10.5243L10.8606 7.96179C11.0062 7.71908 11.321 7.64038 11.5638 7.786Z" fill="#666666"/>
<path fill-rule="evenodd" clip-rule="evenodd" d="M8.73438 10.7887C8.73438 10.2226 9.19328 9.76367 9.75937 9.76367C10.3255 9.76367 10.7844 10.2226 10.7844 10.7887C10.7844 11.3548 10.3255 11.8137 9.75937 11.8137C9.19328 11.8137 8.73438 11.3548 8.73438 10.7887Z" fill="#666666"/>
</svg>
