<svg width="23" height="18" viewBox="0 0 23 18" fill="none" xmlns="http://www.w3.org/2000/svg">
<path d="M0.375086 14.2262L9.40531 17.2305C9.46176 17.2494 9.52071 17.2581 9.57966 17.2581C9.63862 17.2581 9.69757 17.2494 9.75402 17.2305L14.1782 15.7591C15.0011 17.0123 16.4185 17.8414 18.0304 17.8414C20.5742 17.8414 22.6364 15.7792 22.6364 13.2352C22.6364 11.0826 21.1588 9.27369 19.1618 8.76941V3.5146C19.1618 3.27626 19.0088 3.06551 18.783 2.9915L9.75276 0.0272839C9.64113 -0.00909462 9.52071 -0.00909462 9.40907 0.0272839L0.378853 2.9915C0.153066 3.06551 3.06379e-05 3.27751 3.06379e-05 3.5146V13.7031C-0.0024781 13.9414 0.1493 14.1522 0.375086 14.2262ZM18.0291 8.62891C15.4852 8.62891 13.4231 10.6912 13.4231 13.2352C13.4231 13.7708 13.5159 14.2839 13.6827 14.7618L9.95974 15.9999V6.79493L18.058 4.10042V8.63016C18.0492 8.63016 18.0391 8.62891 18.0291 8.62891ZM14.3387 4.53319L7.21643 1.90517L9.57841 1.12993L17.1222 3.60617L14.3387 4.53319ZM13.1797 4.91956L10.5355 5.79891L9.57966 6.11754L8.64139 5.80519L2.03462 3.60742L6.04987 2.28902L13.1797 4.91956ZM1.10012 13.3067V4.10167L9.19833 6.79493V15.9999L1.10012 13.3067ZM20.297 11.1039C20.5504 10.8505 20.9618 10.8505 21.2165 11.1039C21.4699 11.3573 21.4699 11.7688 21.2165 12.0234L17.3442 15.8958C17.2175 16.0225 17.0507 16.0865 16.8851 16.0865C16.7183 16.0865 16.5527 16.0225 16.426 15.8958L15.0036 14.4733C14.7502 14.2199 14.7502 13.8085 15.0036 13.5538C15.257 13.3004 15.6684 13.3004 15.923 13.5538L16.8864 14.5172L20.297 11.1039Z" fill="#27AE60"/>
</svg>
