<svg width="16" height="13" viewBox="0 0 16 13" fill="none" xmlns="http://www.w3.org/2000/svg">
<path d="M0.265121 10.0554L6.64792 12.179C6.68781 12.1923 6.72948 12.1985 6.77115 12.1985C6.81282 12.1985 6.8545 12.1923 6.89439 12.179L10.0215 11.1389C10.6031 12.0247 11.605 12.6108 12.7443 12.6108C14.5424 12.6108 16 11.1531 16 9.35496C16 7.83345 14.9556 6.55488 13.5441 6.19844V2.48421C13.5441 2.31574 13.4359 2.16678 13.2763 2.11447L6.89351 0.0192849C6.8146 -0.00642831 6.72948 -0.00642831 6.65057 0.0192849L0.267783 2.11447C0.108191 2.16678 2.16557e-05 2.31663 2.16557e-05 2.48421V9.68569C-0.00175159 9.85416 0.105529 10.0031 0.265121 10.0554ZM12.7434 6.09913C10.9454 6.09913 9.48776 7.55681 9.48776 9.35496C9.48776 9.73357 9.55337 10.0962 9.67129 10.434L7.0398 11.3092V4.80283L12.7638 2.89828V6.10002C12.7576 6.10002 12.7505 6.09913 12.7434 6.09913ZM10.135 3.20418L5.10076 1.34662L6.77027 0.79866L12.1024 2.54894L10.135 3.20418ZM9.31576 3.47727L7.44676 4.09882L6.77115 4.32404L6.10796 4.10326L1.43813 2.54982L4.2762 1.61794L9.31576 3.47727ZM0.777591 9.4055V2.89917L6.50162 4.80283V11.3092L0.777591 9.4055ZM14.3464 7.84852C14.5255 7.66942 14.8164 7.66942 14.9963 7.84852C15.1754 8.02763 15.1754 8.31846 14.9963 8.49845L12.2593 11.2356C12.1698 11.3251 12.0519 11.3704 11.9348 11.3704C11.8169 11.3704 11.6999 11.3251 11.6103 11.2356L10.6049 10.2301C10.4258 10.051 10.4258 9.76017 10.6049 9.58018C10.784 9.40107 11.0748 9.40107 11.2548 9.58018L11.9357 10.2611L14.3464 7.84852Z" fill="#27AE60"/>
</svg>
