<svg width="15" height="11" viewBox="0 0 15 11" fill="none" xmlns="http://www.w3.org/2000/svg">
<path fill-rule="evenodd" clip-rule="evenodd" d="M4.72656 0.586719C4.72656 0.303673 4.95602 0.0742188 5.23906 0.0742188H14.4641C14.7471 0.0742188 14.9766 0.303673 14.9766 0.586719V9.81172C14.9766 10.0948 14.7471 10.3242 14.4641 10.3242H5.23906C4.95602 10.3242 4.72656 10.0948 4.72656 9.81172V0.586719ZM5.75156 1.09922V9.29922H13.9516V1.09922H5.75156Z" fill="#666666"/>
<path fill-rule="evenodd" clip-rule="evenodd" d="M8.3125 0.586719C8.3125 0.303673 8.54195 0.0742188 8.825 0.0742188H10.875C11.158 0.0742188 11.3875 0.303673 11.3875 0.586719V3.14922C11.3875 3.32684 11.2955 3.4918 11.1444 3.58518C10.9933 3.67856 10.8047 3.68705 10.6458 3.60761L9.85 3.20971L9.0542 3.60761C8.89533 3.68705 8.70666 3.67856 8.55556 3.58518C8.40447 3.4918 8.3125 3.32684 8.3125 3.14922V0.586719ZM9.3375 1.09922V2.31998L9.6208 2.17832C9.76509 2.10618 9.93491 2.10618 10.0792 2.17832L10.3625 2.31998V1.09922H9.3375Z" fill="#666666"/>
<path fill-rule="evenodd" clip-rule="evenodd" d="M0.625 1.61211C0.625 1.32906 0.854454 1.09961 1.1375 1.09961H3.1875C3.47055 1.09961 3.7 1.32906 3.7 1.61211C3.7 1.89516 3.47055 2.12461 3.1875 2.12461H1.1375C0.854454 2.12461 0.625 1.89516 0.625 1.61211Z" fill="#666666"/>
<path fill-rule="evenodd" clip-rule="evenodd" d="M1.13672 5.2C1.13672 4.91695 1.36617 4.6875 1.64922 4.6875H3.18672C3.46976 4.6875 3.69922 4.91695 3.69922 5.2C3.69922 5.48305 3.46976 5.7125 3.18672 5.7125H1.64922C1.36617 5.7125 1.13672 5.48305 1.13672 5.2Z" fill="#666666"/>
<path fill-rule="evenodd" clip-rule="evenodd" d="M1.64844 8.78594C1.64844 8.50289 1.87789 8.27344 2.16094 8.27344H3.18594C3.46898 8.27344 3.69844 8.50289 3.69844 8.78594C3.69844 9.06898 3.46898 9.29844 3.18594 9.29844H2.16094C1.87789 9.29844 1.64844 9.06898 1.64844 8.78594Z" fill="#666666"/>
</svg>
