<svg width="16" height="17" viewBox="0 0 16 17" fill="none" xmlns="http://www.w3.org/2000/svg">
<path d="M16 0.400391H0V16.4004H16V0.400391Z" fill="white"/>
<path fill-rule="evenodd" clip-rule="evenodd" d="M4.26172 1.58867C4.26172 1.30563 4.49117 1.07617 4.77422 1.07617H6.82422C7.10726 1.07617 7.33672 1.30563 7.33672 1.58867V4.15117C7.33672 4.32879 7.24475 4.49375 7.09366 4.58713C6.94256 4.68051 6.75389 4.689 6.59502 4.60957L5.79922 4.21166L5.00342 4.60957C4.84455 4.689 4.65587 4.68051 4.50478 4.58713C4.35369 4.49375 4.26172 4.32879 4.26172 4.15117V1.58867ZM5.28672 2.10117V3.32193L5.57002 3.18028C5.7143 3.10814 5.88413 3.10814 6.02842 3.18028L6.31172 3.32193V2.10117H5.28672Z" fill="#2A2A86"/>
<path fill-rule="evenodd" clip-rule="evenodd" d="M11.277 6.22747C11.3822 6.19241 11.4959 6.19241 11.6011 6.22747L14.6761 7.25247C14.8854 7.32223 15.0266 7.51808 15.0266 7.73867V11.8387C15.0266 13.0673 14.4 13.8983 13.6658 14.4416C12.9487 14.9722 12.1058 15.2487 11.5863 15.4046C11.4827 15.4356 11.3719 15.4331 11.2698 15.3974C11.243 15.388 11.2152 15.3783 11.1864 15.3683C10.682 15.1927 9.88952 14.9167 9.21501 14.4243C8.4806 13.8882 7.85156 13.0697 7.85156 11.8387V7.73867C7.85156 7.51808 7.99272 7.32223 8.202 7.25247L11.277 6.22747ZM8.87656 8.10806V11.8387C8.87656 12.6577 9.27252 13.1973 9.81936 13.5965C10.3323 13.9709 10.9466 14.1979 11.4496 14.3744C11.9356 14.2219 12.5486 13.9932 13.0561 13.6176C13.6032 13.2128 14.0016 12.66 14.0016 11.8387V8.10806L11.4391 7.25389L8.87656 8.10806Z" fill="#2A2A86"/>
<path fill-rule="evenodd" clip-rule="evenodd" d="M0.675781 1.58867C0.675781 1.30563 0.905235 1.07617 1.18828 1.07617H10.4133C10.6963 1.07617 10.9258 1.30563 10.9258 1.58867V7.07242C10.9258 7.29443 10.7828 7.4912 10.5717 7.55982L8.87578 8.111V10.8137C8.87578 11.0967 8.64633 11.3262 8.36328 11.3262H1.18828C0.905235 11.3262 0.675781 11.0967 0.675781 10.8137V1.58867ZM1.70078 2.10117V10.3012H7.85078V7.73867C7.85078 7.51666 7.99373 7.31989 8.20487 7.25127L9.90078 6.7001V2.10117H1.70078Z" fill="#2A2A86"/>
<path fill-rule="evenodd" clip-rule="evenodd" d="M12.694 9.32961C12.9472 9.45619 13.0498 9.76404 12.9232 10.0172L11.8982 12.0672C11.8246 12.2145 11.6845 12.3175 11.5219 12.3439C11.3593 12.3703 11.1939 12.3169 11.0775 12.2004L10.0525 11.1754C9.85231 10.9753 9.85231 10.6508 10.0525 10.4506C10.2526 10.2505 10.5771 10.2505 10.7772 10.4506L11.2994 10.9728L12.0064 9.55881C12.133 9.30564 12.4409 9.20303 12.694 9.32961Z" fill="#2A2A86"/>
</svg>
