<svg width="17" height="17" viewBox="0 0 17 17" fill="none" xmlns="http://www.w3.org/2000/svg">
<path d="M16.4 0H0V16.4H16.4V0Z" fill="white"/>
<path fill-rule="evenodd" clip-rule="evenodd" d="M4.60938 1.53789C4.60938 1.25484 4.83883 1.02539 5.12187 1.02539H7.17188C7.45492 1.02539 7.68437 1.25484 7.68437 1.53789V4.10039C7.68437 4.27801 7.59241 4.44297 7.44131 4.53635C7.29022 4.62973 7.10155 4.63822 6.94268 4.55878L6.14687 4.16088L5.35107 4.55878C5.1922 4.63822 5.00353 4.62973 4.85244 4.53635C4.70134 4.44297 4.60938 4.27801 4.60938 4.10039V1.53789ZM5.63437 2.05039V3.27115L5.91768 3.1295C6.06196 3.05736 6.23179 3.05736 6.37607 3.1295L6.65937 3.27115V2.05039H5.63437Z" fill="#666666"/>
<path fill-rule="evenodd" clip-rule="evenodd" d="M10.7609 7.17539C8.77962 7.17539 7.17344 8.78157 7.17344 10.7629C7.17344 12.7442 8.77962 14.3504 10.7609 14.3504C12.7423 14.3504 14.3484 12.7442 14.3484 10.7629C14.3484 8.78157 12.7423 7.17539 10.7609 7.17539ZM6.14844 10.7629C6.14844 8.21548 8.21352 6.15039 10.7609 6.15039C13.3084 6.15039 15.3734 8.21548 15.3734 10.7629C15.3734 13.3103 13.3084 15.3754 10.7609 15.3754C8.21352 15.3754 6.14844 13.3103 6.14844 10.7629Z" fill="#666666"/>
<path fill-rule="evenodd" clip-rule="evenodd" d="M10.7617 9.22617C9.91726 9.22617 9.22422 9.91922 9.22422 10.7637C9.22422 11.0467 8.99476 11.2762 8.71172 11.2762C8.42867 11.2762 8.19922 11.0467 8.19922 10.7637C8.19922 9.35313 9.35117 8.20117 10.7617 8.20117C11.0448 8.20117 11.2742 8.43063 11.2742 8.71367C11.2742 8.99672 11.0448 9.22617 10.7617 9.22617Z" fill="#666666"/>
<path fill-rule="evenodd" clip-rule="evenodd" d="M1.02344 1.53789C1.02344 1.25484 1.25289 1.02539 1.53594 1.02539H10.7609C11.044 1.02539 11.2734 1.25484 11.2734 1.53789V6.66289C11.2734 6.94594 11.044 7.17539 10.7609 7.17539C8.78898 7.17539 7.17344 8.79094 7.17344 10.7629C7.17344 11.0459 6.94398 11.2754 6.66094 11.2754H1.53594C1.25289 11.2754 1.02344 11.0459 1.02344 10.7629V1.53789ZM2.04844 2.05039V10.2504H6.17689C6.41486 8.11977 8.11782 6.41681 10.2484 6.17885V2.05039H2.04844Z" fill="#666666"/>
<path fill-rule="evenodd" clip-rule="evenodd" d="M12.5638 8.786C12.8065 8.93163 12.8852 9.24644 12.7395 9.48915L11.202 12.0516C11.0564 12.2944 10.7416 12.3731 10.4989 12.2274C10.2562 12.0818 10.1775 11.767 10.3231 11.5243L11.8606 8.96179C12.0062 8.71908 12.321 8.64038 12.5638 8.786Z" fill="#666666"/>
<path fill-rule="evenodd" clip-rule="evenodd" d="M9.73438 11.7887C9.73438 11.2226 10.1933 10.7637 10.7594 10.7637C11.3255 10.7637 11.7844 11.2226 11.7844 11.7887C11.7844 12.3548 11.3255 12.8137 10.7594 12.8137C10.1933 12.8137 9.73438 12.3548 9.73438 11.7887Z" fill="#666666"/>
</svg>
