<svg width="19" height="25" viewBox="0 0 19 25" fill="none" xmlns="http://www.w3.org/2000/svg">
<path d="M2.11362 19.3295H10.2181L10.3272 19.4387C10.4025 19.9768 10.6634 20.4535 11.041 20.8047L11.0447 22.5697C11.0472 23.4867 11.7936 24.2318 12.7105 24.2318C12.7118 24.2318 12.7131 24.2318 12.7143 24.2318L16.0396 24.2243C16.9578 24.2218 17.7042 23.4729 17.7017 22.5547L17.6979 20.8499C17.7406 20.8135 17.782 20.7746 17.8221 20.7345C18.2561 20.2992 18.4944 19.7209 18.4919 19.105L18.4882 17.6461L18.4832 15.3756C18.4819 14.6317 17.8786 14.0283 17.1322 14.0308C16.8763 14.0308 16.6367 14.1036 16.4323 14.229C16.3808 14.1512 16.3219 14.0785 16.2541 14.0107C16.0873 13.8451 15.8854 13.7297 15.6658 13.6683V4.93367C15.6658 4.7568 15.5906 4.58871 15.4601 4.47079L10.6985 0.161822C10.5831 0.0577039 10.4339 0 10.2796 0H2.11362C0.948304 0 0 0.948349 0 2.11371V17.2171C0 18.3812 0.948304 19.3295 2.11362 19.3295ZM10.7123 1.85907L13.6325 4.50215H10.7123V1.85907ZM15.7875 15.3831C15.7875 15.6214 15.9819 15.8146 16.2203 15.8146H16.2215C16.4599 15.8146 16.653 15.6202 16.653 15.3806C16.653 15.1146 16.8688 14.8976 17.1347 14.8964C17.4006 14.8913 17.6176 15.1121 17.6189 15.3781L17.6239 17.6486L17.6277 19.1075C17.6289 19.4913 17.4797 19.8526 17.2087 20.1236C17.1962 20.1361 17.1824 20.1474 17.1686 20.16L11.6318 20.1725C11.3696 19.9304 11.1978 19.5917 11.1727 19.2116C11.1664 19.1062 11.1213 19.0071 11.046 18.9331L8.88095 16.7768C8.69279 16.5886 8.69154 16.2825 8.87969 16.0931C8.97377 15.999 9.09795 15.9513 9.22214 15.9513C9.34507 15.9513 9.46925 15.9977 9.56333 16.0918L10.4251 16.9499C10.5493 17.0728 10.7349 17.1092 10.8967 17.0427C11.0585 16.975 11.1626 16.8169 11.1626 16.6425L11.1501 10.3779C11.1501 10.2487 11.2003 10.127 11.2906 10.0354C11.3822 9.94387 11.5026 9.89369 11.6318 9.89369H11.633C11.7622 9.89369 11.8827 9.94387 11.9742 10.0342C12.0658 10.1258 12.116 10.2462 12.116 10.3754L12.1235 14.5125C12.1235 14.5138 12.1235 14.5138 12.1235 14.515C12.1235 14.7534 12.3179 14.9465 12.5563 14.9465C12.5563 14.9465 12.5563 14.9465 12.5575 14.9465C12.7958 14.9465 12.989 14.7521 12.989 14.5138C12.9878 14.2478 13.2048 14.0308 13.4707 14.0295H13.4719C13.7379 14.0295 13.9549 14.2453 13.9549 14.5113L13.9561 14.9691C13.9561 15.2075 14.1506 15.4006 14.3889 15.4006H14.3901C14.6285 15.4006 14.8216 15.2062 14.8216 14.9666C14.8216 14.8374 14.8718 14.7157 14.9621 14.6254C15.0537 14.5338 15.1741 14.4837 15.3033 14.4837H15.3046C15.4338 14.4837 15.5542 14.5338 15.6458 14.6241C15.7373 14.7157 15.7875 14.8361 15.7875 14.9654V15.3831ZM16.8362 22.5559C16.8374 22.9975 16.4787 23.3575 16.0371 23.3587L12.7118 23.3663C12.7105 23.3663 12.7105 23.3663 12.7105 23.3663C12.2703 23.3663 11.9115 23.0088 11.9103 22.5672L11.9065 21.0381L16.8337 21.0268L16.8362 22.5559ZM1.24935 2.11246C1.24935 1.63578 1.63695 1.24816 2.11362 1.24816H9.84807V5.3652H14.4177V13.5529C14.1744 13.3133 13.8407 13.164 13.4719 13.164C13.4707 13.164 13.4694 13.164 13.4694 13.164C13.3013 13.164 13.1395 13.1954 12.9878 13.2531L12.9827 10.3741C12.9815 10.0141 12.841 9.67542 12.5864 9.42203C12.3317 9.16863 11.9943 9.02939 11.6355 9.02939C11.6343 9.02939 11.633 9.02939 11.633 9.02939C11.273 9.03064 10.9344 9.17114 10.681 9.42579C10.4263 9.68044 10.2871 10.0204 10.2884 10.3792L10.2984 15.6001L10.1767 15.4784C9.64988 14.9541 8.79439 14.9566 8.27007 15.4822C7.74574 16.009 7.74825 16.8646 8.27383 17.3889L8.96624 18.0776H2.11738C1.64072 18.0776 1.25312 17.69 1.25312 17.2133V2.11246H1.24935Z" fill="#2A2A86"/>
<path d="M4.24903 9.04538L7.15667 6.13761C7.32601 5.96826 7.32601 5.6948 7.15667 5.52545C6.98733 5.3561 6.71387 5.3561 6.54453 5.52545L4.24903 7.82106L3.51648 7.08847C3.34714 6.91912 3.07369 6.91912 2.90435 7.08847C2.73501 7.25782 2.73501 7.53128 2.90435 7.70063L4.24903 9.04538Z" fill="#2A2A86"/>
<path d="M4.24903 12.6782L7.15667 9.77042C7.32601 9.60108 7.32601 9.32761 7.15667 9.15826C6.98733 8.98891 6.71387 8.98891 6.54453 9.15826L4.24903 11.4539L3.51648 10.7213C3.34714 10.5519 3.07369 10.5519 2.90435 10.7213C2.73501 10.8906 2.73501 11.1641 2.90435 11.3334L4.24903 12.6782Z" fill="#2A2A86"/>
<path d="M4.24903 16.311L7.15667 13.4032C7.32601 13.2339 7.32601 12.9604 7.15667 12.7911C6.98733 12.6217 6.71387 12.6217 6.54453 12.7911L4.24903 15.0867L3.51648 14.3541C3.34714 14.1847 3.07369 14.1847 2.90435 14.3541C2.73501 14.5234 2.73501 14.7969 2.90435 14.9663L4.24903 16.311Z" fill="#2A2A86"/>
<path d="M8.99135 8.24446H13.1847C13.423 8.24446 13.6175 8.05128 13.6175 7.81168C13.6175 7.57334 13.4243 7.37891 13.1847 7.37891H8.99135C8.75302 7.37891 8.55859 7.57209 8.55859 7.81168C8.55985 8.05003 8.75302 8.24446 8.99135 8.24446Z" fill="#2A2A86"/>
</svg>
