<svg width="16" height="16" viewBox="0 0 16 16" fill="none" xmlns="http://www.w3.org/2000/svg">
<path d="M16 0H0V16H16V0Z" fill="white"/>
<path fill-rule="evenodd" clip-rule="evenodd" d="M5.07812 11.7371C5.07812 11.4541 5.30758 11.2246 5.59062 11.2246H8.15312C8.43617 11.2246 8.66562 11.4541 8.66562 11.7371V13.7871C8.66562 14.0702 8.43617 14.2996 8.15312 14.2996H5.59062C5.30758 14.2996 5.07812 14.0702 5.07812 13.7871V11.7371ZM6.10312 12.2496V13.2746H7.64062V12.2496H6.10312Z" fill="#27AE60"/>
<path fill-rule="evenodd" clip-rule="evenodd" d="M7.64062 11.7371C7.64062 11.4541 7.87008 11.2246 8.15312 11.2246H10.7156C10.9987 11.2246 11.2281 11.4541 11.2281 11.7371V13.7871C11.2281 14.0702 10.9987 14.2996 10.7156 14.2996H8.15312C7.87008 14.2996 7.64062 14.0702 7.64062 13.7871V11.7371ZM8.66562 12.2496V13.2746H10.2031V12.2496H8.66562Z" fill="#27AE60"/>
<path fill-rule="evenodd" clip-rule="evenodd" d="M6.10156 9.68828C6.10156 9.40524 6.33102 9.17578 6.61406 9.17578H9.17656C9.45961 9.17578 9.68906 9.40524 9.68906 9.68828V11.7383C9.68906 12.0213 9.45961 12.2508 9.17656 12.2508H6.61406C6.33102 12.2508 6.10156 12.0213 6.10156 11.7383V9.68828ZM7.12656 10.2008V11.2258H8.66406V10.2008H7.12656Z" fill="#27AE60"/>
<path fill-rule="evenodd" clip-rule="evenodd" d="M8.00084 2.02266C8.09905 1.99245 8.20407 1.99245 8.30228 2.02266L14.9648 4.07266C15.1798 4.13883 15.3266 4.33751 15.3266 4.5625V13.7875C15.3266 14.0705 15.0971 14.3 14.8141 14.3H1.48906C1.20602 14.3 0.976562 14.0705 0.976562 13.7875V4.5625C0.976562 4.33751 1.1233 4.13883 1.33834 4.07266L8.00084 2.02266ZM2.00156 4.94102V13.275H14.3016V4.94102L8.15156 3.04871L2.00156 4.94102Z" fill="#27AE60"/>
<path fill-rule="evenodd" clip-rule="evenodd" d="M3.02734 6.61211C3.02734 6.32906 3.2568 6.09961 3.53984 6.09961H12.7648C13.0479 6.09961 13.2773 6.32906 13.2773 6.61211V13.7871C13.2773 14.0702 13.0479 14.2996 12.7648 14.2996H3.53984C3.2568 14.2996 3.02734 14.0702 3.02734 13.7871V6.61211ZM4.05234 7.12461V13.2746H12.2523V7.12461H4.05234Z" fill="#27AE60"/>
</svg>
