<svg width="14" height="14" viewBox="0 0 14 14" fill="none" xmlns="http://www.w3.org/2000/svg">
<path d="M12.0589 6.39188C11.9877 6.34114 11.896 6.32779 11.8132 6.35717L8.0108 7.68345C7.90221 7.72173 7.82922 7.82409 7.82922 7.93892V11.203C7.82922 11.2911 7.87195 11.373 7.94316 11.4237C7.98944 11.4567 8.04463 11.4736 8.09981 11.4736C8.13007 11.4736 8.16034 11.4682 8.18882 11.4585L11.9912 10.1322C12.0998 10.0939 12.1728 9.99154 12.1728 9.87671V6.61263C12.1728 6.5254 12.131 6.44262 12.0589 6.39188ZM11.6316 9.68445L8.37128 10.822V8.13118L11.6316 6.99361V9.68445Z" fill="#2A2A86"/>
<path d="M0.266155 10.9736L6.67384 13.1054C6.7139 13.1188 6.75573 13.125 6.79757 13.125C6.8394 13.125 6.88123 13.1188 6.92129 13.1054L13.329 10.9736C13.4892 10.9202 13.5969 10.7706 13.5969 10.6024V3.37281C13.5969 3.20368 13.4883 3.05414 13.3281 3.00163L6.9204 0.898266C6.84118 0.872453 6.75573 0.872453 6.67652 0.898266L0.268828 3.00163C0.108613 3.05414 2.17402e-05 3.20457 2.17402e-05 3.37281V10.6024C-0.00175842 10.7706 0.10594 10.9202 0.266155 10.9736ZM4.85007 2.31979L10.5697 4.35283V5.85892L9.4322 6.23722V4.71867C9.4322 4.71867 9.4322 4.71867 9.4322 4.71778C9.4322 4.5896 9.3423 4.4819 9.22214 4.45431L4.00093 2.5984L4.85007 2.31979ZM8.32495 4.71066L6.79667 5.21892L1.44373 3.43779L3.15981 2.87434L8.32495 4.71066ZM7.06814 12.2322V5.70048L8.89104 5.0943V6.61463C8.89104 6.70186 8.93287 6.78376 9.00319 6.83449C9.04947 6.86832 9.10554 6.88523 9.16161 6.88523C9.1901 6.88523 9.21948 6.88078 9.24707 6.87099L10.9258 6.31199C11.0361 6.2755 11.1109 6.17135 11.1109 6.05475V4.35461L12.8136 3.78849V10.3202L7.06814 12.2322ZM10.8394 3.87395L5.6903 2.04385L6.79667 1.68068L12.1496 3.43779L10.8394 3.87395ZM0.780624 10.3202V3.7876L6.52698 5.69959V12.2313L0.780624 10.3202Z" fill="#2A2A86"/>
</svg>
