<svg width="16" height="16" viewBox="0 0 16 16" fill="none" xmlns="http://www.w3.org/2000/svg">
<path fill-rule="evenodd" clip-rule="evenodd" d="M1.29966 1.6581C2.16348 1.42251 2.98956 1.97743 3.2102 2.78644C3.21192 2.79276 3.21352 2.79911 3.215 2.80549L5.52125 12.748C5.58521 13.0237 5.41353 13.2991 5.13781 13.363C4.86208 13.427 4.58672 13.2553 4.52276 12.9796L2.21905 3.04803C2.12932 2.73489 1.83078 2.57568 1.56935 2.64698C1.29628 2.72146 1.01454 2.56046 0.940062 2.28739C0.865588 2.01432 1.02658 1.73257 1.29966 1.6581Z" fill="#FCAF17"/>
<path fill-rule="evenodd" clip-rule="evenodd" d="M14.2841 11.8274C14.3465 12.1034 14.1732 12.3778 13.8972 12.4402L6.41466 14.1315C6.13858 14.1939 5.86419 14.0207 5.80178 13.7446C5.73938 13.4685 5.9126 13.1941 6.18869 13.1317L13.6712 11.4405C13.9473 11.3781 14.2217 11.5513 14.2841 11.8274Z" fill="#FCAF17"/>
<path fill-rule="evenodd" clip-rule="evenodd" d="M4.47088 3.55597C4.40714 3.2802 4.57903 3.00497 4.8548 2.94123L12.8441 1.09459C13.1198 1.03084 13.3951 1.20273 13.4588 1.4785L15.3054 9.46776C15.3692 9.74353 15.1973 10.0188 14.9215 10.0825L6.93227 11.9291C6.6565 11.9929 6.38127 11.821 6.31752 11.5452L4.47088 3.55597ZM5.58496 3.82447L7.20077 10.8151L14.1914 9.19926L12.5756 2.20866L5.58496 3.82447Z" fill="#FCAF17"/>
<path fill-rule="evenodd" clip-rule="evenodd" d="M9.8257 1.8062C10.098 1.74337 10.3704 1.9102 10.4381 2.18128L11.0531 4.64128C11.0963 4.81402 11.0467 4.9968 10.9222 5.12405C10.7977 5.2513 10.616 5.30479 10.4424 5.26533L9.5601 5.06482L8.88299 5.62244C8.74726 5.73421 8.56371 5.76861 8.39673 5.71356C8.22974 5.65851 8.10263 5.5217 8.05999 5.35112L7.44499 2.89112C7.41163 2.75769 7.43331 2.61645 7.50514 2.49916C7.57697 2.38187 7.69293 2.29838 7.82695 2.26745L9.8257 1.8062ZM8.56597 3.14885L8.85763 4.31548L9.10264 4.11371C9.22509 4.01287 9.38733 3.97441 9.54202 4.00957L9.85653 4.08105L9.5658 2.91812L8.56597 3.14885Z" fill="#FCAF17"/>
<path fill-rule="evenodd" clip-rule="evenodd" d="M5.27969 13.3766C4.99664 13.3766 4.76719 13.606 4.76719 13.8891C4.76719 14.1721 4.99664 14.4016 5.27969 14.4016C5.56273 14.4016 5.79219 14.1721 5.79219 13.8891C5.79219 13.606 5.56273 13.3766 5.27969 13.3766ZM3.74219 13.8891C3.74219 13.0399 4.43055 12.3516 5.27969 12.3516C6.12883 12.3516 6.81719 13.0399 6.81719 13.8891C6.81719 14.7382 6.12883 15.4266 5.27969 15.4266C4.43055 15.4266 3.74219 14.7382 3.74219 13.8891Z" fill="#FCAF17"/>
</svg>
