<svg width="17" height="13" viewBox="0 0 17 13" fill="none" xmlns="http://www.w3.org/2000/svg">
<path d="M0.266155 10.0947L6.67385 12.2265C6.7139 12.2398 6.75573 12.2461 6.79756 12.2461C6.8394 12.2461 6.88123 12.2398 6.92129 12.2265L10.0606 11.1824C10.6445 12.0716 11.6503 12.66 12.794 12.66C14.5991 12.66 16.0624 11.1966 16.0624 9.39146C16.0624 7.86401 15.0139 6.58045 13.5969 6.22262V2.4939C13.5969 2.32478 13.4883 2.17524 13.3281 2.12272L6.9204 0.0193602C6.84118 -0.00645339 6.75573 -0.00645339 6.67651 0.0193602L0.268828 2.12272C0.108613 2.17524 2.17402e-05 2.32567 2.17402e-05 2.4939V9.72347C-0.00175842 9.8926 0.10594 10.0421 0.266155 10.0947ZM12.7931 6.12293C10.9881 6.12293 9.52477 7.58629 9.52477 9.39146C9.52477 9.77154 9.59064 10.1356 9.70902 10.4747L7.06726 11.3533V4.82157L12.8136 2.90959V6.12382C12.8074 6.12382 12.8003 6.12293 12.7931 6.12293ZM10.1745 3.21668L5.12066 1.35187L6.79668 0.801776L12.1496 2.55888L10.1745 3.21668ZM9.3521 3.49084L7.4758 4.11481L6.79756 4.3409L6.13179 4.11926L1.44373 2.55977L4.29288 1.62425L9.3521 3.49084ZM0.780624 9.44219V2.91048L6.52698 4.82157V11.3533L0.780624 9.44219ZM14.4024 7.87914C14.5822 7.69933 14.8742 7.69933 15.0548 7.87914C15.2346 8.05894 15.2346 8.35091 15.0548 8.5316L12.3072 11.2794C12.2173 11.3693 12.0989 11.4147 11.9814 11.4147C11.863 11.4147 11.7455 11.3693 11.6556 11.2794L10.6463 10.27C10.4665 10.0902 10.4665 9.79824 10.6463 9.61755C10.8261 9.43774 11.118 9.43774 11.2987 9.61755L11.9823 10.3012L14.4024 7.87914Z" fill="#27AE60"/>
</svg>
