<svg width="16" height="15" viewBox="0 0 16 15" fill="none" xmlns="http://www.w3.org/2000/svg">
<path fill-rule="evenodd" clip-rule="evenodd" d="M4.26172 0.588672C4.26172 0.305626 4.49117 0.0761719 4.77422 0.0761719H6.82422C7.10726 0.0761719 7.33672 0.305626 7.33672 0.588672V3.15117C7.33672 3.32879 7.24475 3.49375 7.09366 3.58713C6.94256 3.68051 6.75389 3.689 6.59502 3.60957L5.79922 3.21166L5.00342 3.60957C4.84455 3.689 4.65587 3.68051 4.50478 3.58713C4.35369 3.49375 4.26172 3.32879 4.26172 3.15117V0.588672ZM5.28672 1.10117V2.32193L5.57002 2.18028C5.7143 2.10814 5.88413 2.10814 6.02842 2.18028L6.31172 2.32193V1.10117H5.28672Z" fill="#2A2A86"/>
<path fill-rule="evenodd" clip-rule="evenodd" d="M11.277 5.22747C11.3822 5.19241 11.4959 5.19241 11.6011 5.22747L14.6761 6.25247C14.8854 6.32223 15.0266 6.51808 15.0266 6.73867V10.8387C15.0266 12.0673 14.4 12.8983 13.6658 13.4416C12.9487 13.9722 12.1058 14.2487 11.5863 14.4046C11.4827 14.4356 11.3719 14.4331 11.2698 14.3974C11.243 14.388 11.2152 14.3783 11.1864 14.3683C10.682 14.1927 9.88952 13.9167 9.21501 13.4243C8.4806 12.8882 7.85156 12.0697 7.85156 10.8387V6.73867C7.85156 6.51808 7.99272 6.32223 8.202 6.25247L11.277 5.22747ZM8.87656 7.10806V10.8387C8.87656 11.6577 9.27252 12.1973 9.81936 12.5965C10.3323 12.9709 10.9466 13.1979 11.4496 13.3744C11.9356 13.2219 12.5486 12.9932 13.0561 12.6176C13.6032 12.2128 14.0016 11.66 14.0016 10.8387V7.10806L11.4391 6.25389L8.87656 7.10806Z" fill="#2A2A86"/>
<path fill-rule="evenodd" clip-rule="evenodd" d="M0.675781 0.588672C0.675781 0.305626 0.905235 0.0761719 1.18828 0.0761719H10.4133C10.6963 0.0761719 10.9258 0.305626 10.9258 0.588672V6.07242C10.9258 6.29443 10.7828 6.4912 10.5717 6.55982L8.87578 7.111V9.81367C8.87578 10.0967 8.64633 10.3262 8.36328 10.3262H1.18828C0.905235 10.3262 0.675781 10.0967 0.675781 9.81367V0.588672ZM1.70078 1.10117V9.30117H7.85078V6.73867C7.85078 6.51666 7.99373 6.31989 8.20487 6.25127L9.90078 5.7001V1.10117H1.70078Z" fill="#2A2A86"/>
<path fill-rule="evenodd" clip-rule="evenodd" d="M12.694 8.32961C12.9472 8.45619 13.0498 8.76404 12.9232 9.0172L11.8982 11.0672C11.8246 11.2145 11.6845 11.3175 11.5219 11.3439C11.3593 11.3703 11.1939 11.3169 11.0775 11.2004L10.0525 10.1754C9.85231 9.97525 9.85231 9.65075 10.0525 9.45061C10.2526 9.25047 10.5771 9.25047 10.7772 9.45061L11.2994 9.97282L12.0064 8.55881C12.133 8.30564 12.4409 8.20303 12.694 8.32961Z" fill="#2A2A86"/>
</svg>
