<svg width="16" height="13" viewBox="0 0 16 13" fill="none" xmlns="http://www.w3.org/2000/svg">
<path fill-rule="evenodd" clip-rule="evenodd" d="M5.07812 9.73711C5.07812 9.45406 5.30758 9.22461 5.59062 9.22461H8.15312C8.43617 9.22461 8.66562 9.45406 8.66562 9.73711V11.7871C8.66562 12.0702 8.43617 12.2996 8.15312 12.2996H5.59062C5.30758 12.2996 5.07812 12.0702 5.07812 11.7871V9.73711ZM6.10312 10.2496V11.2746H7.64062V10.2496H6.10312Z" fill="#27AE60"/>
<path fill-rule="evenodd" clip-rule="evenodd" d="M7.64062 9.73711C7.64062 9.45406 7.87008 9.22461 8.15312 9.22461H10.7156C10.9987 9.22461 11.2281 9.45406 11.2281 9.73711V11.7871C11.2281 12.0702 10.9987 12.2996 10.7156 12.2996H8.15312C7.87008 12.2996 7.64062 12.0702 7.64062 11.7871V9.73711ZM8.66562 10.2496V11.2746H10.2031V10.2496H8.66562Z" fill="#27AE60"/>
<path fill-rule="evenodd" clip-rule="evenodd" d="M6.10156 7.68828C6.10156 7.40524 6.33102 7.17578 6.61406 7.17578H9.17656C9.45961 7.17578 9.68906 7.40524 9.68906 7.68828V9.73828C9.68906 10.0213 9.45961 10.2508 9.17656 10.2508H6.61406C6.33102 10.2508 6.10156 10.0213 6.10156 9.73828V7.68828ZM7.12656 8.20078V9.22578H8.66406V8.20078H7.12656Z" fill="#27AE60"/>
<path fill-rule="evenodd" clip-rule="evenodd" d="M8.00084 0.0226633C8.09905 -0.00755442 8.20407 -0.00755442 8.30228 0.0226633L14.9648 2.07266C15.1798 2.13883 15.3266 2.33751 15.3266 2.5625V11.7875C15.3266 12.0705 15.0971 12.3 14.8141 12.3H1.48906C1.20602 12.3 0.976562 12.0705 0.976562 11.7875V2.5625C0.976562 2.33751 1.1233 2.13883 1.33834 2.07266L8.00084 0.0226633ZM2.00156 2.94102V11.275H14.3016V2.94102L8.15156 1.04871L2.00156 2.94102Z" fill="#27AE60"/>
<path fill-rule="evenodd" clip-rule="evenodd" d="M3.02734 4.61211C3.02734 4.32906 3.2568 4.09961 3.53984 4.09961H12.7648C13.0479 4.09961 13.2773 4.32906 13.2773 4.61211V11.7871C13.2773 12.0702 13.0479 12.2996 12.7648 12.2996H3.53984C3.2568 12.2996 3.02734 12.0702 3.02734 11.7871V4.61211ZM4.05234 5.12461V11.2746H12.2523V5.12461H4.05234Z" fill="#27AE60"/>
</svg>
