<svg width="16" height="13" viewBox="0 0 16 13" fill="none" xmlns="http://www.w3.org/2000/svg">
<path d="M0.265121 10.0554L6.64791 12.179C6.68781 12.1923 6.72948 12.1985 6.77115 12.1985C6.81283 12.1985 6.8545 12.1923 6.8944 12.179L10.0215 11.1389C10.6031 12.0247 11.605 12.6108 12.7443 12.6108C14.5424 12.6108 16 11.1531 16 9.35496C16 7.83256 14.9556 6.55488 13.5441 6.19844V2.48421C13.5441 2.31574 13.4359 2.16678 13.2763 2.11447L6.89351 0.0192849C6.8146 -0.00642831 6.72948 -0.00642831 6.65057 0.0192849L0.267772 2.11447C0.10818 2.16678 2.16557e-05 2.31663 2.16557e-05 2.48421V9.68569C-0.00175159 9.85416 0.105529 10.0031 0.265121 10.0554ZM9.67218 10.434L7.04068 11.3092V4.80283L12.7647 2.89828V6.10002C12.7576 6.10002 12.7514 6.09913 12.7443 6.09913C10.9463 6.09913 9.48864 7.55681 9.48864 9.35496C9.48776 9.73357 9.55337 10.0962 9.67218 10.434ZM10.135 3.20418L5.10075 1.34662L6.77027 0.79866L12.1024 2.54894L10.135 3.20418ZM9.31575 3.47727L7.44676 4.09882L6.77115 4.32404L6.10796 4.10326L1.43812 2.54982L4.2762 1.61794L9.31575 3.47727ZM0.77758 9.4055V2.89917L6.50162 4.80372V11.3101L0.77758 9.4055ZM13.787 7.66055C13.9661 7.48144 14.2569 7.48144 14.4369 7.66055C14.616 7.83966 14.616 8.13048 14.4369 8.31047L13.3933 9.35408L14.4369 10.3977C14.616 10.5768 14.616 10.8676 14.4369 11.0476C14.3473 11.1372 14.2294 11.1824 14.1124 11.1824C13.9945 11.1824 13.8774 11.1372 13.7879 11.0476L12.7443 10.004L11.7008 11.0476C11.6112 11.1372 11.4933 11.1824 11.3763 11.1824C11.2592 11.1824 11.1413 11.1372 11.0518 11.0476C10.8727 10.8685 10.8727 10.5777 11.0518 10.3977L12.0953 9.35408L11.0518 8.31047C10.8727 8.13137 10.8727 7.84054 11.0518 7.66055C11.2309 7.48144 11.5217 7.48144 11.7017 7.66055L12.7452 8.70415L13.787 7.66055Z" fill="#E24343"/>
</svg>
