<svg width="14" height="15" viewBox="0 0 14 15" fill="none" xmlns="http://www.w3.org/2000/svg">
<path d="M1.66624 3.67605H3.03561V4.37875C3.03561 5.15172 3.65183 5.78415 4.40498 5.78415H8.51309C9.26624 5.78415 9.88246 5.15172 9.88246 4.37875V3.67605H11.2518V7.18956H12.6212V3.67605C12.6212 2.90307 12.005 2.27064 11.2518 2.27064H8.38985C8.10228 1.4555 7.34913 0.865234 6.45904 0.865234C5.56895 0.865234 4.81579 1.4555 4.52823 2.27064H1.66624C0.913091 2.27064 0.296875 2.90307 0.296875 3.67605V13.5139C0.296875 14.2869 0.913091 14.9193 1.66624 14.9193H5.77435V13.5139H1.66624V3.67605ZM6.45904 2.27064C6.83561 2.27064 7.14372 2.58686 7.14372 2.97334C7.14372 3.35983 6.83561 3.67605 6.45904 3.67605C6.08246 3.67605 5.77435 3.35983 5.77435 2.97334C5.77435 2.58686 6.08246 2.27064 6.45904 2.27064Z" fill="#27AE60"/>
<path d="M13.1355 8.77077C12.8548 8.48266 12.3892 8.48266 12.1085 8.77077L8.86308 12.1086L7.31569 10.5275C7.03497 10.2394 6.57623 10.2394 6.28867 10.5275C6.00794 10.8156 6.00794 11.2935 6.28867 11.5816L8.37695 13.7178C8.64398 13.9919 9.07533 13.9919 9.34236 13.7178L13.1287 9.82482C13.4162 9.53671 13.4162 9.05888 13.1355 8.77077Z" fill="#27AE60"/>
</svg>
