<svg width="14" height="14" viewBox="0 0 14 14" fill="none" xmlns="http://www.w3.org/2000/svg">
<path d="M2.01693 3.00051H3.35026V3.68472C3.35026 4.43736 3.95026 5.05315 4.68359 5.05315H8.68359C9.41693 5.05315 10.0169 4.43736 10.0169 3.68472V3.00051H11.3503V6.42157H12.6836V3.00051C12.6836 2.24788 12.0836 1.63209 11.3503 1.63209H8.56359C8.28359 0.838409 7.55026 0.263672 6.68359 0.263672C5.81693 0.263672 5.08359 0.838409 4.80359 1.63209H2.01693C1.28359 1.63209 0.683594 2.24788 0.683594 3.00051V12.5795C0.683594 13.3321 1.28359 13.9479 2.01693 13.9479H6.01693V12.5795H2.01693V3.00051ZM6.68359 1.63209C7.05026 1.63209 7.35026 1.93999 7.35026 2.3163C7.35026 2.69262 7.05026 3.00051 6.68359 3.00051C6.31693 3.00051 6.01693 2.69262 6.01693 2.3163C6.01693 1.93999 6.31693 1.63209 6.68359 1.63209Z" fill="#E24343"/>
<path d="M10.1207 10.4867L8.36719 13.0526H9.90279L10.8539 11.5765H10.9133L11.8842 13.0526H13.4198L11.6464 10.4867L13.4198 8H11.8347L10.9331 9.44644H10.8737L9.9127 8H8.37709L10.1207 10.4867Z" fill="#E24343"/>
</svg>
