<svg width="24" height="24" viewBox="0 0 24 24" fill="none" xmlns="http://www.w3.org/2000/svg">
<path d="M6.82109 6.79884C6.67787 6.6556 6.44632 6.6556 6.30311 6.79884L5.80967 7.29237L5.67226 7.15449C5.52905 7.01125 5.2975 7.01125 5.15428 7.15449C5.01107 7.29728 5.01107 7.52933 5.15428 7.67257L5.55091 8.06927C5.61961 8.13799 5.71286 8.17637 5.81012 8.17637C5.90738 8.17637 6.00018 8.13755 6.06888 8.06927L6.82109 7.31692C6.96385 7.17368 6.96385 6.94208 6.82109 6.79884Z" fill="#2A2A86"/>
<path d="M8.16316 15.2757H8.80918C9.01128 15.2757 9.17546 15.1115 9.17546 14.9093C9.17546 14.7072 9.01173 14.543 8.80918 14.543H8.16316C7.96106 14.543 7.79688 14.7072 7.79688 14.9093C7.79732 15.1119 7.96106 15.2757 8.16316 15.2757Z" fill="#2A2A86"/>
<path d="M8.16316 17.8069H8.83818C9.04028 17.8069 9.20446 17.6427 9.20446 17.4406C9.20446 17.2384 9.04073 17.0742 8.83818 17.0742H8.16316C7.96106 17.0742 7.79688 17.2384 7.79688 17.4406C7.79732 17.6432 7.96106 17.8069 8.16316 17.8069Z" fill="#2A2A86"/>
<path d="M22.3168 13.6136C22.3155 13.5681 22.3097 13.5235 22.2999 13.4793C22.2976 13.469 22.2972 13.4583 22.2945 13.4485C22.2802 13.3954 22.2601 13.345 22.2352 13.2968C22.2289 13.2843 22.2204 13.2736 22.2133 13.2615C22.1923 13.2263 22.1687 13.1928 22.1419 13.1611C22.1303 13.1473 22.1183 13.1348 22.1053 13.1223C22.0772 13.0938 22.0464 13.0683 22.0139 13.0447C22.005 13.038 21.9978 13.0291 21.9884 13.0228C21.984 13.0197 21.9786 13.0184 21.9737 13.0157C21.9331 12.9907 21.8898 12.9693 21.8434 12.9519C21.8359 12.9492 21.8287 12.9443 21.8211 12.942L21.8189 12.9412L16.3425 11.1156C16.1921 11.0656 16.0297 11.0656 15.8794 11.1156L10.4034 12.9412C10.4007 12.942 10.3989 12.9434 10.3962 12.9443C10.3828 12.9487 10.3704 12.9563 10.357 12.9621C10.3177 12.9782 10.2802 12.9965 10.2454 13.0184C10.2396 13.0219 10.2329 13.0237 10.2276 13.0273C10.2178 13.0335 10.2111 13.0429 10.2017 13.0496C10.1705 13.0728 10.1415 13.0978 10.1143 13.125C10.1018 13.1379 10.0893 13.1504 10.0777 13.1643C10.0509 13.196 10.0273 13.2303 10.0063 13.266C9.9996 13.2772 9.99157 13.2874 9.98577 13.299C9.96079 13.3472 9.94116 13.3976 9.92733 13.4503C9.9242 13.4615 9.92376 13.4731 9.92108 13.4842C9.91216 13.5271 9.90636 13.5699 9.90502 13.6141C9.90457 13.6217 9.90234 13.6288 9.90234 13.6359V19.611C9.90234 19.8948 10.0661 20.1532 10.3231 20.2741L15.965 22.9297C15.969 22.9315 15.9735 22.9319 15.9771 22.9337C16.0119 22.9493 16.0489 22.9609 16.0864 22.9712C16.0984 22.9743 16.1105 22.9796 16.1225 22.9823C16.172 22.993 16.2233 22.9993 16.2764 22.9993C16.3309 22.9993 16.384 22.9921 16.4353 22.981C16.4495 22.9779 16.4625 22.9721 16.4768 22.968C16.5142 22.9573 16.5508 22.9448 16.5856 22.9288C16.5919 22.9261 16.5981 22.9252 16.6044 22.9221L21.9148 20.2665C22.1629 20.1425 22.3195 19.889 22.3195 19.6115V13.6364C22.3195 13.6279 22.3168 13.6212 22.3168 13.6136ZM15.5443 21.1122L11.367 19.146V18.6574L15.5443 20.6235V21.1122ZM15.5443 19.2746L11.367 17.3085V14.7292L15.5443 16.4499V19.2746ZM16.268 15.1634L12.7336 13.7078L16.1105 12.5819L19.548 13.7279L16.268 15.1634ZM20.8548 19.1576L17.0095 21.0809V20.6101L20.8548 18.6869V19.1576ZM20.8548 17.3218L17.0095 19.2451V16.4383L20.8548 14.7555V17.3218Z" fill="#FCAF17"/>
<path d="M6.82109 9.09962C6.67787 8.95638 6.44632 8.95638 6.30311 9.09962L5.80967 9.59315L5.67226 9.45527C5.52905 9.31203 5.2975 9.31203 5.15428 9.45527C5.01107 9.59806 5.01107 9.83011 5.15428 9.97335L5.55091 10.3701C5.61961 10.4388 5.71286 10.4772 5.81012 10.4772C5.90738 10.4772 6.00018 10.4383 6.06888 10.3701L6.82109 9.6177C6.96385 9.4749 6.96385 9.24286 6.82109 9.09962Z" fill="#2A2A86"/>
<path d="M6.82109 11.627C6.67787 11.4837 6.44632 11.4837 6.30311 11.627L5.80967 12.1205L5.67226 11.9826C5.52905 11.8394 5.2975 11.8394 5.15428 11.9826C5.01107 12.1254 5.01107 12.3574 5.15428 12.5007L5.55091 12.8974C5.61961 12.9661 5.71286 13.0045 5.81012 13.0045C5.90738 13.0045 6.00018 12.9657 6.06888 12.8974L6.82109 12.145C6.96385 12.0018 6.96385 11.7702 6.82109 11.627Z" fill="#2A2A86"/>
<path d="M6.85927 14.4693C6.85927 14.2212 6.65761 14.0195 6.40955 14.0195H5.55563C5.30757 14.0195 5.10547 14.2217 5.10547 14.4693V15.3234C5.10547 15.5715 5.30713 15.7732 5.55563 15.7732H6.40955C6.65761 15.7732 6.85927 15.5711 6.85927 15.3234V14.4693ZM6.1267 15.041H5.83804V14.7522H6.1267V15.041Z" fill="#2A2A86"/>
<path d="M6.40911 16.5508H5.55563C5.30757 16.5508 5.10547 16.7529 5.10547 17.0006V17.8547C5.10547 18.1028 5.30713 18.3045 5.55563 18.3045H6.40955C6.65761 18.3045 6.85927 18.1023 6.85927 17.8547V17.0006C6.85927 16.7529 6.65717 16.5508 6.40911 16.5508ZM6.1267 17.5722H5.83804V17.2835H6.1267V17.5722Z" fill="#2A2A86"/>
<path d="M10.2957 12.2687C10.2957 12.0666 10.132 11.9023 9.92945 11.9023H8.16316C7.96106 11.9023 7.79688 12.0666 7.79688 12.2687C7.79688 12.4709 7.96061 12.6351 8.16316 12.6351H9.92945C10.132 12.6346 10.2957 12.4709 10.2957 12.2687Z" fill="#2A2A86"/>
<path d="M14.2736 9.74136C14.2736 9.53921 14.1098 9.375 13.9073 9.375H8.16316C7.96106 9.375 7.79688 9.53921 7.79688 9.74136C7.79688 9.94351 7.96061 10.1077 8.16316 10.1077H13.9073C14.1098 10.1073 14.2736 9.94351 14.2736 9.74136Z" fill="#2A2A86"/>
<path d="M13.9077 7.07812H8.16316C7.96106 7.07812 7.79688 7.24234 7.79688 7.44449C7.79688 7.64664 7.96061 7.81086 8.16316 7.81086H13.9073C14.1094 7.81086 14.2736 7.64664 14.2736 7.44449C14.2736 7.2419 14.1098 7.07812 13.9077 7.07812Z" fill="#2A2A86"/>
<path d="M14.5769 22.8151L12.0138 21.6089C11.9098 21.5598 11.796 21.5344 11.6809 21.5344H4.1705C3.78057 21.5344 3.4647 21.2185 3.4647 20.8285V5.31999C3.4647 4.92998 3.78057 4.61405 4.1705 4.61405H6.60334C6.62341 5.25083 7.14451 5.76311 7.78563 5.76311H12.6223C13.2634 5.76311 13.7845 5.25083 13.8046 4.61405H16.237C16.6269 4.61405 16.9428 4.92998 16.9428 5.31999V10.6784C16.9428 10.7511 16.9892 10.8158 17.0583 10.8386L18.1849 11.2143C18.2942 11.2509 18.4075 11.1692 18.4075 11.0541V5.31999C18.4075 4.12096 17.4358 3.14906 16.237 3.14906H13.8041C13.7841 2.51272 13.263 2 12.6219 2H7.78563C7.14451 2 6.62341 2.51272 6.60334 3.14906H4.1705C2.97171 3.14906 2 4.12096 2 5.31999V20.8285C2 22.0275 2.97171 22.9994 4.1705 22.9994H14.5358C14.6389 22.9994 14.6706 22.8593 14.5769 22.8151Z" fill="#2A2A86"/>
</svg>
