<svg width="16" height="16" viewBox="0 0 16 16" fill="none" xmlns="http://www.w3.org/2000/svg">
<path d="M11.2871 5.20453H10.4626C10.2833 5.20453 10.1128 5.29066 10.0074 5.43832L7.24409 9.27035L5.99253 7.53363C5.88706 7.38773 5.71831 7.29984 5.53725 7.29984H4.71284C4.59858 7.29984 4.53178 7.42992 4.59858 7.52308L6.78882 10.5606C6.84056 10.6328 6.90877 10.6916 6.98779 10.7322C7.06681 10.7728 7.15437 10.794 7.24321 10.794C7.33205 10.794 7.41961 10.7728 7.49863 10.7322C7.57765 10.6916 7.64586 10.6328 7.6976 10.5606L11.3996 5.42777C11.4681 5.33461 11.4013 5.20453 11.2871 5.20453Z" fill="#27AE60"/>
<path d="M8 0.125C3.65117 0.125 0.125 3.65117 0.125 8C0.125 12.3488 3.65117 15.875 8 15.875C12.3488 15.875 15.875 12.3488 15.875 8C15.875 3.65117 12.3488 0.125 8 0.125ZM8 14.5391C4.38945 14.5391 1.46094 11.6105 1.46094 8C1.46094 4.38945 4.38945 1.46094 8 1.46094C11.6105 1.46094 14.5391 4.38945 14.5391 8C14.5391 11.6105 11.6105 14.5391 8 14.5391Z" fill="#27AE60"/>
</svg>
