<svg width="14" height="4" viewBox="0 0 14 4" fill="none" xmlns="http://www.w3.org/2000/svg">
<path d="M3.75 2C3.75 2.22981 3.70474 2.45738 3.61679 2.6697C3.52884 2.88202 3.39994 3.07493 3.23744 3.23744C3.07493 3.39994 2.88202 3.52884 2.6697 3.61679C2.45738 3.70473 2.22981 3.75 2 3.75C1.77019 3.75 1.54262 3.70473 1.3303 3.61679C1.11798 3.52884 0.925066 3.39994 0.762563 3.23744C0.600061 3.07493 0.471157 2.88202 0.383211 2.6697C0.295265 2.45738 0.25 2.22981 0.25 2C0.25 1.53587 0.434375 1.09075 0.762563 0.762563C1.09075 0.434374 1.53587 0.25 2 0.25C2.46413 0.25 2.90925 0.434374 3.23744 0.762563C3.56563 1.09075 3.75 1.53587 3.75 2Z" fill="#222222"/>
<path d="M8.75 2C8.75 2.22981 8.70473 2.45738 8.61679 2.6697C8.52884 2.88202 8.39994 3.07493 8.23744 3.23744C8.07493 3.39994 7.88202 3.52884 7.6697 3.61679C7.45738 3.70473 7.22981 3.75 7 3.75C6.77019 3.75 6.54262 3.70473 6.3303 3.61679C6.11798 3.52884 5.92507 3.39994 5.76256 3.23744C5.60006 3.07493 5.47116 2.88202 5.38321 2.6697C5.29527 2.45738 5.25 2.22981 5.25 2C5.25 1.53587 5.43437 1.09075 5.76256 0.762563C6.09075 0.434374 6.53587 0.25 7 0.25C7.46413 0.25 7.90925 0.434374 8.23744 0.762563C8.56563 1.09075 8.75 1.53587 8.75 2Z" fill="#222222"/>
<path d="M12 3.75C12.2298 3.75 12.4574 3.70473 12.6697 3.61679C12.882 3.52884 13.0749 3.39994 13.2374 3.23744C13.3999 3.07493 13.5288 2.88202 13.6168 2.6697C13.7047 2.45738 13.75 2.22981 13.75 2C13.75 1.77019 13.7047 1.54262 13.6168 1.3303C13.5288 1.11798 13.3999 0.925065 13.2374 0.762563C13.0749 0.60006 12.882 0.471157 12.6697 0.383211C12.4574 0.295265 12.2298 0.25 12 0.25C11.5359 0.25 11.0908 0.434374 10.7626 0.762563C10.4344 1.09075 10.25 1.53587 10.25 2C10.25 2.46413 10.4344 2.90925 10.7626 3.23744C11.0908 3.56563 11.5359 3.75 12 3.75Z" fill="#222222"/>
</svg>
