<svg width="18" height="18" viewBox="0 0 18 18" fill="none" xmlns="http://www.w3.org/2000/svg">
<path d="M4.5 0C3.90326 0 3.33097 0.237053 2.90901 0.65901C2.48705 1.08097 2.25 1.65326 2.25 2.25V15.75C2.25 16.3467 2.48705 16.919 2.90901 17.341C3.33097 17.7629 3.90326 18 4.5 18H13.5C14.0967 18 14.669 17.7629 15.091 17.341C15.5129 16.919 15.75 16.3467 15.75 15.75V2.25C15.75 1.65326 15.5129 1.08097 15.091 0.65901C14.669 0.237053 14.0967 0 13.5 0H4.5ZM4.5 1.125H13.5C13.7984 1.125 14.0845 1.24353 14.2955 1.4545C14.5065 1.66548 14.625 1.95163 14.625 2.25V15.75C14.625 16.0484 14.5065 16.3345 14.2955 16.5455C14.0845 16.7565 13.7984 16.875 13.5 16.875H4.5C4.20163 16.875 3.91548 16.7565 3.7045 16.5455C3.49353 16.3345 3.375 16.0484 3.375 15.75V2.25C3.375 1.95163 3.49353 1.66548 3.7045 1.4545C3.91548 1.24353 4.20163 1.125 4.5 1.125Z" fill="white"/>
<path d="M5 12.0071C5 11.2824 5.18117 10.611 5.53996 9.99645C5.89876 9.38188 6.38544 8.8952 7 8.53641C7.61456 8.17762 8.28242 8 9.00355 8C9.54352 8 10.0622 8.10657 10.556 8.31616C11.0497 8.52575 11.4725 8.8135 11.8313 9.16874C12.1901 9.52398 12.4742 9.95027 12.6838 10.4476C12.8934 10.9449 13 11.46 13 12.0071C13 12.5471 12.8934 13.0657 12.6838 13.5595C12.4742 14.0533 12.1865 14.4796 11.8313 14.8348C11.476 15.1901 11.0497 15.4742 10.556 15.6838C10.0622 15.8934 9.54707 16 9.00355 16C8.46004 16 7.93783 15.8934 7.44405 15.6838C6.95027 15.4742 6.52398 15.1865 6.16519 14.8313C5.80639 14.476 5.52575 14.0497 5.31261 13.5595C5.09947 13.0693 5 12.5506 5 12.0071ZM5.88099 12.0071C5.88099 12.849 6.1865 13.5808 6.80107 14.2025C7.41563 14.8171 8.14742 15.1226 9.00355 15.1226C9.56483 15.1226 10.087 14.984 10.5631 14.7034C11.0391 14.4227 11.4227 14.0462 11.7034 13.5666C11.984 13.087 12.1261 12.5684 12.1261 12.0071C12.1261 11.4458 11.984 10.9236 11.7034 10.444C11.4227 9.96448 11.0426 9.58437 10.5631 9.30373C10.0835 9.02309 9.56483 8.88455 9.00355 8.88455C8.44227 8.88455 7.92007 9.02309 7.44405 9.30373C6.96448 9.58437 6.58437 9.96448 6.30018 10.444C6.01599 10.9236 5.88099 11.4458 5.88099 12.0071ZM7.87744 10.5044C7.89876 10.4263 7.94494 10.3659 8.01243 10.3268C8.08348 10.2842 8.15808 10.2735 8.23979 10.2948C8.32149 10.3162 8.38188 10.3623 8.42096 10.4298L8.69805 10.8917V9.64121C8.69805 9.5595 8.72647 9.48846 8.7833 9.43162C8.84014 9.37478 8.91119 9.34636 8.9929 9.34636C9.0746 9.34636 9.14565 9.37478 9.20249 9.43162C9.25932 9.48846 9.28774 9.5595 9.28774 9.64121V12.0107C9.28774 12.0924 9.25932 12.1634 9.20249 12.2202C9.14565 12.2771 9.0746 12.3055 8.9929 12.3055C8.8508 12.3055 8.75844 12.2416 8.71226 12.1172L7.90941 10.7282C7.88865 10.6953 7.87507 10.6583 7.86957 10.6198C7.86406 10.5812 7.86674 10.5419 7.87744 10.5044Z" fill="white"/>
<path d="M6 3H12V4H6V3Z" fill="white"/>
<path d="M6 5H12V6H6V5Z" fill="white"/>
</svg>
