<svg width="20" height="20" viewBox="0 0 14 14" fill="none" xmlns="http://www.w3.org/2000/svg">
<circle cx="7" cy="7" r="7" fill="url(#paint0_linear_19016_143467)"/>
<path fill-rule="evenodd" clip-rule="evenodd" d="M7.37151 3.71806C7.29669 3.58338 7.15472 3.49985 7.00065 3.49985C6.84658 3.49985 6.70462 3.58338 6.62979 3.71806L5.48392 5.78072C5.39403 5.94251 5.26993 6.08274 5.12027 6.19164C4.97061 6.30055 4.799 6.37551 4.6174 6.41128C4.4358 6.44706 4.24858 6.44279 4.06879 6.39878C3.88901 6.35477 3.72099 6.27208 3.57644 6.15647L3.02324 5.71399C2.884 5.60262 2.68998 5.5902 2.53767 5.6829C2.38536 5.77561 2.30728 5.95365 2.34225 6.12849L3.08637 9.84911C3.13153 10.0748 3.22762 10.2872 3.36732 10.4701C3.50702 10.6531 3.68672 10.8017 3.89256 10.9047C4.85759 11.3873 5.92171 11.6385 7.00065 11.6385C8.07959 11.6385 9.14379 11.3872 10.1088 10.9047C10.3147 10.8017 10.4943 10.6531 10.634 10.4701C10.7737 10.2872 10.8698 10.0748 10.9149 9.84908L11.6591 6.12849C11.694 5.95369 11.616 5.77567 11.4637 5.68295C11.3115 5.59023 11.1175 5.60258 10.9782 5.71386L10.4248 6.15608C10.2803 6.2717 10.1123 6.35441 9.93252 6.39845C9.75275 6.44248 9.56554 6.44677 9.38394 6.41103C9.20234 6.37528 9.03072 6.30036 8.88105 6.19148C8.73141 6.08263 8.60725 5.94235 8.51733 5.78062L7.37151 3.71806ZM7.00065 10.79C6.05347 10.79 5.11929 10.5695 4.27211 10.1459C4.18178 10.1007 4.10296 10.0354 4.04165 9.95517C3.98035 9.87491 3.93819 9.78171 3.91837 9.68268L3.3905 7.04334C3.54112 7.12189 3.70108 7.1823 3.86705 7.22293C4.16669 7.29628 4.47873 7.30339 4.7814 7.24376C5.08407 7.18414 5.37009 7.05921 5.61952 6.8777C5.86895 6.69618 6.07579 6.46245 6.22562 6.19279L7.00065 4.79768L7.77567 6.19277C7.92554 6.46238 8.13247 6.69617 8.38193 6.87763C8.63138 7.05909 8.91741 7.18396 9.22008 7.24353C9.52274 7.30311 9.83476 7.29595 10.1344 7.22257C10.3003 7.18192 10.4603 7.12149 10.6109 7.04291L10.0829 9.68264C10.0631 9.78167 10.0209 9.87491 9.95965 9.95517C9.89836 10.0354 9.81949 10.1007 9.72919 10.1459C8.88201 10.5695 7.94783 10.79 7.00065 10.79ZM5.49744 8.63756C5.28901 8.53053 5.03328 8.61274 4.92626 8.82117C4.81923 9.0296 4.90144 9.28532 5.10986 9.39235C6.33283 10.0203 7.66839 10.0203 8.89136 9.39235C9.09979 9.28532 9.18199 9.0296 9.07497 8.82117C8.96794 8.61274 8.71222 8.53053 8.50379 8.63756C7.5241 9.14061 6.47712 9.14061 5.49744 8.63756Z" fill="white"/>
<defs>
<linearGradient id="paint0_linear_19016_143467" x1="7" y1="0" x2="7" y2="14" gradientUnits="userSpaceOnUse">
<stop stop-color="#FFD501"/>
<stop offset="1" stop-color="#FE9801"/>
</linearGradient>
</defs>
</svg>
