<svg width="19" height="19" viewBox="0 0 19 19" fill="none" xmlns="http://www.w3.org/2000/svg">
<path d="M9.73826 1.20557C5.30054 1.2116 1.7146 4.80156 1.7146 9.23928C1.7146 11.8107 2.92397 14.1009 4.80433 15.5714L4.05098 16.5357C3.96862 16.6422 4.04496 16.7969 4.17755 16.7949L7.53246 16.7788C7.63692 16.7788 7.71326 16.6804 7.68714 16.5799L6.89362 13.3194C6.88645 13.29 6.87114 13.2633 6.84943 13.2422C6.82773 13.2211 6.80051 13.2066 6.77092 13.2003C6.74133 13.194 6.71057 13.1962 6.68216 13.2066C6.65376 13.217 6.62887 13.2352 6.61036 13.2591L5.79273 14.3058C5.58781 14.1451 5.39094 13.9703 5.20411 13.7835C4.61674 13.1981 4.14869 12.5043 3.82598 11.7404C3.49049 10.9489 3.32174 10.1071 3.32174 9.23928C3.32174 8.37142 3.49049 7.52968 3.82598 6.73816C4.14942 5.97276 4.61348 5.28571 5.20411 4.69508C5.79473 4.10446 6.48179 3.6404 7.24719 3.31696C8.04072 2.98147 8.88246 2.81272 9.75031 2.81272C10.6182 2.81272 11.4599 2.98147 12.2514 3.31696C13.0168 3.6404 13.7039 4.10446 14.2945 4.69508C14.8851 5.28571 15.3492 5.97276 15.6726 6.73816C16.0081 7.52968 16.1769 8.37142 16.1769 9.23928C16.1769 10.1071 16.0081 10.9489 15.6726 11.7404C15.3499 12.5043 14.8819 13.1981 14.2945 13.7835C14.1438 13.9341 13.9871 14.0748 13.8244 14.2094C13.7918 14.2359 13.771 14.2741 13.7665 14.3159C13.762 14.3577 13.7741 14.3995 13.8003 14.4324L14.5918 15.4469C14.6481 15.5172 14.7505 15.5292 14.8209 15.473C16.6309 13.9984 17.786 11.7545 17.786 9.23928C17.786 4.79754 14.182 1.19955 9.73826 1.20557Z" fill="black" fill-opacity="0.85"/>
</svg>
