<svg width="16" height="16" viewBox="0 0 16 16" fill="none" xmlns="http://www.w3.org/2000/svg">
<path fill-rule="evenodd" clip-rule="evenodd" d="M13.5754 3.83415H10.828V3.52742C10.828 1.57967 9.16339 0 7.11092 0C5.05845 0 3.39385 1.57967 3.39385 3.52742V3.83415H0.646448C0.288881 3.83415 0 4.10829 0 4.44762V14.7231C0 15.0625 0.288881 15.3366 0.646448 15.3366H8.44911C8.26837 14.9029 8.14958 14.4395 8.1031 13.9563H1.45451V5.21445H3.39385V6.90148C3.39385 6.98583 3.46658 7.05484 3.55546 7.05484H4.68675C4.77563 7.05484 4.84836 6.98583 4.84836 6.90148V5.21445H9.37349V6.90148C9.37349 6.98583 9.44622 7.05484 9.5351 7.05484H10.6664C10.7553 7.05484 10.828 6.98583 10.828 6.90148V5.21445H12.7673V8.51631C12.962 8.49566 13.1599 8.48506 13.3603 8.48506C13.6537 8.48506 13.9415 8.50777 14.2218 8.55144V4.44762C14.2218 4.10829 13.933 3.83415 13.5754 3.83415ZM4.84836 3.52742C4.84836 2.34075 5.86045 1.3803 7.11092 1.3803C8.3614 1.3803 9.37349 2.34075 9.37349 3.52742V3.83415H4.84836V3.52742ZM12.0297 9.67366C12.1375 9.57589 12.2655 9.55862 12.3429 9.55862H12.869C12.9464 9.55862 13.0744 9.57589 13.1822 9.67366C13.2932 9.77433 13.3163 9.89948 13.3163 9.9801V12.1193H15.5527C15.6301 12.1193 15.7581 12.1365 15.8659 12.2343C15.9769 12.335 16 12.4601 16 12.5407V13.0179C16 13.0985 15.9769 13.2236 15.8659 13.3243C15.7581 13.4221 15.6301 13.4394 15.5527 13.4394H13.3163V15.5785C13.3163 15.6591 13.2932 15.7843 13.1822 15.885C13.0744 15.9827 12.9464 16 12.869 16H12.3429C12.2655 16 12.1375 15.9827 12.0297 15.885C11.9187 15.7843 11.8956 15.6591 11.8956 15.5785V13.4394H9.65955C9.58221 13.4394 9.45423 13.4221 9.34641 13.3243C9.2354 13.2237 9.2123 13.0985 9.2123 13.0179V12.5407C9.2123 12.4601 9.2354 12.335 9.34642 12.2343C9.45423 12.1365 9.58221 12.1193 9.65955 12.1193H11.8956V9.9801C11.8956 9.89948 11.9187 9.77433 12.0297 9.67366Z" fill="black"/>
</svg>
