<svg width="24" height="24" viewBox="0 0 24 24" fill="none" xmlns="http://www.w3.org/2000/svg">
<path fill-rule="evenodd" clip-rule="evenodd" d="M14.828 7.83415H17.5754C17.933 7.83415 18.2218 8.10829 18.2218 8.44762V12.5514C17.9415 12.5078 17.6537 12.4851 17.3603 12.4851C17.1599 12.4851 16.962 12.4957 16.7673 12.5163V9.21445H14.828V10.9015C14.828 10.9858 14.7553 11.0548 14.6664 11.0548H13.5351C13.4462 11.0548 13.3735 10.9858 13.3735 10.9015V9.21445H8.84836V10.9015C8.84836 10.9858 8.77563 11.0548 8.68675 11.0548H7.55546C7.46658 11.0548 7.39385 10.9858 7.39385 10.9015V9.21445H5.45451V17.9563H12.1031C12.1496 18.4395 12.2684 18.9029 12.4491 19.3366H4.64645C4.28888 19.3366 4 19.0625 4 18.7231V8.44762C4 8.10829 4.28888 7.83415 4.64645 7.83415H7.39385V7.52742C7.39385 5.57967 9.05845 4 11.1109 4C13.1634 4 14.828 5.57967 14.828 7.52742V7.83415ZM11.1109 5.3803C9.86045 5.3803 8.84836 6.34075 8.84836 7.52742V7.83415H13.3735V7.52742C13.3735 6.34075 12.3614 5.3803 11.1109 5.3803Z" fill="black"/>
<g clip-path="url(#clip0_212_4361)">
<path d="M21 16.1647H17.9865L19.2043 14.9113C17.9909 13.7112 16.0263 13.6667 14.8129 14.8668C13.5995 16.0714 13.5995 18.0137 14.8129 19.2182C16.0263 20.4228 17.9909 20.4228 19.2043 19.2182C19.8088 18.6226 20.1111 17.9248 20.1111 17.0448H21C21 17.9248 20.6089 19.0671 19.8266 19.8405C18.2665 21.3873 15.733 21.3873 14.1729 19.8405C12.6172 18.2982 12.6039 15.7913 14.164 14.249C15.7241 12.7067 18.2265 12.7067 19.7866 14.249L21 13V16.1647ZM17.222 15.2224V17.1114L18.7776 18.0359L18.4576 18.5737L16.5553 17.4448V15.2224H17.222Z" fill="black"/>
</g>
<defs>
<clipPath id="clip0_212_4361">
<rect width="9" height="9" fill="white" transform="translate(12 12)"/>
</clipPath>
</defs>
</svg>
