<svg width="14" height="14" viewBox="0 0 14 14" fill="none" xmlns="http://www.w3.org/2000/svg">
<path d="M4.81226 3.96857H5.96694V9.2545C5.96694 9.32325 6.02319 9.3795 6.09194 9.3795H7.02944C7.09819 9.3795 7.15444 9.32325 7.15444 9.2545V3.96857H8.31226C8.41694 3.96857 8.47476 3.84825 8.41069 3.767L6.66069 1.55138C6.649 1.53644 6.63406 1.52436 6.61701 1.51605C6.59995 1.50774 6.58123 1.50342 6.56226 1.50342C6.54328 1.50342 6.52456 1.50774 6.50751 1.51605C6.49045 1.52436 6.47551 1.53644 6.46382 1.55138L4.71382 3.76544C4.64976 3.84825 4.70757 3.96857 4.81226 3.96857ZM12.281 8.78575H11.3435C11.2748 8.78575 11.2185 8.842 11.2185 8.91075V11.317H1.90601V8.91075C1.90601 8.842 1.84976 8.78575 1.78101 8.78575H0.843506C0.774756 8.78575 0.718506 8.842 0.718506 8.91075V12.0045C0.718506 12.2811 0.941943 12.5045 1.21851 12.5045H11.906C12.1826 12.5045 12.406 12.2811 12.406 12.0045V8.91075C12.406 8.842 12.3498 8.78575 12.281 8.78575Z" fill="#222222"/>
</svg>
