<svg width="24" height="24" viewBox="0 0 24 24" fill="none" xmlns="http://www.w3.org/2000/svg">
<path d="M13.6602 16.1069C13.6199 16.067 13.5655 16.0447 13.5088 16.0447C13.4522 16.0447 13.3978 16.067 13.3575 16.1069L10.245 19.2194C8.80392 20.6605 6.37178 20.8132 4.78071 19.2194C3.18696 17.6257 3.33963 15.1962 4.78071 13.7551L7.89321 10.6426C7.97624 10.5596 7.97624 10.423 7.89321 10.34L6.82713 9.27389C6.78686 9.23401 6.73247 9.21164 6.6758 9.21164C6.61912 9.21164 6.56473 9.23401 6.52446 9.27389L3.41196 12.3864C1.14588 14.6525 1.14588 18.3194 3.41196 20.5828C5.67803 22.8462 9.34499 22.8489 11.6084 20.5828L14.7209 17.4703C14.8039 17.3873 14.8039 17.2507 14.7209 17.1676L13.6602 16.1069ZM20.587 3.41049C18.3209 1.14442 14.6539 1.14442 12.3905 3.41049L9.27535 6.52299C9.23547 6.56327 9.2131 6.61765 9.2131 6.67433C9.2131 6.73101 9.23547 6.7854 9.27535 6.82567L10.3387 7.88906C10.4218 7.9721 10.5584 7.9721 10.6414 7.88906L13.7539 4.77656C15.195 3.33549 17.6271 3.18281 19.2182 4.77656C20.812 6.37031 20.6593 8.79978 19.2182 10.2409L16.1057 13.3534C16.0658 13.3936 16.0435 13.448 16.0435 13.5047C16.0435 13.5614 16.0658 13.6158 16.1057 13.656L17.1718 14.7221C17.2548 14.8051 17.3914 14.8051 17.4745 14.7221L20.587 11.6096C22.8503 9.34353 22.8503 5.67656 20.587 3.41049ZM14.6271 8.25603C14.5869 8.21615 14.5325 8.19378 14.4758 8.19378C14.4191 8.19378 14.3647 8.21615 14.3245 8.25603L8.25749 14.3203C8.21761 14.3606 8.19524 14.415 8.19524 14.4717C8.19524 14.5283 8.21761 14.5827 8.25749 14.623L9.31821 15.6837C9.40124 15.7667 9.53785 15.7667 9.62089 15.6837L15.6852 9.61942C15.7682 9.53639 15.7682 9.39978 15.6852 9.31674L14.6271 8.25603Z" fill="#71767B"/>
</svg>
