<svg width="18" height="18" viewBox="0 0 18 18" fill="none" xmlns="http://www.w3.org/2000/svg">
<path fill-rule="evenodd" clip-rule="evenodd" d="M9.00016 0C5.60316 0 2.87458 2.17927 2.87458 4.8924C2.87458 7.60632 5.60294 9.78577 9.00016 9.78577C12.3974 9.78577 15.1257 7.60632 15.1257 4.8924C15.1257 2.17927 12.3972 0 9.00016 0ZM8.99996 1.59375C11.2958 1.59375 13.1316 3.06004 13.1316 4.89366C13.1316 6.72812 11.2959 8.19454 8.99996 8.19454C6.70401 8.19454 4.86828 6.72812 4.86828 4.89366C4.86828 3.06004 6.70416 1.59375 8.99996 1.59375ZM9 11.1703C3.28054 11.1703 0 12.0611 0 14.5941C0 17.1243 3.26743 17.9995 9 17.9995L9.80018 17.9933C15.023 17.9109 18 16.9874 18 14.5756C18 12.1057 14.8857 11.2129 9.40522 11.1718L9 11.1703ZM8.99974 12.763C13.639 12.763 16.0058 13.3969 16.0058 14.5759C16.0058 15.7628 13.6331 16.4073 8.99974 16.4073C4.3597 16.4073 1.99363 15.7736 1.99363 14.5944C1.99363 13.407 4.36498 12.763 8.99974 12.763Z" fill="black"/>
</svg>
