<svg width="60" height="60" viewBox="0 0 60 60" fill="none" xmlns="http://www.w3.org/2000/svg">
<circle cx="30" cy="30" r="30" fill="#FCAF17"/>
<path d="M42.374 38.9813C41.7003 37.3854 40.7226 35.9359 39.4954 34.7134C38.2719 33.4874 36.8227 32.5098 35.2275 31.8348C35.2133 31.8277 35.199 31.8241 35.1847 31.817C37.4097 30.2098 38.8561 27.592 38.8561 24.6384C38.8561 19.7455 34.8918 15.7812 29.999 15.7812C25.1061 15.7812 21.1418 19.7455 21.1418 24.6384C21.1418 27.592 22.5883 30.2098 24.8133 31.8205C24.799 31.8277 24.7847 31.8313 24.7704 31.8384C23.1704 32.5134 21.7347 33.4813 20.5025 34.717C19.2765 35.9404 18.299 37.3897 17.624 38.9848C16.9608 40.5464 16.6032 42.2207 16.5704 43.917C16.5694 43.9551 16.5761 43.993 16.5901 44.0285C16.604 44.064 16.6249 44.0963 16.6515 44.1236C16.6781 44.1509 16.71 44.1726 16.7451 44.1874C16.7802 44.2022 16.818 44.2098 16.8561 44.2098H18.999C19.1561 44.2098 19.2811 44.0848 19.2847 43.9313C19.3561 41.1741 20.4633 38.592 22.4204 36.6348C24.4454 34.6098 27.1347 33.4955 29.999 33.4955C32.8633 33.4955 35.5525 34.6098 37.5775 36.6348C39.5347 38.592 40.6418 41.1741 40.7133 43.9313C40.7168 44.0884 40.8418 44.2098 40.999 44.2098H43.1418C43.18 44.2098 43.2177 44.2022 43.2528 44.1874C43.288 44.1726 43.3198 44.1509 43.3464 44.1236C43.3731 44.0963 43.3939 44.064 43.4079 44.0285C43.4218 43.993 43.4285 43.9551 43.4275 43.917C43.3918 42.2098 43.0383 40.5491 42.374 38.9813ZM29.999 30.7813C28.3597 30.7813 26.8168 30.142 25.6561 28.9813C24.4954 27.8205 23.8561 26.2777 23.8561 24.6384C23.8561 22.9991 24.4954 21.4563 25.6561 20.2955C26.8168 19.1348 28.3597 18.4955 29.999 18.4955C31.6383 18.4955 33.1811 19.1348 34.3418 20.2955C35.5025 21.4563 36.1418 22.9991 36.1418 24.6384C36.1418 26.2777 35.5025 27.8205 34.3418 28.9813C33.1811 30.142 31.6383 30.7813 29.999 30.7813Z" fill="white"/>
</svg>
