<svg width="30" height="30" viewBox="0 0 30 30" fill="none" xmlns="http://www.w3.org/2000/svg">
<g clip-path="url(#clip0)">
<path d="M10.2236 29.219C10.3798 29.2718 10.537 29.323 10.6953 29.37C10.5365 29.3224 10.3798 29.2712 10.2236 29.219Z" fill="#F5F5F5"/>
<path d="M9.44025 28.9314C9.60887 28.9986 9.7775 29.0648 9.94922 29.1259C9.7775 29.0643 9.60836 28.9986 9.44025 28.9314Z" fill="#F5F5F5"/>
<path d="M15 30C6.71573 30 1.90735e-06 23.2843 1.90735e-06 15C1.90735e-06 6.71573 6.71573 0 15 0C23.2843 0 30 6.71573 30 15C30 23.2843 23.2843 30 15 30Z" fill="#F5F5F5"/>
<path d="M10.998 29.4558C11.1511 29.4982 11.3052 29.5386 11.4609 29.5763C11.3052 29.5386 11.1511 29.4982 10.998 29.4558Z" fill="#F5F5F5"/>
<path d="M16.0866 29.9565C16.2697 29.9435 16.4523 29.9296 16.6328 29.9099C16.4518 29.9296 16.2692 29.9435 16.0866 29.9565Z" fill="#F5F5F5"/>
<path d="M18.539 29.5758C18.6942 29.5381 18.8483 29.4977 19.002 29.4553C18.8483 29.4983 18.6942 29.5386 18.539 29.5758Z" fill="#F5F5F5"/>
<path d="M16.9428 29.8706C17.1068 29.8494 17.2702 29.8272 17.4326 29.8008C17.2707 29.8272 17.1068 29.8489 16.9428 29.8706Z" fill="#F5F5F5"/>
<path d="M14.9999 29.9998C15.2761 29.9998 15.5497 29.991 15.8223 29.9766C15.5497 29.991 15.2761 29.9998 14.9999 29.9998Z" fill="#F5F5F5"/>
<path d="M17.7525 29.7433C17.9098 29.7143 18.0665 29.6833 18.2217 29.6492C18.0665 29.6833 17.9098 29.7143 17.7525 29.7433Z" fill="#F5F5F5"/>
<path d="M20.7797 28.8442C21.0129 28.7464 21.2436 28.644 21.4707 28.5354C21.2431 28.644 21.0124 28.747 20.7797 28.8442Z" fill="#F5F5F5"/>
<path d="M20.0506 29.1256C20.2218 29.0641 20.3909 28.9984 20.5596 28.9312C20.3909 28.9984 20.2218 29.0641 20.0506 29.1256Z" fill="#F5F5F5"/>
<path d="M14.1776 29.9766C14.4502 29.991 14.7238 29.9998 15 29.9998C14.7238 29.9998 14.4502 29.991 14.1776 29.9766Z" fill="#F5F5F5"/>
<path d="M13.3669 29.9099C13.5479 29.9296 13.7305 29.9435 13.9131 29.9565C13.7305 29.9435 13.5479 29.9296 13.3669 29.9099Z" fill="#F5F5F5"/>
<path d="M11.777 29.6492C11.9326 29.6833 12.0889 29.7143 12.2461 29.7433C12.0894 29.7143 11.9326 29.6833 11.777 29.6492Z" fill="#F5F5F5"/>
<path d="M12.5658 29.8003C12.7282 29.8267 12.8917 29.8489 13.0557 29.8701C12.8922 29.8489 12.7282 29.8272 12.5658 29.8003Z" fill="#F5F5F5"/>
<path d="M8.5318 28.5366C8.75783 28.6447 8.98749 28.7471 9.21973 28.8444C8.98749 28.7471 8.75783 28.6452 8.5318 28.5366Z" fill="#F5F5F5"/>
<path d="M19.3037 29.37C19.4625 29.3224 19.6192 29.2712 19.7754 29.219C19.6192 29.2712 19.4625 29.3224 19.3037 29.37Z" fill="#F5F5F5"/>
<path d="M9.21917 28.8445C9.29158 28.875 9.36555 28.9019 9.43848 28.9309C9.36606 28.9019 9.2921 28.875 9.21917 28.8445Z" fill="#F5F5F5"/>
<path d="M8.51136 28.5273C8.51782 28.5303 8.52478 28.5333 8.53125 28.5363C8.52478 28.5333 8.51782 28.5308 8.51136 28.5273Z" fill="#F5F5F5"/>
<path d="M18.2225 29.6491C18.3285 29.6258 18.4341 29.6015 18.5391 29.5762C18.4341 29.6015 18.3285 29.6258 18.2225 29.6491Z" fill="#F5F5F5"/>
<path d="M17.4337 29.8003C17.5408 29.7827 17.6474 29.7631 17.7539 29.7434C17.6468 29.7631 17.5408 29.7832 17.4337 29.8003Z" fill="#F5F5F5"/>
<path d="M15.8226 29.9767C15.9111 29.9721 15.999 29.9627 16.0869 29.9565C15.9985 29.9627 15.9111 29.9721 15.8226 29.9767Z" fill="#F5F5F5"/>
<path d="M16.633 29.9099C16.737 29.8985 16.8399 29.8841 16.9434 29.8706C16.8399 29.8841 16.737 29.8985 16.633 29.9099Z" fill="#F5F5F5"/>
<path d="M21.4704 28.536C21.4759 28.5335 21.4818 28.5311 21.4873 28.5286C21.4818 28.5311 21.4759 28.5335 21.4704 28.536Z" fill="#F5F5F5"/>
<path d="M13.9134 29.9565C14.0019 29.9627 14.0893 29.9721 14.1777 29.9767C14.0893 29.9721 14.0019 29.9627 13.9134 29.9565Z" fill="#F5F5F5"/>
<path d="M10.6955 29.3699C10.7958 29.3999 10.8967 29.4278 10.998 29.4557C10.8967 29.4278 10.7958 29.3999 10.6955 29.3699Z" fill="#F5F5F5"/>
<path d="M9.948 29.1257C10.039 29.1583 10.1311 29.1878 10.2227 29.2188C10.1311 29.1878 10.039 29.1583 9.948 29.1257Z" fill="#F5F5F5"/>
<path d="M20.559 28.9311C20.6319 28.9021 20.7059 28.8747 20.7783 28.8447C20.7059 28.8747 20.6319 28.9016 20.559 28.9311Z" fill="#F5F5F5"/>
<path d="M19.7761 29.2188C19.8677 29.1878 19.9603 29.1583 20.0508 29.1257C19.9603 29.1583 19.8682 29.1878 19.7761 29.2188Z" fill="#F5F5F5"/>
<path d="M13.0559 29.8706C13.1593 29.8841 13.2622 29.8991 13.3662 29.9099C13.2622 29.8985 13.1593 29.8841 13.0559 29.8706Z" fill="#F5F5F5"/>
<path d="M11.4608 29.5757C11.5658 29.601 11.6713 29.6253 11.7773 29.6486C11.6713 29.6259 11.5658 29.6015 11.4608 29.5757Z" fill="#F5F5F5"/>
<path d="M12.2462 29.7434C12.3528 29.7631 12.4588 29.7832 12.5664 29.8003C12.4588 29.7832 12.3528 29.7631 12.2462 29.7434Z" fill="#F5F5F5"/>
<path d="M19.0011 29.4557C19.102 29.4278 19.2034 29.3999 19.3037 29.3699C19.2034 29.3999 19.1025 29.4278 19.0011 29.4557Z" fill="#F5F5F5"/>
<path d="M11.5663 16.0315C9.89509 14.9189 8.79285 13.0201 8.79285 10.8622C8.79285 7.43441 11.572 4.65527 14.9997 4.65527C18.4275 4.65527 21.2066 7.43441 21.2066 10.8622C21.2066 13.0201 20.1044 14.9189 18.4332 16.0315C18.4332 16.0315 18.4327 16.032 18.4322 16.032C18.4327 16.032 18.4327 16.0315 18.4327 16.0315C22.433 17.2372 25.5479 20.4839 26.5508 24.5685L26.5503 24.5691C26.3868 24.7661 26.2172 24.9585 26.0439 25.1473C26.002 25.1934 25.958 25.2373 25.9151 25.2823C25.7816 25.4241 25.6466 25.5637 25.508 25.7003C25.4506 25.7567 25.3922 25.811 25.3337 25.8663C25.2054 25.9884 25.0756 26.1089 24.9432 26.2263C24.8775 26.2842 24.8108 26.3417 24.7446 26.3985C24.6147 26.5098 24.4834 26.6189 24.3494 26.7254C24.2791 26.7818 24.2082 26.8372 24.1373 26.8925C24.0018 26.997 23.8642 27.0984 23.7251 27.1977C23.6532 27.2489 23.5823 27.3011 23.5094 27.3513C23.3625 27.4527 23.213 27.5499 23.0625 27.6461C22.9947 27.6891 22.9285 27.7335 22.8603 27.776C22.6865 27.883 22.5096 27.9854 22.3311 28.0858C22.2841 28.1122 22.238 28.1406 22.1904 28.1665C21.9597 28.2927 21.7254 28.4137 21.4875 28.528C21.4818 28.5306 21.4756 28.5332 21.4699 28.5358C21.2429 28.6444 21.0122 28.7473 20.7789 28.8446C20.7065 28.8751 20.6325 28.902 20.5596 28.931C20.391 28.9982 20.2223 29.0644 20.0506 29.1254C19.9596 29.158 19.8675 29.1875 19.776 29.2185C19.6197 29.2713 19.4625 29.3225 19.3042 29.3696C19.2039 29.3996 19.103 29.4275 19.0016 29.4554C18.8485 29.4979 18.6944 29.5382 18.5387 29.576C18.4337 29.6013 18.3282 29.6256 18.2222 29.6489C18.0665 29.683 17.9103 29.7141 17.753 29.743C17.6465 29.7627 17.5404 29.7829 17.4329 29.7999C17.2704 29.8263 17.107 29.8485 16.943 29.8698C16.8396 29.8832 16.7366 29.8982 16.6327 29.9091C16.4516 29.9287 16.2691 29.9427 16.0865 29.9556C15.998 29.9618 15.9106 29.9711 15.8222 29.9758C15.5496 29.9913 15.276 30.0001 14.9997 30.0001C14.7235 30.0001 14.4499 29.9913 14.1773 29.9768C14.0889 29.9722 14.001 29.9629 13.913 29.9567C13.7299 29.9437 13.5473 29.9298 13.3668 29.9101C13.2628 29.8987 13.1599 29.8842 13.0565 29.8708C12.8925 29.8496 12.7291 29.8273 12.5666 29.801C12.4596 29.7834 12.353 29.7637 12.2465 29.7441C12.0892 29.7151 11.9325 29.6841 11.7773 29.6499C11.6713 29.6267 11.5658 29.6023 11.4608 29.577C11.3056 29.5392 11.1515 29.4989 10.9979 29.4565C10.897 29.4285 10.7956 29.4006 10.6953 29.3706C10.5365 29.323 10.3797 29.2718 10.2235 29.2196C10.132 29.1885 10.0394 29.1591 9.94888 29.1265C9.77768 29.0649 9.60854 28.9992 9.43992 28.932C9.36699 28.903 9.29302 28.8756 9.22061 28.8456C8.98837 28.7484 8.75871 28.6465 8.53268 28.5379C8.52596 28.5348 8.51871 28.5317 8.51199 28.5285C8.27406 28.4142 8.03975 28.2932 7.80906 28.167C7.76147 28.1411 7.71544 28.1127 7.66837 28.0863C7.48992 27.986 7.31302 27.8835 7.13923 27.7765C7.07096 27.7346 7.00423 27.6901 6.93699 27.6467C6.78647 27.5504 6.63699 27.4527 6.49009 27.3518C6.41768 27.3017 6.3463 27.2499 6.2744 27.1982C6.13527 27.0984 5.99768 26.997 5.86216 26.893C5.79078 26.8382 5.72044 26.7823 5.65009 26.726C5.51664 26.6194 5.38475 26.5103 5.25492 26.3991C5.1882 26.3422 5.12147 26.2848 5.0563 26.2268C4.92389 26.1094 4.79406 25.9889 4.66578 25.8668C4.60785 25.8115 4.54888 25.7567 4.49147 25.7008C4.35285 25.5642 4.21733 25.4246 4.0844 25.2829C4.04199 25.2373 3.99802 25.1934 3.95561 25.1479C3.78233 24.9591 3.61268 24.7667 3.44923 24.5696L3.44871 24.5691C4.45113 20.4839 7.56595 17.2372 11.5663 16.0315Z" fill="#DBDBFF"/>
</g>
<defs>
<clipPath id="clip0">
<rect width="30" height="30" fill="white" transform="matrix(-1 0 0 1 30 0)"/>
</clipPath>
</defs>
</svg>
