<svg width="16" height="16" viewBox="0 0 16 16" fill="none" xmlns="http://www.w3.org/2000/svg">
<path d="M7.87316 10.9897C7.88819 11.0089 7.9074 11.0244 7.92933 11.0351C7.95126 11.0458 7.97533 11.0513 7.99972 11.0513C8.02411 11.0513 8.04818 11.0458 8.07011 11.0351C8.09204 11.0244 8.11125 11.0089 8.12628 10.9897L10.3763 8.14301C10.4586 8.03854 10.3843 7.88386 10.2497 7.88386H8.76111V1.08564C8.76111 0.997248 8.68878 0.924927 8.60039 0.924927H7.39503C7.30664 0.924927 7.23432 0.997248 7.23432 1.08564V7.88185H5.74972C5.61512 7.88185 5.54079 8.03653 5.62316 8.141L7.87316 10.9897ZM15.3524 10.2865H14.147C14.0586 10.2865 13.9863 10.3589 13.9863 10.4472V13.541H2.01311V10.4472C2.01311 10.3589 1.94079 10.2865 1.8524 10.2865H0.647042C0.55865 10.2865 0.486328 10.3589 0.486328 10.4472V14.4249C0.486328 14.7805 0.773605 15.0678 1.12919 15.0678H14.8703C15.2258 15.0678 15.5131 14.7805 15.5131 14.4249V10.4472C15.5131 10.3589 15.4408 10.2865 15.3524 10.2865Z" fill="#2A2A86"/>
</svg>
