
<svg width="36" height="32" viewBox="0 0 36 32" fill="none" xmlns="http://www.w3.org/2000/svg">
<path d="M16.0724 24.3571C16.0724 24.8686 16.2756 25.3592 16.6373 25.7208C16.999 26.0825 17.4895 26.2857 18.001 26.2857C18.5125 26.2857 19.003 26.0825 19.3647 25.7208C19.7264 25.3592 19.9296 24.8686 19.9296 24.3571C19.9296 23.8457 19.7264 23.3551 19.3647 22.9934C19.003 22.6318 18.5125 22.4286 18.001 22.4286C17.4895 22.4286 16.999 22.6318 16.6373 22.9934C16.2756 23.3551 16.0724 23.8457 16.0724 24.3571V24.3571ZM16.7153 12.1429V19.5357C16.7153 19.7125 16.8599 19.8571 17.0367 19.8571H18.9653C19.1421 19.8571 19.2867 19.7125 19.2867 19.5357V12.1429C19.2867 11.9661 19.1421 11.8214 18.9653 11.8214H17.0367C16.8599 11.8214 16.7153 11.9661 16.7153 12.1429ZM35.8283 29.8214L19.114 0.892857C18.8649 0.462946 18.4349 0.25 18.001 0.25C17.5671 0.25 17.1332 0.462946 16.8881 0.892857L0.173786 29.8214C-0.32041 30.6813 0.298339 31.75 1.28673 31.75H34.7153C35.7037 31.75 36.3224 30.6813 35.8283 29.8214ZM4.34834 28.7004L18.001 5.06741L31.6537 28.7004H4.34834V28.7004Z" fill="white"/>
</svg>
