<svg width="80" height="24" viewBox="0 0 80 24" fill="none" xmlns="http://www.w3.org/2000/svg">
<path d="M30.4012 8.22045C30.7047 8.42975 30.7523 8.85683 30.5216 9.14469L24.3532 16.8423C23.8302 17.497 22.8365 17.497 22.3135 16.8423L16.1451 9.14469C15.9144 8.85683 15.9619 8.42959 16.2653 8.22011C17.3407 7.47773 19.8835 6 23.3334 6C26.7786 6 29.3246 7.47817 30.4012 8.22045Z" fill="white"/>
<path d="M65.333 7.66683C65.333 7.11454 64.8853 6.66683 64.333 6.66683H63.333V5.3335H59.333V6.66683H58.333C57.7807 6.66683 57.333 7.11454 57.333 7.66683V17.6668C57.333 18.2191 57.7807 18.6668 58.333 18.6668H64.333C64.8853 18.6668 65.333 18.2191 65.333 17.6668V7.66683Z" fill="white"/>
<path d="M46.1953 6.47157C46.6152 6.05159 47.3333 6.34904 47.3333 6.94297V17.3335C47.3333 18.0699 46.7364 18.6668 46 18.6668H35.6095C35.0155 18.6668 34.7181 17.9487 35.1381 17.5288L46.1953 6.47157Z" fill="white"/>
</svg>
