<svg width="18" height="18" viewBox="0 0 18 18" fill="none" xmlns="http://www.w3.org/2000/svg">
<path d="M11.8956 2.88608H5.6583V1.5H4.27222V5.65824H5.6583V4.27216H11.8956V2.88608Z" fill="white"/>
<path d="M14.6677 2.88608H13.9747V1.5H12.5886V5.65824H13.9747V4.27216H14.6677H15.3608V15.2846H2.88608V4.27216H3.57912V2.88608H1.5V16.6706H16.7469V2.88608H15.3608H14.6677Z" fill="white"/>
<path d="M5.6583 9.04688H4.27222V10.433H5.6583V9.04688Z" fill="white"/>
<path d="M13.9747 9.04688H12.5886V10.433H13.9747V9.04688Z" fill="white"/>
<path d="M11.2025 9.04688H9.81641V10.433H11.2025V9.04688Z" fill="white"/>
<path d="M5.6583 11.8193H4.27222V13.2054H5.6583V11.8193Z" fill="white"/>
<path d="M11.2025 11.8193H9.81641V13.2054H11.2025V11.8193Z" fill="white"/>
<path d="M8.43051 11.8193H7.04443V13.2054H8.43051V11.8193Z" fill="white"/>
<path d="M13.9747 11.8193H12.5886V13.2054H13.9747V11.8193Z" fill="white"/>
<path d="M9.32449 6.47559L7.7374 8.06957L7.18987 7.51514L6.20581 8.49925L7.7374 10.0239L10.3085 7.45969L9.32449 6.47559Z" fill="white"/>
</svg>
