<svg width="18" height="18" viewBox="0 0 18 18" fill="none" xmlns="http://www.w3.org/2000/svg">
<path d="M10.0404 8.99906L15.3139 2.71312C15.4023 2.60866 15.3279 2.44995 15.1913 2.44995H13.5882C13.4938 2.44995 13.4034 2.49214 13.3411 2.56446L8.99178 7.7495L4.64245 2.56446C4.58218 2.49214 4.49178 2.44995 4.39535 2.44995H2.79222C2.65562 2.44995 2.58129 2.60866 2.66968 2.71312L7.94312 8.99906L2.66968 15.285C2.64988 15.3083 2.63717 15.3368 2.63308 15.367C2.62898 15.3973 2.63366 15.4282 2.64656 15.4559C2.65946 15.4836 2.68005 15.507 2.70587 15.5234C2.73169 15.5397 2.76166 15.5483 2.79222 15.5482H4.39535C4.48977 15.5482 4.58017 15.506 4.64245 15.4337L8.99178 10.2486L13.3411 15.4337C13.4014 15.506 13.4918 15.5482 13.5882 15.5482H15.1913C15.3279 15.5482 15.4023 15.3895 15.3139 15.285L10.0404 8.99906Z" fill="#E24343"/>
</svg>
