<svg width="70" height="70" viewBox="0 0 70 70" fill="none" xmlns="http://www.w3.org/2000/svg">
<circle cx="35" cy="35" r="35" fill="#71767B"/>
<path d="M49.0086 43.2948C48.8736 42.5738 48.1796 42.0989 47.4586 42.234C46.7377 42.3692 46.2627 43.0631 46.3977 43.784C46.498 44.3189 46.2629 44.7001 46.1139 44.8797C45.9652 45.0588 45.6347 45.3594 45.0925 45.3594H24.9321C24.3899 45.3594 24.0595 45.0589 23.9108 44.8797C23.7618 44.7001 23.5266 44.3189 23.6269 43.784C24.0036 41.7738 24.7595 40.4516 25.4905 39.1728C26.3784 37.6201 27.2964 36.0143 27.2964 33.5391V31.5469C27.2964 27.3588 30.7006 23.9054 34.8867 23.8446H35.1378C39.3098 23.9052 42.7026 27.3586 42.7026 31.5469V33.5391C42.7026 35.6457 43.3917 37.0953 44.0377 38.2886C44.2781 38.7328 44.7349 38.9848 45.2068 38.9848C45.4203 38.9848 45.6369 38.9332 45.8378 38.8245C46.4829 38.4754 46.7228 37.6693 46.3736 37.0243C45.731 35.8369 45.3589 34.8858 45.3589 33.5391V31.5469C45.3589 28.8135 44.3002 26.2319 42.3776 24.2776C40.7301 22.6027 38.6146 21.5576 36.3276 21.2692V19.3281C36.3276 18.5946 35.733 18 34.9995 18C34.266 18 33.6714 18.5946 33.6714 19.3281V21.2731C28.5941 21.9318 24.6401 26.3128 24.6401 31.5469V33.5391C24.6401 35.3086 23.9978 36.4321 23.1846 37.8545C22.3834 39.256 21.4753 40.8443 21.0161 43.2948C20.7969 44.4646 21.107 45.6606 21.8669 46.5762C22.6262 47.491 23.7434 48.0156 24.9321 48.0156H31.0408C31.0408 50.2126 32.8282 52 35.0251 52C37.2221 52 39.0095 50.2126 39.0095 48.0156H45.0925C46.2812 48.0156 47.3985 47.491 48.1577 46.5762C48.9177 45.6606 49.2278 44.4646 49.0086 43.2948ZM35.0252 49.3438C34.2929 49.3438 33.6971 48.748 33.6971 48.0156H36.3533C36.3533 48.748 35.7575 49.3438 35.0252 49.3438Z" fill="white"/>
</svg>
