<svg width="70" height="70" viewBox="0 0 70 70" fill="none" xmlns="http://www.w3.org/2000/svg">
<circle cx="35" cy="35" r="35" fill="#E24343"/>
<path fill-rule="evenodd" clip-rule="evenodd" d="M46.1104 29.6769C46.9527 29.7448 47.5804 30.4826 47.5125 31.3249L45.9875 31.202L44.4624 31.079C44.5303 30.2367 45.2682 29.609 46.1104 29.6769ZM46.2211 45.7288C46.0779 47.0221 45.5861 48.1993 44.6601 49.0595C43.7304 49.9232 42.5143 50.3266 41.1914 50.3507C37.2608 50.4215 33.3223 50.4261 29.3877 50.3431C29.3874 50.3431 29.388 50.3431 29.3877 50.3431C28.0851 50.3163 26.8942 49.8963 25.9884 49.033C25.0896 48.1764 24.6065 47.0124 24.4658 45.7389C24.2256 43.5706 23.9027 39.9599 23.641 36.907C23.5099 35.3772 23.3936 33.9818 23.3101 32.969C23.2684 32.4625 23.2349 32.0516 23.2117 31.7672L23.1761 31.3265L24.701 31.202L26.2261 31.0794L26.2617 31.5193C26.2847 31.8027 26.3182 32.2125 26.3598 32.7177C26.4431 33.7282 26.559 35.12 26.6898 36.6457C26.952 39.7035 27.2718 43.2773 27.5072 45.402C27.587 46.1248 27.8315 46.5624 28.0996 46.8179C28.3605 47.0666 28.7758 47.27 29.4513 47.2838C33.3407 47.3658 37.2395 47.3614 41.1359 47.2912C41.136 47.2912 41.1358 47.2912 41.1359 47.2912C41.8692 47.2778 42.3091 47.067 42.5775 46.8176C42.8495 46.5649 43.098 46.1306 43.1798 45.3916C43.4136 43.2857 43.7339 39.7143 43.9968 36.6542C44.1279 35.1275 44.2444 33.7334 44.328 32.721C44.3698 32.2148 44.4035 31.8041 44.4266 31.5201L44.4624 31.079L45.9875 31.202L47.5125 31.3249L47.4765 31.7687C47.4533 32.0537 47.4196 32.4655 47.3776 32.9729C47.2938 33.9877 47.1771 35.3852 47.0455 36.9161C46.7831 39.9709 46.4598 43.5791 46.2211 45.7288ZM24.5784 29.6769C25.4207 29.6092 26.1584 30.2372 26.2261 31.0794L24.701 31.202L23.1759 31.3246C23.1082 30.4823 23.7361 29.7446 24.5784 29.6769Z" fill="white"/>
<path fill-rule="evenodd" clip-rule="evenodd" d="M21.0957 26.3591C21.0957 25.5141 21.7807 24.8291 22.6257 24.8291H48.0627C48.9077 24.8291 49.5927 25.5141 49.5927 26.3591C49.5927 27.2041 48.9077 27.8891 48.0627 27.8891H22.6257C21.7807 27.8891 21.0957 27.2041 21.0957 26.3591Z" fill="white"/>
<path fill-rule="evenodd" clip-rule="evenodd" d="M28.836 22.154C29.2406 20.6408 30.6108 19.5957 32.1696 19.5957H38.5191C40.0778 19.5957 41.448 20.6408 41.8526 22.154C41.8611 22.1855 41.8685 22.2174 41.8749 22.2494L42.2393 24.0728C42.3273 24.5122 42.7142 24.8292 43.1616 24.8292C44.0066 24.8292 44.6916 25.5142 44.6916 26.3592C44.6916 27.2042 44.0066 27.8892 43.1616 27.8892C41.254 27.8892 39.6129 26.5412 39.2389 24.6736L38.8875 22.9153C38.8331 22.7612 38.6869 22.6557 38.5191 22.6557H32.1696C32.0017 22.6557 31.8555 22.7612 31.8012 22.9153L31.4499 24.673C31.0759 26.5406 29.4346 27.8892 27.5271 27.8892C26.6821 27.8892 25.9971 27.2042 25.9971 26.3592C25.9971 25.5142 26.6821 24.8292 27.5271 24.8292C27.9743 24.8292 28.361 24.5125 28.4492 24.0734L28.8137 22.2494C28.8201 22.2174 28.8276 22.1855 28.836 22.154Z" fill="white"/>
</svg>
