<svg width="70" height="70" viewBox="0 0 70 70" fill="none" xmlns="http://www.w3.org/2000/svg">
<circle cx="35" cy="35" r="35" fill="#E24343"/>
<g clip-path="url(#clip0)">
<path d="M34.9993 41.3008C34.0487 41.3008 33.252 42.0976 33.252 43.0481C33.252 43.9986 34.0487 44.7954 34.9993 44.7954C35.9148 44.7954 36.7466 43.9986 36.7046 43.09C36.7466 42.0906 35.9568 41.3008 34.9993 41.3008Z" fill="white"/>
<path d="M51.1726 47.4928C52.27 45.5987 52.2769 43.3412 51.1866 41.4541L40.2415 22.4993C39.1582 20.5912 37.2012 19.459 35.0066 19.459C32.8119 19.459 30.855 20.5982 29.7716 22.4923L18.8125 41.4681C17.7222 43.3761 17.7292 45.6476 18.8335 47.5417C19.9238 49.4148 21.8738 50.5401 24.0545 50.5401H45.9167C48.1044 50.5401 50.0683 49.4008 51.1726 47.4928ZM48.7963 46.1229C48.1882 47.1713 47.1119 47.7933 45.9098 47.7933H24.0475C22.8593 47.7933 21.7899 47.1852 21.1959 46.1578C20.5948 45.1164 20.5878 43.8724 21.1889 42.824L32.148 23.8552C32.7421 22.8138 33.8044 22.1988 35.0066 22.1988C36.2017 22.1988 37.2711 22.8208 37.8652 23.8622L48.8173 42.831C49.4044 43.8514 49.3974 45.0815 48.7963 46.1229Z" fill="white"/>
<path d="M34.5667 29.0337C33.735 29.2713 33.2178 30.0262 33.2178 30.9418C33.2597 31.4939 33.2947 32.053 33.3366 32.6052C33.4554 34.709 33.5742 36.7708 33.693 38.8745C33.735 39.5874 34.2871 40.1046 35 40.1046C35.7129 40.1046 36.2721 39.5525 36.307 38.8326C36.307 38.3993 36.307 38.0009 36.3489 37.5606C36.4258 36.2116 36.5097 34.8627 36.5866 33.5138C36.6285 32.6401 36.7054 31.7665 36.7473 30.8928C36.7473 30.5783 36.7054 30.2988 36.5866 30.0192C36.2301 29.2364 35.3984 28.838 34.5667 29.0337Z" fill="white"/>
</g>
<defs>
<clipPath id="clip0">
<rect width="34" height="34" fill="white" transform="translate(18 18)"/>
</clipPath>
</defs>
</svg>
