<svg width="20" height="20" viewBox="0 0 20 20" fill="none" xmlns="http://www.w3.org/2000/svg">
<g clip-path="url(#clip0_1355_110850)">
<path d="M15.5558 12.2222H16.6669V16.6666H12.2224V15.5555H11.1113V17.7778H17.778V11.1111H15.5558V12.2222Z" fill="#8C8C8C"/>
<path d="M7.77821 16.6666H3.33377V12.2222H4.44488V11.1111H2.22266V17.7778H8.88932V15.5555H7.77821V16.6666Z" fill="#8C8C8C"/>
<path d="M4.44488 7.77772H3.33377V3.33328H7.77821V4.44439H8.88932V2.22217H2.22266V8.88883H4.44488V7.77772Z" fill="#8C8C8C"/>
<path d="M11.1113 2.22217V4.44439H12.2224V3.33328H16.6669V7.77772H15.5558V8.88883H17.778V2.22217H11.1113Z" fill="#8C8C8C"/>
<path d="M6.11133 6.11108H9.44466V9.44442H6.11133V6.11108Z" fill="#FA8C16"/>
<path d="M10.5557 6.11108H13.889V9.44442H10.5557V6.11108Z" fill="#FFC069"/>
<path d="M6.11133 10.5555H9.44466V13.8889H6.11133V10.5555Z" fill="#FFC069"/>
<path d="M10.5557 10.5555H13.889V13.8889H10.5557V10.5555Z" fill="#FA8C16"/>
</g>
<defs>
<clipPath id="clip0_1355_110850">
<rect width="20" height="20" fill="white"/>
</clipPath>
</defs>
</svg>
