<svg width="20" height="20" viewBox="0 0 20 20" fill="none" xmlns="http://www.w3.org/2000/svg">
<path d="M19.5583 5.16211C19.4436 4.73817 19.2198 4.35168 18.9093 4.04112C18.5987 3.73056 18.2122 3.50677 17.7883 3.39203C16.2363 2.96875 9.98986 2.96875 9.98986 2.96875C9.98986 2.96875 3.74314 2.98156 2.19111 3.40484C1.76716 3.51959 1.38067 3.74339 1.07013 4.05396C0.759581 4.36454 0.535813 4.75104 0.421109 5.175C-0.0483444 7.93266 -0.230454 12.1347 0.433999 14.782C0.548716 15.206 0.772489 15.5925 1.08303 15.903C1.39358 16.2136 1.78006 16.4374 2.204 16.5521C3.75603 16.9754 10.0026 16.9754 10.0026 16.9754C10.0026 16.9754 16.2491 16.9754 17.801 16.5521C18.225 16.4374 18.6115 16.2136 18.922 15.903C19.2326 15.5925 19.4564 15.206 19.5711 14.782C20.0663 12.0205 20.2188 7.82109 19.5583 5.16219V5.16211Z" fill="#FF0000"/>
<path d="M8.00171 13.0341L13.1836 10.0327L8.00171 7.03125V13.0341Z" fill="white"/>
</svg>
