<svg width="40" height="40" viewBox="0 0 40 40" fill="none" xmlns="http://www.w3.org/2000/svg">
<path d="M7.80342 34.1519C7.65486 34.0824 7.54567 34.0035 7.72108 33.8475C7.82847 33.7611 7.94482 33.6822 8.06116 33.6033C9.14763 32.8629 10.1679 32.053 10.8409 30.8598C11.4047 29.8677 11.3134 29.2833 10.6082 28.5524C6.67399 24.4222 4.94853 19.484 5.81126 13.6496C6.2999 10.3575 7.7354 7.50883 9.826 5.036C11.0879 3.53839 12.5878 2.3264 14.2309 1.31735C14.3312 1.25722 14.4708 1.23843 14.4887 1.08247C14.4547 0.996032 14.3974 1.02234 14.3473 1.02234C11.5515 1.02234 8.75564 0.96221 5.96877 1.03925C3.29646 1.12569 0.991076 3.29412 1.00003 6.40395C1.01614 15.4873 1.00003 24.5725 1.00003 33.6653C1.00003 36.4876 3.04946 38.8477 5.72893 38.9529C7.99315 39.0488 10.2592 38.9698 12.5323 38.9623C12.6988 38.9717 12.8634 38.9792 13.0299 38.9792H25.0097C27.997 38.9792 30.9826 38.9961 33.9699 38.9792C36.7406 38.9792 38.9888 36.6285 38.9888 33.7273V33.6747V28.5787C38.9888 28.4565 39.0299 28.3269 38.9547 28.1953C38.8062 28.2047 38.7471 28.3344 38.6648 28.4227C37.0557 30.1214 35.1548 31.4893 33.0731 32.4552C27.9702 34.8152 22.7777 34.9806 17.51 33.0828C17.0536 32.908 16.556 32.8911 16.0835 33.0132C15.3872 33.1955 14.6981 33.4135 14.009 33.6314C11.9846 34.291 9.91728 34.586 7.80342 34.1519ZM13.8175 19.4746C13.9589 19.283 14.034 19.1702 14.1164 19.0575C15.2028 17.6125 16.2893 16.1656 17.3776 14.7112C17.6926 14.2941 18.0076 13.8657 18.2081 13.3621C18.4408 12.7871 18.192 12.2478 17.6282 12.0374C17.3794 11.9584 17.1144 11.9246 16.8478 11.9415C15.3711 11.9321 13.8855 11.9321 12.4088 11.9415C12.2012 11.9415 11.9936 11.9678 11.7949 12.0204C11.3295 12.1426 11.0485 12.6387 11.1648 13.1347C11.2472 13.4654 11.496 13.7266 11.8128 13.8055C12.0115 13.8582 12.2191 13.8845 12.4267 13.8751C13.3235 13.8845 14.2273 13.8751 15.1223 13.8845C15.2225 13.8845 15.346 13.8149 15.4212 13.9709C15.346 14.0761 15.2726 14.1795 15.1975 14.2753C13.9123 15.9815 12.6343 17.6989 11.3474 19.4051C11.0324 19.8317 10.8659 20.3014 11.0986 20.8257C11.3313 21.3499 11.8038 21.4439 12.2853 21.4796C12.6666 21.5059 13.0568 21.489 13.447 21.489C14.7912 21.489 16.1264 21.4984 17.4706 21.4796C18.1848 21.4702 18.5661 21.0174 18.4909 20.3221C18.4336 19.7734 18.0756 19.4859 17.4116 19.4765C16.2392 19.4671 15.0704 19.4746 13.8175 19.4746ZM23.4417 14.8935C22.4054 13.9446 21.2598 13.8826 20.1394 14.5797C18.779 15.4159 18.2815 16.7838 18.4461 18.3679C18.6036 19.8486 19.2176 21.0587 20.6942 21.5548C21.6142 21.8686 22.4698 21.7558 23.2251 21.1113C23.4238 20.946 23.4829 20.9798 23.6225 21.1639C23.8964 21.5303 24.3689 21.6694 24.7841 21.504C25.1994 21.3725 25.4733 20.9723 25.4733 20.5194C25.4822 18.7775 25.4894 17.0356 25.4733 15.2938C25.4643 14.5966 24.8432 14.1532 24.1953 14.2922C23.8391 14.3711 23.6404 14.6248 23.4417 14.8935ZM29.1909 18.1255C29.1569 20.3033 30.8752 21.9494 33.032 21.722C35.0152 21.5134 36.3003 19.9538 36.2341 17.7497C36.1679 15.5719 34.625 14.0836 32.5093 14.1532C30.5261 14.2152 29.1246 15.8875 29.1909 18.1255ZM28.4606 16.393C28.4606 15.0251 28.4695 13.6665 28.4606 12.2985C28.4606 11.6014 28.0382 11.1655 27.4063 11.1749C26.7924 11.1843 26.3861 11.6183 26.3772 12.2891C26.3682 12.6988 26.3772 13.099 26.3772 13.5087V20.433C26.3772 20.9723 26.6922 21.4439 27.1074 21.5566C27.6802 21.722 28.2691 21.365 28.4176 20.7637C28.4427 20.6585 28.4588 20.5551 28.4516 20.4424C28.4695 19.0913 28.4606 17.7422 28.4606 16.393Z" fill="#FDFEFE"/>
<path d="M12.9615 38.9675C10.613 38.9675 8.25527 39.0465 5.90492 38.9581C3.12571 38.8454 1 36.4845 1 33.6688C1 24.5826 1.01671 15.4945 1 6.39895C1 3.28814 3.40048 1.11903 6.16298 1.04008C9.05357 0.961137 11.9535 1.02316 14.8533 1.02316C14.9053 1.02316 14.974 0.99685 15 1.08331C14.9833 1.23932 14.8273 1.25812 14.7327 1.31827C13.0302 2.3314 11.4726 3.54189 10.1638 5.04184C8.00464 7.51546 6.50643 10.3556 5.9996 13.6581C5.10476 19.4869 6.90373 24.436 10.9732 28.5656C11.6954 29.3062 11.7901 29.8813 11.2146 30.8738C10.5184 32.0674 9.45829 32.8775 8.33139 33.6181C8.21071 33.6876 8.09004 33.7741 7.96937 33.853C7.78929 34.009 7.90068 34.088 8.05477 34.1575C8.09004 34.2365 8.13274 34.306 8.18472 34.3756C9.17425 35.2646 10.1118 36.2139 11.0846 37.1198C11.5413 37.5465 11.9962 37.992 12.4361 38.4356C12.6162 38.601 12.9188 38.6536 12.9615 38.9675Z" fill="#0180C7"/>
<path d="M12.3913 39.181C12.3496 38.8881 12.0561 38.8374 11.8785 38.662C11.4508 38.2262 11.0051 37.8067 10.5593 37.3963C9.6098 36.5247 8.69472 35.6115 7.72889 34.7562C7.67816 34.6893 7.63648 34.6224 7.60205 34.5465C9.74389 34.966 11.835 34.6803 13.8935 34.0528C14.5911 33.843 15.2869 33.6333 15.9936 33.4579C16.472 33.3313 16.9758 33.3566 17.4378 33.5248C22.7635 35.3511 28.0202 35.1848 33.1936 32.9208C35.301 31.9914 37.2254 30.6822 38.8544 29.0494C38.9378 28.9662 38.9976 28.8396 39.148 28.8306C39.2241 28.9481 39.1824 29.0729 39.1824 29.1995V34.1034C39.1987 36.9026 36.9482 39.1828 34.1431 39.2081H34.1014C31.0771 39.2244 28.0546 39.2081 25.0303 39.2081H12.895C12.7265 39.1882 12.5598 39.181 12.3913 39.181Z" fill="#0172B1"/>
<path d="M13.7013 20.422C14.9697 20.422 16.1621 20.4129 17.3471 20.422C18.0103 20.431 18.3709 20.7077 18.4398 21.2357C18.5159 21.8975 18.1299 22.3423 17.4069 22.3496C16.0461 22.3659 14.6943 22.3586 13.3334 22.3586C12.9384 22.3586 12.5525 22.3749 12.1574 22.3496C11.67 22.3243 11.1916 22.223 10.956 21.7203C10.7205 21.2176 10.889 20.7656 11.2079 20.3533C12.5017 18.7114 13.8028 17.0587 15.1056 15.4168C15.1817 15.3155 15.256 15.2161 15.3321 15.1238C15.2488 14.981 15.131 15.0479 15.0295 15.0407C14.1217 15.0316 13.2066 15.0407 12.3006 15.0316C12.0904 15.0316 11.8802 15.0063 11.6791 14.9647C11.2007 14.8562 10.9071 14.3788 11.0158 13.9087C11.0919 13.5904 11.3438 13.3301 11.6627 13.2541C11.8639 13.2035 12.0741 13.1782 12.2843 13.1782C13.7792 13.1691 15.2832 13.1691 16.7781 13.1782C17.0463 13.1691 17.3073 13.2035 17.5682 13.2704C18.139 13.4639 18.3836 13.9919 18.1553 14.5452C17.9542 15.0226 17.6352 15.433 17.3145 15.8435C16.2146 17.2431 15.1147 18.6336 14.013 20.0169C13.9187 20.1291 13.8354 20.2375 13.7013 20.422Z" fill="#0180C7"/>
<path d="M23.4447 16.0133C23.6459 15.7529 23.8561 15.5106 24.2003 15.4437C24.8636 15.3099 25.4851 15.7367 25.4941 16.4075C25.5195 18.0838 25.5105 19.76 25.4941 21.4363C25.4941 21.872 25.2078 22.2572 24.7965 22.3838C24.3761 22.5429 23.8977 22.4181 23.6205 22.0565C23.4773 21.8811 23.4194 21.8467 23.2182 22.0059C22.4535 22.6261 21.5892 22.7346 20.656 22.4326C19.161 21.9462 18.5486 20.7817 18.38 19.3658C18.2043 17.8324 18.7153 16.5251 20.0942 15.7204C21.2358 15.0423 22.3937 15.1002 23.4447 16.0133ZM20.4712 19.0729C20.4875 19.4418 20.6052 19.7944 20.8245 20.0873C21.2775 20.6913 22.1437 20.816 22.7561 20.364C22.8576 20.288 22.95 20.1958 23.0334 20.0873C23.5045 19.4508 23.5045 18.402 23.0334 17.7655C22.7978 17.4382 22.4282 17.2465 22.0331 17.2375C21.109 17.1796 20.4621 17.8921 20.4712 19.0729ZM29.265 19.1235C29.198 16.9699 30.6168 15.3605 32.6336 15.3009C34.7754 15.234 36.3374 16.6679 36.4045 18.7619C36.4715 20.8829 35.1705 22.382 33.1627 22.5845C30.9701 22.8033 29.2306 21.2193 29.265 19.1235ZM31.3724 18.9228C31.3561 19.3423 31.4811 19.7528 31.733 20.0963C32.1951 20.7003 33.0594 20.8178 33.6647 20.3477C33.7571 20.2808 33.8332 20.1976 33.9075 20.1126C34.3949 19.4761 34.3949 18.402 33.9165 17.7655C33.681 17.4473 33.3113 17.2465 32.9163 17.2375C32.0121 17.1869 31.3724 17.874 31.3724 18.9228ZM28.5257 17.4563C28.5257 18.7546 28.5348 20.0548 28.5257 21.3531C28.5348 21.948 28.0636 22.4434 27.4675 22.4597C27.366 22.4597 27.2573 22.4507 27.1558 22.4254C26.7354 22.3169 26.4165 21.872 26.4165 21.344V14.6806C26.4165 14.2864 26.4074 13.9013 26.4165 13.5071C26.4255 12.8616 26.8369 12.442 27.4584 12.442C28.0962 12.433 28.5257 12.8525 28.5257 13.5234C28.5348 14.8325 28.5257 16.1489 28.5257 17.4563Z" fill="#0180C7"/>
<path d="M20.471 19.073C20.462 17.8904 21.1089 17.178 22.024 17.2286C22.419 17.2449 22.7887 17.4384 23.0242 17.7657C23.4954 18.3949 23.4954 19.4509 23.0242 20.0874C22.5712 20.6914 21.705 20.8162 21.0926 20.3641C20.9911 20.2882 20.8987 20.1959 20.8153 20.0874C20.6051 19.7945 20.4873 19.4419 20.471 19.073ZM31.3723 18.9229C31.3723 17.8832 32.0102 17.1888 32.918 17.2376C33.313 17.2467 33.6827 17.4474 33.9183 17.7657C34.3966 18.4022 34.3966 19.4835 33.9092 20.1128C33.4381 20.7077 32.5647 20.8089 31.9685 20.3388C31.8761 20.2719 31.8 20.1887 31.7329 20.0965C31.4829 19.7529 31.3651 19.3424 31.3723 18.9229Z" fill="#FDFEFE"/>
<path fill-rule="evenodd" clip-rule="evenodd" d="M6.14713 1.39267C3.47782 1.39267 1.31617 3.67727 1.31617 6.49224V33.5078C1.31617 36.3227 3.47782 38.6073 6.14713 38.6073H33.8529C36.5222 38.6073 38.6838 36.3227 38.6838 33.5078V6.49224C38.6838 3.67727 36.5222 1.39267 33.8529 1.39267H6.14713ZM0 6.49224C0 2.90536 2.75353 0 6.14713 0H33.8529C37.2465 0 40 2.90536 40 6.49224V33.5078C40 37.0946 37.2465 40 33.8529 40H6.14713C2.75353 40 0 37.0946 0 33.5078V6.49224Z" fill="#0180C7"/>
</svg>
