<svg width="16" height="18" viewBox="0 0 16 18" fill="none" xmlns="http://www.w3.org/2000/svg">
<path d="M1.59922 17.6016L9.59922 17.6016C10.4792 17.6016 11.1992 16.8816 11.1992 16.0016L11.1992 14.4016C11.1992 13.9616 10.8392 13.6016 10.3992 13.6016C9.95922 13.6016 9.59922 13.9616 9.59922 14.4016L9.59922 15.2016L1.59922 15.2016L1.59922 2.40156L9.59922 2.40156L9.59922 3.20156C9.59922 3.64156 9.95922 4.00156 10.3992 4.00156C10.8392 4.00156 11.1992 3.64156 11.1992 3.20156L11.1992 1.60156C11.1992 0.721563 10.4792 0.00156349 9.59922 0.00156341L1.59922 0.00156271C0.719221 0.00156263 -0.000778344 0.721563 -0.000778421 1.60156L-0.00077968 16.0016C-0.000779757 16.8816 0.719219 17.6016 1.59922 17.6016Z" fill="#757575"/>
<path d="M13.4396 9.57678V8.17678C11.6636 8.17678 10.4876 8.72078 9.59961 9.92078C9.95961 8.20878 10.9516 6.50478 13.4396 6.16078V4.80078L15.9996 7.18478L13.4396 9.57678Z" fill="#757575"/>
<path d="M6.52231 8.36106V6.03894C7.01462 6.15221 7.41461 6.40708 7.59923 6.7469C7.72231 7.00177 8.06076 7.08672 8.33768 6.97345C8.6146 6.86018 8.70691 6.54867 8.58383 6.29381C8.2146 5.61416 7.44538 5.16106 6.55307 5.01947V4.50974C6.55307 4.22655 6.30692 4 5.99923 4C5.69154 4 5.44539 4.22655 5.44539 4.50974V5.01947C4.15308 5.2177 3.19922 6.09558 3.19922 7.14336C3.19922 8.67257 4.55308 9.09734 5.44539 9.23894V11.5611C4.98385 11.4478 4.58384 11.2212 4.39923 10.8814C4.24538 10.6265 3.93768 10.5416 3.66076 10.6832C3.38383 10.8248 3.29154 11.108 3.44539 11.3628C3.81462 11.9858 4.58385 12.4389 5.44539 12.5805V13.0903C5.44539 13.3735 5.69154 13.6 5.99923 13.6C6.30692 13.6 6.55307 13.3735 6.55307 13.0903V12.5805C7.84538 12.3823 8.79922 11.5044 8.79922 10.4566C8.76845 9.66372 8.36846 8.70089 6.52231 8.36106ZM5.44539 8.19115C4.58385 8.02124 4.27614 7.70973 4.27614 7.11504C4.27614 6.60531 4.76846 6.18053 5.44539 6.01062V8.19115ZM6.52231 11.5611V9.40885C7.69154 9.69204 7.69153 10.2301 7.69153 10.4566C7.69153 10.9664 7.19923 11.3911 6.52231 11.5611Z" fill="#757575"/>
</svg>
