<svg width="16" height="15" viewBox="0 0 16 15" fill="none" xmlns="http://www.w3.org/2000/svg">
<path d="M7.59301 14.6086C8.9276 14.6086 10.2864 14.2204 11.4754 13.444C11.9122 13.1528 12.3004 12.8373 12.6644 12.4734C12.7857 12.3278 12.7857 12.1337 12.6644 11.9881C12.5188 11.8668 12.3247 11.8668 12.1791 11.9881C11.8637 12.3278 11.4997 12.619 11.1115 12.8859C8.56362 14.5844 5.1665 14.1961 3.05543 11.9881C2.93411 11.8425 2.71572 11.8425 2.57013 11.9881C2.42454 12.1094 2.42454 12.3278 2.57013 12.4734C3.90471 13.8807 5.7246 14.6086 7.59301 14.6086Z" fill="#FCAF17"/>
<path d="M3.66814 1.74933C3.27989 2.01624 2.89164 2.30741 2.55193 2.64711C2.43061 2.76843 2.43061 2.98681 2.55193 3.13239C2.62473 3.20518 2.69752 3.22945 2.79458 3.22945C2.89164 3.22945 2.96444 3.20518 3.03723 3.13239C3.32842 2.81696 3.66814 2.55005 4.03211 2.30741C6.53142 0.657437 9.88 0.997137 11.9911 3.08386C12.1124 3.20518 12.3308 3.20518 12.4764 3.08386C12.5977 2.96254 12.5977 2.74416 12.4764 2.59858C10.1469 0.293473 6.43436 -0.0704908 3.66814 1.74933Z" fill="#FCAF17"/>
<path d="M3.83461 8.87128H5.12577C5.09986 9.27413 4.98327 9.63177 4.77599 9.94419C4.57159 10.2566 4.28515 10.5005 3.91666 10.6759C3.55105 10.8513 3.11058 10.939 2.59527 10.939C2.19223 10.939 1.83094 10.8732 1.51139 10.7417C1.19184 10.6074 0.918349 10.4156 0.690921 10.1662C0.466372 9.91679 0.295081 9.61533 0.177048 9.2618C0.0590162 8.90827 0 8.51227 0 8.07378V7.6586C0 7.22011 0.0604556 6.82411 0.181367 6.47058C0.305157 6.11431 0.480766 5.81148 0.708194 5.56209C0.938501 5.31271 1.21343 5.12087 1.53298 4.98658C1.85253 4.8523 2.20951 4.78516 2.60391 4.78516C3.12786 4.78516 3.56976 4.87559 3.92961 5.05647C4.29235 5.23734 4.57303 5.48673 4.77167 5.80463C4.97319 6.12253 5.0941 6.48428 5.13441 6.88988H3.83893C3.82453 6.64871 3.77416 6.44454 3.68779 6.27737C3.60143 6.10746 3.47044 5.98002 3.29483 5.89507C3.1221 5.80737 2.89179 5.76352 2.60391 5.76352C2.388 5.76352 2.19943 5.80189 2.03822 5.87863C1.877 5.95536 1.7417 6.07183 1.6323 6.22804C1.5229 6.38425 1.44086 6.58157 1.38616 6.82C1.33434 7.05568 1.30843 7.33247 1.30843 7.65037V8.07378C1.30843 8.38346 1.3329 8.65615 1.38184 8.89183C1.43078 9.12478 1.50563 9.32209 1.60639 9.48378C1.71003 9.64273 1.84246 9.76332 2.00367 9.84553C2.16776 9.92501 2.36496 9.96475 2.59527 9.96475C2.86588 9.96475 3.08899 9.92364 3.2646 9.84142C3.44021 9.75921 3.57408 9.63725 3.6662 9.47556C3.7612 9.31387 3.81734 9.11244 3.83461 8.87128Z" fill="#FCAF17"/>
<path d="M10.6989 7.72437V8.00801C10.6989 8.46294 10.6341 8.87128 10.5046 9.23303C10.375 9.59478 10.1922 9.90308 9.95617 10.158C9.7201 10.4101 9.43798 10.6033 9.10979 10.7376C8.78448 10.8719 8.42319 10.939 8.02591 10.939C7.63151 10.939 7.27022 10.8719 6.94203 10.7376C6.61672 10.6033 6.33459 10.4101 6.09565 10.158C5.85671 9.90308 5.67102 9.59478 5.53859 9.23303C5.40905 8.87128 5.34427 8.46294 5.34427 8.00801V7.72437C5.34427 7.2667 5.40905 6.85836 5.53859 6.49935C5.66814 6.1376 5.85095 5.8293 6.08701 5.57443C6.32596 5.31956 6.60808 5.12498 6.93339 4.9907C7.26158 4.85641 7.62287 4.78927 8.01727 4.78927C8.41455 4.78927 8.77585 4.85641 9.10116 4.9907C9.42934 5.12498 9.71147 5.31956 9.94753 5.57443C10.1865 5.8293 10.3707 6.1376 10.5003 6.49935C10.6327 6.85836 10.6989 7.2667 10.6989 7.72437ZM9.39048 8.00801V7.71615C9.39048 7.39825 9.36025 7.11871 9.2998 6.87755C9.23934 6.63638 9.1501 6.43358 9.03206 6.26915C8.91403 6.10472 8.77009 5.98139 8.60024 5.89918C8.43039 5.81422 8.23606 5.77174 8.01727 5.77174C7.79848 5.77174 7.60416 5.81422 7.43431 5.89918C7.26734 5.98139 7.12483 6.10472 7.0068 6.26915C6.89165 6.43358 6.80384 6.63638 6.74339 6.87755C6.68293 7.11871 6.6527 7.39825 6.6527 7.71615V8.00801C6.6527 8.32317 6.68293 8.60271 6.74339 8.84661C6.80384 9.08778 6.89309 9.29195 7.01112 9.45912C7.12915 9.62355 7.27309 9.74824 7.44295 9.8332C7.6128 9.91816 7.80712 9.96064 8.02591 9.96064C8.2447 9.96064 8.43902 9.91816 8.60887 9.8332C8.77873 9.74824 8.92123 9.62355 9.03638 9.45912C9.15153 9.29195 9.23934 9.08778 9.2998 8.84661C9.36025 8.60271 9.39048 8.32317 9.39048 8.00801Z" fill="#FCAF17"/>
<path d="M13.1197 10.8568H11.7508L11.7595 9.89486H13.1197C13.4594 9.89486 13.7459 9.82224 13.9791 9.67699C14.2122 9.529 14.3879 9.31387 14.5059 9.0316C14.6268 8.74932 14.6873 8.40813 14.6873 8.00801V7.71615C14.6873 7.40921 14.6527 7.13927 14.5836 6.90632C14.5174 6.67338 14.4181 6.47743 14.2857 6.31848C14.1532 6.15953 13.9906 6.04032 13.7977 5.96084C13.6048 5.87863 13.3831 5.83752 13.1327 5.83752H11.7249V4.87148H13.1327C13.553 4.87148 13.9373 4.94 14.2857 5.07702C14.6369 5.21131 14.9406 5.40451 15.1968 5.65664C15.453 5.90877 15.6502 6.21023 15.7884 6.56102C15.9295 6.90906 16 7.29685 16 7.72437V8.00801C16 8.43279 15.9295 8.82058 15.7884 9.17136C15.6502 9.52215 15.453 9.82361 15.1968 10.0757C14.9435 10.3251 14.6397 10.5183 14.2857 10.6554C13.9344 10.7896 13.5458 10.8568 13.1197 10.8568ZM12.4849 4.87148V10.8568H11.1895V4.87148H12.4849Z" fill="#FCAF17"/>
</svg>
