<svg width="18" height="17" viewBox="0 0 18 17" fill="none" xmlns="http://www.w3.org/2000/svg">
<path d="M16.9062 0.296875H1.09375C0.713477 0.296875 0.40625 0.590137 0.40625 0.953125V16.0469C0.40625 16.4099 0.713477 16.7031 1.09375 16.7031H16.9062C17.2865 16.7031 17.5938 16.4099 17.5938 16.0469V0.953125C17.5938 0.590137 17.2865 0.296875 16.9062 0.296875ZM14.9211 5.08545H13.5482C12.4719 5.08545 12.2635 5.57353 12.2635 6.29131V7.87246H14.833L14.4979 10.3478H12.2635V16.7031H9.58438V10.3498H7.34355V7.87246H9.58438V6.04727C9.58438 3.92881 10.94 2.77422 12.9209 2.77422C13.8705 2.77422 14.6848 2.84189 14.9232 2.87266V5.08545H14.9211Z" fill="black" fill-opacity="0.85"/>
</svg>
