<svg width="14" height="13" viewBox="0 0 14 13" fill="none" xmlns="http://www.w3.org/2000/svg">
<path fill-rule="evenodd" clip-rule="evenodd" d="M7.77833 2.31641C7.77833 2.7619 7.41719 3.12305 6.97169 3.12305C6.5262 3.12305 6.16505 2.7619 6.16505 2.31641C6.16505 1.87091 6.5262 1.50977 6.97169 1.50977C7.41719 1.50977 7.77833 1.87091 7.77833 2.31641ZM8.42081 3.36914C8.63585 3.07364 8.76271 2.70984 8.76271 2.31641C8.76271 1.32726 7.96084 0.525391 6.97169 0.525391C5.98254 0.525391 5.18068 1.32726 5.18068 2.31641C5.18068 2.70984 5.30753 3.07364 5.52257 3.36914H4.15342C3.69575 3.36914 3.29198 3.66859 3.15911 4.10654L0.97318 11.3116C0.770718 11.979 1.27011 12.6523 1.96749 12.6523H12.015C12.7109 12.6523 13.2101 11.9816 13.0103 11.315L10.8509 4.1099C10.7192 3.67026 10.3146 3.36914 9.85561 3.36914H8.42081ZM4.15342 4.35352H9.85561C9.87976 4.35352 9.90106 4.36936 9.908 4.3925L12.0674 11.5976C12.0712 11.6104 12.0706 11.6177 12.0697 11.6225C12.0685 11.629 12.0652 11.6374 12.0589 11.6459C12.0525 11.6545 12.0454 11.66 12.0395 11.663C12.0352 11.6653 12.0284 11.668 12.015 11.668H1.96749C1.95403 11.668 1.94727 11.6653 1.94292 11.663C1.93708 11.66 1.92992 11.6544 1.92356 11.6459C1.91721 11.6373 1.91399 11.6288 1.91278 11.6224C1.91189 11.6175 1.91125 11.6103 1.91516 11.5974L4.10109 4.39233C4.10808 4.36928 4.12933 4.35352 4.15342 4.35352Z" fill="#757575"/>
</svg>
