<svg width="12" height="13" viewBox="0 0 12 13" fill="none" xmlns="http://www.w3.org/2000/svg">
<path d="M11.4141 10.4977C11.1194 9.79949 10.6916 9.16532 10.1547 8.63047C9.61946 8.09408 8.9854 7.66641 8.28754 7.37109C8.28129 7.36797 8.27504 7.36641 8.26879 7.36328C9.24223 6.66016 9.87504 5.51484 9.87504 4.22266C9.87504 2.08203 8.14066 0.347656 6.00004 0.347656C3.85941 0.347656 2.12504 2.08203 2.12504 4.22266C2.12504 5.51484 2.75785 6.66016 3.73129 7.36484C3.72504 7.36797 3.71879 7.36953 3.71254 7.37266C3.01254 7.66797 2.38441 8.09141 1.84535 8.63203C1.30896 9.16729 0.881296 9.80136 0.585976 10.4992C0.295855 11.1824 0.139386 11.9149 0.125039 12.657C0.124622 12.6737 0.127547 12.6903 0.133642 12.7058C0.139737 12.7214 0.148878 12.7355 0.160527 12.7474C0.172176 12.7594 0.186098 12.7689 0.201471 12.7754C0.216844 12.7818 0.233358 12.7852 0.250039 12.7852H1.18754C1.25629 12.7852 1.31098 12.7305 1.31254 12.6633C1.34379 11.457 1.82816 10.3273 2.68441 9.4711C3.57035 8.58516 4.74691 8.09766 6.00004 8.09766C7.25316 8.09766 8.42973 8.58516 9.31566 9.4711C10.1719 10.3273 10.6563 11.457 10.6875 12.6633C10.6891 12.732 10.7438 12.7852 10.8125 12.7852H11.75C11.7667 12.7852 11.7832 12.7818 11.7986 12.7754C11.814 12.7689 11.8279 12.7594 11.8395 12.7474C11.8512 12.7355 11.8603 12.7214 11.8664 12.7058C11.8725 12.6903 11.8755 12.6737 11.875 12.657C11.8594 11.9102 11.7047 11.1836 11.4141 10.4977V10.4977ZM6.00004 6.91016C5.28285 6.91016 4.60785 6.63047 4.10004 6.12266C3.59223 5.61484 3.31254 4.93984 3.31254 4.22266C3.31254 3.50547 3.59223 2.83047 4.10004 2.32266C4.60785 1.81484 5.28285 1.53516 6.00004 1.53516C6.71723 1.53516 7.39222 1.81484 7.90004 2.32266C8.40785 2.83047 8.68754 3.50547 8.68754 4.22266C8.68754 4.93984 8.40785 5.61484 7.90004 6.12266C7.39222 6.63047 6.71723 6.91016 6.00004 6.91016Z" fill="#757575"/>
</svg>
