<svg width="14" height="11" viewBox="0 0 14 11" fill="none" xmlns="http://www.w3.org/2000/svg">
<path fill-rule="evenodd" clip-rule="evenodd" d="M13.8695 5.28747L13.0738 4.26265L11.7794 1.68833C11.6836 1.49799 11.4887 1.37781 11.2755 1.37781H9.56186V1.07751C9.56186 0.766069 9.30943 0.513672 8.99802 0.513672H1.7895C1.47806 0.513672 1.22566 0.766106 1.22566 1.07751C1.22566 1.38893 1.47809 1.64136 1.7895 1.64136H8.43415V4.53758C8.43415 4.84903 8.68659 5.10142 8.998 5.10142H12.2973L12.8602 5.82646V7.88072H12.2754C12.0405 7.12191 11.3324 6.569 10.4969 6.569C9.66168 6.569 8.95377 7.12152 8.71856 7.87991H6.36431C6.12909 7.12152 5.42119 6.569 4.586 6.569C3.75081 6.569 3.0429 7.12152 2.80769 7.87991H1.7895C1.47806 7.87991 1.22566 8.13234 1.22566 8.44375C1.22566 8.7552 1.47809 9.0076 1.7895 9.0076H2.8162C3.0596 9.75218 3.76063 10.2918 4.586 10.2918C5.41135 10.2918 6.11238 9.75219 6.35579 9.00762H8.72708C8.97048 9.75219 9.67152 10.2918 10.4969 10.2918C11.3221 10.2918 12.0228 9.75257 12.2664 9.00841H13.424C13.7355 9.00841 13.9878 8.75597 13.9879 8.44458V5.6333C13.9879 5.50812 13.9461 5.38633 13.8695 5.28747ZM11.666 3.97374H9.56186V2.50553H10.9278L11.666 3.97374ZM4.586 9.16407C4.18896 9.16407 3.86444 8.8469 3.85265 8.45268C3.85267 8.4516 3.85268 8.45051 3.85269 8.44942C3.85271 8.44754 3.85272 8.44565 3.85272 8.44375C3.85272 8.43689 3.8526 8.43004 3.85235 8.42323C3.8562 8.02201 4.18388 7.69671 4.586 7.69671C4.99039 7.69671 5.31968 8.02589 5.31968 8.43039C5.31968 8.83492 4.99051 9.16407 4.586 9.16407ZM10.4969 9.16407C10.0924 9.16407 9.76319 8.8349 9.76319 8.43039C9.76319 8.02588 10.0924 7.69671 10.4969 7.69671C10.9014 7.69671 11.2305 8.02588 11.2305 8.43039C11.2305 8.83492 10.9014 9.16407 10.4969 9.16407ZM3.26005 5.68735H1.27049C0.959044 5.68735 0.706647 5.93979 0.706647 6.25119C0.706647 6.56264 0.959081 6.81504 1.27049 6.81504H3.26002C3.57147 6.81504 3.82386 6.56259 3.82387 6.25119C3.82389 5.93977 3.57146 5.68735 3.26005 5.68735ZM4.25461 3.98719H0.563843C0.252424 3.98719 0 4.23962 0 4.55105C0 4.8625 0.252435 5.1149 0.563843 5.1149H4.25461C4.56605 5.1149 4.81845 4.86246 4.81845 4.55105C4.81845 4.23966 4.56606 3.98719 4.25461 3.98719ZM4.96127 2.28608H1.2705C0.959059 2.28608 0.706662 2.53851 0.706662 2.84992C0.706662 3.16137 0.959096 3.41376 1.2705 3.41376H4.96127C5.27271 3.41376 5.5251 3.16132 5.52511 2.84992C5.52514 2.53849 5.2727 2.28608 4.96127 2.28608Z" fill="#757575"/>
</svg>
