<svg width="14" height="12" viewBox="0 0 14 12" fill="none" xmlns="http://www.w3.org/2000/svg">
<path d="M13.5 0.498047H0.5C0.223437 0.498047 0 0.721484 0 0.998047V10.998C0 11.2746 0.223437 11.498 0.5 11.498H13.5C13.7766 11.498 14 11.2746 14 10.998V0.998047C14 0.721484 13.7766 0.498047 13.5 0.498047ZM1.125 1.62305H12.875V3.49805H1.125V1.62305ZM12.875 10.373H1.125V4.87305H12.875V10.373ZM9.17188 9.37305H11.75C11.8188 9.37305 11.875 9.3168 11.875 9.24805V8.12305C11.875 8.0543 11.8188 7.99805 11.75 7.99805H9.17188C9.10312 7.99805 9.04688 8.0543 9.04688 8.12305V9.24805C9.04688 9.3168 9.10312 9.37305 9.17188 9.37305Z" fill="#757575"/>
</svg>
