<svg width="14" height="14" viewBox="0 0 14 14" fill="none" xmlns="http://www.w3.org/2000/svg">
<path fill-rule="evenodd" clip-rule="evenodd" d="M6.96564 2.44922C4.47572 2.44922 2.44922 4.47572 2.44922 6.96564C2.44922 9.45557 4.47572 11.4821 6.96564 11.4821C9.45557 11.4821 11.4821 9.45557 11.4821 6.96564C11.4821 4.47572 9.45557 2.44922 6.96564 2.44922ZM1.46484 6.96564C1.46484 3.93207 3.93207 1.46484 6.96564 1.46484C9.99922 1.46484 12.4664 3.93207 12.4664 6.96564C12.4664 9.99922 9.99922 12.4664 6.96564 12.4664C3.93207 12.4664 1.46484 9.99922 1.46484 6.96564Z" fill="#FCAF17"/>
<path fill-rule="evenodd" clip-rule="evenodd" d="M6.96582 0.984375C3.66809 0.984375 0.984375 3.66809 0.984375 6.96582C0.984375 10.2636 3.66809 12.9473 6.96582 12.9473C10.2636 12.9473 12.9473 10.2636 12.9473 6.96582C12.9473 3.66809 10.2636 0.984375 6.96582 0.984375ZM0 6.96582C0 3.12443 3.12443 0 6.96582 0C10.8072 0 13.9316 3.12443 13.9316 6.96582C13.9316 10.8072 10.8072 13.9316 6.96582 13.9316C3.12443 13.9316 0 10.8072 0 6.96582Z" fill="#FCAF17"/>
<path d="M3.46875 4.86719L4.79855 7.58003V9.06348H5.56403V7.58003L6.89382 4.86719H6.03043L5.19909 6.67438H5.16348L4.33214 4.86719H3.46875Z" fill="#FCAF17"/>
<path d="M8.67886 9.06348C9.7897 9.06348 10.4626 8.27258 10.4626 6.96124C10.4626 5.65399 9.7897 4.86719 8.68954 4.86719H7.38645V9.06348H8.67886ZM8.15727 8.30331V5.62736H8.6486C9.33219 5.62736 9.69357 6.02895 9.69357 6.96124C9.69357 7.89762 9.33219 8.30331 8.64682 8.30331H8.15727Z" fill="#FCAF17"/>
</svg>
