<svg width="14" height="14" viewBox="0 0 14 14" fill="none" xmlns="http://www.w3.org/2000/svg">
<path fill-rule="evenodd" clip-rule="evenodd" d="M6.96564 2.44946C4.47572 2.44946 2.44922 4.47597 2.44922 6.96589C2.44922 9.45581 4.47572 11.4823 6.96564 11.4823C9.45557 11.4823 11.4821 9.45581 11.4821 6.96589C11.4821 4.47597 9.45557 2.44946 6.96564 2.44946ZM1.46484 6.96589C1.46484 3.93231 3.93207 1.46509 6.96564 1.46509C9.99922 1.46509 12.4664 3.93231 12.4664 6.96589C12.4664 9.99947 9.99922 12.4667 6.96564 12.4667C3.93207 12.4667 1.46484 9.99947 1.46484 6.96589Z" fill="#757575"/>
<path fill-rule="evenodd" clip-rule="evenodd" d="M6.96582 0.984375C3.66809 0.984375 0.984375 3.66809 0.984375 6.96582C0.984375 10.2636 3.66809 12.9473 6.96582 12.9473C10.2636 12.9473 12.9473 10.2636 12.9473 6.96582C12.9473 3.66809 10.2636 0.984375 6.96582 0.984375ZM0 6.96582C0 3.12443 3.12443 0 6.96582 0C10.8072 0 13.9316 3.12443 13.9316 6.96582C13.9316 10.8072 10.8072 13.9316 6.96582 13.9316C3.12443 13.9316 0 10.8072 0 6.96582Z" fill="#757575"/>
<path d="M3.46875 4.86768L4.79855 7.58051V9.06397H5.56403V7.58051L6.89382 4.86768H6.03043L5.19909 6.67487H5.16348L4.33214 4.86768H3.46875Z" fill="#757575"/>
<path d="M8.67886 9.06397C9.7897 9.06397 10.4626 8.27307 10.4626 6.96173C10.4626 5.65448 9.7897 4.86768 8.68955 4.86768H7.38645V9.06397H8.67886ZM8.15727 8.3038V5.62784H8.6486C9.33219 5.62784 9.69357 6.02944 9.69357 6.96173C9.69357 7.89811 9.33219 8.3038 8.64682 8.3038H8.15727Z" fill="#757575"/>
</svg>
