<svg width="16" height="15" viewBox="0 0 16 15" fill="none" xmlns="http://www.w3.org/2000/svg">
<path d="M15.9775 13.5033C15.9775 13.5033 15.5781 12.5645 15.5781 11.8056C15.5781 11.5259 15.5581 9.02926 14.5194 8.05056C14.1399 7.69104 12.3622 6.99197 12.0227 6.85216C11.8829 6.79224 11.7031 6.87213 11.6432 7.01195C11.5833 7.15176 11.6632 7.33152 11.803 7.39144C12.6419 7.71102 13.9002 8.27027 14.12 8.47C14.7192 9.04923 14.9988 10.6072 14.9988 11.8056C14.9988 12.6844 15.4183 13.6831 15.4382 13.723C15.4782 13.8229 15.598 13.9028 15.6979 13.9028C15.7379 13.9028 15.7778 13.9028 15.8178 13.8828C15.9776 13.8029 16.0375 13.6431 15.9775 13.5033Z" fill="#757575"/>
<path d="M12.5038 8.56777C12.324 8.48788 12.1642 8.40798 12.0244 8.26817C11.7248 7.96857 11.545 7.80878 11.4052 7.66897V5.4719H12.0843C13.3427 5.4719 14.3614 4.45326 14.3614 3.19493C14.3614 1.93661 13.3427 0.917969 12.0843 0.917969H2.27705C1.01868 0.917969 0 1.93661 0 3.19493C0 4.45326 1.01868 5.4719 2.27705 5.4719H2.95617V11.424C2.95617 12.3028 3.67524 13.0218 4.5541 13.0218H9.80729C10.4664 13.0218 11.0457 12.6024 11.2854 12.0232C11.6649 12.4426 12.1842 12.7422 12.8434 12.922C12.8633 12.922 12.9033 12.9419 12.9233 12.9419C13.0431 12.9419 13.1629 12.862 13.2029 12.7422C13.2428 12.5824 13.1629 12.4426 13.0031 12.3827C11.2654 11.9033 11.1855 10.645 11.1456 10.2256C11.1256 10.0857 11.0856 9.94593 11.0057 9.82609C10.9458 9.72622 10.806 9.54646 10.6462 9.34673C10.2467 8.80745 9.5676 7.88867 9.42778 7.5691C9.24802 7.18961 9.32791 7.10971 9.46773 7.00985C9.66747 6.87003 9.76734 6.89001 10.2267 7.32942C10.6063 7.68894 10.7461 7.84873 10.9258 8.02849C11.0856 8.18828 11.2654 8.34806 11.605 8.70758C11.8047 8.90732 12.0244 9.00718 12.2242 9.10705C12.4838 9.22689 12.7235 9.34673 12.9832 9.64633C13.083 9.76617 13.2628 9.76617 13.3827 9.6663C13.5025 9.56644 13.5025 9.38668 13.4026 9.26684C13.103 8.86737 12.7635 8.70758 12.5038 8.56777ZM4.53413 12.0631C4.19457 12.0431 3.9349 11.7635 3.9349 11.424V3.49453H4.53413V12.0631ZM10.4664 6.75019C10.1269 6.43062 9.70742 6.15099 9.16812 6.51051C8.52895 6.92995 8.82856 7.54913 8.92843 7.78881C9.08822 8.12836 9.62752 8.86737 10.2068 9.6663C10.3066 9.80612 10.3865 9.92596 10.4664 10.0059V11.404C10.4664 11.7635 10.1668 12.0431 9.82727 12.0431H6.7113V3.49453H7.3305V6.39067C7.3305 6.65033 7.55022 6.87003 7.80988 6.87003H8.42908C8.68874 6.87003 8.90846 6.65033 8.90846 6.39067V3.49453H10.4864V6.75019H10.4664ZM7.88977 6.29081V3.49453H8.32921V6.29081H7.88977ZM8.60884 2.91531H7.61014H2.29702C2.13723 2.91531 2.01739 3.03515 2.01739 3.19493C2.01739 3.35472 2.13723 3.47456 2.29702 3.47456H2.97614V4.51318H2.29702C1.57795 4.51318 0.978733 3.91397 0.978733 3.19493C0.978733 2.47589 1.57795 1.87669 2.29702 1.87669H12.1043C12.8234 1.87669 13.4226 2.47589 13.4226 3.19493C13.4226 3.91397 12.8234 4.51318 12.1043 4.51318H11.4252V3.47456H12.1043C12.2641 3.47456 12.3839 3.35472 12.3839 3.19493C12.3839 3.03515 12.2641 2.91531 12.1043 2.91531H8.60884V2.91531Z" fill="#757575"/>
<path d="M11.2073 12.9216C11.0675 12.8617 10.8877 12.9216 10.8278 13.0614C10.7679 13.2012 10.8278 13.381 10.9676 13.4409C11.3671 13.6206 11.5269 14.08 11.5269 14.08C11.5669 14.1999 11.6867 14.2798 11.8066 14.2798C11.8265 14.2798 11.8665 14.2798 11.8865 14.2598C12.0462 14.2198 12.1261 14.0601 12.0662 13.9003C12.0662 13.8803 11.8465 13.2012 11.2073 12.9216Z" fill="#757575"/>
<path d="M7.60972 7.80859C7.44992 7.80859 7.33008 7.92843 7.33008 8.08822V11.1841C7.33008 11.3439 7.44992 11.4637 7.60972 11.4637C7.76951 11.4637 7.88936 11.3439 7.88936 11.1841V8.08822C7.88936 7.92843 7.74954 7.80859 7.60972 7.80859Z" fill="#757575"/>
<path d="M8.40854 7.80859C8.24875 7.80859 8.12891 7.92843 8.12891 8.08822V9.24668C8.12891 9.40647 8.24875 9.52631 8.40854 9.52631C8.56834 9.52631 8.68818 9.40647 8.68818 9.24668V8.08822C8.68818 7.92843 8.56834 7.80859 8.40854 7.80859Z" fill="#757575"/>
</svg>
