<svg width="17" height="18" viewBox="0 0 17 18" fill="none" xmlns="http://www.w3.org/2000/svg">
<path d="M8.9717 11H8.56739C8.53032 11 8.5 11.0307 8.5 11.0682V16.9318C8.5 16.9693 8.53032 17 8.56739 17H8.9717C9.00876 17 9.03908 16.9693 9.03908 16.9318V11.0682C9.03908 11.0307 9.00876 11 8.9717 11ZM15.9882 11H15.5839C15.5468 11 15.5165 11.0307 15.5165 11.0682V16.9318C15.5165 16.9693 15.5468 17 15.5839 17H15.9882C16.0252 17 16.0556 16.9693 16.0556 16.9318V11.0682C16.0556 11.0307 16.0252 11 15.9882 11ZM9.64555 15.9091H10.5889C10.626 15.9091 10.6563 15.8784 10.6563 15.8409V11.0682C10.6563 11.0307 10.626 11 10.5889 11H9.64555C9.60849 11 9.57816 11.0307 9.57816 11.0682V15.8409C9.57816 15.8784 9.60849 15.9091 9.64555 15.9091ZM12.3494 15.9091H12.7537C12.7907 15.9091 12.8211 15.8784 12.8211 15.8409V11.0682C12.8211 11.0307 12.7907 11 12.7537 11H12.3494C12.3123 11 12.282 11.0307 12.282 11.0682V15.8409C12.282 15.8784 12.3123 15.9091 12.3494 15.9091ZM13.4107 15.9091H14.91C14.9471 15.9091 14.9774 15.8784 14.9774 15.8409V11.0682C14.9774 11.0307 14.9471 11 14.91 11H13.4107C13.3736 11 13.3433 11.0307 13.3433 11.0682V15.8409C13.3433 15.8784 13.3736 15.9091 13.4107 15.9091ZM11.2628 15.9091H11.6671C11.7042 15.9091 11.7345 15.8784 11.7345 15.8409V11.0682C11.7345 11.0307 11.7042 11 11.6671 11H11.2628C11.2257 11 11.1954 11.0307 11.1954 11.0682V15.8409C11.1954 15.8784 11.2257 15.9091 11.2628 15.9091ZM10.5974 16.4545H9.65397C9.61691 16.4545 9.58658 16.4852 9.58658 16.5227V16.9318C9.58658 16.9693 9.61691 17 9.65397 17H10.5974C10.6344 17 10.6647 16.9693 10.6647 16.9318V16.5227C10.6647 16.4852 10.6344 16.4545 10.5974 16.4545ZM12.7621 16.4545H12.3578C12.3207 16.4545 12.2904 16.4852 12.2904 16.5227V16.9318C12.2904 16.9693 12.3207 17 12.3578 17H12.7621C12.7992 17 12.8295 16.9693 12.8295 16.9318V16.5227C12.8295 16.4852 12.7992 16.4545 12.7621 16.4545ZM14.9184 16.4545H13.4191C13.3821 16.4545 13.3517 16.4852 13.3517 16.5227V16.9318C13.3517 16.9693 13.3821 17 13.4191 17H14.9184C14.9555 17 14.9858 16.9693 14.9858 16.9318V16.5227C14.9858 16.4852 14.9555 16.4545 14.9184 16.4545ZM11.6755 16.4545H11.2712C11.2342 16.4545 11.2038 16.4852 11.2038 16.5227V16.9318C11.2038 16.9693 11.2342 17 11.2712 17H11.6755C11.7126 17 11.7429 16.9693 11.7429 16.9318V16.5227C11.7429 16.4852 11.7126 16.4545 11.6755 16.4545Z" fill="#757575"/>
<path fill-rule="evenodd" clip-rule="evenodd" d="M2.24276 3.11929C2.24813 3.76386 2.25516 5.234 2.2424 6.26819C2.23705 6.70187 2.33084 6.98365 2.43447 7.13808C2.52624 7.27484 2.63317 7.33008 2.76893 7.33008H5.90437L7.65625 2.42578H2.76893C2.60761 2.42578 2.50426 2.49743 2.41294 2.63742C2.31497 2.78761 2.26013 2.98345 2.24276 3.11929ZM8.24543 7.33008H7.18185L8.93374 2.42578H9.92324L8.24543 7.33008ZM1.42943 1.91814C1.6895 1.51945 2.128 1.16016 2.76893 1.16016H10.7754C10.9702 1.16016 11.1528 1.26071 11.2647 1.4296C11.3766 1.5985 11.4037 1.81453 11.3373 2.00849L9.22652 8.17841C9.14084 8.42888 8.91619 8.5957 8.6646 8.5957H7.51532C7.55653 9.25 7.51532 8.25 7.51532 10C7.51532 11.75 7.32042 13.5 7.32042 14.473C7.32042 15.4461 7.3969 15.6408 7.14202 16.105C6.85005 16.6366 6.33732 16.8273 5.80046 16.8273H3.50404C3.22568 16.8273 2.98418 16.6238 2.92165 16.3366L2.49219 8.57133C2.06903 8.49525 1.71075 8.24472 1.46006 7.87113C1.16822 7.43621 1.0396 6.8665 1.04719 6.25165C1.06004 5.21039 1.05255 3.71165 1.04717 3.09161C1.04697 3.06878 1.04794 3.04595 1.05007 3.02323C1.07777 2.72802 1.18324 2.29554 1.42943 1.91814ZM3.72415 8.5957L3.9796 15.5617H5.80046C6.063 15.5617 6.09916 15.4881 6.10761 15.4709L6.10869 15.4688C6.15225 15.3895 6.13573 15.1646 6.13754 14.6551C6.13987 14 6.23739 12.0978 6.29726 10.25C6.32428 9.41582 6.29726 9.13299 6.29726 8.5957H3.72415Z" fill="#757575"/>
<path fill-rule="evenodd" clip-rule="evenodd" d="M13.5547 1.81034C13.7611 1.53766 14.1373 1.49381 14.3948 1.71241C15.5534 2.69586 16.3261 4.41371 15.8344 6.30245C15.3374 8.21153 13.7169 9.16319 12.615 9.44003C12.2938 9.52072 11.9717 9.31047 11.8955 8.97042C11.8193 8.63037 12.0179 8.28929 12.339 8.2086C13.1961 7.99326 14.343 7.26869 14.6821 5.96612C15.0265 4.6432 14.4973 3.42153 13.6471 2.6999C13.3896 2.4813 13.3482 2.08303 13.5547 1.81034Z" fill="#757575"/>
<path fill-rule="evenodd" clip-rule="evenodd" d="M11.9411 3.32251C12.1565 3.05768 12.5339 3.02786 12.784 3.25591C13.4148 3.83103 13.631 4.74821 13.4267 5.53303C13.1977 6.41263 12.6254 7.02471 11.9051 7.25844C11.5895 7.36085 11.2552 7.17297 11.1585 6.83882C11.0618 6.50466 11.2392 6.15077 11.5548 6.04836C11.8638 5.94811 12.1482 5.68129 12.2744 5.1967C12.3647 4.84962 12.2601 4.44844 12.004 4.21496C11.7539 3.98691 11.7257 3.58735 11.9411 3.32251Z" fill="#757575"/>
</svg>
