<svg width="16" height="15" viewBox="0 0 16 15" fill="none" xmlns="http://www.w3.org/2000/svg">
<path d="M14.7807 3.5175C12.5401 0.136623 7.95872 -0.803621 4.57772 1.43696C3.39737 2.21716 2.47709 3.31745 1.89692 4.61778C1.77688 4.89786 1.89692 5.23795 2.17701 5.35798C2.45709 5.47801 2.79718 5.35798 2.91722 5.0779C3.39736 3.97762 4.1776 3.05738 5.1979 2.3772C8.07875 0.47671 11.9599 1.25691 13.8605 4.13766C15.761 7.01841 14.9808 10.8994 12.0999 12.7999C9.21909 14.7004 5.33794 13.9202 3.43738 11.0394C2.97724 10.3393 2.63714 9.57907 2.45708 8.83888L2.91722 9.33901C3.11728 9.55907 3.47739 9.57907 3.69745 9.37902C3.91752 9.17897 3.93753 8.81887 3.73747 8.59882L2.15699 6.83836C2.13699 6.81835 2.11698 6.79835 2.09698 6.79835L2.07698 6.77834C1.95694 6.69832 1.8169 6.63831 1.67686 6.65831C1.49681 6.67832 1.33675 6.77834 1.25673 6.93839L0.0763836 9.01893C-0.0836639 9.27899 0.0163609 9.61908 0.296444 9.77912C0.376468 9.81913 0.476502 9.85914 0.576532 9.85914C0.776592 9.85914 0.956638 9.75912 1.05667 9.57907L1.35676 9.03893C1.55682 9.93916 1.95694 10.8394 2.4971 11.6796C3.91752 13.8202 6.25821 14.9805 8.65892 14.9805C10.0593 14.9805 11.4598 14.5804 12.7201 13.7602C16.0811 11.4796 17.0214 6.89838 14.7807 3.5175Z" fill="#757575"/>
<path d="M8.63945 13.3561C9.73978 13.3561 10.8601 13.036 11.8404 12.3958C12.2005 12.1557 12.5206 11.8957 12.8207 11.5956C12.9207 11.4756 12.9207 11.3155 12.8207 11.1955C12.7006 11.0955 12.5406 11.0955 12.4206 11.1955C12.1605 11.4756 11.8604 11.7156 11.5403 11.9357C9.43969 13.3361 6.63886 13.016 4.89835 11.1955C4.79832 11.0755 4.61827 11.0755 4.49823 11.1955C4.37819 11.2955 4.37819 11.4756 4.49823 11.5956C5.59855 12.7559 7.099 13.3561 8.63945 13.3561Z" fill="#757575"/>
<path d="M5.43866 2.75743C5.11857 2.97749 4.79846 3.21755 4.51838 3.49762C4.41835 3.59765 4.41835 3.77769 4.51838 3.89773C4.5784 3.95774 4.63842 3.97775 4.71844 3.97775C4.79846 3.97775 4.85848 3.95774 4.9185 3.89773C5.15857 3.63766 5.43866 3.4176 5.73875 3.21755C7.79936 1.8572 10.5602 2.13727 12.3007 3.85771C12.4007 3.95774 12.5808 3.95774 12.7008 3.85771C12.8008 3.75769 12.8008 3.57764 12.7008 3.45761C10.7802 1.55712 7.71933 1.25704 5.43866 2.75743Z" fill="#757575"/>
<path d="M4.90609 8.40954C5.89645 8.9254 7.1021 8.891 8.60917 8.37515L10.3746 9.2693C9.94401 9.33808 9.51342 9.37247 9.12589 9.30369C8.78141 9.2349 8.43693 9.40686 8.39388 9.68198C8.30776 9.9571 8.52306 10.2322 8.86753 10.2666C9.12588 10.301 9.38424 10.3354 9.68565 10.3354C10.3746 10.3354 11.1066 10.1978 11.7094 9.9571L12.2692 10.2666C12.3553 10.3354 12.4845 10.3354 12.6137 10.3354C12.829 10.3354 13.0012 10.2666 13.1304 10.0947C13.3026 9.85393 13.2165 9.54442 12.9581 9.40686L12.7429 9.30369C13.0873 8.99417 13.2596 8.65027 13.2596 8.30637C13.2596 7.8593 12.9581 7.44662 12.4414 7.1715C11.1927 6.51809 9.90095 6.75882 8.73835 7.20589L6.97293 6.31174C7.40352 6.24296 7.79105 6.20858 8.17858 6.27736C8.52305 6.31175 8.82447 6.13979 8.91059 5.89906C8.99671 5.62394 8.73835 5.38321 8.43694 5.31443C7.53269 5.17687 6.54234 5.31443 5.68115 5.65833L5.12138 5.34882C4.81997 5.21126 4.43244 5.28004 4.2602 5.48638C4.08796 5.72711 4.17408 6.03663 4.43243 6.17419L4.64773 6.27736C4.30326 6.58687 4.13102 6.93077 4.13102 7.27467C4.08796 7.75613 4.38938 8.13442 4.90609 8.40954ZM11.7094 8.03125C11.9678 8.16881 11.9678 8.27198 11.9678 8.30637C11.9678 8.40954 11.8817 8.5815 11.6664 8.75345L9.98707 7.89369C10.633 7.72174 11.1927 7.72174 11.7094 8.03125ZM5.63809 6.8276L7.27434 7.68735C6.58539 7.82491 6.02563 7.79052 5.55198 7.58418C5.29362 7.44662 5.29362 7.34345 5.29362 7.30906C5.33668 7.1715 5.4228 6.99955 5.63809 6.8276Z" fill="#757575"/>
</svg>
