<svg width="23" height="22" viewBox="0 0 23 22" fill="none" xmlns="http://www.w3.org/2000/svg">
<path d="M7.80333 11.0003C7.80333 12.968 9.45655 14.56 11.5 14.56C13.5435 14.56 15.1967 12.968 15.1967 11.0003C15.1967 9.03248 13.5435 7.44049 11.5 7.44049C9.45655 7.44049 7.80333 9.02994 7.80333 11.0003ZM21.7305 7.20182L15.5526 7.50905C17.2296 9.39557 17.256 12.1174 15.8453 14.2046L10.8883 21.5475C12.9449 21.6542 15.0648 21.22 16.9844 20.146C21.7305 17.5053 23.6553 11.9676 21.7305 7.20182ZM6.44542 13.029L2.31895 5.21373C1.15021 6.93361 0.528846 8.94487 0.531257 11.0003C0.531257 16.2815 4.54698 20.6563 9.79669 21.4307L12.6153 16.1139C10.0683 16.576 7.60821 15.2303 6.44542 13.029ZM12.2066 5.77994L21.2875 6.23951C20.3594 4.46725 18.8986 2.92604 16.9791 1.85201C15.2415 0.884631 13.3325 0.425061 11.4605 0.437756C8.23048 0.450451 5.07432 1.83932 2.96758 4.36061L6.34786 9.36002C7.19161 7.02662 9.63848 5.63522 12.2066 5.77994Z" fill="black" fill-opacity="0.85"/>
</svg>
