<svg width="40" height="40" viewBox="0 0 40 40" fill="none" xmlns="http://www.w3.org/2000/svg">
<circle cx="20" cy="20" r="20" fill="#27AE60"/>
<path fill-rule="evenodd" clip-rule="evenodd" d="M10.1654 14.7499C10.1654 14.7039 10.2027 14.6666 10.2487 14.6666H13.7244L10.1654 17.7808V14.7499ZM10.2487 13.3333H15.4982H15.4987H24.4987H24.4992H29.7487C30.5311 13.3333 31.1654 13.9675 31.1654 14.7499V19.2456V19.2548V20.745V20.7543V25.2499C31.1654 26.0323 30.5311 26.6666 29.7487 26.6666H24.5039H24.4941H15.5034C15.5001 26.6666 15.4968 26.6666 15.4935 26.6666H10.2487C9.46629 26.6666 8.83203 26.0323 8.83203 25.2499V20.7497V19.2502V14.7499C8.83203 13.9675 9.46629 13.3333 10.2487 13.3333ZM10.1654 22.2191V25.2499C10.1654 25.2959 10.2027 25.3333 10.2487 25.3333H13.7244L10.1654 22.2191ZM15.7492 25.3333L10.1654 20.4474V19.5524L15.7492 14.6666H24.2482L29.832 19.5524V20.4474L24.2482 25.3333H15.7492ZM29.832 22.2191V25.2499C29.832 25.2959 29.7947 25.3333 29.7487 25.3333H26.273L29.832 22.2191ZM29.832 17.7807L26.273 14.6666H29.7487C29.7947 14.6666 29.832 14.7039 29.832 14.7499V17.7807ZM17.6654 19.9999C17.6654 18.7113 18.71 17.6666 19.9987 17.6666C21.2874 17.6666 22.332 18.7113 22.332 19.9999C22.332 21.2886 21.2874 22.3333 19.9987 22.3333C18.71 22.3333 17.6654 21.2886 17.6654 19.9999ZM19.9987 16.3333C17.9737 16.3333 16.332 17.9749 16.332 19.9999C16.332 22.025 17.9737 23.6666 19.9987 23.6666C22.0237 23.6666 23.6654 22.025 23.6654 19.9999C23.6654 17.9749 22.0237 16.3333 19.9987 16.3333Z" fill="white"/>
</svg>
