<svg width="22" height="22" viewBox="0 0 22 22" fill="none" xmlns="http://www.w3.org/2000/svg">
<path d="M15.3827 7.27271H14.2835C14.0445 7.27271 13.8171 7.38755 13.6765 7.58442L9.99212 12.6938L8.32337 10.3782C8.18274 10.1836 7.95774 10.0665 7.71634 10.0665H6.61712C6.46477 10.0665 6.37571 10.2399 6.46477 10.3641L9.38509 14.4141C9.45408 14.5104 9.54502 14.5889 9.65038 14.643C9.75575 14.6971 9.87249 14.7253 9.99095 14.7253C10.1094 14.7253 10.2261 14.6971 10.3315 14.643C10.4369 14.5889 10.5278 14.5104 10.5968 14.4141L15.5327 7.57036C15.6242 7.44614 15.5351 7.27271 15.3827 7.27271Z" fill="#27AE60"/>
<path d="M11 0.5C5.20156 0.5 0.5 5.20156 0.5 11C0.5 16.7984 5.20156 21.5 11 21.5C16.7984 21.5 21.5 16.7984 21.5 11C21.5 5.20156 16.7984 0.5 11 0.5ZM11 19.7188C6.18594 19.7188 2.28125 15.8141 2.28125 11C2.28125 6.18594 6.18594 2.28125 11 2.28125C15.8141 2.28125 19.7188 6.18594 19.7188 11C19.7188 15.8141 15.8141 19.7188 11 19.7188Z" fill="#27AE60"/>
</svg>
