<svg width="17" height="17" viewBox="0 0 17 17" fill="none" xmlns="http://www.w3.org/2000/svg">
<path fill-rule="evenodd" clip-rule="evenodd" d="M12.496 11.3134C14.5433 8.68408 14.3583 4.8801 11.9413 2.463C9.32394 -0.154334 5.08035 -0.154334 2.46301 2.463C-0.154337 5.08035 -0.154337 9.32388 2.46301 11.9412C4.88012 14.3583 8.68413 14.5432 11.3135 12.496C11.3248 12.5088 11.3366 12.5214 11.3488 12.5336L14.9032 16.0879C15.2304 16.4151 15.7608 16.4151 16.088 16.0879C16.4151 15.7608 16.4151 15.2304 16.088 14.9031L12.5337 11.3488C12.5214 11.3366 12.5088 11.3248 12.496 11.3134ZM10.7022 3.63114C12.6548 5.58376 12.6548 8.74956 10.7022 10.7022C8.74958 12.6548 5.58375 12.6548 3.63113 10.7022C1.67851 8.74956 1.67851 5.58376 3.63113 3.63114C5.58375 1.67851 8.74958 1.67851 10.7022 3.63114Z" fill="#71767B"/>
</svg>
