<svg width="18" height="18" viewBox="0 0 18 18" fill="none" xmlns="http://www.w3.org/2000/svg">
<path d="M13.1242 10.7676L14.8925 9.00005C15.6722 8.21779 16.1101 7.15832 16.1101 6.0538C16.1101 4.94929 15.6722 3.88982 14.8925 3.10756C14.1104 2.32739 13.0509 1.88926 11.9462 1.88926C10.8416 1.88926 9.78204 2.32739 8.99999 3.10756L8.41083 3.69672L9.58916 4.87505L10.1783 4.28589C10.6479 3.81838 11.2836 3.55591 11.9462 3.55591C12.6089 3.55591 13.2446 3.81838 13.7142 4.28589C14.1821 4.75528 14.4448 5.39103 14.4448 6.0538C14.4448 6.71658 14.1821 7.35233 13.7142 7.82172L11.9458 9.58922C11.7433 9.79038 11.5047 9.95153 11.2425 10.0642L10.1783 9.00005L11.3567 7.82172L10.7675 7.23255C10.3816 6.84432 9.92258 6.5365 9.41691 6.32694C8.91125 6.11738 8.36903 6.01024 7.82166 6.01172C7.62583 6.01172 7.43499 6.03839 7.24583 6.06672L2.08916 0.910889L0.910828 2.08922L15.9108 17.0892L17.0892 15.9109L12.4758 11.2976C12.7067 11.1442 12.9242 10.9676 13.1242 10.7676ZM7.82166 13.7142C7.35205 14.1817 6.71639 14.4442 6.05374 14.4442C5.3911 14.4442 4.75544 14.1817 4.28583 13.7142C3.81791 13.2448 3.55517 12.6091 3.55517 11.9463C3.55517 11.2835 3.81791 10.6478 4.28583 10.1784L5.51583 8.94922L4.33749 7.77089L3.10749 9.00005C2.32774 9.78232 1.88989 10.8418 1.88989 11.9463C1.88989 13.0508 2.32774 14.1103 3.10749 14.8926C3.49406 15.2797 3.9533 15.5866 4.45884 15.7957C4.96438 16.0047 5.50626 16.1119 6.05333 16.1109C6.60054 16.112 7.14259 16.005 7.64829 15.7959C8.15399 15.5868 8.61336 15.2798 8.99999 14.8926L9.58916 14.3034L8.41083 13.1251L7.82166 13.7142Z" fill="#E24343"/>
</svg>
