<svg width="16" height="16" viewBox="0 0 16 16" fill="none" xmlns="http://www.w3.org/2000/svg">
<path d="M7.36108 13.9064L7.36129 13.9062L9.38762 11.8799L9.10059 11.5928L7.07426 13.6192C5.84149 14.8519 3.75118 14.9896 2.38277 13.6192L7.36108 13.9064ZM7.36108 13.9064C5.90638 15.3628 3.54914 15.3618 2.09163 13.906C0.634938 12.451 0.634638 10.094 2.09183 8.63676L4.11816 6.61043L7.36108 13.9064ZM10.3335 6.39803C10.3335 6.39799 10.3334 6.39795 10.3334 6.39792L10.3335 6.39803ZM10.3335 6.39803C10.3336 6.39818 10.3338 6.39832 10.3339 6.39847L10.3335 6.39803ZM9.63082 12.1231C9.63066 12.1229 9.63049 12.1228 9.63033 12.1226L9.63082 12.1231ZM8.63856 2.09199L8.63892 2.09163C10.0939 0.634938 12.451 0.634638 13.9082 2.09183C15.3634 3.54898 15.3633 5.90639 13.908 7.36345L11.8818 9.38957L11.5909 9.09863L13.6172 7.0723C14.8503 5.83928 14.9874 3.75096 13.6172 2.38082C12.2488 1.01043 10.1585 1.14805 8.92574 2.38082L6.89941 4.40715L6.61053 4.11827L8.63856 2.09199ZM5.86829 9.80376L9.8053 5.86849L10.0911 6.15497L6.15527 10.0907L5.86829 9.80376ZM6.39847 10.3339L6.39813 10.3336L6.39847 10.3339Z" fill="white" stroke="#E24343"/>
</svg>
