<svg width="30" height="31" viewBox="0 0 30 31" fill="none" xmlns="http://www.w3.org/2000/svg">
<path fill-rule="evenodd" clip-rule="evenodd" d="M15 29C22.4557 29 28.5 22.9557 28.5 15.5C28.5 8.04425 22.4557 2 15 2C7.54425 2 1.5 8.04425 1.5 15.5C1.5 22.9557 7.54425 29 15 29ZM15 30.5C23.2845 30.5 30 23.7845 30 15.5C30 7.2155 23.2845 0.5 15 0.5C6.7155 0.5 0 7.2155 0 15.5C0 23.7845 6.7155 30.5 15 30.5Z" fill="#757575"/>
<path d="M20.7471 6.72725C22.2673 7.901 23.2498 9.6725 23.2498 11.9675C23.2498 14.6075 21.7843 16.433 20.1073 17.5512C18.9621 18.3162 17.6638 18.7962 16.4998 19.0467V20C16.4998 20.3978 16.3418 20.7794 16.0605 21.0607C15.7792 21.342 15.3977 21.5 14.9998 21.5C14.602 21.5 14.2205 21.342 13.9392 21.0607C13.6579 20.7794 13.4998 20.3978 13.4998 20V17.75C13.4999 17.3685 13.6452 17.0014 13.9063 16.7233C14.1674 16.4452 14.5246 16.277 14.9053 16.253C15.8818 16.1915 17.3053 15.815 18.4423 15.056C19.5403 14.3232 20.2498 13.3325 20.2498 11.9675C20.2498 10.622 19.7143 9.71975 18.9133 9.101C18.0636 8.44475 16.8313 8.054 15.4528 8.00525C14.0803 7.9565 12.6981 8.25275 11.6256 8.81525C10.5531 9.3785 9.9111 10.1322 9.7056 10.9625C9.6594 11.1549 9.57561 11.3362 9.45905 11.496C9.34249 11.6558 9.19547 11.7911 9.02644 11.8938C8.85742 11.9966 8.66973 12.065 8.47419 12.0949C8.27864 12.1249 8.0791 12.1158 7.88706 12.0684C7.69502 12.0209 7.51427 11.9359 7.35521 11.8183C7.19615 11.7006 7.06193 11.5527 6.96027 11.383C6.85861 11.2133 6.79153 11.0252 6.76288 10.8294C6.73423 10.6337 6.74459 10.4342 6.79334 10.2425C7.26359 8.34125 8.64734 6.9905 10.2321 6.1595C11.8176 5.327 13.7263 4.94225 15.5593 5.00675C17.3871 5.072 19.2763 5.59175 20.7471 6.72725ZM13.4998 24.5C13.4998 24.1022 13.6579 23.7206 13.9392 23.4393C14.2205 23.158 14.602 23 14.9998 23C15.3977 23 15.7792 23.158 16.0605 23.4393C16.3418 23.7206 16.4998 24.1022 16.4998 24.5C16.4998 24.8978 16.3418 25.2794 16.0605 25.5607C15.7792 25.842 15.3977 26 14.9998 26C14.602 26 14.2205 25.842 13.9392 25.5607C13.6579 25.2794 13.4998 24.8978 13.4998 24.5Z" fill="#FCAF17"/>
</svg>
