<svg width="16" height="16" viewBox="0 0 16 16" fill="none" xmlns="http://www.w3.org/2000/svg">
<path d="M2.45437 16L9.7271 16C10.5271 16 11.1816 15.3455 11.1816 14.5455L11.1816 13.0909C11.1816 12.6909 10.8544 12.3636 10.4544 12.3636C10.0544 12.3636 9.7271 12.6909 9.7271 13.0909L9.7271 13.8182L2.45437 13.8182L2.45437 2.18182L9.7271 2.18182L9.7271 2.90909C9.7271 3.30909 10.0544 3.63637 10.4544 3.63637C10.8544 3.63637 11.1816 3.30909 11.1816 2.90909L11.1816 1.45455C11.1816 0.654547 10.5271 2.08855e-06 9.7271 2.01861e-06L2.45437 1.3828e-06C1.65437 1.31287e-06 0.999825 0.654547 0.999825 1.45455L0.999824 14.5455C0.999824 15.3455 1.65437 16 2.45437 16Z" fill="#757575"/>
<path d="M13.2194 8.7051V7.43237C11.6049 7.43237 10.5358 7.92692 9.72852 9.01783C10.0558 7.46146 10.9576 5.91237 13.2194 5.59964V4.36328L15.5467 6.53055L13.2194 8.7051Z" fill="#757575"/>
<path d="M6.93115 7.59937V5.48834C7.3787 5.59132 7.74233 5.82302 7.91017 6.13195C8.02205 6.36365 8.32974 6.44088 8.58148 6.3379C8.83323 6.23493 8.91714 5.95174 8.80526 5.72004C8.46959 5.10218 7.7703 4.69028 6.95911 4.56156V4.09816C6.95911 3.84072 6.73534 3.63477 6.45562 3.63477C6.1759 3.63477 5.95213 3.84072 5.95213 4.09816V4.56156C4.7773 4.74177 3.91016 5.53983 3.91016 6.49237C3.91016 7.88255 5.14094 8.26871 5.95213 8.39744V10.5085C5.53255 10.4055 5.1689 10.1995 5.00107 9.8906C4.86121 9.6589 4.58148 9.58167 4.32974 9.71039C4.07799 9.83911 3.99409 10.0965 4.13395 10.3282C4.46961 10.8946 5.16891 11.3065 5.95213 11.4352V11.8986C5.95213 12.1561 6.1759 12.362 6.45562 12.362C6.73534 12.362 6.95911 12.1561 6.95911 11.8986V11.4352C8.13394 11.255 9.00106 10.457 9.00106 9.50443C8.97309 8.7836 8.60947 7.9083 6.93115 7.59937ZM5.95213 7.4449C5.16891 7.29044 4.88918 7.00725 4.88918 6.46662C4.88918 6.00323 5.33674 5.61707 5.95213 5.4626V7.4449ZM6.93115 10.5085V8.5519C7.99408 8.80934 7.99408 9.29848 7.99408 9.50443C7.99408 9.96783 7.54653 10.354 6.93115 10.5085Z" fill="#757575"/>
</svg>
