<svg width="16" height="16" viewBox="0 0 16 16" fill="none" xmlns="http://www.w3.org/2000/svg">
<path d="M7.59301 15.0149C8.9276 15.0149 10.2864 14.6267 11.4754 13.8502C11.9122 13.559 12.3004 13.2436 12.6644 12.8796C12.7857 12.734 12.7857 12.5399 12.6644 12.3943C12.5188 12.273 12.3247 12.273 12.1791 12.3943C11.8637 12.734 11.4997 13.0252 11.1115 13.2921C8.56362 14.9906 5.1665 14.6024 3.05543 12.3943C2.93411 12.2488 2.71572 12.2488 2.57013 12.3943C2.42454 12.5157 2.42454 12.734 2.57013 12.8796C3.90471 14.287 5.7246 15.0149 7.59301 15.0149Z" fill="#FCAF17"/>
<path d="M3.66814 2.15558C3.27989 2.42249 2.89164 2.71366 2.55193 3.05336C2.43061 3.17468 2.43061 3.39306 2.55193 3.53864C2.62473 3.61143 2.69752 3.6357 2.79458 3.6357C2.89164 3.6357 2.96444 3.61143 3.03723 3.53864C3.32842 3.22321 3.66814 2.9563 4.03211 2.71366C6.53142 1.06369 9.88 1.40339 11.9911 3.49011C12.1124 3.61143 12.3308 3.61143 12.4764 3.49011C12.5977 3.36879 12.5977 3.15041 12.4764 3.00483C10.1469 0.699723 6.43436 0.335759 3.66814 2.15558Z" fill="#FCAF17"/>
<path d="M3.83461 9.27753H5.12577C5.09986 9.68038 4.98327 10.038 4.77599 10.3504C4.57159 10.6629 4.28515 10.9068 3.91666 11.0822C3.55105 11.2576 3.11058 11.3453 2.59527 11.3453C2.19223 11.3453 1.83094 11.2795 1.51139 11.1479C1.19184 11.0136 0.918349 10.8218 0.690921 10.5724C0.466372 10.323 0.295081 10.0216 0.177048 9.66805C0.0590162 9.31452 0 8.91852 0 8.48003V8.06485C0 7.62636 0.0604556 7.23036 0.181367 6.87683C0.305157 6.52056 0.480766 6.21773 0.708194 5.96834C0.938501 5.71896 1.21343 5.52712 1.53298 5.39283C1.85253 5.25855 2.20951 5.19141 2.60391 5.19141C3.12786 5.19141 3.56976 5.28184 3.92961 5.46272C4.29235 5.64359 4.57303 5.89298 4.77167 6.21088C4.97319 6.52878 5.0941 6.89053 5.13441 7.29613H3.83893C3.82453 7.05496 3.77416 6.85079 3.68779 6.68362C3.60143 6.51371 3.47044 6.38627 3.29483 6.30132C3.1221 6.21362 2.89179 6.16977 2.60391 6.16977C2.388 6.16977 2.19943 6.20814 2.03822 6.28488C1.877 6.36161 1.7417 6.47808 1.6323 6.63429C1.5229 6.7905 1.44086 6.98782 1.38616 7.22625C1.33434 7.46193 1.30843 7.73872 1.30843 8.05662V8.48003C1.30843 8.78971 1.3329 9.0624 1.38184 9.29808C1.43078 9.53103 1.50563 9.72834 1.60639 9.89003C1.71003 10.049 1.84246 10.1696 2.00367 10.2518C2.16776 10.3313 2.36496 10.371 2.59527 10.371C2.86588 10.371 3.08899 10.3299 3.2646 10.2477C3.44021 10.1655 3.57408 10.0435 3.6662 9.88181C3.7612 9.72012 3.81734 9.51869 3.83461 9.27753Z" fill="#FCAF17"/>
<path d="M10.6989 8.13062V8.41426C10.6989 8.86919 10.6341 9.27753 10.5046 9.63928C10.375 10.001 10.1922 10.3093 9.95617 10.5642C9.7201 10.8163 9.43798 11.0095 9.10979 11.1438C8.78448 11.2781 8.42319 11.3453 8.02591 11.3453C7.63151 11.3453 7.27022 11.2781 6.94203 11.1438C6.61672 11.0095 6.33459 10.8163 6.09565 10.5642C5.85671 10.3093 5.67102 10.001 5.53859 9.63928C5.40905 9.27753 5.34427 8.86919 5.34427 8.41426V8.13062C5.34427 7.67295 5.40905 7.26461 5.53859 6.9056C5.66814 6.54385 5.85095 6.23555 6.08701 5.98068C6.32596 5.72581 6.60808 5.53123 6.93339 5.39695C7.26158 5.26266 7.62287 5.19552 8.01727 5.19552C8.41455 5.19552 8.77585 5.26266 9.10116 5.39695C9.42934 5.53123 9.71147 5.72581 9.94753 5.98068C10.1865 6.23555 10.3707 6.54385 10.5003 6.9056C10.6327 7.26461 10.6989 7.67295 10.6989 8.13062ZM9.39048 8.41426V8.1224C9.39048 7.8045 9.36025 7.52496 9.2998 7.2838C9.23934 7.04263 9.1501 6.83983 9.03206 6.6754C8.91403 6.51097 8.77009 6.38764 8.60024 6.30543C8.43039 6.22047 8.23606 6.17799 8.01727 6.17799C7.79848 6.17799 7.60416 6.22047 7.43431 6.30543C7.26734 6.38764 7.12483 6.51097 7.0068 6.6754C6.89165 6.83983 6.80384 7.04263 6.74339 7.2838C6.68293 7.52496 6.6527 7.8045 6.6527 8.1224V8.41426C6.6527 8.72942 6.68293 9.00896 6.74339 9.25286C6.80384 9.49403 6.89309 9.6982 7.01112 9.86537C7.12915 10.0298 7.27309 10.1545 7.44295 10.2395C7.6128 10.3244 7.80712 10.3669 8.02591 10.3669C8.2447 10.3669 8.43902 10.3244 8.60887 10.2395C8.77873 10.1545 8.92123 10.0298 9.03638 9.86537C9.15154 9.6982 9.23934 9.49403 9.2998 9.25286C9.36025 9.00896 9.39048 8.72942 9.39048 8.41426Z" fill="#FCAF17"/>
<path d="M13.1197 11.263H11.7508L11.7595 10.3011H13.1197C13.4594 10.3011 13.7459 10.2285 13.9791 10.0832C14.2122 9.93525 14.3879 9.72012 14.5059 9.43785C14.6268 9.15557 14.6873 8.81438 14.6873 8.41426V8.1224C14.6873 7.81546 14.6527 7.54552 14.5836 7.31257C14.5174 7.07963 14.4181 6.88368 14.2857 6.72473C14.1532 6.56578 13.9906 6.44657 13.7977 6.36709C13.6048 6.28488 13.3831 6.24377 13.1327 6.24377H11.7249V5.27773H13.1327C13.553 5.27773 13.9373 5.34625 14.2857 5.48327C14.6369 5.61756 14.9406 5.81076 15.1968 6.06289C15.453 6.31502 15.6502 6.61648 15.7884 6.96727C15.9295 7.31531 16 7.7031 16 8.13062V8.41426C16 8.83904 15.9295 9.22683 15.7884 9.57761C15.6502 9.9284 15.453 10.2299 15.1968 10.482C14.9435 10.7314 14.6397 10.9246 14.2857 11.0616C13.9344 11.1959 13.5458 11.263 13.1197 11.263ZM12.4849 5.27773V11.263H11.1895V5.27773H12.4849Z" fill="#FCAF17"/>
</svg>
