<svg width="16" height="16" viewBox="0 0 16 16" fill="none" xmlns="http://www.w3.org/2000/svg">
<path d="M7.15277 2.66699C7.64622 2.66699 8.02245 2.81502 8.28153 3.11109C8.54673 3.40099 8.67935 3.87282 8.67935 4.52664V6.80263C8.67935 6.98151 8.62385 7.12028 8.51282 7.219C8.40795 7.31152 8.26918 7.35778 8.0965 7.35778C7.92993 7.35778 7.79116 7.31152 7.68013 7.219C7.5753 7.12028 7.52284 6.98151 7.52284 6.80263V4.52664C7.52284 4.1874 7.46119 3.94687 7.33781 3.80499C7.22062 3.65696 7.03866 3.58294 6.79194 3.58294C6.48972 3.58294 6.24915 3.6878 6.07027 3.89749C5.89144 4.10104 5.802 4.38171 5.802 4.73947V6.80263C5.802 6.98151 5.74646 7.12028 5.63543 7.219C5.5306 7.31152 5.3949 7.35778 5.22834 7.35778C5.06182 7.35778 4.92304 7.31152 4.81201 7.219C4.70098 7.12028 4.64549 6.98151 4.64549 6.80263V4.52664C4.64549 4.1874 4.5838 3.94687 4.46041 3.80499C4.34323 3.65696 4.16127 3.58294 3.91454 3.58294C3.61232 3.58294 3.37178 3.6878 3.19291 3.89749C3.0202 4.10104 2.93385 4.38171 2.93385 4.73947V6.80263C2.93385 6.98151 2.87834 7.12028 2.76731 7.219C2.65629 7.31152 2.51751 7.35778 2.35097 7.35778C2.18444 7.35778 2.04566 7.31152 1.93463 7.219C1.82977 7.12028 1.77734 6.98151 1.77734 6.80263V3.22211C1.77734 3.04941 1.83286 2.9168 1.94388 2.82428C2.05491 2.73175 2.19369 2.6855 2.36022 2.6855C2.52059 2.6855 2.65012 2.73175 2.74881 2.82428C2.85366 2.91063 2.90609 3.03707 2.90609 3.20361V3.42566C3.04796 3.17894 3.23608 2.99081 3.47047 2.86128C3.711 2.73175 3.98551 2.66699 4.29389 2.66699C4.97238 2.66699 5.42573 2.95072 5.65394 3.51818C5.78964 3.25912 5.99011 3.05249 6.25535 2.89829C6.52054 2.74409 6.81968 2.66699 7.15277 2.66699Z" fill="#F206CC"/>
<path d="M11.9185 7.37629C11.4559 7.37629 11.0488 7.28065 10.6972 7.08946C10.3518 6.89827 10.0835 6.6238 9.89225 6.26604C9.70106 5.90828 9.60547 5.49196 9.60547 5.01702C9.60547 4.54208 9.70106 4.12883 9.89225 3.77724C10.0835 3.41949 10.3518 3.14501 10.6972 2.9538C11.0488 2.7626 11.4559 2.66699 11.9185 2.66699C12.3811 2.66699 12.7851 2.7626 13.1305 2.9538C13.482 3.14501 13.7504 3.41949 13.9354 3.77724C14.1266 4.12883 14.2222 4.54208 14.2222 5.01702C14.2222 5.49196 14.1266 5.90828 13.9354 6.26604C13.7504 6.6238 13.482 6.89827 13.1305 7.08946C12.7851 7.28065 12.3811 7.37629 11.9185 7.37629ZM11.9092 6.47882C12.2855 6.47882 12.5723 6.35548 12.7696 6.10875C12.967 5.86203 13.0657 5.49811 13.0657 5.01702C13.0657 4.54208 12.967 4.18124 12.7696 3.93451C12.5723 3.68163 12.2886 3.55519 11.9185 3.55519C11.5484 3.55519 11.2616 3.68163 11.058 3.93451C10.8606 4.18124 10.762 4.54208 10.762 5.01702C10.762 5.49811 10.8606 5.86203 11.058 6.10875C11.2554 6.35548 11.5391 6.47882 11.9092 6.47882Z" fill="#F206CC"/>
<path d="M7.15277 9.27734C7.64622 9.27734 8.02245 9.4254 8.28153 9.72146C8.54673 10.0114 8.67935 10.4832 8.67935 11.137V13.413C8.67935 13.5919 8.62385 13.7307 8.51282 13.8294C8.40795 13.9219 8.26918 13.9681 8.0965 13.9681C7.92993 13.9681 7.79116 13.9219 7.68013 13.8294C7.5753 13.7307 7.52284 13.5919 7.52284 13.413V11.137C7.52284 10.7978 7.46119 10.5572 7.33781 10.4154C7.22062 10.2673 7.03866 10.1933 6.79194 10.1933C6.48972 10.1933 6.24915 10.2982 6.07027 10.5079C5.89144 10.7114 5.802 10.9921 5.802 11.3498V13.413C5.802 13.5919 5.74646 13.7307 5.63543 13.8294C5.5306 13.9219 5.3949 13.9681 5.22834 13.9681C5.06182 13.9681 4.92304 13.9219 4.81201 13.8294C4.70098 13.7307 4.64549 13.5919 4.64549 13.413V11.137C4.64549 10.7978 4.5838 10.5572 4.46041 10.4154C4.34323 10.2673 4.16127 10.1933 3.91454 10.1933C3.61232 10.1933 3.37178 10.2982 3.19291 10.5079C3.0202 10.7114 2.93385 10.9921 2.93385 11.3498V13.413C2.93385 13.5919 2.87834 13.7307 2.76731 13.8294C2.65629 13.9219 2.51751 13.9681 2.35097 13.9681C2.18444 13.9681 2.04566 13.9219 1.93463 13.8294C1.82977 13.7307 1.77734 13.5919 1.77734 13.413V9.83249C1.77734 9.65977 1.83286 9.52715 1.94388 9.43463C2.05491 9.34211 2.19369 9.29586 2.36022 9.29586C2.52059 9.29586 2.65012 9.34211 2.74881 9.43463C2.85366 9.52099 2.90609 9.64746 2.90609 9.81398V10.036C3.04796 9.78931 3.23608 9.6012 3.47047 9.47166C3.711 9.34211 3.98551 9.27734 4.29389 9.27734C4.97238 9.27734 5.42573 9.56109 5.65394 10.1286C5.78964 9.86947 5.99011 9.66285 6.25535 9.50868C6.52054 9.35447 6.81968 9.27734 7.15277 9.27734Z" fill="#F206CC"/>
<path d="M11.9185 13.9867C11.4559 13.9867 11.0488 13.8911 10.6972 13.6998C10.3518 13.5086 10.0835 13.2342 9.89225 12.8764C9.70106 12.5186 9.60547 12.1023 9.60547 11.6274C9.60547 11.1524 9.70106 10.7392 9.89225 10.3876C10.0835 10.0299 10.3518 9.75536 10.6972 9.56417C11.0488 9.37298 11.4559 9.27734 11.9185 9.27734C12.3811 9.27734 12.7851 9.37298 13.1305 9.56417C13.482 9.75536 13.7504 10.0299 13.9354 10.3876C14.1266 10.7392 14.2222 11.1524 14.2222 11.6274C14.2222 12.1023 14.1266 12.5186 13.9354 12.8764C13.7504 13.2342 13.482 13.5086 13.1305 13.6998C12.7851 13.8911 12.3811 13.9867 11.9185 13.9867ZM11.9092 13.0892C12.2855 13.0892 12.5723 12.9658 12.7696 12.7191C12.967 12.4724 13.0657 12.1085 13.0657 11.6274C13.0657 11.1524 12.967 10.7916 12.7696 10.5449C12.5723 10.292 12.2886 10.1656 11.9185 10.1656C11.5484 10.1656 11.2616 10.292 11.058 10.5449C10.8606 10.7916 10.762 11.1524 10.762 11.6274C10.762 12.1085 10.8606 12.4724 11.058 12.7191C11.2554 12.9658 11.5391 13.0892 11.9092 13.0892Z" fill="#F206CC"/>
</svg>
