<svg width="16" height="16" viewBox="0 0 16 16" fill="none" xmlns="http://www.w3.org/2000/svg">
<path d="M15.9775 13.5853C15.9775 13.5853 15.5781 12.6466 15.5781 11.8876C15.5781 11.608 15.5581 9.11129 14.5194 8.13259C14.1399 7.77307 12.3622 7.074 12.0227 6.93419C11.8829 6.87427 11.7031 6.95416 11.6432 7.09398C11.5833 7.23379 11.6632 7.41355 11.803 7.47347C12.6419 7.79305 13.9002 8.3523 14.12 8.55203C14.7192 9.13126 14.9988 10.6892 14.9988 11.8876C14.9988 12.7664 15.4183 13.7651 15.4382 13.805C15.4782 13.9049 15.598 13.9848 15.6979 13.9848C15.7379 13.9848 15.7778 13.9848 15.8178 13.9648C15.9776 13.8849 16.0375 13.7251 15.9775 13.5853Z" fill="#757575"/>
<path d="M12.5038 8.6498C12.324 8.56991 12.1642 8.49001 12.0244 8.3502C11.7248 8.0506 11.545 7.89081 11.4052 7.751V5.55393H12.0843C13.3427 5.55393 14.3614 4.53529 14.3614 3.27696C14.3614 2.01864 13.3427 1 12.0843 1H2.27705C1.01868 1 0 2.01864 0 3.27696C0 4.53529 1.01868 5.55393 2.27705 5.55393H2.95617V11.506C2.95617 12.3848 3.67524 13.1039 4.5541 13.1039H9.80729C10.4664 13.1039 11.0457 12.6844 11.2854 12.1052C11.6649 12.5246 12.1842 12.8242 12.8434 13.004C12.8633 13.004 12.9033 13.024 12.9233 13.024C13.0431 13.024 13.1629 12.9441 13.2029 12.8242C13.2428 12.6644 13.1629 12.5246 13.0031 12.4647C11.2654 11.9854 11.1855 10.727 11.1456 10.3076C11.1256 10.1678 11.0856 10.028 11.0057 9.90812C10.9458 9.80826 10.806 9.6285 10.6462 9.42876C10.2467 8.88948 9.5676 7.97071 9.42778 7.65113C9.24802 7.27164 9.32791 7.19174 9.46773 7.09188C9.66747 6.95206 9.76734 6.97204 10.2267 7.41145C10.6063 7.77097 10.7461 7.93076 10.9258 8.11052C11.0856 8.27031 11.2654 8.43009 11.605 8.78961C11.8047 8.98935 12.0244 9.08922 12.2242 9.18908C12.4838 9.30892 12.7235 9.42876 12.9832 9.72836C13.083 9.8482 13.2628 9.8482 13.3827 9.74834C13.5025 9.64847 13.5025 9.46871 13.4026 9.34887C13.103 8.9494 12.7635 8.78961 12.5038 8.6498ZM4.53413 12.1451C4.19457 12.1252 3.9349 11.8455 3.9349 11.506V3.57656H4.53413V12.1451ZM10.4664 6.83222C10.1269 6.51265 9.70742 6.23302 9.16812 6.59254C8.52895 7.01198 8.82856 7.63116 8.92843 7.87084C9.08822 8.21039 9.62752 8.9494 10.2068 9.74834C10.3066 9.88815 10.3865 10.008 10.4664 10.0879V11.486C10.4664 11.8455 10.1668 12.1252 9.82727 12.1252H6.7113V3.57656H7.3305V6.4727C7.3305 6.73236 7.55022 6.95206 7.80988 6.95206H8.42908C8.68874 6.95206 8.90846 6.73236 8.90846 6.4727V3.57656H10.4864V6.83222H10.4664ZM7.88977 6.37284V3.57656H8.32921V6.37284H7.88977ZM8.60884 2.99734H7.61014H2.29702C2.13723 2.99734 2.01739 3.11718 2.01739 3.27696C2.01739 3.43675 2.13723 3.55659 2.29702 3.55659H2.97614V4.59521H2.29702C1.57795 4.59521 0.978733 3.99601 0.978733 3.27696C0.978733 2.55792 1.57795 1.95872 2.29702 1.95872H12.1043C12.8234 1.95872 13.4226 2.55792 13.4226 3.27696C13.4226 3.99601 12.8234 4.59521 12.1043 4.59521H11.4252V3.55659H12.1043C12.2641 3.55659 12.3839 3.43675 12.3839 3.27696C12.3839 3.11718 12.2641 2.99734 12.1043 2.99734H8.60884Z" fill="#757575"/>
<path d="M11.2073 13.0036C11.0675 12.9437 10.8877 13.0036 10.8278 13.1434C10.7679 13.2832 10.8278 13.463 10.9676 13.5229C11.3671 13.7027 11.5269 14.1621 11.5269 14.1621C11.5669 14.2819 11.6867 14.3618 11.8066 14.3618C11.8265 14.3618 11.8665 14.3618 11.8865 14.3418C12.0462 14.3019 12.1261 14.1421 12.0662 13.9823C12.0662 13.9623 11.8465 13.2832 11.2073 13.0036Z" fill="#757575"/>
<path d="M7.60972 7.89062C7.44992 7.89062 7.33008 8.01047 7.33008 8.17025V11.2661C7.33008 11.4259 7.44992 11.5458 7.60972 11.5458C7.76951 11.5458 7.88936 11.4259 7.88936 11.2661V8.17025C7.88936 8.01047 7.74954 7.89062 7.60972 7.89062Z" fill="#757575"/>
<path d="M8.40854 7.89062C8.24875 7.89062 8.12891 8.01047 8.12891 8.17025V9.32871C8.12891 9.4885 8.24875 9.60834 8.40854 9.60834C8.56834 9.60834 8.68818 9.4885 8.68818 9.32871V8.17025C8.68818 8.01047 8.56834 7.89062 8.40854 7.89062Z" fill="#757575"/>
</svg>
