<svg width="16" height="16" viewBox="0 0 16 16" fill="none" xmlns="http://www.w3.org/2000/svg">
<path d="M14.7807 4.29875C12.5401 0.917873 7.95872 -0.0223714 4.57772 2.21821C3.39737 2.99841 2.47709 4.0987 1.89692 5.39903C1.77688 5.67911 1.89692 6.0192 2.17701 6.13923C2.45709 6.25926 2.79718 6.13923 2.91722 5.85915C3.39736 4.75887 4.1776 3.83863 5.1979 3.15845C8.07875 1.25796 11.9599 2.03816 13.8605 4.91891C15.761 7.79966 14.9808 11.6807 12.0999 13.5812C9.21909 15.4816 5.33794 14.7014 3.43738 11.8207C2.97724 11.1205 2.63714 10.3603 2.45708 9.62013L2.91722 10.1203C3.11728 10.3403 3.47739 10.3603 3.69745 10.1603C3.91752 9.96022 3.93753 9.60012 3.73747 9.38007L2.15699 7.61961C2.13699 7.5996 2.11698 7.5796 2.09698 7.5796L2.07698 7.55959C1.95694 7.47957 1.8169 7.41956 1.67686 7.43956C1.49681 7.45957 1.33675 7.55959 1.25673 7.71964L0.0763836 9.80018C-0.0836639 10.0602 0.0163609 10.4003 0.296444 10.5604C0.376468 10.6004 0.476502 10.6404 0.576532 10.6404C0.776592 10.6404 0.956638 10.5404 1.05667 10.3603L1.35676 9.82018C1.55682 10.7204 1.95694 11.6206 2.4971 12.4609C3.91752 14.6014 6.25821 15.7617 8.65893 15.7617C10.0593 15.7617 11.4598 15.3616 12.7201 14.5414C16.0811 12.2608 17.0214 7.67963 14.7807 4.29875Z" fill="#757575"/>
<path d="M8.63945 14.1373C9.73978 14.1373 10.8601 13.8172 11.8404 13.1771C12.2005 12.937 12.5206 12.6769 12.8207 12.3768C12.9207 12.2568 12.9207 12.0968 12.8207 11.9767C12.7006 11.8767 12.5406 11.8767 12.4206 11.9767C12.1605 12.2568 11.8604 12.4969 11.5403 12.7169C9.43969 14.1173 6.63886 13.7972 4.89835 11.9767C4.79832 11.8567 4.61827 11.8567 4.49823 11.9767C4.37819 12.0768 4.37819 12.2568 4.49823 12.3768C5.59855 13.5371 7.099 14.1373 8.63945 14.1373Z" fill="#757575"/>
<path d="M5.43866 3.53868C5.11857 3.75874 4.79846 3.9988 4.51838 4.27887C4.41835 4.3789 4.41835 4.55894 4.51838 4.67898C4.5784 4.73899 4.63842 4.759 4.71844 4.759C4.79846 4.759 4.85848 4.73899 4.9185 4.67898C5.15857 4.41891 5.43866 4.19885 5.73875 3.9988C7.79936 2.63845 10.5602 2.91852 12.3007 4.63896C12.4007 4.73899 12.5808 4.73899 12.7008 4.63896C12.8008 4.53894 12.8008 4.35889 12.7008 4.23886C10.7802 2.33837 7.71933 2.03829 5.43866 3.53868Z" fill="#757575"/>
<path d="M4.90609 9.19079C5.89645 9.70665 7.1021 9.67225 8.60917 9.1564L10.3746 10.0505C9.94401 10.1193 9.51342 10.1537 9.12589 10.0849C8.78141 10.0162 8.43693 10.1881 8.39388 10.4632C8.30776 10.7383 8.52306 11.0135 8.86753 11.0479C9.12588 11.0823 9.38424 11.1166 9.68565 11.1166C10.3746 11.1166 11.1066 10.9791 11.7094 10.7384L12.2692 11.0479C12.3553 11.1166 12.4845 11.1166 12.6137 11.1166C12.829 11.1166 13.0012 11.0479 13.1304 10.8759C13.3026 10.6352 13.2165 10.3257 12.9581 10.1881L12.7429 10.0849C13.0873 9.77542 13.2596 9.43152 13.2596 9.08762C13.2596 8.64055 12.9581 8.22787 12.4414 7.95275C11.1927 7.29934 9.90095 7.54007 8.73835 7.98714L6.97293 7.09299C7.40352 7.02421 7.79105 6.98983 8.17858 7.05861C8.52305 7.093 8.82447 6.92104 8.91059 6.68031C8.99671 6.40519 8.73835 6.16446 8.43694 6.09568C7.53269 5.95812 6.54234 6.09568 5.68115 6.43958L5.12138 6.13007C4.81997 5.99251 4.43244 6.06129 4.2602 6.26763C4.08796 6.50836 4.17408 6.81788 4.43243 6.95544L4.64773 7.05861C4.30326 7.36812 4.13102 7.71202 4.13102 8.05592C4.08796 8.53738 4.38938 8.91567 4.90609 9.19079ZM11.7094 8.8125C11.9678 8.95006 11.9678 9.05323 11.9678 9.08762C11.9678 9.19079 11.8817 9.36275 11.6664 9.5347L9.98707 8.67494C10.633 8.50299 11.1927 8.50299 11.7094 8.8125ZM5.63809 7.60885L7.27434 8.4686C6.58539 8.60616 6.02563 8.57177 5.55198 8.36543C5.29362 8.22787 5.29362 8.1247 5.29362 8.09031C5.33668 7.95275 5.4228 7.7808 5.63809 7.60885Z" fill="#757575"/>
</svg>
