<svg width="16" height="16" viewBox="0 0 16 16" fill="none" xmlns="http://www.w3.org/2000/svg">
<path d="M11.7422 8.03125V9.39045C12.142 9.29051 12.4218 9.03067 12.4218 8.71085C12.4218 8.31109 12.2419 8.13119 11.7422 8.03125Z" fill="#757575"/>
<path d="M10.4629 6.66834C10.4629 6.82825 10.4629 7.16805 11.1625 7.32796V5.96875C10.7627 6.06869 10.4629 6.34853 10.4629 6.66834Z" fill="#757575"/>
<path d="M11.4216 3.13281C8.90296 3.13281 6.84409 5.19161 6.84409 7.71013C6.84409 9.94882 8.4632 11.8077 10.582 12.2075C9.9224 12.9471 9.00291 13.3668 8.00345 13.3668C7.50373 13.3668 7.02399 13.2669 6.60422 13.087L7.12394 13.007C7.28385 12.987 7.38379 12.8271 7.3638 12.6672C7.34381 12.5073 7.18391 12.4074 7.02399 12.4274L5.70471 12.6472C5.68473 12.6472 5.66474 12.6472 5.64475 12.6672H5.62476C5.60477 12.6672 5.60477 12.6872 5.58478 12.6872C5.58478 12.6872 5.56479 12.6872 5.56479 12.7072C5.5448 12.7072 5.5448 12.7272 5.52481 12.7272L5.50482 12.7472C5.50482 12.7672 5.48483 12.7672 5.48483 12.7872C5.48483 12.7872 5.48483 12.7872 5.48483 12.8072C5.48483 12.8271 5.46484 12.8471 5.46484 12.8671C5.46484 12.8671 5.46484 12.8671 5.46484 12.8871C5.46484 12.9071 5.46484 12.9271 5.46484 12.9471V12.9671C5.46484 12.987 5.46484 12.987 5.46484 13.007V13.027C5.46484 13.047 5.46484 13.047 5.48483 13.067C5.48483 13.067 5.48483 13.067 5.48483 13.087L6.16446 14.3862C6.22443 14.4862 6.32438 14.5461 6.42432 14.5461C6.4643 14.5461 6.52426 14.5261 6.56424 14.5062C6.70416 14.4262 6.76413 14.2663 6.68418 14.1064L6.44431 13.6666C6.92405 13.8465 7.46375 13.9665 8.00345 13.9665C9.30274 13.9665 10.5021 13.3468 11.2617 12.3074C11.3216 12.3074 11.3616 12.3074 11.4216 12.3074C13.9402 12.3074 15.9991 10.2486 15.9991 7.73012C15.9991 5.19161 13.9402 3.13281 11.4216 3.13281ZM11.7414 9.9888V10.3086C11.7414 10.4685 11.6215 10.5884 11.4616 10.5884C11.3016 10.5884 11.1817 10.4685 11.1817 10.3086V9.96881C10.662 9.88886 10.2422 9.60902 10.0423 9.18927C9.96238 9.04935 10.0223 8.86946 10.1823 8.80949C10.3222 8.72954 10.5021 8.7895 10.562 8.94941C10.662 9.16928 10.9019 9.32919 11.2017 9.38915V7.93001C10.1623 7.73012 9.94239 7.15046 9.94239 6.67074C9.94239 6.03112 10.4821 5.51142 11.2017 5.39149V5.07168C11.2017 4.91177 11.3216 4.79184 11.4815 4.79184C11.6415 4.79184 11.7614 4.91177 11.7614 5.07168V5.39149C12.2611 5.47144 12.6809 5.73129 12.8808 6.13106C12.9607 6.27098 12.9008 6.45087 12.7608 6.53082C12.6209 6.61078 12.441 6.55081 12.3611 6.41089C12.2411 6.21101 12.0213 6.0511 11.7414 5.99114V7.45029C12.2611 7.53024 13.0007 7.7701 13.0007 8.70955C13.0007 9.32919 12.461 9.86887 11.7414 9.9888Z" fill="#757575"/>
<path d="M7.68436 10.99C6.92477 10.1105 6.46502 8.97117 6.46502 7.73189C6.46502 6.49262 6.92477 5.3333 7.68436 4.4738C7.72434 4.43382 7.70435 4.39385 7.68436 4.35387C7.0647 3.77421 6.28513 3.39443 5.44559 3.23452C6.10523 2.51495 7.02472 2.09519 8.00418 2.09519C8.50391 2.09519 8.96366 2.17514 9.38342 2.33505L8.94367 2.39502C8.78376 2.415 8.68381 2.57491 8.7038 2.71483C8.72379 2.85475 8.84372 2.95469 8.98364 2.95469C9.00363 2.95469 9.00364 2.95469 9.02363 2.95469L10.3029 2.75481C10.3229 2.75481 10.3229 2.75481 10.3429 2.73482C10.4229 2.71483 10.4628 2.65486 10.5028 2.5949C10.5428 2.51495 10.5428 2.415 10.5028 2.33505L9.90314 1.15574C9.82318 1.01582 9.66327 0.955858 9.52335 1.03581C9.38343 1.11576 9.32346 1.27567 9.40342 1.41559L9.58332 1.75539C9.10358 1.5755 8.54389 1.45557 7.98419 1.45557C6.70489 1.45557 5.50556 2.0752 4.74597 3.09461C4.56607 3.09461 4.38617 3.09461 4.22626 3.09461C1.9675 3.2745 0.148492 5.11343 0.00856876 7.3721C-0.151344 10.0305 1.9475 12.2493 4.58606 12.2493C5.74542 12.2493 6.84482 11.8295 7.66437 11.05C7.70434 11.0699 7.70435 11.01 7.68436 10.99ZM5.70544 9.97058C5.44559 10.0905 5.16574 10.1505 4.88589 10.1505C3.94641 10.1505 3.14685 9.45089 2.84701 8.49145H2.62713C2.46722 8.49145 2.34729 8.37152 2.34729 8.21161C2.34729 8.05171 2.46722 7.93178 2.62713 7.93178H2.74707C2.74707 7.87181 2.74707 7.79186 2.74707 7.73189C2.74707 7.67193 2.74707 7.59198 2.74707 7.53201H2.62713C2.46722 7.53201 2.34729 7.41208 2.34729 7.25217C2.34729 7.09227 2.46722 6.97234 2.62713 6.97234H2.84701C3.12686 6.0129 3.92642 5.31331 4.88589 5.31331C5.16574 5.31331 5.44559 5.37327 5.70544 5.4932C5.84537 5.55317 5.90534 5.73306 5.84537 5.87298C5.7854 6.0129 5.6055 6.07286 5.46557 6.0129C5.28567 5.93295 5.08578 5.89297 4.88589 5.89297C4.26623 5.89297 3.70654 6.33271 3.46667 6.97234H5.26568C5.4256 6.97234 5.54553 7.09227 5.54553 7.25217C5.54553 7.41208 5.4256 7.53201 5.26568 7.53201H3.32675C3.32675 7.59198 3.32675 7.67193 3.32675 7.73189C3.32675 7.79186 3.32675 7.87181 3.32675 7.93178H5.26568C5.4256 7.93178 5.54553 8.05171 5.54553 8.21161C5.54553 8.37152 5.4256 8.49145 5.26568 8.49145H3.46667C3.70654 9.13108 4.26623 9.57082 4.88589 9.57082C5.08578 9.57082 5.28567 9.53084 5.46557 9.45089C5.6055 9.39092 5.7854 9.45089 5.84537 9.59081C5.90534 9.73072 5.84537 9.89063 5.70544 9.97058Z" fill="#757575"/>
</svg>
