<svg width="16" height="16" viewBox="0 0 16 16" fill="none" xmlns="http://www.w3.org/2000/svg">
<path d="M0.13965 6.90748L4.18953 9.52084L5.68579 10.4784C5.72569 10.5183 5.78554 10.5183 5.84539 10.5183C5.90524 10.5183 5.94514 10.4984 6.00499 10.4784L15.8604 4.09461C15.9402 4.03476 16 3.95497 16 3.85522C16 3.75547 15.9601 3.67568 15.8604 3.61583L14.384 2.65826L11.8105 1.00246L10.3142 0.0448861C10.2145 -0.014962 10.0948 -0.014962 9.99501 0.0448861L0.13965 6.42869C0.0598498 6.48854 0 6.56834 0 6.66808C0 6.74788 0.0398996 6.84763 0.13965 6.90748ZM2.25436 5.71051L8.65835 1.56104C9.09726 1.80043 9.61596 1.92013 10.1347 1.92013C10.6534 1.92013 11.1721 1.80043 11.611 1.56104L13.6858 2.9176C13.4264 3.19689 13.2668 3.51608 13.2668 3.85522C13.2668 4.19436 13.4065 4.51355 13.6858 4.79284L7.30175 8.94231C6.44389 8.48348 5.20698 8.48348 4.34913 8.94231L2.27431 7.58575C2.53366 7.30646 2.69327 6.98727 2.69327 6.64813C2.67332 6.30899 2.53367 5.9898 2.25436 5.71051Z" fill="#757575"/>
<path d="M6.2438 5.60727C6.70265 5.90652 7.26125 5.88656 7.95951 5.58732L8.77746 6.10601C8.57796 6.14591 8.37846 6.16586 8.19891 6.12596C8.03931 6.08606 7.87971 6.18581 7.85976 6.3454C7.81986 6.505 7.91961 6.66459 8.07921 6.68454C8.19891 6.70449 8.31861 6.72444 8.45826 6.72444C8.77746 6.72444 9.11662 6.64464 9.39592 6.505L9.65527 6.68454C9.69517 6.72444 9.75502 6.72444 9.81487 6.72444C9.91462 6.72444 9.99442 6.68454 10.0543 6.58479C10.1341 6.44515 10.0942 6.2656 9.97447 6.18581L9.87472 6.12596C10.0343 5.94641 10.1141 5.74692 10.1141 5.54743C10.1141 5.28808 9.97447 5.04869 9.73507 4.88909C9.15652 4.51006 8.55801 4.6497 8.01936 4.90905L7.20141 4.39036C7.40091 4.35046 7.58046 4.33051 7.76001 4.37041C7.91961 4.39036 8.05926 4.29061 8.09916 4.15097C8.13906 3.99137 8.01936 3.85173 7.87971 3.81183C7.46076 3.73203 7.00191 3.81183 6.6029 4.01132L6.34355 3.83178C6.2039 3.75198 6.02435 3.79188 5.94455 3.91158C5.86475 4.05122 5.90465 4.23077 6.02435 4.31056L6.1241 4.37041C5.9645 4.54996 5.8847 4.74945 5.8847 4.94894C5.86475 5.22824 6.0044 5.44768 6.2438 5.60727ZM9.39592 5.38783C9.51562 5.46763 9.51562 5.52748 9.51562 5.54743C9.51562 5.60727 9.47572 5.70702 9.37597 5.80677L8.59791 5.30803C8.89717 5.20829 9.15652 5.20829 9.39592 5.38783ZM6.58295 4.6896L7.34106 5.18834C7.02185 5.26813 6.7625 5.24818 6.54305 5.12849C6.42335 5.04869 6.42335 4.98884 6.42335 4.96889C6.4433 4.8891 6.4832 4.78935 6.58295 4.6896Z" fill="#757575"/>
<path d="M15.5224 4.75636L5.82663 11.0404L0.460051 7.54927C0.3204 7.46948 0.140849 7.50937 0.0610485 7.62907C-0.0187519 7.76871 0.0211471 7.94826 0.140848 8.02806L5.66703 11.6189C5.70693 11.6588 5.76678 11.6588 5.82663 11.6588C5.88648 11.6588 5.92638 11.6389 5.98623 11.6189L15.8416 5.23514C15.9812 5.15535 16.0211 4.9758 15.9214 4.83616C15.8216 4.71646 15.6421 4.67656 15.5224 4.75636Z" fill="#757575"/>
<path d="M15.5224 5.91088L5.82663 12.1949L0.460051 8.70379C0.3204 8.624 0.140849 8.66389 0.0610485 8.78359C-0.0187519 8.92324 0.0211471 9.10278 0.140848 9.18258L5.66703 12.7735C5.70693 12.8134 5.76678 12.8134 5.82663 12.8134C5.88648 12.8134 5.92638 12.7934 5.98623 12.7735L15.8416 6.38966C15.9812 6.30986 16.0211 6.13032 15.9214 5.99067C15.8216 5.85103 15.6421 5.81113 15.5224 5.91088Z" fill="#757575"/>
<path d="M15.5224 7.04542L5.82663 13.3295L0.460051 9.83834C0.3204 9.75854 0.140849 9.79844 0.0610485 9.91813C-0.0187519 10.0578 0.0211471 10.2373 0.140848 10.3171L5.66703 13.908C5.70693 13.9479 5.76678 13.9479 5.82663 13.9479C5.88648 13.9479 5.92638 13.928 5.98623 13.908L15.8416 7.52421C15.9812 7.44441 16.0211 7.26486 15.9214 7.12522C15.8216 7.00552 15.6421 6.96562 15.5224 7.04542Z" fill="#757575"/>
<path d="M15.5224 8.18605L5.82663 14.4701L0.460051 10.979C0.3204 10.8992 0.140849 10.9391 0.0610485 11.0588C-0.0187519 11.1984 0.0211471 11.3779 0.140848 11.4577L5.66703 15.0486C5.70693 15.0885 5.76678 15.0885 5.82663 15.0885C5.88648 15.0885 5.92638 15.0686 5.98623 15.0486L15.8416 8.66483C15.9812 8.58504 16.0211 8.40549 15.9214 8.26585C15.8216 8.14615 15.6421 8.10625 15.5224 8.18605Z" fill="#757575"/>
</svg>
