<svg width="16" height="16" viewBox="0 0 16 16" fill="none" xmlns="http://www.w3.org/2000/svg">
<g clip-path="url(#clip0_25152_212606)">
<path fill-rule="evenodd" clip-rule="evenodd" d="M0 6.22266H1.08627L1.99284 8.68764L2.76711 6.64315C2.78182 6.56259 2.76875 6.53842 2.73608 6.47078C2.69524 6.38858 2.6495 6.30482 2.60377 6.22426H3.41397C3.36824 6.39022 3.29636 6.57228 3.23592 6.74304L2.18723 9.61564C1.90137 9.56085 1.58447 9.45451 1.33782 9.2322C1.15324 9.06623 1.08627 8.87934 0.994789 8.65218L0.122512 6.46594C0.0882072 6.37569 0.0457382 6.29997 0 6.22266ZM4.32871 7.37781V9.13875C4.32871 9.20963 4.3483 9.22091 4.3957 9.2805L4.60642 9.54312H3.58712C3.64266 9.45771 3.69983 9.37555 3.76027 9.29503C3.80274 9.22571 3.82234 9.19994 3.82234 9.12262V6.66088L3.53485 6.22266H4.59336L6.30522 8.3042V6.64315C6.30522 6.56259 6.29052 6.53842 6.24477 6.47078C6.18925 6.38858 6.13044 6.30482 6.07003 6.22426H7.08931L6.87858 6.48687C6.83119 6.54486 6.81649 6.55775 6.81649 6.63027V9.62688C6.42773 9.57693 6.0651 9.48997 5.74985 9.10169L4.32871 7.37781Z" fill="#EC3237"/>
<path d="M7.50503 9.03542V6.76218C7.50503 6.62199 7.48873 6.51565 7.45604 6.44318C7.42339 6.37066 7.36622 6.30463 7.28289 6.24499V6.23535H8.79385C9.08297 6.23535 9.31168 6.2853 9.4783 6.38519C9.64656 6.48508 9.76089 6.60266 9.8213 6.73801C9.88176 6.87332 9.91116 7.00547 9.91116 7.13593C9.91116 7.666 9.59752 7.98981 8.97192 8.10903L8.64686 8.13805C8.55212 8.12516 8.49002 8.11872 8.45737 8.11872C8.79385 7.98176 8.96046 7.73204 8.96046 7.37117C8.96046 6.93939 8.78243 6.72352 8.42468 6.72352V8.92105C8.42468 9.20135 8.50312 9.40113 8.65828 9.51875V9.53808H7.28125V9.52844C7.42992 9.43175 7.50503 9.26742 7.50503 9.03542Z" fill="#1062AC"/>
<path d="M9.91558 8.7857L10.613 6.83466C10.6572 6.70415 10.6784 6.6043 10.6784 6.53663C10.6784 6.42869 10.6147 6.3304 10.4889 6.24339V6.23535H11.7451L12.748 8.85821C12.8052 9.02414 12.8624 9.15305 12.9211 9.24005C12.9783 9.32866 13.0616 9.42046 13.1711 9.51715V9.53648H11.6079V9.51715C11.7483 9.43979 11.8186 9.34474 11.8186 9.23036C11.8186 9.16109 11.8055 9.08857 11.7777 9.0145L11.616 8.53761H10.5918L10.4415 8.95971C10.4073 9.05635 10.3844 9.1498 10.3713 9.24165C10.3713 9.28835 10.3876 9.3351 10.4187 9.3818C10.4497 9.4269 10.4971 9.47365 10.5592 9.51875V9.53808H9.50391V9.51875C9.61175 9.43015 9.69175 9.3351 9.74239 9.23196C9.76691 9.18042 9.79303 9.11919 9.81919 9.05155C9.84695 8.98064 9.87964 8.89363 9.91558 8.7857ZM10.7421 8.06877H11.4494L11.0868 7.0683L10.7421 8.06877Z" fill="#1062AC"/>
<path d="M13.7597 8.03495L12.7845 6.6075C12.7224 6.5157 12.662 6.43833 12.5999 6.3755C12.5493 6.3288 12.4937 6.2853 12.4316 6.24504V6.23535H13.678L14.4408 7.42916L14.8737 6.82181C14.9162 6.76058 14.9488 6.69131 14.975 6.61074C14.9913 6.55436 14.9979 6.50441 14.9929 6.46415C14.9832 6.3723 14.9243 6.29978 14.8165 6.24339V6.23535H16.0008L14.7234 8.03495V8.87754C14.7234 8.913 14.725 8.94842 14.7267 8.98068C14.7283 9.0129 14.7316 9.04187 14.7332 9.06604C14.7349 9.09826 14.7463 9.15465 14.7691 9.23201C14.7937 9.3367 14.8574 9.43175 14.9603 9.51555V9.53488H13.5343V9.51555C13.6845 9.44143 13.758 9.28515 13.758 9.04351V8.03495H13.7597Z" fill="#1062AC"/>
</g>
<defs>
<clipPath id="clip0_25152_212606">
<rect width="16" height="16" fill="white"/>
</clipPath>
</defs>
</svg>
