<svg width="16" height="17" viewBox="0 0 16 17" fill="none" xmlns="http://www.w3.org/2000/svg">
<g clip-path="url(#clip0_25152_212447)">
<path fill-rule="evenodd" clip-rule="evenodd" d="M7.96046 3.40039C5.11483 3.40039 2.79883 5.7164 2.79883 8.56202C2.79883 11.4076 5.11483 13.7236 7.96046 13.7236C10.8061 13.7236 13.1221 11.4076 13.1221 8.56202C13.1221 5.7164 10.8061 3.40039 7.96046 3.40039ZM1.67383 8.56202C1.67383 5.09508 4.49351 2.27539 7.96046 2.27539C11.4274 2.27539 14.2471 5.09508 14.2471 8.56202C14.2471 12.029 11.4274 14.8486 7.96046 14.8486C4.49351 14.8486 1.67383 12.029 1.67383 8.56202Z" fill="#FCAF17"/>
<path fill-rule="evenodd" clip-rule="evenodd" d="M7.96094 1.72656C4.1921 1.72656 1.125 4.79366 1.125 8.5625C1.125 12.3313 4.1921 15.3984 7.96094 15.3984C11.7298 15.3984 14.7969 12.3313 14.7969 8.5625C14.7969 4.79366 11.7298 1.72656 7.96094 1.72656ZM0 8.5625C0 4.17234 3.57078 0.601562 7.96094 0.601562C12.3511 0.601562 15.9219 4.17234 15.9219 8.5625C15.9219 12.9527 12.3511 16.5234 7.96094 16.5234C3.57078 16.5234 0 12.9527 0 8.5625Z" fill="#FCAF17"/>
<path d="M3.96484 6.16504L5.48461 9.26543V10.9608H6.35944V9.26543L7.87921 6.16504H6.89248L5.94237 8.2304H5.90168L4.95157 6.16504H3.96484Z" fill="#FCAF17"/>
<path d="M9.91926 10.9608C11.1888 10.9608 11.9578 10.0569 11.9578 8.55824C11.9578 7.06425 11.1888 6.16504 9.93147 6.16504H8.44222V10.9608H9.91926ZM9.32315 10.092V7.0338H9.88467C10.6659 7.0338 11.0789 7.49277 11.0789 8.55824C11.0789 9.62839 10.6659 10.092 9.88264 10.092H9.32315Z" fill="#FCAF17"/>
</g>
<defs>
<clipPath id="clip0_25152_212447">
<rect width="16" height="16" fill="white" transform="translate(0 0.601562)"/>
</clipPath>
</defs>
</svg>
