<svg width="61" height="60" viewBox="0 0 61 60" fill="none" xmlns="http://www.w3.org/2000/svg">
<path d="M30.5996 55C27.1413 55 23.8913 54.3433 20.8496 53.03C17.8079 51.7167 15.1621 49.9358 12.9121 47.6875C10.6621 45.4375 8.88128 42.7917 7.56961 39.75C6.25794 36.7083 5.60128 33.4583 5.59961 30C5.59961 26.5417 6.25628 23.2917 7.56961 20.25C8.88294 17.2083 10.6638 14.5625 12.9121 12.3125C15.1621 10.0625 17.8079 8.28167 20.8496 6.97C23.8913 5.65833 27.1413 5.00167 30.5996 5C34.0579 5 37.3079 5.65667 40.3496 6.97C43.3913 8.28333 46.0371 10.0642 48.2871 12.3125C50.5371 14.5625 52.3188 17.2083 53.6321 20.25C54.9454 23.2917 55.6013 26.5417 55.5996 30C55.5996 33.4583 54.9429 36.7083 53.6296 39.75C52.3163 42.7917 50.5354 45.4375 48.2871 47.6875C46.0371 49.9375 43.3913 51.7192 40.3496 53.0325C37.3079 54.3458 34.0579 55.0017 30.5996 55ZM30.5996 50C36.1829 50 40.9121 48.0625 44.7871 44.1875C48.6621 40.3125 50.5996 35.5833 50.5996 30C50.5996 24.4167 48.6621 19.6875 44.7871 15.8125C40.9121 11.9375 36.1829 10 30.5996 10C25.0163 10 20.2871 11.9375 16.4121 15.8125C12.5371 19.6875 10.5996 24.4167 10.5996 30C10.5996 35.5833 12.5371 40.3125 16.4121 44.1875C20.2871 48.0625 25.0163 50 30.5996 50ZM25.5996 42.5H33.0996C34.4746 42.5 35.6521 42.01 36.6321 41.03C37.6121 40.05 38.1013 38.8733 38.0996 37.5V33.75C38.0996 32.6667 37.7454 31.7708 37.0371 31.0625C36.3288 30.3542 35.4329 30 34.3496 30C35.4329 30 36.3288 29.6458 37.0371 28.9375C37.7454 28.2292 38.0996 27.3333 38.0996 26.25V22.5C38.0996 21.125 37.6096 19.9475 36.6296 18.9675C35.6496 17.9875 34.4729 17.4983 33.0996 17.5H25.5996C24.8913 17.5 24.2971 17.74 23.8171 18.22C23.3371 18.7 23.0979 19.2933 23.0996 20C23.0996 20.7083 23.3396 21.3025 23.8196 21.7825C24.2996 22.2625 24.8929 22.5017 25.5996 22.5H33.0996V27.5H30.5996C29.8913 27.5 29.2971 27.74 28.8171 28.22C28.3371 28.7 28.0979 29.2933 28.0996 30C28.0996 30.7083 28.3396 31.3025 28.8196 31.7825C29.2996 32.2625 29.8929 32.5017 30.5996 32.5H33.0996V37.5H25.5996C24.8913 37.5 24.2971 37.74 23.8171 38.22C23.3371 38.7 23.0979 39.2933 23.0996 40C23.0996 40.7083 23.3396 41.3025 23.8196 41.7825C24.2996 42.2625 24.8929 42.5017 25.5996 42.5Z" fill="#5858B6"/>
</svg>
