<svg width="61" height="60" viewBox="0 0 61 60" fill="none" xmlns="http://www.w3.org/2000/svg">
<path d="M28 42.5H33L37.875 23.125C37.9583 22.9167 38 22.7292 38 22.5625V22C38 20.7917 37.5725 19.7392 36.7175 18.8425C35.8625 17.9458 34.8317 17.4983 33.625 17.5H23V22.5H33L28 42.5ZM30.5 55C27.0417 55 23.7917 54.3433 20.75 53.03C17.7083 51.7167 15.0625 49.9358 12.8125 47.6875C10.5625 45.4375 8.78167 42.7917 7.47 39.75C6.15833 36.7083 5.50167 33.4583 5.5 30C5.5 26.5417 6.15667 23.2917 7.47 20.25C8.78333 17.2083 10.5642 14.5625 12.8125 12.3125C15.0625 10.0625 17.7083 8.28167 20.75 6.97C23.7917 5.65833 27.0417 5.00167 30.5 5C33.9583 5 37.2083 5.65667 40.25 6.97C43.2917 8.28333 45.9375 10.0642 48.1875 12.3125C50.4375 14.5625 52.2192 17.2083 53.5325 20.25C54.8458 23.2917 55.5017 26.5417 55.5 30C55.5 33.4583 54.8433 36.7083 53.53 39.75C52.2167 42.7917 50.4358 45.4375 48.1875 47.6875C45.9375 49.9375 43.2917 51.7192 40.25 53.0325C37.2083 54.3458 33.9583 55.0017 30.5 55ZM30.5 50C36.0833 50 40.8125 48.0625 44.6875 44.1875C48.5625 40.3125 50.5 35.5833 50.5 30C50.5 24.4167 48.5625 19.6875 44.6875 15.8125C40.8125 11.9375 36.0833 10 30.5 10C24.9167 10 20.1875 11.9375 16.3125 15.8125C12.4375 19.6875 10.5 24.4167 10.5 30C10.5 35.5833 12.4375 40.3125 16.3125 44.1875C20.1875 48.0625 24.9167 50 30.5 50Z" fill="#FFC53D"/>
</svg>
