<svg width="61" height="60" viewBox="0 0 61 60" fill="none" xmlns="http://www.w3.org/2000/svg">
<path d="M22 48C22 46.1814 22.7224 44.4372 24.0084 43.1513C25.2944 41.8653 27.0385 41.1429 28.8571 41.1429C30.6758 41.1429 32.4199 41.8653 33.7059 43.1513C34.9918 44.4372 35.7143 46.1814 35.7143 48H34C34 46.636 33.4582 45.3279 32.4937 44.3635C31.5292 43.399 30.2211 42.8571 28.8571 42.8571C27.4932 42.8571 26.1851 43.399 25.2206 44.3635C24.2561 45.3279 23.7143 46.636 23.7143 48H22ZM28.8571 40.2857C26.0157 40.2857 23.7143 37.9843 23.7143 35.1429C23.7143 32.3014 26.0157 30 28.8571 30C31.6986 30 34 32.3014 34 35.1429C34 37.9843 31.6986 40.2857 28.8571 40.2857ZM28.8571 38.5714C30.7514 38.5714 32.2857 37.0371 32.2857 35.1429C32.2857 33.2486 30.7514 31.7143 28.8571 31.7143C26.9629 31.7143 25.4286 33.2486 25.4286 35.1429C25.4286 37.0371 26.9629 38.5714 28.8571 38.5714ZM35.9577 41.7454C37.1623 42.2879 38.1846 43.1668 38.9016 44.2763C39.6187 45.3859 40.0001 46.6789 40 48H38.2857C38.2859 47.0091 37.9999 46.0393 37.4621 45.2071C36.9242 44.3749 36.1575 43.7157 35.254 43.3089L35.9569 41.7454H35.9577ZM35.368 32.0683C36.2316 32.4243 36.97 33.0287 37.4894 33.8051C38.0089 34.5814 38.2861 35.4945 38.2857 36.4286C38.2861 37.6049 37.8466 38.7388 37.0536 39.6076C36.2606 40.4764 35.1714 41.0173 34 41.124V39.3986C34.6351 39.3076 35.2243 39.0154 35.6811 38.565C36.1379 38.1145 36.4383 37.5294 36.5381 36.8957C36.638 36.2619 36.532 35.6128 36.2358 35.0437C35.9395 34.4746 35.4687 34.0155 34.8923 33.7337L35.368 32.0683Z" fill="#2A2A86"/>
<path d="M49.9853 49.8727L47.3685 16.4232C47.2962 15.4992 46.5502 14.7876 45.6538 14.7876H40.5173V14.3583C40.5173 8.64692 36.0237 4 30.5001 4C24.9765 4 20.4828 8.64692 20.4828 14.3589V14.7882H15.3463C14.4501 14.7882 13.7039 15.4998 13.6316 16.4238L11.0149 49.8727C10.9117 51.1898 11.3487 52.5016 12.2146 53.4718C13.0811 54.4431 14.3106 55 15.5877 55H45.4124C46.6901 55 47.9191 54.4431 48.7855 53.4718C49.6515 52.501 50.0879 51.1892 49.9853 49.8727ZM23.9236 14.3589C23.9236 10.6092 26.874 7.55812 30.5001 7.55812C34.1261 7.55812 37.0765 10.6092 37.0765 14.3589V14.7882H23.9236V14.3589ZM46.256 51.0593C46.1287 51.2028 45.8499 51.4419 45.4124 51.4419H15.5877C15.1502 51.4419 14.8714 51.2029 14.7441 51.0593C14.6169 50.917 14.4092 50.6104 14.4448 50.1597L16.9336 18.3458H20.4827V27.1652C20.4827 28.1479 21.2529 28.9443 22.2031 28.9443C23.1533 28.9443 23.9235 28.1478 23.9235 27.1652V18.3458H37.0765V27.1652C37.0765 28.1479 37.8467 28.9443 38.7968 28.9443C39.7471 28.9443 40.5172 28.1478 40.5172 27.1652V18.3458H44.0664L46.5552 50.1604C46.5909 50.611 46.3828 50.917 46.256 51.0593Z" fill="#8080DA"/>
</svg>
