<svg width="50" height="50" viewBox="0 0 50 50" fill="none" xmlns="http://www.w3.org/2000/svg">
<path d="M30.2665 21.3333C30.1165 20.5667 29.4332 20 28.6332 20H4.69984C3.89984 20 3.2165 20.5667 3.0665 21.3333L1.6665 28.3333V30C1.6665 30.9167 2.4165 31.6667 3.33317 31.6667V40C3.33317 40.9167 4.08317 41.6667 4.99984 41.6667H18.3332C19.2498 41.6667 19.9998 40.9167 19.9998 40V31.6667H26.6665V40C26.6665 40.9167 27.4165 41.6667 28.3332 41.6667C29.2498 41.6667 29.9998 40.9167 29.9998 40V31.6667C30.9165 31.6667 31.6665 30.9167 31.6665 30V28.3333L30.2665 21.3333ZM16.6665 38.3333H6.6665V31.6667H16.6665V38.3333ZM4.99984 18.3333H28.3332C29.2498 18.3333 29.9998 17.5833 29.9998 16.6667C29.9998 15.75 29.2498 15 28.3332 15H4.99984C4.08317 15 3.33317 15.75 3.33317 16.6667C3.33317 17.5833 4.08317 18.3333 4.99984 18.3333Z" fill="#2A2A86"/>
<path d="M44.4446 13.1818H46.6668V21.6667H44.4446V13.1818ZM38.8891 10H41.1113V21.6667H38.8891V10ZM33.3335 15.303H35.5557V21.6667H33.3335V15.303Z" fill="#2A2A86" fill-opacity="0.5"/>
</svg>
