<svg width="50" height="50" viewBox="0 0 50 50" fill="none" xmlns="http://www.w3.org/2000/svg">
<path d="M30.2665 21.3333C30.1165 20.5667 29.4332 20 28.6332 20H4.69984C3.89984 20 3.2165 20.5667 3.0665 21.3333L1.6665 28.3333V30C1.6665 30.9167 2.4165 31.6667 3.33317 31.6667V40C3.33317 40.9167 4.08317 41.6667 4.99984 41.6667H18.3332C19.2498 41.6667 19.9998 40.9167 19.9998 40V31.6667H26.6665V40C26.6665 40.9167 27.4165 41.6667 28.3332 41.6667C29.2498 41.6667 29.9998 40.9167 29.9998 40V31.6667C30.9165 31.6667 31.6665 30.9167 31.6665 30V28.3333L30.2665 21.3333ZM16.6665 38.3333H6.6665V31.6667H16.6665V38.3333ZM4.99984 18.3333H28.3332C29.2498 18.3333 29.9998 17.5833 29.9998 16.6667C29.9998 15.75 29.2498 15 28.3332 15H4.99984C4.08317 15 3.33317 15.75 3.33317 16.6667C3.33317 17.5833 4.08317 18.3333 4.99984 18.3333Z" fill="#2A2A86"/>
<path d="M40.83 13.7778C38.333 13.1222 37.53 12.4444 37.53 11.3889C37.53 10.1778 38.641 9.33333 40.5 9.33333C42.062 9.33333 42.843 9.93333 43.129 10.8889C43.261 11.3333 43.624 11.6667 44.086 11.6667H44.416C45.142 11.6667 45.659 10.9444 45.406 10.2556C44.944 8.94444 43.866 7.85556 42.15 7.43333V6.66667C42.15 5.74444 41.413 5 40.5 5C39.587 5 38.85 5.74444 38.85 6.66667V7.4C36.716 7.86667 35 9.26667 35 11.4111C35 13.9778 37.101 15.2556 40.17 16C42.92 16.6667 43.47 17.6444 43.47 18.6778C43.47 19.4444 42.931 20.6667 40.5 20.6667C38.685 20.6667 37.75 20.0111 37.387 19.0778C37.222 18.6444 36.848 18.3333 36.397 18.3333H36.089C35.352 18.3333 34.835 19.0889 35.11 19.7778C35.737 21.3222 37.2 22.2333 38.85 22.5889V23.3333C38.85 24.2556 39.587 25 40.5 25C41.413 25 42.15 24.2556 42.15 23.3333V22.6111C44.295 22.2 46 20.9444 46 18.6667C46 15.5111 43.327 14.4333 40.83 13.7778Z" fill="#2A2A86" fill-opacity="0.5"/>
</svg>
