<svg width="61" height="60" viewBox="0 0 61 60" fill="none" xmlns="http://www.w3.org/2000/svg">
<path d="M51.8237 50.9364H50.3711C50.1165 50.9364 49.8723 50.8353 49.6923 50.6552C49.5122 50.4752 49.4111 50.231 49.4111 49.9764C49.4111 49.7218 49.5122 49.4776 49.6923 49.2976C49.8723 49.1176 50.1165 49.0164 50.3711 49.0164H51.8237C51.9385 49.0163 52.0486 48.9706 52.1298 48.8894C52.211 48.8082 52.2567 48.6981 52.2569 48.5832V39.867C52.2565 39.7663 52.2466 39.6659 52.2275 39.567L50.7323 31.902C50.6756 31.6137 50.5208 31.354 50.2941 31.1672C50.0674 30.9803 49.7829 30.8778 49.4891 30.8772H41.3087C41.0876 30.8775 40.8756 30.9655 40.7193 31.1218C40.563 31.2782 40.475 31.4901 40.4747 31.7112V49.0164H42.3599C42.6145 49.0164 42.8587 49.1176 43.0387 49.2976C43.2187 49.4776 43.3199 49.7218 43.3199 49.9764C43.3199 50.231 43.2187 50.4752 43.0387 50.6552C42.8587 50.8353 42.6145 50.9364 42.3599 50.9364H39.5147C39.2601 50.9364 39.0159 50.8353 38.8359 50.6552C38.6558 50.4752 38.5547 50.231 38.5547 49.9764V31.7112C38.5563 30.9813 38.8469 30.2817 39.3631 29.7656C39.8792 29.2495 40.5788 28.9588 41.3087 28.9572H49.4891C50.2285 28.9586 50.9446 29.2166 51.515 29.6871C52.0854 30.1576 52.4749 30.8115 52.6169 31.5372L54.1121 39.2034C54.155 39.4228 54.1767 39.6459 54.1769 39.8694V48.5832C54.1761 49.2071 53.9279 49.8052 53.4868 50.2463C53.0456 50.6874 52.4476 50.9356 51.8237 50.9364Z" fill="#FFD666"/>
<path d="M52.872 38.82H46.2522C44.7348 38.82 43.5 37.5474 43.5 35.9838V34.7328C43.5 33.1686 44.7348 31.8966 46.2522 31.8966H51.8964C52.151 31.8966 52.3952 31.9977 52.5752 32.1778C52.7553 32.3578 52.8564 32.602 52.8564 32.8566C52.8564 33.1112 52.7553 33.3554 52.5752 33.5354C52.3952 33.7155 52.151 33.8166 51.8964 33.8166H46.2522C45.7932 33.8166 45.42 34.2276 45.42 34.7328V35.9826C45.42 36.4878 45.7932 36.8988 46.2522 36.8988H52.872C53.1266 36.8988 53.3708 37 53.5508 37.18C53.7309 37.36 53.832 37.6042 53.832 37.8588C53.832 38.1134 53.7309 38.3576 53.5508 38.5376C53.3708 38.7177 53.1266 38.8188 52.872 38.8188V38.82Z" fill="#FFD666"/>
<path d="M46.366 54.96C45.3839 54.96 44.4238 54.6688 43.6073 54.1232C42.7907 53.5775 42.1542 52.802 41.7784 51.8947C41.4025 50.9873 41.3042 49.9889 41.4958 49.0257C41.6874 48.0624 42.1603 47.1777 42.8548 46.4832C43.5492 45.7888 44.434 45.3158 45.3973 45.1242C46.3605 44.9326 47.3589 45.031 48.2662 45.4068C49.1736 45.7826 49.9491 46.4191 50.4947 47.2357C51.0404 48.0523 51.3316 49.0123 51.3316 49.9944C51.33 51.3109 50.8063 52.573 49.8755 53.5039C48.9446 54.4348 47.6825 54.9584 46.366 54.96ZM46.366 46.9488C45.7636 46.9488 45.1748 47.1274 44.6739 47.4621C44.1731 47.7967 43.7827 48.2724 43.5522 48.8289C43.3217 49.3854 43.2614 49.9978 43.3789 50.5886C43.4964 51.1794 43.7865 51.722 44.2124 52.148C44.6384 52.5739 45.181 52.864 45.7718 52.9815C46.3626 53.099 46.975 53.0387 47.5315 52.8082C48.088 52.5777 48.5637 52.1873 48.8983 51.6865C49.233 51.1856 49.4116 50.5968 49.4116 49.9944C49.4106 49.187 49.0895 48.4129 48.5185 47.8419C47.9476 47.2709 47.1734 46.9498 46.366 46.9488Z" fill="#FFD666"/>
<path d="M17.6277 54.96C16.6456 54.96 15.6856 54.6688 14.869 54.1232C14.0524 53.5775 13.4159 52.802 13.0401 51.8947C12.6643 50.9873 12.5659 49.9889 12.7575 49.0257C12.9491 48.0624 13.4221 47.1777 14.1165 46.4832C14.811 45.7888 15.6957 45.3158 16.659 45.1242C17.6222 44.9326 18.6206 45.031 19.528 45.4068C20.4353 45.7826 21.2108 46.4191 21.7565 47.2357C22.3021 48.0523 22.5933 49.0123 22.5933 49.9944C22.5919 51.3109 22.0683 52.5731 21.1373 53.504C20.2064 54.435 18.9442 54.9586 17.6277 54.96ZM17.6277 46.9488C17.0253 46.9488 16.4365 47.1274 15.9357 47.4621C15.4348 47.7967 15.0445 48.2724 14.8139 48.8289C14.5834 49.3854 14.5231 49.9978 14.6406 50.5886C14.7581 51.1794 15.0482 51.722 15.4741 52.148C15.9001 52.5739 16.4428 52.864 17.0335 52.9815C17.6243 53.099 18.2367 53.0387 18.7932 52.8082C19.3497 52.5777 19.8254 52.1873 20.16 51.6865C20.4947 51.1856 20.6733 50.5968 20.6733 49.9944C20.6725 49.1869 20.3514 48.4127 19.7804 47.8417C19.2094 47.2707 18.4352 46.9496 17.6277 46.9488Z" fill="#FFD666"/>
<path d="M39.5149 50.9364H21.6349C21.3802 50.9364 21.1361 50.8353 20.956 50.6552C20.776 50.4752 20.6749 50.231 20.6749 49.9764C20.6749 49.7218 20.776 49.4776 20.956 49.2976C21.1361 49.1175 21.3802 49.0164 21.6349 49.0164H38.5549V28.9932C38.5529 27.7966 38.0767 26.6496 37.2304 25.8036C36.3842 24.9576 35.2371 24.4816 34.0405 24.48H18.8995C18.6448 24.48 18.4007 24.3789 18.2206 24.1988C18.0406 24.0188 17.9395 23.7746 17.9395 23.52C17.9395 23.2654 18.0406 23.0212 18.2206 22.8412C18.4007 22.6611 18.6448 22.56 18.8995 22.56H34.0405C35.7461 22.5622 37.3812 23.2407 38.5874 24.4466C39.7936 25.6526 40.4723 27.2876 40.4749 28.9932V49.9764C40.4749 50.231 40.3737 50.4752 40.1937 50.6552C40.0136 50.8353 39.7695 50.9364 39.5149 50.9364Z" fill="#FFD666"/>
<path d="M13.6225 50.9364H10.0171C9.46783 50.9358 8.94123 50.7173 8.55283 50.3289C8.16443 49.9405 7.94595 49.4139 7.94531 48.8646V25.1208C7.94658 24.4417 8.21704 23.7908 8.69739 23.3108C9.17775 22.8308 9.82882 22.5608 10.5079 22.56H13.1287C13.3833 22.56 13.6275 22.6611 13.8075 22.8412C13.9876 23.0212 14.0887 23.2654 14.0887 23.52C14.0887 23.7746 13.9876 24.0188 13.8075 24.1988C13.6275 24.3789 13.3833 24.48 13.1287 24.48H10.5079C10.3375 24.4802 10.1742 24.5479 10.0537 24.6684C9.93323 24.7889 9.86547 24.9522 9.86531 25.1226V48.8646C9.86531 48.8845 9.86924 48.9043 9.87687 48.9227C9.8845 48.9411 9.89568 48.9578 9.90977 48.9719C9.92387 48.986 9.9406 48.9972 9.95902 49.0048C9.97744 49.0125 9.99718 49.0164 10.0171 49.0164H13.6225C13.8771 49.0164 14.1213 49.1175 14.3013 49.2976C14.4814 49.4776 14.5825 49.7218 14.5825 49.9764C14.5825 50.231 14.4814 50.4752 14.3013 50.6552C14.1213 50.8353 13.8771 50.9364 13.6225 50.9364Z" fill="#FFD666"/>
<path d="M16.0148 28.3728C15.6974 28.3739 15.3851 28.293 15.1082 28.1378C14.8313 27.9826 14.5992 27.7585 14.4344 27.4872L8.70024 18.1272C7.56262 16.2744 7.16581 14.0606 7.58904 11.928C8.00512 9.79318 9.22454 7.8994 10.9958 6.63721C12.464 5.60026 14.2174 5.04352 16.0148 5.04352C17.8123 5.04352 19.5656 5.60026 21.0338 6.63721C22.8047 7.89857 24.0243 9.79118 24.4412 11.925C24.8645 14.0576 24.4677 16.2714 23.33 18.1242L17.5946 27.4872C17.4301 27.7586 17.1981 27.9827 16.9213 28.1379C16.6445 28.2931 16.3322 28.374 16.0148 28.3728ZM16.0148 6.96001C14.6159 6.95369 13.2504 7.38664 12.1106 8.19781C9.28524 10.212 8.50644 14.1312 10.3376 17.121L16.0148 26.391L21.692 17.121C23.5226 14.1312 22.7444 10.212 19.919 8.19781C18.7793 7.38664 17.4137 6.95369 16.0148 6.96001Z" fill="#FAAD14"/>
<path d="M16.0144 18.69C15.0064 18.69 14.0211 18.3911 13.183 17.8311C12.3449 17.2711 11.6916 16.4751 11.3059 15.5439C10.9202 14.6127 10.8193 13.5879 11.0159 12.5993C11.2125 11.6107 11.6979 10.7026 12.4107 9.9899C13.1234 9.27715 14.0315 8.79177 15.0201 8.59512C16.0087 8.39847 17.0334 8.4994 17.9647 8.88513C18.8959 9.27087 19.6919 9.92409 20.2519 10.7622C20.8119 11.6003 21.1108 12.5856 21.1108 13.5936C21.1098 14.945 20.5726 16.2407 19.617 17.1962C18.6615 18.1518 17.3657 18.689 16.0144 18.69ZM16.0144 10.4172C15.3861 10.4172 14.772 10.6035 14.2497 10.9525C13.7273 11.3015 13.3202 11.7976 13.0798 12.378C12.8393 12.9584 12.7764 13.5971 12.899 14.2133C13.0216 14.8294 13.3241 15.3954 13.7683 15.8396C14.2125 16.2839 14.7785 16.5864 15.3947 16.709C16.0108 16.8315 16.6495 16.7686 17.2299 16.5282C17.8103 16.2878 18.3064 15.8807 18.6555 15.3583C19.0045 14.836 19.1908 14.2218 19.1908 13.5936C19.1898 12.7515 18.8549 11.9441 18.2594 11.3486C17.6639 10.7531 16.8565 10.4181 16.0144 10.4172Z" fill="#FAAD14"/>
</svg>
