<svg width="61" height="60" viewBox="0 0 61 60" fill="none" xmlns="http://www.w3.org/2000/svg">
<path d="M54.75 42.5L42.25 55L33.5 46.25L37.25 42.5L42.25 47.5L51 38.75L54.75 42.5ZM11 5C9.67392 5 8.40215 5.52678 7.46447 6.46447C6.52678 7.40215 6 8.67392 6 10V50C6 52.775 8.225 55 11 55H30.525C29.625 53.45 29 51.75 28.7 50H11V10H28.5V22.5H41V32.7C41.825 32.575 42.675 32.5 43.5 32.5C44.35 32.5 45.175 32.575 46 32.7V20L31 5M16 30V35H36V30M16 40V45H28.5V40H16Z" fill="#8080DA"/>
<path d="M54.75 42.5L42.25 55L33.5 46.25L37.25 42.5L42.25 47.5L51 38.75L54.75 42.5Z" fill="#52C41A"/>
</svg>
