<svg width="61" height="60" viewBox="0 0 61 60" fill="none" xmlns="http://www.w3.org/2000/svg">
<path d="M59.9474 43.6145C59.7077 43.0133 59.0263 42.7201 58.4249 42.9601C57.8237 43.1999 57.5308 43.8814 57.7705 44.4825C58.8824 47.2702 58.6174 50.3579 57.1559 52.8724C56.5571 51.1974 55.1661 49.8687 53.3729 49.3955L53.0587 49.3126C53.5022 48.5745 53.7579 47.7115 53.7579 46.7894V45.8133C53.7579 43.1039 51.5538 40.8997 48.8444 40.8997C46.1351 40.8997 43.9309 43.1039 43.9309 45.8133V46.7894C43.9309 47.7115 44.1866 48.5744 44.6301 49.3125L44.3158 49.3954C42.5236 49.8685 41.1328 51.1962 40.5336 52.8703C38.4018 49.1942 38.9063 44.3969 42.0498 41.2534C44.7528 38.5503 48.7995 37.7055 52.3595 39.1022C52.9621 39.3387 53.6419 39.0416 53.8783 38.4392C54.1147 37.8367 53.8177 37.1567 53.2152 36.9203C48.7884 35.1838 43.7548 36.2339 40.3924 39.5961C39.8327 40.1558 39.3355 40.7615 38.904 41.4041L28.212 35.687C29.7745 32.0698 29.7745 27.934 28.212 24.3167L38.9081 18.5974C39.3379 19.24 39.8323 19.8475 40.3925 20.4075C42.6502 22.6651 45.6517 23.9083 48.8443 23.9083C52.0369 23.9083 55.0384 22.6651 57.296 20.4075C61.9563 15.7472 61.9563 8.1643 57.296 3.50402C53.9131 0.121067 48.8551 -0.919669 44.4111 0.853133C43.8099 1.0929 43.5169 1.77446 43.7567 2.37551C43.9964 2.97668 44.6782 3.27035 45.2792 3.02988C48.8528 1.60465 52.9192 2.44148 55.6393 5.16127C58.7829 8.30492 59.2874 13.1021 57.1554 16.7781C56.5561 15.1042 55.1656 13.7763 53.3731 13.3033L53.0589 13.2203C53.5025 12.4823 53.7582 11.6192 53.7582 10.6972V9.72101C53.7582 7.01165 51.554 4.80748 48.8446 4.80748C46.1353 4.80748 43.9311 7.01165 43.9311 9.72101V10.6972C43.9311 11.6192 44.1868 12.4822 44.6304 13.2202L44.3161 13.3032C42.5236 13.7763 41.1327 15.1042 40.5336 16.7786C39.0833 14.2802 38.8115 11.2127 39.8988 8.44039C40.1352 7.83794 39.8383 7.1579 39.2358 6.92165C38.6333 6.68505 37.9534 6.98224 37.7171 7.5847C36.5649 10.5219 36.6406 13.7252 37.8031 16.5309L27.1078 22.2497C26.5686 21.4146 25.9346 20.6234 25.2041 19.8927C22.9857 17.6744 20.1749 16.2739 17.0754 15.8425C14.078 15.425 10.9674 15.9823 8.31676 17.4106C7.747 17.7176 7.53395 18.4285 7.84086 18.998C8.14801 19.5678 8.85898 19.7808 9.42828 19.4739C14.0361 16.991 19.842 17.8448 23.5467 21.5498C27.3899 25.393 28.0631 31.2233 25.5679 35.7632C24.8219 33.7035 23.1064 32.0711 20.8976 31.4881L20.0141 31.255C20.7191 30.2668 21.1356 29.0594 21.1356 27.7558V26.4856C21.1356 23.1548 18.4259 20.4451 15.0951 20.4451C11.7643 20.4451 9.05445 23.1548 9.05445 26.4856V27.7558C9.05445 29.0595 9.47093 30.2668 10.1759 31.255L9.29246 31.4882C7.087 32.0703 5.37338 33.6985 4.62561 35.7537C2.72425 32.2646 2.62781 27.9342 4.56725 24.3348C4.87428 23.765 4.66135 23.0542 4.09159 22.7474C3.52148 22.4402 2.81109 22.6533 2.50418 23.223C1.07567 25.8739 0.518798 28.9845 0.935631 31.9818C1.367 35.0813 2.7675 37.8923 4.98584 40.1106C7.7729 42.8976 11.4339 44.2912 15.095 44.2912C18.756 44.2912 22.4169 42.8976 25.2041 40.1106C25.9347 39.3799 26.5687 38.5887 27.1077 37.7537L37.7966 43.4692C37.2031 44.9014 36.8919 46.4506 36.8919 48.0478C36.8919 51.2404 38.1352 54.2419 40.3928 56.4995C42.7234 58.8299 45.7841 59.9949 48.8448 59.9949C51.9056 59.9949 54.9665 58.8298 57.2966 56.4996C60.6795 53.1168 61.7201 48.059 59.9474 43.6145ZM46.2749 9.72136C46.2749 8.30422 47.4277 7.15146 48.8448 7.15146C50.2618 7.15146 51.4147 8.30434 51.4147 9.72136V10.6975C51.4147 12.1146 50.2618 13.2673 48.8448 13.2673C47.4277 13.2673 46.2749 12.1144 46.2749 10.6975V9.72136ZM42.5553 18.8753V18.6314C42.5553 17.1951 43.5253 15.9361 44.9141 15.5696L46.6754 15.1047C47.33 15.4282 48.0663 15.6109 48.8445 15.6109C49.6229 15.6109 50.3591 15.4282 51.0135 15.1048L52.7749 15.5697C54.1638 15.9361 55.1336 17.1952 55.1336 18.6315V19.2107C55.1336 19.213 55.1339 19.2153 55.1339 19.2175C53.3876 20.7347 51.1804 21.5648 48.8444 21.5648C46.49 21.5648 44.2662 20.7216 42.5133 19.1815C42.54 19.0838 42.5553 18.9815 42.5553 18.8753ZM11.3982 26.4862C11.3982 24.4478 13.0565 22.7893 15.0952 22.7893C17.1337 22.7893 18.7921 24.4476 18.7921 26.4862V27.7564C18.7921 29.7949 17.1338 31.4534 15.0952 31.4534C13.0566 31.4534 11.3982 29.7951 11.3982 27.7564V26.4862ZM23.6316 38.3666C23.6032 38.3956 23.5754 38.4249 23.5467 38.4536C18.8865 43.114 11.3035 43.114 6.64322 38.4537C6.61415 38.4246 6.58697 38.3944 6.55825 38.3652V38.0803C6.55825 36.0514 7.92852 34.2725 9.89046 33.7547L12.3128 33.1154C13.1461 33.5498 14.092 33.7969 15.095 33.7969C16.098 33.7969 17.0437 33.5498 17.877 33.1154L20.2993 33.7546C22.2612 34.2724 23.6316 36.0511 23.6316 38.0802V38.3666ZM46.2749 45.8135C46.2749 44.3964 47.4277 43.2436 48.8448 43.2436C50.2618 43.2436 51.4147 44.3965 51.4147 45.8135V46.7897C51.4147 48.2067 50.2618 49.3596 48.8448 49.3596C47.4277 49.3596 46.2749 48.2067 46.2749 46.7897V45.8135ZM42.5136 55.2735C42.54 55.1758 42.5553 55.0735 42.5553 54.9674V54.7237C42.5553 53.2874 43.5253 52.0283 44.9141 51.6617L46.6753 51.1968C47.33 51.5204 48.0663 51.7031 48.8445 51.7031C49.6228 51.7031 50.3591 51.5204 51.0138 51.1968L52.7749 51.6617C54.1638 52.0281 55.1336 53.2872 55.1336 54.7237V55.3027C55.1336 55.3048 55.1339 55.3069 55.1339 55.309C51.522 58.4422 46.1121 58.4305 42.5136 55.2735Z" fill="#5858B6"/>
</svg>
