<svg width="50" height="50" viewBox="0 0 50 50" fill="none" xmlns="http://www.w3.org/2000/svg">
<path opacity="0.5" d="M43.75 12.5H46.875V25H43.75V12.5ZM35.9375 7.8125H39.0625V25H35.9375V7.8125ZM28.125 15.625H31.25V25H28.125V15.625ZM25 46.875H21.875V37.5C21.8738 36.2572 21.3795 35.0656 20.5007 34.1868C19.6219 33.308 18.4303 32.8137 17.1875 32.8125H10.9375C9.69468 32.8137 8.50312 33.308 7.62431 34.1868C6.7455 35.0656 6.25124 36.2572 6.25 37.5V46.875H3.125V37.5C3.12748 35.4288 3.95138 33.4431 5.41597 31.9785C6.88056 30.5139 8.86626 29.69 10.9375 29.6875H17.1875C19.2587 29.69 21.2444 30.5139 22.709 31.9785C24.1736 33.4431 24.9975 35.4288 25 37.5V46.875ZM14.0625 14.0625C14.9896 14.0625 15.8959 14.3374 16.6667 14.8525C17.4376 15.3676 18.0384 16.0996 18.3932 16.9562C18.748 17.8127 18.8408 18.7552 18.6599 19.6645C18.4791 20.5738 18.0326 21.409 17.3771 22.0646C16.7215 22.7201 15.8863 23.1666 14.977 23.3474C14.0677 23.5283 13.1252 23.4355 12.2687 23.0807C11.4121 22.7259 10.6801 22.1251 10.165 21.3542C9.64992 20.5834 9.375 19.6771 9.375 18.75C9.375 17.5068 9.86886 16.3145 10.7479 15.4354C11.627 14.5564 12.8193 14.0625 14.0625 14.0625ZM14.0625 10.9375C12.5173 10.9375 11.0069 11.3957 9.72211 12.2541C8.43735 13.1126 7.436 14.3327 6.84469 15.7603C6.25338 17.1878 6.09867 18.7587 6.40012 20.2741C6.70156 21.7896 7.44563 23.1817 8.53823 24.2743C9.63083 25.3669 11.0229 26.1109 12.5384 26.4124C14.0538 26.7138 15.6247 26.5591 17.0522 25.9678C18.4798 25.3765 19.6999 24.3752 20.5584 23.0904C21.4168 21.8056 21.875 20.2952 21.875 18.75C21.875 17.724 21.6729 16.7081 21.2803 15.7603C20.8877 14.8124 20.3122 13.9512 19.5868 13.2257C18.8613 12.5003 18.0001 11.9248 17.0522 11.5322C16.1044 11.1396 15.0885 10.9375 14.0625 10.9375Z" fill="#2A2A86"/>
<path d="M25 46.875H21.875V37.5C21.8738 36.2572 21.3795 35.0656 20.5007 34.1868C19.6219 33.308 18.4303 32.8137 17.1875 32.8125H10.9375C9.69468 32.8137 8.50312 33.308 7.62431 34.1868C6.7455 35.0656 6.25124 36.2572 6.25 37.5V46.875H3.125V37.5C3.12748 35.4288 3.95138 33.4431 5.41597 31.9785C6.88056 30.5139 8.86626 29.69 10.9375 29.6875H17.1875C19.2587 29.69 21.2444 30.5139 22.709 31.9785C24.1736 33.4431 24.9975 35.4288 25 37.5V46.875ZM14.0625 14.0625C14.9896 14.0625 15.8959 14.3374 16.6667 14.8525C17.4376 15.3676 18.0384 16.0996 18.3932 16.9562C18.748 17.8127 18.8408 18.7552 18.6599 19.6645C18.4791 20.5738 18.0326 21.409 17.3771 22.0646C16.7215 22.7201 15.8863 23.1666 14.977 23.3474C14.0677 23.5283 13.1252 23.4355 12.2687 23.0807C11.4121 22.7259 10.6801 22.1251 10.165 21.3542C9.64992 20.5834 9.375 19.6771 9.375 18.75C9.375 17.5068 9.86886 16.3145 10.7479 15.4354C11.627 14.5564 12.8193 14.0625 14.0625 14.0625ZM14.0625 10.9375C12.5173 10.9375 11.0069 11.3957 9.72211 12.2541C8.43735 13.1126 7.436 14.3327 6.84469 15.7603C6.25338 17.1878 6.09867 18.7587 6.40012 20.2741C6.70156 21.7896 7.44563 23.1817 8.53823 24.2743C9.63083 25.3669 11.0229 26.1109 12.5384 26.4124C14.0538 26.7138 15.6247 26.5591 17.0522 25.9678C18.4798 25.3765 19.6999 24.3752 20.5584 23.0904C21.4168 21.8056 21.875 20.2952 21.875 18.75C21.875 17.724 21.6729 16.7081 21.2803 15.7603C20.8877 14.8124 20.3122 13.9512 19.5868 13.2257C18.8613 12.5003 18.0001 11.9248 17.0522 11.5322C16.1044 11.1396 15.0885 10.9375 14.0625 10.9375Z" fill="#2A2A86"/>
</svg>
