<svg width="60" height="60" viewBox="0 0 60 60" fill="none" xmlns="http://www.w3.org/2000/svg">
<path d="M30 37.5H37.5C38.875 37.5 40.0525 37.01 41.0325 36.03C42.0108 35.0517 42.5 33.875 42.5 32.5V28.75C42.5 27.6667 42.1458 26.7708 41.4375 26.0625C40.7292 25.3542 39.8333 25 38.75 25C39.8333 25 40.7292 24.6458 41.4375 23.9375C42.1458 23.2292 42.5 22.3333 42.5 21.25V17.5C42.5 16.125 42.0108 14.9483 41.0325 13.97C40.0525 12.99 38.875 12.5 37.5 12.5H29.9375C29.2292 12.5 28.6458 12.7392 28.1875 13.2175C27.7292 13.6975 27.5 14.2917 27.5 15C27.5 15.7083 27.74 16.3025 28.22 16.7825C28.6983 17.2608 29.2917 17.5 30 17.5H37.5V22.5H34.9375C34.2292 22.5 33.6458 22.7392 33.1875 23.2175C32.7292 23.6975 32.5 24.2917 32.5 25C32.5 25.7083 32.74 26.3017 33.22 26.78C33.6983 27.26 34.2917 27.5 35 27.5H37.5V32.5H29.9375C29.2292 32.5 28.6458 32.7392 28.1875 33.2175C27.7292 33.6975 27.5 34.2917 27.5 35C27.5 35.7083 27.74 36.3017 28.22 36.78C28.6983 37.26 29.2917 37.5 30 37.5ZM20 45C18.625 45 17.4483 44.5108 16.47 43.5325C15.49 42.5525 15 41.375 15 40V10C15 8.625 15.49 7.4475 16.47 6.4675C17.4483 5.48917 18.625 5 20 5H50C51.375 5 52.5525 5.48917 53.5325 6.4675C54.5108 7.4475 55 8.625 55 10V40C55 41.375 54.5108 42.5525 53.5325 43.5325C52.5525 44.5108 51.375 45 50 45H20ZM20 40H50V10H20V40ZM10 55C8.625 55 7.44833 54.5108 6.47 53.5325C5.49 52.5525 5 51.375 5 50V17.4375C5 16.7292 5.24 16.1458 5.72 15.6875C6.19833 15.2292 6.79167 15 7.5 15C8.20833 15 8.8025 15.2392 9.2825 15.7175C9.76083 16.1975 10 16.7917 10 17.5V50H42.5625C43.2708 50 43.8542 50.24 44.3125 50.72C44.7708 51.1983 45 51.7917 45 52.5C45 53.2083 44.76 53.8017 44.28 54.28C43.8017 54.76 43.2083 55 42.5 55H10Z" fill="#2A2A86"/>
<path d="M30 37.5H37.5C38.875 37.5 40.0525 37.01 41.0325 36.03C42.0108 35.0517 42.5 33.875 42.5 32.5V28.75C42.5 27.6667 42.1458 26.7708 41.4375 26.0625C40.7292 25.3542 39.8333 25 38.75 25C39.8333 25 40.7292 24.6458 41.4375 23.9375C42.1458 23.2292 42.5 22.3333 42.5 21.25V17.5C42.5 16.125 42.0108 14.9483 41.0325 13.97C40.0525 12.99 38.875 12.5 37.5 12.5H29.9375C29.2292 12.5 28.6458 12.7392 28.1875 13.2175C27.7292 13.6975 27.5 14.2917 27.5 15C27.5 15.7083 27.74 16.3025 28.22 16.7825C28.6983 17.2608 29.2917 17.5 30 17.5H37.5V22.5H34.9375C34.2292 22.5 33.6458 22.7392 33.1875 23.2175C32.7292 23.6975 32.5 24.2917 32.5 25C32.5 25.7083 32.74 26.3017 33.22 26.78C33.6983 27.26 34.2917 27.5 35 27.5H37.5V32.5H29.9375C29.2292 32.5 28.6458 32.7392 28.1875 33.2175C27.7292 33.6975 27.5 34.2917 27.5 35C27.5 35.7083 27.74 36.3017 28.22 36.78C28.6983 37.26 29.2917 37.5 30 37.5Z" fill="#8080DA"/>
</svg>
