<svg width="61" height="60" viewBox="0 0 61 60" fill="none" xmlns="http://www.w3.org/2000/svg">
<path d="M35.1246 55H15.5996C12.8246 55 10.5996 52.775 10.5996 50V10C10.5996 8.67392 11.1264 7.40215 12.0641 6.46447C13.0018 5.52678 14.2735 5 15.5996 5H35.5996L50.5996 20V32.725C49.7746 32.6 48.9496 32.5 48.0996 32.5C47.2496 32.5 46.4246 32.6 45.5996 32.725V22.5H33.0996V10H15.5996V50H33.3246C33.6246 51.8 34.2496 53.475 35.1246 55ZM58.0996 45H50.5996V37.5H45.5996V45H38.0996V50H45.5996V57.5H50.5996V50H58.0996V45Z" fill="#FFD666"/>
<path d="M58.0996 45H50.5996V37.5H45.5996V45H38.0996V50H45.5996V57.5H50.5996V50H58.0996V45Z" fill="#FAAD14"/>
</svg>
