<svg width="38" height="42" viewBox="0 0 38 42" fill="none" xmlns="http://www.w3.org/2000/svg">
<path fill-rule="evenodd" clip-rule="evenodd" d="M18.0323 0.263337C18.6297 -0.0881045 19.3707 -0.0881045 19.9682 0.263337L36.1955 9.80883C36.7786 10.1518 37.1366 10.7778 37.1366 11.4543V30.5453C37.1366 31.2218 36.7786 31.8478 36.1955 32.1908L19.9682 41.7363C19.3707 42.0878 18.6297 42.0878 18.0323 41.7363L1.80492 32.1908C1.2218 31.8478 0.86377 31.2218 0.86377 30.5453V11.4543C0.86377 10.7778 1.2218 10.1518 1.80492 9.80883L18.0323 0.263337ZM4.68197 12.5462V29.4534L19.0002 37.8759L33.3184 29.4534V12.5462L19.0002 4.12375L4.68197 12.5462Z" fill="#FCAF17"/>
<path fill-rule="evenodd" clip-rule="evenodd" d="M26.6367 13.8408C27.4275 13.8408 28.0686 14.4819 28.0686 15.2726V26.7272C28.0686 27.518 27.4275 28.1591 26.6367 28.1591C25.846 28.1591 25.2049 27.518 25.2049 26.7272V15.2726C25.2049 14.4819 25.846 13.8408 26.6367 13.8408ZM19.0003 17.659C19.7911 17.659 20.4322 18.3001 20.4322 19.0908V26.7272C20.4322 27.518 19.7911 28.1591 19.0003 28.1591C18.2096 28.1591 17.5685 27.518 17.5685 26.7272V19.0908C17.5685 18.3001 18.2096 17.659 19.0003 17.659ZM11.364 21.4772C12.1547 21.4772 12.7958 22.1183 12.7958 22.909V26.7272C12.7958 27.518 12.1547 28.1591 11.364 28.1591C10.5732 28.1591 9.93213 27.518 9.93213 26.7272V22.909C9.93213 22.1183 10.5732 21.4772 11.364 21.4772Z" fill="#FCAF17" fill-opacity="0.5"/>
</svg>
