<svg width="50" height="50" viewBox="0 0 50 50" fill="none" xmlns="http://www.w3.org/2000/svg">
<path d="M39.2377 12.7831L20.7742 6.72241C20.546 6.64803 20.2998 6.64803 20.0715 6.72241L1.60805 12.7831C1.1464 12.9345 0.833496 13.3679 0.833496 13.8527V34.6844C0.833496 35.1691 1.14383 35.6 1.60548 35.7539L20.0689 41.8967C20.1844 41.9352 20.3049 41.9532 20.4254 41.9532C20.546 41.9532 20.6665 41.9352 20.7819 41.8967L28.8454 39.2139C30.7203 42.1891 34.0313 44.1666 37.8066 44.1666C43.6516 44.1666 48.3912 39.4268 48.3912 33.5815C48.3912 28.4928 44.8006 24.2455 40.0148 23.2272V13.8527C40.0123 13.3679 39.6994 12.937 39.2377 12.7831ZM30.1535 15.9379L15.5935 10.5645L20.4229 8.97947L35.8472 14.0425L30.1535 15.9379ZM27.7836 16.7253L20.4229 19.1747L4.99862 14.0425L13.2083 11.3468L27.7836 16.7253ZM3.08533 33.8739V15.053L19.6432 20.5623V39.3832L3.08533 33.8739ZM21.2026 39.3832V20.5623L37.7604 15.053V22.9989C31.9334 23.022 27.2194 27.7516 27.2194 33.5841C27.2194 34.8434 27.44 36.0515 27.8452 37.1723L21.2026 39.3832ZM37.804 41.2683C33.8338 41.2683 30.5664 38.2547 30.1637 34.392H28.2889L31.9488 29.2931L35.6086 34.392H33.8954C35.1367 37.6186 38.1785 39.95 41.7896 40.1552C40.6278 40.8605 39.2634 41.2683 37.804 41.2683ZM45.4444 32.7787H47.3192L43.6593 37.8776L39.9994 32.7787H41.7127C40.4714 29.5521 37.4296 27.2207 33.8185 27.0155C34.9803 26.3076 36.3447 25.9024 37.8066 25.9024C41.7742 25.8998 45.0417 28.9135 45.4444 32.7787Z" fill="#FCAF17"/>
</svg>
