<svg width="44" height="40" viewBox="0 0 44 40" fill="none" xmlns="http://www.w3.org/2000/svg">
<path d="M40.75 5.5H43.875V18H40.75V5.5ZM32.9375 0.8125H36.0625V18H32.9375V0.8125ZM25.125 8.625H28.25V18H25.125V8.625ZM22 39.875H18.875V30.5C18.8738 29.2572 18.3795 28.0656 17.5007 27.1868C16.6219 26.308 15.4303 25.8137 14.1875 25.8125H7.9375C6.69468 25.8137 5.50312 26.308 4.62431 27.1868C3.7455 28.0656 3.25124 29.2572 3.25 30.5V39.875H0.125V30.5C0.127481 28.4288 0.951378 26.4431 2.41597 24.9785C3.88056 23.5139 5.86626 22.69 7.9375 22.6875H14.1875C16.2587 22.69 18.2444 23.5139 19.709 24.9785C21.1736 26.4431 21.9975 28.4288 22 30.5V39.875ZM11.0625 7.0625C11.9896 7.0625 12.8959 7.33742 13.6667 7.85249C14.4376 8.36756 15.0384 9.09964 15.3932 9.95617C15.748 10.8127 15.8408 11.7552 15.6599 12.6645C15.4791 13.5738 15.0326 14.409 14.3771 15.0646C13.7215 15.7201 12.8863 16.1666 11.977 16.3474C11.0677 16.5283 10.1252 16.4355 9.26867 16.0807C8.41214 15.7259 7.68006 15.1251 7.16499 14.3542C6.64992 13.5834 6.375 12.6771 6.375 11.75C6.375 10.5068 6.86886 9.31451 7.74794 8.43544C8.62701 7.55636 9.8193 7.0625 11.0625 7.0625ZM11.0625 3.9375C9.51733 3.9375 8.00687 4.39569 6.72211 5.25414C5.43735 6.11259 4.436 7.33274 3.84469 8.76029C3.25338 10.1878 3.09867 11.7587 3.40012 13.2741C3.70156 14.7896 4.44563 16.1817 5.53823 17.2743C6.63083 18.3669 8.02288 19.1109 9.53836 19.4124C11.0538 19.7138 12.6247 19.5591 14.0522 18.9678C15.4798 18.3765 16.6999 17.3752 17.5584 16.0904C18.4168 14.8056 18.875 13.2952 18.875 11.75C18.875 10.724 18.6729 9.70814 18.2803 8.76029C17.8877 7.81243 17.3122 6.95119 16.5868 6.22573C15.8613 5.50027 15.0001 4.92481 14.0522 4.53219C13.1044 4.13958 12.0885 3.9375 11.0625 3.9375Z" fill="#FCAF17" fill-opacity="0.5"/>
</svg>
