<svg width="50" height="50" viewBox="0 0 50 50" fill="none" xmlns="http://www.w3.org/2000/svg">
<path d="M25 46.875H21.875V37.5C21.8738 36.2572 21.3795 35.0656 20.5007 34.1868C19.6219 33.308 18.4303 32.8137 17.1875 32.8125H10.9375C9.69468 32.8137 8.50312 33.308 7.62431 34.1868C6.7455 35.0656 6.25124 36.2572 6.25 37.5V46.875H3.125V37.5C3.12748 35.4288 3.95138 33.4431 5.41597 31.9785C6.88056 30.5139 8.86626 29.69 10.9375 29.6875H17.1875C19.2587 29.69 21.2444 30.5139 22.709 31.9785C24.1736 33.4431 24.9975 35.4288 25 37.5V46.875ZM14.0625 14.0625C14.9896 14.0625 15.8959 14.3374 16.6667 14.8525C17.4376 15.3676 18.0384 16.0996 18.3932 16.9562C18.748 17.8127 18.8408 18.7552 18.6599 19.6645C18.4791 20.5738 18.0326 21.409 17.3771 22.0646C16.7215 22.7201 15.8863 23.1666 14.977 23.3474C14.0677 23.5283 13.1252 23.4355 12.2687 23.0807C11.4121 22.7259 10.6801 22.1251 10.165 21.3542C9.64992 20.5834 9.375 19.6771 9.375 18.75C9.375 17.5068 9.86886 16.3145 10.7479 15.4354C11.627 14.5564 12.8193 14.0625 14.0625 14.0625ZM14.0625 10.9375C12.5173 10.9375 11.0069 11.3957 9.72211 12.2541C8.43735 13.1126 7.436 14.3327 6.84469 15.7603C6.25338 17.1878 6.09867 18.7587 6.40012 20.2741C6.70156 21.7896 7.44563 23.1817 8.53823 24.2743C9.63083 25.3669 11.0229 26.1109 12.5384 26.4124C14.0538 26.7138 15.6247 26.5591 17.0522 25.9678C18.4798 25.3765 19.6999 24.3752 20.5584 23.0904C21.4168 21.8056 21.875 20.2952 21.875 18.75C21.875 17.724 21.6729 16.7081 21.2803 15.7603C20.8877 14.8124 20.3122 13.9512 19.5868 13.2257C18.8613 12.5003 18.0001 11.9248 17.0522 11.5322C16.1044 11.1396 15.0885 10.9375 14.0625 10.9375Z" fill="#FCAF17"/>
<path d="M35.83 13.7778C33.333 13.1222 32.53 12.4444 32.53 11.3889C32.53 10.1778 33.641 9.33333 35.5 9.33333C37.062 9.33333 37.843 9.93333 38.129 10.8889C38.261 11.3333 38.624 11.6667 39.086 11.6667H39.416C40.142 11.6667 40.659 10.9444 40.406 10.2556C39.944 8.94444 38.866 7.85556 37.15 7.43333V6.66667C37.15 5.74444 36.413 5 35.5 5C34.587 5 33.85 5.74444 33.85 6.66667V7.4C31.716 7.86667 30 9.26667 30 11.4111C30 13.9778 32.101 15.2556 35.17 16C37.92 16.6667 38.47 17.6444 38.47 18.6778C38.47 19.4444 37.931 20.6667 35.5 20.6667C33.685 20.6667 32.75 20.0111 32.387 19.0778C32.222 18.6444 31.848 18.3333 31.397 18.3333H31.089C30.352 18.3333 29.835 19.0889 30.11 19.7778C30.737 21.3222 32.2 22.2333 33.85 22.5889V23.3333C33.85 24.2556 34.587 25 35.5 25C36.413 25 37.15 24.2556 37.15 23.3333V22.6111C39.295 22.2 41 20.9444 41 18.6667C41 15.5111 38.327 14.4333 35.83 13.7778Z" fill="#FCAF17" fill-opacity="0.6"/>
</svg>
