<svg width="61" height="60" viewBox="0 0 61 60" fill="none" xmlns="http://www.w3.org/2000/svg">
<path d="M45 54H40.7143V41.2174C40.7126 39.5228 40.0347 37.8982 38.8295 36.6999C37.6243 35.5017 35.9902 34.8278 34.2857 34.8261H25.7143C24.0098 34.8278 22.3757 35.5017 21.1705 36.6999C19.9653 37.8982 19.2874 39.5228 19.2857 41.2174V54H15V41.2174C15.0034 38.3933 16.1333 35.6858 18.1419 33.6889C20.1505 31.692 22.8737 30.5686 25.7143 30.5652H34.2857C37.1263 30.5686 39.8495 31.692 41.8581 33.6889C43.8667 35.6858 44.9966 38.3933 45 41.2174V54ZM30 9.26087C31.2715 9.26087 32.5143 9.63571 33.5715 10.338C34.6287 11.0403 35.4527 12.0385 35.9392 13.2063C36.4258 14.3742 36.5531 15.6593 36.305 16.8991C36.057 18.1388 35.4447 19.2777 34.5457 20.1715C33.6466 21.0653 32.5012 21.6741 31.2542 21.9207C30.0071 22.1673 28.7146 22.0407 27.5399 21.557C26.3652 21.0732 25.3612 20.254 24.6548 19.203C23.9485 18.1519 23.5714 16.9163 23.5714 15.6522C23.5714 13.9571 24.2487 12.3314 25.4543 11.1328C26.6599 9.93424 28.295 9.26087 30 9.26087ZM30 5C27.8809 5 25.8094 5.62474 24.0475 6.79521C22.2855 7.96569 20.9122 9.62933 20.1013 11.5758C19.2904 13.5222 19.0782 15.664 19.4916 17.7303C19.905 19.7966 20.9254 21.6947 22.4239 23.1844C23.9223 24.6741 25.8314 25.6887 27.9097 26.0997C29.9881 26.5107 32.1424 26.2997 34.1002 25.4935C36.058 24.6873 37.7313 23.3219 38.9086 21.5702C40.0859 19.8185 40.7143 17.759 40.7143 15.6522C40.7143 14.2533 40.4372 12.8681 39.8987 11.5758C39.3603 10.2834 38.5711 9.1091 37.5761 8.11995C36.5812 7.1308 35.4001 6.34617 34.1002 5.81085C32.8003 5.27553 31.407 5 30 5Z" fill="#FAAD14"/>
<path fill-rule="evenodd" clip-rule="evenodd" d="M35.9249 39.9532C35.9009 39.9186 35.8695 39.8898 35.8328 39.869C35.7962 39.8481 35.7552 39.8356 35.7128 39.8324C35.6704 39.8292 35.6275 39.8353 35.5873 39.8504C35.5471 39.8655 35.5104 39.8891 35.4799 39.9196L31.4887 43.9108C31.3003 44.0993 31.0119 44.1412 30.785 44.0131C30.558 43.885 30.4486 43.6186 30.518 43.363L30.8918 41.9854L30.8932 41.9804C30.9153 41.9016 30.9216 41.8196 30.9117 41.7391C30.9017 41.6586 30.8758 41.5813 30.8353 41.5118C30.7948 41.4422 30.7407 41.3817 30.6761 41.3339C30.6114 41.286 30.5376 41.2518 30.4588 41.2332C30.3801 41.2146 30.2981 41.2121 30.2176 41.2256C30.137 41.2392 30.0597 41.2686 29.9899 41.3122C29.9202 41.3557 29.8596 41.4126 29.8115 41.4794C29.7635 41.5462 29.729 41.6216 29.7102 41.7011L29.709 41.706L28.529 46.5089L32.3112 50.291C32.3652 50.3451 32.4391 50.3749 32.5164 50.374C32.5938 50.3731 32.6684 50.3415 32.7238 50.2861L38.6709 44.339C38.7199 44.2899 38.7506 44.2255 38.7573 44.1571C38.7641 44.0887 38.7466 44.0206 38.7079 43.9649L35.9249 39.9532ZM36.8892 39.2726C36.7691 39.0995 36.612 38.9557 36.4287 38.8513C36.2455 38.7469 36.0406 38.6845 35.8285 38.6685C35.6164 38.6525 35.4023 38.6832 35.2012 38.7585C35.0001 38.8338 34.8169 38.9518 34.6645 39.1043L32.0808 41.688C32.0786 41.6481 32.075 41.6083 32.0701 41.5687C32.0412 41.3345 31.9657 41.1096 31.848 40.9072C31.7303 40.7047 31.5728 40.5288 31.3847 40.3896C31.1966 40.2505 30.9818 40.151 30.7527 40.0969C30.5237 40.0428 30.285 40.0353 30.0508 40.0747C29.8165 40.1141 29.5914 40.1997 29.3886 40.3265C29.1857 40.4533 29.0092 40.6187 28.8695 40.813C28.7303 41.0066 28.6303 41.225 28.5754 41.4555L27.3279 46.5327L27.3276 46.5341C27.3011 46.6433 27.3026 46.7568 27.3321 46.8639C27.3615 46.971 27.4179 47.0681 27.496 47.1462L31.476 51.1262C31.7463 51.3965 32.1155 51.5458 32.5024 51.5411C32.8894 51.5365 33.2623 51.3783 33.5392 51.1015L39.4863 45.1543C39.7317 44.9088 39.8849 44.5866 39.9188 44.2445C39.9527 43.9026 39.8653 43.5625 39.672 43.2839L36.8892 39.2726Z" fill="#FAAD14"/>
</svg>
