<svg width="61" height="60" viewBox="0 0 61 60" fill="none" xmlns="http://www.w3.org/2000/svg">
<path d="M31 54H27.5714V43.8261C27.5701 42.4774 27.0278 41.1842 26.0636 40.2306C25.0994 39.2769 23.7921 38.7405 22.4286 38.7391H15.5714C14.2079 38.7405 12.9006 39.2769 11.9364 40.2306C10.9722 41.1842 10.4299 42.4774 10.4286 43.8261V54H7V43.8261C7.00272 41.5783 7.90665 39.4234 9.51352 37.834C11.1204 36.2446 13.299 35.3505 15.5714 35.3478H22.4286C24.701 35.3505 26.8796 36.2446 28.4865 37.834C30.0933 39.4234 30.9973 41.5783 31 43.8261V54ZM19 18.3913C20.0172 18.3913 21.0115 18.6896 21.8572 19.2486C22.703 19.8076 23.3621 20.602 23.7514 21.5316C24.1406 22.4611 24.2425 23.4839 24.044 24.4707C23.8456 25.4574 23.3558 26.3639 22.6365 27.0753C21.9173 27.7867 21.0009 28.2712 20.0033 28.4675C19.0057 28.6638 17.9716 28.563 17.0319 28.178C16.0922 27.793 15.289 27.141 14.7239 26.3044C14.1588 25.4679 13.8571 24.4844 13.8571 23.4783C13.8571 22.1291 14.399 20.8352 15.3635 19.8812C16.3279 18.9272 17.636 18.3913 19 18.3913ZM19 15C17.3047 15 15.6475 15.4972 14.238 16.4288C12.8284 17.3604 11.7298 18.6846 11.081 20.2338C10.4323 21.783 10.2625 23.4877 10.5933 25.1323C10.924 26.7769 11.7403 28.2876 12.9391 29.4733C14.1378 30.659 15.6651 31.4665 17.3278 31.7936C18.9905 32.1208 20.7139 31.9529 22.2801 31.3112C23.8464 30.6695 25.185 29.5828 26.1269 28.1885C27.0687 26.7943 27.5714 25.1551 27.5714 23.4783C27.5714 22.3649 27.3497 21.2624 26.919 20.2338C26.4882 19.2051 25.8568 18.2705 25.0609 17.4832C24.265 16.6959 23.3201 16.0714 22.2801 15.6454C21.2402 15.2193 20.1256 15 19 15Z" fill="#2A2A86"/>
<path fill-rule="evenodd" clip-rule="evenodd" d="M42.5404 9.44013C42.454 9.29856 42.3277 9.18254 42.1756 9.10508C42.0235 9.02763 41.8517 8.99179 41.6792 9.00158C41.5068 9.01138 41.3407 9.06642 41.1995 9.16054C41.0583 9.25466 40.9476 9.38415 40.8797 9.53448L37.3477 17.36L34.395 18.9735C33.7542 19.3237 33.2866 19.9005 33.0951 20.577C32.9036 21.2536 33.0038 21.9744 33.3738 22.5809L37.0939 28.6796C37.4638 29.2861 38.0732 29.7287 38.788 29.91C39.5027 30.0913 40.2643 29.9964 40.9051 29.6462L43.8578 28.0327L52.7839 29.0502C52.9554 29.0698 53.1292 29.0437 53.2859 28.975C53.4426 28.9063 53.5761 28.7977 53.6712 28.6613C53.7664 28.5249 53.8195 28.366 53.8247 28.2026C53.8299 28.0392 53.7869 27.8777 53.7005 27.7361L42.5404 9.44013ZM38.9369 18.3211L41.8596 11.8451L51.1597 27.0917L43.773 26.2494C43.5732 26.2266 43.371 26.2658 43.1968 26.361L39.9751 28.1215C39.7615 28.2383 39.5076 28.2699 39.2694 28.2095C39.0311 28.149 38.828 28.0015 38.7047 27.7993L34.9846 21.7007C34.8613 21.4985 34.8279 21.2582 34.8917 21.0327C34.9556 20.8072 35.1114 20.6149 35.325 20.4982L38.5467 18.7377C38.721 18.6424 38.8579 18.4963 38.9369 18.3211ZM49.3917 10.697C49.2154 10.6179 49.0134 10.6075 48.8291 10.668C48.6448 10.7285 48.493 10.8551 48.4063 11.0205C48.3197 11.186 48.3051 11.377 48.3659 11.5525C48.4266 11.7279 48.5576 11.8738 48.7309 11.9587C50.565 12.8232 52.0894 14.1799 53.1139 15.8594C54.1384 17.5389 54.6175 19.4668 54.4914 21.4025C54.4787 21.589 54.5448 21.7726 54.6751 21.913C54.8054 22.0533 54.9893 22.1389 55.1863 22.151C55.3834 22.163 55.5774 22.1004 55.7257 21.9771C55.874 21.8537 55.9644 21.6797 55.9771 21.4932C56.1222 19.2799 55.5748 17.0752 54.4034 15.1547C53.232 13.2342 51.4884 11.6832 49.3908 10.6955L49.3917 10.697Z" fill="#5858B6"/>
</svg>
