<svg width="60" height="60" viewBox="0 0 60 60" fill="none" xmlns="http://www.w3.org/2000/svg">
<path d="M31 51H27.5714V40.8261C27.5701 39.4774 27.0278 38.1842 26.0636 37.2306C25.0994 36.2769 23.7921 35.7405 22.4286 35.7391H15.5714C14.2079 35.7405 12.9006 36.2769 11.9364 37.2306C10.9722 38.1842 10.4299 39.4774 10.4286 40.8261V51H7V40.8261C7.00272 38.5783 7.90665 36.4234 9.51352 34.834C11.1204 33.2446 13.299 32.3505 15.5714 32.3478H22.4286C24.701 32.3505 26.8796 33.2446 28.4865 34.834C30.0933 36.4234 30.9973 38.5783 31 40.8261V51ZM19 15.3913C20.0172 15.3913 21.0115 15.6896 21.8572 16.2486C22.703 16.8076 23.3621 17.602 23.7514 18.5316C24.1406 19.4611 24.2425 20.4839 24.044 21.4707C23.8456 22.4574 23.3558 23.3639 22.6365 24.0753C21.9173 24.7867 21.0009 25.2712 20.0033 25.4675C19.0057 25.6638 17.9716 25.563 17.0319 25.178C16.0922 24.793 15.289 24.141 14.7239 23.3044C14.1588 22.4679 13.8571 21.4844 13.8571 20.4783C13.8571 19.1291 14.399 17.8352 15.3635 16.8812C16.3279 15.9272 17.636 15.3913 19 15.3913ZM19 12C17.3047 12 15.6475 12.4972 14.238 13.4288C12.8284 14.3604 11.7298 15.6846 11.081 17.2338C10.4323 18.783 10.2625 20.4877 10.5933 22.1323C10.924 23.7769 11.7403 25.2876 12.9391 26.4733C14.1378 27.659 15.6651 28.4665 17.3278 28.7936C18.9905 29.1208 20.7139 28.9529 22.2801 28.3112C23.8464 27.6695 25.185 26.5828 26.1269 25.1885C27.0687 23.7943 27.5714 22.1551 27.5714 20.4783C27.5714 19.3649 27.3497 18.2624 26.919 17.2338C26.4882 16.2051 25.8568 15.2705 25.0609 14.4832C24.265 13.6959 23.3201 13.0714 22.2801 12.6454C21.2402 12.2193 20.1256 12 19 12Z" fill="#FAAD14"/>
<path d="M58.6926 7.01323L48.5 1.07752C48.3225 0.974161 48.1072 0.974161 47.9296 1.07752L44.0968 3.30961C44.0102 3.33514 43.9294 3.38203 43.8609 3.44684L37.737 7.01323C37.5475 7.12371 37.4296 7.33484 37.4296 7.56413V8.84908H30.5926C30.2653 8.84908 30 9.13067 30 9.47756C30 9.8247 30.2653 10.106 30.5926 10.106H37.4296V12.3686H34.0322C33.7049 12.3686 33.4396 12.6502 33.4396 12.9971C33.4396 13.3442 33.7049 13.6255 34.0322 13.6255H37.4296V16.8936H32.4519C32.1245 16.8936 31.8593 17.1752 31.8593 17.5221C31.8593 17.8693 32.1245 18.1506 32.4519 18.1506H37.4296V19.4358C37.4296 19.6651 37.5475 19.8762 37.737 19.9867L47.9296 25.9224C48.0185 25.9742 48.1167 26 48.2148 26C48.313 26 48.4111 25.9742 48.5 25.9224L58.6926 19.9867C58.8822 19.8762 59 19.6651 59 19.4358V16.6214C59 16.2745 58.7347 15.9929 58.4074 15.9929C58.0801 15.9929 57.8148 16.2745 57.8148 16.6214V19.0639L48.8074 24.3095V13.8718L51.672 12.2036V14.8511C51.672 15.0735 51.7826 15.2792 51.963 15.3922C52.0558 15.4503 52.1602 15.4796 52.2646 15.4796C52.3627 15.4796 52.4611 15.4538 52.5502 15.4017L54.7345 14.1269C54.9236 14.0164 55.0412 13.8055 55.0412 13.5762V10.2416L57.8148 8.62641V11.5935C57.8148 11.9407 58.0801 12.222 58.4074 12.222C58.7347 12.222 59 11.9407 59 11.5935V7.56413C59 7.33484 58.8822 7.12371 58.6926 7.01323ZM47.6222 24.3095L38.6148 19.0639V8.62641L47.6222 13.8718V24.3095ZM48.2148 12.783L39.2535 7.56413L42.0699 5.92394L51.0315 11.1428L48.2148 12.783ZM52.2627 10.4257L43.3012 5.20684L44.2727 4.6412L53.234 9.86005L52.2627 10.4257ZM53.856 13.2048L52.8572 13.7878V11.5135L53.856 10.9317V13.2048ZM54.4653 9.14295L45.5039 3.9241L48.2148 2.34553L57.1762 7.56413L54.4653 9.14295Z" fill="#FFC53D"/>
</svg>
