<svg width="50" height="50" viewBox="0 0 50 50" fill="none" xmlns="http://www.w3.org/2000/svg">
<path d="M13.021 4.16663C11.7778 4.16663 10.5855 4.66049 9.70643 5.53956C8.82736 6.41864 8.3335 7.61092 8.3335 8.85413V41.1458C8.3335 42.389 8.82736 43.5813 9.70643 44.4604C10.5855 45.3394 11.7778 45.8333 13.021 45.8333H28.646C29.8817 45.8333 31.0674 45.3455 31.9452 44.4759C32.823 43.6062 33.322 42.4251 33.3335 41.1895V38.0229C33.3335 37.6085 33.1689 37.2111 32.8758 36.918C32.5828 36.625 32.1854 36.4604 31.771 36.4604C30.8252 36.4604 30.2293 36.2041 29.8189 35.8729C29.3856 35.525 29.0272 34.9875 28.7564 34.2291C28.1877 32.6562 28.1252 30.5833 28.1252 28.6458C28.1251 28.2498 27.9747 27.8685 27.7043 27.5791L27.3627 27.2104C27.2503 27.0848 27.1321 26.9645 27.0085 26.85C26.8543 26.7041 26.3835 26.2562 24.5418 24.4166C23.5668 23.4395 23.0252 22.6145 22.8481 21.9833C22.7771 21.7645 22.7663 21.5306 22.8168 21.3062C22.8946 21.0474 23.0415 20.8147 23.2418 20.6333C23.4225 20.4331 23.6545 20.2862 23.9127 20.2083C24.1366 20.1585 24.3698 20.17 24.5877 20.2416C25.2189 20.4187 26.0439 20.9625 27.021 21.9395C28.146 23.0645 29.2127 24.1187 30.1689 25.0645C31.7522 26.6312 33.0314 27.8979 33.7522 28.6687C34.0349 28.9721 34.4264 29.1507 34.8408 29.1653C35.2551 29.18 35.6583 29.0295 35.9616 28.7468C36.265 28.4642 36.4436 28.0727 36.4583 27.6583C36.4729 27.244 36.3224 26.8408 36.0397 26.5375C35.1523 25.6099 34.2494 24.6973 33.3314 23.8V16.7916L39.2522 22.7125C40.1314 23.5916 40.6252 24.7833 40.6252 26.025V44.2708C40.6252 44.6852 40.7898 45.0826 41.0828 45.3756C41.3758 45.6687 41.7733 45.8333 42.1877 45.8333C42.6021 45.8333 42.9995 45.6687 43.2925 45.3756C43.5855 45.0826 43.7502 44.6852 43.7502 44.2708V26.027C43.7504 25.001 43.5484 23.985 43.1559 23.037C42.7635 22.089 42.1881 21.2276 41.4627 20.502L33.3335 12.3729V8.85204C33.3329 7.6092 32.8388 6.41745 31.9598 5.53883C31.0808 4.6602 29.8888 4.16663 28.646 4.16663H13.021ZM25.8168 35.2916C26.0168 35.85 26.2772 36.4041 26.6147 36.9208C25.819 37.3034 25.1475 37.9029 24.6776 38.6504C24.2077 39.3979 23.9584 40.2629 23.9585 41.1458V42.7083H17.7085V41.1458C17.7085 39.9026 17.2146 38.7103 16.3356 37.8312C15.4565 36.9522 14.2642 36.4583 13.021 36.4583H11.4585V13.5416H13.021C14.2642 13.5416 15.4565 13.0478 16.3356 12.1687C17.2146 11.2896 17.7085 10.0973 17.7085 8.85413V7.29163H23.9585V8.85413C23.9585 10.0973 24.4524 11.2896 25.3314 12.1687C26.2105 13.0478 27.4028 13.5416 28.646 13.5416H30.2085V20.7041L29.2293 19.7291C28.1252 18.6229 26.8377 17.6291 25.4377 17.2333C24.6893 17.0117 23.8953 16.9937 23.1377 17.1812C22.6676 17.303 22.2217 17.5038 21.8189 17.775C20.641 17.6143 19.4418 17.7441 18.3255 18.1529C17.2093 18.5618 16.2099 19.2374 15.4145 20.1209C14.6191 21.0043 14.0517 22.0689 13.7619 23.2217C13.472 24.3746 13.4684 25.5809 13.7514 26.7355C14.0344 27.8901 14.5954 28.958 15.3855 29.8462C16.1756 30.7344 17.171 31.4159 18.2847 31.8315C19.3985 32.247 20.597 32.3839 21.7758 32.2302C22.9546 32.0766 24.078 31.6371 25.0481 30.95C25.1272 32.375 25.321 33.9229 25.8168 35.2916ZM16.6668 25C16.6665 24.0926 16.9624 23.21 17.5095 22.4861C18.0566 21.7623 18.8251 21.2368 19.6981 20.9895C19.6177 21.6059 19.666 22.2323 19.8397 22.8291C20.2356 24.2312 21.2252 25.5187 22.3335 26.627L23.7189 28.0062C23.1296 28.5719 22.387 28.9519 21.5835 29.0989C20.78 29.2459 19.951 29.1536 19.1995 28.8332C18.4481 28.5129 17.8074 27.9788 17.3571 27.2972C16.9068 26.6157 16.6668 25.8168 16.6668 25ZM11.4585 8.85413C11.4585 8.43973 11.6231 8.0423 11.9161 7.74927C12.2092 7.45625 12.6066 7.29163 13.021 7.29163H14.5835V8.85413C14.5835 9.26853 14.4189 9.66596 14.1259 9.95898C13.8328 10.252 13.4354 10.4166 13.021 10.4166H11.4585V8.85413ZM27.0835 7.29163H28.646C29.0604 7.29163 29.4578 7.45625 29.7508 7.74927C30.0439 8.0423 30.2085 8.43973 30.2085 8.85413V10.4166H28.646C28.2316 10.4166 27.8342 10.252 27.5411 9.95898C27.2481 9.66596 27.0835 9.26853 27.0835 8.85413V7.29163ZM30.2085 39.5833V41.1458C30.2085 41.5602 30.0439 41.9576 29.7508 42.2506C29.4578 42.5437 29.0604 42.7083 28.646 42.7083H27.0835V41.1458C27.0835 40.7314 27.2481 40.334 27.5411 40.0409C27.8342 39.7479 28.2316 39.5833 28.646 39.5833H30.2085ZM14.5835 42.7083H13.021C12.6066 42.7083 12.2092 42.5437 11.9161 42.2506C11.6231 41.9576 11.4585 41.5602 11.4585 41.1458V39.5833H13.021C13.4354 39.5833 13.8328 39.7479 14.1259 40.0409C14.4189 40.334 14.5835 40.7314 14.5835 41.1458V42.7083Z" fill="#FCAF17"/>
</svg>
