<svg width="46" height="40" viewBox="0 0 46 40" fill="none" xmlns="http://www.w3.org/2000/svg">
<path fill-rule="evenodd" clip-rule="evenodd" d="M5.89609 12.4016C6.79163 10.2042 7.73838 8.28414 8.61643 7.18224C10.1465 6.14778 12.4763 5.21227 14.9955 4.50458C15.6435 7.97823 19.09 10.3529 22.8193 10.3529C26.5725 10.3529 30.0392 7.94777 30.6553 4.43783C30.7301 4.45803 30.8049 4.47845 30.8797 4.49911C33.8606 5.32304 36.3997 6.42823 37.6711 7.56619L37.6787 7.5763L37.6787 7.57635L37.6787 7.57641C37.6978 7.60169 37.7454 7.66495 37.8244 7.78427C37.9555 7.98235 38.1247 8.25999 38.325 8.61207C38.7242 9.31371 39.2174 10.2584 39.7359 11.3447C40.5618 13.0749 41.4267 15.1114 42.073 17.0468L36.5559 18.7777V10.3531C36.5559 9.46199 35.8335 8.73962 34.9425 8.73962C34.0514 8.73962 33.329 9.46199 33.329 10.3531V23.9329L33.3291 23.9545V36.7731H12.556V25.127L12.5563 25.0982L12.5563 10.3531C12.5563 9.46199 11.8339 8.73962 10.9428 8.73962C10.0518 8.73962 9.3294 9.46199 9.3294 10.3531V18.7543L4.16701 17.0771C4.6511 15.6673 5.24009 14.0113 5.89609 12.4016ZM27.4962 3.72489C25.7212 3.4004 24.066 3.22689 22.7969 3.22689C21.5859 3.22689 19.9416 3.41096 18.1473 3.75825C18.4116 5.48783 20.2022 7.12605 22.8193 7.12605C25.4532 7.12605 27.25 5.4667 27.4962 3.72489ZM22.7969 0C20.6307 0 17.5879 0.468923 14.6397 1.25632C11.7091 2.03904 8.66161 3.19153 6.58074 4.66705C6.4717 4.74438 6.37268 4.83495 6.28598 4.9367C5.0028 6.44247 3.84617 8.88136 2.90783 11.1838C1.97946 13.4618 1.18543 15.8123 0.639911 17.4271L0.584919 17.5899C0.446872 17.9984 0.478088 18.4452 0.671603 18.8305C0.865117 19.2159 1.20483 19.5077 1.61493 19.6409L9.32913 22.1471V38.3866C9.32913 39.2776 10.0515 40 10.9426 40H34.9426C35.8337 40 36.556 39.2776 36.556 38.3866V22.1596L44.5684 19.6459C45.3985 19.3855 45.8727 18.5137 45.6402 17.6753C44.9221 15.0852 43.733 12.2276 42.6481 9.95461C42.1031 8.81296 41.5744 7.79779 41.1297 7.01628C40.9081 6.62679 40.6999 6.28206 40.5151 6.00303C40.3601 5.76887 40.1367 5.44762 39.8852 5.21783C38.0289 3.52179 34.8297 2.24301 31.7394 1.38884C28.5912 0.518684 25.2212 0 22.7969 0Z" fill="#2A2A86"/>
<path d="M26.8889 20.2273H29.6667V30.8333H26.8889V20.2273ZM21.1944 16.25H23.9722V30.8333H21.1944V16.25ZM15.5 22.8788H18.2778V30.8333H15.5V22.8788Z" fill="#2A2A86" fill-opacity="0.5"/>
</svg>
