<svg width="61" height="60" viewBox="0 0 61 60" fill="none" xmlns="http://www.w3.org/2000/svg">
<g clip-path="url(#clip0_1423_17960)">
<path d="M53.9059 53.9679L50.7224 14.6155C50.6344 13.5285 49.7268 12.6913 48.6363 12.6913H42.3872V12.1862C42.3872 5.46697 36.9203 0 30.2003 0C23.4803 0 18.0133 5.46697 18.0133 12.1869V12.692H11.7643C10.6739 12.692 9.76613 13.5292 9.67821 14.6162L6.49468 53.9679C6.36911 55.5174 6.90077 57.0607 7.95426 58.2021C9.00847 59.3448 10.5042 60 12.0579 60H48.3426C49.897 60 51.3922 59.3448 52.4463 58.2021C53.4998 57.06 54.0307 55.5167 53.9059 53.9679ZM22.1994 12.1869C22.1994 7.77553 25.7889 4.18602 30.2003 4.18602C34.6117 4.18602 38.2012 7.77553 38.2012 12.1869V12.692H22.1994V12.1869ZM49.3689 55.3639C49.2141 55.5327 48.8749 55.814 48.3426 55.814H12.0579C11.5257 55.814 11.1865 55.5328 11.0317 55.3639C10.8768 55.1965 10.6242 54.8358 10.6675 54.3056L13.6953 16.8774H18.0132V27.2532C18.0132 28.4093 18.9502 29.3462 20.1062 29.3462C21.2622 29.3462 22.1992 28.4092 22.1992 27.2532V16.8774H38.2011V27.2532C38.2011 28.4093 39.1381 29.3462 40.2941 29.3462C41.4502 29.3462 42.3871 28.4092 42.3871 27.2532V16.8774H46.705L49.7329 54.3063C49.7763 54.8365 49.5231 55.1965 49.3689 55.3639Z" fill="#FFD666"/>
<path fill-rule="evenodd" clip-rule="evenodd" d="M37.9877 33C38.7919 33 39.4438 33.6519 39.4438 34.4561V46.1048C39.4438 46.909 38.7919 47.5609 37.9877 47.5609C37.1836 47.5609 36.5317 46.909 36.5317 46.1048V34.4561C36.5317 33.6519 37.1836 33 37.9877 33ZM30.2219 36.8829C31.0261 36.8829 31.678 37.5348 31.678 38.339V46.1048C31.678 46.909 31.0261 47.5609 30.2219 47.5609C29.4177 47.5609 28.7658 46.909 28.7658 46.1048V38.339C28.7658 37.5348 29.4177 36.8829 30.2219 36.8829ZM22.4561 40.7658C23.2603 40.7658 23.9122 41.4177 23.9122 42.2219V46.1048C23.9122 46.909 23.2603 47.5609 22.4561 47.5609C21.6519 47.5609 21 46.909 21 46.1048V42.2219C21 41.4177 21.6519 40.7658 22.4561 40.7658Z" fill="#FAAD14"/>
</g>
<defs>
<clipPath id="clip0_1423_17960">
<rect width="60" height="60" fill="white" transform="translate(0.201172)"/>
</clipPath>
</defs>
</svg>
