<svg width="50" height="50" viewBox="0 0 50 50" fill="none" xmlns="http://www.w3.org/2000/svg">
<path opacity="0.5" d="M46.1426 20.1172H33.6426C33.4277 20.1172 33.252 20.293 33.252 20.5078V22.8516C33.252 23.0664 33.4277 23.2422 33.6426 23.2422H46.1426C46.3574 23.2422 46.5332 23.0664 46.5332 22.8516V20.5078C46.5332 20.293 46.3574 20.1172 46.1426 20.1172ZM39.5996 26.7578H33.6426C33.4277 26.7578 33.252 26.9336 33.252 27.1484V29.4922C33.252 29.707 33.4277 29.8828 33.6426 29.8828H39.5996C39.8145 29.8828 39.9902 29.707 39.9902 29.4922V27.1484C39.9902 26.9336 39.8145 26.7578 39.5996 26.7578ZM23.3057 15.7471H21.1914C20.8887 15.7471 20.6445 15.9912 20.6445 16.2939V28.4033C20.6445 28.5791 20.7275 28.7402 20.8691 28.8428L28.1397 34.1455C28.3838 34.3213 28.7256 34.2725 28.9014 34.0283L30.1563 32.3145V32.3096C30.332 32.0654 30.2783 31.7236 30.0342 31.5479L23.8477 27.0752V16.2939C23.8525 15.9912 23.6035 15.7471 23.3057 15.7471V15.7471Z" fill="#FCAF17"/>
<path d="M39.2969 32.9053H36.4746C36.2012 32.9053 35.9424 33.0469 35.7959 33.2813C35.1758 34.2627 34.4532 35.1709 33.6231 36.001C32.1924 37.4317 30.5274 38.5547 28.6768 39.3359C26.7578 40.1465 24.7217 40.5567 22.6221 40.5567C20.5176 40.5567 18.4815 40.1465 16.5674 39.3359C14.7168 38.5547 13.0518 37.4317 11.6211 36.001C10.1905 34.5703 9.06742 32.9053 8.28617 31.0547C7.47562 29.1406 7.06546 27.1045 7.06546 25C7.06546 22.8955 7.47562 20.8643 8.28617 18.9453C9.06742 17.0947 10.1905 15.4297 11.6211 13.999C13.0518 12.5684 14.7168 11.4453 16.5674 10.6641C18.4815 9.85354 20.5225 9.44338 22.6221 9.44338C24.7266 9.44338 26.7627 9.85354 28.6768 10.6641C30.5274 11.4453 32.1924 12.5684 33.6231 13.999C34.4532 14.8291 35.1758 15.7373 35.7959 16.7188C35.9424 16.9531 36.2012 17.0947 36.4746 17.0947H39.2969C39.6338 17.0947 39.8487 16.7432 39.6973 16.4453C36.5137 10.1123 30.0586 5.99612 22.8516 5.91311C12.2998 5.78127 3.53519 14.419 3.51566 24.961C3.49613 35.5225 12.0557 44.0918 22.6172 44.0918C29.917 44.0918 36.4795 39.961 39.6973 33.5547C39.8487 33.2569 39.6289 32.9053 39.2969 32.9053V32.9053Z" fill="#FCAF17"/>
</svg>
