<svg width="50" height="50" viewBox="0 0 50 50" fill="none" xmlns="http://www.w3.org/2000/svg">
<path opacity="0.5" d="M23.3057 15.7471H21.1914C20.8887 15.7471 20.6445 15.9912 20.6445 16.2939V28.4033C20.6445 28.5791 20.7275 28.7402 20.8691 28.8428L28.1397 34.1455C28.3838 34.3213 28.7256 34.2725 28.9014 34.0283L30.1563 32.3145V32.3096C30.332 32.0654 30.2783 31.7236 30.0342 31.5479L23.8477 27.0752V16.2939C23.8525 15.9912 23.6035 15.7471 23.3057 15.7471Z" fill="#2A2A86"/>
<path d="M39.2969 32.9053H36.4746C36.2012 32.9053 35.9424 33.0469 35.7959 33.2813C35.1758 34.2627 34.4532 35.1709 33.6231 36.001C32.1924 37.4317 30.5274 38.5547 28.6768 39.3359C26.7578 40.1465 24.7217 40.5567 22.6221 40.5567C20.5176 40.5567 18.4815 40.1465 16.5674 39.3359C14.7168 38.5547 13.0518 37.4317 11.6211 36.001C10.1905 34.5703 9.06742 32.9053 8.28617 31.0547C7.47562 29.1406 7.06546 27.1045 7.06546 25C7.06546 22.8955 7.47562 20.8643 8.28617 18.9453C9.06742 17.0947 10.1905 15.4297 11.6211 13.999C13.0518 12.5684 14.7168 11.4453 16.5674 10.6641C18.4815 9.85354 20.5225 9.44338 22.6221 9.44338C24.7266 9.44338 26.7627 9.85354 28.6768 10.6641C30.5274 11.4453 32.1924 12.5684 33.6231 13.999C34.4532 14.8291 35.1758 15.7373 35.7959 16.7188C35.9424 16.9531 36.2012 17.0947 36.4746 17.0947H39.2969C39.6338 17.0947 39.8487 16.7432 39.6973 16.4453C36.5137 10.1123 30.0586 5.99612 22.8516 5.91311C12.2998 5.78127 3.53519 14.419 3.51566 24.961C3.49613 35.5225 12.0557 44.0918 22.6172 44.0918C29.917 44.0918 36.4795 39.961 39.6973 33.5547C39.8487 33.2569 39.6289 32.9053 39.2969 32.9053V32.9053Z" fill="#2A2A86"/>
<path d="M44.3 24.3389C42.03 23.7161 41.3 23.0722 41.3 22.0694C41.3 20.9189 42.31 20.1167 44 20.1167C45.42 20.1167 46.13 20.6867 46.39 21.5944C46.51 22.0167 46.84 22.3333 47.26 22.3333H47.56C48.22 22.3333 48.69 21.6472 48.46 20.9928C48.04 19.7472 47.06 18.7128 45.5 18.3117V17.5833C45.5 16.7072 44.83 16 44 16C43.17 16 42.5 16.7072 42.5 17.5833V18.28C40.56 18.7233 39 20.0533 39 22.0906C39 24.5289 40.91 25.7428 43.7 26.45C46.2 27.0833 46.7 28.0122 46.7 28.9939C46.7 29.7222 46.21 30.8833 44 30.8833C42.35 30.8833 41.5 30.2606 41.17 29.3739C41.02 28.9622 40.68 28.6667 40.27 28.6667H39.99C39.32 28.6667 38.85 29.3844 39.1 30.0389C39.67 31.5061 41 32.3717 42.5 32.7094V33.4167C42.5 34.2928 43.17 35 44 35C44.83 35 45.5 34.2928 45.5 33.4167V32.7306C47.45 32.34 49 31.1472 49 28.9833C49 25.9856 46.57 24.9617 44.3 24.3389Z" fill="#2A2A86" fill-opacity="0.5"/>
</svg>
