<svg width="50" height="50" viewBox="0 0 50 50" fill="none" xmlns="http://www.w3.org/2000/svg">
<path fill-rule="evenodd" clip-rule="evenodd" d="M24.1792 4.33507C24.7032 4.11048 25.2964 4.11048 25.8205 4.33507L40.4038 10.5851C41.313 10.9747 41.8228 11.9499 41.624 12.9188C41.4251 13.8878 40.5723 14.5833 39.5832 14.5833H10.4165C9.42737 14.5833 8.5746 13.8878 8.37572 12.9188C8.17684 11.9499 8.68668 10.9747 9.59584 10.5851L24.1792 4.33507ZM20.5663 10.4166H29.4333L24.9998 8.51656L20.5663 10.4166ZM4.1665 20.8333C4.1665 19.6827 5.09924 18.75 6.24984 18.75H43.7498C44.9004 18.75 45.8332 19.6827 45.8332 20.8333C45.8332 21.9839 44.9004 22.9166 43.7498 22.9166V41.6666C44.9004 41.6666 45.8332 42.5994 45.8332 43.75C45.8332 44.9006 44.9004 45.8333 43.7498 45.8333H6.24984C5.09924 45.8333 4.1665 44.9006 4.1665 43.75C4.1665 42.5994 5.09924 41.6666 6.24984 41.6666V22.9166C5.09924 22.9166 4.1665 21.9839 4.1665 20.8333ZM10.4165 22.9166V41.6666H39.5832V22.9166H10.4165Z" fill="#FCAF17"/>
<path fill-rule="evenodd" clip-rule="evenodd" d="M16.6663 27.0833C17.8169 27.0833 18.7497 28.016 18.7497 29.1666V35.4166C18.7497 36.5672 17.8169 37.4999 16.6663 37.4999C15.5157 37.4999 14.583 36.5672 14.583 35.4166V29.1666C14.583 28.016 15.5157 27.0833 16.6663 27.0833ZM24.9997 27.0833C26.1503 27.0833 27.083 28.016 27.083 29.1666V35.4166C27.083 36.5672 26.1503 37.4999 24.9997 37.4999C23.8491 37.4999 22.9163 36.5672 22.9163 35.4166V29.1666C22.9163 28.016 23.8491 27.0833 24.9997 27.0833ZM33.333 27.0833C34.4836 27.0833 35.4163 28.016 35.4163 29.1666V35.4166C35.4163 36.5672 34.4836 37.4999 33.333 37.4999C32.1824 37.4999 31.2497 36.5672 31.2497 35.4166V29.1666C31.2497 28.016 32.1824 27.0833 33.333 27.0833Z" fill="#FCAF17" fill-opacity="0.5"/>
</svg>
