<svg width="60" height="60" viewBox="0 0 60 60" fill="none" xmlns="http://www.w3.org/2000/svg">
<path d="M13.75 35C13.75 35.9946 14.1451 36.9484 14.8483 37.6517C15.5516 38.3549 16.5054 38.75 17.5 38.75H42.5C43.4946 38.75 44.4484 38.3549 45.1516 37.6517C45.8549 36.9484 46.25 35.9946 46.25 35V16.25C46.2506 15.9579 46.1489 15.6749 45.9625 15.45L40.5 8.85C40.1474 8.42669 39.7059 8.08627 39.2068 7.85294C38.7078 7.61961 38.1634 7.49911 37.6125 7.5H21.3625C20.7439 7.49977 20.1348 7.6526 19.5895 7.94485C19.0443 8.2371 18.5798 8.65971 18.2375 9.17501L13.9875 15.5625C13.8419 15.7631 13.7593 16.0024 13.75 16.25V35ZM43.75 35C43.75 35.3315 43.6183 35.6495 43.3839 35.8839C43.1495 36.1183 42.8315 36.25 42.5 36.25H17.5C17.1685 36.25 16.8505 36.1183 16.6161 35.8839C16.3817 35.6495 16.25 35.3315 16.25 35V17.5H25V22.5C25 22.8315 25.1317 23.1495 25.3661 23.3839C25.6005 23.6183 25.9185 23.75 26.25 23.75H33.75C34.0815 23.75 34.3995 23.6183 34.6339 23.3839C34.8683 23.1495 35 22.8315 35 22.5V17.5H43.75V35ZM27.5 17.5H32.5V21.25H27.5V17.5ZM38.575 10.45L42.325 15H34.825L33.9875 10H37.625C37.8065 10.0015 37.9855 10.0426 38.1496 10.1203C38.3137 10.198 38.4588 10.3105 38.575 10.45ZM31.4375 10L32.275 15H27.725L28.5625 10H31.4375ZM20.3 10.5625C20.4132 10.3906 20.5672 10.2492 20.7482 10.1511C20.9292 10.053 21.1316 10.0011 21.3375 10H26.025L25.1875 15H17.3375L20.3 10.5625Z" fill="#8080DA"/>
<path d="M25 31.25H20C19.6685 31.25 19.3505 31.3817 19.1161 31.6161C18.8817 31.8505 18.75 32.1685 18.75 32.5C18.75 32.8315 18.8817 33.1495 19.1161 33.3839C19.3505 33.6183 19.6685 33.75 20 33.75H25C25.3315 33.75 25.6495 33.6183 25.8839 33.3839C26.1183 33.1495 26.25 32.8315 26.25 32.5C26.25 32.1685 26.1183 31.8505 25.8839 31.6161C25.6495 31.3817 25.3315 31.25 25 31.25Z" fill="#8080DA"/>
<path d="M51.2507 41.25C49.8099 41.2497 48.4132 41.7472 47.297 42.6584C46.1809 43.5695 45.4138 44.8383 45.1257 46.25H45.0007H36.1257C35.8388 44.8371 35.0723 43.5669 33.956 42.6545C32.8397 41.7422 31.4424 41.2437 30.0007 41.2437C28.559 41.2437 27.1616 41.7422 26.0454 42.6545C24.9291 43.5669 24.1626 44.8371 23.8757 46.25H14.8757C14.5659 44.7325 13.7037 43.384 12.4562 42.466C11.2087 41.548 9.66478 41.126 8.12377 41.2817C6.58277 41.4373 5.15446 42.1596 4.11576 43.3086C3.07705 44.4575 2.50195 45.9512 2.50195 47.5C2.50195 49.0489 3.07705 50.5425 4.11576 51.6915C5.15446 52.8404 6.58277 53.5627 8.12377 53.7184C9.66478 53.874 11.2087 53.452 12.4562 52.534C13.7037 51.616 14.5659 50.2676 14.8757 48.75H23.8757C24.1626 50.1629 24.9291 51.4331 26.0454 52.3455C27.1616 53.2579 28.559 53.7563 30.0007 53.7563C31.4424 53.7563 32.8397 53.2579 33.956 52.3455C35.0723 51.4331 35.8388 50.1629 36.1257 48.75H45.0007H45.1257C45.3622 49.9087 45.9225 50.9764 46.7417 51.8293C47.5608 52.6822 48.6051 53.2852 49.7533 53.5683C50.9014 53.8514 52.1063 53.8029 53.228 53.4285C54.3497 53.0542 55.3422 52.3693 56.0902 51.4534C56.8382 50.5374 57.311 49.4281 57.4537 48.2542C57.5964 47.0803 57.4032 45.89 56.8964 44.8216C56.3896 43.7531 55.5901 42.8504 54.5908 42.2182C53.5914 41.586 52.4332 41.2503 51.2507 41.25ZM8.75068 51.25C8.009 51.25 7.28397 51.0301 6.66729 50.618C6.0506 50.206 5.56996 49.6203 5.28613 48.9351C5.0023 48.2498 4.92804 47.4959 5.07273 46.7684C5.21743 46.041 5.57458 45.3728 6.09903 44.8484C6.62347 44.3239 7.29166 43.9668 8.01909 43.8221C8.74652 43.6774 9.50052 43.7516 10.1857 44.0355C10.871 44.3193 11.4566 44.7999 11.8687 45.4166C12.2807 46.0333 12.5007 46.7583 12.5007 47.5C12.5007 48.4946 12.1056 49.4484 11.4023 50.1517C10.6991 50.8549 9.74524 51.25 8.75068 51.25ZM30.0007 51.25C29.259 51.25 28.534 51.0301 27.9173 50.618C27.3006 50.206 26.82 49.6203 26.5361 48.9351C26.2523 48.2498 26.178 47.4959 26.3227 46.7684C26.4674 46.041 26.8246 45.3728 27.349 44.8484C27.8735 44.3239 28.5417 43.9668 29.2691 43.8221C29.9965 43.6774 30.7505 43.7516 31.4357 44.0355C32.121 44.3193 32.7066 44.7999 33.1187 45.4166C33.5307 46.0333 33.7507 46.7583 33.7507 47.5C33.7507 48.4946 33.3556 49.4484 32.6523 50.1517C31.9491 50.8549 30.9952 51.25 30.0007 51.25ZM51.2507 51.25C50.509 51.25 49.784 51.0301 49.1673 50.618C48.5506 50.206 48.07 49.6203 47.7861 48.9351C47.5023 48.2498 47.428 47.4959 47.5727 46.7684C47.7174 46.041 48.0746 45.3728 48.599 44.8484C49.1235 44.3239 49.7917 43.9668 50.5191 43.8221C51.2465 43.6774 52.0005 43.7516 52.6857 44.0355C53.371 44.3193 53.9566 44.7999 54.3687 45.4166C54.7807 46.0333 55.0007 46.7583 55.0007 47.5C55.0007 48.4946 54.6056 49.4484 53.9023 50.1517C53.1991 50.8549 52.2452 51.25 51.2507 51.25Z" fill="#2A2A86"/>
<path d="M30 48.75C30.6904 48.75 31.25 48.1904 31.25 47.5C31.25 46.8096 30.6904 46.25 30 46.25C29.3096 46.25 28.75 46.8096 28.75 47.5C28.75 48.1904 29.3096 48.75 30 48.75Z" fill="#2A2A86"/>
</svg>
