<svg width="86" height="40" viewBox="0 0 86 40" fill="none" xmlns="http://www.w3.org/2000/svg">
<path d="M31.9395 24.9625C30.9562 24.9646 29.9932 24.6816 29.1668 24.1476C28.3403 23.6136 27.6856 22.8515 27.2817 21.953C26.8777 21.0546 26.7417 20.0582 26.8901 19.0841C27.0385 18.1099 27.465 17.1996 28.118 16.4629C28.771 15.7261 29.6228 15.1944 30.5706 14.9319C31.5184 14.6693 32.5218 14.6871 33.4597 14.9832C34.3977 15.2792 35.2301 15.8408 35.8567 16.6002C36.4833 17.3597 36.8773 18.2846 36.9912 19.2634H42.1094C41.9558 16.6056 40.7744 14.1124 38.8162 12.3133C36.8579 10.5142 34.277 9.55093 31.6215 9.62791C28.9659 9.7049 26.4449 10.8161 24.5937 12.7257C22.7426 14.6352 21.707 17.1926 21.707 19.8548C21.707 22.5171 22.7426 25.0745 24.5937 26.984C26.4449 28.8936 28.9659 30.0048 31.6215 30.0818C34.277 30.1588 36.8579 29.1955 38.8162 27.3964C40.7744 25.5973 41.9558 23.1041 42.1094 20.4463H37.0098C36.865 21.6914 36.2683 22.8397 35.3333 23.6724C34.3983 24.5052 33.1904 24.9644 31.9395 24.9625Z" fill="white"/>
<path d="M15.1677 10.2178V20.2492C15.1677 22.8736 12.8412 24.9998 10.2224 24.9998C7.60346 24.9998 5.25576 22.8656 5.25576 20.2492V10.2178H0.299805V20.2492C0.299805 21.5548 0.556478 22.8477 1.05517 24.054C1.55385 25.2602 2.28479 26.3562 3.20621 27.2793C4.12764 28.2025 5.22152 28.9346 6.42536 29.434C7.6292 29.9335 8.91943 30.1903 10.2224 30.19C12.1127 30.19 13.5671 29.7077 15.1677 28.2397V30.2193C15.1677 32.8437 13.1045 34.9699 10.2224 34.9699C7.34024 34.9699 5.05104 32.8384 5.05104 30.2193H0.299805C0.342421 32.8279 1.40643 35.3153 3.26238 37.1449C5.11834 38.9746 7.61753 40 10.221 40C12.8245 40 15.3237 38.9746 17.1797 37.1449C19.0356 35.3153 20.0996 32.8279 20.1422 30.2193V10.2364L15.1677 10.2178Z" fill="white"/>
<path d="M80.7253 10.2178V20.2492C80.7253 22.8736 78.3989 24.9998 75.78 24.9998C73.1611 24.9998 70.8134 22.8683 70.8134 20.2492V10.2178H65.8574V20.2492C65.8574 21.5548 66.1141 22.8477 66.6128 24.054C67.1115 25.2602 67.8424 26.3562 68.7638 27.2793C69.6853 28.2025 70.7791 28.9346 71.983 29.434C73.1868 29.9335 74.4771 30.1903 75.78 30.19C77.6704 30.19 79.1247 29.7077 80.7253 28.2397V30.2193C80.7253 32.8437 78.6621 34.9699 75.78 34.9699C72.8979 34.9699 70.6087 32.8384 70.6087 30.2193H65.8574C65.9 32.8279 66.964 35.3153 68.82 37.1449C70.676 38.9746 73.1751 40 75.7786 40C78.3821 40 80.8813 38.9746 82.7373 37.1449C84.5932 35.3153 85.6572 32.8279 85.6999 30.2193V10.2364L80.7253 10.2178Z" fill="#FCAF17"/>
<path d="M58.8539 0V11.3796C57.3377 10.2607 55.5069 9.65166 53.6241 9.63973C48.3065 9.63973 43.9833 13.9027 43.6855 19.2661H48.7798C48.9301 17.9657 49.5709 16.7721 50.571 15.9299C51.5711 15.0876 52.8547 14.6604 54.1589 14.7359C55.4631 14.8113 56.6891 15.3837 57.5858 16.3356C58.4825 17.2876 58.9821 18.5472 58.9821 19.8563C58.9821 21.1654 58.4825 22.425 57.5858 23.3769C56.6891 24.3289 55.4631 24.9013 54.1589 24.9767C52.8547 25.0521 51.5711 24.625 50.571 23.7827C49.5709 22.9405 48.9301 21.7469 48.7798 20.4465H43.6855C43.986 25.8125 48.3198 30.0702 53.6241 30.0702C55.5218 30.0361 57.3622 29.4123 58.8911 28.2851L59.6143 29.8357H63.8444V0H58.8539Z" fill="#FCAF17"/>
</svg>
